G04 #@! TF.GenerationSoftware,KiCad,Pcbnew,(5.1.4)-1*
G04 #@! TF.CreationDate,2019-10-05T19:56:59+09:00*
G04 #@! TF.ProjectId,battery-pack-pcb,62617474-6572-4792-9d70-61636b2d7063,rev?*
G04 #@! TF.SameCoordinates,PX2faf080PY2faf080*
G04 #@! TF.FileFunction,Copper,L1,Top*
G04 #@! TF.FilePolarity,Positive*
%FSLAX46Y46*%
G04 Gerber Fmt 4.6, Leading zero omitted, Abs format (unit mm)*
G04 Created by KiCad (PCBNEW (5.1.4)-1) date 2019-10-05 19:56:59*
%MOMM*%
%LPD*%
G04 APERTURE LIST*
%ADD10C,0.100000*%
%ADD11C,1.425000*%
%ADD12C,1.600000*%
%ADD13C,1.600000*%
%ADD14C,10.160000*%
%ADD15C,1.200000*%
%ADD16O,1.750000X1.200000*%
%ADD17R,1.200000X0.900000*%
%ADD18C,0.250000*%
G04 APERTURE END LIST*
D10*
G36*
X28599504Y-24801204D02*
G01*
X28623773Y-24804804D01*
X28647571Y-24810765D01*
X28670671Y-24819030D01*
X28692849Y-24829520D01*
X28713893Y-24842133D01*
X28733598Y-24856747D01*
X28751777Y-24873223D01*
X28768253Y-24891402D01*
X28782867Y-24911107D01*
X28795480Y-24932151D01*
X28805970Y-24954329D01*
X28814235Y-24977429D01*
X28820196Y-25001227D01*
X28823796Y-25025496D01*
X28825000Y-25050000D01*
X28825000Y-25975000D01*
X28823796Y-25999504D01*
X28820196Y-26023773D01*
X28814235Y-26047571D01*
X28805970Y-26070671D01*
X28795480Y-26092849D01*
X28782867Y-26113893D01*
X28768253Y-26133598D01*
X28751777Y-26151777D01*
X28733598Y-26168253D01*
X28713893Y-26182867D01*
X28692849Y-26195480D01*
X28670671Y-26205970D01*
X28647571Y-26214235D01*
X28623773Y-26220196D01*
X28599504Y-26223796D01*
X28575000Y-26225000D01*
X26425000Y-26225000D01*
X26400496Y-26223796D01*
X26376227Y-26220196D01*
X26352429Y-26214235D01*
X26329329Y-26205970D01*
X26307151Y-26195480D01*
X26286107Y-26182867D01*
X26266402Y-26168253D01*
X26248223Y-26151777D01*
X26231747Y-26133598D01*
X26217133Y-26113893D01*
X26204520Y-26092849D01*
X26194030Y-26070671D01*
X26185765Y-26047571D01*
X26179804Y-26023773D01*
X26176204Y-25999504D01*
X26175000Y-25975000D01*
X26175000Y-25050000D01*
X26176204Y-25025496D01*
X26179804Y-25001227D01*
X26185765Y-24977429D01*
X26194030Y-24954329D01*
X26204520Y-24932151D01*
X26217133Y-24911107D01*
X26231747Y-24891402D01*
X26248223Y-24873223D01*
X26266402Y-24856747D01*
X26286107Y-24842133D01*
X26307151Y-24829520D01*
X26329329Y-24819030D01*
X26352429Y-24810765D01*
X26376227Y-24804804D01*
X26400496Y-24801204D01*
X26425000Y-24800000D01*
X28575000Y-24800000D01*
X28599504Y-24801204D01*
X28599504Y-24801204D01*
G37*
D11*
X27500000Y-25512500D03*
D10*
G36*
X28599504Y-27776204D02*
G01*
X28623773Y-27779804D01*
X28647571Y-27785765D01*
X28670671Y-27794030D01*
X28692849Y-27804520D01*
X28713893Y-27817133D01*
X28733598Y-27831747D01*
X28751777Y-27848223D01*
X28768253Y-27866402D01*
X28782867Y-27886107D01*
X28795480Y-27907151D01*
X28805970Y-27929329D01*
X28814235Y-27952429D01*
X28820196Y-27976227D01*
X28823796Y-28000496D01*
X28825000Y-28025000D01*
X28825000Y-28950000D01*
X28823796Y-28974504D01*
X28820196Y-28998773D01*
X28814235Y-29022571D01*
X28805970Y-29045671D01*
X28795480Y-29067849D01*
X28782867Y-29088893D01*
X28768253Y-29108598D01*
X28751777Y-29126777D01*
X28733598Y-29143253D01*
X28713893Y-29157867D01*
X28692849Y-29170480D01*
X28670671Y-29180970D01*
X28647571Y-29189235D01*
X28623773Y-29195196D01*
X28599504Y-29198796D01*
X28575000Y-29200000D01*
X26425000Y-29200000D01*
X26400496Y-29198796D01*
X26376227Y-29195196D01*
X26352429Y-29189235D01*
X26329329Y-29180970D01*
X26307151Y-29170480D01*
X26286107Y-29157867D01*
X26266402Y-29143253D01*
X26248223Y-29126777D01*
X26231747Y-29108598D01*
X26217133Y-29088893D01*
X26204520Y-29067849D01*
X26194030Y-29045671D01*
X26185765Y-29022571D01*
X26179804Y-28998773D01*
X26176204Y-28974504D01*
X26175000Y-28950000D01*
X26175000Y-28025000D01*
X26176204Y-28000496D01*
X26179804Y-27976227D01*
X26185765Y-27952429D01*
X26194030Y-27929329D01*
X26204520Y-27907151D01*
X26217133Y-27886107D01*
X26231747Y-27866402D01*
X26248223Y-27848223D01*
X26266402Y-27831747D01*
X26286107Y-27817133D01*
X26307151Y-27804520D01*
X26329329Y-27794030D01*
X26352429Y-27785765D01*
X26376227Y-27779804D01*
X26400496Y-27776204D01*
X26425000Y-27775000D01*
X28575000Y-27775000D01*
X28599504Y-27776204D01*
X28599504Y-27776204D01*
G37*
D11*
X27500000Y-28487500D03*
D12*
X20778175Y-5721825D03*
D13*
X19788226Y-4731876D02*
X21768124Y-6711774D01*
D12*
X5221825Y-21278175D03*
D13*
X4231876Y-20288226D02*
X6211774Y-22268124D01*
D10*
G36*
X13497927Y-8444461D02*
G01*
X13991059Y-8517610D01*
X14474646Y-8638742D01*
X14944032Y-8806691D01*
X15394695Y-9019839D01*
X15822297Y-9276133D01*
X16222718Y-9573106D01*
X16592102Y-9907897D01*
X16592103Y-9907898D01*
X16926894Y-10277282D01*
X17223867Y-10677703D01*
X17480161Y-11105305D01*
X17693309Y-11555968D01*
X17861258Y-12025354D01*
X17982390Y-12508941D01*
X18055539Y-13002073D01*
X18080001Y-13500000D01*
X18055539Y-13997927D01*
X17982390Y-14491059D01*
X17861258Y-14974646D01*
X17693309Y-15444032D01*
X17480161Y-15894695D01*
X17223867Y-16322297D01*
X16926894Y-16722718D01*
X16592103Y-17092102D01*
X16592102Y-17092103D01*
X16222718Y-17426894D01*
X15822297Y-17723867D01*
X15394695Y-17980161D01*
X14944032Y-18193309D01*
X14474646Y-18361258D01*
X13991059Y-18482390D01*
X13497927Y-18555539D01*
X13000000Y-18580001D01*
X12502073Y-18555539D01*
X12008941Y-18482390D01*
X11525354Y-18361258D01*
X11055968Y-18193309D01*
X10605305Y-17980161D01*
X10177703Y-17723867D01*
X9777282Y-17426894D01*
X9407898Y-17092103D01*
X9407897Y-17092102D01*
X9073106Y-16722718D01*
X8776133Y-16322297D01*
X8519839Y-15894695D01*
X8306691Y-15444032D01*
X8138742Y-14974646D01*
X8017610Y-14491059D01*
X7944461Y-13997927D01*
X7919999Y-13500000D01*
X7944461Y-13002073D01*
X8017610Y-12508941D01*
X8138742Y-12025354D01*
X8306691Y-11555968D01*
X8519839Y-11105305D01*
X8776133Y-10677703D01*
X9073106Y-10277282D01*
X9407897Y-9907898D01*
X9407898Y-9907897D01*
X9777282Y-9573106D01*
X10177703Y-9276133D01*
X10605305Y-9019839D01*
X11055968Y-8806691D01*
X11525354Y-8638742D01*
X12008941Y-8517610D01*
X12502073Y-8444461D01*
X13000000Y-8419999D01*
X13497927Y-8444461D01*
X13497927Y-8444461D01*
G37*
D14*
X13000000Y-13500000D03*
D12*
X49778175Y-21278175D03*
D13*
X50768124Y-20288226D02*
X48788226Y-22268124D01*
D12*
X34221825Y-5721825D03*
D13*
X35211774Y-4731876D02*
X33231876Y-6711774D01*
D10*
G36*
X42497927Y-8444461D02*
G01*
X42991059Y-8517610D01*
X43474646Y-8638742D01*
X43944032Y-8806691D01*
X44394695Y-9019839D01*
X44822297Y-9276133D01*
X45222718Y-9573106D01*
X45592102Y-9907897D01*
X45592103Y-9907898D01*
X45926894Y-10277282D01*
X46223867Y-10677703D01*
X46480161Y-11105305D01*
X46693309Y-11555968D01*
X46861258Y-12025354D01*
X46982390Y-12508941D01*
X47055539Y-13002073D01*
X47080001Y-13500000D01*
X47055539Y-13997927D01*
X46982390Y-14491059D01*
X46861258Y-14974646D01*
X46693309Y-15444032D01*
X46480161Y-15894695D01*
X46223867Y-16322297D01*
X45926894Y-16722718D01*
X45592103Y-17092102D01*
X45592102Y-17092103D01*
X45222718Y-17426894D01*
X44822297Y-17723867D01*
X44394695Y-17980161D01*
X43944032Y-18193309D01*
X43474646Y-18361258D01*
X42991059Y-18482390D01*
X42497927Y-18555539D01*
X42000000Y-18580001D01*
X41502073Y-18555539D01*
X41008941Y-18482390D01*
X40525354Y-18361258D01*
X40055968Y-18193309D01*
X39605305Y-17980161D01*
X39177703Y-17723867D01*
X38777282Y-17426894D01*
X38407898Y-17092103D01*
X38407897Y-17092102D01*
X38073106Y-16722718D01*
X37776133Y-16322297D01*
X37519839Y-15894695D01*
X37306691Y-15444032D01*
X37138742Y-14974646D01*
X37017610Y-14491059D01*
X36944461Y-13997927D01*
X36919999Y-13500000D01*
X36944461Y-13002073D01*
X37017610Y-12508941D01*
X37138742Y-12025354D01*
X37306691Y-11555968D01*
X37519839Y-11105305D01*
X37776133Y-10677703D01*
X38073106Y-10277282D01*
X38407897Y-9907898D01*
X38407898Y-9907897D01*
X38777282Y-9573106D01*
X39177703Y-9276133D01*
X39605305Y-9019839D01*
X40055968Y-8806691D01*
X40525354Y-8638742D01*
X41008941Y-8517610D01*
X41502073Y-8444461D01*
X42000000Y-8419999D01*
X42497927Y-8444461D01*
X42497927Y-8444461D01*
G37*
D14*
X42000000Y-13500000D03*
D10*
G36*
X41649505Y-30901204D02*
G01*
X41673773Y-30904804D01*
X41697572Y-30910765D01*
X41720671Y-30919030D01*
X41742850Y-30929520D01*
X41763893Y-30942132D01*
X41783599Y-30956747D01*
X41801777Y-30973223D01*
X41818253Y-30991401D01*
X41832868Y-31011107D01*
X41845480Y-31032150D01*
X41855970Y-31054329D01*
X41864235Y-31077428D01*
X41870196Y-31101227D01*
X41873796Y-31125495D01*
X41875000Y-31149999D01*
X41875000Y-31850001D01*
X41873796Y-31874505D01*
X41870196Y-31898773D01*
X41864235Y-31922572D01*
X41855970Y-31945671D01*
X41845480Y-31967850D01*
X41832868Y-31988893D01*
X41818253Y-32008599D01*
X41801777Y-32026777D01*
X41783599Y-32043253D01*
X41763893Y-32057868D01*
X41742850Y-32070480D01*
X41720671Y-32080970D01*
X41697572Y-32089235D01*
X41673773Y-32095196D01*
X41649505Y-32098796D01*
X41625001Y-32100000D01*
X40374999Y-32100000D01*
X40350495Y-32098796D01*
X40326227Y-32095196D01*
X40302428Y-32089235D01*
X40279329Y-32080970D01*
X40257150Y-32070480D01*
X40236107Y-32057868D01*
X40216401Y-32043253D01*
X40198223Y-32026777D01*
X40181747Y-32008599D01*
X40167132Y-31988893D01*
X40154520Y-31967850D01*
X40144030Y-31945671D01*
X40135765Y-31922572D01*
X40129804Y-31898773D01*
X40126204Y-31874505D01*
X40125000Y-31850001D01*
X40125000Y-31149999D01*
X40126204Y-31125495D01*
X40129804Y-31101227D01*
X40135765Y-31077428D01*
X40144030Y-31054329D01*
X40154520Y-31032150D01*
X40167132Y-31011107D01*
X40181747Y-30991401D01*
X40198223Y-30973223D01*
X40216401Y-30956747D01*
X40236107Y-30942132D01*
X40257150Y-30929520D01*
X40279329Y-30919030D01*
X40302428Y-30910765D01*
X40326227Y-30904804D01*
X40350495Y-30901204D01*
X40374999Y-30900000D01*
X41625001Y-30900000D01*
X41649505Y-30901204D01*
X41649505Y-30901204D01*
G37*
D15*
X41000000Y-31500000D03*
D16*
X41000000Y-29500000D03*
D10*
G36*
X14649505Y-28901204D02*
G01*
X14673773Y-28904804D01*
X14697572Y-28910765D01*
X14720671Y-28919030D01*
X14742850Y-28929520D01*
X14763893Y-28942132D01*
X14783599Y-28956747D01*
X14801777Y-28973223D01*
X14818253Y-28991401D01*
X14832868Y-29011107D01*
X14845480Y-29032150D01*
X14855970Y-29054329D01*
X14864235Y-29077428D01*
X14870196Y-29101227D01*
X14873796Y-29125495D01*
X14875000Y-29149999D01*
X14875000Y-29850001D01*
X14873796Y-29874505D01*
X14870196Y-29898773D01*
X14864235Y-29922572D01*
X14855970Y-29945671D01*
X14845480Y-29967850D01*
X14832868Y-29988893D01*
X14818253Y-30008599D01*
X14801777Y-30026777D01*
X14783599Y-30043253D01*
X14763893Y-30057868D01*
X14742850Y-30070480D01*
X14720671Y-30080970D01*
X14697572Y-30089235D01*
X14673773Y-30095196D01*
X14649505Y-30098796D01*
X14625001Y-30100000D01*
X13374999Y-30100000D01*
X13350495Y-30098796D01*
X13326227Y-30095196D01*
X13302428Y-30089235D01*
X13279329Y-30080970D01*
X13257150Y-30070480D01*
X13236107Y-30057868D01*
X13216401Y-30043253D01*
X13198223Y-30026777D01*
X13181747Y-30008599D01*
X13167132Y-29988893D01*
X13154520Y-29967850D01*
X13144030Y-29945671D01*
X13135765Y-29922572D01*
X13129804Y-29898773D01*
X13126204Y-29874505D01*
X13125000Y-29850001D01*
X13125000Y-29149999D01*
X13126204Y-29125495D01*
X13129804Y-29101227D01*
X13135765Y-29077428D01*
X13144030Y-29054329D01*
X13154520Y-29032150D01*
X13167132Y-29011107D01*
X13181747Y-28991401D01*
X13198223Y-28973223D01*
X13216401Y-28956747D01*
X13236107Y-28942132D01*
X13257150Y-28929520D01*
X13279329Y-28919030D01*
X13302428Y-28910765D01*
X13326227Y-28904804D01*
X13350495Y-28901204D01*
X13374999Y-28900000D01*
X14625001Y-28900000D01*
X14649505Y-28901204D01*
X14649505Y-28901204D01*
G37*
D15*
X14000000Y-29500000D03*
D16*
X14000000Y-31500000D03*
D17*
X21500000Y-28650000D03*
X21500000Y-25350000D03*
X33500000Y-28650000D03*
X33500000Y-25350000D03*
D18*
X13025000Y-29500000D02*
X14000000Y-29500000D01*
X2500000Y-29500000D02*
X13025000Y-29500000D01*
X1700000Y-28700000D02*
X2500000Y-29500000D01*
X1700000Y-14800000D02*
X1700000Y-28700000D01*
X13000000Y-13500000D02*
X3000000Y-13500000D01*
X3000000Y-13500000D02*
X1700000Y-14800000D01*
X52000000Y-31500000D02*
X41000000Y-31500000D01*
X53000000Y-30500000D02*
X52000000Y-31500000D01*
X53000000Y-14500000D02*
X53000000Y-30500000D01*
X42000000Y-13500000D02*
X52000000Y-13500000D01*
X52000000Y-13500000D02*
X53000000Y-14500000D01*
X14000000Y-29500000D02*
X16500000Y-27000000D01*
X26012500Y-27000000D02*
X27500000Y-25512500D01*
X23750000Y-27000000D02*
X26012500Y-27000000D01*
X16500000Y-27000000D02*
X23750000Y-27000000D01*
X41670710Y-30829290D02*
X41000000Y-31500000D01*
X43000000Y-29500000D02*
X41670710Y-30829290D01*
X43000000Y-28250000D02*
X43000000Y-29500000D01*
X41750000Y-27000000D02*
X43000000Y-28250000D01*
X27500000Y-25512500D02*
X28987500Y-27000000D01*
X28987500Y-27000000D02*
X41750000Y-27000000D01*
X45706350Y-25350000D02*
X49778175Y-21278175D01*
X33600000Y-25350000D02*
X45706350Y-25350000D01*
X31500000Y-23250000D02*
X33600000Y-25350000D01*
X34221825Y-5721825D02*
X31500000Y-8443650D01*
X31500000Y-8443650D02*
X31500000Y-23250000D01*
X9293650Y-25350000D02*
X5221825Y-21278175D01*
X21500000Y-25350000D02*
X9293650Y-25350000D01*
X23500000Y-23350000D02*
X21500000Y-25350000D01*
X20778175Y-5721825D02*
X23500000Y-8443650D01*
X23500000Y-8443650D02*
X23500000Y-23350000D01*
X33500000Y-28650000D02*
X21500000Y-28650000D01*
X39875000Y-29500000D02*
X37875000Y-31500000D01*
X41000000Y-29500000D02*
X39875000Y-29500000D01*
X30512500Y-31500000D02*
X27500000Y-28487500D01*
X37875000Y-31500000D02*
X30512500Y-31500000D01*
X15125000Y-31500000D02*
X14000000Y-31500000D01*
X24525000Y-31500000D02*
X15125000Y-31500000D01*
X27500000Y-28487500D02*
X27500000Y-28525000D01*
X27500000Y-28525000D02*
X24525000Y-31500000D01*
M02*
