G04 #@! TF.GenerationSoftware,KiCad,Pcbnew,(5.1.4)-1*
G04 #@! TF.CreationDate,2019-11-16T19:02:48+09:00*
G04 #@! TF.ProjectId,battery-pack-pcb,62617474-6572-4792-9d70-61636b2d7063,rev?*
G04 #@! TF.SameCoordinates,PX2faf080PY2faf080*
G04 #@! TF.FileFunction,Copper,L1,Top*
G04 #@! TF.FilePolarity,Positive*
%FSLAX46Y46*%
G04 Gerber Fmt 4.6, Leading zero omitted, Abs format (unit mm)*
G04 Created by KiCad (PCBNEW (5.1.4)-1) date 2019-11-16 19:02:48*
%MOMM*%
%LPD*%
G04 APERTURE LIST*
%ADD10C,1.200000*%
%ADD11O,1.750000X1.200000*%
%ADD12C,0.100000*%
%ADD13C,1.425000*%
%ADD14C,1.600000*%
%ADD15C,1.600000*%
%ADD16C,10.160000*%
%ADD17R,0.900000X1.200000*%
%ADD18C,0.250000*%
G04 APERTURE END LIST*
D10*
X28500000Y-153774D03*
X26500000Y-153774D03*
X30500000Y-153774D03*
D11*
X44500000Y-30000000D03*
D12*
G36*
X45149505Y-31401204D02*
G01*
X45173773Y-31404804D01*
X45197572Y-31410765D01*
X45220671Y-31419030D01*
X45242850Y-31429520D01*
X45263893Y-31442132D01*
X45283599Y-31456747D01*
X45301777Y-31473223D01*
X45318253Y-31491401D01*
X45332868Y-31511107D01*
X45345480Y-31532150D01*
X45355970Y-31554329D01*
X45364235Y-31577428D01*
X45370196Y-31601227D01*
X45373796Y-31625495D01*
X45375000Y-31649999D01*
X45375000Y-32350001D01*
X45373796Y-32374505D01*
X45370196Y-32398773D01*
X45364235Y-32422572D01*
X45355970Y-32445671D01*
X45345480Y-32467850D01*
X45332868Y-32488893D01*
X45318253Y-32508599D01*
X45301777Y-32526777D01*
X45283599Y-32543253D01*
X45263893Y-32557868D01*
X45242850Y-32570480D01*
X45220671Y-32580970D01*
X45197572Y-32589235D01*
X45173773Y-32595196D01*
X45149505Y-32598796D01*
X45125001Y-32600000D01*
X43874999Y-32600000D01*
X43850495Y-32598796D01*
X43826227Y-32595196D01*
X43802428Y-32589235D01*
X43779329Y-32580970D01*
X43757150Y-32570480D01*
X43736107Y-32557868D01*
X43716401Y-32543253D01*
X43698223Y-32526777D01*
X43681747Y-32508599D01*
X43667132Y-32488893D01*
X43654520Y-32467850D01*
X43644030Y-32445671D01*
X43635765Y-32422572D01*
X43629804Y-32398773D01*
X43626204Y-32374505D01*
X43625000Y-32350001D01*
X43625000Y-31649999D01*
X43626204Y-31625495D01*
X43629804Y-31601227D01*
X43635765Y-31577428D01*
X43644030Y-31554329D01*
X43654520Y-31532150D01*
X43667132Y-31511107D01*
X43681747Y-31491401D01*
X43698223Y-31473223D01*
X43716401Y-31456747D01*
X43736107Y-31442132D01*
X43757150Y-31429520D01*
X43779329Y-31419030D01*
X43802428Y-31410765D01*
X43826227Y-31404804D01*
X43850495Y-31401204D01*
X43874999Y-31400000D01*
X45125001Y-31400000D01*
X45149505Y-31401204D01*
X45149505Y-31401204D01*
G37*
D10*
X44500000Y-32000000D03*
D11*
X10500000Y-32000000D03*
D12*
G36*
X11149505Y-29401204D02*
G01*
X11173773Y-29404804D01*
X11197572Y-29410765D01*
X11220671Y-29419030D01*
X11242850Y-29429520D01*
X11263893Y-29442132D01*
X11283599Y-29456747D01*
X11301777Y-29473223D01*
X11318253Y-29491401D01*
X11332868Y-29511107D01*
X11345480Y-29532150D01*
X11355970Y-29554329D01*
X11364235Y-29577428D01*
X11370196Y-29601227D01*
X11373796Y-29625495D01*
X11375000Y-29649999D01*
X11375000Y-30350001D01*
X11373796Y-30374505D01*
X11370196Y-30398773D01*
X11364235Y-30422572D01*
X11355970Y-30445671D01*
X11345480Y-30467850D01*
X11332868Y-30488893D01*
X11318253Y-30508599D01*
X11301777Y-30526777D01*
X11283599Y-30543253D01*
X11263893Y-30557868D01*
X11242850Y-30570480D01*
X11220671Y-30580970D01*
X11197572Y-30589235D01*
X11173773Y-30595196D01*
X11149505Y-30598796D01*
X11125001Y-30600000D01*
X9874999Y-30600000D01*
X9850495Y-30598796D01*
X9826227Y-30595196D01*
X9802428Y-30589235D01*
X9779329Y-30580970D01*
X9757150Y-30570480D01*
X9736107Y-30557868D01*
X9716401Y-30543253D01*
X9698223Y-30526777D01*
X9681747Y-30508599D01*
X9667132Y-30488893D01*
X9654520Y-30467850D01*
X9644030Y-30445671D01*
X9635765Y-30422572D01*
X9629804Y-30398773D01*
X9626204Y-30374505D01*
X9625000Y-30350001D01*
X9625000Y-29649999D01*
X9626204Y-29625495D01*
X9629804Y-29601227D01*
X9635765Y-29577428D01*
X9644030Y-29554329D01*
X9654520Y-29532150D01*
X9667132Y-29511107D01*
X9681747Y-29491401D01*
X9698223Y-29473223D01*
X9716401Y-29456747D01*
X9736107Y-29442132D01*
X9757150Y-29429520D01*
X9779329Y-29419030D01*
X9802428Y-29410765D01*
X9826227Y-29404804D01*
X9850495Y-29401204D01*
X9874999Y-29400000D01*
X11125001Y-29400000D01*
X11149505Y-29401204D01*
X11149505Y-29401204D01*
G37*
D10*
X10500000Y-30000000D03*
D12*
G36*
X26499504Y-24976204D02*
G01*
X26523773Y-24979804D01*
X26547571Y-24985765D01*
X26570671Y-24994030D01*
X26592849Y-25004520D01*
X26613893Y-25017133D01*
X26633598Y-25031747D01*
X26651777Y-25048223D01*
X26668253Y-25066402D01*
X26682867Y-25086107D01*
X26695480Y-25107151D01*
X26705970Y-25129329D01*
X26714235Y-25152429D01*
X26720196Y-25176227D01*
X26723796Y-25200496D01*
X26725000Y-25225000D01*
X26725000Y-27375000D01*
X26723796Y-27399504D01*
X26720196Y-27423773D01*
X26714235Y-27447571D01*
X26705970Y-27470671D01*
X26695480Y-27492849D01*
X26682867Y-27513893D01*
X26668253Y-27533598D01*
X26651777Y-27551777D01*
X26633598Y-27568253D01*
X26613893Y-27582867D01*
X26592849Y-27595480D01*
X26570671Y-27605970D01*
X26547571Y-27614235D01*
X26523773Y-27620196D01*
X26499504Y-27623796D01*
X26475000Y-27625000D01*
X25550000Y-27625000D01*
X25525496Y-27623796D01*
X25501227Y-27620196D01*
X25477429Y-27614235D01*
X25454329Y-27605970D01*
X25432151Y-27595480D01*
X25411107Y-27582867D01*
X25391402Y-27568253D01*
X25373223Y-27551777D01*
X25356747Y-27533598D01*
X25342133Y-27513893D01*
X25329520Y-27492849D01*
X25319030Y-27470671D01*
X25310765Y-27447571D01*
X25304804Y-27423773D01*
X25301204Y-27399504D01*
X25300000Y-27375000D01*
X25300000Y-25225000D01*
X25301204Y-25200496D01*
X25304804Y-25176227D01*
X25310765Y-25152429D01*
X25319030Y-25129329D01*
X25329520Y-25107151D01*
X25342133Y-25086107D01*
X25356747Y-25066402D01*
X25373223Y-25048223D01*
X25391402Y-25031747D01*
X25411107Y-25017133D01*
X25432151Y-25004520D01*
X25454329Y-24994030D01*
X25477429Y-24985765D01*
X25501227Y-24979804D01*
X25525496Y-24976204D01*
X25550000Y-24975000D01*
X26475000Y-24975000D01*
X26499504Y-24976204D01*
X26499504Y-24976204D01*
G37*
D13*
X26012500Y-26300000D03*
D12*
G36*
X29474504Y-24976204D02*
G01*
X29498773Y-24979804D01*
X29522571Y-24985765D01*
X29545671Y-24994030D01*
X29567849Y-25004520D01*
X29588893Y-25017133D01*
X29608598Y-25031747D01*
X29626777Y-25048223D01*
X29643253Y-25066402D01*
X29657867Y-25086107D01*
X29670480Y-25107151D01*
X29680970Y-25129329D01*
X29689235Y-25152429D01*
X29695196Y-25176227D01*
X29698796Y-25200496D01*
X29700000Y-25225000D01*
X29700000Y-27375000D01*
X29698796Y-27399504D01*
X29695196Y-27423773D01*
X29689235Y-27447571D01*
X29680970Y-27470671D01*
X29670480Y-27492849D01*
X29657867Y-27513893D01*
X29643253Y-27533598D01*
X29626777Y-27551777D01*
X29608598Y-27568253D01*
X29588893Y-27582867D01*
X29567849Y-27595480D01*
X29545671Y-27605970D01*
X29522571Y-27614235D01*
X29498773Y-27620196D01*
X29474504Y-27623796D01*
X29450000Y-27625000D01*
X28525000Y-27625000D01*
X28500496Y-27623796D01*
X28476227Y-27620196D01*
X28452429Y-27614235D01*
X28429329Y-27605970D01*
X28407151Y-27595480D01*
X28386107Y-27582867D01*
X28366402Y-27568253D01*
X28348223Y-27551777D01*
X28331747Y-27533598D01*
X28317133Y-27513893D01*
X28304520Y-27492849D01*
X28294030Y-27470671D01*
X28285765Y-27447571D01*
X28279804Y-27423773D01*
X28276204Y-27399504D01*
X28275000Y-27375000D01*
X28275000Y-25225000D01*
X28276204Y-25200496D01*
X28279804Y-25176227D01*
X28285765Y-25152429D01*
X28294030Y-25129329D01*
X28304520Y-25107151D01*
X28317133Y-25086107D01*
X28331747Y-25066402D01*
X28348223Y-25048223D01*
X28366402Y-25031747D01*
X28386107Y-25017133D01*
X28407151Y-25004520D01*
X28429329Y-24994030D01*
X28452429Y-24985765D01*
X28476227Y-24979804D01*
X28500496Y-24976204D01*
X28525000Y-24975000D01*
X29450000Y-24975000D01*
X29474504Y-24976204D01*
X29474504Y-24976204D01*
G37*
D13*
X28987500Y-26300000D03*
D14*
X20278175Y-8221825D03*
D15*
X19288226Y-7231876D02*
X21268124Y-9211774D01*
D14*
X4721825Y-23778175D03*
D15*
X3731876Y-22788226D02*
X5711774Y-24768124D01*
D12*
G36*
X12997927Y-10944461D02*
G01*
X13491059Y-11017610D01*
X13974646Y-11138742D01*
X14444032Y-11306691D01*
X14894695Y-11519839D01*
X15322297Y-11776133D01*
X15722718Y-12073106D01*
X16092102Y-12407897D01*
X16092103Y-12407898D01*
X16426894Y-12777282D01*
X16723867Y-13177703D01*
X16980161Y-13605305D01*
X17193309Y-14055968D01*
X17361258Y-14525354D01*
X17482390Y-15008941D01*
X17555539Y-15502073D01*
X17580001Y-16000000D01*
X17555539Y-16497927D01*
X17482390Y-16991059D01*
X17361258Y-17474646D01*
X17193309Y-17944032D01*
X16980161Y-18394695D01*
X16723867Y-18822297D01*
X16426894Y-19222718D01*
X16092103Y-19592102D01*
X16092102Y-19592103D01*
X15722718Y-19926894D01*
X15322297Y-20223867D01*
X14894695Y-20480161D01*
X14444032Y-20693309D01*
X13974646Y-20861258D01*
X13491059Y-20982390D01*
X12997927Y-21055539D01*
X12500000Y-21080001D01*
X12002073Y-21055539D01*
X11508941Y-20982390D01*
X11025354Y-20861258D01*
X10555968Y-20693309D01*
X10105305Y-20480161D01*
X9677703Y-20223867D01*
X9277282Y-19926894D01*
X8907898Y-19592103D01*
X8907897Y-19592102D01*
X8573106Y-19222718D01*
X8276133Y-18822297D01*
X8019839Y-18394695D01*
X7806691Y-17944032D01*
X7638742Y-17474646D01*
X7517610Y-16991059D01*
X7444461Y-16497927D01*
X7419999Y-16000000D01*
X7444461Y-15502073D01*
X7517610Y-15008941D01*
X7638742Y-14525354D01*
X7806691Y-14055968D01*
X8019839Y-13605305D01*
X8276133Y-13177703D01*
X8573106Y-12777282D01*
X8907897Y-12407898D01*
X8907898Y-12407897D01*
X9277282Y-12073106D01*
X9677703Y-11776133D01*
X10105305Y-11519839D01*
X10555968Y-11306691D01*
X11025354Y-11138742D01*
X11508941Y-11017610D01*
X12002073Y-10944461D01*
X12500000Y-10919999D01*
X12997927Y-10944461D01*
X12997927Y-10944461D01*
G37*
D16*
X12500000Y-16000000D03*
D14*
X50278175Y-23778175D03*
D15*
X51268124Y-22788226D02*
X49288226Y-24768124D01*
D14*
X34721825Y-8221825D03*
D15*
X35711774Y-7231876D02*
X33731876Y-9211774D01*
D12*
G36*
X42997927Y-10944461D02*
G01*
X43491059Y-11017610D01*
X43974646Y-11138742D01*
X44444032Y-11306691D01*
X44894695Y-11519839D01*
X45322297Y-11776133D01*
X45722718Y-12073106D01*
X46092102Y-12407897D01*
X46092103Y-12407898D01*
X46426894Y-12777282D01*
X46723867Y-13177703D01*
X46980161Y-13605305D01*
X47193309Y-14055968D01*
X47361258Y-14525354D01*
X47482390Y-15008941D01*
X47555539Y-15502073D01*
X47580001Y-16000000D01*
X47555539Y-16497927D01*
X47482390Y-16991059D01*
X47361258Y-17474646D01*
X47193309Y-17944032D01*
X46980161Y-18394695D01*
X46723867Y-18822297D01*
X46426894Y-19222718D01*
X46092103Y-19592102D01*
X46092102Y-19592103D01*
X45722718Y-19926894D01*
X45322297Y-20223867D01*
X44894695Y-20480161D01*
X44444032Y-20693309D01*
X43974646Y-20861258D01*
X43491059Y-20982390D01*
X42997927Y-21055539D01*
X42500000Y-21080001D01*
X42002073Y-21055539D01*
X41508941Y-20982390D01*
X41025354Y-20861258D01*
X40555968Y-20693309D01*
X40105305Y-20480161D01*
X39677703Y-20223867D01*
X39277282Y-19926894D01*
X38907898Y-19592103D01*
X38907897Y-19592102D01*
X38573106Y-19222718D01*
X38276133Y-18822297D01*
X38019839Y-18394695D01*
X37806691Y-17944032D01*
X37638742Y-17474646D01*
X37517610Y-16991059D01*
X37444461Y-16497927D01*
X37419999Y-16000000D01*
X37444461Y-15502073D01*
X37517610Y-15008941D01*
X37638742Y-14525354D01*
X37806691Y-14055968D01*
X38019839Y-13605305D01*
X38276133Y-13177703D01*
X38573106Y-12777282D01*
X38907897Y-12407898D01*
X38907898Y-12407897D01*
X39277282Y-12073106D01*
X39677703Y-11776133D01*
X40105305Y-11519839D01*
X40555968Y-11306691D01*
X41025354Y-11138742D01*
X41508941Y-11017610D01*
X42002073Y-10944461D01*
X42500000Y-10919999D01*
X42997927Y-10944461D01*
X42997927Y-10944461D01*
G37*
D16*
X42500000Y-16000000D03*
D17*
X20650000Y-3500000D03*
X17350000Y-3500000D03*
X34350000Y-3500000D03*
X37650000Y-3500000D03*
D18*
X22800000Y-26300000D02*
X26012500Y-26300000D01*
X12500000Y-16000000D02*
X22800000Y-26300000D01*
X9000000Y-30000000D02*
X10500000Y-30000000D01*
X8500000Y-30500000D02*
X9000000Y-30000000D01*
X8500000Y-33000000D02*
X8500000Y-30500000D01*
X9000000Y-33500000D02*
X8500000Y-33000000D01*
X44500000Y-32000000D02*
X43000000Y-33500000D01*
X43000000Y-33500000D02*
X9000000Y-33500000D01*
X26012500Y-28987500D02*
X26012500Y-26300000D01*
X10500000Y-30000000D02*
X25000000Y-30000000D01*
X25000000Y-30000000D02*
X26012500Y-28987500D01*
X34500000Y-24000000D02*
X42500000Y-16000000D01*
X34500000Y-26500000D02*
X34500000Y-24000000D01*
X46000000Y-32000000D02*
X46500000Y-31500000D01*
X44500000Y-32000000D02*
X46000000Y-32000000D01*
X46500000Y-31500000D02*
X46500000Y-29000000D01*
X46500000Y-29000000D02*
X45500000Y-28000000D01*
X45500000Y-28000000D02*
X36000000Y-28000000D01*
X36000000Y-28000000D02*
X34500000Y-26500000D01*
X45000000Y-3500000D02*
X37650000Y-3500000D01*
X53100000Y-11600000D02*
X45000000Y-3500000D01*
X50278175Y-23778175D02*
X53100000Y-20956350D01*
X53100000Y-20956350D02*
X53100000Y-11600000D01*
X37650000Y-5293650D02*
X37650000Y-3500000D01*
X34721825Y-8221825D02*
X37650000Y-5293650D01*
X10000000Y-3500000D02*
X17350000Y-3500000D01*
X2000000Y-11500000D02*
X10000000Y-3500000D01*
X4721825Y-23778175D02*
X2000000Y-21056350D01*
X2000000Y-21056350D02*
X2000000Y-11500000D01*
X17350000Y-5293650D02*
X17350000Y-3500000D01*
X20278175Y-8221825D02*
X17350000Y-5293650D01*
X26500000Y-32000000D02*
X10500000Y-32000000D01*
X28987500Y-26300000D02*
X28987500Y-29512500D01*
X28987500Y-29512500D02*
X26500000Y-32000000D01*
X35000000Y-30000000D02*
X44500000Y-30000000D01*
X28987500Y-26300000D02*
X31300000Y-26300000D01*
X31300000Y-26300000D02*
X35000000Y-30000000D01*
X28987500Y-23012500D02*
X28987500Y-26300000D01*
X31500000Y-20500000D02*
X28987500Y-23012500D01*
X28500000Y-153774D02*
X31500000Y-3153774D01*
X31500000Y-3153774D02*
X31500000Y-20500000D01*
X23153774Y-3500000D02*
X26500000Y-153774D01*
X20650000Y-3500000D02*
X23153774Y-3500000D01*
X27099999Y446225D02*
X26500000Y-153774D01*
X27753774Y1100000D02*
X27099999Y446225D01*
X31400000Y1100000D02*
X27753774Y1100000D01*
X34350000Y-3500000D02*
X34350000Y-1850000D01*
X34350000Y-1850000D02*
X31400000Y1100000D01*
M02*
