G04 #@! TF.GenerationSoftware,KiCad,Pcbnew,(5.1.4)-1*
G04 #@! TF.CreationDate,2019-10-05T19:56:59+09:00*
G04 #@! TF.ProjectId,battery-pack-pcb,62617474-6572-4792-9d70-61636b2d7063,rev?*
G04 #@! TF.SameCoordinates,PX2faf080PY2faf080*
G04 #@! TF.FileFunction,Legend,Bot*
G04 #@! TF.FilePolarity,Positive*
%FSLAX46Y46*%
G04 Gerber Fmt 4.6, Leading zero omitted, Abs format (unit mm)*
G04 Created by KiCad (PCBNEW (5.1.4)-1) date 2019-10-05 19:56:59*
%MOMM*%
%LPD*%
G04 APERTURE LIST*
%ADD10C,2.302000*%
%ADD11C,1.803200*%
%ADD12C,1.803200*%
%ADD13C,0.100000*%
%ADD14C,1.302000*%
%ADD15O,1.852000X1.302000*%
G04 APERTURE END LIST*
%LPC*%
D10*
X27500000Y-3400000D03*
D11*
X20778175Y-5721825D03*
D12*
X19788226Y-4731876D02*
X21768124Y-6711774D01*
D11*
X5221825Y-21278175D03*
D12*
X4231876Y-20288226D02*
X6211774Y-22268124D01*
D11*
X49778175Y-21278175D03*
D12*
X50768124Y-20288226D02*
X48788226Y-22268124D01*
D11*
X34221825Y-5721825D03*
D12*
X35211774Y-4731876D02*
X33231876Y-6711774D01*
D13*
G36*
X41681338Y-30850306D02*
G01*
X41707669Y-30854212D01*
X41733490Y-30860680D01*
X41758553Y-30869648D01*
X41782617Y-30881029D01*
X41805449Y-30894714D01*
X41826830Y-30910571D01*
X41846553Y-30928447D01*
X41864429Y-30948170D01*
X41880286Y-30969551D01*
X41893971Y-30992383D01*
X41905352Y-31016447D01*
X41914320Y-31041510D01*
X41920788Y-31067331D01*
X41924694Y-31093662D01*
X41926000Y-31120249D01*
X41926000Y-31879751D01*
X41924694Y-31906338D01*
X41920788Y-31932669D01*
X41914320Y-31958490D01*
X41905352Y-31983553D01*
X41893971Y-32007617D01*
X41880286Y-32030449D01*
X41864429Y-32051830D01*
X41846553Y-32071553D01*
X41826830Y-32089429D01*
X41805449Y-32105286D01*
X41782617Y-32118971D01*
X41758553Y-32130352D01*
X41733490Y-32139320D01*
X41707669Y-32145788D01*
X41681338Y-32149694D01*
X41654751Y-32151000D01*
X40345249Y-32151000D01*
X40318662Y-32149694D01*
X40292331Y-32145788D01*
X40266510Y-32139320D01*
X40241447Y-32130352D01*
X40217383Y-32118971D01*
X40194551Y-32105286D01*
X40173170Y-32089429D01*
X40153447Y-32071553D01*
X40135571Y-32051830D01*
X40119714Y-32030449D01*
X40106029Y-32007617D01*
X40094648Y-31983553D01*
X40085680Y-31958490D01*
X40079212Y-31932669D01*
X40075306Y-31906338D01*
X40074000Y-31879751D01*
X40074000Y-31120249D01*
X40075306Y-31093662D01*
X40079212Y-31067331D01*
X40085680Y-31041510D01*
X40094648Y-31016447D01*
X40106029Y-30992383D01*
X40119714Y-30969551D01*
X40135571Y-30948170D01*
X40153447Y-30928447D01*
X40173170Y-30910571D01*
X40194551Y-30894714D01*
X40217383Y-30881029D01*
X40241447Y-30869648D01*
X40266510Y-30860680D01*
X40292331Y-30854212D01*
X40318662Y-30850306D01*
X40345249Y-30849000D01*
X41654751Y-30849000D01*
X41681338Y-30850306D01*
X41681338Y-30850306D01*
G37*
D14*
X41000000Y-31500000D03*
D15*
X41000000Y-29500000D03*
D13*
G36*
X14681338Y-28850306D02*
G01*
X14707669Y-28854212D01*
X14733490Y-28860680D01*
X14758553Y-28869648D01*
X14782617Y-28881029D01*
X14805449Y-28894714D01*
X14826830Y-28910571D01*
X14846553Y-28928447D01*
X14864429Y-28948170D01*
X14880286Y-28969551D01*
X14893971Y-28992383D01*
X14905352Y-29016447D01*
X14914320Y-29041510D01*
X14920788Y-29067331D01*
X14924694Y-29093662D01*
X14926000Y-29120249D01*
X14926000Y-29879751D01*
X14924694Y-29906338D01*
X14920788Y-29932669D01*
X14914320Y-29958490D01*
X14905352Y-29983553D01*
X14893971Y-30007617D01*
X14880286Y-30030449D01*
X14864429Y-30051830D01*
X14846553Y-30071553D01*
X14826830Y-30089429D01*
X14805449Y-30105286D01*
X14782617Y-30118971D01*
X14758553Y-30130352D01*
X14733490Y-30139320D01*
X14707669Y-30145788D01*
X14681338Y-30149694D01*
X14654751Y-30151000D01*
X13345249Y-30151000D01*
X13318662Y-30149694D01*
X13292331Y-30145788D01*
X13266510Y-30139320D01*
X13241447Y-30130352D01*
X13217383Y-30118971D01*
X13194551Y-30105286D01*
X13173170Y-30089429D01*
X13153447Y-30071553D01*
X13135571Y-30051830D01*
X13119714Y-30030449D01*
X13106029Y-30007617D01*
X13094648Y-29983553D01*
X13085680Y-29958490D01*
X13079212Y-29932669D01*
X13075306Y-29906338D01*
X13074000Y-29879751D01*
X13074000Y-29120249D01*
X13075306Y-29093662D01*
X13079212Y-29067331D01*
X13085680Y-29041510D01*
X13094648Y-29016447D01*
X13106029Y-28992383D01*
X13119714Y-28969551D01*
X13135571Y-28948170D01*
X13153447Y-28928447D01*
X13173170Y-28910571D01*
X13194551Y-28894714D01*
X13217383Y-28881029D01*
X13241447Y-28869648D01*
X13266510Y-28860680D01*
X13292331Y-28854212D01*
X13318662Y-28850306D01*
X13345249Y-28849000D01*
X14654751Y-28849000D01*
X14681338Y-28850306D01*
X14681338Y-28850306D01*
G37*
D14*
X14000000Y-29500000D03*
D15*
X14000000Y-31500000D03*
M02*
