G04 #@! TF.GenerationSoftware,KiCad,Pcbnew,(5.1.4)-1*
G04 #@! TF.CreationDate,2020-01-04T17:24:34+09:00*
G04 #@! TF.ProjectId,battery-pack-pcb,62617474-6572-4792-9d70-61636b2d7063,rev?*
G04 #@! TF.SameCoordinates,PX2faf080PY2faf080*
G04 #@! TF.FileFunction,Soldermask,Top*
G04 #@! TF.FilePolarity,Negative*
%FSLAX46Y46*%
G04 Gerber Fmt 4.6, Leading zero omitted, Abs format (unit mm)*
G04 Created by KiCad (PCBNEW (5.1.4)-1) date 2020-01-04 17:24:34*
%MOMM*%
%LPD*%
G04 APERTURE LIST*
%ADD10C,9.525000*%
%ADD11C,0.100000*%
G04 APERTURE END LIST*
D10*
X17262500Y-16000000D02*
G75*
G03X17262500Y-16000000I-4762500J0D01*
G01*
X47262500Y-16000000D02*
G75*
G03X47262500Y-16000000I-4762500J0D01*
G01*
D11*
G36*
X45299917Y-31303793D02*
G01*
X45340810Y-31316198D01*
X45378505Y-31336347D01*
X45411541Y-31363459D01*
X45438653Y-31396495D01*
X45458802Y-31434190D01*
X45471207Y-31475083D01*
X45476000Y-31523754D01*
X45476000Y-32476246D01*
X45471207Y-32524917D01*
X45458802Y-32565810D01*
X45438653Y-32603505D01*
X45411541Y-32636541D01*
X45378505Y-32663653D01*
X45340810Y-32683802D01*
X45299917Y-32696207D01*
X45251246Y-32701000D01*
X43748754Y-32701000D01*
X43700083Y-32696207D01*
X43659190Y-32683802D01*
X43621495Y-32663653D01*
X43588459Y-32636541D01*
X43561347Y-32603505D01*
X43541198Y-32565810D01*
X43528793Y-32524917D01*
X43524000Y-32476246D01*
X43524000Y-31523754D01*
X43528793Y-31475083D01*
X43541198Y-31434190D01*
X43561347Y-31396495D01*
X43588459Y-31363459D01*
X43621495Y-31336347D01*
X43659190Y-31316198D01*
X43700083Y-31303793D01*
X43748754Y-31299000D01*
X45251246Y-31299000D01*
X45299917Y-31303793D01*
X45299917Y-31303793D01*
G37*
G36*
X10912421Y-31309143D02*
G01*
X11044557Y-31349227D01*
X11044559Y-31349228D01*
X11166339Y-31414320D01*
X11166341Y-31414321D01*
X11166340Y-31414321D01*
X11273080Y-31501920D01*
X11360679Y-31608660D01*
X11425773Y-31730443D01*
X11465857Y-31862579D01*
X11479391Y-32000000D01*
X11465857Y-32137421D01*
X11425773Y-32269557D01*
X11425772Y-32269559D01*
X11360680Y-32391339D01*
X11273080Y-32498080D01*
X11166339Y-32585680D01*
X11044559Y-32650772D01*
X11044557Y-32650773D01*
X10912421Y-32690857D01*
X10809432Y-32701000D01*
X10190568Y-32701000D01*
X10087579Y-32690857D01*
X9955443Y-32650773D01*
X9955441Y-32650772D01*
X9833661Y-32585680D01*
X9726920Y-32498080D01*
X9639320Y-32391339D01*
X9574228Y-32269559D01*
X9574227Y-32269557D01*
X9534143Y-32137421D01*
X9520609Y-32000000D01*
X9534143Y-31862579D01*
X9574227Y-31730443D01*
X9639321Y-31608660D01*
X9726920Y-31501920D01*
X9833660Y-31414321D01*
X9833659Y-31414321D01*
X9833661Y-31414320D01*
X9955441Y-31349228D01*
X9955443Y-31349227D01*
X10087579Y-31309143D01*
X10190568Y-31299000D01*
X10809432Y-31299000D01*
X10912421Y-31309143D01*
X10912421Y-31309143D01*
G37*
G36*
X11299917Y-29303793D02*
G01*
X11340810Y-29316198D01*
X11378505Y-29336347D01*
X11411541Y-29363459D01*
X11438653Y-29396495D01*
X11458802Y-29434190D01*
X11471207Y-29475083D01*
X11476000Y-29523754D01*
X11476000Y-30476246D01*
X11471207Y-30524917D01*
X11458802Y-30565810D01*
X11438653Y-30603505D01*
X11411541Y-30636541D01*
X11378505Y-30663653D01*
X11340810Y-30683802D01*
X11299917Y-30696207D01*
X11251246Y-30701000D01*
X9748754Y-30701000D01*
X9700083Y-30696207D01*
X9659190Y-30683802D01*
X9621495Y-30663653D01*
X9588459Y-30636541D01*
X9561347Y-30603505D01*
X9541198Y-30565810D01*
X9528793Y-30524917D01*
X9524000Y-30476246D01*
X9524000Y-29523754D01*
X9528793Y-29475083D01*
X9541198Y-29434190D01*
X9561347Y-29396495D01*
X9588459Y-29363459D01*
X9621495Y-29336347D01*
X9659190Y-29316198D01*
X9700083Y-29303793D01*
X9748754Y-29299000D01*
X11251246Y-29299000D01*
X11299917Y-29303793D01*
X11299917Y-29303793D01*
G37*
G36*
X44912421Y-29309143D02*
G01*
X45044557Y-29349227D01*
X45044559Y-29349228D01*
X45166339Y-29414320D01*
X45166341Y-29414321D01*
X45166340Y-29414321D01*
X45273080Y-29501920D01*
X45360679Y-29608660D01*
X45425773Y-29730443D01*
X45465857Y-29862579D01*
X45479391Y-30000000D01*
X45465857Y-30137421D01*
X45425773Y-30269557D01*
X45425772Y-30269559D01*
X45360680Y-30391339D01*
X45273080Y-30498080D01*
X45166339Y-30585680D01*
X45044559Y-30650772D01*
X45044557Y-30650773D01*
X44912421Y-30690857D01*
X44809432Y-30701000D01*
X44190568Y-30701000D01*
X44087579Y-30690857D01*
X43955443Y-30650773D01*
X43955441Y-30650772D01*
X43833661Y-30585680D01*
X43726920Y-30498080D01*
X43639320Y-30391339D01*
X43574228Y-30269559D01*
X43574227Y-30269557D01*
X43534143Y-30137421D01*
X43520609Y-30000000D01*
X43534143Y-29862579D01*
X43574227Y-29730443D01*
X43639321Y-29608660D01*
X43726920Y-29501920D01*
X43833660Y-29414321D01*
X43833659Y-29414321D01*
X43833661Y-29414320D01*
X43955441Y-29349228D01*
X43955443Y-29349227D01*
X44087579Y-29309143D01*
X44190568Y-29299000D01*
X44809432Y-29299000D01*
X44912421Y-29309143D01*
X44912421Y-29309143D01*
G37*
G36*
X29600562Y-24928181D02*
G01*
X29635481Y-24938774D01*
X29667663Y-24955976D01*
X29695873Y-24979127D01*
X29719024Y-25007337D01*
X29736226Y-25039519D01*
X29746819Y-25074438D01*
X29751000Y-25116895D01*
X29751000Y-27483105D01*
X29746819Y-27525562D01*
X29736226Y-27560481D01*
X29719024Y-27592663D01*
X29695873Y-27620873D01*
X29667663Y-27644024D01*
X29635481Y-27661226D01*
X29600562Y-27671819D01*
X29558105Y-27676000D01*
X28416895Y-27676000D01*
X28374438Y-27671819D01*
X28339519Y-27661226D01*
X28307337Y-27644024D01*
X28279127Y-27620873D01*
X28255976Y-27592663D01*
X28238774Y-27560481D01*
X28228181Y-27525562D01*
X28224000Y-27483105D01*
X28224000Y-25116895D01*
X28228181Y-25074438D01*
X28238774Y-25039519D01*
X28255976Y-25007337D01*
X28279127Y-24979127D01*
X28307337Y-24955976D01*
X28339519Y-24938774D01*
X28374438Y-24928181D01*
X28416895Y-24924000D01*
X29558105Y-24924000D01*
X29600562Y-24928181D01*
X29600562Y-24928181D01*
G37*
G36*
X26625562Y-24928181D02*
G01*
X26660481Y-24938774D01*
X26692663Y-24955976D01*
X26720873Y-24979127D01*
X26744024Y-25007337D01*
X26761226Y-25039519D01*
X26771819Y-25074438D01*
X26776000Y-25116895D01*
X26776000Y-27483105D01*
X26771819Y-27525562D01*
X26761226Y-27560481D01*
X26744024Y-27592663D01*
X26720873Y-27620873D01*
X26692663Y-27644024D01*
X26660481Y-27661226D01*
X26625562Y-27671819D01*
X26583105Y-27676000D01*
X25441895Y-27676000D01*
X25399438Y-27671819D01*
X25364519Y-27661226D01*
X25332337Y-27644024D01*
X25304127Y-27620873D01*
X25280976Y-27592663D01*
X25263774Y-27560481D01*
X25253181Y-27525562D01*
X25249000Y-27483105D01*
X25249000Y-25116895D01*
X25253181Y-25074438D01*
X25263774Y-25039519D01*
X25280976Y-25007337D01*
X25304127Y-24979127D01*
X25332337Y-24955976D01*
X25364519Y-24938774D01*
X25399438Y-24928181D01*
X25441895Y-24924000D01*
X26583105Y-24924000D01*
X26625562Y-24928181D01*
X26625562Y-24928181D01*
G37*
G36*
X51444868Y-21899672D02*
G01*
X51544641Y-21929938D01*
X51614824Y-21951227D01*
X51771448Y-22034945D01*
X51908736Y-22147614D01*
X52021405Y-22284902D01*
X52105123Y-22441526D01*
X52105124Y-22441530D01*
X52156678Y-22611482D01*
X52174086Y-22788226D01*
X52156678Y-22964968D01*
X52156678Y-22964969D01*
X52105123Y-23134927D01*
X52021405Y-23291550D01*
X51936973Y-23394432D01*
X51936968Y-23394437D01*
X49894437Y-25436967D01*
X49894431Y-25436972D01*
X49894430Y-25436973D01*
X49791550Y-25521405D01*
X49634926Y-25605122D01*
X49634922Y-25605124D01*
X49464970Y-25656678D01*
X49288226Y-25674086D01*
X49111482Y-25656678D01*
X48941530Y-25605124D01*
X48941526Y-25605122D01*
X48784901Y-25521405D01*
X48647614Y-25408736D01*
X48534945Y-25271449D01*
X48451228Y-25114824D01*
X48451228Y-25114823D01*
X48451226Y-25114820D01*
X48399672Y-24944868D01*
X48382264Y-24768124D01*
X48399672Y-24591380D01*
X48451226Y-24421428D01*
X48451229Y-24421423D01*
X48534945Y-24264800D01*
X48619377Y-24161920D01*
X48619379Y-24161918D01*
X48619383Y-24161913D01*
X50661913Y-22119382D01*
X50661918Y-22119377D01*
X50764800Y-22034945D01*
X50921423Y-21951227D01*
X50991605Y-21929938D01*
X51091380Y-21899672D01*
X51268124Y-21882264D01*
X51444868Y-21899672D01*
X51444868Y-21899672D01*
G37*
G36*
X3908620Y-21899672D02*
G01*
X4078572Y-21951226D01*
X4078575Y-21951228D01*
X4078576Y-21951228D01*
X4235200Y-22034945D01*
X4338080Y-22119377D01*
X4338087Y-22119383D01*
X6380618Y-24161913D01*
X6380623Y-24161918D01*
X6465055Y-24264800D01*
X6548773Y-24421423D01*
X6570062Y-24491605D01*
X6600328Y-24591380D01*
X6617736Y-24768124D01*
X6601876Y-24929148D01*
X6600328Y-24944867D01*
X6548773Y-25114824D01*
X6465055Y-25271448D01*
X6352386Y-25408736D01*
X6215098Y-25521405D01*
X6058474Y-25605123D01*
X5988291Y-25626412D01*
X5888518Y-25656678D01*
X5711774Y-25674086D01*
X5535030Y-25656678D01*
X5435255Y-25626412D01*
X5365073Y-25605123D01*
X5208450Y-25521405D01*
X5105568Y-25436973D01*
X4596776Y-24928181D01*
X3063033Y-23394437D01*
X3063027Y-23394430D01*
X2978595Y-23291550D01*
X2894878Y-23134926D01*
X2894877Y-23134923D01*
X2894876Y-23134922D01*
X2843322Y-22964970D01*
X2825914Y-22788226D01*
X2843322Y-22611482D01*
X2894876Y-22441530D01*
X2894878Y-22441526D01*
X2978595Y-22284901D01*
X3091264Y-22147614D01*
X3228551Y-22034945D01*
X3385176Y-21951228D01*
X3385177Y-21951228D01*
X3385180Y-21951226D01*
X3555132Y-21899672D01*
X3731876Y-21882264D01*
X3908620Y-21899672D01*
X3908620Y-21899672D01*
G37*
G36*
X13510880Y-10917962D02*
G01*
X14482912Y-11212825D01*
X15378743Y-11691656D01*
X16163944Y-12336055D01*
X16163945Y-12336056D01*
X16808344Y-13121257D01*
X17287175Y-14017088D01*
X17582038Y-14989120D01*
X17681601Y-16000000D01*
X17582038Y-17010880D01*
X17287175Y-17982912D01*
X16808344Y-18878743D01*
X16163945Y-19663944D01*
X16163944Y-19663945D01*
X15378743Y-20308344D01*
X14482912Y-20787175D01*
X13510880Y-21082038D01*
X12500000Y-21181601D01*
X11489120Y-21082038D01*
X10517088Y-20787175D01*
X9621257Y-20308344D01*
X8836056Y-19663945D01*
X8836055Y-19663944D01*
X8191656Y-18878743D01*
X7712825Y-17982912D01*
X7417962Y-17010880D01*
X7318399Y-16000000D01*
X7417962Y-14989120D01*
X7712825Y-14017088D01*
X8191656Y-13121257D01*
X8836055Y-12336056D01*
X8836056Y-12336055D01*
X9621257Y-11691656D01*
X10517088Y-11212825D01*
X11489120Y-10917962D01*
X12500000Y-10818399D01*
X13510880Y-10917962D01*
X13510880Y-10917962D01*
G37*
G36*
X43510880Y-10917962D02*
G01*
X44482912Y-11212825D01*
X45378743Y-11691656D01*
X46163944Y-12336055D01*
X46163945Y-12336056D01*
X46808344Y-13121257D01*
X47287175Y-14017088D01*
X47582038Y-14989120D01*
X47681601Y-16000000D01*
X47582038Y-17010880D01*
X47287175Y-17982912D01*
X46808344Y-18878743D01*
X46163945Y-19663944D01*
X46163944Y-19663945D01*
X45378743Y-20308344D01*
X44482912Y-20787175D01*
X43510880Y-21082038D01*
X42500000Y-21181601D01*
X41489120Y-21082038D01*
X40517088Y-20787175D01*
X39621257Y-20308344D01*
X38836056Y-19663945D01*
X38836055Y-19663944D01*
X38191656Y-18878743D01*
X37712825Y-17982912D01*
X37417962Y-17010880D01*
X37318399Y-16000000D01*
X37417962Y-14989120D01*
X37712825Y-14017088D01*
X38191656Y-13121257D01*
X38836055Y-12336056D01*
X38836056Y-12336055D01*
X39621257Y-11691656D01*
X40517088Y-11212825D01*
X41489120Y-10917962D01*
X42500000Y-10818399D01*
X43510880Y-10917962D01*
X43510880Y-10917962D01*
G37*
G36*
X19464970Y-6343322D02*
G01*
X19634922Y-6394876D01*
X19634925Y-6394878D01*
X19634926Y-6394878D01*
X19791550Y-6478595D01*
X19894430Y-6563027D01*
X19894437Y-6563033D01*
X21936968Y-8605563D01*
X21936973Y-8605568D01*
X22021405Y-8708450D01*
X22105123Y-8865073D01*
X22126412Y-8935255D01*
X22156678Y-9035030D01*
X22174086Y-9211774D01*
X22156678Y-9388516D01*
X22156678Y-9388517D01*
X22105123Y-9558474D01*
X22021405Y-9715098D01*
X21908736Y-9852386D01*
X21771448Y-9965055D01*
X21614824Y-10048773D01*
X21544641Y-10070062D01*
X21444868Y-10100328D01*
X21268124Y-10117736D01*
X21091380Y-10100328D01*
X20991605Y-10070062D01*
X20921423Y-10048773D01*
X20764800Y-9965055D01*
X20661918Y-9880623D01*
X20169811Y-9388516D01*
X18619383Y-7838087D01*
X18619377Y-7838080D01*
X18534945Y-7735200D01*
X18451228Y-7578576D01*
X18451227Y-7578573D01*
X18451226Y-7578572D01*
X18399672Y-7408620D01*
X18382264Y-7231876D01*
X18399672Y-7055132D01*
X18451226Y-6885180D01*
X18451228Y-6885176D01*
X18534945Y-6728551D01*
X18647614Y-6591264D01*
X18784901Y-6478595D01*
X18941526Y-6394878D01*
X18941527Y-6394878D01*
X18941530Y-6394876D01*
X19111482Y-6343322D01*
X19288226Y-6325914D01*
X19464970Y-6343322D01*
X19464970Y-6343322D01*
G37*
G36*
X35888518Y-6343322D02*
G01*
X35988291Y-6373588D01*
X36058474Y-6394877D01*
X36215098Y-6478595D01*
X36352386Y-6591264D01*
X36465055Y-6728552D01*
X36548773Y-6885176D01*
X36548774Y-6885180D01*
X36600328Y-7055132D01*
X36617736Y-7231876D01*
X36600328Y-7408618D01*
X36600328Y-7408619D01*
X36548773Y-7578577D01*
X36465055Y-7735200D01*
X36380623Y-7838082D01*
X36380618Y-7838087D01*
X34338087Y-9880617D01*
X34338081Y-9880622D01*
X34338080Y-9880623D01*
X34235200Y-9965055D01*
X34078576Y-10048772D01*
X34078572Y-10048774D01*
X33908620Y-10100328D01*
X33731876Y-10117736D01*
X33555132Y-10100328D01*
X33385180Y-10048774D01*
X33385176Y-10048772D01*
X33228551Y-9965055D01*
X33091264Y-9852386D01*
X32978595Y-9715099D01*
X32894878Y-9558474D01*
X32894878Y-9558473D01*
X32894876Y-9558470D01*
X32843322Y-9388518D01*
X32825914Y-9211774D01*
X32843322Y-9035030D01*
X32894876Y-8865078D01*
X32894879Y-8865073D01*
X32978595Y-8708450D01*
X33063027Y-8605570D01*
X33063029Y-8605568D01*
X33063033Y-8605563D01*
X35105563Y-6563032D01*
X35105568Y-6563027D01*
X35208450Y-6478595D01*
X35365073Y-6394877D01*
X35435255Y-6373588D01*
X35535030Y-6343322D01*
X35711774Y-6325914D01*
X35888518Y-6343322D01*
X35888518Y-6343322D01*
G37*
G36*
X27724549Y-4967341D02*
G01*
X27835734Y-4989457D01*
X28045203Y-5076222D01*
X28233720Y-5202185D01*
X28394040Y-5362505D01*
X28520003Y-5551022D01*
X28606768Y-5760491D01*
X28651000Y-5982861D01*
X28651000Y-6209589D01*
X28606768Y-6431959D01*
X28520003Y-6641428D01*
X28394040Y-6829945D01*
X28233720Y-6990265D01*
X28045203Y-7116228D01*
X27835734Y-7202993D01*
X27724549Y-7225109D01*
X27613365Y-7247225D01*
X27386635Y-7247225D01*
X27275451Y-7225109D01*
X27164266Y-7202993D01*
X26954797Y-7116228D01*
X26766280Y-6990265D01*
X26605960Y-6829945D01*
X26479997Y-6641428D01*
X26393232Y-6431959D01*
X26349000Y-6209589D01*
X26349000Y-5982861D01*
X26393232Y-5760491D01*
X26479997Y-5551022D01*
X26605960Y-5362505D01*
X26766280Y-5202185D01*
X26954797Y-5076222D01*
X27164266Y-4989457D01*
X27275451Y-4967341D01*
X27386635Y-4945225D01*
X27613365Y-4945225D01*
X27724549Y-4967341D01*
X27724549Y-4967341D01*
G37*
G36*
X34851000Y-4151000D02*
G01*
X33849000Y-4151000D01*
X33849000Y-2849000D01*
X34851000Y-2849000D01*
X34851000Y-4151000D01*
X34851000Y-4151000D01*
G37*
G36*
X38151000Y-4151000D02*
G01*
X37149000Y-4151000D01*
X37149000Y-2849000D01*
X38151000Y-2849000D01*
X38151000Y-4151000D01*
X38151000Y-4151000D01*
G37*
G36*
X17851000Y-4151000D02*
G01*
X16849000Y-4151000D01*
X16849000Y-2849000D01*
X17851000Y-2849000D01*
X17851000Y-4151000D01*
X17851000Y-4151000D01*
G37*
G36*
X21151000Y-4151000D02*
G01*
X20149000Y-4151000D01*
X20149000Y-2849000D01*
X21151000Y-2849000D01*
X21151000Y-4151000D01*
X21151000Y-4151000D01*
G37*
G36*
X26689890Y472209D02*
G01*
X26808364Y423135D01*
X26914988Y351891D01*
X27005665Y261214D01*
X27076909Y154590D01*
X27125983Y36116D01*
X27151000Y-89656D01*
X27151000Y-217892D01*
X27125983Y-343664D01*
X27076909Y-462138D01*
X27005665Y-568762D01*
X26914988Y-659439D01*
X26808364Y-730683D01*
X26808363Y-730684D01*
X26808362Y-730684D01*
X26689890Y-779757D01*
X26564119Y-804774D01*
X26435881Y-804774D01*
X26310110Y-779757D01*
X26191638Y-730684D01*
X26191637Y-730684D01*
X26191636Y-730683D01*
X26085012Y-659439D01*
X25994335Y-568762D01*
X25923091Y-462138D01*
X25874017Y-343664D01*
X25849000Y-217892D01*
X25849000Y-89656D01*
X25874017Y36116D01*
X25923091Y154590D01*
X25994335Y261214D01*
X26085012Y351891D01*
X26191636Y423135D01*
X26310110Y472209D01*
X26435881Y497226D01*
X26564119Y497226D01*
X26689890Y472209D01*
X26689890Y472209D01*
G37*
G36*
X30689890Y472209D02*
G01*
X30808364Y423135D01*
X30914988Y351891D01*
X31005665Y261214D01*
X31076909Y154590D01*
X31125983Y36116D01*
X31151000Y-89656D01*
X31151000Y-217892D01*
X31125983Y-343664D01*
X31076909Y-462138D01*
X31005665Y-568762D01*
X30914988Y-659439D01*
X30808364Y-730683D01*
X30808363Y-730684D01*
X30808362Y-730684D01*
X30689890Y-779757D01*
X30564119Y-804774D01*
X30435881Y-804774D01*
X30310110Y-779757D01*
X30191638Y-730684D01*
X30191637Y-730684D01*
X30191636Y-730683D01*
X30085012Y-659439D01*
X29994335Y-568762D01*
X29923091Y-462138D01*
X29874017Y-343664D01*
X29849000Y-217892D01*
X29849000Y-89656D01*
X29874017Y36116D01*
X29923091Y154590D01*
X29994335Y261214D01*
X30085012Y351891D01*
X30191636Y423135D01*
X30310110Y472209D01*
X30435881Y497226D01*
X30564119Y497226D01*
X30689890Y472209D01*
X30689890Y472209D01*
G37*
G36*
X28689890Y472209D02*
G01*
X28808364Y423135D01*
X28914988Y351891D01*
X29005665Y261214D01*
X29076909Y154590D01*
X29125983Y36116D01*
X29151000Y-89656D01*
X29151000Y-217892D01*
X29125983Y-343664D01*
X29076909Y-462138D01*
X29005665Y-568762D01*
X28914988Y-659439D01*
X28808364Y-730683D01*
X28808363Y-730684D01*
X28808362Y-730684D01*
X28689890Y-779757D01*
X28564119Y-804774D01*
X28435881Y-804774D01*
X28310110Y-779757D01*
X28191638Y-730684D01*
X28191637Y-730684D01*
X28191636Y-730683D01*
X28085012Y-659439D01*
X27994335Y-568762D01*
X27923091Y-462138D01*
X27874017Y-343664D01*
X27849000Y-217892D01*
X27849000Y-89656D01*
X27874017Y36116D01*
X27923091Y154590D01*
X27994335Y261214D01*
X28085012Y351891D01*
X28191636Y423135D01*
X28310110Y472209D01*
X28435881Y497226D01*
X28564119Y497226D01*
X28689890Y472209D01*
X28689890Y472209D01*
G37*
M02*
