G04 #@! TF.GenerationSoftware,KiCad,Pcbnew,(5.1.4)-1*
G04 #@! TF.CreationDate,2019-08-21T00:58:32+09:00*
G04 #@! TF.ProjectId,battery-pack-pcb,62617474-6572-4792-9d70-61636b2d7063,rev?*
G04 #@! TF.SameCoordinates,PX2faf080PY2faf080*
G04 #@! TF.FileFunction,Soldermask,Top*
G04 #@! TF.FilePolarity,Negative*
%FSLAX46Y46*%
G04 Gerber Fmt 4.6, Leading zero omitted, Abs format (unit mm)*
G04 Created by KiCad (PCBNEW (5.1.4)-1) date 2019-08-21 00:58:32*
%MOMM*%
%LPD*%
G04 APERTURE LIST*
%ADD10C,9.525000*%
%ADD11C,0.100000*%
G04 APERTURE END LIST*
D10*
X17762500Y-13500000D02*
G75*
G03X17762500Y-13500000I-4762500J0D01*
G01*
X46762500Y-13500000D02*
G75*
G03X46762500Y-13500000I-4762500J0D01*
G01*
D11*
G36*
X14338855Y-30852140D02*
G01*
X14402618Y-30858420D01*
X14483400Y-30882925D01*
X14525336Y-30895646D01*
X14638425Y-30956094D01*
X14737554Y-31037446D01*
X14818906Y-31136575D01*
X14879354Y-31249664D01*
X14879355Y-31249668D01*
X14916580Y-31372382D01*
X14929149Y-31500000D01*
X14916580Y-31627618D01*
X14889040Y-31718404D01*
X14879354Y-31750336D01*
X14818906Y-31863425D01*
X14737554Y-31962554D01*
X14638425Y-32043906D01*
X14525336Y-32104354D01*
X14493404Y-32114040D01*
X14402618Y-32141580D01*
X14338855Y-32147860D01*
X14306974Y-32151000D01*
X13693026Y-32151000D01*
X13661145Y-32147860D01*
X13597382Y-32141580D01*
X13506596Y-32114040D01*
X13474664Y-32104354D01*
X13361575Y-32043906D01*
X13262446Y-31962554D01*
X13181094Y-31863425D01*
X13120646Y-31750336D01*
X13110960Y-31718404D01*
X13083420Y-31627618D01*
X13070851Y-31500000D01*
X13083420Y-31372382D01*
X13120645Y-31249668D01*
X13120646Y-31249664D01*
X13181094Y-31136575D01*
X13262446Y-31037446D01*
X13361575Y-30956094D01*
X13474664Y-30895646D01*
X13516600Y-30882925D01*
X13597382Y-30858420D01*
X13661145Y-30852140D01*
X13693026Y-30849000D01*
X14306974Y-30849000D01*
X14338855Y-30852140D01*
X14338855Y-30852140D01*
G37*
G36*
X41766242Y-30853404D02*
G01*
X41803337Y-30864657D01*
X41837515Y-30882925D01*
X41867481Y-30907519D01*
X41892075Y-30937485D01*
X41910343Y-30971663D01*
X41921596Y-31008758D01*
X41926000Y-31053474D01*
X41926000Y-31946526D01*
X41921596Y-31991242D01*
X41910343Y-32028337D01*
X41892075Y-32062515D01*
X41867481Y-32092481D01*
X41837515Y-32117075D01*
X41803337Y-32135343D01*
X41766242Y-32146596D01*
X41721526Y-32151000D01*
X40278474Y-32151000D01*
X40233758Y-32146596D01*
X40196663Y-32135343D01*
X40162485Y-32117075D01*
X40132519Y-32092481D01*
X40107925Y-32062515D01*
X40089657Y-32028337D01*
X40078404Y-31991242D01*
X40074000Y-31946526D01*
X40074000Y-31053474D01*
X40078404Y-31008758D01*
X40089657Y-30971663D01*
X40107925Y-30937485D01*
X40132519Y-30907519D01*
X40162485Y-30882925D01*
X40196663Y-30864657D01*
X40233758Y-30853404D01*
X40278474Y-30849000D01*
X41721526Y-30849000D01*
X41766242Y-30853404D01*
X41766242Y-30853404D01*
G37*
G36*
X41338855Y-28852140D02*
G01*
X41402618Y-28858420D01*
X41483400Y-28882925D01*
X41525336Y-28895646D01*
X41638425Y-28956094D01*
X41737554Y-29037446D01*
X41818906Y-29136575D01*
X41879354Y-29249664D01*
X41879355Y-29249668D01*
X41916580Y-29372382D01*
X41929149Y-29500000D01*
X41916580Y-29627618D01*
X41889040Y-29718404D01*
X41879354Y-29750336D01*
X41818906Y-29863425D01*
X41737554Y-29962554D01*
X41638425Y-30043906D01*
X41525336Y-30104354D01*
X41493404Y-30114040D01*
X41402618Y-30141580D01*
X41338855Y-30147860D01*
X41306974Y-30151000D01*
X40693026Y-30151000D01*
X40661145Y-30147860D01*
X40597382Y-30141580D01*
X40506596Y-30114040D01*
X40474664Y-30104354D01*
X40361575Y-30043906D01*
X40262446Y-29962554D01*
X40181094Y-29863425D01*
X40120646Y-29750336D01*
X40110960Y-29718404D01*
X40083420Y-29627618D01*
X40070851Y-29500000D01*
X40083420Y-29372382D01*
X40120645Y-29249668D01*
X40120646Y-29249664D01*
X40181094Y-29136575D01*
X40262446Y-29037446D01*
X40361575Y-28956094D01*
X40474664Y-28895646D01*
X40516600Y-28882925D01*
X40597382Y-28858420D01*
X40661145Y-28852140D01*
X40693026Y-28849000D01*
X41306974Y-28849000D01*
X41338855Y-28852140D01*
X41338855Y-28852140D01*
G37*
G36*
X14766242Y-28853404D02*
G01*
X14803337Y-28864657D01*
X14837515Y-28882925D01*
X14867481Y-28907519D01*
X14892075Y-28937485D01*
X14910343Y-28971663D01*
X14921596Y-29008758D01*
X14926000Y-29053474D01*
X14926000Y-29946526D01*
X14921596Y-29991242D01*
X14910343Y-30028337D01*
X14892075Y-30062515D01*
X14867481Y-30092481D01*
X14837515Y-30117075D01*
X14803337Y-30135343D01*
X14766242Y-30146596D01*
X14721526Y-30151000D01*
X13278474Y-30151000D01*
X13233758Y-30146596D01*
X13196663Y-30135343D01*
X13162485Y-30117075D01*
X13132519Y-30092481D01*
X13107925Y-30062515D01*
X13089657Y-30028337D01*
X13078404Y-29991242D01*
X13074000Y-29946526D01*
X13074000Y-29053474D01*
X13078404Y-29008758D01*
X13089657Y-28971663D01*
X13107925Y-28937485D01*
X13132519Y-28907519D01*
X13162485Y-28882925D01*
X13196663Y-28864657D01*
X13233758Y-28853404D01*
X13278474Y-28849000D01*
X14721526Y-28849000D01*
X14766242Y-28853404D01*
X14766242Y-28853404D01*
G37*
G36*
X32151000Y-29151000D02*
G01*
X30849000Y-29151000D01*
X30849000Y-28149000D01*
X32151000Y-28149000D01*
X32151000Y-29151000D01*
X32151000Y-29151000D01*
G37*
G36*
X24151000Y-29151000D02*
G01*
X22849000Y-29151000D01*
X22849000Y-28149000D01*
X24151000Y-28149000D01*
X24151000Y-29151000D01*
X24151000Y-29151000D01*
G37*
G36*
X32151000Y-25851000D02*
G01*
X30849000Y-25851000D01*
X30849000Y-24849000D01*
X32151000Y-24849000D01*
X32151000Y-25851000D01*
X32151000Y-25851000D01*
G37*
G36*
X24151000Y-25851000D02*
G01*
X22849000Y-25851000D01*
X22849000Y-24849000D01*
X24151000Y-24849000D01*
X24151000Y-25851000D01*
X24151000Y-25851000D01*
G37*
G36*
X4408620Y-19399672D02*
G01*
X4578572Y-19451226D01*
X4578575Y-19451228D01*
X4578576Y-19451228D01*
X4735200Y-19534945D01*
X4838080Y-19619377D01*
X4838087Y-19619383D01*
X6880618Y-21661913D01*
X6880623Y-21661918D01*
X6965055Y-21764800D01*
X7048773Y-21921423D01*
X7070062Y-21991605D01*
X7100328Y-22091380D01*
X7117736Y-22268124D01*
X7100328Y-22444866D01*
X7100328Y-22444867D01*
X7048773Y-22614824D01*
X6965055Y-22771448D01*
X6852386Y-22908736D01*
X6715098Y-23021405D01*
X6558474Y-23105123D01*
X6488291Y-23126412D01*
X6388518Y-23156678D01*
X6211774Y-23174086D01*
X6035030Y-23156678D01*
X5935255Y-23126412D01*
X5865073Y-23105123D01*
X5708450Y-23021405D01*
X5605568Y-22936973D01*
X5113461Y-22444866D01*
X3563033Y-20894437D01*
X3563027Y-20894430D01*
X3478595Y-20791550D01*
X3394878Y-20634926D01*
X3394877Y-20634923D01*
X3394876Y-20634922D01*
X3343322Y-20464970D01*
X3325914Y-20288226D01*
X3343322Y-20111482D01*
X3394876Y-19941530D01*
X3394878Y-19941526D01*
X3478595Y-19784901D01*
X3591264Y-19647614D01*
X3728551Y-19534945D01*
X3885176Y-19451228D01*
X3885177Y-19451228D01*
X3885180Y-19451226D01*
X4055132Y-19399672D01*
X4231876Y-19382264D01*
X4408620Y-19399672D01*
X4408620Y-19399672D01*
G37*
G36*
X50944868Y-19399672D02*
G01*
X51044641Y-19429938D01*
X51114824Y-19451227D01*
X51271448Y-19534945D01*
X51408736Y-19647614D01*
X51521405Y-19784902D01*
X51605123Y-19941526D01*
X51605124Y-19941530D01*
X51656678Y-20111482D01*
X51674086Y-20288226D01*
X51656678Y-20464968D01*
X51656678Y-20464969D01*
X51605123Y-20634927D01*
X51521405Y-20791550D01*
X51436973Y-20894432D01*
X51436968Y-20894437D01*
X49394437Y-22936967D01*
X49394431Y-22936972D01*
X49394430Y-22936973D01*
X49291550Y-23021405D01*
X49134926Y-23105122D01*
X49134922Y-23105124D01*
X48964970Y-23156678D01*
X48788226Y-23174086D01*
X48611482Y-23156678D01*
X48441530Y-23105124D01*
X48441526Y-23105122D01*
X48284901Y-23021405D01*
X48147614Y-22908736D01*
X48034945Y-22771449D01*
X47951228Y-22614824D01*
X47951228Y-22614823D01*
X47951226Y-22614820D01*
X47899672Y-22444868D01*
X47882264Y-22268124D01*
X47899672Y-22091380D01*
X47951226Y-21921428D01*
X47951229Y-21921423D01*
X48034945Y-21764800D01*
X48119377Y-21661920D01*
X48119379Y-21661918D01*
X48119383Y-21661913D01*
X50161913Y-19619382D01*
X50161918Y-19619377D01*
X50264800Y-19534945D01*
X50421423Y-19451227D01*
X50491605Y-19429938D01*
X50591380Y-19399672D01*
X50768124Y-19382264D01*
X50944868Y-19399672D01*
X50944868Y-19399672D01*
G37*
G36*
X14010880Y-8417962D02*
G01*
X14982912Y-8712825D01*
X15878743Y-9191656D01*
X16663944Y-9836055D01*
X16663945Y-9836056D01*
X17308344Y-10621257D01*
X17787175Y-11517088D01*
X18082038Y-12489120D01*
X18181601Y-13500000D01*
X18082038Y-14510880D01*
X17787175Y-15482912D01*
X17308344Y-16378743D01*
X16663945Y-17163944D01*
X16663944Y-17163945D01*
X15878743Y-17808344D01*
X14982912Y-18287175D01*
X14010880Y-18582038D01*
X13000000Y-18681601D01*
X11989120Y-18582038D01*
X11017088Y-18287175D01*
X10121257Y-17808344D01*
X9336056Y-17163945D01*
X9336055Y-17163944D01*
X8691656Y-16378743D01*
X8212825Y-15482912D01*
X7917962Y-14510880D01*
X7818399Y-13500000D01*
X7917962Y-12489120D01*
X8212825Y-11517088D01*
X8691656Y-10621257D01*
X9336055Y-9836056D01*
X9336056Y-9836055D01*
X10121257Y-9191656D01*
X11017088Y-8712825D01*
X11989120Y-8417962D01*
X13000000Y-8318399D01*
X14010880Y-8417962D01*
X14010880Y-8417962D01*
G37*
G36*
X43010880Y-8417962D02*
G01*
X43982912Y-8712825D01*
X44878743Y-9191656D01*
X45663944Y-9836055D01*
X45663945Y-9836056D01*
X46308344Y-10621257D01*
X46787175Y-11517088D01*
X47082038Y-12489120D01*
X47181601Y-13500000D01*
X47082038Y-14510880D01*
X46787175Y-15482912D01*
X46308344Y-16378743D01*
X45663945Y-17163944D01*
X45663944Y-17163945D01*
X44878743Y-17808344D01*
X43982912Y-18287175D01*
X43010880Y-18582038D01*
X42000000Y-18681601D01*
X40989120Y-18582038D01*
X40017088Y-18287175D01*
X39121257Y-17808344D01*
X38336056Y-17163945D01*
X38336055Y-17163944D01*
X37691656Y-16378743D01*
X37212825Y-15482912D01*
X36917962Y-14510880D01*
X36818399Y-13500000D01*
X36917962Y-12489120D01*
X37212825Y-11517088D01*
X37691656Y-10621257D01*
X38336055Y-9836056D01*
X38336056Y-9836055D01*
X39121257Y-9191656D01*
X40017088Y-8712825D01*
X40989120Y-8417962D01*
X42000000Y-8318399D01*
X43010880Y-8417962D01*
X43010880Y-8417962D01*
G37*
G36*
X19964970Y-3843322D02*
G01*
X20134922Y-3894876D01*
X20134925Y-3894878D01*
X20134926Y-3894878D01*
X20291550Y-3978595D01*
X20394430Y-4063027D01*
X20394437Y-4063033D01*
X22436968Y-6105563D01*
X22436973Y-6105568D01*
X22521405Y-6208450D01*
X22605123Y-6365073D01*
X22626412Y-6435255D01*
X22656678Y-6535030D01*
X22674086Y-6711774D01*
X22656678Y-6888516D01*
X22656678Y-6888517D01*
X22605123Y-7058474D01*
X22521405Y-7215098D01*
X22408736Y-7352386D01*
X22271448Y-7465055D01*
X22114824Y-7548773D01*
X22044641Y-7570062D01*
X21944868Y-7600328D01*
X21768124Y-7617736D01*
X21591380Y-7600328D01*
X21491605Y-7570062D01*
X21421423Y-7548773D01*
X21264800Y-7465055D01*
X21161918Y-7380623D01*
X20669811Y-6888516D01*
X19119383Y-5338087D01*
X19119377Y-5338080D01*
X19034945Y-5235200D01*
X18951228Y-5078576D01*
X18951227Y-5078573D01*
X18951226Y-5078572D01*
X18899672Y-4908620D01*
X18882264Y-4731876D01*
X18899672Y-4555132D01*
X18951226Y-4385180D01*
X18951228Y-4385176D01*
X19034945Y-4228551D01*
X19147614Y-4091264D01*
X19284901Y-3978595D01*
X19441526Y-3894878D01*
X19441527Y-3894878D01*
X19441530Y-3894876D01*
X19611482Y-3843322D01*
X19788226Y-3825914D01*
X19964970Y-3843322D01*
X19964970Y-3843322D01*
G37*
G36*
X35388518Y-3843322D02*
G01*
X35488291Y-3873588D01*
X35558474Y-3894877D01*
X35715098Y-3978595D01*
X35852386Y-4091264D01*
X35965055Y-4228552D01*
X36048773Y-4385176D01*
X36048774Y-4385180D01*
X36100328Y-4555132D01*
X36117736Y-4731876D01*
X36100328Y-4908618D01*
X36100328Y-4908619D01*
X36048773Y-5078577D01*
X35965055Y-5235200D01*
X35880623Y-5338082D01*
X35880618Y-5338087D01*
X33838087Y-7380617D01*
X33838081Y-7380622D01*
X33838080Y-7380623D01*
X33735200Y-7465055D01*
X33578576Y-7548772D01*
X33578572Y-7548774D01*
X33408620Y-7600328D01*
X33231876Y-7617736D01*
X33055132Y-7600328D01*
X32885180Y-7548774D01*
X32885176Y-7548772D01*
X32728551Y-7465055D01*
X32591264Y-7352386D01*
X32478595Y-7215099D01*
X32394878Y-7058474D01*
X32394878Y-7058473D01*
X32394876Y-7058470D01*
X32343322Y-6888518D01*
X32325914Y-6711774D01*
X32343322Y-6535030D01*
X32394876Y-6365078D01*
X32394879Y-6365073D01*
X32478595Y-6208450D01*
X32563027Y-6105570D01*
X32563029Y-6105568D01*
X32563033Y-6105563D01*
X34605563Y-4063032D01*
X34605568Y-4063027D01*
X34708450Y-3978595D01*
X34865073Y-3894877D01*
X34935255Y-3873588D01*
X35035030Y-3843322D01*
X35211774Y-3825914D01*
X35388518Y-3843322D01*
X35388518Y-3843322D01*
G37*
G36*
X27724549Y-2271116D02*
G01*
X27835734Y-2293232D01*
X28045203Y-2379997D01*
X28233720Y-2505960D01*
X28394040Y-2666280D01*
X28520003Y-2854797D01*
X28606768Y-3064266D01*
X28651000Y-3286636D01*
X28651000Y-3513364D01*
X28606768Y-3735734D01*
X28520003Y-3945203D01*
X28394040Y-4133720D01*
X28233720Y-4294040D01*
X28045203Y-4420003D01*
X27835734Y-4506768D01*
X27724549Y-4528884D01*
X27613365Y-4551000D01*
X27386635Y-4551000D01*
X27275451Y-4528884D01*
X27164266Y-4506768D01*
X26954797Y-4420003D01*
X26766280Y-4294040D01*
X26605960Y-4133720D01*
X26479997Y-3945203D01*
X26393232Y-3735734D01*
X26349000Y-3513364D01*
X26349000Y-3286636D01*
X26393232Y-3064266D01*
X26479997Y-2854797D01*
X26605960Y-2666280D01*
X26766280Y-2505960D01*
X26954797Y-2379997D01*
X27164266Y-2293232D01*
X27275451Y-2271116D01*
X27386635Y-2249000D01*
X27613365Y-2249000D01*
X27724549Y-2271116D01*
X27724549Y-2271116D01*
G37*
M02*
