G04 #@! TF.GenerationSoftware,KiCad,Pcbnew,(5.1.4)-1*
G04 #@! TF.CreationDate,2019-11-16T19:02:48+09:00*
G04 #@! TF.ProjectId,battery-pack-pcb,62617474-6572-4792-9d70-61636b2d7063,rev?*
G04 #@! TF.SameCoordinates,PX2faf080PY2faf080*
G04 #@! TF.FileFunction,Profile,NP*
%FSLAX46Y46*%
G04 Gerber Fmt 4.6, Leading zero omitted, Abs format (unit mm)*
G04 Created by KiCad (PCBNEW (5.1.4)-1) date 2019-11-16 19:02:48*
%MOMM*%
%LPD*%
G04 APERTURE LIST*
%ADD10C,0.200000*%
G04 APERTURE END LIST*
D10*
X2207107Y-34596225D02*
G75*
G02X1853553Y-34449779I-1J500000D01*
G01*
X52792893Y-34596225D02*
X2207106Y-34596225D01*
X53146446Y-34449778D02*
G75*
G02X52792893Y-34596225I-353553J353553D01*
G01*
X54853553Y-32742672D02*
X53146446Y-34449779D01*
X55000000Y-32389118D02*
G75*
G02X54853553Y-32742672I-500001J0D01*
G01*
X54999999Y-2710558D02*
X54999999Y-32389118D01*
X54853553Y-2357005D02*
G75*
G02X54999999Y-2710558I-353553J-353553D01*
G01*
X53146446Y-649897D02*
X54853553Y-2357004D01*
X52792892Y-503451D02*
G75*
G02X53146446Y-649897I1J-500000D01*
G01*
X38456783Y-503451D02*
X52792893Y-503451D01*
X38456783Y-503450D02*
G75*
G02X38103230Y-357004I0J499999D01*
G01*
X35296446Y2449780D02*
X38103230Y-357004D01*
X34942892Y2596226D02*
G75*
G02X35296446Y2449780I1J-500000D01*
G01*
X20057106Y2596226D02*
X34942893Y2596226D01*
X19703553Y2449779D02*
G75*
G02X20057106Y2596226I353553J-353553D01*
G01*
X16896769Y-357004D02*
X19703553Y2449780D01*
X16896769Y-357004D02*
G75*
G02X16543216Y-503451I-353553J353553D01*
G01*
X2207106Y-503451D02*
X16543216Y-503451D01*
X1853553Y-649898D02*
G75*
G02X2207106Y-503451I353553J-353553D01*
G01*
X146446Y-2357004D02*
X1853553Y-649897D01*
X-1Y-2710558D02*
G75*
G02X146446Y-2357004I500001J0D01*
G01*
X0Y-32389118D02*
X0Y-2710558D01*
X146446Y-32742671D02*
G75*
G02X0Y-32389118I353553J353553D01*
G01*
X1853553Y-34449779D02*
X146446Y-32742672D01*
M02*
