G04 #@! TF.GenerationSoftware,KiCad,Pcbnew,(5.1.4)-1*
G04 #@! TF.CreationDate,2020-01-04T17:24:34+09:00*
G04 #@! TF.ProjectId,battery-pack-pcb,62617474-6572-4792-9d70-61636b2d7063,rev?*
G04 #@! TF.SameCoordinates,PX2faf080PY2faf080*
G04 #@! TF.FileFunction,Legend,Bot*
G04 #@! TF.FilePolarity,Positive*
%FSLAX46Y46*%
G04 Gerber Fmt 4.6, Leading zero omitted, Abs format (unit mm)*
G04 Created by KiCad (PCBNEW (5.1.4)-1) date 2020-01-04 17:24:34*
%MOMM*%
%LPD*%
G04 APERTURE LIST*
%ADD10C,0.150000*%
%ADD11O,1.952000X1.402000*%
%ADD12C,0.100000*%
%ADD13C,1.402000*%
%ADD14C,1.302000*%
%ADD15C,2.302000*%
%ADD16C,1.803200*%
%ADD17C,1.803200*%
G04 APERTURE END LIST*
D10*
X28833333Y-2404761D02*
X28690476Y-2452380D01*
X28452380Y-2452380D01*
X28357142Y-2404761D01*
X28309523Y-2357142D01*
X28261904Y-2261904D01*
X28261904Y-2166666D01*
X28309523Y-2071428D01*
X28357142Y-2023809D01*
X28452380Y-1976190D01*
X28642857Y-1928571D01*
X28738095Y-1880952D01*
X28785714Y-1833333D01*
X28833333Y-1738095D01*
X28833333Y-1642857D01*
X28785714Y-1547619D01*
X28738095Y-1500000D01*
X28642857Y-1452380D01*
X28404761Y-1452380D01*
X28261904Y-1500000D01*
X27928571Y-1452380D02*
X27690476Y-2452380D01*
X27500000Y-1738095D01*
X27309523Y-2452380D01*
X27071428Y-1452380D01*
X26166666Y-2452380D02*
X26738095Y-2452380D01*
X26452380Y-2452380D02*
X26452380Y-1452380D01*
X26547619Y-1595238D01*
X26642857Y-1690476D01*
X26738095Y-1738095D01*
%LPC*%
D11*
X10500000Y-32000000D03*
D12*
G36*
X11212967Y-29300404D02*
G01*
X11241275Y-29304603D01*
X11269036Y-29311557D01*
X11295981Y-29321198D01*
X11321851Y-29333434D01*
X11346397Y-29348146D01*
X11369383Y-29365194D01*
X11390588Y-29384412D01*
X11409806Y-29405617D01*
X11426854Y-29428603D01*
X11441566Y-29453149D01*
X11453802Y-29479019D01*
X11463443Y-29505964D01*
X11470397Y-29533725D01*
X11474596Y-29562033D01*
X11476000Y-29590616D01*
X11476000Y-30409384D01*
X11474596Y-30437967D01*
X11470397Y-30466275D01*
X11463443Y-30494036D01*
X11453802Y-30520981D01*
X11441566Y-30546851D01*
X11426854Y-30571397D01*
X11409806Y-30594383D01*
X11390588Y-30615588D01*
X11369383Y-30634806D01*
X11346397Y-30651854D01*
X11321851Y-30666566D01*
X11295981Y-30678802D01*
X11269036Y-30688443D01*
X11241275Y-30695397D01*
X11212967Y-30699596D01*
X11184384Y-30701000D01*
X9815616Y-30701000D01*
X9787033Y-30699596D01*
X9758725Y-30695397D01*
X9730964Y-30688443D01*
X9704019Y-30678802D01*
X9678149Y-30666566D01*
X9653603Y-30651854D01*
X9630617Y-30634806D01*
X9609412Y-30615588D01*
X9590194Y-30594383D01*
X9573146Y-30571397D01*
X9558434Y-30546851D01*
X9546198Y-30520981D01*
X9536557Y-30494036D01*
X9529603Y-30466275D01*
X9525404Y-30437967D01*
X9524000Y-30409384D01*
X9524000Y-29590616D01*
X9525404Y-29562033D01*
X9529603Y-29533725D01*
X9536557Y-29505964D01*
X9546198Y-29479019D01*
X9558434Y-29453149D01*
X9573146Y-29428603D01*
X9590194Y-29405617D01*
X9609412Y-29384412D01*
X9630617Y-29365194D01*
X9653603Y-29348146D01*
X9678149Y-29333434D01*
X9704019Y-29321198D01*
X9730964Y-29311557D01*
X9758725Y-29304603D01*
X9787033Y-29300404D01*
X9815616Y-29299000D01*
X11184384Y-29299000D01*
X11212967Y-29300404D01*
X11212967Y-29300404D01*
G37*
D13*
X10500000Y-30000000D03*
D11*
X44500000Y-30000000D03*
D12*
G36*
X45212967Y-31300404D02*
G01*
X45241275Y-31304603D01*
X45269036Y-31311557D01*
X45295981Y-31321198D01*
X45321851Y-31333434D01*
X45346397Y-31348146D01*
X45369383Y-31365194D01*
X45390588Y-31384412D01*
X45409806Y-31405617D01*
X45426854Y-31428603D01*
X45441566Y-31453149D01*
X45453802Y-31479019D01*
X45463443Y-31505964D01*
X45470397Y-31533725D01*
X45474596Y-31562033D01*
X45476000Y-31590616D01*
X45476000Y-32409384D01*
X45474596Y-32437967D01*
X45470397Y-32466275D01*
X45463443Y-32494036D01*
X45453802Y-32520981D01*
X45441566Y-32546851D01*
X45426854Y-32571397D01*
X45409806Y-32594383D01*
X45390588Y-32615588D01*
X45369383Y-32634806D01*
X45346397Y-32651854D01*
X45321851Y-32666566D01*
X45295981Y-32678802D01*
X45269036Y-32688443D01*
X45241275Y-32695397D01*
X45212967Y-32699596D01*
X45184384Y-32701000D01*
X43815616Y-32701000D01*
X43787033Y-32699596D01*
X43758725Y-32695397D01*
X43730964Y-32688443D01*
X43704019Y-32678802D01*
X43678149Y-32666566D01*
X43653603Y-32651854D01*
X43630617Y-32634806D01*
X43609412Y-32615588D01*
X43590194Y-32594383D01*
X43573146Y-32571397D01*
X43558434Y-32546851D01*
X43546198Y-32520981D01*
X43536557Y-32494036D01*
X43529603Y-32466275D01*
X43525404Y-32437967D01*
X43524000Y-32409384D01*
X43524000Y-31590616D01*
X43525404Y-31562033D01*
X43529603Y-31533725D01*
X43536557Y-31505964D01*
X43546198Y-31479019D01*
X43558434Y-31453149D01*
X43573146Y-31428603D01*
X43590194Y-31405617D01*
X43609412Y-31384412D01*
X43630617Y-31365194D01*
X43653603Y-31348146D01*
X43678149Y-31333434D01*
X43704019Y-31321198D01*
X43730964Y-31311557D01*
X43758725Y-31304603D01*
X43787033Y-31300404D01*
X43815616Y-31299000D01*
X45184384Y-31299000D01*
X45212967Y-31300404D01*
X45212967Y-31300404D01*
G37*
D13*
X44500000Y-32000000D03*
D14*
X28500000Y-153774D03*
X26500000Y-153774D03*
X30500000Y-153774D03*
D15*
X27500000Y-6096225D03*
D16*
X20278175Y-8221825D03*
D17*
X19288226Y-7231876D02*
X21268124Y-9211774D01*
D16*
X4721825Y-23778175D03*
D17*
X3731876Y-22788226D02*
X5711774Y-24768124D01*
D16*
X50278175Y-23778175D03*
D17*
X51268124Y-22788226D02*
X49288226Y-24768124D01*
D16*
X34721825Y-8221825D03*
D17*
X35711774Y-7231876D02*
X33731876Y-9211774D01*
M02*
