G04 #@! TF.GenerationSoftware,KiCad,Pcbnew,(5.1.4)-1*
G04 #@! TF.CreationDate,2019-11-16T19:02:48+09:00*
G04 #@! TF.ProjectId,battery-pack-pcb,62617474-6572-4792-9d70-61636b2d7063,rev?*
G04 #@! TF.SameCoordinates,PX2faf080PY2faf080*
G04 #@! TF.FileFunction,Copper,L2,Bot*
G04 #@! TF.FilePolarity,Positive*
%FSLAX46Y46*%
G04 Gerber Fmt 4.6, Leading zero omitted, Abs format (unit mm)*
G04 Created by KiCad (PCBNEW (5.1.4)-1) date 2019-11-16 19:02:48*
%MOMM*%
%LPD*%
G04 APERTURE LIST*
%ADD10C,1.200000*%
%ADD11O,1.750000X1.200000*%
%ADD12C,0.100000*%
%ADD13C,1.600000*%
%ADD14C,1.600000*%
G04 APERTURE END LIST*
D10*
X28500000Y-153774D03*
X26500000Y-153774D03*
X30500000Y-153774D03*
D11*
X44500000Y-30000000D03*
D12*
G36*
X45149505Y-31401204D02*
G01*
X45173773Y-31404804D01*
X45197572Y-31410765D01*
X45220671Y-31419030D01*
X45242850Y-31429520D01*
X45263893Y-31442132D01*
X45283599Y-31456747D01*
X45301777Y-31473223D01*
X45318253Y-31491401D01*
X45332868Y-31511107D01*
X45345480Y-31532150D01*
X45355970Y-31554329D01*
X45364235Y-31577428D01*
X45370196Y-31601227D01*
X45373796Y-31625495D01*
X45375000Y-31649999D01*
X45375000Y-32350001D01*
X45373796Y-32374505D01*
X45370196Y-32398773D01*
X45364235Y-32422572D01*
X45355970Y-32445671D01*
X45345480Y-32467850D01*
X45332868Y-32488893D01*
X45318253Y-32508599D01*
X45301777Y-32526777D01*
X45283599Y-32543253D01*
X45263893Y-32557868D01*
X45242850Y-32570480D01*
X45220671Y-32580970D01*
X45197572Y-32589235D01*
X45173773Y-32595196D01*
X45149505Y-32598796D01*
X45125001Y-32600000D01*
X43874999Y-32600000D01*
X43850495Y-32598796D01*
X43826227Y-32595196D01*
X43802428Y-32589235D01*
X43779329Y-32580970D01*
X43757150Y-32570480D01*
X43736107Y-32557868D01*
X43716401Y-32543253D01*
X43698223Y-32526777D01*
X43681747Y-32508599D01*
X43667132Y-32488893D01*
X43654520Y-32467850D01*
X43644030Y-32445671D01*
X43635765Y-32422572D01*
X43629804Y-32398773D01*
X43626204Y-32374505D01*
X43625000Y-32350001D01*
X43625000Y-31649999D01*
X43626204Y-31625495D01*
X43629804Y-31601227D01*
X43635765Y-31577428D01*
X43644030Y-31554329D01*
X43654520Y-31532150D01*
X43667132Y-31511107D01*
X43681747Y-31491401D01*
X43698223Y-31473223D01*
X43716401Y-31456747D01*
X43736107Y-31442132D01*
X43757150Y-31429520D01*
X43779329Y-31419030D01*
X43802428Y-31410765D01*
X43826227Y-31404804D01*
X43850495Y-31401204D01*
X43874999Y-31400000D01*
X45125001Y-31400000D01*
X45149505Y-31401204D01*
X45149505Y-31401204D01*
G37*
D10*
X44500000Y-32000000D03*
D11*
X10500000Y-32000000D03*
D12*
G36*
X11149505Y-29401204D02*
G01*
X11173773Y-29404804D01*
X11197572Y-29410765D01*
X11220671Y-29419030D01*
X11242850Y-29429520D01*
X11263893Y-29442132D01*
X11283599Y-29456747D01*
X11301777Y-29473223D01*
X11318253Y-29491401D01*
X11332868Y-29511107D01*
X11345480Y-29532150D01*
X11355970Y-29554329D01*
X11364235Y-29577428D01*
X11370196Y-29601227D01*
X11373796Y-29625495D01*
X11375000Y-29649999D01*
X11375000Y-30350001D01*
X11373796Y-30374505D01*
X11370196Y-30398773D01*
X11364235Y-30422572D01*
X11355970Y-30445671D01*
X11345480Y-30467850D01*
X11332868Y-30488893D01*
X11318253Y-30508599D01*
X11301777Y-30526777D01*
X11283599Y-30543253D01*
X11263893Y-30557868D01*
X11242850Y-30570480D01*
X11220671Y-30580970D01*
X11197572Y-30589235D01*
X11173773Y-30595196D01*
X11149505Y-30598796D01*
X11125001Y-30600000D01*
X9874999Y-30600000D01*
X9850495Y-30598796D01*
X9826227Y-30595196D01*
X9802428Y-30589235D01*
X9779329Y-30580970D01*
X9757150Y-30570480D01*
X9736107Y-30557868D01*
X9716401Y-30543253D01*
X9698223Y-30526777D01*
X9681747Y-30508599D01*
X9667132Y-30488893D01*
X9654520Y-30467850D01*
X9644030Y-30445671D01*
X9635765Y-30422572D01*
X9629804Y-30398773D01*
X9626204Y-30374505D01*
X9625000Y-30350001D01*
X9625000Y-29649999D01*
X9626204Y-29625495D01*
X9629804Y-29601227D01*
X9635765Y-29577428D01*
X9644030Y-29554329D01*
X9654520Y-29532150D01*
X9667132Y-29511107D01*
X9681747Y-29491401D01*
X9698223Y-29473223D01*
X9716401Y-29456747D01*
X9736107Y-29442132D01*
X9757150Y-29429520D01*
X9779329Y-29419030D01*
X9802428Y-29410765D01*
X9826227Y-29404804D01*
X9850495Y-29401204D01*
X9874999Y-29400000D01*
X11125001Y-29400000D01*
X11149505Y-29401204D01*
X11149505Y-29401204D01*
G37*
D10*
X10500000Y-30000000D03*
D13*
X20278175Y-8221825D03*
D14*
X19288226Y-7231876D02*
X21268124Y-9211774D01*
D13*
X4721825Y-23778175D03*
D14*
X3731876Y-22788226D02*
X5711774Y-24768124D01*
D13*
X50278175Y-23778175D03*
D14*
X51268124Y-22788226D02*
X49288226Y-24768124D01*
D13*
X34721825Y-8221825D03*
D14*
X35711774Y-7231876D02*
X33731876Y-9211774D01*
M02*
