G04 #@! TF.GenerationSoftware,KiCad,Pcbnew,(5.1.4)-1*
G04 #@! TF.CreationDate,2019-08-21T00:58:32+09:00*
G04 #@! TF.ProjectId,battery-pack-pcb,62617474-6572-4792-9d70-61636b2d7063,rev?*
G04 #@! TF.SameCoordinates,PX2faf080PY2faf080*
G04 #@! TF.FileFunction,Legend,Top*
G04 #@! TF.FilePolarity,Positive*
%FSLAX46Y46*%
G04 Gerber Fmt 4.6, Leading zero omitted, Abs format (unit mm)*
G04 Created by KiCad (PCBNEW (5.1.4)-1) date 2019-08-21 00:58:32*
%MOMM*%
%LPD*%
G04 APERTURE LIST*
%ADD10C,0.120000*%
%ADD11C,0.150000*%
%ADD12C,0.146304*%
%ADD13C,9.525000*%
%ADD14C,2.302000*%
%ADD15C,1.803200*%
%ADD16C,1.803200*%
%ADD17C,0.100000*%
%ADD18C,10.363200*%
%ADD19C,1.302000*%
%ADD20O,1.852000X1.302000*%
%ADD21R,1.302000X1.002000*%
G04 APERTURE END LIST*
D10*
X41140000Y-32360000D02*
X41140000Y-32640000D01*
X41140000Y-32640000D02*
X39540000Y-32640000D01*
X39540000Y-32640000D02*
X39540000Y-33560000D01*
X39540000Y-33560000D02*
X47360000Y-33560000D01*
X47360000Y-33560000D02*
X47360000Y-27440000D01*
X47360000Y-27440000D02*
X39540000Y-27440000D01*
X39540000Y-27440000D02*
X39540000Y-28360000D01*
X39540000Y-28360000D02*
X41140000Y-28360000D01*
X41140000Y-28360000D02*
X41140000Y-28640000D01*
X47360000Y-31000000D02*
X43000000Y-31000000D01*
X43000000Y-31000000D02*
X43000000Y-30000000D01*
X43000000Y-30000000D02*
X47360000Y-30000000D01*
X41140000Y-33560000D02*
X41140000Y-32640000D01*
X41140000Y-27440000D02*
X41140000Y-28360000D01*
X43500000Y-32800000D02*
X45100000Y-32800000D01*
X45100000Y-32800000D02*
X45100000Y-31800000D01*
X45100000Y-31800000D02*
X43500000Y-31800000D01*
X43500000Y-31800000D02*
X43500000Y-32800000D01*
X43500000Y-28200000D02*
X45100000Y-28200000D01*
X45100000Y-28200000D02*
X45100000Y-29200000D01*
X45100000Y-29200000D02*
X43500000Y-29200000D01*
X43500000Y-29200000D02*
X43500000Y-28200000D01*
X45100000Y-31800000D02*
X47360000Y-31800000D01*
X45100000Y-32300000D02*
X47360000Y-32300000D01*
X41140000Y-32360000D02*
X39925000Y-32360000D01*
X13860000Y-28640000D02*
X13860000Y-28360000D01*
X13860000Y-28360000D02*
X15460000Y-28360000D01*
X15460000Y-28360000D02*
X15460000Y-27440000D01*
X15460000Y-27440000D02*
X7640000Y-27440000D01*
X7640000Y-27440000D02*
X7640000Y-33560000D01*
X7640000Y-33560000D02*
X15460000Y-33560000D01*
X15460000Y-33560000D02*
X15460000Y-32640000D01*
X15460000Y-32640000D02*
X13860000Y-32640000D01*
X13860000Y-32640000D02*
X13860000Y-32360000D01*
X7640000Y-30000000D02*
X12000000Y-30000000D01*
X12000000Y-30000000D02*
X12000000Y-31000000D01*
X12000000Y-31000000D02*
X7640000Y-31000000D01*
X13860000Y-27440000D02*
X13860000Y-28360000D01*
X13860000Y-33560000D02*
X13860000Y-32640000D01*
X11500000Y-28200000D02*
X9900000Y-28200000D01*
X9900000Y-28200000D02*
X9900000Y-29200000D01*
X9900000Y-29200000D02*
X11500000Y-29200000D01*
X11500000Y-29200000D02*
X11500000Y-28200000D01*
X11500000Y-32800000D02*
X9900000Y-32800000D01*
X9900000Y-32800000D02*
X9900000Y-31800000D01*
X9900000Y-31800000D02*
X11500000Y-31800000D01*
X11500000Y-31800000D02*
X11500000Y-32800000D01*
X9900000Y-29200000D02*
X7640000Y-29200000D01*
X9900000Y-28700000D02*
X7640000Y-28700000D01*
X13860000Y-28640000D02*
X15075000Y-28640000D01*
X22500000Y-29250000D02*
X24500000Y-29250000D01*
X24500000Y-29250000D02*
X24500000Y-25350000D01*
X22500000Y-29250000D02*
X22500000Y-25350000D01*
X30500000Y-29250000D02*
X32500000Y-29250000D01*
X32500000Y-29250000D02*
X32500000Y-25350000D01*
X30500000Y-29250000D02*
X30500000Y-25350000D01*
D11*
X26738095Y-7452380D02*
X26738095Y-6452380D01*
X26738095Y-6928571D02*
X27309523Y-6928571D01*
X27309523Y-7452380D02*
X27309523Y-6452380D01*
X28309523Y-7452380D02*
X27738095Y-7452380D01*
X28023809Y-7452380D02*
X28023809Y-6452380D01*
X27928571Y-6595238D01*
X27833333Y-6690476D01*
X27738095Y-6738095D01*
D12*
X4996756Y-5471243D02*
X5100756Y-5419243D01*
X5152756Y-5419243D01*
X5230756Y-5445243D01*
X5308756Y-5523243D01*
X5334756Y-5601242D01*
X5334756Y-5653242D01*
X5308756Y-5731242D01*
X5100756Y-5939242D01*
X4554756Y-5393243D01*
X4736756Y-5211243D01*
X4814756Y-5185243D01*
X4866756Y-5185243D01*
X4944756Y-5211243D01*
X4996756Y-5263243D01*
X5022756Y-5341243D01*
X5022756Y-5393243D01*
X4996756Y-5471243D01*
X4814756Y-5653242D01*
X5022756Y-4925243D02*
X5334756Y-4613243D01*
X5724756Y-5315243D02*
X5178756Y-4769243D01*
X5542756Y-4509243D02*
X5542756Y-4457243D01*
X5568756Y-4379243D01*
X5698756Y-4249244D01*
X5776755Y-4223244D01*
X5828755Y-4223244D01*
X5906755Y-4249244D01*
X5958755Y-4301243D01*
X6010755Y-4405243D01*
X6010755Y-5029243D01*
X6348755Y-4691243D01*
X49145244Y-4613243D02*
X49197244Y-4717243D01*
X49197244Y-4769243D01*
X49171244Y-4847243D01*
X49093244Y-4925243D01*
X49015244Y-4951243D01*
X48963244Y-4951243D01*
X48885244Y-4925243D01*
X48677244Y-4717243D01*
X49223244Y-4171244D01*
X49405243Y-4353243D01*
X49431243Y-4431243D01*
X49431243Y-4483243D01*
X49405243Y-4561243D01*
X49353243Y-4613243D01*
X49275243Y-4639243D01*
X49223244Y-4639243D01*
X49145244Y-4613243D01*
X48963244Y-4431243D01*
X49691243Y-4639243D02*
X50003243Y-4951243D01*
X49301243Y-5341243D02*
X49847243Y-4795243D01*
X49925243Y-5965242D02*
X49613243Y-5653242D01*
X49769243Y-5809242D02*
X50315243Y-5263243D01*
X50185243Y-5289243D01*
X50081243Y-5289243D01*
X50003243Y-5263243D01*
D11*
X37902380Y-30833333D02*
X38616666Y-30833333D01*
X38759523Y-30880952D01*
X38854761Y-30976190D01*
X38902380Y-31119047D01*
X38902380Y-31214285D01*
X37997619Y-30404761D02*
X37950000Y-30357142D01*
X37902380Y-30261904D01*
X37902380Y-30023809D01*
X37950000Y-29928571D01*
X37997619Y-29880952D01*
X38092857Y-29833333D01*
X38188095Y-29833333D01*
X38330952Y-29880952D01*
X38902380Y-30452380D01*
X38902380Y-29833333D01*
X16002380Y-30833333D02*
X16716666Y-30833333D01*
X16859523Y-30880952D01*
X16954761Y-30976190D01*
X17002380Y-31119047D01*
X17002380Y-31214285D01*
X17002380Y-29833333D02*
X17002380Y-30404761D01*
X17002380Y-30119047D02*
X16002380Y-30119047D01*
X16145238Y-30214285D01*
X16240476Y-30309523D01*
X16288095Y-30404761D01*
X21952380Y-27738095D02*
X20952380Y-27738095D01*
X20952380Y-27500000D01*
X21000000Y-27357142D01*
X21095238Y-27261904D01*
X21190476Y-27214285D01*
X21380952Y-27166666D01*
X21523809Y-27166666D01*
X21714285Y-27214285D01*
X21809523Y-27261904D01*
X21904761Y-27357142D01*
X21952380Y-27500000D01*
X21952380Y-27738095D01*
X21047619Y-26785714D02*
X21000000Y-26738095D01*
X20952380Y-26642857D01*
X20952380Y-26404761D01*
X21000000Y-26309523D01*
X21047619Y-26261904D01*
X21142857Y-26214285D01*
X21238095Y-26214285D01*
X21380952Y-26261904D01*
X21952380Y-26833333D01*
X21952380Y-26214285D01*
X29952380Y-27738095D02*
X28952380Y-27738095D01*
X28952380Y-27500000D01*
X29000000Y-27357142D01*
X29095238Y-27261904D01*
X29190476Y-27214285D01*
X29380952Y-27166666D01*
X29523809Y-27166666D01*
X29714285Y-27214285D01*
X29809523Y-27261904D01*
X29904761Y-27357142D01*
X29952380Y-27500000D01*
X29952380Y-27738095D01*
X29952380Y-26214285D02*
X29952380Y-26785714D01*
X29952380Y-26500000D02*
X28952380Y-26500000D01*
X29095238Y-26595238D01*
X29190476Y-26690476D01*
X29238095Y-26785714D01*
%LPC*%
D13*
X17762500Y-13500000D02*
G75*
G03X17762500Y-13500000I-4762500J0D01*
G01*
X46762500Y-13500000D02*
G75*
G03X46762500Y-13500000I-4762500J0D01*
G01*
D14*
X27500000Y-3400000D03*
D15*
X20778175Y-5721825D03*
D16*
X19788226Y-4731876D02*
X21768124Y-6711774D01*
D15*
X5221825Y-21278175D03*
D16*
X4231876Y-20288226D02*
X6211774Y-22268124D01*
D17*
G36*
X13507886Y-8343350D02*
G01*
X14010880Y-8417962D01*
X14504139Y-8541517D01*
X14982912Y-8712825D01*
X15442589Y-8930236D01*
X15878743Y-9191656D01*
X16287172Y-9494568D01*
X16663944Y-9836055D01*
X16663945Y-9836056D01*
X17005432Y-10212828D01*
X17308344Y-10621257D01*
X17569764Y-11057411D01*
X17787175Y-11517088D01*
X17958483Y-11995861D01*
X18082038Y-12489120D01*
X18156650Y-12992114D01*
X18181601Y-13500000D01*
X18156650Y-14007886D01*
X18082038Y-14510880D01*
X17958483Y-15004139D01*
X17787175Y-15482912D01*
X17569764Y-15942589D01*
X17308344Y-16378743D01*
X17005432Y-16787172D01*
X16663945Y-17163944D01*
X16663944Y-17163945D01*
X16287172Y-17505432D01*
X15878743Y-17808344D01*
X15442589Y-18069764D01*
X14982912Y-18287175D01*
X14504139Y-18458483D01*
X14010880Y-18582038D01*
X13507886Y-18656650D01*
X13000000Y-18681601D01*
X12492114Y-18656650D01*
X11989120Y-18582038D01*
X11495861Y-18458483D01*
X11017088Y-18287175D01*
X10557411Y-18069764D01*
X10121257Y-17808344D01*
X9712828Y-17505432D01*
X9336056Y-17163945D01*
X9336055Y-17163944D01*
X8994568Y-16787172D01*
X8691656Y-16378743D01*
X8430236Y-15942589D01*
X8212825Y-15482912D01*
X8041517Y-15004139D01*
X7917962Y-14510880D01*
X7843350Y-14007886D01*
X7818399Y-13500000D01*
X7843350Y-12992114D01*
X7917962Y-12489120D01*
X8041517Y-11995861D01*
X8212825Y-11517088D01*
X8430236Y-11057411D01*
X8691656Y-10621257D01*
X8994568Y-10212828D01*
X9336055Y-9836056D01*
X9336056Y-9836055D01*
X9712828Y-9494568D01*
X10121257Y-9191656D01*
X10557411Y-8930236D01*
X11017088Y-8712825D01*
X11495861Y-8541517D01*
X11989120Y-8417962D01*
X12492114Y-8343350D01*
X13000000Y-8318399D01*
X13507886Y-8343350D01*
X13507886Y-8343350D01*
G37*
D18*
X13000000Y-13500000D03*
D15*
X49778175Y-21278175D03*
D16*
X50768124Y-20288226D02*
X48788226Y-22268124D01*
D15*
X34221825Y-5721825D03*
D16*
X35211774Y-4731876D02*
X33231876Y-6711774D01*
D17*
G36*
X42507886Y-8343350D02*
G01*
X43010880Y-8417962D01*
X43504139Y-8541517D01*
X43982912Y-8712825D01*
X44442589Y-8930236D01*
X44878743Y-9191656D01*
X45287172Y-9494568D01*
X45663944Y-9836055D01*
X45663945Y-9836056D01*
X46005432Y-10212828D01*
X46308344Y-10621257D01*
X46569764Y-11057411D01*
X46787175Y-11517088D01*
X46958483Y-11995861D01*
X47082038Y-12489120D01*
X47156650Y-12992114D01*
X47181601Y-13500000D01*
X47156650Y-14007886D01*
X47082038Y-14510880D01*
X46958483Y-15004139D01*
X46787175Y-15482912D01*
X46569764Y-15942589D01*
X46308344Y-16378743D01*
X46005432Y-16787172D01*
X45663945Y-17163944D01*
X45663944Y-17163945D01*
X45287172Y-17505432D01*
X44878743Y-17808344D01*
X44442589Y-18069764D01*
X43982912Y-18287175D01*
X43504139Y-18458483D01*
X43010880Y-18582038D01*
X42507886Y-18656650D01*
X42000000Y-18681601D01*
X41492114Y-18656650D01*
X40989120Y-18582038D01*
X40495861Y-18458483D01*
X40017088Y-18287175D01*
X39557411Y-18069764D01*
X39121257Y-17808344D01*
X38712828Y-17505432D01*
X38336056Y-17163945D01*
X38336055Y-17163944D01*
X37994568Y-16787172D01*
X37691656Y-16378743D01*
X37430236Y-15942589D01*
X37212825Y-15482912D01*
X37041517Y-15004139D01*
X36917962Y-14510880D01*
X36843350Y-14007886D01*
X36818399Y-13500000D01*
X36843350Y-12992114D01*
X36917962Y-12489120D01*
X37041517Y-11995861D01*
X37212825Y-11517088D01*
X37430236Y-11057411D01*
X37691656Y-10621257D01*
X37994568Y-10212828D01*
X38336055Y-9836056D01*
X38336056Y-9836055D01*
X38712828Y-9494568D01*
X39121257Y-9191656D01*
X39557411Y-8930236D01*
X40017088Y-8712825D01*
X40495861Y-8541517D01*
X40989120Y-8417962D01*
X41492114Y-8343350D01*
X42000000Y-8318399D01*
X42507886Y-8343350D01*
X42507886Y-8343350D01*
G37*
D18*
X42000000Y-13500000D03*
D17*
G36*
X41681338Y-30850306D02*
G01*
X41707669Y-30854212D01*
X41733490Y-30860680D01*
X41758553Y-30869648D01*
X41782617Y-30881029D01*
X41805449Y-30894714D01*
X41826830Y-30910571D01*
X41846553Y-30928447D01*
X41864429Y-30948170D01*
X41880286Y-30969551D01*
X41893971Y-30992383D01*
X41905352Y-31016447D01*
X41914320Y-31041510D01*
X41920788Y-31067331D01*
X41924694Y-31093662D01*
X41926000Y-31120249D01*
X41926000Y-31879751D01*
X41924694Y-31906338D01*
X41920788Y-31932669D01*
X41914320Y-31958490D01*
X41905352Y-31983553D01*
X41893971Y-32007617D01*
X41880286Y-32030449D01*
X41864429Y-32051830D01*
X41846553Y-32071553D01*
X41826830Y-32089429D01*
X41805449Y-32105286D01*
X41782617Y-32118971D01*
X41758553Y-32130352D01*
X41733490Y-32139320D01*
X41707669Y-32145788D01*
X41681338Y-32149694D01*
X41654751Y-32151000D01*
X40345249Y-32151000D01*
X40318662Y-32149694D01*
X40292331Y-32145788D01*
X40266510Y-32139320D01*
X40241447Y-32130352D01*
X40217383Y-32118971D01*
X40194551Y-32105286D01*
X40173170Y-32089429D01*
X40153447Y-32071553D01*
X40135571Y-32051830D01*
X40119714Y-32030449D01*
X40106029Y-32007617D01*
X40094648Y-31983553D01*
X40085680Y-31958490D01*
X40079212Y-31932669D01*
X40075306Y-31906338D01*
X40074000Y-31879751D01*
X40074000Y-31120249D01*
X40075306Y-31093662D01*
X40079212Y-31067331D01*
X40085680Y-31041510D01*
X40094648Y-31016447D01*
X40106029Y-30992383D01*
X40119714Y-30969551D01*
X40135571Y-30948170D01*
X40153447Y-30928447D01*
X40173170Y-30910571D01*
X40194551Y-30894714D01*
X40217383Y-30881029D01*
X40241447Y-30869648D01*
X40266510Y-30860680D01*
X40292331Y-30854212D01*
X40318662Y-30850306D01*
X40345249Y-30849000D01*
X41654751Y-30849000D01*
X41681338Y-30850306D01*
X41681338Y-30850306D01*
G37*
D19*
X41000000Y-31500000D03*
D20*
X41000000Y-29500000D03*
D17*
G36*
X14681338Y-28850306D02*
G01*
X14707669Y-28854212D01*
X14733490Y-28860680D01*
X14758553Y-28869648D01*
X14782617Y-28881029D01*
X14805449Y-28894714D01*
X14826830Y-28910571D01*
X14846553Y-28928447D01*
X14864429Y-28948170D01*
X14880286Y-28969551D01*
X14893971Y-28992383D01*
X14905352Y-29016447D01*
X14914320Y-29041510D01*
X14920788Y-29067331D01*
X14924694Y-29093662D01*
X14926000Y-29120249D01*
X14926000Y-29879751D01*
X14924694Y-29906338D01*
X14920788Y-29932669D01*
X14914320Y-29958490D01*
X14905352Y-29983553D01*
X14893971Y-30007617D01*
X14880286Y-30030449D01*
X14864429Y-30051830D01*
X14846553Y-30071553D01*
X14826830Y-30089429D01*
X14805449Y-30105286D01*
X14782617Y-30118971D01*
X14758553Y-30130352D01*
X14733490Y-30139320D01*
X14707669Y-30145788D01*
X14681338Y-30149694D01*
X14654751Y-30151000D01*
X13345249Y-30151000D01*
X13318662Y-30149694D01*
X13292331Y-30145788D01*
X13266510Y-30139320D01*
X13241447Y-30130352D01*
X13217383Y-30118971D01*
X13194551Y-30105286D01*
X13173170Y-30089429D01*
X13153447Y-30071553D01*
X13135571Y-30051830D01*
X13119714Y-30030449D01*
X13106029Y-30007617D01*
X13094648Y-29983553D01*
X13085680Y-29958490D01*
X13079212Y-29932669D01*
X13075306Y-29906338D01*
X13074000Y-29879751D01*
X13074000Y-29120249D01*
X13075306Y-29093662D01*
X13079212Y-29067331D01*
X13085680Y-29041510D01*
X13094648Y-29016447D01*
X13106029Y-28992383D01*
X13119714Y-28969551D01*
X13135571Y-28948170D01*
X13153447Y-28928447D01*
X13173170Y-28910571D01*
X13194551Y-28894714D01*
X13217383Y-28881029D01*
X13241447Y-28869648D01*
X13266510Y-28860680D01*
X13292331Y-28854212D01*
X13318662Y-28850306D01*
X13345249Y-28849000D01*
X14654751Y-28849000D01*
X14681338Y-28850306D01*
X14681338Y-28850306D01*
G37*
D19*
X14000000Y-29500000D03*
D20*
X14000000Y-31500000D03*
D21*
X23500000Y-28650000D03*
X23500000Y-25350000D03*
X31500000Y-28650000D03*
X31500000Y-25350000D03*
M02*
