G04 #@! TF.GenerationSoftware,KiCad,Pcbnew,(5.1.4)-1*
G04 #@! TF.CreationDate,2020-01-04T17:24:34+09:00*
G04 #@! TF.ProjectId,battery-pack-pcb,62617474-6572-4792-9d70-61636b2d7063,rev?*
G04 #@! TF.SameCoordinates,PX2faf080PY2faf080*
G04 #@! TF.FileFunction,Copper,L2,Bot*
G04 #@! TF.FilePolarity,Positive*
%FSLAX46Y46*%
G04 Gerber Fmt 4.6, Leading zero omitted, Abs format (unit mm)*
G04 Created by KiCad (PCBNEW (5.1.4)-1) date 2020-01-04 17:24:34*
%MOMM*%
%LPD*%
G04 APERTURE LIST*
%ADD10O,1.850000X1.300000*%
%ADD11C,0.100000*%
%ADD12C,1.300000*%
%ADD13C,1.200000*%
%ADD14C,1.600000*%
%ADD15C,1.600000*%
G04 APERTURE END LIST*
D10*
X10500000Y-32000000D03*
D11*
G36*
X11181104Y-29351302D02*
G01*
X11207352Y-29355196D01*
X11233093Y-29361643D01*
X11258078Y-29370583D01*
X11282066Y-29381928D01*
X11304826Y-29395571D01*
X11326140Y-29411378D01*
X11345802Y-29429198D01*
X11363622Y-29448860D01*
X11379429Y-29470174D01*
X11393072Y-29492934D01*
X11404417Y-29516922D01*
X11413357Y-29541907D01*
X11419804Y-29567648D01*
X11423698Y-29593896D01*
X11425000Y-29620400D01*
X11425000Y-30379600D01*
X11423698Y-30406104D01*
X11419804Y-30432352D01*
X11413357Y-30458093D01*
X11404417Y-30483078D01*
X11393072Y-30507066D01*
X11379429Y-30529826D01*
X11363622Y-30551140D01*
X11345802Y-30570802D01*
X11326140Y-30588622D01*
X11304826Y-30604429D01*
X11282066Y-30618072D01*
X11258078Y-30629417D01*
X11233093Y-30638357D01*
X11207352Y-30644804D01*
X11181104Y-30648698D01*
X11154600Y-30650000D01*
X9845400Y-30650000D01*
X9818896Y-30648698D01*
X9792648Y-30644804D01*
X9766907Y-30638357D01*
X9741922Y-30629417D01*
X9717934Y-30618072D01*
X9695174Y-30604429D01*
X9673860Y-30588622D01*
X9654198Y-30570802D01*
X9636378Y-30551140D01*
X9620571Y-30529826D01*
X9606928Y-30507066D01*
X9595583Y-30483078D01*
X9586643Y-30458093D01*
X9580196Y-30432352D01*
X9576302Y-30406104D01*
X9575000Y-30379600D01*
X9575000Y-29620400D01*
X9576302Y-29593896D01*
X9580196Y-29567648D01*
X9586643Y-29541907D01*
X9595583Y-29516922D01*
X9606928Y-29492934D01*
X9620571Y-29470174D01*
X9636378Y-29448860D01*
X9654198Y-29429198D01*
X9673860Y-29411378D01*
X9695174Y-29395571D01*
X9717934Y-29381928D01*
X9741922Y-29370583D01*
X9766907Y-29361643D01*
X9792648Y-29355196D01*
X9818896Y-29351302D01*
X9845400Y-29350000D01*
X11154600Y-29350000D01*
X11181104Y-29351302D01*
X11181104Y-29351302D01*
G37*
D12*
X10500000Y-30000000D03*
D10*
X44500000Y-30000000D03*
D11*
G36*
X45181104Y-31351302D02*
G01*
X45207352Y-31355196D01*
X45233093Y-31361643D01*
X45258078Y-31370583D01*
X45282066Y-31381928D01*
X45304826Y-31395571D01*
X45326140Y-31411378D01*
X45345802Y-31429198D01*
X45363622Y-31448860D01*
X45379429Y-31470174D01*
X45393072Y-31492934D01*
X45404417Y-31516922D01*
X45413357Y-31541907D01*
X45419804Y-31567648D01*
X45423698Y-31593896D01*
X45425000Y-31620400D01*
X45425000Y-32379600D01*
X45423698Y-32406104D01*
X45419804Y-32432352D01*
X45413357Y-32458093D01*
X45404417Y-32483078D01*
X45393072Y-32507066D01*
X45379429Y-32529826D01*
X45363622Y-32551140D01*
X45345802Y-32570802D01*
X45326140Y-32588622D01*
X45304826Y-32604429D01*
X45282066Y-32618072D01*
X45258078Y-32629417D01*
X45233093Y-32638357D01*
X45207352Y-32644804D01*
X45181104Y-32648698D01*
X45154600Y-32650000D01*
X43845400Y-32650000D01*
X43818896Y-32648698D01*
X43792648Y-32644804D01*
X43766907Y-32638357D01*
X43741922Y-32629417D01*
X43717934Y-32618072D01*
X43695174Y-32604429D01*
X43673860Y-32588622D01*
X43654198Y-32570802D01*
X43636378Y-32551140D01*
X43620571Y-32529826D01*
X43606928Y-32507066D01*
X43595583Y-32483078D01*
X43586643Y-32458093D01*
X43580196Y-32432352D01*
X43576302Y-32406104D01*
X43575000Y-32379600D01*
X43575000Y-31620400D01*
X43576302Y-31593896D01*
X43580196Y-31567648D01*
X43586643Y-31541907D01*
X43595583Y-31516922D01*
X43606928Y-31492934D01*
X43620571Y-31470174D01*
X43636378Y-31448860D01*
X43654198Y-31429198D01*
X43673860Y-31411378D01*
X43695174Y-31395571D01*
X43717934Y-31381928D01*
X43741922Y-31370583D01*
X43766907Y-31361643D01*
X43792648Y-31355196D01*
X43818896Y-31351302D01*
X43845400Y-31350000D01*
X45154600Y-31350000D01*
X45181104Y-31351302D01*
X45181104Y-31351302D01*
G37*
D12*
X44500000Y-32000000D03*
D13*
X28500000Y-153774D03*
X26500000Y-153774D03*
X30500000Y-153774D03*
D14*
X20278175Y-8221825D03*
D15*
X19288226Y-7231876D02*
X21268124Y-9211774D01*
D14*
X4721825Y-23778175D03*
D15*
X3731876Y-22788226D02*
X5711774Y-24768124D01*
D14*
X50278175Y-23778175D03*
D15*
X51268124Y-22788226D02*
X49288226Y-24768124D01*
D14*
X34721825Y-8221825D03*
D15*
X35711774Y-7231876D02*
X33731876Y-9211774D01*
M02*
