G04 #@! TF.GenerationSoftware,KiCad,Pcbnew,(5.1.4)-1*
G04 #@! TF.CreationDate,2019-10-20T01:49:05+09:00*
G04 #@! TF.ProjectId,caravelle,63617261-7665-46c6-9c65-2e6b69636164,rev?*
G04 #@! TF.SameCoordinates,PX2faf080PY2faf080*
G04 #@! TF.FileFunction,Copper,L2,Bot*
G04 #@! TF.FilePolarity,Positive*
%FSLAX46Y46*%
G04 Gerber Fmt 4.6, Leading zero omitted, Abs format (unit mm)*
G04 Created by KiCad (PCBNEW (5.1.4)-1) date 2019-10-20 01:49:05*
%MOMM*%
%LPD*%
G04 APERTURE LIST*
%ADD10C,2.000000*%
%ADD11C,1.200000*%
%ADD12C,2.250000*%
%ADD13R,1.700000X1.700000*%
%ADD14O,1.700000X1.700000*%
%ADD15C,1.700000*%
%ADD16O,1.750000X1.200000*%
%ADD17C,0.100000*%
%ADD18C,0.500000*%
%ADD19C,0.900000*%
%ADD20C,0.400000*%
%ADD21C,0.200000*%
%ADD22C,0.254000*%
G04 APERTURE END LIST*
D10*
X260100000Y-75260000D03*
X17100000Y-75260000D03*
D11*
X262900000Y-67300000D03*
X264900000Y-67300000D03*
X260900000Y-67300000D03*
D12*
X164350420Y-77641147D03*
X159389353Y-72933502D03*
X245015000Y-54610000D03*
X251365000Y-52070000D03*
X46196250Y-67706875D03*
X52546250Y-65166875D03*
X43815000Y-48656875D03*
X50165000Y-46116875D03*
X5715000Y-54610000D03*
X12065000Y-52070000D03*
D13*
X21000000Y-70180000D03*
D14*
X21000000Y-72720000D03*
X21000000Y-75260000D03*
D15*
X21000000Y-77800000D03*
D16*
X263900000Y-75250000D03*
D17*
G36*
X264549865Y-76651202D02*
G01*
X264574095Y-76654796D01*
X264597855Y-76660748D01*
X264620918Y-76669000D01*
X264643061Y-76679472D01*
X264664070Y-76692065D01*
X264683745Y-76706657D01*
X264701894Y-76723106D01*
X264718343Y-76741255D01*
X264732935Y-76760930D01*
X264745528Y-76781939D01*
X264756000Y-76804082D01*
X264764252Y-76827145D01*
X264770204Y-76850905D01*
X264773798Y-76875135D01*
X264775000Y-76899600D01*
X264775000Y-77600400D01*
X264773798Y-77624865D01*
X264770204Y-77649095D01*
X264764252Y-77672855D01*
X264756000Y-77695918D01*
X264745528Y-77718061D01*
X264732935Y-77739070D01*
X264718343Y-77758745D01*
X264701894Y-77776894D01*
X264683745Y-77793343D01*
X264664070Y-77807935D01*
X264643061Y-77820528D01*
X264620918Y-77831000D01*
X264597855Y-77839252D01*
X264574095Y-77845204D01*
X264549865Y-77848798D01*
X264525400Y-77850000D01*
X263274600Y-77850000D01*
X263250135Y-77848798D01*
X263225905Y-77845204D01*
X263202145Y-77839252D01*
X263179082Y-77831000D01*
X263156939Y-77820528D01*
X263135930Y-77807935D01*
X263116255Y-77793343D01*
X263098106Y-77776894D01*
X263081657Y-77758745D01*
X263067065Y-77739070D01*
X263054472Y-77718061D01*
X263044000Y-77695918D01*
X263035748Y-77672855D01*
X263029796Y-77649095D01*
X263026202Y-77624865D01*
X263025000Y-77600400D01*
X263025000Y-76899600D01*
X263026202Y-76875135D01*
X263029796Y-76850905D01*
X263035748Y-76827145D01*
X263044000Y-76804082D01*
X263054472Y-76781939D01*
X263067065Y-76760930D01*
X263081657Y-76741255D01*
X263098106Y-76723106D01*
X263116255Y-76706657D01*
X263135930Y-76692065D01*
X263156939Y-76679472D01*
X263179082Y-76669000D01*
X263202145Y-76660748D01*
X263225905Y-76654796D01*
X263250135Y-76651202D01*
X263274600Y-76650000D01*
X264525400Y-76650000D01*
X264549865Y-76651202D01*
X264549865Y-76651202D01*
G37*
D11*
X263900000Y-77250000D03*
D16*
X13500000Y-77250000D03*
D17*
G36*
X14149865Y-74651202D02*
G01*
X14174095Y-74654796D01*
X14197855Y-74660748D01*
X14220918Y-74669000D01*
X14243061Y-74679472D01*
X14264070Y-74692065D01*
X14283745Y-74706657D01*
X14301894Y-74723106D01*
X14318343Y-74741255D01*
X14332935Y-74760930D01*
X14345528Y-74781939D01*
X14356000Y-74804082D01*
X14364252Y-74827145D01*
X14370204Y-74850905D01*
X14373798Y-74875135D01*
X14375000Y-74899600D01*
X14375000Y-75600400D01*
X14373798Y-75624865D01*
X14370204Y-75649095D01*
X14364252Y-75672855D01*
X14356000Y-75695918D01*
X14345528Y-75718061D01*
X14332935Y-75739070D01*
X14318343Y-75758745D01*
X14301894Y-75776894D01*
X14283745Y-75793343D01*
X14264070Y-75807935D01*
X14243061Y-75820528D01*
X14220918Y-75831000D01*
X14197855Y-75839252D01*
X14174095Y-75845204D01*
X14149865Y-75848798D01*
X14125400Y-75850000D01*
X12874600Y-75850000D01*
X12850135Y-75848798D01*
X12825905Y-75845204D01*
X12802145Y-75839252D01*
X12779082Y-75831000D01*
X12756939Y-75820528D01*
X12735930Y-75807935D01*
X12716255Y-75793343D01*
X12698106Y-75776894D01*
X12681657Y-75758745D01*
X12667065Y-75739070D01*
X12654472Y-75718061D01*
X12644000Y-75695918D01*
X12635748Y-75672855D01*
X12629796Y-75649095D01*
X12626202Y-75624865D01*
X12625000Y-75600400D01*
X12625000Y-74899600D01*
X12626202Y-74875135D01*
X12629796Y-74850905D01*
X12635748Y-74827145D01*
X12644000Y-74804082D01*
X12654472Y-74781939D01*
X12667065Y-74760930D01*
X12681657Y-74741255D01*
X12698106Y-74723106D01*
X12716255Y-74706657D01*
X12735930Y-74692065D01*
X12756939Y-74679472D01*
X12779082Y-74669000D01*
X12802145Y-74660748D01*
X12825905Y-74654796D01*
X12850135Y-74651202D01*
X12874600Y-74650000D01*
X14125400Y-74650000D01*
X14149865Y-74651202D01*
X14149865Y-74651202D01*
G37*
D11*
X13500000Y-75250000D03*
X12500000Y-67300000D03*
X14500000Y-67300000D03*
X10500000Y-67300000D03*
D13*
X256400000Y-70180000D03*
D14*
X256400000Y-72720000D03*
X256400000Y-75260000D03*
D15*
X256400000Y-77800000D03*
D12*
X264065000Y-54610000D03*
X270415000Y-52070000D03*
X120015000Y-42703750D03*
X126365000Y-40163750D03*
X175910664Y-73392500D03*
X181457560Y-69391745D03*
X5715000Y-16510000D03*
X12065000Y-13970000D03*
X24765000Y-16510000D03*
X31115000Y-13970000D03*
X81915000Y-11747499D03*
X88265000Y-9207499D03*
X100965000Y-14128750D03*
X107315000Y-11588750D03*
X5715000Y-35560000D03*
X12065000Y-33020000D03*
X24765000Y-35560000D03*
X31115000Y-33020000D03*
X43815000Y-29606875D03*
X50165000Y-27066875D03*
X62865000Y-26035000D03*
X69215000Y-23495000D03*
X81915000Y-30797500D03*
X88265000Y-28257500D03*
X100965000Y-33178750D03*
X107315000Y-30638750D03*
X120015000Y-23653750D03*
X126365000Y-21113750D03*
X24765000Y-54610000D03*
X31115000Y-52070000D03*
X62865000Y-45085000D03*
X69215000Y-42545000D03*
X81915000Y-49847500D03*
X88265000Y-47307500D03*
X100965000Y-52228750D03*
X107315000Y-49688750D03*
X94095682Y-71549055D03*
X100871541Y-70620708D03*
X264065000Y-16510000D03*
X270415000Y-13970000D03*
X245015000Y-16510000D03*
X251365000Y-13970000D03*
X225965000Y-10556875D03*
X232315000Y-8016875D03*
X206915000Y-6985000D03*
X213265000Y-4445000D03*
X187865000Y-11747499D03*
X194215000Y-9207499D03*
X168815000Y-14128750D03*
X175165000Y-11588750D03*
X264065000Y-35560000D03*
X270415000Y-33020000D03*
X245015000Y-35560000D03*
X251365000Y-33020000D03*
X225965000Y-29606875D03*
X232315000Y-27066875D03*
X206915000Y-26035000D03*
X213265000Y-23495000D03*
X187865000Y-30797500D03*
X194215000Y-28257500D03*
X168815000Y-33178750D03*
X175165000Y-30638750D03*
X149765000Y-23653750D03*
X156115000Y-21113750D03*
X225965000Y-48656875D03*
X232315000Y-46116875D03*
X206915000Y-45085000D03*
X213265000Y-42545000D03*
X187865000Y-49847500D03*
X194215000Y-47307500D03*
X168815000Y-52228750D03*
X175165000Y-49688750D03*
X149765000Y-42703750D03*
X156115000Y-40163750D03*
X43815000Y-10556875D03*
X50165000Y-8016875D03*
X62865000Y-6985000D03*
X69215000Y-4445000D03*
X71049207Y-68474349D03*
X77599859Y-66508884D03*
X223583750Y-67706875D03*
X229933750Y-65166875D03*
X198760959Y-69151724D03*
X204860028Y-66057301D03*
X114826499Y-79856335D03*
X115172344Y-73025925D03*
D18*
X38800000Y-74400000D03*
X25900000Y-66849996D03*
X5300000Y-65175000D03*
X39100000Y-64500000D03*
D19*
X34700000Y-63100000D03*
X255000000Y-64100000D03*
D18*
X238800000Y-78050000D03*
X238900000Y-66150000D03*
X272125000Y-65175000D03*
X251100000Y-65300000D03*
X243250000Y-73650000D03*
X242300000Y-74400000D03*
X17100000Y-72900001D03*
X244300000Y-72900000D03*
X252099976Y-72900000D03*
X258890002Y-73990000D03*
X19300000Y-67800000D03*
X28900000Y-67800010D03*
X246850000Y-67099996D03*
X258280000Y-67130000D03*
X34300000Y-67700000D03*
X242750000Y-67750000D03*
D20*
X14499960Y-67300000D02*
X18699960Y-63100000D01*
X34063604Y-63100000D02*
X34700000Y-63100000D01*
X18699960Y-63100000D02*
X34063604Y-63100000D01*
X256400000Y-77800000D02*
X256450000Y-77800000D01*
X264900000Y-69300000D02*
X264900000Y-67300000D01*
X262100000Y-72100000D02*
X264900000Y-69300000D01*
X262100000Y-76900000D02*
X262100000Y-72100000D01*
X256400000Y-77800000D02*
X261200000Y-77800000D01*
X261200000Y-77800000D02*
X262100000Y-76900000D01*
X255636396Y-64100000D02*
X255000000Y-64100000D01*
X261700032Y-64100000D02*
X255636396Y-64100000D01*
X264900000Y-67299968D02*
X261700032Y-64100000D01*
D21*
X252930000Y-73650000D02*
X256400000Y-70180000D01*
X243250000Y-73650000D02*
X252930000Y-73650000D01*
X254720000Y-74400000D02*
X256400000Y-72720000D01*
X242300000Y-74400000D02*
X254720000Y-74400000D01*
X17100000Y-75260000D02*
X17100000Y-72900001D01*
X244300000Y-72900000D02*
X252099976Y-72900000D01*
X260100000Y-75260000D02*
X258890002Y-74050002D01*
X258890002Y-74050002D02*
X258890002Y-73990000D01*
X19300000Y-67800000D02*
X28899990Y-67800000D01*
X28899990Y-67800000D02*
X28900000Y-67800010D01*
X258249996Y-67099996D02*
X258280000Y-67130000D01*
X246850000Y-67099996D02*
X258249996Y-67099996D01*
X5715000Y-16510000D02*
X24765000Y-16510000D01*
X77152501Y-6985000D02*
X81915000Y-11747499D01*
X62865000Y-6985000D02*
X77152501Y-6985000D01*
X98583749Y-11747499D02*
X100965000Y-14128750D01*
X81915000Y-11747499D02*
X98583749Y-11747499D01*
X110490000Y-14128750D02*
X120015000Y-23653750D01*
X100965000Y-14128750D02*
X110490000Y-14128750D01*
X5715000Y-35560000D02*
X24765000Y-35560000D01*
X77152500Y-26035000D02*
X81915000Y-30797500D01*
X62865000Y-26035000D02*
X77152500Y-26035000D01*
X98583750Y-30797500D02*
X100965000Y-33178750D01*
X81915000Y-30797500D02*
X98583750Y-30797500D01*
X110490000Y-33178750D02*
X120015000Y-42703750D01*
X100965000Y-33178750D02*
X110490000Y-33178750D01*
X5715000Y-54610000D02*
X24765000Y-54610000D01*
X77152500Y-45085000D02*
X81915000Y-49847500D01*
X62865000Y-45085000D02*
X77152500Y-45085000D01*
X98583750Y-49847500D02*
X100965000Y-52228750D01*
X81915000Y-49847500D02*
X98583750Y-49847500D01*
X71023556Y-68500000D02*
X71049207Y-68474349D01*
X68750000Y-68500000D02*
X71023556Y-68500000D01*
X46196250Y-67706875D02*
X67956875Y-67706875D01*
X67956875Y-67706875D02*
X68750000Y-68500000D01*
X91020976Y-68474349D02*
X94095682Y-71549055D01*
X71049207Y-68474349D02*
X91020976Y-68474349D01*
X114826499Y-79826499D02*
X114826499Y-79856335D01*
X108750000Y-73750000D02*
X114826499Y-79826499D01*
X100500000Y-73750000D02*
X108750000Y-73750000D01*
X94095682Y-71549055D02*
X98299055Y-71549055D01*
X98299055Y-71549055D02*
X100500000Y-73750000D01*
X43815000Y-65325625D02*
X46196250Y-67706875D01*
X43815000Y-48656875D02*
X43815000Y-65325625D01*
X34306875Y-67706875D02*
X34300000Y-67700000D01*
X46196250Y-67706875D02*
X34306875Y-67706875D01*
X5715000Y-16510000D02*
X5715000Y-54610000D01*
X42224010Y-10556875D02*
X43815000Y-10556875D01*
X39575126Y-10556875D02*
X42224010Y-10556875D01*
X24765000Y-16510000D02*
X33622001Y-16510000D01*
X33622001Y-16510000D02*
X39575126Y-10556875D01*
X39593125Y-29606875D02*
X43815000Y-29606875D01*
X24765000Y-35560000D02*
X33640000Y-35560000D01*
X33640000Y-35560000D02*
X39593125Y-29606875D01*
X39643125Y-48656875D02*
X43815000Y-48656875D01*
X24765000Y-54610000D02*
X33690000Y-54610000D01*
X33690000Y-54610000D02*
X39643125Y-48656875D01*
X58815000Y-45085000D02*
X62865000Y-45085000D01*
X43815000Y-48656875D02*
X55243125Y-48656875D01*
X55243125Y-48656875D02*
X58815000Y-45085000D01*
X58765000Y-26035000D02*
X62865000Y-26035000D01*
X43815000Y-29606875D02*
X55193125Y-29606875D01*
X55193125Y-29606875D02*
X58765000Y-26035000D01*
X58815000Y-6985000D02*
X62865000Y-6985000D01*
X43815000Y-10556875D02*
X55243125Y-10556875D01*
X55243125Y-10556875D02*
X58815000Y-6985000D01*
X264065000Y-16510000D02*
X245015000Y-16510000D01*
X239061875Y-10556875D02*
X225965000Y-10556875D01*
X245015000Y-16510000D02*
X239061875Y-10556875D01*
X149765000Y-23653750D02*
X157346250Y-23653750D01*
X166871250Y-14128750D02*
X168815000Y-14128750D01*
X157346250Y-23653750D02*
X166871250Y-14128750D01*
X149765000Y-42703750D02*
X157296250Y-42703750D01*
X166821250Y-33178750D02*
X168815000Y-33178750D01*
X157296250Y-42703750D02*
X166821250Y-33178750D01*
X222393125Y-26035000D02*
X225965000Y-29606875D01*
X206915000Y-26035000D02*
X222393125Y-26035000D01*
X239061875Y-29606875D02*
X245015000Y-35560000D01*
X225965000Y-29606875D02*
X239061875Y-29606875D01*
X245015000Y-35560000D02*
X264065000Y-35560000D01*
X245015000Y-54610000D02*
X264065000Y-54610000D01*
X239061875Y-48656875D02*
X245015000Y-54610000D01*
X225965000Y-48656875D02*
X239061875Y-48656875D01*
X222393125Y-45085000D02*
X225965000Y-48656875D01*
X206915000Y-45085000D02*
X222393125Y-45085000D01*
X175451666Y-72933502D02*
X175910664Y-73392500D01*
X159389353Y-72933502D02*
X175451666Y-72933502D01*
X225965000Y-65325625D02*
X223583750Y-67706875D01*
X225965000Y-48656875D02*
X225965000Y-65325625D01*
X223583750Y-67706875D02*
X242706875Y-67706875D01*
X242706875Y-67706875D02*
X242750000Y-67750000D01*
X195948276Y-69151724D02*
X198760959Y-69151724D01*
X193350000Y-71750000D02*
X195948276Y-69151724D01*
X175910664Y-73392500D02*
X177553164Y-71750000D01*
X177553164Y-71750000D02*
X193350000Y-71750000D01*
X223290625Y-68000000D02*
X223583750Y-67706875D01*
X201900000Y-68000000D02*
X223290625Y-68000000D01*
X200750000Y-69150000D02*
X201900000Y-68000000D01*
X198760959Y-69151724D02*
X198762683Y-69150000D01*
X198762683Y-69150000D02*
X200750000Y-69150000D01*
X264065000Y-16510000D02*
X264065000Y-54610000D01*
X206915000Y-6985000D02*
X222393125Y-6985000D01*
X224840001Y-9431876D02*
X225965000Y-10556875D01*
X222393125Y-6985000D02*
X224840001Y-9431876D01*
X196452500Y-49847500D02*
X187865000Y-49847500D01*
X206915000Y-45085000D02*
X201215000Y-45085000D01*
X201215000Y-45085000D02*
X196452500Y-49847500D01*
X201165000Y-26035000D02*
X206915000Y-26035000D01*
X187865000Y-30797500D02*
X196402500Y-30797500D01*
X196402500Y-30797500D02*
X201165000Y-26035000D01*
X205324010Y-6985000D02*
X206915000Y-6985000D01*
X201215000Y-6985000D02*
X205324010Y-6985000D01*
X187865000Y-11747499D02*
X196452501Y-11747499D01*
X196452501Y-11747499D02*
X201215000Y-6985000D01*
X182152500Y-49847500D02*
X187865000Y-49847500D01*
X168815000Y-52228750D02*
X179771250Y-52228750D01*
X179771250Y-52228750D02*
X182152500Y-49847500D01*
X182152500Y-30797500D02*
X187865000Y-30797500D01*
X168815000Y-33178750D02*
X179771250Y-33178750D01*
X179771250Y-33178750D02*
X182152500Y-30797500D01*
X182177501Y-11747499D02*
X187865000Y-11747499D01*
X168815000Y-14128750D02*
X179796250Y-14128750D01*
X179796250Y-14128750D02*
X182177501Y-11747499D01*
D22*
G36*
X276665001Y-67735917D02*
G01*
X276656496Y-67822660D01*
X276641746Y-67871514D01*
X276617788Y-67916573D01*
X276585534Y-67956120D01*
X276546215Y-67988647D01*
X276501329Y-68012917D01*
X276452573Y-68028009D01*
X276368235Y-68036874D01*
X273663895Y-68036874D01*
X273632496Y-68039967D01*
X273626402Y-68039924D01*
X273616188Y-68040925D01*
X273422091Y-68061326D01*
X273356843Y-68074719D01*
X273291402Y-68087203D01*
X273281577Y-68090169D01*
X273095139Y-68147881D01*
X273033720Y-68173699D01*
X272971962Y-68198651D01*
X272962901Y-68203469D01*
X272791224Y-68296294D01*
X272735977Y-68333559D01*
X272680252Y-68370024D01*
X272672299Y-68376510D01*
X272521921Y-68500914D01*
X272474944Y-68548220D01*
X272427387Y-68594791D01*
X272420845Y-68602698D01*
X272297495Y-68753940D01*
X272260608Y-68809459D01*
X272222994Y-68864394D01*
X272218112Y-68873421D01*
X272126487Y-69045743D01*
X272101086Y-69107370D01*
X272074859Y-69168563D01*
X272071824Y-69178366D01*
X272015415Y-69365202D01*
X272002467Y-69430594D01*
X271988626Y-69495710D01*
X271987553Y-69505916D01*
X271968508Y-69700150D01*
X271965000Y-69735770D01*
X271965001Y-78735918D01*
X271956496Y-78822661D01*
X271941746Y-78871515D01*
X271917788Y-78916574D01*
X271885534Y-78956121D01*
X271846215Y-78988648D01*
X271801329Y-79012918D01*
X271752573Y-79028010D01*
X271668225Y-79036876D01*
X265127000Y-79036876D01*
X265127000Y-78249481D01*
X265153079Y-78228079D01*
X265263472Y-78093564D01*
X265345502Y-77940097D01*
X265396016Y-77773576D01*
X265413072Y-77600400D01*
X265413072Y-76899600D01*
X265396016Y-76726424D01*
X265345502Y-76559903D01*
X265263472Y-76406436D01*
X265153079Y-76271921D01*
X265018564Y-76161528D01*
X265013699Y-76158927D01*
X265138078Y-76033474D01*
X265272421Y-75830533D01*
X265364591Y-75605282D01*
X265368462Y-75567609D01*
X265243731Y-75377000D01*
X264027000Y-75377000D01*
X264027000Y-75397000D01*
X263773000Y-75397000D01*
X263773000Y-75377000D01*
X263753000Y-75377000D01*
X263753000Y-75123000D01*
X263773000Y-75123000D01*
X263773000Y-74015000D01*
X264027000Y-74015000D01*
X264027000Y-75123000D01*
X265243731Y-75123000D01*
X265368462Y-74932391D01*
X265364591Y-74894718D01*
X265272421Y-74669467D01*
X265138078Y-74466526D01*
X264966725Y-74293693D01*
X264764946Y-74157610D01*
X264540496Y-74063507D01*
X264302000Y-74015000D01*
X264027000Y-74015000D01*
X263773000Y-74015000D01*
X263498000Y-74015000D01*
X263259504Y-74063507D01*
X263035054Y-74157610D01*
X262935000Y-74225088D01*
X262935000Y-72445867D01*
X265461428Y-69919440D01*
X265493291Y-69893291D01*
X265597636Y-69766146D01*
X265675172Y-69621087D01*
X265722918Y-69463689D01*
X265735000Y-69341019D01*
X265735000Y-69341018D01*
X265739040Y-69300000D01*
X265735000Y-69258982D01*
X265735000Y-68211554D01*
X265859287Y-68087267D01*
X265994443Y-67884992D01*
X266087540Y-67660236D01*
X266135000Y-67421637D01*
X266135000Y-67178363D01*
X266087540Y-66939764D01*
X265994443Y-66715008D01*
X265859287Y-66512733D01*
X265687267Y-66340713D01*
X265484992Y-66205557D01*
X265260236Y-66112460D01*
X265021637Y-66065000D01*
X264845900Y-66065000D01*
X262319478Y-63538579D01*
X262293323Y-63506709D01*
X262166178Y-63402364D01*
X262021119Y-63324828D01*
X261863721Y-63277082D01*
X261741051Y-63265000D01*
X261741050Y-63265000D01*
X261700032Y-63260960D01*
X261659014Y-63265000D01*
X255699422Y-63265000D01*
X255691647Y-63257225D01*
X255513940Y-63138485D01*
X255316483Y-63056696D01*
X255106863Y-63015000D01*
X254893137Y-63015000D01*
X254683517Y-63056696D01*
X254486060Y-63138485D01*
X254308353Y-63257225D01*
X254157225Y-63408353D01*
X254038485Y-63586060D01*
X253956696Y-63783517D01*
X253915000Y-63993137D01*
X253915000Y-64206863D01*
X253956696Y-64416483D01*
X254038485Y-64613940D01*
X254157225Y-64791647D01*
X254308353Y-64942775D01*
X254486060Y-65061515D01*
X254683517Y-65143304D01*
X254893137Y-65185000D01*
X255106863Y-65185000D01*
X255316483Y-65143304D01*
X255513940Y-65061515D01*
X255691647Y-64942775D01*
X255699422Y-64935000D01*
X261354165Y-64935000D01*
X262534009Y-66114844D01*
X262315008Y-66205557D01*
X262112733Y-66340713D01*
X261940713Y-66512733D01*
X261900000Y-66573664D01*
X261859287Y-66512733D01*
X261687267Y-66340713D01*
X261484992Y-66205557D01*
X261260236Y-66112460D01*
X261021637Y-66065000D01*
X260778363Y-66065000D01*
X260539764Y-66112460D01*
X260315008Y-66205557D01*
X260112733Y-66340713D01*
X259940713Y-66512733D01*
X259805557Y-66715008D01*
X259712460Y-66939764D01*
X259665000Y-67178363D01*
X259665000Y-67421637D01*
X259712460Y-67660236D01*
X259805557Y-67884992D01*
X259940713Y-68087267D01*
X260112733Y-68259287D01*
X260315008Y-68394443D01*
X260539764Y-68487540D01*
X260778363Y-68535000D01*
X261021637Y-68535000D01*
X261260236Y-68487540D01*
X261484992Y-68394443D01*
X261687267Y-68259287D01*
X261859287Y-68087267D01*
X261900000Y-68026336D01*
X261940713Y-68087267D01*
X262112733Y-68259287D01*
X262315008Y-68394443D01*
X262539764Y-68487540D01*
X262778363Y-68535000D01*
X263021637Y-68535000D01*
X263260236Y-68487540D01*
X263484992Y-68394443D01*
X263687267Y-68259287D01*
X263859287Y-68087267D01*
X263900000Y-68026336D01*
X263940713Y-68087267D01*
X264065001Y-68211555D01*
X264065000Y-68954132D01*
X261538574Y-71480559D01*
X261506710Y-71506709D01*
X261480562Y-71538571D01*
X261402364Y-71633855D01*
X261324828Y-71778914D01*
X261277082Y-71936312D01*
X261260960Y-72100000D01*
X261265001Y-72141028D01*
X261265001Y-74112762D01*
X261142252Y-73990013D01*
X260874463Y-73811082D01*
X260576912Y-73687832D01*
X260261033Y-73625000D01*
X259938967Y-73625000D01*
X259715170Y-73669516D01*
X259674279Y-73570795D01*
X259577426Y-73425845D01*
X259454157Y-73302576D01*
X259309207Y-73205723D01*
X259148147Y-73139010D01*
X258977167Y-73105000D01*
X258802837Y-73105000D01*
X258631857Y-73139010D01*
X258470797Y-73205723D01*
X258325847Y-73302576D01*
X258202578Y-73425845D01*
X258105725Y-73570795D01*
X258039012Y-73731855D01*
X258005002Y-73902835D01*
X258005002Y-74077165D01*
X258039012Y-74248145D01*
X258105725Y-74409205D01*
X258202578Y-74554155D01*
X258325847Y-74677424D01*
X258470797Y-74774277D01*
X258525110Y-74796774D01*
X258465000Y-75098967D01*
X258465000Y-75421033D01*
X258527832Y-75736912D01*
X258651082Y-76034463D01*
X258830013Y-76302252D01*
X259057748Y-76529987D01*
X259325537Y-76708918D01*
X259623088Y-76832168D01*
X259938967Y-76895000D01*
X260261033Y-76895000D01*
X260576912Y-76832168D01*
X260874463Y-76708918D01*
X261142252Y-76529987D01*
X261265000Y-76407239D01*
X261265000Y-76554132D01*
X260854133Y-76965000D01*
X257628065Y-76965000D01*
X257553475Y-76853368D01*
X257346632Y-76646525D01*
X257164466Y-76524805D01*
X257281355Y-76455178D01*
X257497588Y-76260269D01*
X257671641Y-76026920D01*
X257796825Y-75764099D01*
X257841476Y-75616890D01*
X257720155Y-75387000D01*
X256527000Y-75387000D01*
X256527000Y-75407000D01*
X256273000Y-75407000D01*
X256273000Y-75387000D01*
X256253000Y-75387000D01*
X256253000Y-75133000D01*
X256273000Y-75133000D01*
X256273000Y-75113000D01*
X256527000Y-75113000D01*
X256527000Y-75133000D01*
X257720155Y-75133000D01*
X257841476Y-74903110D01*
X257796825Y-74755901D01*
X257671641Y-74493080D01*
X257497588Y-74259731D01*
X257281355Y-74064822D01*
X257164477Y-73995201D01*
X257229014Y-73960706D01*
X257455134Y-73775134D01*
X257640706Y-73549014D01*
X257778599Y-73291034D01*
X257863513Y-73011111D01*
X257892185Y-72720000D01*
X257863513Y-72428889D01*
X257778599Y-72148966D01*
X257640706Y-71890986D01*
X257455134Y-71664866D01*
X257425313Y-71640393D01*
X257494180Y-71619502D01*
X257604494Y-71560537D01*
X257701185Y-71481185D01*
X257780537Y-71384494D01*
X257839502Y-71274180D01*
X257875812Y-71154482D01*
X257888072Y-71030000D01*
X257888072Y-69330000D01*
X257875812Y-69205518D01*
X257839502Y-69085820D01*
X257780537Y-68975506D01*
X257701185Y-68878815D01*
X257604494Y-68799463D01*
X257494180Y-68740498D01*
X257374482Y-68704188D01*
X257250000Y-68691928D01*
X255550000Y-68691928D01*
X255425518Y-68704188D01*
X255305820Y-68740498D01*
X255195506Y-68799463D01*
X255098815Y-68878815D01*
X255019463Y-68975506D01*
X254960498Y-69085820D01*
X254924188Y-69205518D01*
X254911928Y-69330000D01*
X254911928Y-70628625D01*
X252935657Y-72604897D01*
X252884253Y-72480795D01*
X252787400Y-72335845D01*
X252664131Y-72212576D01*
X252519181Y-72115723D01*
X252358121Y-72049010D01*
X252187141Y-72015000D01*
X252012811Y-72015000D01*
X251841831Y-72049010D01*
X251680771Y-72115723D01*
X251607023Y-72165000D01*
X244792953Y-72165000D01*
X244719205Y-72115723D01*
X244558145Y-72049010D01*
X244387165Y-72015000D01*
X244212835Y-72015000D01*
X244041855Y-72049010D01*
X243880795Y-72115723D01*
X243735845Y-72212576D01*
X243612576Y-72335845D01*
X243515723Y-72480795D01*
X243449010Y-72641855D01*
X243421190Y-72781714D01*
X243337165Y-72765000D01*
X243162835Y-72765000D01*
X242991855Y-72799010D01*
X242830795Y-72865723D01*
X242685845Y-72962576D01*
X242562576Y-73085845D01*
X242465723Y-73230795D01*
X242399010Y-73391855D01*
X242374515Y-73515000D01*
X242212835Y-73515000D01*
X242041855Y-73549010D01*
X241880795Y-73615723D01*
X241735845Y-73712576D01*
X241612576Y-73835845D01*
X241515723Y-73980795D01*
X241449010Y-74141855D01*
X241415000Y-74312835D01*
X241415000Y-74487165D01*
X241449010Y-74658145D01*
X241515723Y-74819205D01*
X241516251Y-74819995D01*
X241298242Y-74823012D01*
X241275224Y-74825440D01*
X241251399Y-74832667D01*
X241229443Y-74844403D01*
X241210197Y-74860197D01*
X241194403Y-74879443D01*
X241182667Y-74901399D01*
X241175440Y-74925224D01*
X241173000Y-74950000D01*
X241173000Y-79036875D01*
X237627000Y-79036875D01*
X237627000Y-68441875D01*
X242192506Y-68441875D01*
X242330795Y-68534277D01*
X242491855Y-68600990D01*
X242662835Y-68635000D01*
X242837165Y-68635000D01*
X243008145Y-68600990D01*
X243169205Y-68534277D01*
X243314155Y-68437424D01*
X243437424Y-68314155D01*
X243534277Y-68169205D01*
X243600990Y-68008145D01*
X243635000Y-67837165D01*
X243635000Y-67662835D01*
X243600990Y-67491855D01*
X243534277Y-67330795D01*
X243437424Y-67185845D01*
X243314155Y-67062576D01*
X243239707Y-67012831D01*
X245965000Y-67012831D01*
X245965000Y-67187161D01*
X245999010Y-67358141D01*
X246065723Y-67519201D01*
X246162576Y-67664151D01*
X246285845Y-67787420D01*
X246430795Y-67884273D01*
X246591855Y-67950986D01*
X246762835Y-67984996D01*
X246937165Y-67984996D01*
X247108145Y-67950986D01*
X247269205Y-67884273D01*
X247342953Y-67834996D01*
X257742143Y-67834996D01*
X257860795Y-67914277D01*
X258021855Y-67980990D01*
X258192835Y-68015000D01*
X258367165Y-68015000D01*
X258538145Y-67980990D01*
X258699205Y-67914277D01*
X258844155Y-67817424D01*
X258967424Y-67694155D01*
X259064277Y-67549205D01*
X259130990Y-67388145D01*
X259165000Y-67217165D01*
X259165000Y-67042835D01*
X259130990Y-66871855D01*
X259064277Y-66710795D01*
X258967424Y-66565845D01*
X258844155Y-66442576D01*
X258699205Y-66345723D01*
X258538145Y-66279010D01*
X258367165Y-66245000D01*
X258192835Y-66245000D01*
X258021855Y-66279010D01*
X257860795Y-66345723D01*
X257831951Y-66364996D01*
X247342953Y-66364996D01*
X247269205Y-66315719D01*
X247108145Y-66249006D01*
X246937165Y-66214996D01*
X246762835Y-66214996D01*
X246591855Y-66249006D01*
X246430795Y-66315719D01*
X246285845Y-66412572D01*
X246162576Y-66535841D01*
X246065723Y-66680791D01*
X245999010Y-66841851D01*
X245965000Y-67012831D01*
X243239707Y-67012831D01*
X243169205Y-66965723D01*
X243008145Y-66899010D01*
X242837165Y-66865000D01*
X242662835Y-66865000D01*
X242491855Y-66899010D01*
X242330795Y-66965723D01*
X242321588Y-66971875D01*
X237627000Y-66971875D01*
X237627000Y-61627000D01*
X276665001Y-61627000D01*
X276665001Y-67735917D01*
X276665001Y-67735917D01*
G37*
X276665001Y-67735917D02*
X276656496Y-67822660D01*
X276641746Y-67871514D01*
X276617788Y-67916573D01*
X276585534Y-67956120D01*
X276546215Y-67988647D01*
X276501329Y-68012917D01*
X276452573Y-68028009D01*
X276368235Y-68036874D01*
X273663895Y-68036874D01*
X273632496Y-68039967D01*
X273626402Y-68039924D01*
X273616188Y-68040925D01*
X273422091Y-68061326D01*
X273356843Y-68074719D01*
X273291402Y-68087203D01*
X273281577Y-68090169D01*
X273095139Y-68147881D01*
X273033720Y-68173699D01*
X272971962Y-68198651D01*
X272962901Y-68203469D01*
X272791224Y-68296294D01*
X272735977Y-68333559D01*
X272680252Y-68370024D01*
X272672299Y-68376510D01*
X272521921Y-68500914D01*
X272474944Y-68548220D01*
X272427387Y-68594791D01*
X272420845Y-68602698D01*
X272297495Y-68753940D01*
X272260608Y-68809459D01*
X272222994Y-68864394D01*
X272218112Y-68873421D01*
X272126487Y-69045743D01*
X272101086Y-69107370D01*
X272074859Y-69168563D01*
X272071824Y-69178366D01*
X272015415Y-69365202D01*
X272002467Y-69430594D01*
X271988626Y-69495710D01*
X271987553Y-69505916D01*
X271968508Y-69700150D01*
X271965000Y-69735770D01*
X271965001Y-78735918D01*
X271956496Y-78822661D01*
X271941746Y-78871515D01*
X271917788Y-78916574D01*
X271885534Y-78956121D01*
X271846215Y-78988648D01*
X271801329Y-79012918D01*
X271752573Y-79028010D01*
X271668225Y-79036876D01*
X265127000Y-79036876D01*
X265127000Y-78249481D01*
X265153079Y-78228079D01*
X265263472Y-78093564D01*
X265345502Y-77940097D01*
X265396016Y-77773576D01*
X265413072Y-77600400D01*
X265413072Y-76899600D01*
X265396016Y-76726424D01*
X265345502Y-76559903D01*
X265263472Y-76406436D01*
X265153079Y-76271921D01*
X265018564Y-76161528D01*
X265013699Y-76158927D01*
X265138078Y-76033474D01*
X265272421Y-75830533D01*
X265364591Y-75605282D01*
X265368462Y-75567609D01*
X265243731Y-75377000D01*
X264027000Y-75377000D01*
X264027000Y-75397000D01*
X263773000Y-75397000D01*
X263773000Y-75377000D01*
X263753000Y-75377000D01*
X263753000Y-75123000D01*
X263773000Y-75123000D01*
X263773000Y-74015000D01*
X264027000Y-74015000D01*
X264027000Y-75123000D01*
X265243731Y-75123000D01*
X265368462Y-74932391D01*
X265364591Y-74894718D01*
X265272421Y-74669467D01*
X265138078Y-74466526D01*
X264966725Y-74293693D01*
X264764946Y-74157610D01*
X264540496Y-74063507D01*
X264302000Y-74015000D01*
X264027000Y-74015000D01*
X263773000Y-74015000D01*
X263498000Y-74015000D01*
X263259504Y-74063507D01*
X263035054Y-74157610D01*
X262935000Y-74225088D01*
X262935000Y-72445867D01*
X265461428Y-69919440D01*
X265493291Y-69893291D01*
X265597636Y-69766146D01*
X265675172Y-69621087D01*
X265722918Y-69463689D01*
X265735000Y-69341019D01*
X265735000Y-69341018D01*
X265739040Y-69300000D01*
X265735000Y-69258982D01*
X265735000Y-68211554D01*
X265859287Y-68087267D01*
X265994443Y-67884992D01*
X266087540Y-67660236D01*
X266135000Y-67421637D01*
X266135000Y-67178363D01*
X266087540Y-66939764D01*
X265994443Y-66715008D01*
X265859287Y-66512733D01*
X265687267Y-66340713D01*
X265484992Y-66205557D01*
X265260236Y-66112460D01*
X265021637Y-66065000D01*
X264845900Y-66065000D01*
X262319478Y-63538579D01*
X262293323Y-63506709D01*
X262166178Y-63402364D01*
X262021119Y-63324828D01*
X261863721Y-63277082D01*
X261741051Y-63265000D01*
X261741050Y-63265000D01*
X261700032Y-63260960D01*
X261659014Y-63265000D01*
X255699422Y-63265000D01*
X255691647Y-63257225D01*
X255513940Y-63138485D01*
X255316483Y-63056696D01*
X255106863Y-63015000D01*
X254893137Y-63015000D01*
X254683517Y-63056696D01*
X254486060Y-63138485D01*
X254308353Y-63257225D01*
X254157225Y-63408353D01*
X254038485Y-63586060D01*
X253956696Y-63783517D01*
X253915000Y-63993137D01*
X253915000Y-64206863D01*
X253956696Y-64416483D01*
X254038485Y-64613940D01*
X254157225Y-64791647D01*
X254308353Y-64942775D01*
X254486060Y-65061515D01*
X254683517Y-65143304D01*
X254893137Y-65185000D01*
X255106863Y-65185000D01*
X255316483Y-65143304D01*
X255513940Y-65061515D01*
X255691647Y-64942775D01*
X255699422Y-64935000D01*
X261354165Y-64935000D01*
X262534009Y-66114844D01*
X262315008Y-66205557D01*
X262112733Y-66340713D01*
X261940713Y-66512733D01*
X261900000Y-66573664D01*
X261859287Y-66512733D01*
X261687267Y-66340713D01*
X261484992Y-66205557D01*
X261260236Y-66112460D01*
X261021637Y-66065000D01*
X260778363Y-66065000D01*
X260539764Y-66112460D01*
X260315008Y-66205557D01*
X260112733Y-66340713D01*
X259940713Y-66512733D01*
X259805557Y-66715008D01*
X259712460Y-66939764D01*
X259665000Y-67178363D01*
X259665000Y-67421637D01*
X259712460Y-67660236D01*
X259805557Y-67884992D01*
X259940713Y-68087267D01*
X260112733Y-68259287D01*
X260315008Y-68394443D01*
X260539764Y-68487540D01*
X260778363Y-68535000D01*
X261021637Y-68535000D01*
X261260236Y-68487540D01*
X261484992Y-68394443D01*
X261687267Y-68259287D01*
X261859287Y-68087267D01*
X261900000Y-68026336D01*
X261940713Y-68087267D01*
X262112733Y-68259287D01*
X262315008Y-68394443D01*
X262539764Y-68487540D01*
X262778363Y-68535000D01*
X263021637Y-68535000D01*
X263260236Y-68487540D01*
X263484992Y-68394443D01*
X263687267Y-68259287D01*
X263859287Y-68087267D01*
X263900000Y-68026336D01*
X263940713Y-68087267D01*
X264065001Y-68211555D01*
X264065000Y-68954132D01*
X261538574Y-71480559D01*
X261506710Y-71506709D01*
X261480562Y-71538571D01*
X261402364Y-71633855D01*
X261324828Y-71778914D01*
X261277082Y-71936312D01*
X261260960Y-72100000D01*
X261265001Y-72141028D01*
X261265001Y-74112762D01*
X261142252Y-73990013D01*
X260874463Y-73811082D01*
X260576912Y-73687832D01*
X260261033Y-73625000D01*
X259938967Y-73625000D01*
X259715170Y-73669516D01*
X259674279Y-73570795D01*
X259577426Y-73425845D01*
X259454157Y-73302576D01*
X259309207Y-73205723D01*
X259148147Y-73139010D01*
X258977167Y-73105000D01*
X258802837Y-73105000D01*
X258631857Y-73139010D01*
X258470797Y-73205723D01*
X258325847Y-73302576D01*
X258202578Y-73425845D01*
X258105725Y-73570795D01*
X258039012Y-73731855D01*
X258005002Y-73902835D01*
X258005002Y-74077165D01*
X258039012Y-74248145D01*
X258105725Y-74409205D01*
X258202578Y-74554155D01*
X258325847Y-74677424D01*
X258470797Y-74774277D01*
X258525110Y-74796774D01*
X258465000Y-75098967D01*
X258465000Y-75421033D01*
X258527832Y-75736912D01*
X258651082Y-76034463D01*
X258830013Y-76302252D01*
X259057748Y-76529987D01*
X259325537Y-76708918D01*
X259623088Y-76832168D01*
X259938967Y-76895000D01*
X260261033Y-76895000D01*
X260576912Y-76832168D01*
X260874463Y-76708918D01*
X261142252Y-76529987D01*
X261265000Y-76407239D01*
X261265000Y-76554132D01*
X260854133Y-76965000D01*
X257628065Y-76965000D01*
X257553475Y-76853368D01*
X257346632Y-76646525D01*
X257164466Y-76524805D01*
X257281355Y-76455178D01*
X257497588Y-76260269D01*
X257671641Y-76026920D01*
X257796825Y-75764099D01*
X257841476Y-75616890D01*
X257720155Y-75387000D01*
X256527000Y-75387000D01*
X256527000Y-75407000D01*
X256273000Y-75407000D01*
X256273000Y-75387000D01*
X256253000Y-75387000D01*
X256253000Y-75133000D01*
X256273000Y-75133000D01*
X256273000Y-75113000D01*
X256527000Y-75113000D01*
X256527000Y-75133000D01*
X257720155Y-75133000D01*
X257841476Y-74903110D01*
X257796825Y-74755901D01*
X257671641Y-74493080D01*
X257497588Y-74259731D01*
X257281355Y-74064822D01*
X257164477Y-73995201D01*
X257229014Y-73960706D01*
X257455134Y-73775134D01*
X257640706Y-73549014D01*
X257778599Y-73291034D01*
X257863513Y-73011111D01*
X257892185Y-72720000D01*
X257863513Y-72428889D01*
X257778599Y-72148966D01*
X257640706Y-71890986D01*
X257455134Y-71664866D01*
X257425313Y-71640393D01*
X257494180Y-71619502D01*
X257604494Y-71560537D01*
X257701185Y-71481185D01*
X257780537Y-71384494D01*
X257839502Y-71274180D01*
X257875812Y-71154482D01*
X257888072Y-71030000D01*
X257888072Y-69330000D01*
X257875812Y-69205518D01*
X257839502Y-69085820D01*
X257780537Y-68975506D01*
X257701185Y-68878815D01*
X257604494Y-68799463D01*
X257494180Y-68740498D01*
X257374482Y-68704188D01*
X257250000Y-68691928D01*
X255550000Y-68691928D01*
X255425518Y-68704188D01*
X255305820Y-68740498D01*
X255195506Y-68799463D01*
X255098815Y-68878815D01*
X255019463Y-68975506D01*
X254960498Y-69085820D01*
X254924188Y-69205518D01*
X254911928Y-69330000D01*
X254911928Y-70628625D01*
X252935657Y-72604897D01*
X252884253Y-72480795D01*
X252787400Y-72335845D01*
X252664131Y-72212576D01*
X252519181Y-72115723D01*
X252358121Y-72049010D01*
X252187141Y-72015000D01*
X252012811Y-72015000D01*
X251841831Y-72049010D01*
X251680771Y-72115723D01*
X251607023Y-72165000D01*
X244792953Y-72165000D01*
X244719205Y-72115723D01*
X244558145Y-72049010D01*
X244387165Y-72015000D01*
X244212835Y-72015000D01*
X244041855Y-72049010D01*
X243880795Y-72115723D01*
X243735845Y-72212576D01*
X243612576Y-72335845D01*
X243515723Y-72480795D01*
X243449010Y-72641855D01*
X243421190Y-72781714D01*
X243337165Y-72765000D01*
X243162835Y-72765000D01*
X242991855Y-72799010D01*
X242830795Y-72865723D01*
X242685845Y-72962576D01*
X242562576Y-73085845D01*
X242465723Y-73230795D01*
X242399010Y-73391855D01*
X242374515Y-73515000D01*
X242212835Y-73515000D01*
X242041855Y-73549010D01*
X241880795Y-73615723D01*
X241735845Y-73712576D01*
X241612576Y-73835845D01*
X241515723Y-73980795D01*
X241449010Y-74141855D01*
X241415000Y-74312835D01*
X241415000Y-74487165D01*
X241449010Y-74658145D01*
X241515723Y-74819205D01*
X241516251Y-74819995D01*
X241298242Y-74823012D01*
X241275224Y-74825440D01*
X241251399Y-74832667D01*
X241229443Y-74844403D01*
X241210197Y-74860197D01*
X241194403Y-74879443D01*
X241182667Y-74901399D01*
X241175440Y-74925224D01*
X241173000Y-74950000D01*
X241173000Y-79036875D01*
X237627000Y-79036875D01*
X237627000Y-68441875D01*
X242192506Y-68441875D01*
X242330795Y-68534277D01*
X242491855Y-68600990D01*
X242662835Y-68635000D01*
X242837165Y-68635000D01*
X243008145Y-68600990D01*
X243169205Y-68534277D01*
X243314155Y-68437424D01*
X243437424Y-68314155D01*
X243534277Y-68169205D01*
X243600990Y-68008145D01*
X243635000Y-67837165D01*
X243635000Y-67662835D01*
X243600990Y-67491855D01*
X243534277Y-67330795D01*
X243437424Y-67185845D01*
X243314155Y-67062576D01*
X243239707Y-67012831D01*
X245965000Y-67012831D01*
X245965000Y-67187161D01*
X245999010Y-67358141D01*
X246065723Y-67519201D01*
X246162576Y-67664151D01*
X246285845Y-67787420D01*
X246430795Y-67884273D01*
X246591855Y-67950986D01*
X246762835Y-67984996D01*
X246937165Y-67984996D01*
X247108145Y-67950986D01*
X247269205Y-67884273D01*
X247342953Y-67834996D01*
X257742143Y-67834996D01*
X257860795Y-67914277D01*
X258021855Y-67980990D01*
X258192835Y-68015000D01*
X258367165Y-68015000D01*
X258538145Y-67980990D01*
X258699205Y-67914277D01*
X258844155Y-67817424D01*
X258967424Y-67694155D01*
X259064277Y-67549205D01*
X259130990Y-67388145D01*
X259165000Y-67217165D01*
X259165000Y-67042835D01*
X259130990Y-66871855D01*
X259064277Y-66710795D01*
X258967424Y-66565845D01*
X258844155Y-66442576D01*
X258699205Y-66345723D01*
X258538145Y-66279010D01*
X258367165Y-66245000D01*
X258192835Y-66245000D01*
X258021855Y-66279010D01*
X257860795Y-66345723D01*
X257831951Y-66364996D01*
X247342953Y-66364996D01*
X247269205Y-66315719D01*
X247108145Y-66249006D01*
X246937165Y-66214996D01*
X246762835Y-66214996D01*
X246591855Y-66249006D01*
X246430795Y-66315719D01*
X246285845Y-66412572D01*
X246162576Y-66535841D01*
X246065723Y-66680791D01*
X245999010Y-66841851D01*
X245965000Y-67012831D01*
X243239707Y-67012831D01*
X243169205Y-66965723D01*
X243008145Y-66899010D01*
X242837165Y-66865000D01*
X242662835Y-66865000D01*
X242491855Y-66899010D01*
X242330795Y-66965723D01*
X242321588Y-66971875D01*
X237627000Y-66971875D01*
X237627000Y-61627000D01*
X276665001Y-61627000D01*
X276665001Y-67735917D01*
G36*
X39873000Y-66971875D02*
G01*
X34803242Y-66971875D01*
X34719205Y-66915723D01*
X34558145Y-66849010D01*
X34387165Y-66815000D01*
X34212835Y-66815000D01*
X34041855Y-66849010D01*
X33880795Y-66915723D01*
X33735845Y-67012576D01*
X33612576Y-67135845D01*
X33515723Y-67280795D01*
X33449010Y-67441855D01*
X33415000Y-67612835D01*
X33415000Y-67787165D01*
X33449010Y-67958145D01*
X33515723Y-68119205D01*
X33612576Y-68264155D01*
X33735845Y-68387424D01*
X33880795Y-68484277D01*
X34041855Y-68550990D01*
X34212835Y-68585000D01*
X34387165Y-68585000D01*
X34558145Y-68550990D01*
X34719205Y-68484277D01*
X34782664Y-68441875D01*
X39873000Y-68441875D01*
X39873000Y-74673000D01*
X27000000Y-74673000D01*
X26975224Y-74675440D01*
X26951399Y-74682667D01*
X26929443Y-74694403D01*
X26910197Y-74710197D01*
X26894403Y-74729443D01*
X26882667Y-74751399D01*
X26875440Y-74775224D01*
X26873000Y-74800000D01*
X26873000Y-79036875D01*
X21821814Y-79036875D01*
X21946632Y-78953475D01*
X22153475Y-78746632D01*
X22315990Y-78503411D01*
X22427932Y-78233158D01*
X22485000Y-77946260D01*
X22485000Y-77653740D01*
X22427932Y-77366842D01*
X22315990Y-77096589D01*
X22153475Y-76853368D01*
X21946632Y-76646525D01*
X21764466Y-76524805D01*
X21881355Y-76455178D01*
X22097588Y-76260269D01*
X22271641Y-76026920D01*
X22396825Y-75764099D01*
X22441476Y-75616890D01*
X22320155Y-75387000D01*
X21127000Y-75387000D01*
X21127000Y-75407000D01*
X20873000Y-75407000D01*
X20873000Y-75387000D01*
X19679845Y-75387000D01*
X19558524Y-75616890D01*
X19603175Y-75764099D01*
X19728359Y-76026920D01*
X19902412Y-76260269D01*
X20118645Y-76455178D01*
X20235534Y-76524805D01*
X20053368Y-76646525D01*
X19846525Y-76853368D01*
X19684010Y-77096589D01*
X19572068Y-77366842D01*
X19515000Y-77653740D01*
X19515000Y-77946260D01*
X19572068Y-78233158D01*
X19684010Y-78503411D01*
X19846525Y-78746632D01*
X20053368Y-78953475D01*
X20178186Y-79036875D01*
X5735956Y-79036876D01*
X5649213Y-79028371D01*
X5600359Y-79013621D01*
X5555300Y-78989663D01*
X5515753Y-78957409D01*
X5483226Y-78918090D01*
X5458956Y-78873204D01*
X5443864Y-78824448D01*
X5434998Y-78740101D01*
X5434998Y-77567609D01*
X12031538Y-77567609D01*
X12035409Y-77605282D01*
X12127579Y-77830533D01*
X12261922Y-78033474D01*
X12433275Y-78206307D01*
X12635054Y-78342390D01*
X12859504Y-78436493D01*
X13098000Y-78485000D01*
X13373000Y-78485000D01*
X13373000Y-77377000D01*
X13627000Y-77377000D01*
X13627000Y-78485000D01*
X13902000Y-78485000D01*
X14140496Y-78436493D01*
X14364946Y-78342390D01*
X14566725Y-78206307D01*
X14738078Y-78033474D01*
X14872421Y-77830533D01*
X14964591Y-77605282D01*
X14968462Y-77567609D01*
X14843731Y-77377000D01*
X13627000Y-77377000D01*
X13373000Y-77377000D01*
X12156269Y-77377000D01*
X12031538Y-77567609D01*
X5434998Y-77567609D01*
X5434998Y-74899600D01*
X11986928Y-74899600D01*
X11986928Y-75600400D01*
X12003984Y-75773576D01*
X12054498Y-75940097D01*
X12136528Y-76093564D01*
X12246921Y-76228079D01*
X12381436Y-76338472D01*
X12386301Y-76341073D01*
X12261922Y-76466526D01*
X12127579Y-76669467D01*
X12035409Y-76894718D01*
X12031538Y-76932391D01*
X12156269Y-77123000D01*
X13373000Y-77123000D01*
X13373000Y-77103000D01*
X13627000Y-77103000D01*
X13627000Y-77123000D01*
X14843731Y-77123000D01*
X14968462Y-76932391D01*
X14964591Y-76894718D01*
X14872421Y-76669467D01*
X14738078Y-76466526D01*
X14613699Y-76341073D01*
X14618564Y-76338472D01*
X14753079Y-76228079D01*
X14863472Y-76093564D01*
X14945502Y-75940097D01*
X14996016Y-75773576D01*
X15013072Y-75600400D01*
X15013072Y-75098967D01*
X15465000Y-75098967D01*
X15465000Y-75421033D01*
X15527832Y-75736912D01*
X15651082Y-76034463D01*
X15830013Y-76302252D01*
X16057748Y-76529987D01*
X16325537Y-76708918D01*
X16623088Y-76832168D01*
X16938967Y-76895000D01*
X17261033Y-76895000D01*
X17576912Y-76832168D01*
X17874463Y-76708918D01*
X18142252Y-76529987D01*
X18369987Y-76302252D01*
X18548918Y-76034463D01*
X18672168Y-75736912D01*
X18735000Y-75421033D01*
X18735000Y-75098967D01*
X18672168Y-74783088D01*
X18548918Y-74485537D01*
X18369987Y-74217748D01*
X18142252Y-73990013D01*
X17874463Y-73811082D01*
X17835000Y-73794736D01*
X17835000Y-73392954D01*
X17884277Y-73319206D01*
X17950990Y-73158146D01*
X17985000Y-72987166D01*
X17985000Y-72812836D01*
X17966534Y-72720000D01*
X19507815Y-72720000D01*
X19536487Y-73011111D01*
X19621401Y-73291034D01*
X19759294Y-73549014D01*
X19944866Y-73775134D01*
X20170986Y-73960706D01*
X20235523Y-73995201D01*
X20118645Y-74064822D01*
X19902412Y-74259731D01*
X19728359Y-74493080D01*
X19603175Y-74755901D01*
X19558524Y-74903110D01*
X19679845Y-75133000D01*
X20873000Y-75133000D01*
X20873000Y-75113000D01*
X21127000Y-75113000D01*
X21127000Y-75133000D01*
X22320155Y-75133000D01*
X22441476Y-74903110D01*
X22396825Y-74755901D01*
X22271641Y-74493080D01*
X22097588Y-74259731D01*
X21881355Y-74064822D01*
X21764477Y-73995201D01*
X21829014Y-73960706D01*
X22055134Y-73775134D01*
X22240706Y-73549014D01*
X22378599Y-73291034D01*
X22463513Y-73011111D01*
X22492185Y-72720000D01*
X22463513Y-72428889D01*
X22378599Y-72148966D01*
X22240706Y-71890986D01*
X22055134Y-71664866D01*
X22025313Y-71640393D01*
X22094180Y-71619502D01*
X22204494Y-71560537D01*
X22301185Y-71481185D01*
X22380537Y-71384494D01*
X22439502Y-71274180D01*
X22475812Y-71154482D01*
X22488072Y-71030000D01*
X22488072Y-69330000D01*
X22475812Y-69205518D01*
X22439502Y-69085820D01*
X22380537Y-68975506D01*
X22301185Y-68878815D01*
X22204494Y-68799463D01*
X22094180Y-68740498D01*
X21974482Y-68704188D01*
X21850000Y-68691928D01*
X20150000Y-68691928D01*
X20025518Y-68704188D01*
X19905820Y-68740498D01*
X19795506Y-68799463D01*
X19698815Y-68878815D01*
X19619463Y-68975506D01*
X19560498Y-69085820D01*
X19524188Y-69205518D01*
X19511928Y-69330000D01*
X19511928Y-71030000D01*
X19524188Y-71154482D01*
X19560498Y-71274180D01*
X19619463Y-71384494D01*
X19698815Y-71481185D01*
X19795506Y-71560537D01*
X19905820Y-71619502D01*
X19974687Y-71640393D01*
X19944866Y-71664866D01*
X19759294Y-71890986D01*
X19621401Y-72148966D01*
X19536487Y-72428889D01*
X19507815Y-72720000D01*
X17966534Y-72720000D01*
X17950990Y-72641856D01*
X17884277Y-72480796D01*
X17787424Y-72335846D01*
X17664155Y-72212577D01*
X17519205Y-72115724D01*
X17358145Y-72049011D01*
X17187165Y-72015001D01*
X17012835Y-72015001D01*
X16841855Y-72049011D01*
X16680795Y-72115724D01*
X16535845Y-72212577D01*
X16412576Y-72335846D01*
X16315723Y-72480796D01*
X16249010Y-72641856D01*
X16215000Y-72812836D01*
X16215000Y-72987166D01*
X16249010Y-73158146D01*
X16315723Y-73319206D01*
X16365001Y-73392955D01*
X16365001Y-73794736D01*
X16325537Y-73811082D01*
X16057748Y-73990013D01*
X15830013Y-74217748D01*
X15651082Y-74485537D01*
X15527832Y-74783088D01*
X15465000Y-75098967D01*
X15013072Y-75098967D01*
X15013072Y-74899600D01*
X14996016Y-74726424D01*
X14945502Y-74559903D01*
X14863472Y-74406436D01*
X14753079Y-74271921D01*
X14618564Y-74161528D01*
X14465097Y-74079498D01*
X14298576Y-74028984D01*
X14125400Y-74011928D01*
X12874600Y-74011928D01*
X12701424Y-74028984D01*
X12534903Y-74079498D01*
X12381436Y-74161528D01*
X12246921Y-74271921D01*
X12136528Y-74406436D01*
X12054498Y-74559903D01*
X12003984Y-74726424D01*
X11986928Y-74899600D01*
X5434998Y-74899600D01*
X5435000Y-69735770D01*
X5431907Y-69704371D01*
X5431950Y-69698276D01*
X5430949Y-69688062D01*
X5410548Y-69493965D01*
X5397155Y-69428717D01*
X5384671Y-69363276D01*
X5381705Y-69353451D01*
X5323993Y-69167013D01*
X5298175Y-69105594D01*
X5273223Y-69043836D01*
X5268405Y-69034775D01*
X5175580Y-68863098D01*
X5138315Y-68807851D01*
X5101850Y-68752126D01*
X5095364Y-68744173D01*
X4970960Y-68593795D01*
X4923654Y-68546818D01*
X4877083Y-68499261D01*
X4869176Y-68492719D01*
X4717934Y-68369369D01*
X4662415Y-68332482D01*
X4607480Y-68294868D01*
X4598453Y-68289986D01*
X4426131Y-68198361D01*
X4364504Y-68172960D01*
X4303311Y-68146733D01*
X4293508Y-68143698D01*
X4106672Y-68087289D01*
X4041280Y-68074341D01*
X3976164Y-68060500D01*
X3965958Y-68059427D01*
X3771724Y-68040382D01*
X3771723Y-68040382D01*
X3736105Y-68036874D01*
X1035947Y-68036874D01*
X949214Y-68028370D01*
X900360Y-68013620D01*
X855301Y-67989662D01*
X815754Y-67957408D01*
X783227Y-67918089D01*
X758957Y-67873203D01*
X743865Y-67824447D01*
X735000Y-67740109D01*
X735000Y-67178363D01*
X9265000Y-67178363D01*
X9265000Y-67421637D01*
X9312460Y-67660236D01*
X9405557Y-67884992D01*
X9540713Y-68087267D01*
X9712733Y-68259287D01*
X9915008Y-68394443D01*
X10139764Y-68487540D01*
X10378363Y-68535000D01*
X10621637Y-68535000D01*
X10860236Y-68487540D01*
X11084992Y-68394443D01*
X11287267Y-68259287D01*
X11459287Y-68087267D01*
X11500000Y-68026336D01*
X11540713Y-68087267D01*
X11712733Y-68259287D01*
X11915008Y-68394443D01*
X12139764Y-68487540D01*
X12378363Y-68535000D01*
X12621637Y-68535000D01*
X12860236Y-68487540D01*
X13084992Y-68394443D01*
X13287267Y-68259287D01*
X13459287Y-68087267D01*
X13500000Y-68026336D01*
X13540713Y-68087267D01*
X13712733Y-68259287D01*
X13915008Y-68394443D01*
X14139764Y-68487540D01*
X14378363Y-68535000D01*
X14621637Y-68535000D01*
X14860236Y-68487540D01*
X15084992Y-68394443D01*
X15287267Y-68259287D01*
X15459287Y-68087267D01*
X15594443Y-67884992D01*
X15665752Y-67712835D01*
X18415000Y-67712835D01*
X18415000Y-67887165D01*
X18449010Y-68058145D01*
X18515723Y-68219205D01*
X18612576Y-68364155D01*
X18735845Y-68487424D01*
X18880795Y-68584277D01*
X19041855Y-68650990D01*
X19212835Y-68685000D01*
X19387165Y-68685000D01*
X19558145Y-68650990D01*
X19719205Y-68584277D01*
X19792953Y-68535000D01*
X28407032Y-68535000D01*
X28480795Y-68584287D01*
X28641855Y-68651000D01*
X28812835Y-68685010D01*
X28987165Y-68685010D01*
X29158145Y-68651000D01*
X29319205Y-68584287D01*
X29464155Y-68487434D01*
X29587424Y-68364165D01*
X29684277Y-68219215D01*
X29750990Y-68058155D01*
X29785000Y-67887175D01*
X29785000Y-67712845D01*
X29750990Y-67541865D01*
X29684277Y-67380805D01*
X29587424Y-67235855D01*
X29464155Y-67112586D01*
X29319205Y-67015733D01*
X29158145Y-66949020D01*
X28987165Y-66915010D01*
X28812835Y-66915010D01*
X28641855Y-66949020D01*
X28480795Y-67015733D01*
X28407062Y-67065000D01*
X19792953Y-67065000D01*
X19719205Y-67015723D01*
X19558145Y-66949010D01*
X19387165Y-66915000D01*
X19212835Y-66915000D01*
X19041855Y-66949010D01*
X18880795Y-67015723D01*
X18735845Y-67112576D01*
X18612576Y-67235845D01*
X18515723Y-67380795D01*
X18449010Y-67541855D01*
X18415000Y-67712835D01*
X15665752Y-67712835D01*
X15687540Y-67660236D01*
X15735000Y-67421637D01*
X15735000Y-67245827D01*
X19045829Y-63935000D01*
X34000578Y-63935000D01*
X34008353Y-63942775D01*
X34186060Y-64061515D01*
X34383517Y-64143304D01*
X34593137Y-64185000D01*
X34806863Y-64185000D01*
X35016483Y-64143304D01*
X35213940Y-64061515D01*
X35391647Y-63942775D01*
X35542775Y-63791647D01*
X35661515Y-63613940D01*
X35743304Y-63416483D01*
X35785000Y-63206863D01*
X35785000Y-62993137D01*
X35743304Y-62783517D01*
X35661515Y-62586060D01*
X35542775Y-62408353D01*
X35391647Y-62257225D01*
X35213940Y-62138485D01*
X35016483Y-62056696D01*
X34806863Y-62015000D01*
X34593137Y-62015000D01*
X34383517Y-62056696D01*
X34186060Y-62138485D01*
X34008353Y-62257225D01*
X34000578Y-62265000D01*
X18740978Y-62265000D01*
X18699960Y-62260960D01*
X18658941Y-62265000D01*
X18536271Y-62277082D01*
X18378873Y-62324828D01*
X18233814Y-62402364D01*
X18106669Y-62506709D01*
X18080523Y-62538568D01*
X14554093Y-66065000D01*
X14378363Y-66065000D01*
X14139764Y-66112460D01*
X13915008Y-66205557D01*
X13712733Y-66340713D01*
X13540713Y-66512733D01*
X13500000Y-66573664D01*
X13459287Y-66512733D01*
X13287267Y-66340713D01*
X13084992Y-66205557D01*
X12860236Y-66112460D01*
X12621637Y-66065000D01*
X12378363Y-66065000D01*
X12139764Y-66112460D01*
X11915008Y-66205557D01*
X11712733Y-66340713D01*
X11540713Y-66512733D01*
X11500000Y-66573664D01*
X11459287Y-66512733D01*
X11287267Y-66340713D01*
X11084992Y-66205557D01*
X10860236Y-66112460D01*
X10621637Y-66065000D01*
X10378363Y-66065000D01*
X10139764Y-66112460D01*
X9915008Y-66205557D01*
X9712733Y-66340713D01*
X9540713Y-66512733D01*
X9405557Y-66715008D01*
X9312460Y-66939764D01*
X9265000Y-67178363D01*
X735000Y-67178363D01*
X735000Y-61127000D01*
X39873000Y-61127000D01*
X39873000Y-66971875D01*
X39873000Y-66971875D01*
G37*
X39873000Y-66971875D02*
X34803242Y-66971875D01*
X34719205Y-66915723D01*
X34558145Y-66849010D01*
X34387165Y-66815000D01*
X34212835Y-66815000D01*
X34041855Y-66849010D01*
X33880795Y-66915723D01*
X33735845Y-67012576D01*
X33612576Y-67135845D01*
X33515723Y-67280795D01*
X33449010Y-67441855D01*
X33415000Y-67612835D01*
X33415000Y-67787165D01*
X33449010Y-67958145D01*
X33515723Y-68119205D01*
X33612576Y-68264155D01*
X33735845Y-68387424D01*
X33880795Y-68484277D01*
X34041855Y-68550990D01*
X34212835Y-68585000D01*
X34387165Y-68585000D01*
X34558145Y-68550990D01*
X34719205Y-68484277D01*
X34782664Y-68441875D01*
X39873000Y-68441875D01*
X39873000Y-74673000D01*
X27000000Y-74673000D01*
X26975224Y-74675440D01*
X26951399Y-74682667D01*
X26929443Y-74694403D01*
X26910197Y-74710197D01*
X26894403Y-74729443D01*
X26882667Y-74751399D01*
X26875440Y-74775224D01*
X26873000Y-74800000D01*
X26873000Y-79036875D01*
X21821814Y-79036875D01*
X21946632Y-78953475D01*
X22153475Y-78746632D01*
X22315990Y-78503411D01*
X22427932Y-78233158D01*
X22485000Y-77946260D01*
X22485000Y-77653740D01*
X22427932Y-77366842D01*
X22315990Y-77096589D01*
X22153475Y-76853368D01*
X21946632Y-76646525D01*
X21764466Y-76524805D01*
X21881355Y-76455178D01*
X22097588Y-76260269D01*
X22271641Y-76026920D01*
X22396825Y-75764099D01*
X22441476Y-75616890D01*
X22320155Y-75387000D01*
X21127000Y-75387000D01*
X21127000Y-75407000D01*
X20873000Y-75407000D01*
X20873000Y-75387000D01*
X19679845Y-75387000D01*
X19558524Y-75616890D01*
X19603175Y-75764099D01*
X19728359Y-76026920D01*
X19902412Y-76260269D01*
X20118645Y-76455178D01*
X20235534Y-76524805D01*
X20053368Y-76646525D01*
X19846525Y-76853368D01*
X19684010Y-77096589D01*
X19572068Y-77366842D01*
X19515000Y-77653740D01*
X19515000Y-77946260D01*
X19572068Y-78233158D01*
X19684010Y-78503411D01*
X19846525Y-78746632D01*
X20053368Y-78953475D01*
X20178186Y-79036875D01*
X5735956Y-79036876D01*
X5649213Y-79028371D01*
X5600359Y-79013621D01*
X5555300Y-78989663D01*
X5515753Y-78957409D01*
X5483226Y-78918090D01*
X5458956Y-78873204D01*
X5443864Y-78824448D01*
X5434998Y-78740101D01*
X5434998Y-77567609D01*
X12031538Y-77567609D01*
X12035409Y-77605282D01*
X12127579Y-77830533D01*
X12261922Y-78033474D01*
X12433275Y-78206307D01*
X12635054Y-78342390D01*
X12859504Y-78436493D01*
X13098000Y-78485000D01*
X13373000Y-78485000D01*
X13373000Y-77377000D01*
X13627000Y-77377000D01*
X13627000Y-78485000D01*
X13902000Y-78485000D01*
X14140496Y-78436493D01*
X14364946Y-78342390D01*
X14566725Y-78206307D01*
X14738078Y-78033474D01*
X14872421Y-77830533D01*
X14964591Y-77605282D01*
X14968462Y-77567609D01*
X14843731Y-77377000D01*
X13627000Y-77377000D01*
X13373000Y-77377000D01*
X12156269Y-77377000D01*
X12031538Y-77567609D01*
X5434998Y-77567609D01*
X5434998Y-74899600D01*
X11986928Y-74899600D01*
X11986928Y-75600400D01*
X12003984Y-75773576D01*
X12054498Y-75940097D01*
X12136528Y-76093564D01*
X12246921Y-76228079D01*
X12381436Y-76338472D01*
X12386301Y-76341073D01*
X12261922Y-76466526D01*
X12127579Y-76669467D01*
X12035409Y-76894718D01*
X12031538Y-76932391D01*
X12156269Y-77123000D01*
X13373000Y-77123000D01*
X13373000Y-77103000D01*
X13627000Y-77103000D01*
X13627000Y-77123000D01*
X14843731Y-77123000D01*
X14968462Y-76932391D01*
X14964591Y-76894718D01*
X14872421Y-76669467D01*
X14738078Y-76466526D01*
X14613699Y-76341073D01*
X14618564Y-76338472D01*
X14753079Y-76228079D01*
X14863472Y-76093564D01*
X14945502Y-75940097D01*
X14996016Y-75773576D01*
X15013072Y-75600400D01*
X15013072Y-75098967D01*
X15465000Y-75098967D01*
X15465000Y-75421033D01*
X15527832Y-75736912D01*
X15651082Y-76034463D01*
X15830013Y-76302252D01*
X16057748Y-76529987D01*
X16325537Y-76708918D01*
X16623088Y-76832168D01*
X16938967Y-76895000D01*
X17261033Y-76895000D01*
X17576912Y-76832168D01*
X17874463Y-76708918D01*
X18142252Y-76529987D01*
X18369987Y-76302252D01*
X18548918Y-76034463D01*
X18672168Y-75736912D01*
X18735000Y-75421033D01*
X18735000Y-75098967D01*
X18672168Y-74783088D01*
X18548918Y-74485537D01*
X18369987Y-74217748D01*
X18142252Y-73990013D01*
X17874463Y-73811082D01*
X17835000Y-73794736D01*
X17835000Y-73392954D01*
X17884277Y-73319206D01*
X17950990Y-73158146D01*
X17985000Y-72987166D01*
X17985000Y-72812836D01*
X17966534Y-72720000D01*
X19507815Y-72720000D01*
X19536487Y-73011111D01*
X19621401Y-73291034D01*
X19759294Y-73549014D01*
X19944866Y-73775134D01*
X20170986Y-73960706D01*
X20235523Y-73995201D01*
X20118645Y-74064822D01*
X19902412Y-74259731D01*
X19728359Y-74493080D01*
X19603175Y-74755901D01*
X19558524Y-74903110D01*
X19679845Y-75133000D01*
X20873000Y-75133000D01*
X20873000Y-75113000D01*
X21127000Y-75113000D01*
X21127000Y-75133000D01*
X22320155Y-75133000D01*
X22441476Y-74903110D01*
X22396825Y-74755901D01*
X22271641Y-74493080D01*
X22097588Y-74259731D01*
X21881355Y-74064822D01*
X21764477Y-73995201D01*
X21829014Y-73960706D01*
X22055134Y-73775134D01*
X22240706Y-73549014D01*
X22378599Y-73291034D01*
X22463513Y-73011111D01*
X22492185Y-72720000D01*
X22463513Y-72428889D01*
X22378599Y-72148966D01*
X22240706Y-71890986D01*
X22055134Y-71664866D01*
X22025313Y-71640393D01*
X22094180Y-71619502D01*
X22204494Y-71560537D01*
X22301185Y-71481185D01*
X22380537Y-71384494D01*
X22439502Y-71274180D01*
X22475812Y-71154482D01*
X22488072Y-71030000D01*
X22488072Y-69330000D01*
X22475812Y-69205518D01*
X22439502Y-69085820D01*
X22380537Y-68975506D01*
X22301185Y-68878815D01*
X22204494Y-68799463D01*
X22094180Y-68740498D01*
X21974482Y-68704188D01*
X21850000Y-68691928D01*
X20150000Y-68691928D01*
X20025518Y-68704188D01*
X19905820Y-68740498D01*
X19795506Y-68799463D01*
X19698815Y-68878815D01*
X19619463Y-68975506D01*
X19560498Y-69085820D01*
X19524188Y-69205518D01*
X19511928Y-69330000D01*
X19511928Y-71030000D01*
X19524188Y-71154482D01*
X19560498Y-71274180D01*
X19619463Y-71384494D01*
X19698815Y-71481185D01*
X19795506Y-71560537D01*
X19905820Y-71619502D01*
X19974687Y-71640393D01*
X19944866Y-71664866D01*
X19759294Y-71890986D01*
X19621401Y-72148966D01*
X19536487Y-72428889D01*
X19507815Y-72720000D01*
X17966534Y-72720000D01*
X17950990Y-72641856D01*
X17884277Y-72480796D01*
X17787424Y-72335846D01*
X17664155Y-72212577D01*
X17519205Y-72115724D01*
X17358145Y-72049011D01*
X17187165Y-72015001D01*
X17012835Y-72015001D01*
X16841855Y-72049011D01*
X16680795Y-72115724D01*
X16535845Y-72212577D01*
X16412576Y-72335846D01*
X16315723Y-72480796D01*
X16249010Y-72641856D01*
X16215000Y-72812836D01*
X16215000Y-72987166D01*
X16249010Y-73158146D01*
X16315723Y-73319206D01*
X16365001Y-73392955D01*
X16365001Y-73794736D01*
X16325537Y-73811082D01*
X16057748Y-73990013D01*
X15830013Y-74217748D01*
X15651082Y-74485537D01*
X15527832Y-74783088D01*
X15465000Y-75098967D01*
X15013072Y-75098967D01*
X15013072Y-74899600D01*
X14996016Y-74726424D01*
X14945502Y-74559903D01*
X14863472Y-74406436D01*
X14753079Y-74271921D01*
X14618564Y-74161528D01*
X14465097Y-74079498D01*
X14298576Y-74028984D01*
X14125400Y-74011928D01*
X12874600Y-74011928D01*
X12701424Y-74028984D01*
X12534903Y-74079498D01*
X12381436Y-74161528D01*
X12246921Y-74271921D01*
X12136528Y-74406436D01*
X12054498Y-74559903D01*
X12003984Y-74726424D01*
X11986928Y-74899600D01*
X5434998Y-74899600D01*
X5435000Y-69735770D01*
X5431907Y-69704371D01*
X5431950Y-69698276D01*
X5430949Y-69688062D01*
X5410548Y-69493965D01*
X5397155Y-69428717D01*
X5384671Y-69363276D01*
X5381705Y-69353451D01*
X5323993Y-69167013D01*
X5298175Y-69105594D01*
X5273223Y-69043836D01*
X5268405Y-69034775D01*
X5175580Y-68863098D01*
X5138315Y-68807851D01*
X5101850Y-68752126D01*
X5095364Y-68744173D01*
X4970960Y-68593795D01*
X4923654Y-68546818D01*
X4877083Y-68499261D01*
X4869176Y-68492719D01*
X4717934Y-68369369D01*
X4662415Y-68332482D01*
X4607480Y-68294868D01*
X4598453Y-68289986D01*
X4426131Y-68198361D01*
X4364504Y-68172960D01*
X4303311Y-68146733D01*
X4293508Y-68143698D01*
X4106672Y-68087289D01*
X4041280Y-68074341D01*
X3976164Y-68060500D01*
X3965958Y-68059427D01*
X3771724Y-68040382D01*
X3771723Y-68040382D01*
X3736105Y-68036874D01*
X1035947Y-68036874D01*
X949214Y-68028370D01*
X900360Y-68013620D01*
X855301Y-67989662D01*
X815754Y-67957408D01*
X783227Y-67918089D01*
X758957Y-67873203D01*
X743865Y-67824447D01*
X735000Y-67740109D01*
X735000Y-67178363D01*
X9265000Y-67178363D01*
X9265000Y-67421637D01*
X9312460Y-67660236D01*
X9405557Y-67884992D01*
X9540713Y-68087267D01*
X9712733Y-68259287D01*
X9915008Y-68394443D01*
X10139764Y-68487540D01*
X10378363Y-68535000D01*
X10621637Y-68535000D01*
X10860236Y-68487540D01*
X11084992Y-68394443D01*
X11287267Y-68259287D01*
X11459287Y-68087267D01*
X11500000Y-68026336D01*
X11540713Y-68087267D01*
X11712733Y-68259287D01*
X11915008Y-68394443D01*
X12139764Y-68487540D01*
X12378363Y-68535000D01*
X12621637Y-68535000D01*
X12860236Y-68487540D01*
X13084992Y-68394443D01*
X13287267Y-68259287D01*
X13459287Y-68087267D01*
X13500000Y-68026336D01*
X13540713Y-68087267D01*
X13712733Y-68259287D01*
X13915008Y-68394443D01*
X14139764Y-68487540D01*
X14378363Y-68535000D01*
X14621637Y-68535000D01*
X14860236Y-68487540D01*
X15084992Y-68394443D01*
X15287267Y-68259287D01*
X15459287Y-68087267D01*
X15594443Y-67884992D01*
X15665752Y-67712835D01*
X18415000Y-67712835D01*
X18415000Y-67887165D01*
X18449010Y-68058145D01*
X18515723Y-68219205D01*
X18612576Y-68364155D01*
X18735845Y-68487424D01*
X18880795Y-68584277D01*
X19041855Y-68650990D01*
X19212835Y-68685000D01*
X19387165Y-68685000D01*
X19558145Y-68650990D01*
X19719205Y-68584277D01*
X19792953Y-68535000D01*
X28407032Y-68535000D01*
X28480795Y-68584287D01*
X28641855Y-68651000D01*
X28812835Y-68685010D01*
X28987165Y-68685010D01*
X29158145Y-68651000D01*
X29319205Y-68584287D01*
X29464155Y-68487434D01*
X29587424Y-68364165D01*
X29684277Y-68219215D01*
X29750990Y-68058155D01*
X29785000Y-67887175D01*
X29785000Y-67712845D01*
X29750990Y-67541865D01*
X29684277Y-67380805D01*
X29587424Y-67235855D01*
X29464155Y-67112586D01*
X29319205Y-67015733D01*
X29158145Y-66949020D01*
X28987165Y-66915010D01*
X28812835Y-66915010D01*
X28641855Y-66949020D01*
X28480795Y-67015733D01*
X28407062Y-67065000D01*
X19792953Y-67065000D01*
X19719205Y-67015723D01*
X19558145Y-66949010D01*
X19387165Y-66915000D01*
X19212835Y-66915000D01*
X19041855Y-66949010D01*
X18880795Y-67015723D01*
X18735845Y-67112576D01*
X18612576Y-67235845D01*
X18515723Y-67380795D01*
X18449010Y-67541855D01*
X18415000Y-67712835D01*
X15665752Y-67712835D01*
X15687540Y-67660236D01*
X15735000Y-67421637D01*
X15735000Y-67245827D01*
X19045829Y-63935000D01*
X34000578Y-63935000D01*
X34008353Y-63942775D01*
X34186060Y-64061515D01*
X34383517Y-64143304D01*
X34593137Y-64185000D01*
X34806863Y-64185000D01*
X35016483Y-64143304D01*
X35213940Y-64061515D01*
X35391647Y-63942775D01*
X35542775Y-63791647D01*
X35661515Y-63613940D01*
X35743304Y-63416483D01*
X35785000Y-63206863D01*
X35785000Y-62993137D01*
X35743304Y-62783517D01*
X35661515Y-62586060D01*
X35542775Y-62408353D01*
X35391647Y-62257225D01*
X35213940Y-62138485D01*
X35016483Y-62056696D01*
X34806863Y-62015000D01*
X34593137Y-62015000D01*
X34383517Y-62056696D01*
X34186060Y-62138485D01*
X34008353Y-62257225D01*
X34000578Y-62265000D01*
X18740978Y-62265000D01*
X18699960Y-62260960D01*
X18658941Y-62265000D01*
X18536271Y-62277082D01*
X18378873Y-62324828D01*
X18233814Y-62402364D01*
X18106669Y-62506709D01*
X18080523Y-62538568D01*
X14554093Y-66065000D01*
X14378363Y-66065000D01*
X14139764Y-66112460D01*
X13915008Y-66205557D01*
X13712733Y-66340713D01*
X13540713Y-66512733D01*
X13500000Y-66573664D01*
X13459287Y-66512733D01*
X13287267Y-66340713D01*
X13084992Y-66205557D01*
X12860236Y-66112460D01*
X12621637Y-66065000D01*
X12378363Y-66065000D01*
X12139764Y-66112460D01*
X11915008Y-66205557D01*
X11712733Y-66340713D01*
X11540713Y-66512733D01*
X11500000Y-66573664D01*
X11459287Y-66512733D01*
X11287267Y-66340713D01*
X11084992Y-66205557D01*
X10860236Y-66112460D01*
X10621637Y-66065000D01*
X10378363Y-66065000D01*
X10139764Y-66112460D01*
X9915008Y-66205557D01*
X9712733Y-66340713D01*
X9540713Y-66512733D01*
X9405557Y-66715008D01*
X9312460Y-66939764D01*
X9265000Y-67178363D01*
X735000Y-67178363D01*
X735000Y-61127000D01*
X39873000Y-61127000D01*
X39873000Y-66971875D01*
M02*
