M48
; DRILL file {KiCad (5.1.4)-1} date 2019/08/26 21:43:57
; FORMAT={-:-/ absolute / metric / decimal}
; #@! TF.CreationDate,2019-08-26T21:43:57+09:00
; #@! TF.GenerationSoftware,Kicad,Pcbnew,(5.1.4)-1
FMAT,2
METRIC
T1C0.300
T2C0.600
T3C0.750
T4C0.850
T5C1.470
T6C0.787
T7C1.750
T8C3.988
%
G90
G05
T1
X12.0Y-71.55
X16.2Y-65.8
X16.4Y-63.4
X17.0Y-62.8
X17.2Y-76.5
X17.6Y-62.2
X17.8Y-75.8
X18.2Y-61.6
X18.4Y-75.1
X18.8Y-61.0
X19.0Y-74.4
X19.4Y-60.4
X19.6Y-73.7
X20.2Y-73.0
X20.4Y-67.6
X20.9Y-77.2
X24.2Y-72.3
X24.9Y-71.6
X24.9Y-76.3
X25.6Y-70.9
X25.6Y-75.7
X26.3Y-75.1
X27.0Y-73.97
X27.7Y-69.7
X27.7Y-74.54
X28.4Y-70.35
X28.4Y-75.1
X29.1Y-69.7
X29.1Y-75.68
X29.8Y-76.3
X33.8Y-69.8
X45.6Y-61.6
X46.2Y-60.9
X46.8Y-60.2
X47.4Y-59.45
X48.0Y-58.75
X48.6Y-58.05
X58.1Y-70.4
X59.0Y-70.4
X59.0Y-72.2
X59.9Y-72.2
X59.9Y-70.4
X59.9Y-73.9
X60.8Y-72.2
X60.8Y-73.9
X212.9Y-62.6
X213.3Y-62.0
X213.7Y-61.4
X214.1Y-60.8
X214.5Y-60.2
X214.9Y-59.6
X215.3Y-59.0
X215.7Y-58.4
X218.8Y-53.0
X219.4Y-52.6
X220.0Y-52.2
X238.3Y-56.4
X238.7Y-55.8
X239.1Y-55.2
X241.0Y-76.8
X241.8Y-76.8
X242.6Y-76.8
X243.4Y-76.8
X243.522Y-67.178
X243.6Y-73.0
X244.1Y-64.4
X244.8Y-63.9
X245.5Y-63.45
X247.1Y-69.0
X247.6Y-63.9
X247.6Y-73.7
X247.8Y-68.3
X248.3Y-63.3
X248.3Y-73.7
X248.5Y-67.6
X249.0Y-64.4
X249.0Y-73.7
X249.7Y-63.9
X249.7Y-73.7
X250.4Y-63.3
X251.1Y-63.9
X251.8Y-63.3
X252.2Y-69.0
X252.2Y-71.1
X252.5Y-62.7
X252.6Y-69.7
X252.6Y-71.8
X253.0Y-70.4
X253.0Y-72.5
X255.0Y-65.4
X256.6Y-60.6
X257.3Y-60.1
X258.0Y-59.6
X258.1Y-69.0
X258.35Y-75.05
X258.7Y-60.6
X259.4Y-60.1
X260.1Y-59.6
X263.55Y-73.85
T2
X6.525Y-67.3
X8.525Y-67.3
X10.525Y-67.3
X264.875Y-67.3
X266.875Y-67.3
X268.875Y-67.3
T3
X266.5Y-74.5
X266.5Y-76.5
X12.0Y-74.5
X12.0Y-76.5
T4
X210.8Y-56.4
X213.34Y-56.4
X215.88Y-56.4
X218.42Y-56.4
X59.0Y-56.4
X61.54Y-56.4
X64.08Y-56.4
X66.62Y-56.4
T5
X168.815Y-52.229
X175.165Y-49.689
X43.815Y-48.657
X50.165Y-46.117
X225.965Y-29.607
X232.315Y-27.067
X198.761Y-69.152
X204.86Y-66.057
X245.015Y-16.51
X251.365Y-13.97
X149.765Y-42.704
X156.115Y-40.164
X225.965Y-10.557
X232.315Y-8.017
X24.765Y-54.61
X31.115Y-52.07
X223.584Y-67.707
X229.934Y-65.167
X245.015Y-54.61
X251.365Y-52.07
X187.865Y-49.847
X194.215Y-47.307
X120.015Y-42.704
X126.365Y-40.164
X100.965Y-52.229
X107.315Y-49.689
X175.911Y-73.392
X181.458Y-69.392
X187.865Y-30.797
X194.215Y-28.258
X81.915Y-11.747
X88.265Y-9.207
X187.865Y-11.747
X194.215Y-9.207
X100.965Y-33.179
X107.315Y-30.639
X168.815Y-33.179
X175.165Y-30.639
X206.915Y-26.035
X213.265Y-23.495
X5.715Y-35.56
X12.065Y-33.02
X71.049Y-68.474
X77.6Y-66.509
X245.015Y-35.56
X251.365Y-33.02
X168.815Y-14.129
X175.165Y-11.589
X159.389Y-72.934
X164.35Y-77.641
X264.065Y-35.56
X270.415Y-33.02
X24.765Y-35.56
X31.115Y-33.02
X206.915Y-6.985
X213.265Y-4.445
X24.765Y-16.51
X31.115Y-13.97
X120.015Y-23.654
X126.365Y-21.114
X225.965Y-48.657
X232.315Y-46.117
X94.096Y-71.549
X100.872Y-70.621
X43.815Y-10.557
X50.165Y-8.017
X43.815Y-29.607
X50.165Y-27.067
X62.865Y-6.985
X69.215Y-4.445
X81.915Y-49.847
X88.265Y-47.307
X62.865Y-45.085
X69.215Y-42.545
X114.826Y-79.856
X115.172Y-73.026
X46.196Y-67.707
X52.546Y-65.167
X149.765Y-23.654
X156.115Y-21.114
X206.915Y-45.085
X213.265Y-42.545
X264.065Y-54.61
X270.415Y-52.07
X81.915Y-30.797
X88.265Y-28.258
X5.715Y-54.61
X12.065Y-52.07
X62.865Y-26.035
X69.215Y-23.495
X5.715Y-16.51
X12.065Y-13.97
X264.065Y-16.51
X270.415Y-13.97
X100.965Y-14.129
X107.315Y-11.589
T6
X149.515Y-80.294
X150.048Y-81.447
X150.581Y-82.6
X151.113Y-83.753
X151.646Y-84.906
X133.35Y-26.704
X133.35Y-27.974
X133.35Y-29.244
X133.35Y-30.514
X133.35Y-31.784
X144.05Y-26.704
X144.05Y-27.974
X144.05Y-29.244
X144.05Y-30.514
X144.05Y-31.784
X144.05Y-53.148
X144.05Y-54.418
X144.05Y-55.688
X144.05Y-56.958
X144.05Y-58.228
X133.35Y-53.148
X133.35Y-54.418
X133.35Y-55.688
X133.35Y-56.958
X133.35Y-58.228
X125.754Y-84.906
X126.287Y-83.753
X126.819Y-82.6
X127.352Y-81.447
X127.885Y-80.294
T7
X99.695Y-16.669
X109.855Y-16.669
X167.545Y-54.769
X177.705Y-54.769
X42.545Y-51.197
X52.705Y-51.197
X224.695Y-32.147
X234.855Y-32.147
X197.722Y-71.795
X207.842Y-70.891
X243.745Y-19.05
X253.905Y-19.05
X148.495Y-45.244
X158.655Y-45.244
X224.695Y-13.097
X234.855Y-13.097
X23.495Y-57.15
X33.655Y-57.15
X222.314Y-70.247
X232.474Y-70.247
X243.745Y-57.15
X253.905Y-57.15
X186.595Y-52.387
X196.755Y-52.387
X118.745Y-45.244
X128.905Y-45.244
X99.695Y-54.769
X109.855Y-54.769
X175.293Y-76.164
X185.151Y-73.706
X186.595Y-33.337
X196.755Y-33.337
X80.645Y-14.287
X90.805Y-14.287
X186.595Y-14.287
X196.755Y-14.287
X99.695Y-35.719
X109.855Y-35.719
X167.545Y-35.719
X177.705Y-35.719
X205.645Y-28.575
X215.805Y-28.575
X4.445Y-38.1
X14.605Y-38.1
X69.558Y-70.891
X79.678Y-71.795
X243.745Y-38.1
X253.905Y-38.1
X167.545Y-16.669
X177.705Y-16.669
X156.551Y-72.841
X160.797Y-82.072
X262.795Y-38.1
X272.955Y-38.1
X23.495Y-38.1
X33.655Y-38.1
X205.645Y-9.525
X215.805Y-9.525
X23.495Y-19.05
X33.655Y-19.05
X118.745Y-26.194
X128.905Y-26.194
X224.695Y-51.197
X234.855Y-51.197
X92.249Y-73.706
X102.107Y-76.164
X42.545Y-13.097
X52.705Y-13.097
X42.545Y-32.147
X52.705Y-32.147
X61.595Y-9.525
X71.755Y-9.525
X80.645Y-52.387
X90.805Y-52.387
X61.595Y-47.625
X71.755Y-47.625
X116.603Y-82.072
X120.849Y-72.841
X44.926Y-70.247
X55.086Y-70.247
X148.495Y-26.194
X158.655Y-26.194
X205.645Y-47.625
X215.805Y-47.625
X262.795Y-57.15
X272.955Y-57.15
X80.645Y-33.337
X90.805Y-33.337
X4.445Y-57.15
X14.605Y-57.15
X61.595Y-28.575
X71.755Y-28.575
X4.445Y-19.05
X14.605Y-19.05
X262.795Y-19.05
X272.955Y-19.05
T8
X47.625Y-51.197
X229.775Y-32.147
X202.782Y-71.343
X248.825Y-19.05
X153.575Y-45.244
X229.775Y-13.097
X28.575Y-57.15
X227.394Y-70.247
X248.825Y-57.15
X191.675Y-52.387
X123.825Y-45.244
X104.775Y-54.769
X180.222Y-74.935
X191.675Y-33.337
X85.725Y-14.287
X191.675Y-14.287
X104.775Y-35.719
X172.625Y-35.719
X210.725Y-28.575
X9.525Y-38.1
X74.618Y-71.343
X248.825Y-38.1
X172.625Y-16.669
X158.674Y-77.456
X267.875Y-38.1
X28.575Y-38.1
X210.725Y-9.525
X28.575Y-19.05
X123.825Y-26.194
X229.775Y-51.197
X97.178Y-74.935
X47.625Y-13.097
X47.625Y-32.147
X66.675Y-9.525
X85.725Y-52.387
X66.675Y-47.625
X118.726Y-77.456
X50.006Y-70.247
X153.575Y-26.194
X210.725Y-47.625
X267.875Y-57.15
X85.725Y-33.337
X9.525Y-57.15
X66.675Y-28.575
X9.525Y-19.05
X267.875Y-19.05
X104.775Y-16.669
X172.625Y-54.769
T0
M30
