G04 #@! TF.GenerationSoftware,KiCad,Pcbnew,(5.1.4)-1*
G04 #@! TF.CreationDate,2019-12-22T18:43:03+09:00*
G04 #@! TF.ProjectId,caravelle,63617261-7665-46c6-9c65-2e6b69636164,rev?*
G04 #@! TF.SameCoordinates,PX2faf080PY1e84800*
G04 #@! TF.FileFunction,Copper,L2,Bot*
G04 #@! TF.FilePolarity,Positive*
%FSLAX46Y46*%
G04 Gerber Fmt 4.6, Leading zero omitted, Abs format (unit mm)*
G04 Created by KiCad (PCBNEW (5.1.4)-1) date 2019-12-22 18:43:03*
%MOMM*%
%LPD*%
G04 APERTURE LIST*
%ADD10C,0.250000*%
%ADD11C,0.010000*%
%ADD12C,2.000000*%
%ADD13C,1.200000*%
%ADD14C,2.250000*%
%ADD15R,1.700000X1.700000*%
%ADD16O,1.700000X1.700000*%
%ADD17C,1.700000*%
%ADD18O,1.750000X1.200000*%
%ADD19C,0.100000*%
%ADD20C,0.500000*%
%ADD21C,0.900000*%
%ADD22C,0.400000*%
%ADD23C,0.200000*%
%ADD24C,0.254000*%
G04 APERTURE END LIST*
D10*
X22866071Y-44003571D02*
X22923214Y-44060714D01*
X23094642Y-44117857D01*
X23208928Y-44117857D01*
X23380357Y-44060714D01*
X23494642Y-43946428D01*
X23551785Y-43832142D01*
X23608928Y-43603571D01*
X23608928Y-43432142D01*
X23551785Y-43203571D01*
X23494642Y-43089285D01*
X23380357Y-42975000D01*
X23208928Y-42917857D01*
X23094642Y-42917857D01*
X22923214Y-42975000D01*
X22866071Y-43032142D01*
X21837500Y-44117857D02*
X21837500Y-43489285D01*
X21894642Y-43375000D01*
X22008928Y-43317857D01*
X22237500Y-43317857D01*
X22351785Y-43375000D01*
X21837500Y-44060714D02*
X21951785Y-44117857D01*
X22237500Y-44117857D01*
X22351785Y-44060714D01*
X22408928Y-43946428D01*
X22408928Y-43832142D01*
X22351785Y-43717857D01*
X22237500Y-43660714D01*
X21951785Y-43660714D01*
X21837500Y-43603571D01*
X21266071Y-44117857D02*
X21266071Y-43317857D01*
X21266071Y-43546428D02*
X21208928Y-43432142D01*
X21151785Y-43375000D01*
X21037500Y-43317857D01*
X20923214Y-43317857D01*
X20008928Y-44117857D02*
X20008928Y-43489285D01*
X20066071Y-43375000D01*
X20180357Y-43317857D01*
X20408928Y-43317857D01*
X20523214Y-43375000D01*
X20008928Y-44060714D02*
X20123214Y-44117857D01*
X20408928Y-44117857D01*
X20523214Y-44060714D01*
X20580357Y-43946428D01*
X20580357Y-43832142D01*
X20523214Y-43717857D01*
X20408928Y-43660714D01*
X20123214Y-43660714D01*
X20008928Y-43603571D01*
X19551785Y-43317857D02*
X19266071Y-44117857D01*
X18980357Y-43317857D01*
X18066071Y-44060714D02*
X18180357Y-44117857D01*
X18408928Y-44117857D01*
X18523214Y-44060714D01*
X18580357Y-43946428D01*
X18580357Y-43489285D01*
X18523214Y-43375000D01*
X18408928Y-43317857D01*
X18180357Y-43317857D01*
X18066071Y-43375000D01*
X18008928Y-43489285D01*
X18008928Y-43603571D01*
X18580357Y-43717857D01*
X17323214Y-44117857D02*
X17437500Y-44060714D01*
X17494642Y-43946428D01*
X17494642Y-42917857D01*
X16694642Y-44117857D02*
X16808928Y-44060714D01*
X16866071Y-43946428D01*
X16866071Y-42917857D01*
X15780357Y-44060714D02*
X15894642Y-44117857D01*
X16123214Y-44117857D01*
X16237500Y-44060714D01*
X16294642Y-43946428D01*
X16294642Y-43489285D01*
X16237500Y-43375000D01*
X16123214Y-43317857D01*
X15894642Y-43317857D01*
X15780357Y-43375000D01*
X15723214Y-43489285D01*
X15723214Y-43603571D01*
X16294642Y-43717857D01*
X15208928Y-43660714D02*
X14294642Y-43660714D01*
X13323214Y-43489285D02*
X13151785Y-43546428D01*
X13094642Y-43603571D01*
X13037500Y-43717857D01*
X13037500Y-43889285D01*
X13094642Y-44003571D01*
X13151785Y-44060714D01*
X13266071Y-44117857D01*
X13723214Y-44117857D01*
X13723214Y-42917857D01*
X13323214Y-42917857D01*
X13208928Y-42975000D01*
X13151785Y-43032142D01*
X13094642Y-43146428D01*
X13094642Y-43260714D01*
X13151785Y-43375000D01*
X13208928Y-43432142D01*
X13323214Y-43489285D01*
X13723214Y-43489285D01*
X11951785Y-44117857D02*
X12523214Y-44117857D01*
X12523214Y-42917857D01*
X11551785Y-43489285D02*
X11151785Y-43489285D01*
X10980357Y-44117857D02*
X11551785Y-44117857D01*
X11551785Y-42917857D01*
X10980357Y-42917857D01*
X23551785Y-46167857D02*
X23551785Y-44967857D01*
X23094642Y-44967857D01*
X22980357Y-45025000D01*
X22923214Y-45082142D01*
X22866071Y-45196428D01*
X22866071Y-45367857D01*
X22923214Y-45482142D01*
X22980357Y-45539285D01*
X23094642Y-45596428D01*
X23551785Y-45596428D01*
X21666071Y-46053571D02*
X21723214Y-46110714D01*
X21894642Y-46167857D01*
X22008928Y-46167857D01*
X22180357Y-46110714D01*
X22294642Y-45996428D01*
X22351785Y-45882142D01*
X22408928Y-45653571D01*
X22408928Y-45482142D01*
X22351785Y-45253571D01*
X22294642Y-45139285D01*
X22180357Y-45025000D01*
X22008928Y-44967857D01*
X21894642Y-44967857D01*
X21723214Y-45025000D01*
X21666071Y-45082142D01*
X20751785Y-45539285D02*
X20580357Y-45596428D01*
X20523214Y-45653571D01*
X20466071Y-45767857D01*
X20466071Y-45939285D01*
X20523214Y-46053571D01*
X20580357Y-46110714D01*
X20694642Y-46167857D01*
X21151785Y-46167857D01*
X21151785Y-44967857D01*
X20751785Y-44967857D01*
X20637500Y-45025000D01*
X20580357Y-45082142D01*
X20523214Y-45196428D01*
X20523214Y-45310714D01*
X20580357Y-45425000D01*
X20637500Y-45482142D01*
X20751785Y-45539285D01*
X21151785Y-45539285D01*
X19151785Y-45367857D02*
X18866071Y-46167857D01*
X18580357Y-45367857D01*
X18180357Y-45082142D02*
X18123214Y-45025000D01*
X18008928Y-44967857D01*
X17723214Y-44967857D01*
X17608928Y-45025000D01*
X17551785Y-45082142D01*
X17494642Y-45196428D01*
X17494642Y-45310714D01*
X17551785Y-45482142D01*
X18237500Y-46167857D01*
X17494642Y-46167857D01*
X16980357Y-46053571D02*
X16923214Y-46110714D01*
X16980357Y-46167857D01*
X17037500Y-46110714D01*
X16980357Y-46053571D01*
X16980357Y-46167857D01*
X16466071Y-45082142D02*
X16408928Y-45025000D01*
X16294642Y-44967857D01*
X16008928Y-44967857D01*
X15894642Y-45025000D01*
X15837500Y-45082142D01*
X15780357Y-45196428D01*
X15780357Y-45310714D01*
X15837500Y-45482142D01*
X16523214Y-46167857D01*
X15780357Y-46167857D01*
X14351785Y-46167857D02*
X14351785Y-44967857D01*
X14351785Y-45425000D02*
X14237500Y-45367857D01*
X14008928Y-45367857D01*
X13894642Y-45425000D01*
X13837500Y-45482142D01*
X13780357Y-45596428D01*
X13780357Y-45939285D01*
X13837500Y-46053571D01*
X13894642Y-46110714D01*
X14008928Y-46167857D01*
X14237500Y-46167857D01*
X14351785Y-46110714D01*
X13380357Y-45367857D02*
X13094642Y-46167857D01*
X12808928Y-45367857D02*
X13094642Y-46167857D01*
X13208928Y-46453571D01*
X13266071Y-46510714D01*
X13380357Y-46567857D01*
X11494642Y-46110714D02*
X11323214Y-46167857D01*
X11037500Y-46167857D01*
X10923214Y-46110714D01*
X10866071Y-46053571D01*
X10808928Y-45939285D01*
X10808928Y-45825000D01*
X10866071Y-45710714D01*
X10923214Y-45653571D01*
X11037500Y-45596428D01*
X11266071Y-45539285D01*
X11380357Y-45482142D01*
X11437500Y-45425000D01*
X11494642Y-45310714D01*
X11494642Y-45196428D01*
X11437500Y-45082142D01*
X11380357Y-45025000D01*
X11266071Y-44967857D01*
X10980357Y-44967857D01*
X10808928Y-45025000D01*
X9780357Y-46167857D02*
X9780357Y-45539285D01*
X9837500Y-45425000D01*
X9951785Y-45367857D01*
X10180357Y-45367857D01*
X10294642Y-45425000D01*
X9780357Y-46110714D02*
X9894642Y-46167857D01*
X10180357Y-46167857D01*
X10294642Y-46110714D01*
X10351785Y-45996428D01*
X10351785Y-45882142D01*
X10294642Y-45767857D01*
X10180357Y-45710714D01*
X9894642Y-45710714D01*
X9780357Y-45653571D01*
X9380357Y-45367857D02*
X8923214Y-45367857D01*
X9208928Y-44967857D02*
X9208928Y-45996428D01*
X9151785Y-46110714D01*
X9037500Y-46167857D01*
X8923214Y-46167857D01*
X8694642Y-44967857D02*
X8008928Y-44967857D01*
X8351785Y-46167857D02*
X8351785Y-44967857D01*
D11*
G36*
X28404335Y-41472714D02*
G01*
X28089143Y-41532492D01*
X27782703Y-41659356D01*
X27687134Y-41699087D01*
X27610585Y-41731744D01*
X27547567Y-41760309D01*
X27492586Y-41787763D01*
X27440150Y-41817087D01*
X27384769Y-41851261D01*
X27320951Y-41893267D01*
X27243202Y-41946085D01*
X27200321Y-41975469D01*
X27113877Y-42034973D01*
X27044747Y-42083580D01*
X26988118Y-42125399D01*
X26939176Y-42164539D01*
X26893107Y-42205110D01*
X26845099Y-42251222D01*
X26790338Y-42306983D01*
X26724010Y-42376505D01*
X26696228Y-42405846D01*
X26624361Y-42482092D01*
X26567025Y-42544208D01*
X26520313Y-42597293D01*
X26480320Y-42646445D01*
X26443138Y-42696763D01*
X26404861Y-42753346D01*
X26361582Y-42821292D01*
X26309395Y-42905700D01*
X26293922Y-42930913D01*
X26240420Y-43018354D01*
X26198057Y-43088887D01*
X26164233Y-43147981D01*
X26136349Y-43201105D01*
X26111807Y-43253729D01*
X26088008Y-43311322D01*
X26062353Y-43379354D01*
X26032243Y-43463295D01*
X26007029Y-43534715D01*
X25974306Y-43629927D01*
X25943443Y-43724135D01*
X25916038Y-43812121D01*
X25893688Y-43888667D01*
X25877990Y-43948554D01*
X25872322Y-43974895D01*
X25861681Y-44032104D01*
X25852023Y-44082151D01*
X25844892Y-44117103D01*
X25843042Y-44125290D01*
X25840972Y-44138357D01*
X25844256Y-44147365D01*
X25856139Y-44152292D01*
X25879864Y-44153115D01*
X25918676Y-44149814D01*
X25975818Y-44142365D01*
X26054534Y-44130748D01*
X26101880Y-44123540D01*
X26169847Y-44112785D01*
X26227791Y-44102923D01*
X26270859Y-44094833D01*
X26294199Y-44089395D01*
X26296901Y-44088191D01*
X26302045Y-44074007D01*
X26313383Y-44038015D01*
X26329739Y-43984107D01*
X26349936Y-43916174D01*
X26372798Y-43838108D01*
X26379658Y-43814474D01*
X26406405Y-43723218D01*
X26429009Y-43650221D01*
X26450141Y-43589005D01*
X26472473Y-43533092D01*
X26498673Y-43476004D01*
X26531413Y-43411263D01*
X26573363Y-43332390D01*
X26594579Y-43293106D01*
X26643308Y-43203971D01*
X26684101Y-43132399D01*
X26721214Y-43072156D01*
X26758904Y-43017009D01*
X26801429Y-42960726D01*
X26853043Y-42897074D01*
X26916995Y-42821011D01*
X26982767Y-42744154D01*
X27037323Y-42682752D01*
X27086188Y-42631533D01*
X27134887Y-42585225D01*
X27188944Y-42538558D01*
X27253884Y-42486258D01*
X27329064Y-42427808D01*
X27409116Y-42366611D01*
X27474784Y-42318208D01*
X27532496Y-42278635D01*
X27588679Y-42243926D01*
X27649758Y-42210116D01*
X27722162Y-42173240D01*
X27812318Y-42129333D01*
X27814688Y-42128191D01*
X27902683Y-42086091D01*
X27973324Y-42053465D01*
X28033232Y-42027954D01*
X28089028Y-42007196D01*
X28147333Y-41988830D01*
X28214767Y-41970495D01*
X28297950Y-41949830D01*
X28350051Y-41937278D01*
X28442282Y-41915310D01*
X28515475Y-41898680D01*
X28576273Y-41886497D01*
X28631317Y-41877869D01*
X28687249Y-41871906D01*
X28750710Y-41867715D01*
X28828342Y-41864405D01*
X28914752Y-41861477D01*
X29202597Y-41852079D01*
X29475746Y-41901718D01*
X29568780Y-41918900D01*
X29643241Y-41933752D01*
X29705814Y-41948229D01*
X29763182Y-41964287D01*
X29822030Y-41983881D01*
X29889041Y-42008967D01*
X29970902Y-42041501D01*
X30016263Y-42059863D01*
X30107217Y-42097123D01*
X30180064Y-42128275D01*
X30241048Y-42156672D01*
X30296414Y-42185665D01*
X30352408Y-42218609D01*
X30415275Y-42258856D01*
X30491260Y-42309758D01*
X30527059Y-42334080D01*
X30610727Y-42391496D01*
X30677559Y-42438986D01*
X30733100Y-42481252D01*
X30782895Y-42522995D01*
X30832490Y-42568917D01*
X30887428Y-42623720D01*
X30953257Y-42692104D01*
X30969611Y-42709290D01*
X31039165Y-42783086D01*
X31094449Y-42843861D01*
X31140036Y-42897560D01*
X31180497Y-42950131D01*
X31220407Y-43007519D01*
X31264337Y-43075673D01*
X31316861Y-43160537D01*
X31317837Y-43162129D01*
X31368932Y-43246146D01*
X31408948Y-43314313D01*
X31440988Y-43373169D01*
X31468158Y-43429252D01*
X31493563Y-43489101D01*
X31520308Y-43559253D01*
X31551498Y-43646246D01*
X31562258Y-43676814D01*
X31590794Y-43757330D01*
X31616788Y-43829329D01*
X31638816Y-43888972D01*
X31655453Y-43932419D01*
X31665274Y-43955833D01*
X31666872Y-43958626D01*
X31682639Y-43963460D01*
X31719397Y-43969801D01*
X31771693Y-43977067D01*
X31834073Y-43984680D01*
X31901084Y-43992060D01*
X31967273Y-43998627D01*
X32027184Y-44003801D01*
X32075364Y-44007003D01*
X32106361Y-44007653D01*
X32114940Y-44006253D01*
X32113292Y-43991984D01*
X32104849Y-43955682D01*
X32090562Y-43900903D01*
X32071380Y-43831205D01*
X32048252Y-43750143D01*
X32028814Y-43683772D01*
X31999539Y-43585334D01*
X31975393Y-43506651D01*
X31953997Y-43441967D01*
X31932974Y-43385524D01*
X31909943Y-43331568D01*
X31882528Y-43274342D01*
X31848349Y-43208091D01*
X31805029Y-43127057D01*
X31778365Y-43077658D01*
X31728966Y-42986585D01*
X31688449Y-42913622D01*
X31653247Y-42853569D01*
X31619796Y-42801230D01*
X31584530Y-42751406D01*
X31543885Y-42698898D01*
X31494295Y-42638510D01*
X31432195Y-42565043D01*
X31404371Y-42532375D01*
X31335905Y-42452354D01*
X31280009Y-42388379D01*
X31232046Y-42336033D01*
X31187375Y-42290901D01*
X31141356Y-42248567D01*
X31089352Y-42204614D01*
X31026721Y-42154628D01*
X30948826Y-42094192D01*
X30923590Y-42074751D01*
X30840967Y-42011341D01*
X30774068Y-41960993D01*
X30717531Y-41920417D01*
X30665993Y-41886317D01*
X30614091Y-41855403D01*
X30556464Y-41824382D01*
X30487749Y-41789960D01*
X30402584Y-41748845D01*
X30358577Y-41727813D01*
X30057468Y-41584052D01*
X29414684Y-41429140D01*
X29067105Y-41421038D01*
X28719526Y-41412935D01*
X28404335Y-41472714D01*
X28404335Y-41472714D01*
G37*
X28404335Y-41472714D02*
X28089143Y-41532492D01*
X27782703Y-41659356D01*
X27687134Y-41699087D01*
X27610585Y-41731744D01*
X27547567Y-41760309D01*
X27492586Y-41787763D01*
X27440150Y-41817087D01*
X27384769Y-41851261D01*
X27320951Y-41893267D01*
X27243202Y-41946085D01*
X27200321Y-41975469D01*
X27113877Y-42034973D01*
X27044747Y-42083580D01*
X26988118Y-42125399D01*
X26939176Y-42164539D01*
X26893107Y-42205110D01*
X26845099Y-42251222D01*
X26790338Y-42306983D01*
X26724010Y-42376505D01*
X26696228Y-42405846D01*
X26624361Y-42482092D01*
X26567025Y-42544208D01*
X26520313Y-42597293D01*
X26480320Y-42646445D01*
X26443138Y-42696763D01*
X26404861Y-42753346D01*
X26361582Y-42821292D01*
X26309395Y-42905700D01*
X26293922Y-42930913D01*
X26240420Y-43018354D01*
X26198057Y-43088887D01*
X26164233Y-43147981D01*
X26136349Y-43201105D01*
X26111807Y-43253729D01*
X26088008Y-43311322D01*
X26062353Y-43379354D01*
X26032243Y-43463295D01*
X26007029Y-43534715D01*
X25974306Y-43629927D01*
X25943443Y-43724135D01*
X25916038Y-43812121D01*
X25893688Y-43888667D01*
X25877990Y-43948554D01*
X25872322Y-43974895D01*
X25861681Y-44032104D01*
X25852023Y-44082151D01*
X25844892Y-44117103D01*
X25843042Y-44125290D01*
X25840972Y-44138357D01*
X25844256Y-44147365D01*
X25856139Y-44152292D01*
X25879864Y-44153115D01*
X25918676Y-44149814D01*
X25975818Y-44142365D01*
X26054534Y-44130748D01*
X26101880Y-44123540D01*
X26169847Y-44112785D01*
X26227791Y-44102923D01*
X26270859Y-44094833D01*
X26294199Y-44089395D01*
X26296901Y-44088191D01*
X26302045Y-44074007D01*
X26313383Y-44038015D01*
X26329739Y-43984107D01*
X26349936Y-43916174D01*
X26372798Y-43838108D01*
X26379658Y-43814474D01*
X26406405Y-43723218D01*
X26429009Y-43650221D01*
X26450141Y-43589005D01*
X26472473Y-43533092D01*
X26498673Y-43476004D01*
X26531413Y-43411263D01*
X26573363Y-43332390D01*
X26594579Y-43293106D01*
X26643308Y-43203971D01*
X26684101Y-43132399D01*
X26721214Y-43072156D01*
X26758904Y-43017009D01*
X26801429Y-42960726D01*
X26853043Y-42897074D01*
X26916995Y-42821011D01*
X26982767Y-42744154D01*
X27037323Y-42682752D01*
X27086188Y-42631533D01*
X27134887Y-42585225D01*
X27188944Y-42538558D01*
X27253884Y-42486258D01*
X27329064Y-42427808D01*
X27409116Y-42366611D01*
X27474784Y-42318208D01*
X27532496Y-42278635D01*
X27588679Y-42243926D01*
X27649758Y-42210116D01*
X27722162Y-42173240D01*
X27812318Y-42129333D01*
X27814688Y-42128191D01*
X27902683Y-42086091D01*
X27973324Y-42053465D01*
X28033232Y-42027954D01*
X28089028Y-42007196D01*
X28147333Y-41988830D01*
X28214767Y-41970495D01*
X28297950Y-41949830D01*
X28350051Y-41937278D01*
X28442282Y-41915310D01*
X28515475Y-41898680D01*
X28576273Y-41886497D01*
X28631317Y-41877869D01*
X28687249Y-41871906D01*
X28750710Y-41867715D01*
X28828342Y-41864405D01*
X28914752Y-41861477D01*
X29202597Y-41852079D01*
X29475746Y-41901718D01*
X29568780Y-41918900D01*
X29643241Y-41933752D01*
X29705814Y-41948229D01*
X29763182Y-41964287D01*
X29822030Y-41983881D01*
X29889041Y-42008967D01*
X29970902Y-42041501D01*
X30016263Y-42059863D01*
X30107217Y-42097123D01*
X30180064Y-42128275D01*
X30241048Y-42156672D01*
X30296414Y-42185665D01*
X30352408Y-42218609D01*
X30415275Y-42258856D01*
X30491260Y-42309758D01*
X30527059Y-42334080D01*
X30610727Y-42391496D01*
X30677559Y-42438986D01*
X30733100Y-42481252D01*
X30782895Y-42522995D01*
X30832490Y-42568917D01*
X30887428Y-42623720D01*
X30953257Y-42692104D01*
X30969611Y-42709290D01*
X31039165Y-42783086D01*
X31094449Y-42843861D01*
X31140036Y-42897560D01*
X31180497Y-42950131D01*
X31220407Y-43007519D01*
X31264337Y-43075673D01*
X31316861Y-43160537D01*
X31317837Y-43162129D01*
X31368932Y-43246146D01*
X31408948Y-43314313D01*
X31440988Y-43373169D01*
X31468158Y-43429252D01*
X31493563Y-43489101D01*
X31520308Y-43559253D01*
X31551498Y-43646246D01*
X31562258Y-43676814D01*
X31590794Y-43757330D01*
X31616788Y-43829329D01*
X31638816Y-43888972D01*
X31655453Y-43932419D01*
X31665274Y-43955833D01*
X31666872Y-43958626D01*
X31682639Y-43963460D01*
X31719397Y-43969801D01*
X31771693Y-43977067D01*
X31834073Y-43984680D01*
X31901084Y-43992060D01*
X31967273Y-43998627D01*
X32027184Y-44003801D01*
X32075364Y-44007003D01*
X32106361Y-44007653D01*
X32114940Y-44006253D01*
X32113292Y-43991984D01*
X32104849Y-43955682D01*
X32090562Y-43900903D01*
X32071380Y-43831205D01*
X32048252Y-43750143D01*
X32028814Y-43683772D01*
X31999539Y-43585334D01*
X31975393Y-43506651D01*
X31953997Y-43441967D01*
X31932974Y-43385524D01*
X31909943Y-43331568D01*
X31882528Y-43274342D01*
X31848349Y-43208091D01*
X31805029Y-43127057D01*
X31778365Y-43077658D01*
X31728966Y-42986585D01*
X31688449Y-42913622D01*
X31653247Y-42853569D01*
X31619796Y-42801230D01*
X31584530Y-42751406D01*
X31543885Y-42698898D01*
X31494295Y-42638510D01*
X31432195Y-42565043D01*
X31404371Y-42532375D01*
X31335905Y-42452354D01*
X31280009Y-42388379D01*
X31232046Y-42336033D01*
X31187375Y-42290901D01*
X31141356Y-42248567D01*
X31089352Y-42204614D01*
X31026721Y-42154628D01*
X30948826Y-42094192D01*
X30923590Y-42074751D01*
X30840967Y-42011341D01*
X30774068Y-41960993D01*
X30717531Y-41920417D01*
X30665993Y-41886317D01*
X30614091Y-41855403D01*
X30556464Y-41824382D01*
X30487749Y-41789960D01*
X30402584Y-41748845D01*
X30358577Y-41727813D01*
X30057468Y-41584052D01*
X29414684Y-41429140D01*
X29067105Y-41421038D01*
X28719526Y-41412935D01*
X28404335Y-41472714D01*
G36*
X29207473Y-44106634D02*
G01*
X28901897Y-44114093D01*
X28606736Y-44125858D01*
X28316589Y-44142364D01*
X28026051Y-44164047D01*
X27729719Y-44191345D01*
X27422189Y-44224693D01*
X27098058Y-44264528D01*
X26861315Y-44296105D01*
X26746957Y-44312257D01*
X26621295Y-44330826D01*
X26487034Y-44351351D01*
X26346878Y-44373368D01*
X26203532Y-44396416D01*
X26059699Y-44420033D01*
X25918086Y-44443757D01*
X25781396Y-44467125D01*
X25652333Y-44489676D01*
X25533602Y-44510947D01*
X25427908Y-44530476D01*
X25337955Y-44547801D01*
X25266448Y-44562460D01*
X25216091Y-44573990D01*
X25190263Y-44581643D01*
X25193014Y-44585141D01*
X25218794Y-44587292D01*
X25263924Y-44587996D01*
X25324725Y-44587155D01*
X25358112Y-44586183D01*
X25470418Y-44583806D01*
X25588743Y-44584158D01*
X25714711Y-44587397D01*
X25849942Y-44593684D01*
X25996060Y-44603176D01*
X26154686Y-44616033D01*
X26327442Y-44632414D01*
X26515952Y-44652477D01*
X26721837Y-44676382D01*
X26946719Y-44704288D01*
X27192221Y-44736354D01*
X27459964Y-44772738D01*
X27751572Y-44813599D01*
X27910737Y-44836319D01*
X28141691Y-44869176D01*
X28349067Y-44898025D01*
X28535667Y-44923210D01*
X28704293Y-44945075D01*
X28857746Y-44963965D01*
X28998829Y-44980223D01*
X29130344Y-44994193D01*
X29255092Y-45006219D01*
X29375876Y-45016644D01*
X29387037Y-45017547D01*
X29481069Y-45023939D01*
X29594457Y-45029756D01*
X29721571Y-45034866D01*
X29856779Y-45039139D01*
X29994451Y-45042443D01*
X30128956Y-45044646D01*
X30254664Y-45045617D01*
X30365943Y-45045225D01*
X30457164Y-45043338D01*
X30470789Y-45042838D01*
X30717049Y-45031000D01*
X30958983Y-45015375D01*
X31194539Y-44996264D01*
X31421664Y-44973965D01*
X31638308Y-44948778D01*
X31842417Y-44921004D01*
X32031940Y-44890941D01*
X32204824Y-44858890D01*
X32359019Y-44825150D01*
X32492472Y-44790020D01*
X32603130Y-44753800D01*
X32682972Y-44719808D01*
X32749428Y-44682322D01*
X32791824Y-44646934D01*
X32812404Y-44610949D01*
X32813414Y-44571674D01*
X32811928Y-44564979D01*
X32789123Y-44526634D01*
X32741017Y-44488823D01*
X32669040Y-44451727D01*
X32574626Y-44415530D01*
X32459207Y-44380412D01*
X32324215Y-44346557D01*
X32171082Y-44314146D01*
X32001241Y-44283361D01*
X31816124Y-44254386D01*
X31617163Y-44227401D01*
X31405791Y-44202588D01*
X31183439Y-44180131D01*
X30951541Y-44160211D01*
X30711529Y-44143011D01*
X30464834Y-44128711D01*
X30212890Y-44117496D01*
X29957128Y-44109546D01*
X29698981Y-44105044D01*
X29439881Y-44104172D01*
X29207473Y-44106634D01*
X29207473Y-44106634D01*
G37*
X29207473Y-44106634D02*
X28901897Y-44114093D01*
X28606736Y-44125858D01*
X28316589Y-44142364D01*
X28026051Y-44164047D01*
X27729719Y-44191345D01*
X27422189Y-44224693D01*
X27098058Y-44264528D01*
X26861315Y-44296105D01*
X26746957Y-44312257D01*
X26621295Y-44330826D01*
X26487034Y-44351351D01*
X26346878Y-44373368D01*
X26203532Y-44396416D01*
X26059699Y-44420033D01*
X25918086Y-44443757D01*
X25781396Y-44467125D01*
X25652333Y-44489676D01*
X25533602Y-44510947D01*
X25427908Y-44530476D01*
X25337955Y-44547801D01*
X25266448Y-44562460D01*
X25216091Y-44573990D01*
X25190263Y-44581643D01*
X25193014Y-44585141D01*
X25218794Y-44587292D01*
X25263924Y-44587996D01*
X25324725Y-44587155D01*
X25358112Y-44586183D01*
X25470418Y-44583806D01*
X25588743Y-44584158D01*
X25714711Y-44587397D01*
X25849942Y-44593684D01*
X25996060Y-44603176D01*
X26154686Y-44616033D01*
X26327442Y-44632414D01*
X26515952Y-44652477D01*
X26721837Y-44676382D01*
X26946719Y-44704288D01*
X27192221Y-44736354D01*
X27459964Y-44772738D01*
X27751572Y-44813599D01*
X27910737Y-44836319D01*
X28141691Y-44869176D01*
X28349067Y-44898025D01*
X28535667Y-44923210D01*
X28704293Y-44945075D01*
X28857746Y-44963965D01*
X28998829Y-44980223D01*
X29130344Y-44994193D01*
X29255092Y-45006219D01*
X29375876Y-45016644D01*
X29387037Y-45017547D01*
X29481069Y-45023939D01*
X29594457Y-45029756D01*
X29721571Y-45034866D01*
X29856779Y-45039139D01*
X29994451Y-45042443D01*
X30128956Y-45044646D01*
X30254664Y-45045617D01*
X30365943Y-45045225D01*
X30457164Y-45043338D01*
X30470789Y-45042838D01*
X30717049Y-45031000D01*
X30958983Y-45015375D01*
X31194539Y-44996264D01*
X31421664Y-44973965D01*
X31638308Y-44948778D01*
X31842417Y-44921004D01*
X32031940Y-44890941D01*
X32204824Y-44858890D01*
X32359019Y-44825150D01*
X32492472Y-44790020D01*
X32603130Y-44753800D01*
X32682972Y-44719808D01*
X32749428Y-44682322D01*
X32791824Y-44646934D01*
X32812404Y-44610949D01*
X32813414Y-44571674D01*
X32811928Y-44564979D01*
X32789123Y-44526634D01*
X32741017Y-44488823D01*
X32669040Y-44451727D01*
X32574626Y-44415530D01*
X32459207Y-44380412D01*
X32324215Y-44346557D01*
X32171082Y-44314146D01*
X32001241Y-44283361D01*
X31816124Y-44254386D01*
X31617163Y-44227401D01*
X31405791Y-44202588D01*
X31183439Y-44180131D01*
X30951541Y-44160211D01*
X30711529Y-44143011D01*
X30464834Y-44128711D01*
X30212890Y-44117496D01*
X29957128Y-44109546D01*
X29698981Y-44105044D01*
X29439881Y-44104172D01*
X29207473Y-44106634D01*
G36*
X25830390Y-44894417D02*
G01*
X25831554Y-44908339D01*
X25837462Y-44944865D01*
X25847453Y-45000410D01*
X25860868Y-45071394D01*
X25877049Y-45154234D01*
X25891392Y-45225897D01*
X25957401Y-45552369D01*
X26088552Y-45853548D01*
X26130090Y-45948476D01*
X26164337Y-46024633D01*
X26194426Y-46087574D01*
X26223493Y-46142855D01*
X26254673Y-46196029D01*
X26291101Y-46252651D01*
X26335912Y-46318275D01*
X26392241Y-46398457D01*
X26411343Y-46425458D01*
X26471025Y-46509474D01*
X26519866Y-46576816D01*
X26561964Y-46632124D01*
X26601413Y-46680034D01*
X26642312Y-46725187D01*
X26688756Y-46772219D01*
X26744841Y-46825769D01*
X26814664Y-46890476D01*
X26853743Y-46926384D01*
X26931638Y-46997674D01*
X26994868Y-47054483D01*
X27048390Y-47100492D01*
X27097163Y-47139378D01*
X27146145Y-47174821D01*
X27200295Y-47210499D01*
X27264571Y-47250091D01*
X27343931Y-47297276D01*
X27390783Y-47324847D01*
X27480093Y-47377189D01*
X27552023Y-47418515D01*
X27612222Y-47451395D01*
X27666336Y-47478397D01*
X27720013Y-47502092D01*
X27778902Y-47525050D01*
X27848649Y-47549840D01*
X27934903Y-47579033D01*
X27989307Y-47597191D01*
X28301549Y-47701267D01*
X28630853Y-47739473D01*
X28723037Y-47749997D01*
X28807442Y-47759310D01*
X28880105Y-47766999D01*
X28937060Y-47772654D01*
X28974343Y-47775863D01*
X28986894Y-47776423D01*
X29007470Y-47774772D01*
X29050507Y-47770829D01*
X29111869Y-47764993D01*
X29187415Y-47757658D01*
X29273007Y-47749221D01*
X29321882Y-47744353D01*
X29630134Y-47713538D01*
X29947209Y-47613064D01*
X30045745Y-47581712D01*
X30124492Y-47555923D01*
X30189128Y-47533221D01*
X30245332Y-47511128D01*
X30298786Y-47487167D01*
X30355166Y-47458862D01*
X30420154Y-47423735D01*
X30499427Y-47379309D01*
X30553971Y-47348430D01*
X30645018Y-47296624D01*
X30717915Y-47254172D01*
X30777846Y-47217372D01*
X30829994Y-47182522D01*
X30879542Y-47145922D01*
X30931673Y-47103870D01*
X30991572Y-47052665D01*
X31064421Y-46988606D01*
X31091697Y-46964448D01*
X31170018Y-46894753D01*
X31232679Y-46837773D01*
X31284039Y-46788752D01*
X31328455Y-46742934D01*
X31370286Y-46695563D01*
X31413888Y-46641884D01*
X31463620Y-46577142D01*
X31523840Y-46496579D01*
X31538434Y-46476925D01*
X31600248Y-46393404D01*
X31649267Y-46325894D01*
X31688661Y-46269015D01*
X31721598Y-46217386D01*
X31751246Y-46165628D01*
X31780775Y-46108359D01*
X31813352Y-46040199D01*
X31852146Y-45955768D01*
X31875149Y-45905143D01*
X31922885Y-45798707D01*
X31960907Y-45710467D01*
X31991365Y-45634657D01*
X32016411Y-45565514D01*
X32038196Y-45497272D01*
X32058872Y-45424168D01*
X32069058Y-45385567D01*
X32087321Y-45313844D01*
X32102488Y-45251745D01*
X32113551Y-45203614D01*
X32119500Y-45173790D01*
X32120027Y-45166066D01*
X32104235Y-45165014D01*
X32067409Y-45167073D01*
X32014986Y-45171610D01*
X31952407Y-45177991D01*
X31885110Y-45185584D01*
X31818533Y-45193755D01*
X31758116Y-45201871D01*
X31709297Y-45209299D01*
X31677515Y-45215406D01*
X31668200Y-45218664D01*
X31660146Y-45234725D01*
X31645043Y-45272116D01*
X31624393Y-45326834D01*
X31599699Y-45394877D01*
X31572464Y-45472242D01*
X31566146Y-45490504D01*
X31534543Y-45580957D01*
X31507611Y-45653883D01*
X31482255Y-45715880D01*
X31455383Y-45773548D01*
X31423900Y-45833486D01*
X31384713Y-45902292D01*
X31334728Y-45986566D01*
X31329509Y-45995277D01*
X31277817Y-46080714D01*
X31234691Y-46149249D01*
X31195671Y-46206792D01*
X31156299Y-46259253D01*
X31112114Y-46312541D01*
X31058658Y-46372566D01*
X30991471Y-46445236D01*
X30983637Y-46453628D01*
X30914203Y-46527371D01*
X30857016Y-46586052D01*
X30806477Y-46634518D01*
X30756989Y-46677619D01*
X30702955Y-46720203D01*
X30638777Y-46767120D01*
X30558858Y-46823217D01*
X30549465Y-46829741D01*
X30466648Y-46886739D01*
X30398923Y-46931666D01*
X30339730Y-46968136D01*
X30282507Y-46999765D01*
X30220695Y-47030165D01*
X30147732Y-47062952D01*
X30057058Y-47101740D01*
X30051412Y-47104125D01*
X29963117Y-47141159D01*
X29892089Y-47169868D01*
X29831773Y-47192236D01*
X29775618Y-47210249D01*
X29717071Y-47225891D01*
X29649577Y-47241148D01*
X29566585Y-47258005D01*
X29501579Y-47270692D01*
X29214158Y-47326431D01*
X28926737Y-47317241D01*
X28830334Y-47313985D01*
X28753931Y-47310578D01*
X28690801Y-47306146D01*
X28634215Y-47299811D01*
X28577448Y-47290697D01*
X28513771Y-47277928D01*
X28436458Y-47260628D01*
X28365263Y-47244103D01*
X28270720Y-47221745D01*
X28195436Y-47202766D01*
X28132583Y-47184790D01*
X28075332Y-47165442D01*
X28016853Y-47142346D01*
X27950318Y-47113126D01*
X27868897Y-47075408D01*
X27836446Y-47060149D01*
X27747442Y-47017749D01*
X27675525Y-46981879D01*
X27614377Y-46948711D01*
X27557680Y-46914419D01*
X27499115Y-46875175D01*
X27432365Y-46827151D01*
X27351111Y-46766519D01*
X27348499Y-46764553D01*
X27267758Y-46703251D01*
X27203365Y-46652618D01*
X27149989Y-46607675D01*
X27102296Y-46563447D01*
X27054953Y-46514957D01*
X27002626Y-46457227D01*
X26939984Y-46385282D01*
X26931458Y-46375385D01*
X26866375Y-46299052D01*
X26814483Y-46235770D01*
X26771415Y-46179253D01*
X26732803Y-46123214D01*
X26694281Y-46061365D01*
X26651481Y-45987419D01*
X26608588Y-45910562D01*
X26560978Y-45823857D01*
X26523842Y-45753742D01*
X26494373Y-45693603D01*
X26469764Y-45636827D01*
X26447209Y-45576797D01*
X26423902Y-45506901D01*
X26397034Y-45420523D01*
X26387839Y-45390337D01*
X26361878Y-45303101D01*
X26337604Y-45218187D01*
X26316548Y-45141212D01*
X26300240Y-45077790D01*
X26290212Y-45033536D01*
X26289453Y-45029505D01*
X26272806Y-44937652D01*
X26054102Y-44913531D01*
X25980789Y-44905766D01*
X25917312Y-44899652D01*
X25868188Y-44895575D01*
X25837931Y-44893921D01*
X25830390Y-44894417D01*
X25830390Y-44894417D01*
G37*
X25830390Y-44894417D02*
X25831554Y-44908339D01*
X25837462Y-44944865D01*
X25847453Y-45000410D01*
X25860868Y-45071394D01*
X25877049Y-45154234D01*
X25891392Y-45225897D01*
X25957401Y-45552369D01*
X26088552Y-45853548D01*
X26130090Y-45948476D01*
X26164337Y-46024633D01*
X26194426Y-46087574D01*
X26223493Y-46142855D01*
X26254673Y-46196029D01*
X26291101Y-46252651D01*
X26335912Y-46318275D01*
X26392241Y-46398457D01*
X26411343Y-46425458D01*
X26471025Y-46509474D01*
X26519866Y-46576816D01*
X26561964Y-46632124D01*
X26601413Y-46680034D01*
X26642312Y-46725187D01*
X26688756Y-46772219D01*
X26744841Y-46825769D01*
X26814664Y-46890476D01*
X26853743Y-46926384D01*
X26931638Y-46997674D01*
X26994868Y-47054483D01*
X27048390Y-47100492D01*
X27097163Y-47139378D01*
X27146145Y-47174821D01*
X27200295Y-47210499D01*
X27264571Y-47250091D01*
X27343931Y-47297276D01*
X27390783Y-47324847D01*
X27480093Y-47377189D01*
X27552023Y-47418515D01*
X27612222Y-47451395D01*
X27666336Y-47478397D01*
X27720013Y-47502092D01*
X27778902Y-47525050D01*
X27848649Y-47549840D01*
X27934903Y-47579033D01*
X27989307Y-47597191D01*
X28301549Y-47701267D01*
X28630853Y-47739473D01*
X28723037Y-47749997D01*
X28807442Y-47759310D01*
X28880105Y-47766999D01*
X28937060Y-47772654D01*
X28974343Y-47775863D01*
X28986894Y-47776423D01*
X29007470Y-47774772D01*
X29050507Y-47770829D01*
X29111869Y-47764993D01*
X29187415Y-47757658D01*
X29273007Y-47749221D01*
X29321882Y-47744353D01*
X29630134Y-47713538D01*
X29947209Y-47613064D01*
X30045745Y-47581712D01*
X30124492Y-47555923D01*
X30189128Y-47533221D01*
X30245332Y-47511128D01*
X30298786Y-47487167D01*
X30355166Y-47458862D01*
X30420154Y-47423735D01*
X30499427Y-47379309D01*
X30553971Y-47348430D01*
X30645018Y-47296624D01*
X30717915Y-47254172D01*
X30777846Y-47217372D01*
X30829994Y-47182522D01*
X30879542Y-47145922D01*
X30931673Y-47103870D01*
X30991572Y-47052665D01*
X31064421Y-46988606D01*
X31091697Y-46964448D01*
X31170018Y-46894753D01*
X31232679Y-46837773D01*
X31284039Y-46788752D01*
X31328455Y-46742934D01*
X31370286Y-46695563D01*
X31413888Y-46641884D01*
X31463620Y-46577142D01*
X31523840Y-46496579D01*
X31538434Y-46476925D01*
X31600248Y-46393404D01*
X31649267Y-46325894D01*
X31688661Y-46269015D01*
X31721598Y-46217386D01*
X31751246Y-46165628D01*
X31780775Y-46108359D01*
X31813352Y-46040199D01*
X31852146Y-45955768D01*
X31875149Y-45905143D01*
X31922885Y-45798707D01*
X31960907Y-45710467D01*
X31991365Y-45634657D01*
X32016411Y-45565514D01*
X32038196Y-45497272D01*
X32058872Y-45424168D01*
X32069058Y-45385567D01*
X32087321Y-45313844D01*
X32102488Y-45251745D01*
X32113551Y-45203614D01*
X32119500Y-45173790D01*
X32120027Y-45166066D01*
X32104235Y-45165014D01*
X32067409Y-45167073D01*
X32014986Y-45171610D01*
X31952407Y-45177991D01*
X31885110Y-45185584D01*
X31818533Y-45193755D01*
X31758116Y-45201871D01*
X31709297Y-45209299D01*
X31677515Y-45215406D01*
X31668200Y-45218664D01*
X31660146Y-45234725D01*
X31645043Y-45272116D01*
X31624393Y-45326834D01*
X31599699Y-45394877D01*
X31572464Y-45472242D01*
X31566146Y-45490504D01*
X31534543Y-45580957D01*
X31507611Y-45653883D01*
X31482255Y-45715880D01*
X31455383Y-45773548D01*
X31423900Y-45833486D01*
X31384713Y-45902292D01*
X31334728Y-45986566D01*
X31329509Y-45995277D01*
X31277817Y-46080714D01*
X31234691Y-46149249D01*
X31195671Y-46206792D01*
X31156299Y-46259253D01*
X31112114Y-46312541D01*
X31058658Y-46372566D01*
X30991471Y-46445236D01*
X30983637Y-46453628D01*
X30914203Y-46527371D01*
X30857016Y-46586052D01*
X30806477Y-46634518D01*
X30756989Y-46677619D01*
X30702955Y-46720203D01*
X30638777Y-46767120D01*
X30558858Y-46823217D01*
X30549465Y-46829741D01*
X30466648Y-46886739D01*
X30398923Y-46931666D01*
X30339730Y-46968136D01*
X30282507Y-46999765D01*
X30220695Y-47030165D01*
X30147732Y-47062952D01*
X30057058Y-47101740D01*
X30051412Y-47104125D01*
X29963117Y-47141159D01*
X29892089Y-47169868D01*
X29831773Y-47192236D01*
X29775618Y-47210249D01*
X29717071Y-47225891D01*
X29649577Y-47241148D01*
X29566585Y-47258005D01*
X29501579Y-47270692D01*
X29214158Y-47326431D01*
X28926737Y-47317241D01*
X28830334Y-47313985D01*
X28753931Y-47310578D01*
X28690801Y-47306146D01*
X28634215Y-47299811D01*
X28577448Y-47290697D01*
X28513771Y-47277928D01*
X28436458Y-47260628D01*
X28365263Y-47244103D01*
X28270720Y-47221745D01*
X28195436Y-47202766D01*
X28132583Y-47184790D01*
X28075332Y-47165442D01*
X28016853Y-47142346D01*
X27950318Y-47113126D01*
X27868897Y-47075408D01*
X27836446Y-47060149D01*
X27747442Y-47017749D01*
X27675525Y-46981879D01*
X27614377Y-46948711D01*
X27557680Y-46914419D01*
X27499115Y-46875175D01*
X27432365Y-46827151D01*
X27351111Y-46766519D01*
X27348499Y-46764553D01*
X27267758Y-46703251D01*
X27203365Y-46652618D01*
X27149989Y-46607675D01*
X27102296Y-46563447D01*
X27054953Y-46514957D01*
X27002626Y-46457227D01*
X26939984Y-46385282D01*
X26931458Y-46375385D01*
X26866375Y-46299052D01*
X26814483Y-46235770D01*
X26771415Y-46179253D01*
X26732803Y-46123214D01*
X26694281Y-46061365D01*
X26651481Y-45987419D01*
X26608588Y-45910562D01*
X26560978Y-45823857D01*
X26523842Y-45753742D01*
X26494373Y-45693603D01*
X26469764Y-45636827D01*
X26447209Y-45576797D01*
X26423902Y-45506901D01*
X26397034Y-45420523D01*
X26387839Y-45390337D01*
X26361878Y-45303101D01*
X26337604Y-45218187D01*
X26316548Y-45141212D01*
X26300240Y-45077790D01*
X26290212Y-45033536D01*
X26289453Y-45029505D01*
X26272806Y-44937652D01*
X26054102Y-44913531D01*
X25980789Y-44905766D01*
X25917312Y-44899652D01*
X25868188Y-44895575D01*
X25837931Y-44893921D01*
X25830390Y-44894417D01*
D12*
X260100000Y-93260000D03*
X17100000Y-93260000D03*
D13*
X262900000Y-85300000D03*
X264900000Y-85300000D03*
X260900000Y-85300000D03*
D14*
X164350420Y-95641147D03*
X159389353Y-90933502D03*
X245015000Y-72610000D03*
X251365000Y-70070000D03*
X46196250Y-85706875D03*
X52546250Y-83166875D03*
X43815000Y-66656875D03*
X50165000Y-64116875D03*
X5715000Y-72610000D03*
X12065000Y-70070000D03*
D15*
X21000000Y-88180000D03*
D16*
X21000000Y-90720000D03*
X21000000Y-93260000D03*
D17*
X21000000Y-95800000D03*
D18*
X263900000Y-93250000D03*
D19*
G36*
X264549865Y-94651202D02*
G01*
X264574095Y-94654796D01*
X264597855Y-94660748D01*
X264620918Y-94669000D01*
X264643061Y-94679472D01*
X264664070Y-94692065D01*
X264683745Y-94706657D01*
X264701894Y-94723106D01*
X264718343Y-94741255D01*
X264732935Y-94760930D01*
X264745528Y-94781939D01*
X264756000Y-94804082D01*
X264764252Y-94827145D01*
X264770204Y-94850905D01*
X264773798Y-94875135D01*
X264775000Y-94899600D01*
X264775000Y-95600400D01*
X264773798Y-95624865D01*
X264770204Y-95649095D01*
X264764252Y-95672855D01*
X264756000Y-95695918D01*
X264745528Y-95718061D01*
X264732935Y-95739070D01*
X264718343Y-95758745D01*
X264701894Y-95776894D01*
X264683745Y-95793343D01*
X264664070Y-95807935D01*
X264643061Y-95820528D01*
X264620918Y-95831000D01*
X264597855Y-95839252D01*
X264574095Y-95845204D01*
X264549865Y-95848798D01*
X264525400Y-95850000D01*
X263274600Y-95850000D01*
X263250135Y-95848798D01*
X263225905Y-95845204D01*
X263202145Y-95839252D01*
X263179082Y-95831000D01*
X263156939Y-95820528D01*
X263135930Y-95807935D01*
X263116255Y-95793343D01*
X263098106Y-95776894D01*
X263081657Y-95758745D01*
X263067065Y-95739070D01*
X263054472Y-95718061D01*
X263044000Y-95695918D01*
X263035748Y-95672855D01*
X263029796Y-95649095D01*
X263026202Y-95624865D01*
X263025000Y-95600400D01*
X263025000Y-94899600D01*
X263026202Y-94875135D01*
X263029796Y-94850905D01*
X263035748Y-94827145D01*
X263044000Y-94804082D01*
X263054472Y-94781939D01*
X263067065Y-94760930D01*
X263081657Y-94741255D01*
X263098106Y-94723106D01*
X263116255Y-94706657D01*
X263135930Y-94692065D01*
X263156939Y-94679472D01*
X263179082Y-94669000D01*
X263202145Y-94660748D01*
X263225905Y-94654796D01*
X263250135Y-94651202D01*
X263274600Y-94650000D01*
X264525400Y-94650000D01*
X264549865Y-94651202D01*
X264549865Y-94651202D01*
G37*
D13*
X263900000Y-95250000D03*
D18*
X13500000Y-95250000D03*
D19*
G36*
X14149865Y-92651202D02*
G01*
X14174095Y-92654796D01*
X14197855Y-92660748D01*
X14220918Y-92669000D01*
X14243061Y-92679472D01*
X14264070Y-92692065D01*
X14283745Y-92706657D01*
X14301894Y-92723106D01*
X14318343Y-92741255D01*
X14332935Y-92760930D01*
X14345528Y-92781939D01*
X14356000Y-92804082D01*
X14364252Y-92827145D01*
X14370204Y-92850905D01*
X14373798Y-92875135D01*
X14375000Y-92899600D01*
X14375000Y-93600400D01*
X14373798Y-93624865D01*
X14370204Y-93649095D01*
X14364252Y-93672855D01*
X14356000Y-93695918D01*
X14345528Y-93718061D01*
X14332935Y-93739070D01*
X14318343Y-93758745D01*
X14301894Y-93776894D01*
X14283745Y-93793343D01*
X14264070Y-93807935D01*
X14243061Y-93820528D01*
X14220918Y-93831000D01*
X14197855Y-93839252D01*
X14174095Y-93845204D01*
X14149865Y-93848798D01*
X14125400Y-93850000D01*
X12874600Y-93850000D01*
X12850135Y-93848798D01*
X12825905Y-93845204D01*
X12802145Y-93839252D01*
X12779082Y-93831000D01*
X12756939Y-93820528D01*
X12735930Y-93807935D01*
X12716255Y-93793343D01*
X12698106Y-93776894D01*
X12681657Y-93758745D01*
X12667065Y-93739070D01*
X12654472Y-93718061D01*
X12644000Y-93695918D01*
X12635748Y-93672855D01*
X12629796Y-93649095D01*
X12626202Y-93624865D01*
X12625000Y-93600400D01*
X12625000Y-92899600D01*
X12626202Y-92875135D01*
X12629796Y-92850905D01*
X12635748Y-92827145D01*
X12644000Y-92804082D01*
X12654472Y-92781939D01*
X12667065Y-92760930D01*
X12681657Y-92741255D01*
X12698106Y-92723106D01*
X12716255Y-92706657D01*
X12735930Y-92692065D01*
X12756939Y-92679472D01*
X12779082Y-92669000D01*
X12802145Y-92660748D01*
X12825905Y-92654796D01*
X12850135Y-92651202D01*
X12874600Y-92650000D01*
X14125400Y-92650000D01*
X14149865Y-92651202D01*
X14149865Y-92651202D01*
G37*
D13*
X13500000Y-93250000D03*
X12500000Y-85300000D03*
X14500000Y-85300000D03*
X10500000Y-85300000D03*
D15*
X256400000Y-88180000D03*
D16*
X256400000Y-90720000D03*
X256400000Y-93260000D03*
D17*
X256400000Y-95800000D03*
D14*
X264065000Y-72610000D03*
X270415000Y-70070000D03*
X120015000Y-60703750D03*
X126365000Y-58163750D03*
X175910664Y-91392500D03*
X181457560Y-87391745D03*
X5715000Y-34510000D03*
X12065000Y-31970000D03*
X24765000Y-34510000D03*
X31115000Y-31970000D03*
X81915000Y-29747499D03*
X88265000Y-27207499D03*
X100965000Y-32128750D03*
X107315000Y-29588750D03*
X5715000Y-53560000D03*
X12065000Y-51020000D03*
X24765000Y-53560000D03*
X31115000Y-51020000D03*
X43815000Y-47606875D03*
X50165000Y-45066875D03*
X62865000Y-44035000D03*
X69215000Y-41495000D03*
X81915000Y-48797500D03*
X88265000Y-46257500D03*
X100965000Y-51178750D03*
X107315000Y-48638750D03*
X120015000Y-41653750D03*
X126365000Y-39113750D03*
X24765000Y-72610000D03*
X31115000Y-70070000D03*
X62865000Y-63085000D03*
X69215000Y-60545000D03*
X81915000Y-67847500D03*
X88265000Y-65307500D03*
X100965000Y-70228750D03*
X107315000Y-67688750D03*
X94095682Y-89549055D03*
X100871541Y-88620708D03*
X264065000Y-34510000D03*
X270415000Y-31970000D03*
X245015000Y-34510000D03*
X251365000Y-31970000D03*
X225965000Y-28556875D03*
X232315000Y-26016875D03*
X206915000Y-24985000D03*
X213265000Y-22445000D03*
X187865000Y-29747499D03*
X194215000Y-27207499D03*
X168815000Y-32128750D03*
X175165000Y-29588750D03*
X264065000Y-53560000D03*
X270415000Y-51020000D03*
X245015000Y-53560000D03*
X251365000Y-51020000D03*
X225965000Y-47606875D03*
X232315000Y-45066875D03*
X206915000Y-44035000D03*
X213265000Y-41495000D03*
X187865000Y-48797500D03*
X194215000Y-46257500D03*
X168815000Y-51178750D03*
X175165000Y-48638750D03*
X149765000Y-41653750D03*
X156115000Y-39113750D03*
X225965000Y-66656875D03*
X232315000Y-64116875D03*
X206915000Y-63085000D03*
X213265000Y-60545000D03*
X187865000Y-67847500D03*
X194215000Y-65307500D03*
X168815000Y-70228750D03*
X175165000Y-67688750D03*
X149765000Y-60703750D03*
X156115000Y-58163750D03*
X43815000Y-28556875D03*
X50165000Y-26016875D03*
X62865000Y-24985000D03*
X69215000Y-22445000D03*
X71049207Y-86474349D03*
X77599859Y-84508884D03*
X223583750Y-85706875D03*
X229933750Y-83166875D03*
X198760959Y-87151724D03*
X204860028Y-84057301D03*
X114826499Y-97856335D03*
X115172344Y-91025925D03*
D20*
X38800000Y-92400000D03*
X25900000Y-84849996D03*
X5300000Y-83175000D03*
X39100000Y-82500000D03*
D21*
X34700000Y-81100000D03*
X255000000Y-82100000D03*
D20*
X238800000Y-96050000D03*
X238900000Y-84150000D03*
X272125000Y-83175000D03*
X251100000Y-83300000D03*
X243250000Y-91650000D03*
X242300000Y-92400000D03*
X17100000Y-90900001D03*
X244300000Y-90900000D03*
X252099976Y-90900000D03*
X258890002Y-91990000D03*
X19300000Y-85800000D03*
X28900000Y-85800010D03*
X246850000Y-85099996D03*
X258280000Y-85130000D03*
X34300000Y-85700000D03*
X242750000Y-85750000D03*
D22*
X14499960Y-85300000D02*
X18699960Y-81100000D01*
X34063604Y-81100000D02*
X34700000Y-81100000D01*
X18699960Y-81100000D02*
X34063604Y-81100000D01*
X256400000Y-95800000D02*
X256450000Y-95800000D01*
X264900000Y-87300000D02*
X264900000Y-85300000D01*
X262100000Y-90100000D02*
X264900000Y-87300000D01*
X262100000Y-94900000D02*
X262100000Y-90100000D01*
X256400000Y-95800000D02*
X261200000Y-95800000D01*
X261200000Y-95800000D02*
X262100000Y-94900000D01*
X255636396Y-82100000D02*
X255000000Y-82100000D01*
X261700032Y-82100000D02*
X255636396Y-82100000D01*
X264900000Y-85299968D02*
X261700032Y-82100000D01*
D23*
X252930000Y-91650000D02*
X256400000Y-88180000D01*
X243250000Y-91650000D02*
X252930000Y-91650000D01*
X254720000Y-92400000D02*
X256400000Y-90720000D01*
X242300000Y-92400000D02*
X254720000Y-92400000D01*
X17100000Y-93260000D02*
X17100000Y-90900001D01*
X244300000Y-90900000D02*
X252099976Y-90900000D01*
X260100000Y-93260000D02*
X258890002Y-92050002D01*
X258890002Y-92050002D02*
X258890002Y-91990000D01*
X19300000Y-85800000D02*
X28899990Y-85800000D01*
X28899990Y-85800000D02*
X28900000Y-85800010D01*
X258249996Y-85099996D02*
X258280000Y-85130000D01*
X246850000Y-85099996D02*
X258249996Y-85099996D01*
X5715000Y-34510000D02*
X24765000Y-34510000D01*
X77152501Y-24985000D02*
X81915000Y-29747499D01*
X62865000Y-24985000D02*
X77152501Y-24985000D01*
X98583749Y-29747499D02*
X100965000Y-32128750D01*
X81915000Y-29747499D02*
X98583749Y-29747499D01*
X110490000Y-32128750D02*
X120015000Y-41653750D01*
X100965000Y-32128750D02*
X110490000Y-32128750D01*
X5715000Y-53560000D02*
X24765000Y-53560000D01*
X77152500Y-44035000D02*
X81915000Y-48797500D01*
X62865000Y-44035000D02*
X77152500Y-44035000D01*
X98583750Y-48797500D02*
X100965000Y-51178750D01*
X81915000Y-48797500D02*
X98583750Y-48797500D01*
X110490000Y-51178750D02*
X120015000Y-60703750D01*
X100965000Y-51178750D02*
X110490000Y-51178750D01*
X5715000Y-72610000D02*
X24765000Y-72610000D01*
X77152500Y-63085000D02*
X81915000Y-67847500D01*
X62865000Y-63085000D02*
X77152500Y-63085000D01*
X98583750Y-67847500D02*
X100965000Y-70228750D01*
X81915000Y-67847500D02*
X98583750Y-67847500D01*
X71023556Y-86500000D02*
X71049207Y-86474349D01*
X68750000Y-86500000D02*
X71023556Y-86500000D01*
X46196250Y-85706875D02*
X67956875Y-85706875D01*
X67956875Y-85706875D02*
X68750000Y-86500000D01*
X91020976Y-86474349D02*
X94095682Y-89549055D01*
X71049207Y-86474349D02*
X91020976Y-86474349D01*
X114826499Y-97826499D02*
X114826499Y-97856335D01*
X108750000Y-91750000D02*
X114826499Y-97826499D01*
X100500000Y-91750000D02*
X108750000Y-91750000D01*
X94095682Y-89549055D02*
X98299055Y-89549055D01*
X98299055Y-89549055D02*
X100500000Y-91750000D01*
X43815000Y-83325625D02*
X46196250Y-85706875D01*
X43815000Y-66656875D02*
X43815000Y-83325625D01*
X34306875Y-85706875D02*
X34300000Y-85700000D01*
X46196250Y-85706875D02*
X34306875Y-85706875D01*
X5715000Y-34510000D02*
X5715000Y-72610000D01*
X42224010Y-28556875D02*
X43815000Y-28556875D01*
X39575126Y-28556875D02*
X42224010Y-28556875D01*
X24765000Y-34510000D02*
X33622001Y-34510000D01*
X33622001Y-34510000D02*
X39575126Y-28556875D01*
X39593125Y-47606875D02*
X43815000Y-47606875D01*
X24765000Y-53560000D02*
X33640000Y-53560000D01*
X33640000Y-53560000D02*
X39593125Y-47606875D01*
X39643125Y-66656875D02*
X43815000Y-66656875D01*
X24765000Y-72610000D02*
X33690000Y-72610000D01*
X33690000Y-72610000D02*
X39643125Y-66656875D01*
X58815000Y-63085000D02*
X62865000Y-63085000D01*
X43815000Y-66656875D02*
X55243125Y-66656875D01*
X55243125Y-66656875D02*
X58815000Y-63085000D01*
X58765000Y-44035000D02*
X62865000Y-44035000D01*
X43815000Y-47606875D02*
X55193125Y-47606875D01*
X55193125Y-47606875D02*
X58765000Y-44035000D01*
X58815000Y-24985000D02*
X62865000Y-24985000D01*
X43815000Y-28556875D02*
X55243125Y-28556875D01*
X55243125Y-28556875D02*
X58815000Y-24985000D01*
X264065000Y-34510000D02*
X245015000Y-34510000D01*
X239061875Y-28556875D02*
X225965000Y-28556875D01*
X245015000Y-34510000D02*
X239061875Y-28556875D01*
X149765000Y-41653750D02*
X157346250Y-41653750D01*
X166871250Y-32128750D02*
X168815000Y-32128750D01*
X157346250Y-41653750D02*
X166871250Y-32128750D01*
X149765000Y-60703750D02*
X157296250Y-60703750D01*
X166821250Y-51178750D02*
X168815000Y-51178750D01*
X157296250Y-60703750D02*
X166821250Y-51178750D01*
X222393125Y-44035000D02*
X225965000Y-47606875D01*
X206915000Y-44035000D02*
X222393125Y-44035000D01*
X239061875Y-47606875D02*
X245015000Y-53560000D01*
X225965000Y-47606875D02*
X239061875Y-47606875D01*
X245015000Y-53560000D02*
X264065000Y-53560000D01*
X245015000Y-72610000D02*
X264065000Y-72610000D01*
X239061875Y-66656875D02*
X245015000Y-72610000D01*
X225965000Y-66656875D02*
X239061875Y-66656875D01*
X222393125Y-63085000D02*
X225965000Y-66656875D01*
X206915000Y-63085000D02*
X222393125Y-63085000D01*
X175451666Y-90933502D02*
X175910664Y-91392500D01*
X159389353Y-90933502D02*
X175451666Y-90933502D01*
X225965000Y-83325625D02*
X223583750Y-85706875D01*
X225965000Y-66656875D02*
X225965000Y-83325625D01*
X223583750Y-85706875D02*
X242706875Y-85706875D01*
X242706875Y-85706875D02*
X242750000Y-85750000D01*
X195948276Y-87151724D02*
X198760959Y-87151724D01*
X193350000Y-89750000D02*
X195948276Y-87151724D01*
X175910664Y-91392500D02*
X177553164Y-89750000D01*
X177553164Y-89750000D02*
X193350000Y-89750000D01*
X223290625Y-86000000D02*
X223583750Y-85706875D01*
X201900000Y-86000000D02*
X223290625Y-86000000D01*
X200750000Y-87150000D02*
X201900000Y-86000000D01*
X198760959Y-87151724D02*
X198762683Y-87150000D01*
X198762683Y-87150000D02*
X200750000Y-87150000D01*
X264065000Y-34510000D02*
X264065000Y-72610000D01*
X206915000Y-24985000D02*
X222393125Y-24985000D01*
X224840001Y-27431876D02*
X225965000Y-28556875D01*
X222393125Y-24985000D02*
X224840001Y-27431876D01*
X196452500Y-67847500D02*
X187865000Y-67847500D01*
X206915000Y-63085000D02*
X201215000Y-63085000D01*
X201215000Y-63085000D02*
X196452500Y-67847500D01*
X201165000Y-44035000D02*
X206915000Y-44035000D01*
X187865000Y-48797500D02*
X196402500Y-48797500D01*
X196402500Y-48797500D02*
X201165000Y-44035000D01*
X205324010Y-24985000D02*
X206915000Y-24985000D01*
X201215000Y-24985000D02*
X205324010Y-24985000D01*
X187865000Y-29747499D02*
X196452501Y-29747499D01*
X196452501Y-29747499D02*
X201215000Y-24985000D01*
X182152500Y-67847500D02*
X187865000Y-67847500D01*
X168815000Y-70228750D02*
X179771250Y-70228750D01*
X179771250Y-70228750D02*
X182152500Y-67847500D01*
X182152500Y-48797500D02*
X187865000Y-48797500D01*
X168815000Y-51178750D02*
X179771250Y-51178750D01*
X179771250Y-51178750D02*
X182152500Y-48797500D01*
X182177501Y-29747499D02*
X187865000Y-29747499D01*
X168815000Y-32128750D02*
X179796250Y-32128750D01*
X179796250Y-32128750D02*
X182177501Y-29747499D01*
D24*
G36*
X276665001Y-85735917D02*
G01*
X276656496Y-85822660D01*
X276641746Y-85871514D01*
X276617788Y-85916573D01*
X276585534Y-85956120D01*
X276546215Y-85988647D01*
X276501329Y-86012917D01*
X276452573Y-86028009D01*
X276368235Y-86036874D01*
X273663895Y-86036874D01*
X273632496Y-86039967D01*
X273626402Y-86039924D01*
X273616188Y-86040925D01*
X273422091Y-86061326D01*
X273356843Y-86074719D01*
X273291402Y-86087203D01*
X273281577Y-86090169D01*
X273095139Y-86147881D01*
X273033720Y-86173699D01*
X272971962Y-86198651D01*
X272962901Y-86203469D01*
X272791224Y-86296294D01*
X272735977Y-86333559D01*
X272680252Y-86370024D01*
X272672299Y-86376510D01*
X272521921Y-86500914D01*
X272474944Y-86548220D01*
X272427387Y-86594791D01*
X272420845Y-86602698D01*
X272297495Y-86753940D01*
X272260608Y-86809459D01*
X272222994Y-86864394D01*
X272218112Y-86873421D01*
X272126487Y-87045743D01*
X272101086Y-87107370D01*
X272074859Y-87168563D01*
X272071824Y-87178366D01*
X272015415Y-87365202D01*
X272002467Y-87430594D01*
X271988626Y-87495710D01*
X271987553Y-87505916D01*
X271968508Y-87700150D01*
X271965000Y-87735770D01*
X271965001Y-96735918D01*
X271956496Y-96822661D01*
X271941746Y-96871515D01*
X271917788Y-96916574D01*
X271885534Y-96956121D01*
X271846215Y-96988648D01*
X271801329Y-97012918D01*
X271752573Y-97028010D01*
X271668235Y-97036875D01*
X267363895Y-97036875D01*
X267332496Y-97039968D01*
X267326402Y-97039925D01*
X267316188Y-97040926D01*
X267122091Y-97061327D01*
X267056843Y-97074720D01*
X266991402Y-97087204D01*
X266981577Y-97090170D01*
X266795139Y-97147882D01*
X266740290Y-97170938D01*
X266689043Y-97094242D01*
X266545758Y-96950957D01*
X266377272Y-96838378D01*
X266190061Y-96760833D01*
X265991318Y-96721300D01*
X265788682Y-96721300D01*
X265589939Y-96760833D01*
X265402728Y-96838378D01*
X265255000Y-96937087D01*
X265127000Y-96851560D01*
X265127000Y-96249481D01*
X265153079Y-96228079D01*
X265263472Y-96093564D01*
X265345502Y-95940097D01*
X265396016Y-95773576D01*
X265413072Y-95600400D01*
X265413072Y-94899600D01*
X265396016Y-94726424D01*
X265345502Y-94559903D01*
X265263472Y-94406436D01*
X265153079Y-94271921D01*
X265018564Y-94161528D01*
X265013699Y-94158927D01*
X265138078Y-94033474D01*
X265272421Y-93830533D01*
X265364591Y-93605282D01*
X265368462Y-93567609D01*
X265243731Y-93377000D01*
X264027000Y-93377000D01*
X264027000Y-93397000D01*
X263773000Y-93397000D01*
X263773000Y-93377000D01*
X263753000Y-93377000D01*
X263753000Y-93123000D01*
X263773000Y-93123000D01*
X263773000Y-92015000D01*
X264027000Y-92015000D01*
X264027000Y-93123000D01*
X265243731Y-93123000D01*
X265368462Y-92932391D01*
X265364591Y-92894718D01*
X265272421Y-92669467D01*
X265138078Y-92466526D01*
X264966725Y-92293693D01*
X264764946Y-92157610D01*
X264540496Y-92063507D01*
X264302000Y-92015000D01*
X264027000Y-92015000D01*
X263773000Y-92015000D01*
X263498000Y-92015000D01*
X263259504Y-92063507D01*
X263035054Y-92157610D01*
X262935000Y-92225088D01*
X262935000Y-90445867D01*
X265461428Y-87919440D01*
X265493291Y-87893291D01*
X265597636Y-87766146D01*
X265675172Y-87621087D01*
X265722918Y-87463689D01*
X265735000Y-87341019D01*
X265735000Y-87341018D01*
X265739040Y-87300000D01*
X265735000Y-87258982D01*
X265735000Y-86211554D01*
X265859287Y-86087267D01*
X265994443Y-85884992D01*
X266087540Y-85660236D01*
X266135000Y-85421637D01*
X266135000Y-85178363D01*
X266087540Y-84939764D01*
X265994443Y-84715008D01*
X265859287Y-84512733D01*
X265687267Y-84340713D01*
X265484992Y-84205557D01*
X265260236Y-84112460D01*
X265021637Y-84065000D01*
X264845900Y-84065000D01*
X262319478Y-81538579D01*
X262293323Y-81506709D01*
X262166178Y-81402364D01*
X262021119Y-81324828D01*
X261863721Y-81277082D01*
X261741051Y-81265000D01*
X261741050Y-81265000D01*
X261700032Y-81260960D01*
X261659014Y-81265000D01*
X255699422Y-81265000D01*
X255691647Y-81257225D01*
X255513940Y-81138485D01*
X255316483Y-81056696D01*
X255106863Y-81015000D01*
X254893137Y-81015000D01*
X254683517Y-81056696D01*
X254486060Y-81138485D01*
X254308353Y-81257225D01*
X254157225Y-81408353D01*
X254038485Y-81586060D01*
X253956696Y-81783517D01*
X253915000Y-81993137D01*
X253915000Y-82206863D01*
X253956696Y-82416483D01*
X254038485Y-82613940D01*
X254157225Y-82791647D01*
X254308353Y-82942775D01*
X254486060Y-83061515D01*
X254683517Y-83143304D01*
X254893137Y-83185000D01*
X255106863Y-83185000D01*
X255316483Y-83143304D01*
X255513940Y-83061515D01*
X255691647Y-82942775D01*
X255699422Y-82935000D01*
X261354165Y-82935000D01*
X262534009Y-84114844D01*
X262315008Y-84205557D01*
X262112733Y-84340713D01*
X261940713Y-84512733D01*
X261900000Y-84573664D01*
X261859287Y-84512733D01*
X261687267Y-84340713D01*
X261484992Y-84205557D01*
X261260236Y-84112460D01*
X261021637Y-84065000D01*
X260778363Y-84065000D01*
X260539764Y-84112460D01*
X260315008Y-84205557D01*
X260112733Y-84340713D01*
X259940713Y-84512733D01*
X259805557Y-84715008D01*
X259712460Y-84939764D01*
X259665000Y-85178363D01*
X259665000Y-85421637D01*
X259712460Y-85660236D01*
X259805557Y-85884992D01*
X259940713Y-86087267D01*
X260112733Y-86259287D01*
X260315008Y-86394443D01*
X260539764Y-86487540D01*
X260778363Y-86535000D01*
X261021637Y-86535000D01*
X261260236Y-86487540D01*
X261484992Y-86394443D01*
X261687267Y-86259287D01*
X261859287Y-86087267D01*
X261900000Y-86026336D01*
X261940713Y-86087267D01*
X262112733Y-86259287D01*
X262315008Y-86394443D01*
X262539764Y-86487540D01*
X262778363Y-86535000D01*
X263021637Y-86535000D01*
X263260236Y-86487540D01*
X263484992Y-86394443D01*
X263687267Y-86259287D01*
X263859287Y-86087267D01*
X263900000Y-86026336D01*
X263940713Y-86087267D01*
X264065001Y-86211555D01*
X264065000Y-86954132D01*
X261538574Y-89480559D01*
X261506710Y-89506709D01*
X261480562Y-89538571D01*
X261402364Y-89633855D01*
X261324828Y-89778914D01*
X261277082Y-89936312D01*
X261260960Y-90100000D01*
X261265001Y-90141028D01*
X261265001Y-92112762D01*
X261142252Y-91990013D01*
X260874463Y-91811082D01*
X260576912Y-91687832D01*
X260261033Y-91625000D01*
X259938967Y-91625000D01*
X259715170Y-91669516D01*
X259674279Y-91570795D01*
X259577426Y-91425845D01*
X259454157Y-91302576D01*
X259309207Y-91205723D01*
X259148147Y-91139010D01*
X258977167Y-91105000D01*
X258802837Y-91105000D01*
X258631857Y-91139010D01*
X258470797Y-91205723D01*
X258325847Y-91302576D01*
X258202578Y-91425845D01*
X258105725Y-91570795D01*
X258039012Y-91731855D01*
X258005002Y-91902835D01*
X258005002Y-92077165D01*
X258039012Y-92248145D01*
X258105725Y-92409205D01*
X258202578Y-92554155D01*
X258325847Y-92677424D01*
X258470797Y-92774277D01*
X258525110Y-92796774D01*
X258465000Y-93098967D01*
X258465000Y-93421033D01*
X258527832Y-93736912D01*
X258651082Y-94034463D01*
X258830013Y-94302252D01*
X259057748Y-94529987D01*
X259325537Y-94708918D01*
X259623088Y-94832168D01*
X259938967Y-94895000D01*
X260261033Y-94895000D01*
X260576912Y-94832168D01*
X260874463Y-94708918D01*
X261142252Y-94529987D01*
X261265000Y-94407239D01*
X261265000Y-94554132D01*
X260854133Y-94965000D01*
X257628065Y-94965000D01*
X257553475Y-94853368D01*
X257346632Y-94646525D01*
X257164466Y-94524805D01*
X257281355Y-94455178D01*
X257497588Y-94260269D01*
X257671641Y-94026920D01*
X257796825Y-93764099D01*
X257841476Y-93616890D01*
X257720155Y-93387000D01*
X256527000Y-93387000D01*
X256527000Y-93407000D01*
X256273000Y-93407000D01*
X256273000Y-93387000D01*
X256253000Y-93387000D01*
X256253000Y-93133000D01*
X256273000Y-93133000D01*
X256273000Y-93113000D01*
X256527000Y-93113000D01*
X256527000Y-93133000D01*
X257720155Y-93133000D01*
X257841476Y-92903110D01*
X257796825Y-92755901D01*
X257671641Y-92493080D01*
X257497588Y-92259731D01*
X257281355Y-92064822D01*
X257164477Y-91995201D01*
X257229014Y-91960706D01*
X257455134Y-91775134D01*
X257640706Y-91549014D01*
X257778599Y-91291034D01*
X257863513Y-91011111D01*
X257892185Y-90720000D01*
X257863513Y-90428889D01*
X257778599Y-90148966D01*
X257640706Y-89890986D01*
X257455134Y-89664866D01*
X257425313Y-89640393D01*
X257494180Y-89619502D01*
X257604494Y-89560537D01*
X257701185Y-89481185D01*
X257780537Y-89384494D01*
X257839502Y-89274180D01*
X257875812Y-89154482D01*
X257888072Y-89030000D01*
X257888072Y-87330000D01*
X257875812Y-87205518D01*
X257839502Y-87085820D01*
X257780537Y-86975506D01*
X257701185Y-86878815D01*
X257604494Y-86799463D01*
X257494180Y-86740498D01*
X257374482Y-86704188D01*
X257250000Y-86691928D01*
X255550000Y-86691928D01*
X255425518Y-86704188D01*
X255305820Y-86740498D01*
X255195506Y-86799463D01*
X255098815Y-86878815D01*
X255019463Y-86975506D01*
X254960498Y-87085820D01*
X254924188Y-87205518D01*
X254911928Y-87330000D01*
X254911928Y-88628625D01*
X252935657Y-90604897D01*
X252884253Y-90480795D01*
X252787400Y-90335845D01*
X252664131Y-90212576D01*
X252519181Y-90115723D01*
X252358121Y-90049010D01*
X252187141Y-90015000D01*
X252012811Y-90015000D01*
X251841831Y-90049010D01*
X251680771Y-90115723D01*
X251607023Y-90165000D01*
X244792953Y-90165000D01*
X244719205Y-90115723D01*
X244558145Y-90049010D01*
X244387165Y-90015000D01*
X244212835Y-90015000D01*
X244041855Y-90049010D01*
X243880795Y-90115723D01*
X243735845Y-90212576D01*
X243612576Y-90335845D01*
X243515723Y-90480795D01*
X243449010Y-90641855D01*
X243421190Y-90781714D01*
X243337165Y-90765000D01*
X243162835Y-90765000D01*
X242991855Y-90799010D01*
X242830795Y-90865723D01*
X242685845Y-90962576D01*
X242562576Y-91085845D01*
X242465723Y-91230795D01*
X242399010Y-91391855D01*
X242374515Y-91515000D01*
X242212835Y-91515000D01*
X242041855Y-91549010D01*
X241880795Y-91615723D01*
X241735845Y-91712576D01*
X241612576Y-91835845D01*
X241515723Y-91980795D01*
X241449010Y-92141855D01*
X241415000Y-92312835D01*
X241415000Y-92487165D01*
X241449010Y-92658145D01*
X241515723Y-92819205D01*
X241516251Y-92819995D01*
X241298242Y-92823012D01*
X241275224Y-92825440D01*
X241251399Y-92832667D01*
X241229443Y-92844403D01*
X241210197Y-92860197D01*
X241194403Y-92879443D01*
X241182667Y-92901399D01*
X241175440Y-92925224D01*
X241173000Y-92950000D01*
X241173000Y-97036875D01*
X237627000Y-97036875D01*
X237627000Y-86441875D01*
X242192506Y-86441875D01*
X242330795Y-86534277D01*
X242491855Y-86600990D01*
X242662835Y-86635000D01*
X242837165Y-86635000D01*
X243008145Y-86600990D01*
X243169205Y-86534277D01*
X243314155Y-86437424D01*
X243437424Y-86314155D01*
X243534277Y-86169205D01*
X243600990Y-86008145D01*
X243635000Y-85837165D01*
X243635000Y-85662835D01*
X243600990Y-85491855D01*
X243534277Y-85330795D01*
X243437424Y-85185845D01*
X243314155Y-85062576D01*
X243239707Y-85012831D01*
X245965000Y-85012831D01*
X245965000Y-85187161D01*
X245999010Y-85358141D01*
X246065723Y-85519201D01*
X246162576Y-85664151D01*
X246285845Y-85787420D01*
X246430795Y-85884273D01*
X246591855Y-85950986D01*
X246762835Y-85984996D01*
X246937165Y-85984996D01*
X247108145Y-85950986D01*
X247269205Y-85884273D01*
X247342953Y-85834996D01*
X257742143Y-85834996D01*
X257860795Y-85914277D01*
X258021855Y-85980990D01*
X258192835Y-86015000D01*
X258367165Y-86015000D01*
X258538145Y-85980990D01*
X258699205Y-85914277D01*
X258844155Y-85817424D01*
X258967424Y-85694155D01*
X259064277Y-85549205D01*
X259130990Y-85388145D01*
X259165000Y-85217165D01*
X259165000Y-85042835D01*
X259130990Y-84871855D01*
X259064277Y-84710795D01*
X258967424Y-84565845D01*
X258844155Y-84442576D01*
X258699205Y-84345723D01*
X258538145Y-84279010D01*
X258367165Y-84245000D01*
X258192835Y-84245000D01*
X258021855Y-84279010D01*
X257860795Y-84345723D01*
X257831951Y-84364996D01*
X247342953Y-84364996D01*
X247269205Y-84315719D01*
X247108145Y-84249006D01*
X246937165Y-84214996D01*
X246762835Y-84214996D01*
X246591855Y-84249006D01*
X246430795Y-84315719D01*
X246285845Y-84412572D01*
X246162576Y-84535841D01*
X246065723Y-84680791D01*
X245999010Y-84841851D01*
X245965000Y-85012831D01*
X243239707Y-85012831D01*
X243169205Y-84965723D01*
X243008145Y-84899010D01*
X242837165Y-84865000D01*
X242662835Y-84865000D01*
X242491855Y-84899010D01*
X242330795Y-84965723D01*
X242321588Y-84971875D01*
X237627000Y-84971875D01*
X237627000Y-79627000D01*
X276665001Y-79627000D01*
X276665001Y-85735917D01*
X276665001Y-85735917D01*
G37*
X276665001Y-85735917D02*
X276656496Y-85822660D01*
X276641746Y-85871514D01*
X276617788Y-85916573D01*
X276585534Y-85956120D01*
X276546215Y-85988647D01*
X276501329Y-86012917D01*
X276452573Y-86028009D01*
X276368235Y-86036874D01*
X273663895Y-86036874D01*
X273632496Y-86039967D01*
X273626402Y-86039924D01*
X273616188Y-86040925D01*
X273422091Y-86061326D01*
X273356843Y-86074719D01*
X273291402Y-86087203D01*
X273281577Y-86090169D01*
X273095139Y-86147881D01*
X273033720Y-86173699D01*
X272971962Y-86198651D01*
X272962901Y-86203469D01*
X272791224Y-86296294D01*
X272735977Y-86333559D01*
X272680252Y-86370024D01*
X272672299Y-86376510D01*
X272521921Y-86500914D01*
X272474944Y-86548220D01*
X272427387Y-86594791D01*
X272420845Y-86602698D01*
X272297495Y-86753940D01*
X272260608Y-86809459D01*
X272222994Y-86864394D01*
X272218112Y-86873421D01*
X272126487Y-87045743D01*
X272101086Y-87107370D01*
X272074859Y-87168563D01*
X272071824Y-87178366D01*
X272015415Y-87365202D01*
X272002467Y-87430594D01*
X271988626Y-87495710D01*
X271987553Y-87505916D01*
X271968508Y-87700150D01*
X271965000Y-87735770D01*
X271965001Y-96735918D01*
X271956496Y-96822661D01*
X271941746Y-96871515D01*
X271917788Y-96916574D01*
X271885534Y-96956121D01*
X271846215Y-96988648D01*
X271801329Y-97012918D01*
X271752573Y-97028010D01*
X271668235Y-97036875D01*
X267363895Y-97036875D01*
X267332496Y-97039968D01*
X267326402Y-97039925D01*
X267316188Y-97040926D01*
X267122091Y-97061327D01*
X267056843Y-97074720D01*
X266991402Y-97087204D01*
X266981577Y-97090170D01*
X266795139Y-97147882D01*
X266740290Y-97170938D01*
X266689043Y-97094242D01*
X266545758Y-96950957D01*
X266377272Y-96838378D01*
X266190061Y-96760833D01*
X265991318Y-96721300D01*
X265788682Y-96721300D01*
X265589939Y-96760833D01*
X265402728Y-96838378D01*
X265255000Y-96937087D01*
X265127000Y-96851560D01*
X265127000Y-96249481D01*
X265153079Y-96228079D01*
X265263472Y-96093564D01*
X265345502Y-95940097D01*
X265396016Y-95773576D01*
X265413072Y-95600400D01*
X265413072Y-94899600D01*
X265396016Y-94726424D01*
X265345502Y-94559903D01*
X265263472Y-94406436D01*
X265153079Y-94271921D01*
X265018564Y-94161528D01*
X265013699Y-94158927D01*
X265138078Y-94033474D01*
X265272421Y-93830533D01*
X265364591Y-93605282D01*
X265368462Y-93567609D01*
X265243731Y-93377000D01*
X264027000Y-93377000D01*
X264027000Y-93397000D01*
X263773000Y-93397000D01*
X263773000Y-93377000D01*
X263753000Y-93377000D01*
X263753000Y-93123000D01*
X263773000Y-93123000D01*
X263773000Y-92015000D01*
X264027000Y-92015000D01*
X264027000Y-93123000D01*
X265243731Y-93123000D01*
X265368462Y-92932391D01*
X265364591Y-92894718D01*
X265272421Y-92669467D01*
X265138078Y-92466526D01*
X264966725Y-92293693D01*
X264764946Y-92157610D01*
X264540496Y-92063507D01*
X264302000Y-92015000D01*
X264027000Y-92015000D01*
X263773000Y-92015000D01*
X263498000Y-92015000D01*
X263259504Y-92063507D01*
X263035054Y-92157610D01*
X262935000Y-92225088D01*
X262935000Y-90445867D01*
X265461428Y-87919440D01*
X265493291Y-87893291D01*
X265597636Y-87766146D01*
X265675172Y-87621087D01*
X265722918Y-87463689D01*
X265735000Y-87341019D01*
X265735000Y-87341018D01*
X265739040Y-87300000D01*
X265735000Y-87258982D01*
X265735000Y-86211554D01*
X265859287Y-86087267D01*
X265994443Y-85884992D01*
X266087540Y-85660236D01*
X266135000Y-85421637D01*
X266135000Y-85178363D01*
X266087540Y-84939764D01*
X265994443Y-84715008D01*
X265859287Y-84512733D01*
X265687267Y-84340713D01*
X265484992Y-84205557D01*
X265260236Y-84112460D01*
X265021637Y-84065000D01*
X264845900Y-84065000D01*
X262319478Y-81538579D01*
X262293323Y-81506709D01*
X262166178Y-81402364D01*
X262021119Y-81324828D01*
X261863721Y-81277082D01*
X261741051Y-81265000D01*
X261741050Y-81265000D01*
X261700032Y-81260960D01*
X261659014Y-81265000D01*
X255699422Y-81265000D01*
X255691647Y-81257225D01*
X255513940Y-81138485D01*
X255316483Y-81056696D01*
X255106863Y-81015000D01*
X254893137Y-81015000D01*
X254683517Y-81056696D01*
X254486060Y-81138485D01*
X254308353Y-81257225D01*
X254157225Y-81408353D01*
X254038485Y-81586060D01*
X253956696Y-81783517D01*
X253915000Y-81993137D01*
X253915000Y-82206863D01*
X253956696Y-82416483D01*
X254038485Y-82613940D01*
X254157225Y-82791647D01*
X254308353Y-82942775D01*
X254486060Y-83061515D01*
X254683517Y-83143304D01*
X254893137Y-83185000D01*
X255106863Y-83185000D01*
X255316483Y-83143304D01*
X255513940Y-83061515D01*
X255691647Y-82942775D01*
X255699422Y-82935000D01*
X261354165Y-82935000D01*
X262534009Y-84114844D01*
X262315008Y-84205557D01*
X262112733Y-84340713D01*
X261940713Y-84512733D01*
X261900000Y-84573664D01*
X261859287Y-84512733D01*
X261687267Y-84340713D01*
X261484992Y-84205557D01*
X261260236Y-84112460D01*
X261021637Y-84065000D01*
X260778363Y-84065000D01*
X260539764Y-84112460D01*
X260315008Y-84205557D01*
X260112733Y-84340713D01*
X259940713Y-84512733D01*
X259805557Y-84715008D01*
X259712460Y-84939764D01*
X259665000Y-85178363D01*
X259665000Y-85421637D01*
X259712460Y-85660236D01*
X259805557Y-85884992D01*
X259940713Y-86087267D01*
X260112733Y-86259287D01*
X260315008Y-86394443D01*
X260539764Y-86487540D01*
X260778363Y-86535000D01*
X261021637Y-86535000D01*
X261260236Y-86487540D01*
X261484992Y-86394443D01*
X261687267Y-86259287D01*
X261859287Y-86087267D01*
X261900000Y-86026336D01*
X261940713Y-86087267D01*
X262112733Y-86259287D01*
X262315008Y-86394443D01*
X262539764Y-86487540D01*
X262778363Y-86535000D01*
X263021637Y-86535000D01*
X263260236Y-86487540D01*
X263484992Y-86394443D01*
X263687267Y-86259287D01*
X263859287Y-86087267D01*
X263900000Y-86026336D01*
X263940713Y-86087267D01*
X264065001Y-86211555D01*
X264065000Y-86954132D01*
X261538574Y-89480559D01*
X261506710Y-89506709D01*
X261480562Y-89538571D01*
X261402364Y-89633855D01*
X261324828Y-89778914D01*
X261277082Y-89936312D01*
X261260960Y-90100000D01*
X261265001Y-90141028D01*
X261265001Y-92112762D01*
X261142252Y-91990013D01*
X260874463Y-91811082D01*
X260576912Y-91687832D01*
X260261033Y-91625000D01*
X259938967Y-91625000D01*
X259715170Y-91669516D01*
X259674279Y-91570795D01*
X259577426Y-91425845D01*
X259454157Y-91302576D01*
X259309207Y-91205723D01*
X259148147Y-91139010D01*
X258977167Y-91105000D01*
X258802837Y-91105000D01*
X258631857Y-91139010D01*
X258470797Y-91205723D01*
X258325847Y-91302576D01*
X258202578Y-91425845D01*
X258105725Y-91570795D01*
X258039012Y-91731855D01*
X258005002Y-91902835D01*
X258005002Y-92077165D01*
X258039012Y-92248145D01*
X258105725Y-92409205D01*
X258202578Y-92554155D01*
X258325847Y-92677424D01*
X258470797Y-92774277D01*
X258525110Y-92796774D01*
X258465000Y-93098967D01*
X258465000Y-93421033D01*
X258527832Y-93736912D01*
X258651082Y-94034463D01*
X258830013Y-94302252D01*
X259057748Y-94529987D01*
X259325537Y-94708918D01*
X259623088Y-94832168D01*
X259938967Y-94895000D01*
X260261033Y-94895000D01*
X260576912Y-94832168D01*
X260874463Y-94708918D01*
X261142252Y-94529987D01*
X261265000Y-94407239D01*
X261265000Y-94554132D01*
X260854133Y-94965000D01*
X257628065Y-94965000D01*
X257553475Y-94853368D01*
X257346632Y-94646525D01*
X257164466Y-94524805D01*
X257281355Y-94455178D01*
X257497588Y-94260269D01*
X257671641Y-94026920D01*
X257796825Y-93764099D01*
X257841476Y-93616890D01*
X257720155Y-93387000D01*
X256527000Y-93387000D01*
X256527000Y-93407000D01*
X256273000Y-93407000D01*
X256273000Y-93387000D01*
X256253000Y-93387000D01*
X256253000Y-93133000D01*
X256273000Y-93133000D01*
X256273000Y-93113000D01*
X256527000Y-93113000D01*
X256527000Y-93133000D01*
X257720155Y-93133000D01*
X257841476Y-92903110D01*
X257796825Y-92755901D01*
X257671641Y-92493080D01*
X257497588Y-92259731D01*
X257281355Y-92064822D01*
X257164477Y-91995201D01*
X257229014Y-91960706D01*
X257455134Y-91775134D01*
X257640706Y-91549014D01*
X257778599Y-91291034D01*
X257863513Y-91011111D01*
X257892185Y-90720000D01*
X257863513Y-90428889D01*
X257778599Y-90148966D01*
X257640706Y-89890986D01*
X257455134Y-89664866D01*
X257425313Y-89640393D01*
X257494180Y-89619502D01*
X257604494Y-89560537D01*
X257701185Y-89481185D01*
X257780537Y-89384494D01*
X257839502Y-89274180D01*
X257875812Y-89154482D01*
X257888072Y-89030000D01*
X257888072Y-87330000D01*
X257875812Y-87205518D01*
X257839502Y-87085820D01*
X257780537Y-86975506D01*
X257701185Y-86878815D01*
X257604494Y-86799463D01*
X257494180Y-86740498D01*
X257374482Y-86704188D01*
X257250000Y-86691928D01*
X255550000Y-86691928D01*
X255425518Y-86704188D01*
X255305820Y-86740498D01*
X255195506Y-86799463D01*
X255098815Y-86878815D01*
X255019463Y-86975506D01*
X254960498Y-87085820D01*
X254924188Y-87205518D01*
X254911928Y-87330000D01*
X254911928Y-88628625D01*
X252935657Y-90604897D01*
X252884253Y-90480795D01*
X252787400Y-90335845D01*
X252664131Y-90212576D01*
X252519181Y-90115723D01*
X252358121Y-90049010D01*
X252187141Y-90015000D01*
X252012811Y-90015000D01*
X251841831Y-90049010D01*
X251680771Y-90115723D01*
X251607023Y-90165000D01*
X244792953Y-90165000D01*
X244719205Y-90115723D01*
X244558145Y-90049010D01*
X244387165Y-90015000D01*
X244212835Y-90015000D01*
X244041855Y-90049010D01*
X243880795Y-90115723D01*
X243735845Y-90212576D01*
X243612576Y-90335845D01*
X243515723Y-90480795D01*
X243449010Y-90641855D01*
X243421190Y-90781714D01*
X243337165Y-90765000D01*
X243162835Y-90765000D01*
X242991855Y-90799010D01*
X242830795Y-90865723D01*
X242685845Y-90962576D01*
X242562576Y-91085845D01*
X242465723Y-91230795D01*
X242399010Y-91391855D01*
X242374515Y-91515000D01*
X242212835Y-91515000D01*
X242041855Y-91549010D01*
X241880795Y-91615723D01*
X241735845Y-91712576D01*
X241612576Y-91835845D01*
X241515723Y-91980795D01*
X241449010Y-92141855D01*
X241415000Y-92312835D01*
X241415000Y-92487165D01*
X241449010Y-92658145D01*
X241515723Y-92819205D01*
X241516251Y-92819995D01*
X241298242Y-92823012D01*
X241275224Y-92825440D01*
X241251399Y-92832667D01*
X241229443Y-92844403D01*
X241210197Y-92860197D01*
X241194403Y-92879443D01*
X241182667Y-92901399D01*
X241175440Y-92925224D01*
X241173000Y-92950000D01*
X241173000Y-97036875D01*
X237627000Y-97036875D01*
X237627000Y-86441875D01*
X242192506Y-86441875D01*
X242330795Y-86534277D01*
X242491855Y-86600990D01*
X242662835Y-86635000D01*
X242837165Y-86635000D01*
X243008145Y-86600990D01*
X243169205Y-86534277D01*
X243314155Y-86437424D01*
X243437424Y-86314155D01*
X243534277Y-86169205D01*
X243600990Y-86008145D01*
X243635000Y-85837165D01*
X243635000Y-85662835D01*
X243600990Y-85491855D01*
X243534277Y-85330795D01*
X243437424Y-85185845D01*
X243314155Y-85062576D01*
X243239707Y-85012831D01*
X245965000Y-85012831D01*
X245965000Y-85187161D01*
X245999010Y-85358141D01*
X246065723Y-85519201D01*
X246162576Y-85664151D01*
X246285845Y-85787420D01*
X246430795Y-85884273D01*
X246591855Y-85950986D01*
X246762835Y-85984996D01*
X246937165Y-85984996D01*
X247108145Y-85950986D01*
X247269205Y-85884273D01*
X247342953Y-85834996D01*
X257742143Y-85834996D01*
X257860795Y-85914277D01*
X258021855Y-85980990D01*
X258192835Y-86015000D01*
X258367165Y-86015000D01*
X258538145Y-85980990D01*
X258699205Y-85914277D01*
X258844155Y-85817424D01*
X258967424Y-85694155D01*
X259064277Y-85549205D01*
X259130990Y-85388145D01*
X259165000Y-85217165D01*
X259165000Y-85042835D01*
X259130990Y-84871855D01*
X259064277Y-84710795D01*
X258967424Y-84565845D01*
X258844155Y-84442576D01*
X258699205Y-84345723D01*
X258538145Y-84279010D01*
X258367165Y-84245000D01*
X258192835Y-84245000D01*
X258021855Y-84279010D01*
X257860795Y-84345723D01*
X257831951Y-84364996D01*
X247342953Y-84364996D01*
X247269205Y-84315719D01*
X247108145Y-84249006D01*
X246937165Y-84214996D01*
X246762835Y-84214996D01*
X246591855Y-84249006D01*
X246430795Y-84315719D01*
X246285845Y-84412572D01*
X246162576Y-84535841D01*
X246065723Y-84680791D01*
X245999010Y-84841851D01*
X245965000Y-85012831D01*
X243239707Y-85012831D01*
X243169205Y-84965723D01*
X243008145Y-84899010D01*
X242837165Y-84865000D01*
X242662835Y-84865000D01*
X242491855Y-84899010D01*
X242330795Y-84965723D01*
X242321588Y-84971875D01*
X237627000Y-84971875D01*
X237627000Y-79627000D01*
X276665001Y-79627000D01*
X276665001Y-85735917D01*
G36*
X39873000Y-84971875D02*
G01*
X34803242Y-84971875D01*
X34719205Y-84915723D01*
X34558145Y-84849010D01*
X34387165Y-84815000D01*
X34212835Y-84815000D01*
X34041855Y-84849010D01*
X33880795Y-84915723D01*
X33735845Y-85012576D01*
X33612576Y-85135845D01*
X33515723Y-85280795D01*
X33449010Y-85441855D01*
X33415000Y-85612835D01*
X33415000Y-85787165D01*
X33449010Y-85958145D01*
X33515723Y-86119205D01*
X33612576Y-86264155D01*
X33735845Y-86387424D01*
X33880795Y-86484277D01*
X34041855Y-86550990D01*
X34212835Y-86585000D01*
X34387165Y-86585000D01*
X34558145Y-86550990D01*
X34719205Y-86484277D01*
X34782664Y-86441875D01*
X39873000Y-86441875D01*
X39873000Y-92673000D01*
X27000000Y-92673000D01*
X26975224Y-92675440D01*
X26951399Y-92682667D01*
X26929443Y-92694403D01*
X26910197Y-92710197D01*
X26894403Y-92729443D01*
X26882667Y-92751399D01*
X26875440Y-92775224D01*
X26873000Y-92800000D01*
X26873000Y-97036876D01*
X21821814Y-97036876D01*
X21946632Y-96953475D01*
X22153475Y-96746632D01*
X22315990Y-96503411D01*
X22427932Y-96233158D01*
X22485000Y-95946260D01*
X22485000Y-95653740D01*
X22427932Y-95366842D01*
X22315990Y-95096589D01*
X22153475Y-94853368D01*
X21946632Y-94646525D01*
X21764466Y-94524805D01*
X21881355Y-94455178D01*
X22097588Y-94260269D01*
X22271641Y-94026920D01*
X22396825Y-93764099D01*
X22441476Y-93616890D01*
X22320155Y-93387000D01*
X21127000Y-93387000D01*
X21127000Y-93407000D01*
X20873000Y-93407000D01*
X20873000Y-93387000D01*
X19679845Y-93387000D01*
X19558524Y-93616890D01*
X19603175Y-93764099D01*
X19728359Y-94026920D01*
X19902412Y-94260269D01*
X20118645Y-94455178D01*
X20235534Y-94524805D01*
X20053368Y-94646525D01*
X19846525Y-94853368D01*
X19684010Y-95096589D01*
X19572068Y-95366842D01*
X19515000Y-95653740D01*
X19515000Y-95946260D01*
X19572068Y-96233158D01*
X19684010Y-96503411D01*
X19846525Y-96746632D01*
X20053368Y-96953475D01*
X20178186Y-97036876D01*
X18063895Y-97036876D01*
X18032505Y-97039968D01*
X18026402Y-97039925D01*
X18016188Y-97040926D01*
X17822091Y-97061327D01*
X17756843Y-97074720D01*
X17691402Y-97087204D01*
X17681577Y-97090170D01*
X17495139Y-97147882D01*
X17433720Y-97173700D01*
X17414039Y-97181652D01*
X17389043Y-97144242D01*
X17245758Y-97000957D01*
X17077272Y-96888378D01*
X16890061Y-96810833D01*
X16691318Y-96771300D01*
X16488682Y-96771300D01*
X16289939Y-96810833D01*
X16102728Y-96888378D01*
X15955000Y-96987087D01*
X15807272Y-96888378D01*
X15620061Y-96810833D01*
X15421318Y-96771300D01*
X15218682Y-96771300D01*
X15019939Y-96810833D01*
X14832728Y-96888378D01*
X14685000Y-96987087D01*
X14537272Y-96888378D01*
X14350061Y-96810833D01*
X14151318Y-96771300D01*
X13948682Y-96771300D01*
X13749939Y-96810833D01*
X13562728Y-96888378D01*
X13415000Y-96987087D01*
X13267272Y-96888378D01*
X13080061Y-96810833D01*
X12881318Y-96771300D01*
X12678682Y-96771300D01*
X12479939Y-96810833D01*
X12292728Y-96888378D01*
X12145000Y-96987087D01*
X11997272Y-96888378D01*
X11810061Y-96810833D01*
X11611318Y-96771300D01*
X11408682Y-96771300D01*
X11209939Y-96810833D01*
X11022728Y-96888378D01*
X10854242Y-97000957D01*
X10710957Y-97144242D01*
X10685880Y-97181772D01*
X10664504Y-97172961D01*
X10603311Y-97146734D01*
X10593508Y-97143699D01*
X10406672Y-97087290D01*
X10341280Y-97074342D01*
X10276164Y-97060501D01*
X10265958Y-97059428D01*
X10071724Y-97040383D01*
X10071722Y-97040383D01*
X10036104Y-97036875D01*
X5735946Y-97036875D01*
X5649213Y-97028371D01*
X5600359Y-97013621D01*
X5555300Y-96989663D01*
X5515753Y-96957409D01*
X5483226Y-96918090D01*
X5458956Y-96873204D01*
X5443864Y-96824448D01*
X5434998Y-96740101D01*
X5434998Y-95567609D01*
X12031538Y-95567609D01*
X12035409Y-95605282D01*
X12127579Y-95830533D01*
X12261922Y-96033474D01*
X12433275Y-96206307D01*
X12635054Y-96342390D01*
X12859504Y-96436493D01*
X13098000Y-96485000D01*
X13373000Y-96485000D01*
X13373000Y-95377000D01*
X13627000Y-95377000D01*
X13627000Y-96485000D01*
X13902000Y-96485000D01*
X14140496Y-96436493D01*
X14364946Y-96342390D01*
X14566725Y-96206307D01*
X14738078Y-96033474D01*
X14872421Y-95830533D01*
X14964591Y-95605282D01*
X14968462Y-95567609D01*
X14843731Y-95377000D01*
X13627000Y-95377000D01*
X13373000Y-95377000D01*
X12156269Y-95377000D01*
X12031538Y-95567609D01*
X5434998Y-95567609D01*
X5434998Y-92899600D01*
X11986928Y-92899600D01*
X11986928Y-93600400D01*
X12003984Y-93773576D01*
X12054498Y-93940097D01*
X12136528Y-94093564D01*
X12246921Y-94228079D01*
X12381436Y-94338472D01*
X12386301Y-94341073D01*
X12261922Y-94466526D01*
X12127579Y-94669467D01*
X12035409Y-94894718D01*
X12031538Y-94932391D01*
X12156269Y-95123000D01*
X13373000Y-95123000D01*
X13373000Y-95103000D01*
X13627000Y-95103000D01*
X13627000Y-95123000D01*
X14843731Y-95123000D01*
X14968462Y-94932391D01*
X14964591Y-94894718D01*
X14872421Y-94669467D01*
X14738078Y-94466526D01*
X14613699Y-94341073D01*
X14618564Y-94338472D01*
X14753079Y-94228079D01*
X14863472Y-94093564D01*
X14945502Y-93940097D01*
X14996016Y-93773576D01*
X15013072Y-93600400D01*
X15013072Y-93098967D01*
X15465000Y-93098967D01*
X15465000Y-93421033D01*
X15527832Y-93736912D01*
X15651082Y-94034463D01*
X15830013Y-94302252D01*
X16057748Y-94529987D01*
X16325537Y-94708918D01*
X16623088Y-94832168D01*
X16938967Y-94895000D01*
X17261033Y-94895000D01*
X17576912Y-94832168D01*
X17874463Y-94708918D01*
X18142252Y-94529987D01*
X18369987Y-94302252D01*
X18548918Y-94034463D01*
X18672168Y-93736912D01*
X18735000Y-93421033D01*
X18735000Y-93098967D01*
X18672168Y-92783088D01*
X18548918Y-92485537D01*
X18369987Y-92217748D01*
X18142252Y-91990013D01*
X17874463Y-91811082D01*
X17835000Y-91794736D01*
X17835000Y-91392954D01*
X17884277Y-91319206D01*
X17950990Y-91158146D01*
X17985000Y-90987166D01*
X17985000Y-90812836D01*
X17966534Y-90720000D01*
X19507815Y-90720000D01*
X19536487Y-91011111D01*
X19621401Y-91291034D01*
X19759294Y-91549014D01*
X19944866Y-91775134D01*
X20170986Y-91960706D01*
X20235523Y-91995201D01*
X20118645Y-92064822D01*
X19902412Y-92259731D01*
X19728359Y-92493080D01*
X19603175Y-92755901D01*
X19558524Y-92903110D01*
X19679845Y-93133000D01*
X20873000Y-93133000D01*
X20873000Y-93113000D01*
X21127000Y-93113000D01*
X21127000Y-93133000D01*
X22320155Y-93133000D01*
X22441476Y-92903110D01*
X22396825Y-92755901D01*
X22271641Y-92493080D01*
X22097588Y-92259731D01*
X21881355Y-92064822D01*
X21764477Y-91995201D01*
X21829014Y-91960706D01*
X22055134Y-91775134D01*
X22240706Y-91549014D01*
X22378599Y-91291034D01*
X22463513Y-91011111D01*
X22492185Y-90720000D01*
X22463513Y-90428889D01*
X22378599Y-90148966D01*
X22240706Y-89890986D01*
X22055134Y-89664866D01*
X22025313Y-89640393D01*
X22094180Y-89619502D01*
X22204494Y-89560537D01*
X22301185Y-89481185D01*
X22380537Y-89384494D01*
X22439502Y-89274180D01*
X22475812Y-89154482D01*
X22488072Y-89030000D01*
X22488072Y-87330000D01*
X22475812Y-87205518D01*
X22439502Y-87085820D01*
X22380537Y-86975506D01*
X22301185Y-86878815D01*
X22204494Y-86799463D01*
X22094180Y-86740498D01*
X21974482Y-86704188D01*
X21850000Y-86691928D01*
X20150000Y-86691928D01*
X20025518Y-86704188D01*
X19905820Y-86740498D01*
X19795506Y-86799463D01*
X19698815Y-86878815D01*
X19619463Y-86975506D01*
X19560498Y-87085820D01*
X19524188Y-87205518D01*
X19511928Y-87330000D01*
X19511928Y-89030000D01*
X19524188Y-89154482D01*
X19560498Y-89274180D01*
X19619463Y-89384494D01*
X19698815Y-89481185D01*
X19795506Y-89560537D01*
X19905820Y-89619502D01*
X19974687Y-89640393D01*
X19944866Y-89664866D01*
X19759294Y-89890986D01*
X19621401Y-90148966D01*
X19536487Y-90428889D01*
X19507815Y-90720000D01*
X17966534Y-90720000D01*
X17950990Y-90641856D01*
X17884277Y-90480796D01*
X17787424Y-90335846D01*
X17664155Y-90212577D01*
X17519205Y-90115724D01*
X17358145Y-90049011D01*
X17187165Y-90015001D01*
X17012835Y-90015001D01*
X16841855Y-90049011D01*
X16680795Y-90115724D01*
X16535845Y-90212577D01*
X16412576Y-90335846D01*
X16315723Y-90480796D01*
X16249010Y-90641856D01*
X16215000Y-90812836D01*
X16215000Y-90987166D01*
X16249010Y-91158146D01*
X16315723Y-91319206D01*
X16365001Y-91392955D01*
X16365001Y-91794736D01*
X16325537Y-91811082D01*
X16057748Y-91990013D01*
X15830013Y-92217748D01*
X15651082Y-92485537D01*
X15527832Y-92783088D01*
X15465000Y-93098967D01*
X15013072Y-93098967D01*
X15013072Y-92899600D01*
X14996016Y-92726424D01*
X14945502Y-92559903D01*
X14863472Y-92406436D01*
X14753079Y-92271921D01*
X14618564Y-92161528D01*
X14465097Y-92079498D01*
X14298576Y-92028984D01*
X14125400Y-92011928D01*
X12874600Y-92011928D01*
X12701424Y-92028984D01*
X12534903Y-92079498D01*
X12381436Y-92161528D01*
X12246921Y-92271921D01*
X12136528Y-92406436D01*
X12054498Y-92559903D01*
X12003984Y-92726424D01*
X11986928Y-92899600D01*
X5434998Y-92899600D01*
X5435000Y-87735770D01*
X5431907Y-87704371D01*
X5431950Y-87698276D01*
X5430949Y-87688062D01*
X5410548Y-87493965D01*
X5397155Y-87428717D01*
X5384671Y-87363276D01*
X5381705Y-87353451D01*
X5323993Y-87167013D01*
X5298175Y-87105594D01*
X5273223Y-87043836D01*
X5268405Y-87034775D01*
X5175580Y-86863098D01*
X5138315Y-86807851D01*
X5101850Y-86752126D01*
X5095364Y-86744173D01*
X4970960Y-86593795D01*
X4923654Y-86546818D01*
X4877083Y-86499261D01*
X4869176Y-86492719D01*
X4717934Y-86369369D01*
X4662415Y-86332482D01*
X4607480Y-86294868D01*
X4598453Y-86289986D01*
X4426131Y-86198361D01*
X4364504Y-86172960D01*
X4303311Y-86146733D01*
X4293508Y-86143698D01*
X4106672Y-86087289D01*
X4041280Y-86074341D01*
X3976164Y-86060500D01*
X3965958Y-86059427D01*
X3771724Y-86040382D01*
X3771723Y-86040382D01*
X3736105Y-86036874D01*
X1035947Y-86036874D01*
X949214Y-86028370D01*
X900360Y-86013620D01*
X855301Y-85989662D01*
X815754Y-85957408D01*
X783227Y-85918089D01*
X758957Y-85873203D01*
X743865Y-85824447D01*
X735000Y-85740109D01*
X735000Y-85178363D01*
X9265000Y-85178363D01*
X9265000Y-85421637D01*
X9312460Y-85660236D01*
X9405557Y-85884992D01*
X9540713Y-86087267D01*
X9712733Y-86259287D01*
X9915008Y-86394443D01*
X10139764Y-86487540D01*
X10378363Y-86535000D01*
X10621637Y-86535000D01*
X10860236Y-86487540D01*
X11084992Y-86394443D01*
X11287267Y-86259287D01*
X11459287Y-86087267D01*
X11500000Y-86026336D01*
X11540713Y-86087267D01*
X11712733Y-86259287D01*
X11915008Y-86394443D01*
X12139764Y-86487540D01*
X12378363Y-86535000D01*
X12621637Y-86535000D01*
X12860236Y-86487540D01*
X13084992Y-86394443D01*
X13287267Y-86259287D01*
X13459287Y-86087267D01*
X13500000Y-86026336D01*
X13540713Y-86087267D01*
X13712733Y-86259287D01*
X13915008Y-86394443D01*
X14139764Y-86487540D01*
X14378363Y-86535000D01*
X14621637Y-86535000D01*
X14860236Y-86487540D01*
X15084992Y-86394443D01*
X15287267Y-86259287D01*
X15459287Y-86087267D01*
X15594443Y-85884992D01*
X15665752Y-85712835D01*
X18415000Y-85712835D01*
X18415000Y-85887165D01*
X18449010Y-86058145D01*
X18515723Y-86219205D01*
X18612576Y-86364155D01*
X18735845Y-86487424D01*
X18880795Y-86584277D01*
X19041855Y-86650990D01*
X19212835Y-86685000D01*
X19387165Y-86685000D01*
X19558145Y-86650990D01*
X19719205Y-86584277D01*
X19792953Y-86535000D01*
X28407032Y-86535000D01*
X28480795Y-86584287D01*
X28641855Y-86651000D01*
X28812835Y-86685010D01*
X28987165Y-86685010D01*
X29158145Y-86651000D01*
X29319205Y-86584287D01*
X29464155Y-86487434D01*
X29587424Y-86364165D01*
X29684277Y-86219215D01*
X29750990Y-86058155D01*
X29785000Y-85887175D01*
X29785000Y-85712845D01*
X29750990Y-85541865D01*
X29684277Y-85380805D01*
X29587424Y-85235855D01*
X29464155Y-85112586D01*
X29319205Y-85015733D01*
X29158145Y-84949020D01*
X28987165Y-84915010D01*
X28812835Y-84915010D01*
X28641855Y-84949020D01*
X28480795Y-85015733D01*
X28407062Y-85065000D01*
X19792953Y-85065000D01*
X19719205Y-85015723D01*
X19558145Y-84949010D01*
X19387165Y-84915000D01*
X19212835Y-84915000D01*
X19041855Y-84949010D01*
X18880795Y-85015723D01*
X18735845Y-85112576D01*
X18612576Y-85235845D01*
X18515723Y-85380795D01*
X18449010Y-85541855D01*
X18415000Y-85712835D01*
X15665752Y-85712835D01*
X15687540Y-85660236D01*
X15735000Y-85421637D01*
X15735000Y-85245827D01*
X19045829Y-81935000D01*
X34000578Y-81935000D01*
X34008353Y-81942775D01*
X34186060Y-82061515D01*
X34383517Y-82143304D01*
X34593137Y-82185000D01*
X34806863Y-82185000D01*
X35016483Y-82143304D01*
X35213940Y-82061515D01*
X35391647Y-81942775D01*
X35542775Y-81791647D01*
X35661515Y-81613940D01*
X35743304Y-81416483D01*
X35785000Y-81206863D01*
X35785000Y-80993137D01*
X35743304Y-80783517D01*
X35661515Y-80586060D01*
X35542775Y-80408353D01*
X35391647Y-80257225D01*
X35213940Y-80138485D01*
X35016483Y-80056696D01*
X34806863Y-80015000D01*
X34593137Y-80015000D01*
X34383517Y-80056696D01*
X34186060Y-80138485D01*
X34008353Y-80257225D01*
X34000578Y-80265000D01*
X18740978Y-80265000D01*
X18699960Y-80260960D01*
X18658941Y-80265000D01*
X18536271Y-80277082D01*
X18378873Y-80324828D01*
X18233814Y-80402364D01*
X18106669Y-80506709D01*
X18080523Y-80538568D01*
X14554093Y-84065000D01*
X14378363Y-84065000D01*
X14139764Y-84112460D01*
X13915008Y-84205557D01*
X13712733Y-84340713D01*
X13540713Y-84512733D01*
X13500000Y-84573664D01*
X13459287Y-84512733D01*
X13287267Y-84340713D01*
X13084992Y-84205557D01*
X12860236Y-84112460D01*
X12621637Y-84065000D01*
X12378363Y-84065000D01*
X12139764Y-84112460D01*
X11915008Y-84205557D01*
X11712733Y-84340713D01*
X11540713Y-84512733D01*
X11500000Y-84573664D01*
X11459287Y-84512733D01*
X11287267Y-84340713D01*
X11084992Y-84205557D01*
X10860236Y-84112460D01*
X10621637Y-84065000D01*
X10378363Y-84065000D01*
X10139764Y-84112460D01*
X9915008Y-84205557D01*
X9712733Y-84340713D01*
X9540713Y-84512733D01*
X9405557Y-84715008D01*
X9312460Y-84939764D01*
X9265000Y-85178363D01*
X735000Y-85178363D01*
X735000Y-79127000D01*
X39873000Y-79127000D01*
X39873000Y-84971875D01*
X39873000Y-84971875D01*
G37*
X39873000Y-84971875D02*
X34803242Y-84971875D01*
X34719205Y-84915723D01*
X34558145Y-84849010D01*
X34387165Y-84815000D01*
X34212835Y-84815000D01*
X34041855Y-84849010D01*
X33880795Y-84915723D01*
X33735845Y-85012576D01*
X33612576Y-85135845D01*
X33515723Y-85280795D01*
X33449010Y-85441855D01*
X33415000Y-85612835D01*
X33415000Y-85787165D01*
X33449010Y-85958145D01*
X33515723Y-86119205D01*
X33612576Y-86264155D01*
X33735845Y-86387424D01*
X33880795Y-86484277D01*
X34041855Y-86550990D01*
X34212835Y-86585000D01*
X34387165Y-86585000D01*
X34558145Y-86550990D01*
X34719205Y-86484277D01*
X34782664Y-86441875D01*
X39873000Y-86441875D01*
X39873000Y-92673000D01*
X27000000Y-92673000D01*
X26975224Y-92675440D01*
X26951399Y-92682667D01*
X26929443Y-92694403D01*
X26910197Y-92710197D01*
X26894403Y-92729443D01*
X26882667Y-92751399D01*
X26875440Y-92775224D01*
X26873000Y-92800000D01*
X26873000Y-97036876D01*
X21821814Y-97036876D01*
X21946632Y-96953475D01*
X22153475Y-96746632D01*
X22315990Y-96503411D01*
X22427932Y-96233158D01*
X22485000Y-95946260D01*
X22485000Y-95653740D01*
X22427932Y-95366842D01*
X22315990Y-95096589D01*
X22153475Y-94853368D01*
X21946632Y-94646525D01*
X21764466Y-94524805D01*
X21881355Y-94455178D01*
X22097588Y-94260269D01*
X22271641Y-94026920D01*
X22396825Y-93764099D01*
X22441476Y-93616890D01*
X22320155Y-93387000D01*
X21127000Y-93387000D01*
X21127000Y-93407000D01*
X20873000Y-93407000D01*
X20873000Y-93387000D01*
X19679845Y-93387000D01*
X19558524Y-93616890D01*
X19603175Y-93764099D01*
X19728359Y-94026920D01*
X19902412Y-94260269D01*
X20118645Y-94455178D01*
X20235534Y-94524805D01*
X20053368Y-94646525D01*
X19846525Y-94853368D01*
X19684010Y-95096589D01*
X19572068Y-95366842D01*
X19515000Y-95653740D01*
X19515000Y-95946260D01*
X19572068Y-96233158D01*
X19684010Y-96503411D01*
X19846525Y-96746632D01*
X20053368Y-96953475D01*
X20178186Y-97036876D01*
X18063895Y-97036876D01*
X18032505Y-97039968D01*
X18026402Y-97039925D01*
X18016188Y-97040926D01*
X17822091Y-97061327D01*
X17756843Y-97074720D01*
X17691402Y-97087204D01*
X17681577Y-97090170D01*
X17495139Y-97147882D01*
X17433720Y-97173700D01*
X17414039Y-97181652D01*
X17389043Y-97144242D01*
X17245758Y-97000957D01*
X17077272Y-96888378D01*
X16890061Y-96810833D01*
X16691318Y-96771300D01*
X16488682Y-96771300D01*
X16289939Y-96810833D01*
X16102728Y-96888378D01*
X15955000Y-96987087D01*
X15807272Y-96888378D01*
X15620061Y-96810833D01*
X15421318Y-96771300D01*
X15218682Y-96771300D01*
X15019939Y-96810833D01*
X14832728Y-96888378D01*
X14685000Y-96987087D01*
X14537272Y-96888378D01*
X14350061Y-96810833D01*
X14151318Y-96771300D01*
X13948682Y-96771300D01*
X13749939Y-96810833D01*
X13562728Y-96888378D01*
X13415000Y-96987087D01*
X13267272Y-96888378D01*
X13080061Y-96810833D01*
X12881318Y-96771300D01*
X12678682Y-96771300D01*
X12479939Y-96810833D01*
X12292728Y-96888378D01*
X12145000Y-96987087D01*
X11997272Y-96888378D01*
X11810061Y-96810833D01*
X11611318Y-96771300D01*
X11408682Y-96771300D01*
X11209939Y-96810833D01*
X11022728Y-96888378D01*
X10854242Y-97000957D01*
X10710957Y-97144242D01*
X10685880Y-97181772D01*
X10664504Y-97172961D01*
X10603311Y-97146734D01*
X10593508Y-97143699D01*
X10406672Y-97087290D01*
X10341280Y-97074342D01*
X10276164Y-97060501D01*
X10265958Y-97059428D01*
X10071724Y-97040383D01*
X10071722Y-97040383D01*
X10036104Y-97036875D01*
X5735946Y-97036875D01*
X5649213Y-97028371D01*
X5600359Y-97013621D01*
X5555300Y-96989663D01*
X5515753Y-96957409D01*
X5483226Y-96918090D01*
X5458956Y-96873204D01*
X5443864Y-96824448D01*
X5434998Y-96740101D01*
X5434998Y-95567609D01*
X12031538Y-95567609D01*
X12035409Y-95605282D01*
X12127579Y-95830533D01*
X12261922Y-96033474D01*
X12433275Y-96206307D01*
X12635054Y-96342390D01*
X12859504Y-96436493D01*
X13098000Y-96485000D01*
X13373000Y-96485000D01*
X13373000Y-95377000D01*
X13627000Y-95377000D01*
X13627000Y-96485000D01*
X13902000Y-96485000D01*
X14140496Y-96436493D01*
X14364946Y-96342390D01*
X14566725Y-96206307D01*
X14738078Y-96033474D01*
X14872421Y-95830533D01*
X14964591Y-95605282D01*
X14968462Y-95567609D01*
X14843731Y-95377000D01*
X13627000Y-95377000D01*
X13373000Y-95377000D01*
X12156269Y-95377000D01*
X12031538Y-95567609D01*
X5434998Y-95567609D01*
X5434998Y-92899600D01*
X11986928Y-92899600D01*
X11986928Y-93600400D01*
X12003984Y-93773576D01*
X12054498Y-93940097D01*
X12136528Y-94093564D01*
X12246921Y-94228079D01*
X12381436Y-94338472D01*
X12386301Y-94341073D01*
X12261922Y-94466526D01*
X12127579Y-94669467D01*
X12035409Y-94894718D01*
X12031538Y-94932391D01*
X12156269Y-95123000D01*
X13373000Y-95123000D01*
X13373000Y-95103000D01*
X13627000Y-95103000D01*
X13627000Y-95123000D01*
X14843731Y-95123000D01*
X14968462Y-94932391D01*
X14964591Y-94894718D01*
X14872421Y-94669467D01*
X14738078Y-94466526D01*
X14613699Y-94341073D01*
X14618564Y-94338472D01*
X14753079Y-94228079D01*
X14863472Y-94093564D01*
X14945502Y-93940097D01*
X14996016Y-93773576D01*
X15013072Y-93600400D01*
X15013072Y-93098967D01*
X15465000Y-93098967D01*
X15465000Y-93421033D01*
X15527832Y-93736912D01*
X15651082Y-94034463D01*
X15830013Y-94302252D01*
X16057748Y-94529987D01*
X16325537Y-94708918D01*
X16623088Y-94832168D01*
X16938967Y-94895000D01*
X17261033Y-94895000D01*
X17576912Y-94832168D01*
X17874463Y-94708918D01*
X18142252Y-94529987D01*
X18369987Y-94302252D01*
X18548918Y-94034463D01*
X18672168Y-93736912D01*
X18735000Y-93421033D01*
X18735000Y-93098967D01*
X18672168Y-92783088D01*
X18548918Y-92485537D01*
X18369987Y-92217748D01*
X18142252Y-91990013D01*
X17874463Y-91811082D01*
X17835000Y-91794736D01*
X17835000Y-91392954D01*
X17884277Y-91319206D01*
X17950990Y-91158146D01*
X17985000Y-90987166D01*
X17985000Y-90812836D01*
X17966534Y-90720000D01*
X19507815Y-90720000D01*
X19536487Y-91011111D01*
X19621401Y-91291034D01*
X19759294Y-91549014D01*
X19944866Y-91775134D01*
X20170986Y-91960706D01*
X20235523Y-91995201D01*
X20118645Y-92064822D01*
X19902412Y-92259731D01*
X19728359Y-92493080D01*
X19603175Y-92755901D01*
X19558524Y-92903110D01*
X19679845Y-93133000D01*
X20873000Y-93133000D01*
X20873000Y-93113000D01*
X21127000Y-93113000D01*
X21127000Y-93133000D01*
X22320155Y-93133000D01*
X22441476Y-92903110D01*
X22396825Y-92755901D01*
X22271641Y-92493080D01*
X22097588Y-92259731D01*
X21881355Y-92064822D01*
X21764477Y-91995201D01*
X21829014Y-91960706D01*
X22055134Y-91775134D01*
X22240706Y-91549014D01*
X22378599Y-91291034D01*
X22463513Y-91011111D01*
X22492185Y-90720000D01*
X22463513Y-90428889D01*
X22378599Y-90148966D01*
X22240706Y-89890986D01*
X22055134Y-89664866D01*
X22025313Y-89640393D01*
X22094180Y-89619502D01*
X22204494Y-89560537D01*
X22301185Y-89481185D01*
X22380537Y-89384494D01*
X22439502Y-89274180D01*
X22475812Y-89154482D01*
X22488072Y-89030000D01*
X22488072Y-87330000D01*
X22475812Y-87205518D01*
X22439502Y-87085820D01*
X22380537Y-86975506D01*
X22301185Y-86878815D01*
X22204494Y-86799463D01*
X22094180Y-86740498D01*
X21974482Y-86704188D01*
X21850000Y-86691928D01*
X20150000Y-86691928D01*
X20025518Y-86704188D01*
X19905820Y-86740498D01*
X19795506Y-86799463D01*
X19698815Y-86878815D01*
X19619463Y-86975506D01*
X19560498Y-87085820D01*
X19524188Y-87205518D01*
X19511928Y-87330000D01*
X19511928Y-89030000D01*
X19524188Y-89154482D01*
X19560498Y-89274180D01*
X19619463Y-89384494D01*
X19698815Y-89481185D01*
X19795506Y-89560537D01*
X19905820Y-89619502D01*
X19974687Y-89640393D01*
X19944866Y-89664866D01*
X19759294Y-89890986D01*
X19621401Y-90148966D01*
X19536487Y-90428889D01*
X19507815Y-90720000D01*
X17966534Y-90720000D01*
X17950990Y-90641856D01*
X17884277Y-90480796D01*
X17787424Y-90335846D01*
X17664155Y-90212577D01*
X17519205Y-90115724D01*
X17358145Y-90049011D01*
X17187165Y-90015001D01*
X17012835Y-90015001D01*
X16841855Y-90049011D01*
X16680795Y-90115724D01*
X16535845Y-90212577D01*
X16412576Y-90335846D01*
X16315723Y-90480796D01*
X16249010Y-90641856D01*
X16215000Y-90812836D01*
X16215000Y-90987166D01*
X16249010Y-91158146D01*
X16315723Y-91319206D01*
X16365001Y-91392955D01*
X16365001Y-91794736D01*
X16325537Y-91811082D01*
X16057748Y-91990013D01*
X15830013Y-92217748D01*
X15651082Y-92485537D01*
X15527832Y-92783088D01*
X15465000Y-93098967D01*
X15013072Y-93098967D01*
X15013072Y-92899600D01*
X14996016Y-92726424D01*
X14945502Y-92559903D01*
X14863472Y-92406436D01*
X14753079Y-92271921D01*
X14618564Y-92161528D01*
X14465097Y-92079498D01*
X14298576Y-92028984D01*
X14125400Y-92011928D01*
X12874600Y-92011928D01*
X12701424Y-92028984D01*
X12534903Y-92079498D01*
X12381436Y-92161528D01*
X12246921Y-92271921D01*
X12136528Y-92406436D01*
X12054498Y-92559903D01*
X12003984Y-92726424D01*
X11986928Y-92899600D01*
X5434998Y-92899600D01*
X5435000Y-87735770D01*
X5431907Y-87704371D01*
X5431950Y-87698276D01*
X5430949Y-87688062D01*
X5410548Y-87493965D01*
X5397155Y-87428717D01*
X5384671Y-87363276D01*
X5381705Y-87353451D01*
X5323993Y-87167013D01*
X5298175Y-87105594D01*
X5273223Y-87043836D01*
X5268405Y-87034775D01*
X5175580Y-86863098D01*
X5138315Y-86807851D01*
X5101850Y-86752126D01*
X5095364Y-86744173D01*
X4970960Y-86593795D01*
X4923654Y-86546818D01*
X4877083Y-86499261D01*
X4869176Y-86492719D01*
X4717934Y-86369369D01*
X4662415Y-86332482D01*
X4607480Y-86294868D01*
X4598453Y-86289986D01*
X4426131Y-86198361D01*
X4364504Y-86172960D01*
X4303311Y-86146733D01*
X4293508Y-86143698D01*
X4106672Y-86087289D01*
X4041280Y-86074341D01*
X3976164Y-86060500D01*
X3965958Y-86059427D01*
X3771724Y-86040382D01*
X3771723Y-86040382D01*
X3736105Y-86036874D01*
X1035947Y-86036874D01*
X949214Y-86028370D01*
X900360Y-86013620D01*
X855301Y-85989662D01*
X815754Y-85957408D01*
X783227Y-85918089D01*
X758957Y-85873203D01*
X743865Y-85824447D01*
X735000Y-85740109D01*
X735000Y-85178363D01*
X9265000Y-85178363D01*
X9265000Y-85421637D01*
X9312460Y-85660236D01*
X9405557Y-85884992D01*
X9540713Y-86087267D01*
X9712733Y-86259287D01*
X9915008Y-86394443D01*
X10139764Y-86487540D01*
X10378363Y-86535000D01*
X10621637Y-86535000D01*
X10860236Y-86487540D01*
X11084992Y-86394443D01*
X11287267Y-86259287D01*
X11459287Y-86087267D01*
X11500000Y-86026336D01*
X11540713Y-86087267D01*
X11712733Y-86259287D01*
X11915008Y-86394443D01*
X12139764Y-86487540D01*
X12378363Y-86535000D01*
X12621637Y-86535000D01*
X12860236Y-86487540D01*
X13084992Y-86394443D01*
X13287267Y-86259287D01*
X13459287Y-86087267D01*
X13500000Y-86026336D01*
X13540713Y-86087267D01*
X13712733Y-86259287D01*
X13915008Y-86394443D01*
X14139764Y-86487540D01*
X14378363Y-86535000D01*
X14621637Y-86535000D01*
X14860236Y-86487540D01*
X15084992Y-86394443D01*
X15287267Y-86259287D01*
X15459287Y-86087267D01*
X15594443Y-85884992D01*
X15665752Y-85712835D01*
X18415000Y-85712835D01*
X18415000Y-85887165D01*
X18449010Y-86058145D01*
X18515723Y-86219205D01*
X18612576Y-86364155D01*
X18735845Y-86487424D01*
X18880795Y-86584277D01*
X19041855Y-86650990D01*
X19212835Y-86685000D01*
X19387165Y-86685000D01*
X19558145Y-86650990D01*
X19719205Y-86584277D01*
X19792953Y-86535000D01*
X28407032Y-86535000D01*
X28480795Y-86584287D01*
X28641855Y-86651000D01*
X28812835Y-86685010D01*
X28987165Y-86685010D01*
X29158145Y-86651000D01*
X29319205Y-86584287D01*
X29464155Y-86487434D01*
X29587424Y-86364165D01*
X29684277Y-86219215D01*
X29750990Y-86058155D01*
X29785000Y-85887175D01*
X29785000Y-85712845D01*
X29750990Y-85541865D01*
X29684277Y-85380805D01*
X29587424Y-85235855D01*
X29464155Y-85112586D01*
X29319205Y-85015733D01*
X29158145Y-84949020D01*
X28987165Y-84915010D01*
X28812835Y-84915010D01*
X28641855Y-84949020D01*
X28480795Y-85015733D01*
X28407062Y-85065000D01*
X19792953Y-85065000D01*
X19719205Y-85015723D01*
X19558145Y-84949010D01*
X19387165Y-84915000D01*
X19212835Y-84915000D01*
X19041855Y-84949010D01*
X18880795Y-85015723D01*
X18735845Y-85112576D01*
X18612576Y-85235845D01*
X18515723Y-85380795D01*
X18449010Y-85541855D01*
X18415000Y-85712835D01*
X15665752Y-85712835D01*
X15687540Y-85660236D01*
X15735000Y-85421637D01*
X15735000Y-85245827D01*
X19045829Y-81935000D01*
X34000578Y-81935000D01*
X34008353Y-81942775D01*
X34186060Y-82061515D01*
X34383517Y-82143304D01*
X34593137Y-82185000D01*
X34806863Y-82185000D01*
X35016483Y-82143304D01*
X35213940Y-82061515D01*
X35391647Y-81942775D01*
X35542775Y-81791647D01*
X35661515Y-81613940D01*
X35743304Y-81416483D01*
X35785000Y-81206863D01*
X35785000Y-80993137D01*
X35743304Y-80783517D01*
X35661515Y-80586060D01*
X35542775Y-80408353D01*
X35391647Y-80257225D01*
X35213940Y-80138485D01*
X35016483Y-80056696D01*
X34806863Y-80015000D01*
X34593137Y-80015000D01*
X34383517Y-80056696D01*
X34186060Y-80138485D01*
X34008353Y-80257225D01*
X34000578Y-80265000D01*
X18740978Y-80265000D01*
X18699960Y-80260960D01*
X18658941Y-80265000D01*
X18536271Y-80277082D01*
X18378873Y-80324828D01*
X18233814Y-80402364D01*
X18106669Y-80506709D01*
X18080523Y-80538568D01*
X14554093Y-84065000D01*
X14378363Y-84065000D01*
X14139764Y-84112460D01*
X13915008Y-84205557D01*
X13712733Y-84340713D01*
X13540713Y-84512733D01*
X13500000Y-84573664D01*
X13459287Y-84512733D01*
X13287267Y-84340713D01*
X13084992Y-84205557D01*
X12860236Y-84112460D01*
X12621637Y-84065000D01*
X12378363Y-84065000D01*
X12139764Y-84112460D01*
X11915008Y-84205557D01*
X11712733Y-84340713D01*
X11540713Y-84512733D01*
X11500000Y-84573664D01*
X11459287Y-84512733D01*
X11287267Y-84340713D01*
X11084992Y-84205557D01*
X10860236Y-84112460D01*
X10621637Y-84065000D01*
X10378363Y-84065000D01*
X10139764Y-84112460D01*
X9915008Y-84205557D01*
X9712733Y-84340713D01*
X9540713Y-84512733D01*
X9405557Y-84715008D01*
X9312460Y-84939764D01*
X9265000Y-85178363D01*
X735000Y-85178363D01*
X735000Y-79127000D01*
X39873000Y-79127000D01*
X39873000Y-84971875D01*
M02*
