G04 #@! TF.GenerationSoftware,KiCad,Pcbnew,(5.1.4)-1*
G04 #@! TF.CreationDate,2020-01-04T16:57:39+09:00*
G04 #@! TF.ProjectId,caravelle,63617261-7665-46c6-9c65-2e6b69636164,rev?*
G04 #@! TF.SameCoordinates,PX2faf080PY1e84800*
G04 #@! TF.FileFunction,Paste,Top*
G04 #@! TF.FilePolarity,Positive*
%FSLAX46Y46*%
G04 Gerber Fmt 4.6, Leading zero omitted, Abs format (unit mm)*
G04 Created by KiCad (PCBNEW (5.1.4)-1) date 2020-01-04 16:57:39*
%MOMM*%
%LPD*%
G04 APERTURE LIST*
%ADD10C,0.100000*%
%ADD11C,0.875000*%
%ADD12R,1.200000X0.500000*%
%ADD13R,0.500000X1.200000*%
%ADD14R,1.250000X0.850000*%
G04 APERTURE END LIST*
D10*
G36*
X252652691Y-82626053D02*
G01*
X252673926Y-82629203D01*
X252694750Y-82634419D01*
X252714962Y-82641651D01*
X252734368Y-82650830D01*
X252752781Y-82661866D01*
X252770024Y-82674654D01*
X252785930Y-82689070D01*
X252800346Y-82704976D01*
X252813134Y-82722219D01*
X252824170Y-82740632D01*
X252833349Y-82760038D01*
X252840581Y-82780250D01*
X252845797Y-82801074D01*
X252848947Y-82822309D01*
X252850000Y-82843750D01*
X252850000Y-83356250D01*
X252848947Y-83377691D01*
X252845797Y-83398926D01*
X252840581Y-83419750D01*
X252833349Y-83439962D01*
X252824170Y-83459368D01*
X252813134Y-83477781D01*
X252800346Y-83495024D01*
X252785930Y-83510930D01*
X252770024Y-83525346D01*
X252752781Y-83538134D01*
X252734368Y-83549170D01*
X252714962Y-83558349D01*
X252694750Y-83565581D01*
X252673926Y-83570797D01*
X252652691Y-83573947D01*
X252631250Y-83575000D01*
X252193750Y-83575000D01*
X252172309Y-83573947D01*
X252151074Y-83570797D01*
X252130250Y-83565581D01*
X252110038Y-83558349D01*
X252090632Y-83549170D01*
X252072219Y-83538134D01*
X252054976Y-83525346D01*
X252039070Y-83510930D01*
X252024654Y-83495024D01*
X252011866Y-83477781D01*
X252000830Y-83459368D01*
X251991651Y-83439962D01*
X251984419Y-83419750D01*
X251979203Y-83398926D01*
X251976053Y-83377691D01*
X251975000Y-83356250D01*
X251975000Y-82843750D01*
X251976053Y-82822309D01*
X251979203Y-82801074D01*
X251984419Y-82780250D01*
X251991651Y-82760038D01*
X252000830Y-82740632D01*
X252011866Y-82722219D01*
X252024654Y-82704976D01*
X252039070Y-82689070D01*
X252054976Y-82674654D01*
X252072219Y-82661866D01*
X252090632Y-82650830D01*
X252110038Y-82641651D01*
X252130250Y-82634419D01*
X252151074Y-82629203D01*
X252172309Y-82626053D01*
X252193750Y-82625000D01*
X252631250Y-82625000D01*
X252652691Y-82626053D01*
X252652691Y-82626053D01*
G37*
D11*
X252412500Y-83100000D03*
D10*
G36*
X254227691Y-82626053D02*
G01*
X254248926Y-82629203D01*
X254269750Y-82634419D01*
X254289962Y-82641651D01*
X254309368Y-82650830D01*
X254327781Y-82661866D01*
X254345024Y-82674654D01*
X254360930Y-82689070D01*
X254375346Y-82704976D01*
X254388134Y-82722219D01*
X254399170Y-82740632D01*
X254408349Y-82760038D01*
X254415581Y-82780250D01*
X254420797Y-82801074D01*
X254423947Y-82822309D01*
X254425000Y-82843750D01*
X254425000Y-83356250D01*
X254423947Y-83377691D01*
X254420797Y-83398926D01*
X254415581Y-83419750D01*
X254408349Y-83439962D01*
X254399170Y-83459368D01*
X254388134Y-83477781D01*
X254375346Y-83495024D01*
X254360930Y-83510930D01*
X254345024Y-83525346D01*
X254327781Y-83538134D01*
X254309368Y-83549170D01*
X254289962Y-83558349D01*
X254269750Y-83565581D01*
X254248926Y-83570797D01*
X254227691Y-83573947D01*
X254206250Y-83575000D01*
X253768750Y-83575000D01*
X253747309Y-83573947D01*
X253726074Y-83570797D01*
X253705250Y-83565581D01*
X253685038Y-83558349D01*
X253665632Y-83549170D01*
X253647219Y-83538134D01*
X253629976Y-83525346D01*
X253614070Y-83510930D01*
X253599654Y-83495024D01*
X253586866Y-83477781D01*
X253575830Y-83459368D01*
X253566651Y-83439962D01*
X253559419Y-83419750D01*
X253554203Y-83398926D01*
X253551053Y-83377691D01*
X253550000Y-83356250D01*
X253550000Y-82843750D01*
X253551053Y-82822309D01*
X253554203Y-82801074D01*
X253559419Y-82780250D01*
X253566651Y-82760038D01*
X253575830Y-82740632D01*
X253586866Y-82722219D01*
X253599654Y-82704976D01*
X253614070Y-82689070D01*
X253629976Y-82674654D01*
X253647219Y-82661866D01*
X253665632Y-82650830D01*
X253685038Y-82641651D01*
X253705250Y-82634419D01*
X253726074Y-82629203D01*
X253747309Y-82626053D01*
X253768750Y-82625000D01*
X254206250Y-82625000D01*
X254227691Y-82626053D01*
X254227691Y-82626053D01*
G37*
D11*
X253987500Y-83100000D03*
D10*
G36*
X39027691Y-80826053D02*
G01*
X39048926Y-80829203D01*
X39069750Y-80834419D01*
X39089962Y-80841651D01*
X39109368Y-80850830D01*
X39127781Y-80861866D01*
X39145024Y-80874654D01*
X39160930Y-80889070D01*
X39175346Y-80904976D01*
X39188134Y-80922219D01*
X39199170Y-80940632D01*
X39208349Y-80960038D01*
X39215581Y-80980250D01*
X39220797Y-81001074D01*
X39223947Y-81022309D01*
X39225000Y-81043750D01*
X39225000Y-81556250D01*
X39223947Y-81577691D01*
X39220797Y-81598926D01*
X39215581Y-81619750D01*
X39208349Y-81639962D01*
X39199170Y-81659368D01*
X39188134Y-81677781D01*
X39175346Y-81695024D01*
X39160930Y-81710930D01*
X39145024Y-81725346D01*
X39127781Y-81738134D01*
X39109368Y-81749170D01*
X39089962Y-81758349D01*
X39069750Y-81765581D01*
X39048926Y-81770797D01*
X39027691Y-81773947D01*
X39006250Y-81775000D01*
X38568750Y-81775000D01*
X38547309Y-81773947D01*
X38526074Y-81770797D01*
X38505250Y-81765581D01*
X38485038Y-81758349D01*
X38465632Y-81749170D01*
X38447219Y-81738134D01*
X38429976Y-81725346D01*
X38414070Y-81710930D01*
X38399654Y-81695024D01*
X38386866Y-81677781D01*
X38375830Y-81659368D01*
X38366651Y-81639962D01*
X38359419Y-81619750D01*
X38354203Y-81598926D01*
X38351053Y-81577691D01*
X38350000Y-81556250D01*
X38350000Y-81043750D01*
X38351053Y-81022309D01*
X38354203Y-81001074D01*
X38359419Y-80980250D01*
X38366651Y-80960038D01*
X38375830Y-80940632D01*
X38386866Y-80922219D01*
X38399654Y-80904976D01*
X38414070Y-80889070D01*
X38429976Y-80874654D01*
X38447219Y-80861866D01*
X38465632Y-80850830D01*
X38485038Y-80841651D01*
X38505250Y-80834419D01*
X38526074Y-80829203D01*
X38547309Y-80826053D01*
X38568750Y-80825000D01*
X39006250Y-80825000D01*
X39027691Y-80826053D01*
X39027691Y-80826053D01*
G37*
D11*
X38787500Y-81300000D03*
D10*
G36*
X37452691Y-80826053D02*
G01*
X37473926Y-80829203D01*
X37494750Y-80834419D01*
X37514962Y-80841651D01*
X37534368Y-80850830D01*
X37552781Y-80861866D01*
X37570024Y-80874654D01*
X37585930Y-80889070D01*
X37600346Y-80904976D01*
X37613134Y-80922219D01*
X37624170Y-80940632D01*
X37633349Y-80960038D01*
X37640581Y-80980250D01*
X37645797Y-81001074D01*
X37648947Y-81022309D01*
X37650000Y-81043750D01*
X37650000Y-81556250D01*
X37648947Y-81577691D01*
X37645797Y-81598926D01*
X37640581Y-81619750D01*
X37633349Y-81639962D01*
X37624170Y-81659368D01*
X37613134Y-81677781D01*
X37600346Y-81695024D01*
X37585930Y-81710930D01*
X37570024Y-81725346D01*
X37552781Y-81738134D01*
X37534368Y-81749170D01*
X37514962Y-81758349D01*
X37494750Y-81765581D01*
X37473926Y-81770797D01*
X37452691Y-81773947D01*
X37431250Y-81775000D01*
X36993750Y-81775000D01*
X36972309Y-81773947D01*
X36951074Y-81770797D01*
X36930250Y-81765581D01*
X36910038Y-81758349D01*
X36890632Y-81749170D01*
X36872219Y-81738134D01*
X36854976Y-81725346D01*
X36839070Y-81710930D01*
X36824654Y-81695024D01*
X36811866Y-81677781D01*
X36800830Y-81659368D01*
X36791651Y-81639962D01*
X36784419Y-81619750D01*
X36779203Y-81598926D01*
X36776053Y-81577691D01*
X36775000Y-81556250D01*
X36775000Y-81043750D01*
X36776053Y-81022309D01*
X36779203Y-81001074D01*
X36784419Y-80980250D01*
X36791651Y-80960038D01*
X36800830Y-80940632D01*
X36811866Y-80922219D01*
X36824654Y-80904976D01*
X36839070Y-80889070D01*
X36854976Y-80874654D01*
X36872219Y-80861866D01*
X36890632Y-80850830D01*
X36910038Y-80841651D01*
X36930250Y-80834419D01*
X36951074Y-80829203D01*
X36972309Y-80826053D01*
X36993750Y-80825000D01*
X37431250Y-80825000D01*
X37452691Y-80826053D01*
X37452691Y-80826053D01*
G37*
D11*
X37212500Y-81300000D03*
D12*
X250250000Y-92400000D03*
X250250000Y-91650000D03*
X250250000Y-90900000D03*
X250250000Y-90150000D03*
X250250000Y-89400000D03*
X250250000Y-88650000D03*
X250250000Y-87900000D03*
X250250000Y-87150000D03*
X250250000Y-86400000D03*
X250250000Y-85650000D03*
X250250000Y-84900000D03*
X250250000Y-84150000D03*
D13*
X249100000Y-83700000D03*
X248350000Y-83700000D03*
X247600000Y-83700000D03*
X246850000Y-83700000D03*
X246100000Y-83700000D03*
X245350000Y-83700000D03*
X244600000Y-83700000D03*
X243850000Y-83700000D03*
X243100000Y-83700000D03*
X242350000Y-83700000D03*
X241600000Y-83700000D03*
D12*
X240450000Y-84150000D03*
X240450000Y-84900000D03*
X240450000Y-85650000D03*
X240450000Y-86400000D03*
X240450000Y-87150000D03*
X240450000Y-87900000D03*
X240450000Y-88650000D03*
X240450000Y-89400000D03*
X240450000Y-90150000D03*
X240450000Y-90900000D03*
X240450000Y-91650000D03*
X240450000Y-92400000D03*
X240450000Y-93150000D03*
X240450000Y-93900000D03*
X240450000Y-94650000D03*
X240450000Y-95400000D03*
X36950000Y-92400000D03*
X36950000Y-91650000D03*
X36950000Y-90900000D03*
X36950000Y-90150000D03*
X36950000Y-89400000D03*
X36950000Y-88650000D03*
X36950000Y-87900000D03*
X36950000Y-87150000D03*
X36950000Y-86400000D03*
X36950000Y-85650000D03*
X36950000Y-84900000D03*
X36950000Y-84150000D03*
D13*
X35800000Y-83700000D03*
X35050000Y-83700000D03*
X34300000Y-83700000D03*
X33550000Y-83700000D03*
X32800000Y-83700000D03*
X32050000Y-83700000D03*
X31300000Y-83700000D03*
X30550000Y-83700000D03*
X29800000Y-83700000D03*
X29050000Y-83700000D03*
X28300000Y-83700000D03*
D12*
X27150000Y-84150000D03*
X27150000Y-84900000D03*
X27150000Y-85650000D03*
X27150000Y-86400000D03*
X27150000Y-87150000D03*
X27150000Y-87900000D03*
X27150000Y-88650000D03*
X27150000Y-89400000D03*
X27150000Y-90150000D03*
X27150000Y-90900000D03*
X27150000Y-91650000D03*
X27150000Y-92400000D03*
X27150000Y-93150000D03*
X27150000Y-93900000D03*
X27150000Y-94650000D03*
X27150000Y-95400000D03*
D14*
X274175000Y-85325000D03*
X270025000Y-85325000D03*
X274175000Y-83175000D03*
X270025000Y-83175000D03*
X7375000Y-85325000D03*
X3225000Y-85325000D03*
X7375000Y-83175000D03*
X3225000Y-83175000D03*
M02*
