M48
; DRILL file {KiCad (5.1.4)-1} date 2019/10/20 1:49:09
; FORMAT={-:-/ absolute / metric / decimal}
; #@! TF.CreationDate,2019-10-20T01:49:09+09:00
; #@! TF.GenerationSoftware,Kicad,Pcbnew,(5.1.4)-1
; #@! TF.FileFunction,NonPlated,1,2,NPTH
FMAT,2
METRIC
T1C0.787
T2C1.750
T3C3.988
%
G90
G05
T1
X133.35Y-26.704
X133.35Y-27.974
X133.35Y-29.244
X133.35Y-30.514
X133.35Y-31.784
X144.05Y-26.704
X144.05Y-27.974
X144.05Y-29.244
X144.05Y-30.514
X144.05Y-31.784
X133.35Y-53.148
X133.35Y-54.418
X133.35Y-55.688
X133.35Y-56.958
X133.35Y-58.228
X149.515Y-80.294
X150.048Y-81.447
X150.581Y-82.6
X151.113Y-83.753
X151.646Y-84.906
X125.754Y-84.906
X126.287Y-83.753
X126.819Y-82.6
X127.352Y-81.447
X127.885Y-80.294
X144.05Y-53.148
X144.05Y-54.418
X144.05Y-55.688
X144.05Y-56.958
X144.05Y-58.228
T2
X4.445Y-38.1
X14.605Y-38.1
X205.645Y-47.625
X215.805Y-47.625
X99.695Y-35.719
X109.855Y-35.719
X205.645Y-28.575
X215.805Y-28.575
X118.745Y-26.194
X128.905Y-26.194
X186.595Y-14.287
X196.755Y-14.287
X92.249Y-73.706
X102.107Y-76.164
X224.695Y-13.097
X234.855Y-13.097
X61.595Y-28.575
X71.755Y-28.575
X222.314Y-70.247
X232.474Y-70.247
X4.445Y-57.15
X14.605Y-57.15
X61.595Y-9.525
X71.755Y-9.525
X167.545Y-54.769
X177.705Y-54.769
X156.551Y-72.841
X160.797Y-82.072
X167.545Y-16.669
X177.705Y-16.669
X99.695Y-16.669
X109.855Y-16.669
X167.545Y-35.719
X177.705Y-35.719
X80.645Y-52.387
X90.805Y-52.387
X186.595Y-52.387
X196.755Y-52.387
X99.695Y-54.769
X109.855Y-54.769
X243.745Y-38.1
X253.905Y-38.1
X61.595Y-47.625
X71.755Y-47.625
X243.745Y-57.15
X253.905Y-57.15
X23.495Y-57.15
X33.655Y-57.15
X118.745Y-45.244
X128.905Y-45.244
X80.645Y-33.337
X90.805Y-33.337
X197.722Y-71.795
X207.842Y-70.891
X4.445Y-19.05
X14.605Y-19.05
X224.695Y-32.147
X234.855Y-32.147
X262.795Y-38.1
X272.955Y-38.1
X69.558Y-70.891
X79.678Y-71.795
X23.495Y-19.05
X33.655Y-19.05
X224.695Y-51.197
X234.855Y-51.197
X80.645Y-14.287
X90.805Y-14.287
X186.595Y-33.337
X196.755Y-33.337
X116.603Y-82.072
X120.849Y-72.841
X262.795Y-19.05
X272.955Y-19.05
X148.495Y-45.244
X158.655Y-45.244
X23.495Y-38.1
X33.655Y-38.1
X243.745Y-19.05
X253.905Y-19.05
X262.795Y-57.15
X272.955Y-57.15
X42.545Y-32.147
X52.705Y-32.147
X175.293Y-76.164
X185.151Y-73.706
X42.545Y-51.197
X52.705Y-51.197
X44.926Y-70.247
X55.086Y-70.247
X42.545Y-13.097
X52.705Y-13.097
X148.495Y-26.194
X158.655Y-26.194
X205.645Y-9.525
X215.805Y-9.525
T3
X9.525Y-38.1
X210.725Y-47.625
X104.775Y-35.719
X210.725Y-28.575
X123.825Y-26.194
X191.675Y-14.287
X97.178Y-74.935
X229.775Y-13.097
X66.675Y-28.575
X227.394Y-70.247
X9.525Y-57.15
X66.675Y-9.525
X172.625Y-54.769
X158.674Y-77.456
X172.625Y-16.669
X104.775Y-16.669
X172.625Y-35.719
X85.725Y-52.387
X191.675Y-52.387
X104.775Y-54.769
X248.825Y-38.1
X66.675Y-47.625
X248.825Y-57.15
X28.575Y-57.15
X123.825Y-45.244
X85.725Y-33.337
X202.782Y-71.343
X9.525Y-19.05
X229.775Y-32.147
X267.875Y-38.1
X74.618Y-71.343
X28.575Y-19.05
X229.775Y-51.197
X85.725Y-14.287
X191.675Y-33.337
X118.726Y-77.456
X267.875Y-19.05
X153.575Y-45.244
X28.575Y-38.1
X248.825Y-19.05
X267.875Y-57.15
X47.625Y-32.147
X180.222Y-74.935
X47.625Y-51.197
X50.006Y-70.247
X47.625Y-13.097
X153.575Y-26.194
X210.725Y-9.525
T0
M30
