M48
; DRILL file {KiCad (5.1.4)-1} date 12/22/19 18:43:05
; FORMAT={-:-/ absolute / metric / decimal}
; #@! TF.CreationDate,2019-12-22T18:43:05+09:00
; #@! TF.GenerationSoftware,Kicad,Pcbnew,(5.1.4)-1
; #@! TF.FileFunction,NonPlated,1,2,NPTH
FMAT,2
METRIC
T1C0.787
T2C1.750
T3C3.988
T4C4.000
%
G90
G05
T1
X151.06Y-34.65
X152.33Y-34.65
X153.6Y-34.65
X154.87Y-34.65
X156.14Y-34.65
X260.81Y-27.55
X262.08Y-27.55
X263.35Y-27.55
X264.62Y-27.55
X265.89Y-27.55
X11.51Y-97.8
X12.78Y-97.8
X14.05Y-97.8
X15.32Y-97.8
X16.59Y-97.8
X181.954Y-102.364
X183.186Y-102.057
X184.419Y-101.75
X185.651Y-101.443
X186.883Y-101.136
X121.26Y-34.65
X122.53Y-34.65
X123.8Y-34.65
X125.07Y-34.65
X126.34Y-34.65
X90.535Y-101.086
X91.768Y-101.393
X93.0Y-101.7
X94.232Y-102.007
X95.465Y-102.314
X226.69Y-21.6
X227.96Y-21.6
X229.23Y-21.6
X230.5Y-21.6
X231.77Y-21.6
X260.81Y-97.75
X262.08Y-97.75
X263.35Y-97.75
X264.62Y-97.75
X265.89Y-97.75
X11.51Y-27.554
X12.78Y-27.554
X14.05Y-27.554
X15.32Y-27.554
X16.59Y-27.554
X45.61Y-21.55
X46.88Y-21.55
X48.15Y-21.55
X49.42Y-21.55
X50.69Y-21.55
T2
X175.293Y-94.164
X185.151Y-91.706
X205.645Y-46.575
X215.805Y-46.575
X23.495Y-37.05
X33.655Y-37.05
X42.545Y-50.147
X52.705Y-50.147
X61.595Y-27.525
X71.755Y-27.525
X23.495Y-75.15
X33.655Y-75.15
X205.645Y-27.525
X215.805Y-27.525
X99.695Y-34.669
X109.855Y-34.669
X69.558Y-88.891
X79.678Y-89.795
X262.795Y-37.05
X272.955Y-37.05
X118.745Y-44.194
X128.905Y-44.194
X4.445Y-75.15
X14.605Y-75.15
X167.545Y-53.719
X177.705Y-53.719
X148.495Y-44.194
X158.655Y-44.194
X156.551Y-90.841
X160.797Y-100.072
X186.595Y-51.337
X196.755Y-51.337
X262.795Y-75.15
X272.955Y-75.15
X116.603Y-100.072
X120.849Y-90.841
X222.314Y-88.247
X232.474Y-88.247
X4.445Y-37.05
X14.605Y-37.05
X167.545Y-34.669
X177.705Y-34.669
X4.445Y-56.1
X14.605Y-56.1
X205.645Y-65.625
X215.805Y-65.625
X80.645Y-51.337
X90.805Y-51.337
X44.926Y-88.247
X55.086Y-88.247
X224.695Y-50.147
X234.855Y-50.147
X61.595Y-65.625
X71.755Y-65.625
X42.545Y-69.197
X52.705Y-69.197
X148.495Y-63.244
X158.655Y-63.244
X61.595Y-46.575
X71.755Y-46.575
X197.722Y-89.795
X207.842Y-88.891
X224.695Y-31.097
X234.855Y-31.097
X243.745Y-37.05
X253.905Y-37.05
X42.545Y-31.097
X52.705Y-31.097
X186.595Y-32.287
X196.755Y-32.287
X118.745Y-63.244
X128.905Y-63.244
X243.745Y-56.1
X253.905Y-56.1
X23.495Y-56.1
X33.655Y-56.1
X99.695Y-53.719
X109.855Y-53.719
X224.695Y-69.197
X234.855Y-69.197
X243.745Y-75.15
X253.905Y-75.15
X99.695Y-72.769
X109.855Y-72.769
X167.545Y-72.769
X177.705Y-72.769
X92.249Y-91.706
X102.107Y-94.164
X80.645Y-70.388
X90.805Y-70.388
X80.645Y-32.287
X90.805Y-32.287
X186.595Y-70.388
X196.755Y-70.388
X262.795Y-56.1
X272.955Y-56.1
T3
X172.625Y-72.769
X97.178Y-92.935
X85.725Y-70.388
X85.725Y-32.287
X191.675Y-70.388
X267.875Y-56.1
X180.222Y-92.935
X210.725Y-46.575
X28.575Y-37.05
X47.625Y-50.147
X66.675Y-27.525
X28.575Y-75.15
X210.725Y-27.525
X104.775Y-34.669
X74.618Y-89.343
X267.875Y-37.05
X123.825Y-44.194
X9.525Y-75.15
X172.625Y-53.719
X153.575Y-44.194
X158.674Y-95.456
X191.675Y-51.337
X267.875Y-75.15
X118.726Y-95.456
X227.394Y-88.247
X9.525Y-37.05
X172.625Y-34.669
X9.525Y-56.1
X210.725Y-65.625
X85.725Y-51.337
X50.006Y-88.247
X229.775Y-50.147
X66.675Y-65.625
X47.625Y-69.197
X153.575Y-63.244
X66.675Y-46.575
X202.782Y-89.343
X229.775Y-31.097
X248.825Y-37.05
X47.625Y-31.097
X191.675Y-32.287
X123.825Y-63.244
X248.825Y-56.1
X28.575Y-56.1
X104.775Y-53.719
X229.775Y-69.197
X248.825Y-75.15
X104.775Y-72.769
T4
X5.0Y-10.0
X272.4Y-120.0
X272.4Y-10.0
X5.0Y-120.0
T0
M30
