G04 #@! TF.GenerationSoftware,KiCad,Pcbnew,(5.1.4)-1*
G04 #@! TF.CreationDate,2020-01-04T16:57:39+09:00*
G04 #@! TF.ProjectId,caravelle,63617261-7665-46c6-9c65-2e6b69636164,rev?*
G04 #@! TF.SameCoordinates,PX2faf080PY1e84800*
G04 #@! TF.FileFunction,Legend,Top*
G04 #@! TF.FilePolarity,Positive*
%FSLAX46Y46*%
G04 Gerber Fmt 4.6, Leading zero omitted, Abs format (unit mm)*
G04 Created by KiCad (PCBNEW (5.1.4)-1) date 2020-01-04 16:57:39*
%MOMM*%
%LPD*%
G04 APERTURE LIST*
%ADD10C,0.150000*%
%ADD11C,0.120000*%
%ADD12C,0.500000*%
%ADD13C,0.100000*%
%ADD14C,1.275000*%
%ADD15C,4.400000*%
%ADD16C,1.600000*%
%ADD17C,2.250000*%
%ADD18C,1.187400*%
%ADD19C,3.000000*%
%ADD20R,1.600000X0.900000*%
%ADD21R,0.900000X1.600000*%
%ADD22C,4.387800*%
%ADD23C,2.150000*%
%ADD24R,2.100000X2.100000*%
%ADD25O,2.100000X2.100000*%
%ADD26C,2.100000*%
%ADD27R,1.650000X1.250000*%
%ADD28O,2.150000X1.600000*%
G04 APERTURE END LIST*
D10*
X9738095Y-86561904D02*
X9890476Y-86561904D01*
X9966666Y-86600000D01*
X10042857Y-86676190D01*
X10080952Y-86828571D01*
X10080952Y-87095238D01*
X10042857Y-87247619D01*
X9966666Y-87323809D01*
X9890476Y-87361904D01*
X9738095Y-87361904D01*
X9661904Y-87323809D01*
X9585714Y-87247619D01*
X9547619Y-87095238D01*
X9547619Y-86828571D01*
X9585714Y-86676190D01*
X9661904Y-86600000D01*
X9738095Y-86561904D01*
X10690476Y-86942857D02*
X10423809Y-86942857D01*
X10423809Y-87361904D02*
X10423809Y-86561904D01*
X10804761Y-86561904D01*
X11376190Y-86942857D02*
X11109523Y-86942857D01*
X11109523Y-87361904D02*
X11109523Y-86561904D01*
X11490476Y-86561904D01*
X16004761Y-86561904D02*
X16157142Y-86561904D01*
X16233333Y-86600000D01*
X16309523Y-86676190D01*
X16347619Y-86828571D01*
X16347619Y-87095238D01*
X16309523Y-87247619D01*
X16233333Y-87323809D01*
X16157142Y-87361904D01*
X16004761Y-87361904D01*
X15928571Y-87323809D01*
X15852380Y-87247619D01*
X15814285Y-87095238D01*
X15814285Y-86828571D01*
X15852380Y-86676190D01*
X15928571Y-86600000D01*
X16004761Y-86561904D01*
X16690476Y-87361904D02*
X16690476Y-86561904D01*
X17147619Y-87361904D01*
X17147619Y-86561904D01*
X266504761Y-86561904D02*
X266657142Y-86561904D01*
X266733333Y-86600000D01*
X266809523Y-86676190D01*
X266847619Y-86828571D01*
X266847619Y-87095238D01*
X266809523Y-87247619D01*
X266733333Y-87323809D01*
X266657142Y-87361904D01*
X266504761Y-87361904D01*
X266428571Y-87323809D01*
X266352380Y-87247619D01*
X266314285Y-87095238D01*
X266314285Y-86828571D01*
X266352380Y-86676190D01*
X266428571Y-86600000D01*
X266504761Y-86561904D01*
X267190476Y-87361904D02*
X267190476Y-86561904D01*
X267647619Y-87361904D01*
X267647619Y-86561904D01*
X260238095Y-86561904D02*
X260390476Y-86561904D01*
X260466666Y-86600000D01*
X260542857Y-86676190D01*
X260580952Y-86828571D01*
X260580952Y-87095238D01*
X260542857Y-87247619D01*
X260466666Y-87323809D01*
X260390476Y-87361904D01*
X260238095Y-87361904D01*
X260161904Y-87323809D01*
X260085714Y-87247619D01*
X260047619Y-87095238D01*
X260047619Y-86828571D01*
X260085714Y-86676190D01*
X260161904Y-86600000D01*
X260238095Y-86561904D01*
X261190476Y-86942857D02*
X260923809Y-86942857D01*
X260923809Y-87361904D02*
X260923809Y-86561904D01*
X261304761Y-86561904D01*
X261876190Y-86942857D02*
X261609523Y-86942857D01*
X261609523Y-87361904D02*
X261609523Y-86561904D01*
X261990476Y-86561904D01*
D11*
X253362779Y-82590000D02*
X253037221Y-82590000D01*
X253362779Y-83610000D02*
X253037221Y-83610000D01*
X37837221Y-81810000D02*
X38162779Y-81810000D01*
X37837221Y-80790000D02*
X38162779Y-80790000D01*
X250557000Y-83327000D02*
X249668000Y-83327000D01*
X240143000Y-83581000D02*
X240143000Y-83327000D01*
X240143000Y-83327000D02*
X241032000Y-83327000D01*
X250557000Y-83327000D02*
X250557000Y-83581000D01*
X240143000Y-97551000D02*
X240143000Y-96027000D01*
X240143000Y-96027000D02*
X239508000Y-96027000D01*
X239508000Y-96027000D02*
X239508000Y-95138000D01*
X250557000Y-92979000D02*
X250557000Y-97551000D01*
X37257000Y-83327000D02*
X36368000Y-83327000D01*
X26843000Y-83581000D02*
X26843000Y-83327000D01*
X26843000Y-83327000D02*
X27732000Y-83327000D01*
X37257000Y-83327000D02*
X37257000Y-83581000D01*
X26843000Y-97551000D02*
X26843000Y-96027000D01*
X26843000Y-96027000D02*
X26208000Y-96027000D01*
X26208000Y-96027000D02*
X26208000Y-95138000D01*
X37257000Y-92979000D02*
X37257000Y-97551000D01*
X22270000Y-97070000D02*
X21000000Y-97070000D01*
X22270000Y-95800000D02*
X22270000Y-97070000D01*
X274300000Y-82550000D02*
X269900000Y-82550000D01*
X269900000Y-82550000D02*
X269900000Y-82670000D01*
X269900000Y-83680000D02*
X269900000Y-84820000D01*
X269900000Y-85830000D02*
X269900000Y-85950000D01*
X269900000Y-85950000D02*
X274300000Y-85950000D01*
X274300000Y-85950000D02*
X274300000Y-85830000D01*
X274300000Y-84820000D02*
X274300000Y-83680000D01*
X274300000Y-82670000D02*
X274300000Y-82550000D01*
X7500000Y-82550000D02*
X3100000Y-82550000D01*
X3100000Y-82550000D02*
X3100000Y-82670000D01*
X3100000Y-83680000D02*
X3100000Y-84820000D01*
X3100000Y-85830000D02*
X3100000Y-85950000D01*
X3100000Y-85950000D02*
X7500000Y-85950000D01*
X7500000Y-85950000D02*
X7500000Y-85830000D01*
X7500000Y-84820000D02*
X7500000Y-83680000D01*
X7500000Y-82670000D02*
X7500000Y-82550000D01*
X264040000Y-96110000D02*
X262825000Y-96110000D01*
X268000000Y-96050000D02*
X270260000Y-96050000D01*
X268000000Y-95550000D02*
X270260000Y-95550000D01*
X266400000Y-92950000D02*
X266400000Y-91950000D01*
X268000000Y-92950000D02*
X266400000Y-92950000D01*
X268000000Y-91950000D02*
X268000000Y-92950000D01*
X266400000Y-91950000D02*
X268000000Y-91950000D01*
X266400000Y-95550000D02*
X266400000Y-96550000D01*
X268000000Y-95550000D02*
X266400000Y-95550000D01*
X268000000Y-96550000D02*
X268000000Y-95550000D01*
X266400000Y-96550000D02*
X268000000Y-96550000D01*
X264040000Y-91190000D02*
X264040000Y-92110000D01*
X264040000Y-97310000D02*
X264040000Y-96390000D01*
X265900000Y-93750000D02*
X270260000Y-93750000D01*
X265900000Y-94750000D02*
X265900000Y-93750000D01*
X270260000Y-94750000D02*
X265900000Y-94750000D01*
X264040000Y-92110000D02*
X264040000Y-92390000D01*
X262440000Y-92110000D02*
X264040000Y-92110000D01*
X262440000Y-91190000D02*
X262440000Y-92110000D01*
X270260000Y-91190000D02*
X262440000Y-91190000D01*
X270260000Y-97310000D02*
X270260000Y-91190000D01*
X262440000Y-97310000D02*
X270260000Y-97310000D01*
X262440000Y-96390000D02*
X262440000Y-97310000D01*
X264040000Y-96390000D02*
X262440000Y-96390000D01*
X264040000Y-96110000D02*
X264040000Y-96390000D01*
X13360000Y-92390000D02*
X14575000Y-92390000D01*
X9400000Y-92450000D02*
X7140000Y-92450000D01*
X9400000Y-92950000D02*
X7140000Y-92950000D01*
X11000000Y-95550000D02*
X11000000Y-96550000D01*
X9400000Y-95550000D02*
X11000000Y-95550000D01*
X9400000Y-96550000D02*
X9400000Y-95550000D01*
X11000000Y-96550000D02*
X9400000Y-96550000D01*
X11000000Y-92950000D02*
X11000000Y-91950000D01*
X9400000Y-92950000D02*
X11000000Y-92950000D01*
X9400000Y-91950000D02*
X9400000Y-92950000D01*
X11000000Y-91950000D02*
X9400000Y-91950000D01*
X13360000Y-97310000D02*
X13360000Y-96390000D01*
X13360000Y-91190000D02*
X13360000Y-92110000D01*
X11500000Y-94750000D02*
X7140000Y-94750000D01*
X11500000Y-93750000D02*
X11500000Y-94750000D01*
X7140000Y-93750000D02*
X11500000Y-93750000D01*
X13360000Y-96390000D02*
X13360000Y-96110000D01*
X14960000Y-96390000D02*
X13360000Y-96390000D01*
X14960000Y-97310000D02*
X14960000Y-96390000D01*
X7140000Y-97310000D02*
X14960000Y-97310000D01*
X7140000Y-91190000D02*
X7140000Y-97310000D01*
X14960000Y-91190000D02*
X7140000Y-91190000D01*
X14960000Y-92110000D02*
X14960000Y-91190000D01*
X13360000Y-92110000D02*
X14960000Y-92110000D01*
X13360000Y-92390000D02*
X13360000Y-92110000D01*
X257670000Y-97070000D02*
X256400000Y-97070000D01*
X257670000Y-95800000D02*
X257670000Y-97070000D01*
D12*
X84247619Y-82585714D02*
X84009523Y-82823809D01*
X83295238Y-83061904D01*
X82819047Y-83061904D01*
X82104761Y-82823809D01*
X81628571Y-82347619D01*
X81390476Y-81871428D01*
X81152380Y-80919047D01*
X81152380Y-80204761D01*
X81390476Y-79252380D01*
X81628571Y-78776190D01*
X82104761Y-78300000D01*
X82819047Y-78061904D01*
X83295238Y-78061904D01*
X84009523Y-78300000D01*
X84247619Y-78538095D01*
X86152380Y-81633333D02*
X88533333Y-81633333D01*
X85676190Y-83061904D02*
X87342857Y-78061904D01*
X89009523Y-83061904D01*
X93533333Y-83061904D02*
X91866666Y-80680952D01*
X90676190Y-83061904D02*
X90676190Y-78061904D01*
X92580952Y-78061904D01*
X93057142Y-78300000D01*
X93295238Y-78538095D01*
X93533333Y-79014285D01*
X93533333Y-79728571D01*
X93295238Y-80204761D01*
X93057142Y-80442857D01*
X92580952Y-80680952D01*
X90676190Y-80680952D01*
X95438095Y-81633333D02*
X97819047Y-81633333D01*
X94961904Y-83061904D02*
X96628571Y-78061904D01*
X98295238Y-83061904D01*
X99247619Y-78061904D02*
X100914285Y-83061904D01*
X102580952Y-78061904D01*
X104247619Y-80442857D02*
X105914285Y-80442857D01*
X106628571Y-83061904D02*
X104247619Y-83061904D01*
X104247619Y-78061904D01*
X106628571Y-78061904D01*
X111152380Y-83061904D02*
X108771428Y-83061904D01*
X108771428Y-78061904D01*
X115200000Y-83061904D02*
X112819047Y-83061904D01*
X112819047Y-78061904D01*
X116866666Y-80442857D02*
X118533333Y-80442857D01*
X119247619Y-83061904D02*
X116866666Y-83061904D01*
X116866666Y-78061904D01*
X119247619Y-78061904D01*
X161247619Y-82585714D02*
X161009523Y-82823809D01*
X160295238Y-83061904D01*
X159819047Y-83061904D01*
X159104761Y-82823809D01*
X158628571Y-82347619D01*
X158390476Y-81871428D01*
X158152380Y-80919047D01*
X158152380Y-80204761D01*
X158390476Y-79252380D01*
X158628571Y-78776190D01*
X159104761Y-78300000D01*
X159819047Y-78061904D01*
X160295238Y-78061904D01*
X161009523Y-78300000D01*
X161247619Y-78538095D01*
X163152380Y-81633333D02*
X165533333Y-81633333D01*
X162676190Y-83061904D02*
X164342857Y-78061904D01*
X166009523Y-83061904D01*
X170533333Y-83061904D02*
X168866666Y-80680952D01*
X167676190Y-83061904D02*
X167676190Y-78061904D01*
X169580952Y-78061904D01*
X170057142Y-78300000D01*
X170295238Y-78538095D01*
X170533333Y-79014285D01*
X170533333Y-79728571D01*
X170295238Y-80204761D01*
X170057142Y-80442857D01*
X169580952Y-80680952D01*
X167676190Y-80680952D01*
X172438095Y-81633333D02*
X174819047Y-81633333D01*
X171961904Y-83061904D02*
X173628571Y-78061904D01*
X175295238Y-83061904D01*
X176247619Y-78061904D02*
X177914285Y-83061904D01*
X179580952Y-78061904D01*
X181247619Y-80442857D02*
X182914285Y-80442857D01*
X183628571Y-83061904D02*
X181247619Y-83061904D01*
X181247619Y-78061904D01*
X183628571Y-78061904D01*
X188152380Y-83061904D02*
X185771428Y-83061904D01*
X185771428Y-78061904D01*
X192200000Y-83061904D02*
X189819047Y-83061904D01*
X189819047Y-78061904D01*
X193866666Y-80442857D02*
X195533333Y-80442857D01*
X196247619Y-83061904D02*
X193866666Y-83061904D01*
X193866666Y-78061904D01*
X196247619Y-78061904D01*
D10*
X253583333Y-84887142D02*
X253535714Y-84934761D01*
X253392857Y-84982380D01*
X253297619Y-84982380D01*
X253154761Y-84934761D01*
X253059523Y-84839523D01*
X253011904Y-84744285D01*
X252964285Y-84553809D01*
X252964285Y-84410952D01*
X253011904Y-84220476D01*
X253059523Y-84125238D01*
X253154761Y-84030000D01*
X253297619Y-83982380D01*
X253392857Y-83982380D01*
X253535714Y-84030000D01*
X253583333Y-84077619D01*
X254440476Y-84315714D02*
X254440476Y-84982380D01*
X254202380Y-83934761D02*
X253964285Y-84649047D01*
X254583333Y-84649047D01*
X37833333Y-80227142D02*
X37785714Y-80274761D01*
X37642857Y-80322380D01*
X37547619Y-80322380D01*
X37404761Y-80274761D01*
X37309523Y-80179523D01*
X37261904Y-80084285D01*
X37214285Y-79893809D01*
X37214285Y-79750952D01*
X37261904Y-79560476D01*
X37309523Y-79465238D01*
X37404761Y-79370000D01*
X37547619Y-79322380D01*
X37642857Y-79322380D01*
X37785714Y-79370000D01*
X37833333Y-79417619D01*
X38785714Y-80322380D02*
X38214285Y-80322380D01*
X38500000Y-80322380D02*
X38500000Y-79322380D01*
X38404761Y-79465238D01*
X38309523Y-79560476D01*
X38214285Y-79608095D01*
X262566666Y-82904761D02*
X262709523Y-82952380D01*
X262947619Y-82952380D01*
X263042857Y-82904761D01*
X263090476Y-82857142D01*
X263138095Y-82761904D01*
X263138095Y-82666666D01*
X263090476Y-82571428D01*
X263042857Y-82523809D01*
X262947619Y-82476190D01*
X262757142Y-82428571D01*
X262661904Y-82380952D01*
X262614285Y-82333333D01*
X262566666Y-82238095D01*
X262566666Y-82142857D01*
X262614285Y-82047619D01*
X262661904Y-82000000D01*
X262757142Y-81952380D01*
X262995238Y-81952380D01*
X263138095Y-82000000D01*
X263471428Y-81952380D02*
X263709523Y-82952380D01*
X263900000Y-82238095D01*
X264090476Y-82952380D01*
X264328571Y-81952380D01*
X264661904Y-82047619D02*
X264709523Y-82000000D01*
X264804761Y-81952380D01*
X265042857Y-81952380D01*
X265138095Y-82000000D01*
X265185714Y-82047619D01*
X265233333Y-82142857D01*
X265233333Y-82238095D01*
X265185714Y-82380952D01*
X264614285Y-82952380D01*
X265233333Y-82952380D01*
X12166666Y-82804761D02*
X12309523Y-82852380D01*
X12547619Y-82852380D01*
X12642857Y-82804761D01*
X12690476Y-82757142D01*
X12738095Y-82661904D01*
X12738095Y-82566666D01*
X12690476Y-82471428D01*
X12642857Y-82423809D01*
X12547619Y-82376190D01*
X12357142Y-82328571D01*
X12261904Y-82280952D01*
X12214285Y-82233333D01*
X12166666Y-82138095D01*
X12166666Y-82042857D01*
X12214285Y-81947619D01*
X12261904Y-81900000D01*
X12357142Y-81852380D01*
X12595238Y-81852380D01*
X12738095Y-81900000D01*
X13071428Y-81852380D02*
X13309523Y-82852380D01*
X13500000Y-82138095D01*
X13690476Y-82852380D01*
X13928571Y-81852380D01*
X14833333Y-82852380D02*
X14261904Y-82852380D01*
X14547619Y-82852380D02*
X14547619Y-81852380D01*
X14452380Y-81995238D01*
X14357142Y-82090476D01*
X14261904Y-82138095D01*
X237817380Y-90311904D02*
X238626904Y-90311904D01*
X238722142Y-90264285D01*
X238769761Y-90216666D01*
X238817380Y-90121428D01*
X238817380Y-89930952D01*
X238769761Y-89835714D01*
X238722142Y-89788095D01*
X238626904Y-89740476D01*
X237817380Y-89740476D01*
X237817380Y-88788095D02*
X237817380Y-89264285D01*
X238293571Y-89311904D01*
X238245952Y-89264285D01*
X238198333Y-89169047D01*
X238198333Y-88930952D01*
X238245952Y-88835714D01*
X238293571Y-88788095D01*
X238388809Y-88740476D01*
X238626904Y-88740476D01*
X238722142Y-88788095D01*
X238769761Y-88835714D01*
X238817380Y-88930952D01*
X238817380Y-89169047D01*
X238769761Y-89264285D01*
X238722142Y-89311904D01*
X24517380Y-90311904D02*
X25326904Y-90311904D01*
X25422142Y-90264285D01*
X25469761Y-90216666D01*
X25517380Y-90121428D01*
X25517380Y-89930952D01*
X25469761Y-89835714D01*
X25422142Y-89788095D01*
X25326904Y-89740476D01*
X24517380Y-89740476D01*
X25517380Y-88740476D02*
X25517380Y-89311904D01*
X25517380Y-89026190D02*
X24517380Y-89026190D01*
X24660238Y-89121428D01*
X24755476Y-89216666D01*
X24803095Y-89311904D01*
X22357380Y-92323333D02*
X23071666Y-92323333D01*
X23214523Y-92370952D01*
X23309761Y-92466190D01*
X23357380Y-92609047D01*
X23357380Y-92704285D01*
X23357380Y-91323333D02*
X23357380Y-91894761D01*
X23357380Y-91609047D02*
X22357380Y-91609047D01*
X22500238Y-91704285D01*
X22595476Y-91799523D01*
X22643095Y-91894761D01*
X270766666Y-82054761D02*
X270909523Y-82102380D01*
X271147619Y-82102380D01*
X271242857Y-82054761D01*
X271290476Y-82007142D01*
X271338095Y-81911904D01*
X271338095Y-81816666D01*
X271290476Y-81721428D01*
X271242857Y-81673809D01*
X271147619Y-81626190D01*
X270957142Y-81578571D01*
X270861904Y-81530952D01*
X270814285Y-81483333D01*
X270766666Y-81388095D01*
X270766666Y-81292857D01*
X270814285Y-81197619D01*
X270861904Y-81150000D01*
X270957142Y-81102380D01*
X271195238Y-81102380D01*
X271338095Y-81150000D01*
X271671428Y-81102380D02*
X271909523Y-82102380D01*
X272100000Y-81388095D01*
X272290476Y-82102380D01*
X272528571Y-81102380D01*
X273338095Y-81435714D02*
X273338095Y-82102380D01*
X273100000Y-81054761D02*
X272861904Y-81769047D01*
X273480952Y-81769047D01*
X3966666Y-81904761D02*
X4109523Y-81952380D01*
X4347619Y-81952380D01*
X4442857Y-81904761D01*
X4490476Y-81857142D01*
X4538095Y-81761904D01*
X4538095Y-81666666D01*
X4490476Y-81571428D01*
X4442857Y-81523809D01*
X4347619Y-81476190D01*
X4157142Y-81428571D01*
X4061904Y-81380952D01*
X4014285Y-81333333D01*
X3966666Y-81238095D01*
X3966666Y-81142857D01*
X4014285Y-81047619D01*
X4061904Y-81000000D01*
X4157142Y-80952380D01*
X4395238Y-80952380D01*
X4538095Y-81000000D01*
X4871428Y-80952380D02*
X5109523Y-81952380D01*
X5300000Y-81238095D01*
X5490476Y-81952380D01*
X5728571Y-80952380D01*
X6014285Y-80952380D02*
X6633333Y-80952380D01*
X6300000Y-81333333D01*
X6442857Y-81333333D01*
X6538095Y-81380952D01*
X6585714Y-81428571D01*
X6633333Y-81523809D01*
X6633333Y-81761904D01*
X6585714Y-81857142D01*
X6538095Y-81904761D01*
X6442857Y-81952380D01*
X6157142Y-81952380D01*
X6061904Y-81904761D01*
X6014285Y-81857142D01*
X270752380Y-94583333D02*
X271466666Y-94583333D01*
X271609523Y-94630952D01*
X271704761Y-94726190D01*
X271752380Y-94869047D01*
X271752380Y-94964285D01*
X271085714Y-93678571D02*
X271752380Y-93678571D01*
X270704761Y-93916666D02*
X271419047Y-94154761D01*
X271419047Y-93535714D01*
X5452380Y-94583333D02*
X6166666Y-94583333D01*
X6309523Y-94630952D01*
X6404761Y-94726190D01*
X6452380Y-94869047D01*
X6452380Y-94964285D01*
X5547619Y-94154761D02*
X5500000Y-94107142D01*
X5452380Y-94011904D01*
X5452380Y-93773809D01*
X5500000Y-93678571D01*
X5547619Y-93630952D01*
X5642857Y-93583333D01*
X5738095Y-93583333D01*
X5880952Y-93630952D01*
X6452380Y-94202380D01*
X6452380Y-93583333D01*
X253252380Y-93133333D02*
X253966666Y-93133333D01*
X254109523Y-93180952D01*
X254204761Y-93276190D01*
X254252380Y-93419047D01*
X254252380Y-93514285D01*
X253252380Y-92752380D02*
X253252380Y-92133333D01*
X253633333Y-92466666D01*
X253633333Y-92323809D01*
X253680952Y-92228571D01*
X253728571Y-92180952D01*
X253823809Y-92133333D01*
X254061904Y-92133333D01*
X254157142Y-92180952D01*
X254204761Y-92228571D01*
X254252380Y-92323809D01*
X254252380Y-92609523D01*
X254204761Y-92704761D01*
X254157142Y-92752380D01*
%LPC*%
D13*
G36*
X252762493Y-82426535D02*
G01*
X252793435Y-82431125D01*
X252823778Y-82438725D01*
X252853230Y-82449263D01*
X252881508Y-82462638D01*
X252908338Y-82478719D01*
X252933463Y-82497353D01*
X252956640Y-82518360D01*
X252977647Y-82541537D01*
X252996281Y-82566662D01*
X253012362Y-82593492D01*
X253025737Y-82621770D01*
X253036275Y-82651222D01*
X253043875Y-82681565D01*
X253048465Y-82712507D01*
X253050000Y-82743750D01*
X253050000Y-83456250D01*
X253048465Y-83487493D01*
X253043875Y-83518435D01*
X253036275Y-83548778D01*
X253025737Y-83578230D01*
X253012362Y-83606508D01*
X252996281Y-83633338D01*
X252977647Y-83658463D01*
X252956640Y-83681640D01*
X252933463Y-83702647D01*
X252908338Y-83721281D01*
X252881508Y-83737362D01*
X252853230Y-83750737D01*
X252823778Y-83761275D01*
X252793435Y-83768875D01*
X252762493Y-83773465D01*
X252731250Y-83775000D01*
X252093750Y-83775000D01*
X252062507Y-83773465D01*
X252031565Y-83768875D01*
X252001222Y-83761275D01*
X251971770Y-83750737D01*
X251943492Y-83737362D01*
X251916662Y-83721281D01*
X251891537Y-83702647D01*
X251868360Y-83681640D01*
X251847353Y-83658463D01*
X251828719Y-83633338D01*
X251812638Y-83606508D01*
X251799263Y-83578230D01*
X251788725Y-83548778D01*
X251781125Y-83518435D01*
X251776535Y-83487493D01*
X251775000Y-83456250D01*
X251775000Y-82743750D01*
X251776535Y-82712507D01*
X251781125Y-82681565D01*
X251788725Y-82651222D01*
X251799263Y-82621770D01*
X251812638Y-82593492D01*
X251828719Y-82566662D01*
X251847353Y-82541537D01*
X251868360Y-82518360D01*
X251891537Y-82497353D01*
X251916662Y-82478719D01*
X251943492Y-82462638D01*
X251971770Y-82449263D01*
X252001222Y-82438725D01*
X252031565Y-82431125D01*
X252062507Y-82426535D01*
X252093750Y-82425000D01*
X252731250Y-82425000D01*
X252762493Y-82426535D01*
X252762493Y-82426535D01*
G37*
D14*
X252412500Y-83100000D03*
D13*
G36*
X254337493Y-82426535D02*
G01*
X254368435Y-82431125D01*
X254398778Y-82438725D01*
X254428230Y-82449263D01*
X254456508Y-82462638D01*
X254483338Y-82478719D01*
X254508463Y-82497353D01*
X254531640Y-82518360D01*
X254552647Y-82541537D01*
X254571281Y-82566662D01*
X254587362Y-82593492D01*
X254600737Y-82621770D01*
X254611275Y-82651222D01*
X254618875Y-82681565D01*
X254623465Y-82712507D01*
X254625000Y-82743750D01*
X254625000Y-83456250D01*
X254623465Y-83487493D01*
X254618875Y-83518435D01*
X254611275Y-83548778D01*
X254600737Y-83578230D01*
X254587362Y-83606508D01*
X254571281Y-83633338D01*
X254552647Y-83658463D01*
X254531640Y-83681640D01*
X254508463Y-83702647D01*
X254483338Y-83721281D01*
X254456508Y-83737362D01*
X254428230Y-83750737D01*
X254398778Y-83761275D01*
X254368435Y-83768875D01*
X254337493Y-83773465D01*
X254306250Y-83775000D01*
X253668750Y-83775000D01*
X253637507Y-83773465D01*
X253606565Y-83768875D01*
X253576222Y-83761275D01*
X253546770Y-83750737D01*
X253518492Y-83737362D01*
X253491662Y-83721281D01*
X253466537Y-83702647D01*
X253443360Y-83681640D01*
X253422353Y-83658463D01*
X253403719Y-83633338D01*
X253387638Y-83606508D01*
X253374263Y-83578230D01*
X253363725Y-83548778D01*
X253356125Y-83518435D01*
X253351535Y-83487493D01*
X253350000Y-83456250D01*
X253350000Y-82743750D01*
X253351535Y-82712507D01*
X253356125Y-82681565D01*
X253363725Y-82651222D01*
X253374263Y-82621770D01*
X253387638Y-82593492D01*
X253403719Y-82566662D01*
X253422353Y-82541537D01*
X253443360Y-82518360D01*
X253466537Y-82497353D01*
X253491662Y-82478719D01*
X253518492Y-82462638D01*
X253546770Y-82449263D01*
X253576222Y-82438725D01*
X253606565Y-82431125D01*
X253637507Y-82426535D01*
X253668750Y-82425000D01*
X254306250Y-82425000D01*
X254337493Y-82426535D01*
X254337493Y-82426535D01*
G37*
D14*
X253987500Y-83100000D03*
D13*
G36*
X39137493Y-80626535D02*
G01*
X39168435Y-80631125D01*
X39198778Y-80638725D01*
X39228230Y-80649263D01*
X39256508Y-80662638D01*
X39283338Y-80678719D01*
X39308463Y-80697353D01*
X39331640Y-80718360D01*
X39352647Y-80741537D01*
X39371281Y-80766662D01*
X39387362Y-80793492D01*
X39400737Y-80821770D01*
X39411275Y-80851222D01*
X39418875Y-80881565D01*
X39423465Y-80912507D01*
X39425000Y-80943750D01*
X39425000Y-81656250D01*
X39423465Y-81687493D01*
X39418875Y-81718435D01*
X39411275Y-81748778D01*
X39400737Y-81778230D01*
X39387362Y-81806508D01*
X39371281Y-81833338D01*
X39352647Y-81858463D01*
X39331640Y-81881640D01*
X39308463Y-81902647D01*
X39283338Y-81921281D01*
X39256508Y-81937362D01*
X39228230Y-81950737D01*
X39198778Y-81961275D01*
X39168435Y-81968875D01*
X39137493Y-81973465D01*
X39106250Y-81975000D01*
X38468750Y-81975000D01*
X38437507Y-81973465D01*
X38406565Y-81968875D01*
X38376222Y-81961275D01*
X38346770Y-81950737D01*
X38318492Y-81937362D01*
X38291662Y-81921281D01*
X38266537Y-81902647D01*
X38243360Y-81881640D01*
X38222353Y-81858463D01*
X38203719Y-81833338D01*
X38187638Y-81806508D01*
X38174263Y-81778230D01*
X38163725Y-81748778D01*
X38156125Y-81718435D01*
X38151535Y-81687493D01*
X38150000Y-81656250D01*
X38150000Y-80943750D01*
X38151535Y-80912507D01*
X38156125Y-80881565D01*
X38163725Y-80851222D01*
X38174263Y-80821770D01*
X38187638Y-80793492D01*
X38203719Y-80766662D01*
X38222353Y-80741537D01*
X38243360Y-80718360D01*
X38266537Y-80697353D01*
X38291662Y-80678719D01*
X38318492Y-80662638D01*
X38346770Y-80649263D01*
X38376222Y-80638725D01*
X38406565Y-80631125D01*
X38437507Y-80626535D01*
X38468750Y-80625000D01*
X39106250Y-80625000D01*
X39137493Y-80626535D01*
X39137493Y-80626535D01*
G37*
D14*
X38787500Y-81300000D03*
D13*
G36*
X37562493Y-80626535D02*
G01*
X37593435Y-80631125D01*
X37623778Y-80638725D01*
X37653230Y-80649263D01*
X37681508Y-80662638D01*
X37708338Y-80678719D01*
X37733463Y-80697353D01*
X37756640Y-80718360D01*
X37777647Y-80741537D01*
X37796281Y-80766662D01*
X37812362Y-80793492D01*
X37825737Y-80821770D01*
X37836275Y-80851222D01*
X37843875Y-80881565D01*
X37848465Y-80912507D01*
X37850000Y-80943750D01*
X37850000Y-81656250D01*
X37848465Y-81687493D01*
X37843875Y-81718435D01*
X37836275Y-81748778D01*
X37825737Y-81778230D01*
X37812362Y-81806508D01*
X37796281Y-81833338D01*
X37777647Y-81858463D01*
X37756640Y-81881640D01*
X37733463Y-81902647D01*
X37708338Y-81921281D01*
X37681508Y-81937362D01*
X37653230Y-81950737D01*
X37623778Y-81961275D01*
X37593435Y-81968875D01*
X37562493Y-81973465D01*
X37531250Y-81975000D01*
X36893750Y-81975000D01*
X36862507Y-81973465D01*
X36831565Y-81968875D01*
X36801222Y-81961275D01*
X36771770Y-81950737D01*
X36743492Y-81937362D01*
X36716662Y-81921281D01*
X36691537Y-81902647D01*
X36668360Y-81881640D01*
X36647353Y-81858463D01*
X36628719Y-81833338D01*
X36612638Y-81806508D01*
X36599263Y-81778230D01*
X36588725Y-81748778D01*
X36581125Y-81718435D01*
X36576535Y-81687493D01*
X36575000Y-81656250D01*
X36575000Y-80943750D01*
X36576535Y-80912507D01*
X36581125Y-80881565D01*
X36588725Y-80851222D01*
X36599263Y-80821770D01*
X36612638Y-80793492D01*
X36628719Y-80766662D01*
X36647353Y-80741537D01*
X36668360Y-80718360D01*
X36691537Y-80697353D01*
X36716662Y-80678719D01*
X36743492Y-80662638D01*
X36771770Y-80649263D01*
X36801222Y-80638725D01*
X36831565Y-80631125D01*
X36862507Y-80626535D01*
X36893750Y-80625000D01*
X37531250Y-80625000D01*
X37562493Y-80626535D01*
X37562493Y-80626535D01*
G37*
D14*
X37212500Y-81300000D03*
D15*
X272400000Y-10000000D03*
X5000000Y-120000000D03*
X272400000Y-120000000D03*
X5000000Y-10000000D03*
D16*
X262900000Y-85300000D03*
X264900000Y-85300000D03*
X260900000Y-85300000D03*
X12500000Y-85300000D03*
X14500000Y-85300000D03*
X10500000Y-85300000D03*
D17*
X267400000Y-10000000D03*
D18*
X260810000Y-97750000D03*
X262080000Y-97750000D03*
X265890000Y-97750000D03*
X264620000Y-97750000D03*
X263350000Y-97750000D03*
X181954001Y-102364482D03*
X183186276Y-102057241D03*
X186883103Y-101135518D03*
X185650827Y-101442759D03*
X184418552Y-101750000D03*
X90535449Y-101085518D03*
X91767725Y-101392759D03*
X95464551Y-102314482D03*
X94232276Y-102007241D03*
X93000000Y-101700000D03*
X11510000Y-97800000D03*
X12780000Y-97800000D03*
X16590000Y-97800000D03*
X15320000Y-97800000D03*
X14050000Y-97800000D03*
D17*
X15000000Y-120000000D03*
D19*
X15000000Y-10000000D03*
X267400000Y-120000000D03*
D20*
X250250000Y-92400000D03*
X250250000Y-91650000D03*
X250250000Y-90900000D03*
X250250000Y-90150000D03*
X250250000Y-89400000D03*
X250250000Y-88650000D03*
X250250000Y-87900000D03*
X250250000Y-87150000D03*
X250250000Y-86400000D03*
X250250000Y-85650000D03*
X250250000Y-84900000D03*
X250250000Y-84150000D03*
D21*
X249100000Y-83700000D03*
X248350000Y-83700000D03*
X247600000Y-83700000D03*
X246850000Y-83700000D03*
X246100000Y-83700000D03*
X245350000Y-83700000D03*
X244600000Y-83700000D03*
X243850000Y-83700000D03*
X243100000Y-83700000D03*
X242350000Y-83700000D03*
X241600000Y-83700000D03*
D20*
X240450000Y-84150000D03*
X240450000Y-84900000D03*
X240450000Y-85650000D03*
X240450000Y-86400000D03*
X240450000Y-87150000D03*
X240450000Y-87900000D03*
X240450000Y-88650000D03*
X240450000Y-89400000D03*
X240450000Y-90150000D03*
X240450000Y-90900000D03*
X240450000Y-91650000D03*
X240450000Y-92400000D03*
X240450000Y-93150000D03*
X240450000Y-93900000D03*
X240450000Y-94650000D03*
X240450000Y-95400000D03*
X36950000Y-92400000D03*
X36950000Y-91650000D03*
X36950000Y-90900000D03*
X36950000Y-90150000D03*
X36950000Y-89400000D03*
X36950000Y-88650000D03*
X36950000Y-87900000D03*
X36950000Y-87150000D03*
X36950000Y-86400000D03*
X36950000Y-85650000D03*
X36950000Y-84900000D03*
X36950000Y-84150000D03*
D21*
X35800000Y-83700000D03*
X35050000Y-83700000D03*
X34300000Y-83700000D03*
X33550000Y-83700000D03*
X32800000Y-83700000D03*
X32050000Y-83700000D03*
X31300000Y-83700000D03*
X30550000Y-83700000D03*
X29800000Y-83700000D03*
X29050000Y-83700000D03*
X28300000Y-83700000D03*
D20*
X27150000Y-84150000D03*
X27150000Y-84900000D03*
X27150000Y-85650000D03*
X27150000Y-86400000D03*
X27150000Y-87150000D03*
X27150000Y-87900000D03*
X27150000Y-88650000D03*
X27150000Y-89400000D03*
X27150000Y-90150000D03*
X27150000Y-90900000D03*
X27150000Y-91650000D03*
X27150000Y-92400000D03*
X27150000Y-93150000D03*
X27150000Y-93900000D03*
X27150000Y-94650000D03*
X27150000Y-95400000D03*
D22*
X158673816Y-95456301D03*
D23*
X156551051Y-90841079D03*
X160796581Y-100071523D03*
X253905000Y-75150000D03*
X243745000Y-75150000D03*
D22*
X248825000Y-75150000D03*
D23*
X55086250Y-88246875D03*
X44926250Y-88246875D03*
D22*
X50006250Y-88246875D03*
D23*
X52705000Y-69196875D03*
X42545000Y-69196875D03*
D22*
X47625000Y-69196875D03*
D23*
X14605000Y-75150000D03*
X4445000Y-75150000D03*
D22*
X9525000Y-75150000D03*
D24*
X21000000Y-88180000D03*
D25*
X21000000Y-90720000D03*
X21000000Y-93260000D03*
D26*
X21000000Y-95800000D03*
D27*
X274175000Y-85325000D03*
X270025000Y-85325000D03*
X274175000Y-83175000D03*
X270025000Y-83175000D03*
X7375000Y-85325000D03*
X3225000Y-85325000D03*
X7375000Y-83175000D03*
X3225000Y-83175000D03*
D28*
X263900000Y-93250000D03*
D13*
G36*
X264674820Y-94451603D02*
G01*
X264707126Y-94456395D01*
X264738807Y-94464330D01*
X264769557Y-94475333D01*
X264799081Y-94489297D01*
X264827094Y-94506087D01*
X264853326Y-94525542D01*
X264877525Y-94547475D01*
X264899458Y-94571674D01*
X264918913Y-94597906D01*
X264935703Y-94625919D01*
X264949667Y-94655443D01*
X264960670Y-94686193D01*
X264968605Y-94717874D01*
X264973397Y-94750180D01*
X264975000Y-94782800D01*
X264975000Y-95717200D01*
X264973397Y-95749820D01*
X264968605Y-95782126D01*
X264960670Y-95813807D01*
X264949667Y-95844557D01*
X264935703Y-95874081D01*
X264918913Y-95902094D01*
X264899458Y-95928326D01*
X264877525Y-95952525D01*
X264853326Y-95974458D01*
X264827094Y-95993913D01*
X264799081Y-96010703D01*
X264769557Y-96024667D01*
X264738807Y-96035670D01*
X264707126Y-96043605D01*
X264674820Y-96048397D01*
X264642200Y-96050000D01*
X263157800Y-96050000D01*
X263125180Y-96048397D01*
X263092874Y-96043605D01*
X263061193Y-96035670D01*
X263030443Y-96024667D01*
X263000919Y-96010703D01*
X262972906Y-95993913D01*
X262946674Y-95974458D01*
X262922475Y-95952525D01*
X262900542Y-95928326D01*
X262881087Y-95902094D01*
X262864297Y-95874081D01*
X262850333Y-95844557D01*
X262839330Y-95813807D01*
X262831395Y-95782126D01*
X262826603Y-95749820D01*
X262825000Y-95717200D01*
X262825000Y-94782800D01*
X262826603Y-94750180D01*
X262831395Y-94717874D01*
X262839330Y-94686193D01*
X262850333Y-94655443D01*
X262864297Y-94625919D01*
X262881087Y-94597906D01*
X262900542Y-94571674D01*
X262922475Y-94547475D01*
X262946674Y-94525542D01*
X262972906Y-94506087D01*
X263000919Y-94489297D01*
X263030443Y-94475333D01*
X263061193Y-94464330D01*
X263092874Y-94456395D01*
X263125180Y-94451603D01*
X263157800Y-94450000D01*
X264642200Y-94450000D01*
X264674820Y-94451603D01*
X264674820Y-94451603D01*
G37*
D16*
X263900000Y-95250000D03*
D28*
X13500000Y-95250000D03*
D13*
G36*
X14274820Y-92451603D02*
G01*
X14307126Y-92456395D01*
X14338807Y-92464330D01*
X14369557Y-92475333D01*
X14399081Y-92489297D01*
X14427094Y-92506087D01*
X14453326Y-92525542D01*
X14477525Y-92547475D01*
X14499458Y-92571674D01*
X14518913Y-92597906D01*
X14535703Y-92625919D01*
X14549667Y-92655443D01*
X14560670Y-92686193D01*
X14568605Y-92717874D01*
X14573397Y-92750180D01*
X14575000Y-92782800D01*
X14575000Y-93717200D01*
X14573397Y-93749820D01*
X14568605Y-93782126D01*
X14560670Y-93813807D01*
X14549667Y-93844557D01*
X14535703Y-93874081D01*
X14518913Y-93902094D01*
X14499458Y-93928326D01*
X14477525Y-93952525D01*
X14453326Y-93974458D01*
X14427094Y-93993913D01*
X14399081Y-94010703D01*
X14369557Y-94024667D01*
X14338807Y-94035670D01*
X14307126Y-94043605D01*
X14274820Y-94048397D01*
X14242200Y-94050000D01*
X12757800Y-94050000D01*
X12725180Y-94048397D01*
X12692874Y-94043605D01*
X12661193Y-94035670D01*
X12630443Y-94024667D01*
X12600919Y-94010703D01*
X12572906Y-93993913D01*
X12546674Y-93974458D01*
X12522475Y-93952525D01*
X12500542Y-93928326D01*
X12481087Y-93902094D01*
X12464297Y-93874081D01*
X12450333Y-93844557D01*
X12439330Y-93813807D01*
X12431395Y-93782126D01*
X12426603Y-93749820D01*
X12425000Y-93717200D01*
X12425000Y-92782800D01*
X12426603Y-92750180D01*
X12431395Y-92717874D01*
X12439330Y-92686193D01*
X12450333Y-92655443D01*
X12464297Y-92625919D01*
X12481087Y-92597906D01*
X12500542Y-92571674D01*
X12522475Y-92547475D01*
X12546674Y-92525542D01*
X12572906Y-92506087D01*
X12600919Y-92489297D01*
X12630443Y-92475333D01*
X12661193Y-92464330D01*
X12692874Y-92456395D01*
X12725180Y-92451603D01*
X12757800Y-92450000D01*
X14242200Y-92450000D01*
X14274820Y-92451603D01*
X14274820Y-92451603D01*
G37*
D16*
X13500000Y-93250000D03*
D18*
X265890000Y-27550000D03*
X264620000Y-27550000D03*
X260810000Y-27550000D03*
X262080000Y-27550000D03*
X263350000Y-27550000D03*
X231770000Y-21600000D03*
X230500000Y-21600000D03*
X226690000Y-21600000D03*
X227960000Y-21600000D03*
X229230000Y-21600000D03*
X156140000Y-34650000D03*
X154870000Y-34650000D03*
X151060000Y-34650000D03*
X152330000Y-34650000D03*
X153600000Y-34650000D03*
X126340000Y-34650000D03*
X125070000Y-34650000D03*
X121260000Y-34650000D03*
X122530000Y-34650000D03*
X123800000Y-34650000D03*
X50690000Y-21550000D03*
X49420000Y-21550000D03*
X45610000Y-21550000D03*
X46880000Y-21550000D03*
X48150000Y-21550000D03*
X16590000Y-27554000D03*
X15320000Y-27554000D03*
X11510000Y-27554000D03*
X12780000Y-27554000D03*
X14050000Y-27554000D03*
D24*
X256400000Y-88180000D03*
D25*
X256400000Y-90720000D03*
X256400000Y-93260000D03*
D26*
X256400000Y-95800000D03*
D23*
X272955000Y-75150000D03*
X262795000Y-75150000D03*
D22*
X267875000Y-75150000D03*
D23*
X128905000Y-63243750D03*
X118745000Y-63243750D03*
D22*
X123825000Y-63243750D03*
D23*
X185151074Y-91706366D03*
X175292870Y-94164292D03*
D22*
X180221972Y-92935329D03*
D23*
X14605000Y-37050000D03*
X4445000Y-37050000D03*
D22*
X9525000Y-37050000D03*
D23*
X33655000Y-37050000D03*
X23495000Y-37050000D03*
D22*
X28575000Y-37050000D03*
D23*
X90805000Y-32287499D03*
X80645000Y-32287499D03*
D22*
X85725000Y-32287499D03*
D23*
X109855000Y-34668750D03*
X99695000Y-34668750D03*
D22*
X104775000Y-34668750D03*
D23*
X14605000Y-56100000D03*
X4445000Y-56100000D03*
D22*
X9525000Y-56100000D03*
D23*
X33655000Y-56100000D03*
X23495000Y-56100000D03*
D22*
X28575000Y-56100000D03*
D23*
X52705000Y-50146875D03*
X42545000Y-50146875D03*
D22*
X47625000Y-50146875D03*
D23*
X71755000Y-46575000D03*
X61595000Y-46575000D03*
D22*
X66675000Y-46575000D03*
D23*
X90805000Y-51337500D03*
X80645000Y-51337500D03*
D22*
X85725000Y-51337500D03*
D23*
X109855000Y-53718750D03*
X99695000Y-53718750D03*
D22*
X104775000Y-53718750D03*
D23*
X128905000Y-44193750D03*
X118745000Y-44193750D03*
D22*
X123825000Y-44193750D03*
D23*
X33655000Y-75150000D03*
X23495000Y-75150000D03*
D22*
X28575000Y-75150000D03*
D23*
X71755000Y-65625000D03*
X61595000Y-65625000D03*
D22*
X66675000Y-65625000D03*
D23*
X90805000Y-70387500D03*
X80645000Y-70387500D03*
D22*
X85725000Y-70387500D03*
D23*
X109855000Y-72768750D03*
X99695000Y-72768750D03*
D22*
X104775000Y-72768750D03*
D23*
X102107129Y-94164292D03*
X92248925Y-91706366D03*
D22*
X97178027Y-92935329D03*
D23*
X272955000Y-37050000D03*
X262795000Y-37050000D03*
D22*
X267875000Y-37050000D03*
D23*
X253905000Y-37050000D03*
X243745000Y-37050000D03*
D22*
X248825000Y-37050000D03*
D23*
X234855000Y-31096875D03*
X224695000Y-31096875D03*
D22*
X229775000Y-31096875D03*
D23*
X215805000Y-27525000D03*
X205645000Y-27525000D03*
D22*
X210725000Y-27525000D03*
D23*
X196755000Y-32287499D03*
X186595000Y-32287499D03*
D22*
X191675000Y-32287499D03*
D23*
X177705000Y-34668750D03*
X167545000Y-34668750D03*
D22*
X172625000Y-34668750D03*
D23*
X272955000Y-56100000D03*
X262795000Y-56100000D03*
D22*
X267875000Y-56100000D03*
D23*
X253905000Y-56100000D03*
X243745000Y-56100000D03*
D22*
X248825000Y-56100000D03*
D23*
X234855000Y-50146875D03*
X224695000Y-50146875D03*
D22*
X229775000Y-50146875D03*
D23*
X215805000Y-46575000D03*
X205645000Y-46575000D03*
D22*
X210725000Y-46575000D03*
D23*
X196755000Y-51337500D03*
X186595000Y-51337500D03*
D22*
X191675000Y-51337500D03*
D23*
X177705000Y-53718750D03*
X167545000Y-53718750D03*
D22*
X172625000Y-53718750D03*
D23*
X158655000Y-44193750D03*
X148495000Y-44193750D03*
D22*
X153575000Y-44193750D03*
D23*
X234855000Y-69196875D03*
X224695000Y-69196875D03*
D22*
X229775000Y-69196875D03*
D23*
X215805000Y-65625000D03*
X205645000Y-65625000D03*
D22*
X210725000Y-65625000D03*
D23*
X196755000Y-70387500D03*
X186595000Y-70387500D03*
D22*
X191675000Y-70387500D03*
D23*
X177705000Y-72768750D03*
X167545000Y-72768750D03*
D22*
X172625000Y-72768750D03*
D23*
X158655000Y-63243750D03*
X148495000Y-63243750D03*
D22*
X153575000Y-63243750D03*
D23*
X52705000Y-31096875D03*
X42545000Y-31096875D03*
D22*
X47625000Y-31096875D03*
D23*
X71755000Y-27525000D03*
X61595000Y-27525000D03*
D22*
X66675000Y-27525000D03*
D23*
X79678221Y-89794564D03*
X69558443Y-88891398D03*
D22*
X74618332Y-89342981D03*
D23*
X232473750Y-88246875D03*
X222313750Y-88246875D03*
D22*
X227393750Y-88246875D03*
D23*
X207841556Y-88891398D03*
X197721778Y-89794564D03*
D22*
X202781667Y-89342981D03*
D23*
X120848948Y-90841079D03*
X116603418Y-100071523D03*
D22*
X118726183Y-95456301D03*
M02*
