G04 #@! TF.GenerationSoftware,KiCad,Pcbnew,(5.1.4)-1*
G04 #@! TF.CreationDate,2019-10-20T00:52:56+09:00*
G04 #@! TF.ProjectId,caravelle,63617261-7665-46c6-9c65-2e6b69636164,rev?*
G04 #@! TF.SameCoordinates,PX2faf080PY2faf080*
G04 #@! TF.FileFunction,Legend,Bot*
G04 #@! TF.FilePolarity,Positive*
%FSLAX46Y46*%
G04 Gerber Fmt 4.6, Leading zero omitted, Abs format (unit mm)*
G04 Created by KiCad (PCBNEW (5.1.4)-1) date 2019-10-20 00:52:56*
%MOMM*%
%LPD*%
G04 APERTURE LIST*
%ADD10C,0.150000*%
%ADD11C,0.250000*%
%ADD12C,0.010000*%
%ADD13C,2.400000*%
%ADD14C,1.600000*%
%ADD15C,2.650000*%
%ADD16C,4.387800*%
%ADD17C,2.150000*%
%ADD18R,2.100000X2.100000*%
%ADD19O,2.100000X2.100000*%
%ADD20C,2.100000*%
%ADD21O,2.150000X1.600000*%
%ADD22C,0.100000*%
%ADD23C,1.187400*%
G04 APERTURE END LIST*
D10*
X261261904Y-77661904D02*
X261528571Y-77280952D01*
X261719047Y-77661904D02*
X261719047Y-76861904D01*
X261414285Y-76861904D01*
X261338095Y-76900000D01*
X261300000Y-76938095D01*
X261261904Y-77014285D01*
X261261904Y-77128571D01*
X261300000Y-77204761D01*
X261338095Y-77242857D01*
X261414285Y-77280952D01*
X261719047Y-77280952D01*
X260919047Y-77242857D02*
X260652380Y-77242857D01*
X260538095Y-77661904D02*
X260919047Y-77661904D01*
X260919047Y-76861904D01*
X260538095Y-76861904D01*
X260233333Y-77623809D02*
X260119047Y-77661904D01*
X259928571Y-77661904D01*
X259852380Y-77623809D01*
X259814285Y-77585714D01*
X259776190Y-77509523D01*
X259776190Y-77433333D01*
X259814285Y-77357142D01*
X259852380Y-77319047D01*
X259928571Y-77280952D01*
X260080952Y-77242857D01*
X260157142Y-77204761D01*
X260195238Y-77166666D01*
X260233333Y-77090476D01*
X260233333Y-77014285D01*
X260195238Y-76938095D01*
X260157142Y-76900000D01*
X260080952Y-76861904D01*
X259890476Y-76861904D01*
X259776190Y-76900000D01*
X259433333Y-77242857D02*
X259166666Y-77242857D01*
X259052380Y-77661904D02*
X259433333Y-77661904D01*
X259433333Y-76861904D01*
X259052380Y-76861904D01*
X258823809Y-76861904D02*
X258366666Y-76861904D01*
X258595238Y-77661904D02*
X258595238Y-76861904D01*
X18261904Y-77661904D02*
X18528571Y-77280952D01*
X18719047Y-77661904D02*
X18719047Y-76861904D01*
X18414285Y-76861904D01*
X18338095Y-76900000D01*
X18300000Y-76938095D01*
X18261904Y-77014285D01*
X18261904Y-77128571D01*
X18300000Y-77204761D01*
X18338095Y-77242857D01*
X18414285Y-77280952D01*
X18719047Y-77280952D01*
X17919047Y-77242857D02*
X17652380Y-77242857D01*
X17538095Y-77661904D02*
X17919047Y-77661904D01*
X17919047Y-76861904D01*
X17538095Y-76861904D01*
X17233333Y-77623809D02*
X17119047Y-77661904D01*
X16928571Y-77661904D01*
X16852380Y-77623809D01*
X16814285Y-77585714D01*
X16776190Y-77509523D01*
X16776190Y-77433333D01*
X16814285Y-77357142D01*
X16852380Y-77319047D01*
X16928571Y-77280952D01*
X17080952Y-77242857D01*
X17157142Y-77204761D01*
X17195238Y-77166666D01*
X17233333Y-77090476D01*
X17233333Y-77014285D01*
X17195238Y-76938095D01*
X17157142Y-76900000D01*
X17080952Y-76861904D01*
X16890476Y-76861904D01*
X16776190Y-76900000D01*
X16433333Y-77242857D02*
X16166666Y-77242857D01*
X16052380Y-77661904D02*
X16433333Y-77661904D01*
X16433333Y-76861904D01*
X16052380Y-76861904D01*
X15823809Y-76861904D02*
X15366666Y-76861904D01*
X15595238Y-77661904D02*
X15595238Y-76861904D01*
X254812023Y-70584761D02*
X254669166Y-70632380D01*
X254431071Y-70632380D01*
X254335833Y-70584761D01*
X254288214Y-70537142D01*
X254240595Y-70441904D01*
X254240595Y-70346666D01*
X254288214Y-70251428D01*
X254335833Y-70203809D01*
X254431071Y-70156190D01*
X254621547Y-70108571D01*
X254716785Y-70060952D01*
X254764404Y-70013333D01*
X254812023Y-69918095D01*
X254812023Y-69822857D01*
X254764404Y-69727619D01*
X254716785Y-69680000D01*
X254621547Y-69632380D01*
X254383452Y-69632380D01*
X254240595Y-69680000D01*
X253907261Y-69632380D02*
X253669166Y-70632380D01*
X253478690Y-69918095D01*
X253288214Y-70632380D01*
X253050119Y-69632380D01*
X252669166Y-70632380D02*
X252669166Y-69632380D01*
X252431071Y-69632380D01*
X252288214Y-69680000D01*
X252192976Y-69775238D01*
X252145357Y-69870476D01*
X252097738Y-70060952D01*
X252097738Y-70203809D01*
X252145357Y-70394285D01*
X252192976Y-70489523D01*
X252288214Y-70584761D01*
X252431071Y-70632380D01*
X252669166Y-70632380D01*
X251097738Y-70537142D02*
X251145357Y-70584761D01*
X251288214Y-70632380D01*
X251383452Y-70632380D01*
X251526309Y-70584761D01*
X251621547Y-70489523D01*
X251669166Y-70394285D01*
X251716785Y-70203809D01*
X251716785Y-70060952D01*
X251669166Y-69870476D01*
X251621547Y-69775238D01*
X251526309Y-69680000D01*
X251383452Y-69632380D01*
X251288214Y-69632380D01*
X251145357Y-69680000D01*
X251097738Y-69727619D01*
X250192976Y-70632380D02*
X250669166Y-70632380D01*
X250669166Y-69632380D01*
X249859642Y-70632380D02*
X249859642Y-69632380D01*
X249288214Y-70632380D02*
X249716785Y-70060952D01*
X249288214Y-69632380D02*
X249859642Y-70203809D01*
X254712023Y-73124761D02*
X254569166Y-73172380D01*
X254331071Y-73172380D01*
X254235833Y-73124761D01*
X254188214Y-73077142D01*
X254140595Y-72981904D01*
X254140595Y-72886666D01*
X254188214Y-72791428D01*
X254235833Y-72743809D01*
X254331071Y-72696190D01*
X254521547Y-72648571D01*
X254616785Y-72600952D01*
X254664404Y-72553333D01*
X254712023Y-72458095D01*
X254712023Y-72362857D01*
X254664404Y-72267619D01*
X254616785Y-72220000D01*
X254521547Y-72172380D01*
X254283452Y-72172380D01*
X254140595Y-72220000D01*
X253807261Y-72172380D02*
X253569166Y-73172380D01*
X253378690Y-72458095D01*
X253188214Y-73172380D01*
X252950119Y-72172380D01*
X252569166Y-73172380D02*
X252569166Y-72172380D01*
X252331071Y-72172380D01*
X252188214Y-72220000D01*
X252092976Y-72315238D01*
X252045357Y-72410476D01*
X251997738Y-72600952D01*
X251997738Y-72743809D01*
X252045357Y-72934285D01*
X252092976Y-73029523D01*
X252188214Y-73124761D01*
X252331071Y-73172380D01*
X252569166Y-73172380D01*
X251569166Y-73172380D02*
X251569166Y-72172380D01*
X250902500Y-72172380D02*
X250712023Y-72172380D01*
X250616785Y-72220000D01*
X250521547Y-72315238D01*
X250473928Y-72505714D01*
X250473928Y-72839047D01*
X250521547Y-73029523D01*
X250616785Y-73124761D01*
X250712023Y-73172380D01*
X250902500Y-73172380D01*
X250997738Y-73124761D01*
X251092976Y-73029523D01*
X251140595Y-72839047D01*
X251140595Y-72505714D01*
X251092976Y-72315238D01*
X250997738Y-72220000D01*
X250902500Y-72172380D01*
X254140595Y-74760000D02*
X254235833Y-74712380D01*
X254378690Y-74712380D01*
X254521547Y-74760000D01*
X254616785Y-74855238D01*
X254664404Y-74950476D01*
X254712023Y-75140952D01*
X254712023Y-75283809D01*
X254664404Y-75474285D01*
X254616785Y-75569523D01*
X254521547Y-75664761D01*
X254378690Y-75712380D01*
X254283452Y-75712380D01*
X254140595Y-75664761D01*
X254092976Y-75617142D01*
X254092976Y-75283809D01*
X254283452Y-75283809D01*
X253664404Y-75712380D02*
X253664404Y-74712380D01*
X253092976Y-75712380D01*
X253092976Y-74712380D01*
X252616785Y-75712380D02*
X252616785Y-74712380D01*
X252378690Y-74712380D01*
X252235833Y-74760000D01*
X252140595Y-74855238D01*
X252092976Y-74950476D01*
X252045357Y-75140952D01*
X252045357Y-75283809D01*
X252092976Y-75474285D01*
X252140595Y-75569523D01*
X252235833Y-75664761D01*
X252378690Y-75712380D01*
X252616785Y-75712380D01*
X254807261Y-77252380D02*
X254473928Y-78252380D01*
X254140595Y-77252380D01*
X253235833Y-78157142D02*
X253283452Y-78204761D01*
X253426309Y-78252380D01*
X253521547Y-78252380D01*
X253664404Y-78204761D01*
X253759642Y-78109523D01*
X253807261Y-78014285D01*
X253854880Y-77823809D01*
X253854880Y-77680952D01*
X253807261Y-77490476D01*
X253759642Y-77395238D01*
X253664404Y-77300000D01*
X253521547Y-77252380D01*
X253426309Y-77252380D01*
X253283452Y-77300000D01*
X253235833Y-77347619D01*
X252235833Y-78157142D02*
X252283452Y-78204761D01*
X252426309Y-78252380D01*
X252521547Y-78252380D01*
X252664404Y-78204761D01*
X252759642Y-78109523D01*
X252807261Y-78014285D01*
X252854880Y-77823809D01*
X252854880Y-77680952D01*
X252807261Y-77490476D01*
X252759642Y-77395238D01*
X252664404Y-77300000D01*
X252521547Y-77252380D01*
X252426309Y-77252380D01*
X252283452Y-77300000D01*
X252235833Y-77347619D01*
D11*
X25066071Y-26003571D02*
X25123214Y-26060714D01*
X25294642Y-26117857D01*
X25408928Y-26117857D01*
X25580357Y-26060714D01*
X25694642Y-25946428D01*
X25751785Y-25832142D01*
X25808928Y-25603571D01*
X25808928Y-25432142D01*
X25751785Y-25203571D01*
X25694642Y-25089285D01*
X25580357Y-24975000D01*
X25408928Y-24917857D01*
X25294642Y-24917857D01*
X25123214Y-24975000D01*
X25066071Y-25032142D01*
X24037500Y-26117857D02*
X24037500Y-25489285D01*
X24094642Y-25375000D01*
X24208928Y-25317857D01*
X24437500Y-25317857D01*
X24551785Y-25375000D01*
X24037500Y-26060714D02*
X24151785Y-26117857D01*
X24437500Y-26117857D01*
X24551785Y-26060714D01*
X24608928Y-25946428D01*
X24608928Y-25832142D01*
X24551785Y-25717857D01*
X24437500Y-25660714D01*
X24151785Y-25660714D01*
X24037500Y-25603571D01*
X23466071Y-26117857D02*
X23466071Y-25317857D01*
X23466071Y-25546428D02*
X23408928Y-25432142D01*
X23351785Y-25375000D01*
X23237500Y-25317857D01*
X23123214Y-25317857D01*
X22208928Y-26117857D02*
X22208928Y-25489285D01*
X22266071Y-25375000D01*
X22380357Y-25317857D01*
X22608928Y-25317857D01*
X22723214Y-25375000D01*
X22208928Y-26060714D02*
X22323214Y-26117857D01*
X22608928Y-26117857D01*
X22723214Y-26060714D01*
X22780357Y-25946428D01*
X22780357Y-25832142D01*
X22723214Y-25717857D01*
X22608928Y-25660714D01*
X22323214Y-25660714D01*
X22208928Y-25603571D01*
X21751785Y-25317857D02*
X21466071Y-26117857D01*
X21180357Y-25317857D01*
X20266071Y-26060714D02*
X20380357Y-26117857D01*
X20608928Y-26117857D01*
X20723214Y-26060714D01*
X20780357Y-25946428D01*
X20780357Y-25489285D01*
X20723214Y-25375000D01*
X20608928Y-25317857D01*
X20380357Y-25317857D01*
X20266071Y-25375000D01*
X20208928Y-25489285D01*
X20208928Y-25603571D01*
X20780357Y-25717857D01*
X19523214Y-26117857D02*
X19637500Y-26060714D01*
X19694642Y-25946428D01*
X19694642Y-24917857D01*
X18894642Y-26117857D02*
X19008928Y-26060714D01*
X19066071Y-25946428D01*
X19066071Y-24917857D01*
X17980357Y-26060714D02*
X18094642Y-26117857D01*
X18323214Y-26117857D01*
X18437500Y-26060714D01*
X18494642Y-25946428D01*
X18494642Y-25489285D01*
X18437500Y-25375000D01*
X18323214Y-25317857D01*
X18094642Y-25317857D01*
X17980357Y-25375000D01*
X17923214Y-25489285D01*
X17923214Y-25603571D01*
X18494642Y-25717857D01*
X17408928Y-25660714D02*
X16494642Y-25660714D01*
X15523214Y-25489285D02*
X15351785Y-25546428D01*
X15294642Y-25603571D01*
X15237500Y-25717857D01*
X15237500Y-25889285D01*
X15294642Y-26003571D01*
X15351785Y-26060714D01*
X15466071Y-26117857D01*
X15923214Y-26117857D01*
X15923214Y-24917857D01*
X15523214Y-24917857D01*
X15408928Y-24975000D01*
X15351785Y-25032142D01*
X15294642Y-25146428D01*
X15294642Y-25260714D01*
X15351785Y-25375000D01*
X15408928Y-25432142D01*
X15523214Y-25489285D01*
X15923214Y-25489285D01*
X14151785Y-26117857D02*
X14723214Y-26117857D01*
X14723214Y-24917857D01*
X13751785Y-25489285D02*
X13351785Y-25489285D01*
X13180357Y-26117857D02*
X13751785Y-26117857D01*
X13751785Y-24917857D01*
X13180357Y-24917857D01*
X11751785Y-26117857D02*
X11751785Y-24917857D01*
X11294642Y-24917857D01*
X11180357Y-24975000D01*
X11123214Y-25032142D01*
X11066071Y-25146428D01*
X11066071Y-25317857D01*
X11123214Y-25432142D01*
X11180357Y-25489285D01*
X11294642Y-25546428D01*
X11751785Y-25546428D01*
X9866071Y-26003571D02*
X9923214Y-26060714D01*
X10094642Y-26117857D01*
X10208928Y-26117857D01*
X10380357Y-26060714D01*
X10494642Y-25946428D01*
X10551785Y-25832142D01*
X10608928Y-25603571D01*
X10608928Y-25432142D01*
X10551785Y-25203571D01*
X10494642Y-25089285D01*
X10380357Y-24975000D01*
X10208928Y-24917857D01*
X10094642Y-24917857D01*
X9923214Y-24975000D01*
X9866071Y-25032142D01*
X8951785Y-25489285D02*
X8780357Y-25546428D01*
X8723214Y-25603571D01*
X8666071Y-25717857D01*
X8666071Y-25889285D01*
X8723214Y-26003571D01*
X8780357Y-26060714D01*
X8894642Y-26117857D01*
X9351785Y-26117857D01*
X9351785Y-24917857D01*
X8951785Y-24917857D01*
X8837500Y-24975000D01*
X8780357Y-25032142D01*
X8723214Y-25146428D01*
X8723214Y-25260714D01*
X8780357Y-25375000D01*
X8837500Y-25432142D01*
X8951785Y-25489285D01*
X9351785Y-25489285D01*
X7351785Y-25317857D02*
X7066071Y-26117857D01*
X6780357Y-25317857D01*
X6380357Y-25032142D02*
X6323214Y-24975000D01*
X6208928Y-24917857D01*
X5923214Y-24917857D01*
X5808928Y-24975000D01*
X5751785Y-25032142D01*
X5694642Y-25146428D01*
X5694642Y-25260714D01*
X5751785Y-25432142D01*
X6437500Y-26117857D01*
X5694642Y-26117857D01*
X5180357Y-26003571D02*
X5123214Y-26060714D01*
X5180357Y-26117857D01*
X5237500Y-26060714D01*
X5180357Y-26003571D01*
X5180357Y-26117857D01*
X4666071Y-25032142D02*
X4608928Y-24975000D01*
X4494642Y-24917857D01*
X4208928Y-24917857D01*
X4094642Y-24975000D01*
X4037500Y-25032142D01*
X3980357Y-25146428D01*
X3980357Y-25260714D01*
X4037500Y-25432142D01*
X4723214Y-26117857D01*
X3980357Y-26117857D01*
X25751785Y-28167857D02*
X25751785Y-26967857D01*
X25751785Y-27425000D02*
X25637500Y-27367857D01*
X25408928Y-27367857D01*
X25294642Y-27425000D01*
X25237500Y-27482142D01*
X25180357Y-27596428D01*
X25180357Y-27939285D01*
X25237500Y-28053571D01*
X25294642Y-28110714D01*
X25408928Y-28167857D01*
X25637500Y-28167857D01*
X25751785Y-28110714D01*
X24780357Y-27367857D02*
X24494642Y-28167857D01*
X24208928Y-27367857D02*
X24494642Y-28167857D01*
X24608928Y-28453571D01*
X24666071Y-28510714D01*
X24780357Y-28567857D01*
X22894642Y-28110714D02*
X22723214Y-28167857D01*
X22437500Y-28167857D01*
X22323214Y-28110714D01*
X22266071Y-28053571D01*
X22208928Y-27939285D01*
X22208928Y-27825000D01*
X22266071Y-27710714D01*
X22323214Y-27653571D01*
X22437500Y-27596428D01*
X22666071Y-27539285D01*
X22780357Y-27482142D01*
X22837500Y-27425000D01*
X22894642Y-27310714D01*
X22894642Y-27196428D01*
X22837500Y-27082142D01*
X22780357Y-27025000D01*
X22666071Y-26967857D01*
X22380357Y-26967857D01*
X22208928Y-27025000D01*
X21180357Y-28167857D02*
X21180357Y-27539285D01*
X21237500Y-27425000D01*
X21351785Y-27367857D01*
X21580357Y-27367857D01*
X21694642Y-27425000D01*
X21180357Y-28110714D02*
X21294642Y-28167857D01*
X21580357Y-28167857D01*
X21694642Y-28110714D01*
X21751785Y-27996428D01*
X21751785Y-27882142D01*
X21694642Y-27767857D01*
X21580357Y-27710714D01*
X21294642Y-27710714D01*
X21180357Y-27653571D01*
X20780357Y-27367857D02*
X20323214Y-27367857D01*
X20608928Y-26967857D02*
X20608928Y-27996428D01*
X20551785Y-28110714D01*
X20437500Y-28167857D01*
X20323214Y-28167857D01*
X20094642Y-26967857D02*
X19408928Y-26967857D01*
X19751785Y-28167857D02*
X19751785Y-26967857D01*
D10*
X11561904Y-76750000D02*
X11657142Y-76702380D01*
X11800000Y-76702380D01*
X11942857Y-76750000D01*
X12038095Y-76845238D01*
X12085714Y-76940476D01*
X12133333Y-77130952D01*
X12133333Y-77273809D01*
X12085714Y-77464285D01*
X12038095Y-77559523D01*
X11942857Y-77654761D01*
X11800000Y-77702380D01*
X11704761Y-77702380D01*
X11561904Y-77654761D01*
X11514285Y-77607142D01*
X11514285Y-77273809D01*
X11704761Y-77273809D01*
X11085714Y-77702380D02*
X11085714Y-76702380D01*
X10514285Y-77702380D01*
X10514285Y-76702380D01*
X10038095Y-77702380D02*
X10038095Y-76702380D01*
X9800000Y-76702380D01*
X9657142Y-76750000D01*
X9561904Y-76845238D01*
X9514285Y-76940476D01*
X9466666Y-77130952D01*
X9466666Y-77273809D01*
X9514285Y-77464285D01*
X9561904Y-77559523D01*
X9657142Y-77654761D01*
X9800000Y-77702380D01*
X10038095Y-77702380D01*
X12133333Y-74702380D02*
X11800000Y-75702380D01*
X11466666Y-74702380D01*
X10561904Y-75607142D02*
X10609523Y-75654761D01*
X10752380Y-75702380D01*
X10847619Y-75702380D01*
X10990476Y-75654761D01*
X11085714Y-75559523D01*
X11133333Y-75464285D01*
X11180952Y-75273809D01*
X11180952Y-75130952D01*
X11133333Y-74940476D01*
X11085714Y-74845238D01*
X10990476Y-74750000D01*
X10847619Y-74702380D01*
X10752380Y-74702380D01*
X10609523Y-74750000D01*
X10561904Y-74797619D01*
X9561904Y-75607142D02*
X9609523Y-75654761D01*
X9752380Y-75702380D01*
X9847619Y-75702380D01*
X9990476Y-75654761D01*
X10085714Y-75559523D01*
X10133333Y-75464285D01*
X10180952Y-75273809D01*
X10180952Y-75130952D01*
X10133333Y-74940476D01*
X10085714Y-74845238D01*
X9990476Y-74750000D01*
X9847619Y-74702380D01*
X9752380Y-74702380D01*
X9609523Y-74750000D01*
X9561904Y-74797619D01*
X267361904Y-74750000D02*
X267457142Y-74702380D01*
X267600000Y-74702380D01*
X267742857Y-74750000D01*
X267838095Y-74845238D01*
X267885714Y-74940476D01*
X267933333Y-75130952D01*
X267933333Y-75273809D01*
X267885714Y-75464285D01*
X267838095Y-75559523D01*
X267742857Y-75654761D01*
X267600000Y-75702380D01*
X267504761Y-75702380D01*
X267361904Y-75654761D01*
X267314285Y-75607142D01*
X267314285Y-75273809D01*
X267504761Y-75273809D01*
X266885714Y-75702380D02*
X266885714Y-74702380D01*
X266314285Y-75702380D01*
X266314285Y-74702380D01*
X265838095Y-75702380D02*
X265838095Y-74702380D01*
X265600000Y-74702380D01*
X265457142Y-74750000D01*
X265361904Y-74845238D01*
X265314285Y-74940476D01*
X265266666Y-75130952D01*
X265266666Y-75273809D01*
X265314285Y-75464285D01*
X265361904Y-75559523D01*
X265457142Y-75654761D01*
X265600000Y-75702380D01*
X265838095Y-75702380D01*
X267933333Y-76702380D02*
X267600000Y-77702380D01*
X267266666Y-76702380D01*
X266361904Y-77607142D02*
X266409523Y-77654761D01*
X266552380Y-77702380D01*
X266647619Y-77702380D01*
X266790476Y-77654761D01*
X266885714Y-77559523D01*
X266933333Y-77464285D01*
X266980952Y-77273809D01*
X266980952Y-77130952D01*
X266933333Y-76940476D01*
X266885714Y-76845238D01*
X266790476Y-76750000D01*
X266647619Y-76702380D01*
X266552380Y-76702380D01*
X266409523Y-76750000D01*
X266361904Y-76797619D01*
X265361904Y-77607142D02*
X265409523Y-77654761D01*
X265552380Y-77702380D01*
X265647619Y-77702380D01*
X265790476Y-77654761D01*
X265885714Y-77559523D01*
X265933333Y-77464285D01*
X265980952Y-77273809D01*
X265980952Y-77130952D01*
X265933333Y-76940476D01*
X265885714Y-76845238D01*
X265790476Y-76750000D01*
X265647619Y-76702380D01*
X265552380Y-76702380D01*
X265409523Y-76750000D01*
X265361904Y-76797619D01*
X28411785Y-70584761D02*
X28268928Y-70632380D01*
X28030833Y-70632380D01*
X27935595Y-70584761D01*
X27887976Y-70537142D01*
X27840357Y-70441904D01*
X27840357Y-70346666D01*
X27887976Y-70251428D01*
X27935595Y-70203809D01*
X28030833Y-70156190D01*
X28221309Y-70108571D01*
X28316547Y-70060952D01*
X28364166Y-70013333D01*
X28411785Y-69918095D01*
X28411785Y-69822857D01*
X28364166Y-69727619D01*
X28316547Y-69680000D01*
X28221309Y-69632380D01*
X27983214Y-69632380D01*
X27840357Y-69680000D01*
X27507023Y-69632380D02*
X27268928Y-70632380D01*
X27078452Y-69918095D01*
X26887976Y-70632380D01*
X26649880Y-69632380D01*
X26268928Y-70632380D02*
X26268928Y-69632380D01*
X26030833Y-69632380D01*
X25887976Y-69680000D01*
X25792738Y-69775238D01*
X25745119Y-69870476D01*
X25697500Y-70060952D01*
X25697500Y-70203809D01*
X25745119Y-70394285D01*
X25792738Y-70489523D01*
X25887976Y-70584761D01*
X26030833Y-70632380D01*
X26268928Y-70632380D01*
X24697500Y-70537142D02*
X24745119Y-70584761D01*
X24887976Y-70632380D01*
X24983214Y-70632380D01*
X25126071Y-70584761D01*
X25221309Y-70489523D01*
X25268928Y-70394285D01*
X25316547Y-70203809D01*
X25316547Y-70060952D01*
X25268928Y-69870476D01*
X25221309Y-69775238D01*
X25126071Y-69680000D01*
X24983214Y-69632380D01*
X24887976Y-69632380D01*
X24745119Y-69680000D01*
X24697500Y-69727619D01*
X23792738Y-70632380D02*
X24268928Y-70632380D01*
X24268928Y-69632380D01*
X23459404Y-70632380D02*
X23459404Y-69632380D01*
X22887976Y-70632380D02*
X23316547Y-70060952D01*
X22887976Y-69632380D02*
X23459404Y-70203809D01*
X27026071Y-73124761D02*
X26883214Y-73172380D01*
X26645119Y-73172380D01*
X26549880Y-73124761D01*
X26502261Y-73077142D01*
X26454642Y-72981904D01*
X26454642Y-72886666D01*
X26502261Y-72791428D01*
X26549880Y-72743809D01*
X26645119Y-72696190D01*
X26835595Y-72648571D01*
X26930833Y-72600952D01*
X26978452Y-72553333D01*
X27026071Y-72458095D01*
X27026071Y-72362857D01*
X26978452Y-72267619D01*
X26930833Y-72220000D01*
X26835595Y-72172380D01*
X26597500Y-72172380D01*
X26454642Y-72220000D01*
X26121309Y-72172380D02*
X25883214Y-73172380D01*
X25692738Y-72458095D01*
X25502261Y-73172380D01*
X25264166Y-72172380D01*
X24883214Y-73172380D02*
X24883214Y-72172380D01*
X24645119Y-72172380D01*
X24502261Y-72220000D01*
X24407023Y-72315238D01*
X24359404Y-72410476D01*
X24311785Y-72600952D01*
X24311785Y-72743809D01*
X24359404Y-72934285D01*
X24407023Y-73029523D01*
X24502261Y-73124761D01*
X24645119Y-73172380D01*
X24883214Y-73172380D01*
X23883214Y-73172380D02*
X23883214Y-72172380D01*
X23216547Y-72172380D02*
X23026071Y-72172380D01*
X22930833Y-72220000D01*
X22835595Y-72315238D01*
X22787976Y-72505714D01*
X22787976Y-72839047D01*
X22835595Y-73029523D01*
X22930833Y-73124761D01*
X23026071Y-73172380D01*
X23216547Y-73172380D01*
X23311785Y-73124761D01*
X23407023Y-73029523D01*
X23454642Y-72839047D01*
X23454642Y-72505714D01*
X23407023Y-72315238D01*
X23311785Y-72220000D01*
X23216547Y-72172380D01*
X24883214Y-74760000D02*
X24978452Y-74712380D01*
X25121309Y-74712380D01*
X25264166Y-74760000D01*
X25359404Y-74855238D01*
X25407023Y-74950476D01*
X25454642Y-75140952D01*
X25454642Y-75283809D01*
X25407023Y-75474285D01*
X25359404Y-75569523D01*
X25264166Y-75664761D01*
X25121309Y-75712380D01*
X25026071Y-75712380D01*
X24883214Y-75664761D01*
X24835595Y-75617142D01*
X24835595Y-75283809D01*
X25026071Y-75283809D01*
X24407023Y-75712380D02*
X24407023Y-74712380D01*
X23835595Y-75712380D01*
X23835595Y-74712380D01*
X23359404Y-75712380D02*
X23359404Y-74712380D01*
X23121309Y-74712380D01*
X22978452Y-74760000D01*
X22883214Y-74855238D01*
X22835595Y-74950476D01*
X22787976Y-75140952D01*
X22787976Y-75283809D01*
X22835595Y-75474285D01*
X22883214Y-75569523D01*
X22978452Y-75664761D01*
X23121309Y-75712380D01*
X23359404Y-75712380D01*
X25359404Y-77252380D02*
X25026071Y-78252380D01*
X24692738Y-77252380D01*
X23787976Y-78157142D02*
X23835595Y-78204761D01*
X23978452Y-78252380D01*
X24073690Y-78252380D01*
X24216547Y-78204761D01*
X24311785Y-78109523D01*
X24359404Y-78014285D01*
X24407023Y-77823809D01*
X24407023Y-77680952D01*
X24359404Y-77490476D01*
X24311785Y-77395238D01*
X24216547Y-77300000D01*
X24073690Y-77252380D01*
X23978452Y-77252380D01*
X23835595Y-77300000D01*
X23787976Y-77347619D01*
X22787976Y-78157142D02*
X22835595Y-78204761D01*
X22978452Y-78252380D01*
X23073690Y-78252380D01*
X23216547Y-78204761D01*
X23311785Y-78109523D01*
X23359404Y-78014285D01*
X23407023Y-77823809D01*
X23407023Y-77680952D01*
X23359404Y-77490476D01*
X23311785Y-77395238D01*
X23216547Y-77300000D01*
X23073690Y-77252380D01*
X22978452Y-77252380D01*
X22835595Y-77300000D01*
X22787976Y-77347619D01*
D12*
G36*
X29804335Y-23472714D02*
G01*
X29489143Y-23532492D01*
X29182703Y-23659356D01*
X29087134Y-23699087D01*
X29010585Y-23731744D01*
X28947567Y-23760309D01*
X28892586Y-23787763D01*
X28840150Y-23817087D01*
X28784769Y-23851261D01*
X28720951Y-23893267D01*
X28643202Y-23946085D01*
X28600321Y-23975469D01*
X28513877Y-24034973D01*
X28444747Y-24083580D01*
X28388118Y-24125399D01*
X28339176Y-24164539D01*
X28293107Y-24205110D01*
X28245099Y-24251222D01*
X28190338Y-24306983D01*
X28124010Y-24376505D01*
X28096228Y-24405846D01*
X28024361Y-24482092D01*
X27967025Y-24544208D01*
X27920313Y-24597293D01*
X27880320Y-24646445D01*
X27843138Y-24696763D01*
X27804861Y-24753346D01*
X27761582Y-24821292D01*
X27709395Y-24905700D01*
X27693922Y-24930913D01*
X27640420Y-25018354D01*
X27598057Y-25088887D01*
X27564233Y-25147981D01*
X27536349Y-25201105D01*
X27511807Y-25253729D01*
X27488008Y-25311322D01*
X27462353Y-25379354D01*
X27432243Y-25463295D01*
X27407029Y-25534715D01*
X27374306Y-25629927D01*
X27343443Y-25724135D01*
X27316038Y-25812121D01*
X27293688Y-25888667D01*
X27277990Y-25948554D01*
X27272322Y-25974895D01*
X27261681Y-26032104D01*
X27252023Y-26082151D01*
X27244892Y-26117103D01*
X27243042Y-26125290D01*
X27240972Y-26138357D01*
X27244256Y-26147365D01*
X27256139Y-26152292D01*
X27279864Y-26153115D01*
X27318676Y-26149814D01*
X27375818Y-26142365D01*
X27454534Y-26130748D01*
X27501880Y-26123540D01*
X27569847Y-26112785D01*
X27627791Y-26102923D01*
X27670859Y-26094833D01*
X27694199Y-26089395D01*
X27696901Y-26088191D01*
X27702045Y-26074007D01*
X27713383Y-26038015D01*
X27729739Y-25984107D01*
X27749936Y-25916174D01*
X27772798Y-25838108D01*
X27779658Y-25814474D01*
X27806405Y-25723218D01*
X27829009Y-25650221D01*
X27850141Y-25589005D01*
X27872473Y-25533092D01*
X27898673Y-25476004D01*
X27931413Y-25411263D01*
X27973363Y-25332390D01*
X27994579Y-25293106D01*
X28043308Y-25203971D01*
X28084101Y-25132399D01*
X28121214Y-25072156D01*
X28158904Y-25017009D01*
X28201429Y-24960726D01*
X28253043Y-24897074D01*
X28316995Y-24821011D01*
X28382767Y-24744154D01*
X28437323Y-24682752D01*
X28486188Y-24631533D01*
X28534887Y-24585225D01*
X28588944Y-24538558D01*
X28653884Y-24486258D01*
X28729064Y-24427808D01*
X28809116Y-24366611D01*
X28874784Y-24318208D01*
X28932496Y-24278635D01*
X28988679Y-24243926D01*
X29049758Y-24210116D01*
X29122162Y-24173240D01*
X29212318Y-24129333D01*
X29214688Y-24128191D01*
X29302683Y-24086091D01*
X29373324Y-24053465D01*
X29433232Y-24027954D01*
X29489028Y-24007196D01*
X29547333Y-23988830D01*
X29614767Y-23970495D01*
X29697950Y-23949830D01*
X29750051Y-23937278D01*
X29842282Y-23915310D01*
X29915475Y-23898680D01*
X29976273Y-23886497D01*
X30031317Y-23877869D01*
X30087249Y-23871906D01*
X30150710Y-23867715D01*
X30228342Y-23864405D01*
X30314752Y-23861477D01*
X30602597Y-23852079D01*
X30875746Y-23901718D01*
X30968780Y-23918900D01*
X31043241Y-23933752D01*
X31105814Y-23948229D01*
X31163182Y-23964287D01*
X31222030Y-23983881D01*
X31289041Y-24008967D01*
X31370902Y-24041501D01*
X31416263Y-24059863D01*
X31507217Y-24097123D01*
X31580064Y-24128275D01*
X31641048Y-24156672D01*
X31696414Y-24185665D01*
X31752408Y-24218609D01*
X31815275Y-24258856D01*
X31891260Y-24309758D01*
X31927059Y-24334080D01*
X32010727Y-24391496D01*
X32077559Y-24438986D01*
X32133100Y-24481252D01*
X32182895Y-24522995D01*
X32232490Y-24568917D01*
X32287428Y-24623720D01*
X32353257Y-24692104D01*
X32369611Y-24709290D01*
X32439165Y-24783086D01*
X32494449Y-24843861D01*
X32540036Y-24897560D01*
X32580497Y-24950131D01*
X32620407Y-25007519D01*
X32664337Y-25075673D01*
X32716861Y-25160537D01*
X32717837Y-25162129D01*
X32768932Y-25246146D01*
X32808948Y-25314313D01*
X32840988Y-25373169D01*
X32868158Y-25429252D01*
X32893563Y-25489101D01*
X32920308Y-25559253D01*
X32951498Y-25646246D01*
X32962258Y-25676814D01*
X32990794Y-25757330D01*
X33016788Y-25829329D01*
X33038816Y-25888972D01*
X33055453Y-25932419D01*
X33065274Y-25955833D01*
X33066872Y-25958626D01*
X33082639Y-25963460D01*
X33119397Y-25969801D01*
X33171693Y-25977067D01*
X33234073Y-25984680D01*
X33301084Y-25992060D01*
X33367273Y-25998627D01*
X33427184Y-26003801D01*
X33475364Y-26007003D01*
X33506361Y-26007653D01*
X33514940Y-26006253D01*
X33513292Y-25991984D01*
X33504849Y-25955682D01*
X33490562Y-25900903D01*
X33471380Y-25831205D01*
X33448252Y-25750143D01*
X33428814Y-25683772D01*
X33399539Y-25585334D01*
X33375393Y-25506651D01*
X33353997Y-25441967D01*
X33332974Y-25385524D01*
X33309943Y-25331568D01*
X33282528Y-25274342D01*
X33248349Y-25208091D01*
X33205029Y-25127057D01*
X33178365Y-25077658D01*
X33128966Y-24986585D01*
X33088449Y-24913622D01*
X33053247Y-24853569D01*
X33019796Y-24801230D01*
X32984530Y-24751406D01*
X32943885Y-24698898D01*
X32894295Y-24638510D01*
X32832195Y-24565043D01*
X32804371Y-24532375D01*
X32735905Y-24452354D01*
X32680009Y-24388379D01*
X32632046Y-24336033D01*
X32587375Y-24290901D01*
X32541356Y-24248567D01*
X32489352Y-24204614D01*
X32426721Y-24154628D01*
X32348826Y-24094192D01*
X32323590Y-24074751D01*
X32240967Y-24011341D01*
X32174068Y-23960993D01*
X32117531Y-23920417D01*
X32065993Y-23886317D01*
X32014091Y-23855403D01*
X31956464Y-23824382D01*
X31887749Y-23789960D01*
X31802584Y-23748845D01*
X31758577Y-23727813D01*
X31457468Y-23584052D01*
X30814684Y-23429140D01*
X30467105Y-23421038D01*
X30119526Y-23412935D01*
X29804335Y-23472714D01*
X29804335Y-23472714D01*
G37*
X29804335Y-23472714D02*
X29489143Y-23532492D01*
X29182703Y-23659356D01*
X29087134Y-23699087D01*
X29010585Y-23731744D01*
X28947567Y-23760309D01*
X28892586Y-23787763D01*
X28840150Y-23817087D01*
X28784769Y-23851261D01*
X28720951Y-23893267D01*
X28643202Y-23946085D01*
X28600321Y-23975469D01*
X28513877Y-24034973D01*
X28444747Y-24083580D01*
X28388118Y-24125399D01*
X28339176Y-24164539D01*
X28293107Y-24205110D01*
X28245099Y-24251222D01*
X28190338Y-24306983D01*
X28124010Y-24376505D01*
X28096228Y-24405846D01*
X28024361Y-24482092D01*
X27967025Y-24544208D01*
X27920313Y-24597293D01*
X27880320Y-24646445D01*
X27843138Y-24696763D01*
X27804861Y-24753346D01*
X27761582Y-24821292D01*
X27709395Y-24905700D01*
X27693922Y-24930913D01*
X27640420Y-25018354D01*
X27598057Y-25088887D01*
X27564233Y-25147981D01*
X27536349Y-25201105D01*
X27511807Y-25253729D01*
X27488008Y-25311322D01*
X27462353Y-25379354D01*
X27432243Y-25463295D01*
X27407029Y-25534715D01*
X27374306Y-25629927D01*
X27343443Y-25724135D01*
X27316038Y-25812121D01*
X27293688Y-25888667D01*
X27277990Y-25948554D01*
X27272322Y-25974895D01*
X27261681Y-26032104D01*
X27252023Y-26082151D01*
X27244892Y-26117103D01*
X27243042Y-26125290D01*
X27240972Y-26138357D01*
X27244256Y-26147365D01*
X27256139Y-26152292D01*
X27279864Y-26153115D01*
X27318676Y-26149814D01*
X27375818Y-26142365D01*
X27454534Y-26130748D01*
X27501880Y-26123540D01*
X27569847Y-26112785D01*
X27627791Y-26102923D01*
X27670859Y-26094833D01*
X27694199Y-26089395D01*
X27696901Y-26088191D01*
X27702045Y-26074007D01*
X27713383Y-26038015D01*
X27729739Y-25984107D01*
X27749936Y-25916174D01*
X27772798Y-25838108D01*
X27779658Y-25814474D01*
X27806405Y-25723218D01*
X27829009Y-25650221D01*
X27850141Y-25589005D01*
X27872473Y-25533092D01*
X27898673Y-25476004D01*
X27931413Y-25411263D01*
X27973363Y-25332390D01*
X27994579Y-25293106D01*
X28043308Y-25203971D01*
X28084101Y-25132399D01*
X28121214Y-25072156D01*
X28158904Y-25017009D01*
X28201429Y-24960726D01*
X28253043Y-24897074D01*
X28316995Y-24821011D01*
X28382767Y-24744154D01*
X28437323Y-24682752D01*
X28486188Y-24631533D01*
X28534887Y-24585225D01*
X28588944Y-24538558D01*
X28653884Y-24486258D01*
X28729064Y-24427808D01*
X28809116Y-24366611D01*
X28874784Y-24318208D01*
X28932496Y-24278635D01*
X28988679Y-24243926D01*
X29049758Y-24210116D01*
X29122162Y-24173240D01*
X29212318Y-24129333D01*
X29214688Y-24128191D01*
X29302683Y-24086091D01*
X29373324Y-24053465D01*
X29433232Y-24027954D01*
X29489028Y-24007196D01*
X29547333Y-23988830D01*
X29614767Y-23970495D01*
X29697950Y-23949830D01*
X29750051Y-23937278D01*
X29842282Y-23915310D01*
X29915475Y-23898680D01*
X29976273Y-23886497D01*
X30031317Y-23877869D01*
X30087249Y-23871906D01*
X30150710Y-23867715D01*
X30228342Y-23864405D01*
X30314752Y-23861477D01*
X30602597Y-23852079D01*
X30875746Y-23901718D01*
X30968780Y-23918900D01*
X31043241Y-23933752D01*
X31105814Y-23948229D01*
X31163182Y-23964287D01*
X31222030Y-23983881D01*
X31289041Y-24008967D01*
X31370902Y-24041501D01*
X31416263Y-24059863D01*
X31507217Y-24097123D01*
X31580064Y-24128275D01*
X31641048Y-24156672D01*
X31696414Y-24185665D01*
X31752408Y-24218609D01*
X31815275Y-24258856D01*
X31891260Y-24309758D01*
X31927059Y-24334080D01*
X32010727Y-24391496D01*
X32077559Y-24438986D01*
X32133100Y-24481252D01*
X32182895Y-24522995D01*
X32232490Y-24568917D01*
X32287428Y-24623720D01*
X32353257Y-24692104D01*
X32369611Y-24709290D01*
X32439165Y-24783086D01*
X32494449Y-24843861D01*
X32540036Y-24897560D01*
X32580497Y-24950131D01*
X32620407Y-25007519D01*
X32664337Y-25075673D01*
X32716861Y-25160537D01*
X32717837Y-25162129D01*
X32768932Y-25246146D01*
X32808948Y-25314313D01*
X32840988Y-25373169D01*
X32868158Y-25429252D01*
X32893563Y-25489101D01*
X32920308Y-25559253D01*
X32951498Y-25646246D01*
X32962258Y-25676814D01*
X32990794Y-25757330D01*
X33016788Y-25829329D01*
X33038816Y-25888972D01*
X33055453Y-25932419D01*
X33065274Y-25955833D01*
X33066872Y-25958626D01*
X33082639Y-25963460D01*
X33119397Y-25969801D01*
X33171693Y-25977067D01*
X33234073Y-25984680D01*
X33301084Y-25992060D01*
X33367273Y-25998627D01*
X33427184Y-26003801D01*
X33475364Y-26007003D01*
X33506361Y-26007653D01*
X33514940Y-26006253D01*
X33513292Y-25991984D01*
X33504849Y-25955682D01*
X33490562Y-25900903D01*
X33471380Y-25831205D01*
X33448252Y-25750143D01*
X33428814Y-25683772D01*
X33399539Y-25585334D01*
X33375393Y-25506651D01*
X33353997Y-25441967D01*
X33332974Y-25385524D01*
X33309943Y-25331568D01*
X33282528Y-25274342D01*
X33248349Y-25208091D01*
X33205029Y-25127057D01*
X33178365Y-25077658D01*
X33128966Y-24986585D01*
X33088449Y-24913622D01*
X33053247Y-24853569D01*
X33019796Y-24801230D01*
X32984530Y-24751406D01*
X32943885Y-24698898D01*
X32894295Y-24638510D01*
X32832195Y-24565043D01*
X32804371Y-24532375D01*
X32735905Y-24452354D01*
X32680009Y-24388379D01*
X32632046Y-24336033D01*
X32587375Y-24290901D01*
X32541356Y-24248567D01*
X32489352Y-24204614D01*
X32426721Y-24154628D01*
X32348826Y-24094192D01*
X32323590Y-24074751D01*
X32240967Y-24011341D01*
X32174068Y-23960993D01*
X32117531Y-23920417D01*
X32065993Y-23886317D01*
X32014091Y-23855403D01*
X31956464Y-23824382D01*
X31887749Y-23789960D01*
X31802584Y-23748845D01*
X31758577Y-23727813D01*
X31457468Y-23584052D01*
X30814684Y-23429140D01*
X30467105Y-23421038D01*
X30119526Y-23412935D01*
X29804335Y-23472714D01*
G36*
X30607473Y-26106634D02*
G01*
X30301897Y-26114093D01*
X30006736Y-26125858D01*
X29716589Y-26142364D01*
X29426051Y-26164047D01*
X29129719Y-26191345D01*
X28822189Y-26224693D01*
X28498058Y-26264528D01*
X28261315Y-26296105D01*
X28146957Y-26312257D01*
X28021295Y-26330826D01*
X27887034Y-26351351D01*
X27746878Y-26373368D01*
X27603532Y-26396416D01*
X27459699Y-26420033D01*
X27318086Y-26443757D01*
X27181396Y-26467125D01*
X27052333Y-26489676D01*
X26933602Y-26510947D01*
X26827908Y-26530476D01*
X26737955Y-26547801D01*
X26666448Y-26562460D01*
X26616091Y-26573990D01*
X26590263Y-26581643D01*
X26593014Y-26585141D01*
X26618794Y-26587292D01*
X26663924Y-26587996D01*
X26724725Y-26587155D01*
X26758112Y-26586183D01*
X26870418Y-26583806D01*
X26988743Y-26584158D01*
X27114711Y-26587397D01*
X27249942Y-26593684D01*
X27396060Y-26603176D01*
X27554686Y-26616033D01*
X27727442Y-26632414D01*
X27915952Y-26652477D01*
X28121837Y-26676382D01*
X28346719Y-26704288D01*
X28592221Y-26736354D01*
X28859964Y-26772738D01*
X29151572Y-26813599D01*
X29310737Y-26836319D01*
X29541691Y-26869176D01*
X29749067Y-26898025D01*
X29935667Y-26923210D01*
X30104293Y-26945075D01*
X30257746Y-26963965D01*
X30398829Y-26980223D01*
X30530344Y-26994193D01*
X30655092Y-27006219D01*
X30775876Y-27016644D01*
X30787037Y-27017547D01*
X30881069Y-27023939D01*
X30994457Y-27029756D01*
X31121571Y-27034866D01*
X31256779Y-27039139D01*
X31394451Y-27042443D01*
X31528956Y-27044646D01*
X31654664Y-27045617D01*
X31765943Y-27045225D01*
X31857164Y-27043338D01*
X31870789Y-27042838D01*
X32117049Y-27031000D01*
X32358983Y-27015375D01*
X32594539Y-26996264D01*
X32821664Y-26973965D01*
X33038308Y-26948778D01*
X33242417Y-26921004D01*
X33431940Y-26890941D01*
X33604824Y-26858890D01*
X33759019Y-26825150D01*
X33892472Y-26790020D01*
X34003130Y-26753800D01*
X34082972Y-26719808D01*
X34149428Y-26682322D01*
X34191824Y-26646934D01*
X34212404Y-26610949D01*
X34213414Y-26571674D01*
X34211928Y-26564979D01*
X34189123Y-26526634D01*
X34141017Y-26488823D01*
X34069040Y-26451727D01*
X33974626Y-26415530D01*
X33859207Y-26380412D01*
X33724215Y-26346557D01*
X33571082Y-26314146D01*
X33401241Y-26283361D01*
X33216124Y-26254386D01*
X33017163Y-26227401D01*
X32805791Y-26202588D01*
X32583439Y-26180131D01*
X32351541Y-26160211D01*
X32111529Y-26143011D01*
X31864834Y-26128711D01*
X31612890Y-26117496D01*
X31357128Y-26109546D01*
X31098981Y-26105044D01*
X30839881Y-26104172D01*
X30607473Y-26106634D01*
X30607473Y-26106634D01*
G37*
X30607473Y-26106634D02*
X30301897Y-26114093D01*
X30006736Y-26125858D01*
X29716589Y-26142364D01*
X29426051Y-26164047D01*
X29129719Y-26191345D01*
X28822189Y-26224693D01*
X28498058Y-26264528D01*
X28261315Y-26296105D01*
X28146957Y-26312257D01*
X28021295Y-26330826D01*
X27887034Y-26351351D01*
X27746878Y-26373368D01*
X27603532Y-26396416D01*
X27459699Y-26420033D01*
X27318086Y-26443757D01*
X27181396Y-26467125D01*
X27052333Y-26489676D01*
X26933602Y-26510947D01*
X26827908Y-26530476D01*
X26737955Y-26547801D01*
X26666448Y-26562460D01*
X26616091Y-26573990D01*
X26590263Y-26581643D01*
X26593014Y-26585141D01*
X26618794Y-26587292D01*
X26663924Y-26587996D01*
X26724725Y-26587155D01*
X26758112Y-26586183D01*
X26870418Y-26583806D01*
X26988743Y-26584158D01*
X27114711Y-26587397D01*
X27249942Y-26593684D01*
X27396060Y-26603176D01*
X27554686Y-26616033D01*
X27727442Y-26632414D01*
X27915952Y-26652477D01*
X28121837Y-26676382D01*
X28346719Y-26704288D01*
X28592221Y-26736354D01*
X28859964Y-26772738D01*
X29151572Y-26813599D01*
X29310737Y-26836319D01*
X29541691Y-26869176D01*
X29749067Y-26898025D01*
X29935667Y-26923210D01*
X30104293Y-26945075D01*
X30257746Y-26963965D01*
X30398829Y-26980223D01*
X30530344Y-26994193D01*
X30655092Y-27006219D01*
X30775876Y-27016644D01*
X30787037Y-27017547D01*
X30881069Y-27023939D01*
X30994457Y-27029756D01*
X31121571Y-27034866D01*
X31256779Y-27039139D01*
X31394451Y-27042443D01*
X31528956Y-27044646D01*
X31654664Y-27045617D01*
X31765943Y-27045225D01*
X31857164Y-27043338D01*
X31870789Y-27042838D01*
X32117049Y-27031000D01*
X32358983Y-27015375D01*
X32594539Y-26996264D01*
X32821664Y-26973965D01*
X33038308Y-26948778D01*
X33242417Y-26921004D01*
X33431940Y-26890941D01*
X33604824Y-26858890D01*
X33759019Y-26825150D01*
X33892472Y-26790020D01*
X34003130Y-26753800D01*
X34082972Y-26719808D01*
X34149428Y-26682322D01*
X34191824Y-26646934D01*
X34212404Y-26610949D01*
X34213414Y-26571674D01*
X34211928Y-26564979D01*
X34189123Y-26526634D01*
X34141017Y-26488823D01*
X34069040Y-26451727D01*
X33974626Y-26415530D01*
X33859207Y-26380412D01*
X33724215Y-26346557D01*
X33571082Y-26314146D01*
X33401241Y-26283361D01*
X33216124Y-26254386D01*
X33017163Y-26227401D01*
X32805791Y-26202588D01*
X32583439Y-26180131D01*
X32351541Y-26160211D01*
X32111529Y-26143011D01*
X31864834Y-26128711D01*
X31612890Y-26117496D01*
X31357128Y-26109546D01*
X31098981Y-26105044D01*
X30839881Y-26104172D01*
X30607473Y-26106634D01*
G36*
X27230390Y-26894417D02*
G01*
X27231554Y-26908339D01*
X27237462Y-26944865D01*
X27247453Y-27000410D01*
X27260868Y-27071394D01*
X27277049Y-27154234D01*
X27291392Y-27225897D01*
X27357401Y-27552369D01*
X27488552Y-27853548D01*
X27530090Y-27948476D01*
X27564337Y-28024633D01*
X27594426Y-28087574D01*
X27623493Y-28142855D01*
X27654673Y-28196029D01*
X27691101Y-28252651D01*
X27735912Y-28318275D01*
X27792241Y-28398457D01*
X27811343Y-28425458D01*
X27871025Y-28509474D01*
X27919866Y-28576816D01*
X27961964Y-28632124D01*
X28001413Y-28680034D01*
X28042312Y-28725187D01*
X28088756Y-28772219D01*
X28144841Y-28825769D01*
X28214664Y-28890476D01*
X28253743Y-28926384D01*
X28331638Y-28997674D01*
X28394868Y-29054483D01*
X28448390Y-29100492D01*
X28497163Y-29139378D01*
X28546145Y-29174821D01*
X28600295Y-29210499D01*
X28664571Y-29250091D01*
X28743931Y-29297276D01*
X28790783Y-29324847D01*
X28880093Y-29377189D01*
X28952023Y-29418515D01*
X29012222Y-29451395D01*
X29066336Y-29478397D01*
X29120013Y-29502092D01*
X29178902Y-29525050D01*
X29248649Y-29549840D01*
X29334903Y-29579033D01*
X29389307Y-29597191D01*
X29701549Y-29701267D01*
X30030853Y-29739473D01*
X30123037Y-29749997D01*
X30207442Y-29759310D01*
X30280105Y-29766999D01*
X30337060Y-29772654D01*
X30374343Y-29775863D01*
X30386894Y-29776423D01*
X30407470Y-29774772D01*
X30450507Y-29770829D01*
X30511869Y-29764993D01*
X30587415Y-29757658D01*
X30673007Y-29749221D01*
X30721882Y-29744353D01*
X31030134Y-29713538D01*
X31347209Y-29613064D01*
X31445745Y-29581712D01*
X31524492Y-29555923D01*
X31589128Y-29533221D01*
X31645332Y-29511128D01*
X31698786Y-29487167D01*
X31755166Y-29458862D01*
X31820154Y-29423735D01*
X31899427Y-29379309D01*
X31953971Y-29348430D01*
X32045018Y-29296624D01*
X32117915Y-29254172D01*
X32177846Y-29217372D01*
X32229994Y-29182522D01*
X32279542Y-29145922D01*
X32331673Y-29103870D01*
X32391572Y-29052665D01*
X32464421Y-28988606D01*
X32491697Y-28964448D01*
X32570018Y-28894753D01*
X32632679Y-28837773D01*
X32684039Y-28788752D01*
X32728455Y-28742934D01*
X32770286Y-28695563D01*
X32813888Y-28641884D01*
X32863620Y-28577142D01*
X32923840Y-28496579D01*
X32938434Y-28476925D01*
X33000248Y-28393404D01*
X33049267Y-28325894D01*
X33088661Y-28269015D01*
X33121598Y-28217386D01*
X33151246Y-28165628D01*
X33180775Y-28108359D01*
X33213352Y-28040199D01*
X33252146Y-27955768D01*
X33275149Y-27905143D01*
X33322885Y-27798707D01*
X33360907Y-27710467D01*
X33391365Y-27634657D01*
X33416411Y-27565514D01*
X33438196Y-27497272D01*
X33458872Y-27424168D01*
X33469058Y-27385567D01*
X33487321Y-27313844D01*
X33502488Y-27251745D01*
X33513551Y-27203614D01*
X33519500Y-27173790D01*
X33520027Y-27166066D01*
X33504235Y-27165014D01*
X33467409Y-27167073D01*
X33414986Y-27171610D01*
X33352407Y-27177991D01*
X33285110Y-27185584D01*
X33218533Y-27193755D01*
X33158116Y-27201871D01*
X33109297Y-27209299D01*
X33077515Y-27215406D01*
X33068200Y-27218664D01*
X33060146Y-27234725D01*
X33045043Y-27272116D01*
X33024393Y-27326834D01*
X32999699Y-27394877D01*
X32972464Y-27472242D01*
X32966146Y-27490504D01*
X32934543Y-27580957D01*
X32907611Y-27653883D01*
X32882255Y-27715880D01*
X32855383Y-27773548D01*
X32823900Y-27833486D01*
X32784713Y-27902292D01*
X32734728Y-27986566D01*
X32729509Y-27995277D01*
X32677817Y-28080714D01*
X32634691Y-28149249D01*
X32595671Y-28206792D01*
X32556299Y-28259253D01*
X32512114Y-28312541D01*
X32458658Y-28372566D01*
X32391471Y-28445236D01*
X32383637Y-28453628D01*
X32314203Y-28527371D01*
X32257016Y-28586052D01*
X32206477Y-28634518D01*
X32156989Y-28677619D01*
X32102955Y-28720203D01*
X32038777Y-28767120D01*
X31958858Y-28823217D01*
X31949465Y-28829741D01*
X31866648Y-28886739D01*
X31798923Y-28931666D01*
X31739730Y-28968136D01*
X31682507Y-28999765D01*
X31620695Y-29030165D01*
X31547732Y-29062952D01*
X31457058Y-29101740D01*
X31451412Y-29104125D01*
X31363117Y-29141159D01*
X31292089Y-29169868D01*
X31231773Y-29192236D01*
X31175618Y-29210249D01*
X31117071Y-29225891D01*
X31049577Y-29241148D01*
X30966585Y-29258005D01*
X30901579Y-29270692D01*
X30614158Y-29326431D01*
X30326737Y-29317241D01*
X30230334Y-29313985D01*
X30153931Y-29310578D01*
X30090801Y-29306146D01*
X30034215Y-29299811D01*
X29977448Y-29290697D01*
X29913771Y-29277928D01*
X29836458Y-29260628D01*
X29765263Y-29244103D01*
X29670720Y-29221745D01*
X29595436Y-29202766D01*
X29532583Y-29184790D01*
X29475332Y-29165442D01*
X29416853Y-29142346D01*
X29350318Y-29113126D01*
X29268897Y-29075408D01*
X29236446Y-29060149D01*
X29147442Y-29017749D01*
X29075525Y-28981879D01*
X29014377Y-28948711D01*
X28957680Y-28914419D01*
X28899115Y-28875175D01*
X28832365Y-28827151D01*
X28751111Y-28766519D01*
X28748499Y-28764553D01*
X28667758Y-28703251D01*
X28603365Y-28652618D01*
X28549989Y-28607675D01*
X28502296Y-28563447D01*
X28454953Y-28514957D01*
X28402626Y-28457227D01*
X28339984Y-28385282D01*
X28331458Y-28375385D01*
X28266375Y-28299052D01*
X28214483Y-28235770D01*
X28171415Y-28179253D01*
X28132803Y-28123214D01*
X28094281Y-28061365D01*
X28051481Y-27987419D01*
X28008588Y-27910562D01*
X27960978Y-27823857D01*
X27923842Y-27753742D01*
X27894373Y-27693603D01*
X27869764Y-27636827D01*
X27847209Y-27576797D01*
X27823902Y-27506901D01*
X27797034Y-27420523D01*
X27787839Y-27390337D01*
X27761878Y-27303101D01*
X27737604Y-27218187D01*
X27716548Y-27141212D01*
X27700240Y-27077790D01*
X27690212Y-27033536D01*
X27689453Y-27029505D01*
X27672806Y-26937652D01*
X27454102Y-26913531D01*
X27380789Y-26905766D01*
X27317312Y-26899652D01*
X27268188Y-26895575D01*
X27237931Y-26893921D01*
X27230390Y-26894417D01*
X27230390Y-26894417D01*
G37*
X27230390Y-26894417D02*
X27231554Y-26908339D01*
X27237462Y-26944865D01*
X27247453Y-27000410D01*
X27260868Y-27071394D01*
X27277049Y-27154234D01*
X27291392Y-27225897D01*
X27357401Y-27552369D01*
X27488552Y-27853548D01*
X27530090Y-27948476D01*
X27564337Y-28024633D01*
X27594426Y-28087574D01*
X27623493Y-28142855D01*
X27654673Y-28196029D01*
X27691101Y-28252651D01*
X27735912Y-28318275D01*
X27792241Y-28398457D01*
X27811343Y-28425458D01*
X27871025Y-28509474D01*
X27919866Y-28576816D01*
X27961964Y-28632124D01*
X28001413Y-28680034D01*
X28042312Y-28725187D01*
X28088756Y-28772219D01*
X28144841Y-28825769D01*
X28214664Y-28890476D01*
X28253743Y-28926384D01*
X28331638Y-28997674D01*
X28394868Y-29054483D01*
X28448390Y-29100492D01*
X28497163Y-29139378D01*
X28546145Y-29174821D01*
X28600295Y-29210499D01*
X28664571Y-29250091D01*
X28743931Y-29297276D01*
X28790783Y-29324847D01*
X28880093Y-29377189D01*
X28952023Y-29418515D01*
X29012222Y-29451395D01*
X29066336Y-29478397D01*
X29120013Y-29502092D01*
X29178902Y-29525050D01*
X29248649Y-29549840D01*
X29334903Y-29579033D01*
X29389307Y-29597191D01*
X29701549Y-29701267D01*
X30030853Y-29739473D01*
X30123037Y-29749997D01*
X30207442Y-29759310D01*
X30280105Y-29766999D01*
X30337060Y-29772654D01*
X30374343Y-29775863D01*
X30386894Y-29776423D01*
X30407470Y-29774772D01*
X30450507Y-29770829D01*
X30511869Y-29764993D01*
X30587415Y-29757658D01*
X30673007Y-29749221D01*
X30721882Y-29744353D01*
X31030134Y-29713538D01*
X31347209Y-29613064D01*
X31445745Y-29581712D01*
X31524492Y-29555923D01*
X31589128Y-29533221D01*
X31645332Y-29511128D01*
X31698786Y-29487167D01*
X31755166Y-29458862D01*
X31820154Y-29423735D01*
X31899427Y-29379309D01*
X31953971Y-29348430D01*
X32045018Y-29296624D01*
X32117915Y-29254172D01*
X32177846Y-29217372D01*
X32229994Y-29182522D01*
X32279542Y-29145922D01*
X32331673Y-29103870D01*
X32391572Y-29052665D01*
X32464421Y-28988606D01*
X32491697Y-28964448D01*
X32570018Y-28894753D01*
X32632679Y-28837773D01*
X32684039Y-28788752D01*
X32728455Y-28742934D01*
X32770286Y-28695563D01*
X32813888Y-28641884D01*
X32863620Y-28577142D01*
X32923840Y-28496579D01*
X32938434Y-28476925D01*
X33000248Y-28393404D01*
X33049267Y-28325894D01*
X33088661Y-28269015D01*
X33121598Y-28217386D01*
X33151246Y-28165628D01*
X33180775Y-28108359D01*
X33213352Y-28040199D01*
X33252146Y-27955768D01*
X33275149Y-27905143D01*
X33322885Y-27798707D01*
X33360907Y-27710467D01*
X33391365Y-27634657D01*
X33416411Y-27565514D01*
X33438196Y-27497272D01*
X33458872Y-27424168D01*
X33469058Y-27385567D01*
X33487321Y-27313844D01*
X33502488Y-27251745D01*
X33513551Y-27203614D01*
X33519500Y-27173790D01*
X33520027Y-27166066D01*
X33504235Y-27165014D01*
X33467409Y-27167073D01*
X33414986Y-27171610D01*
X33352407Y-27177991D01*
X33285110Y-27185584D01*
X33218533Y-27193755D01*
X33158116Y-27201871D01*
X33109297Y-27209299D01*
X33077515Y-27215406D01*
X33068200Y-27218664D01*
X33060146Y-27234725D01*
X33045043Y-27272116D01*
X33024393Y-27326834D01*
X32999699Y-27394877D01*
X32972464Y-27472242D01*
X32966146Y-27490504D01*
X32934543Y-27580957D01*
X32907611Y-27653883D01*
X32882255Y-27715880D01*
X32855383Y-27773548D01*
X32823900Y-27833486D01*
X32784713Y-27902292D01*
X32734728Y-27986566D01*
X32729509Y-27995277D01*
X32677817Y-28080714D01*
X32634691Y-28149249D01*
X32595671Y-28206792D01*
X32556299Y-28259253D01*
X32512114Y-28312541D01*
X32458658Y-28372566D01*
X32391471Y-28445236D01*
X32383637Y-28453628D01*
X32314203Y-28527371D01*
X32257016Y-28586052D01*
X32206477Y-28634518D01*
X32156989Y-28677619D01*
X32102955Y-28720203D01*
X32038777Y-28767120D01*
X31958858Y-28823217D01*
X31949465Y-28829741D01*
X31866648Y-28886739D01*
X31798923Y-28931666D01*
X31739730Y-28968136D01*
X31682507Y-28999765D01*
X31620695Y-29030165D01*
X31547732Y-29062952D01*
X31457058Y-29101740D01*
X31451412Y-29104125D01*
X31363117Y-29141159D01*
X31292089Y-29169868D01*
X31231773Y-29192236D01*
X31175618Y-29210249D01*
X31117071Y-29225891D01*
X31049577Y-29241148D01*
X30966585Y-29258005D01*
X30901579Y-29270692D01*
X30614158Y-29326431D01*
X30326737Y-29317241D01*
X30230334Y-29313985D01*
X30153931Y-29310578D01*
X30090801Y-29306146D01*
X30034215Y-29299811D01*
X29977448Y-29290697D01*
X29913771Y-29277928D01*
X29836458Y-29260628D01*
X29765263Y-29244103D01*
X29670720Y-29221745D01*
X29595436Y-29202766D01*
X29532583Y-29184790D01*
X29475332Y-29165442D01*
X29416853Y-29142346D01*
X29350318Y-29113126D01*
X29268897Y-29075408D01*
X29236446Y-29060149D01*
X29147442Y-29017749D01*
X29075525Y-28981879D01*
X29014377Y-28948711D01*
X28957680Y-28914419D01*
X28899115Y-28875175D01*
X28832365Y-28827151D01*
X28751111Y-28766519D01*
X28748499Y-28764553D01*
X28667758Y-28703251D01*
X28603365Y-28652618D01*
X28549989Y-28607675D01*
X28502296Y-28563447D01*
X28454953Y-28514957D01*
X28402626Y-28457227D01*
X28339984Y-28385282D01*
X28331458Y-28375385D01*
X28266375Y-28299052D01*
X28214483Y-28235770D01*
X28171415Y-28179253D01*
X28132803Y-28123214D01*
X28094281Y-28061365D01*
X28051481Y-27987419D01*
X28008588Y-27910562D01*
X27960978Y-27823857D01*
X27923842Y-27753742D01*
X27894373Y-27693603D01*
X27869764Y-27636827D01*
X27847209Y-27576797D01*
X27823902Y-27506901D01*
X27797034Y-27420523D01*
X27787839Y-27390337D01*
X27761878Y-27303101D01*
X27737604Y-27218187D01*
X27716548Y-27141212D01*
X27700240Y-27077790D01*
X27690212Y-27033536D01*
X27689453Y-27029505D01*
X27672806Y-26937652D01*
X27454102Y-26913531D01*
X27380789Y-26905766D01*
X27317312Y-26899652D01*
X27268188Y-26895575D01*
X27237931Y-26893921D01*
X27230390Y-26894417D01*
%LPC*%
D13*
X260100000Y-75260000D03*
X17100000Y-75260000D03*
D14*
X262900000Y-67300000D03*
X264900000Y-67300000D03*
X260900000Y-67300000D03*
D15*
X164350420Y-77641147D03*
D16*
X158673816Y-77456301D03*
D15*
X159389353Y-72933502D03*
D17*
X156551051Y-72841079D03*
X160796581Y-82071523D03*
X253905000Y-57150000D03*
X243745000Y-57150000D03*
D15*
X245015000Y-54610000D03*
D16*
X248825000Y-57150000D03*
D15*
X251365000Y-52070000D03*
D17*
X55086250Y-70246875D03*
X44926250Y-70246875D03*
D15*
X46196250Y-67706875D03*
D16*
X50006250Y-70246875D03*
D15*
X52546250Y-65166875D03*
D17*
X52705000Y-51196875D03*
X42545000Y-51196875D03*
D15*
X43815000Y-48656875D03*
D16*
X47625000Y-51196875D03*
D15*
X50165000Y-46116875D03*
D17*
X14605000Y-57150000D03*
X4445000Y-57150000D03*
D15*
X5715000Y-54610000D03*
D16*
X9525000Y-57150000D03*
D15*
X12065000Y-52070000D03*
D18*
X21000000Y-70180000D03*
D19*
X21000000Y-72720000D03*
X21000000Y-75260000D03*
D20*
X21000000Y-77800000D03*
D21*
X263900000Y-75250000D03*
D22*
G36*
X264674820Y-76451603D02*
G01*
X264707126Y-76456395D01*
X264738807Y-76464330D01*
X264769557Y-76475333D01*
X264799081Y-76489297D01*
X264827094Y-76506087D01*
X264853326Y-76525542D01*
X264877525Y-76547475D01*
X264899458Y-76571674D01*
X264918913Y-76597906D01*
X264935703Y-76625919D01*
X264949667Y-76655443D01*
X264960670Y-76686193D01*
X264968605Y-76717874D01*
X264973397Y-76750180D01*
X264975000Y-76782800D01*
X264975000Y-77717200D01*
X264973397Y-77749820D01*
X264968605Y-77782126D01*
X264960670Y-77813807D01*
X264949667Y-77844557D01*
X264935703Y-77874081D01*
X264918913Y-77902094D01*
X264899458Y-77928326D01*
X264877525Y-77952525D01*
X264853326Y-77974458D01*
X264827094Y-77993913D01*
X264799081Y-78010703D01*
X264769557Y-78024667D01*
X264738807Y-78035670D01*
X264707126Y-78043605D01*
X264674820Y-78048397D01*
X264642200Y-78050000D01*
X263157800Y-78050000D01*
X263125180Y-78048397D01*
X263092874Y-78043605D01*
X263061193Y-78035670D01*
X263030443Y-78024667D01*
X263000919Y-78010703D01*
X262972906Y-77993913D01*
X262946674Y-77974458D01*
X262922475Y-77952525D01*
X262900542Y-77928326D01*
X262881087Y-77902094D01*
X262864297Y-77874081D01*
X262850333Y-77844557D01*
X262839330Y-77813807D01*
X262831395Y-77782126D01*
X262826603Y-77749820D01*
X262825000Y-77717200D01*
X262825000Y-76782800D01*
X262826603Y-76750180D01*
X262831395Y-76717874D01*
X262839330Y-76686193D01*
X262850333Y-76655443D01*
X262864297Y-76625919D01*
X262881087Y-76597906D01*
X262900542Y-76571674D01*
X262922475Y-76547475D01*
X262946674Y-76525542D01*
X262972906Y-76506087D01*
X263000919Y-76489297D01*
X263030443Y-76475333D01*
X263061193Y-76464330D01*
X263092874Y-76456395D01*
X263125180Y-76451603D01*
X263157800Y-76450000D01*
X264642200Y-76450000D01*
X264674820Y-76451603D01*
X264674820Y-76451603D01*
G37*
D14*
X263900000Y-77250000D03*
D21*
X13500000Y-77250000D03*
D22*
G36*
X14274820Y-74451603D02*
G01*
X14307126Y-74456395D01*
X14338807Y-74464330D01*
X14369557Y-74475333D01*
X14399081Y-74489297D01*
X14427094Y-74506087D01*
X14453326Y-74525542D01*
X14477525Y-74547475D01*
X14499458Y-74571674D01*
X14518913Y-74597906D01*
X14535703Y-74625919D01*
X14549667Y-74655443D01*
X14560670Y-74686193D01*
X14568605Y-74717874D01*
X14573397Y-74750180D01*
X14575000Y-74782800D01*
X14575000Y-75717200D01*
X14573397Y-75749820D01*
X14568605Y-75782126D01*
X14560670Y-75813807D01*
X14549667Y-75844557D01*
X14535703Y-75874081D01*
X14518913Y-75902094D01*
X14499458Y-75928326D01*
X14477525Y-75952525D01*
X14453326Y-75974458D01*
X14427094Y-75993913D01*
X14399081Y-76010703D01*
X14369557Y-76024667D01*
X14338807Y-76035670D01*
X14307126Y-76043605D01*
X14274820Y-76048397D01*
X14242200Y-76050000D01*
X12757800Y-76050000D01*
X12725180Y-76048397D01*
X12692874Y-76043605D01*
X12661193Y-76035670D01*
X12630443Y-76024667D01*
X12600919Y-76010703D01*
X12572906Y-75993913D01*
X12546674Y-75974458D01*
X12522475Y-75952525D01*
X12500542Y-75928326D01*
X12481087Y-75902094D01*
X12464297Y-75874081D01*
X12450333Y-75844557D01*
X12439330Y-75813807D01*
X12431395Y-75782126D01*
X12426603Y-75749820D01*
X12425000Y-75717200D01*
X12425000Y-74782800D01*
X12426603Y-74750180D01*
X12431395Y-74717874D01*
X12439330Y-74686193D01*
X12450333Y-74655443D01*
X12464297Y-74625919D01*
X12481087Y-74597906D01*
X12500542Y-74571674D01*
X12522475Y-74547475D01*
X12546674Y-74525542D01*
X12572906Y-74506087D01*
X12600919Y-74489297D01*
X12630443Y-74475333D01*
X12661193Y-74464330D01*
X12692874Y-74456395D01*
X12725180Y-74451603D01*
X12757800Y-74450000D01*
X14242200Y-74450000D01*
X14274820Y-74451603D01*
X14274820Y-74451603D01*
G37*
D14*
X13500000Y-75250000D03*
D23*
X149515167Y-80294245D03*
X150047871Y-81447123D03*
X151645984Y-84905755D03*
X151113280Y-83752878D03*
X150580575Y-82600000D03*
X144050000Y-53147981D03*
X144050000Y-54417981D03*
X144050000Y-58227981D03*
X144050000Y-56957981D03*
X144050000Y-55687981D03*
X144050000Y-26703750D03*
X144050000Y-27973750D03*
X144050000Y-31783750D03*
X144050000Y-30513750D03*
X144050000Y-29243750D03*
X125754016Y-84905755D03*
X126286720Y-83752878D03*
X127884833Y-80294245D03*
X127352129Y-81447123D03*
X126819425Y-82600000D03*
X133350000Y-58227981D03*
X133350000Y-56957981D03*
X133350000Y-53147981D03*
X133350000Y-54417981D03*
X133350000Y-55687981D03*
X133350000Y-31783750D03*
X133350000Y-30513750D03*
X133350000Y-26703750D03*
X133350000Y-27973750D03*
X133350000Y-29243750D03*
D14*
X12500000Y-67300000D03*
X14500000Y-67300000D03*
X10500000Y-67300000D03*
D18*
X256400000Y-70180000D03*
D19*
X256400000Y-72720000D03*
X256400000Y-75260000D03*
D20*
X256400000Y-77800000D03*
D17*
X272955000Y-57150000D03*
X262795000Y-57150000D03*
D15*
X264065000Y-54610000D03*
D16*
X267875000Y-57150000D03*
D15*
X270415000Y-52070000D03*
D17*
X128905000Y-45243750D03*
X118745000Y-45243750D03*
D15*
X120015000Y-42703750D03*
D16*
X123825000Y-45243750D03*
D15*
X126365000Y-40163750D03*
D17*
X185151074Y-73706366D03*
X175292870Y-76164292D03*
D15*
X175910664Y-73392500D03*
D16*
X180221972Y-74935329D03*
D15*
X181457560Y-69391745D03*
D17*
X14605000Y-19050000D03*
X4445000Y-19050000D03*
D15*
X5715000Y-16510000D03*
D16*
X9525000Y-19050000D03*
D15*
X12065000Y-13970000D03*
D17*
X33655000Y-19050000D03*
X23495000Y-19050000D03*
D15*
X24765000Y-16510000D03*
D16*
X28575000Y-19050000D03*
D15*
X31115000Y-13970000D03*
D17*
X90805000Y-14287499D03*
X80645000Y-14287499D03*
D15*
X81915000Y-11747499D03*
D16*
X85725000Y-14287499D03*
D15*
X88265000Y-9207499D03*
D17*
X109855000Y-16668750D03*
X99695000Y-16668750D03*
D15*
X100965000Y-14128750D03*
D16*
X104775000Y-16668750D03*
D15*
X107315000Y-11588750D03*
D17*
X14605000Y-38100000D03*
X4445000Y-38100000D03*
D15*
X5715000Y-35560000D03*
D16*
X9525000Y-38100000D03*
D15*
X12065000Y-33020000D03*
D17*
X33655000Y-38100000D03*
X23495000Y-38100000D03*
D15*
X24765000Y-35560000D03*
D16*
X28575000Y-38100000D03*
D15*
X31115000Y-33020000D03*
D17*
X52705000Y-32146875D03*
X42545000Y-32146875D03*
D15*
X43815000Y-29606875D03*
D16*
X47625000Y-32146875D03*
D15*
X50165000Y-27066875D03*
D17*
X71755000Y-28575000D03*
X61595000Y-28575000D03*
D15*
X62865000Y-26035000D03*
D16*
X66675000Y-28575000D03*
D15*
X69215000Y-23495000D03*
D17*
X90805000Y-33337500D03*
X80645000Y-33337500D03*
D15*
X81915000Y-30797500D03*
D16*
X85725000Y-33337500D03*
D15*
X88265000Y-28257500D03*
D17*
X109855000Y-35718750D03*
X99695000Y-35718750D03*
D15*
X100965000Y-33178750D03*
D16*
X104775000Y-35718750D03*
D15*
X107315000Y-30638750D03*
D17*
X128905000Y-26193750D03*
X118745000Y-26193750D03*
D15*
X120015000Y-23653750D03*
D16*
X123825000Y-26193750D03*
D15*
X126365000Y-21113750D03*
D17*
X33655000Y-57150000D03*
X23495000Y-57150000D03*
D15*
X24765000Y-54610000D03*
D16*
X28575000Y-57150000D03*
D15*
X31115000Y-52070000D03*
D17*
X71755000Y-47625000D03*
X61595000Y-47625000D03*
D15*
X62865000Y-45085000D03*
D16*
X66675000Y-47625000D03*
D15*
X69215000Y-42545000D03*
D17*
X90805000Y-52387500D03*
X80645000Y-52387500D03*
D15*
X81915000Y-49847500D03*
D16*
X85725000Y-52387500D03*
D15*
X88265000Y-47307500D03*
D17*
X109855000Y-54768750D03*
X99695000Y-54768750D03*
D15*
X100965000Y-52228750D03*
D16*
X104775000Y-54768750D03*
D15*
X107315000Y-49688750D03*
D17*
X102107129Y-76164292D03*
X92248925Y-73706366D03*
D15*
X94095682Y-71549055D03*
D16*
X97178027Y-74935329D03*
D15*
X100871541Y-70620708D03*
D17*
X272955000Y-19050000D03*
X262795000Y-19050000D03*
D15*
X264065000Y-16510000D03*
D16*
X267875000Y-19050000D03*
D15*
X270415000Y-13970000D03*
D17*
X253905000Y-19050000D03*
X243745000Y-19050000D03*
D15*
X245015000Y-16510000D03*
D16*
X248825000Y-19050000D03*
D15*
X251365000Y-13970000D03*
D17*
X234855000Y-13096875D03*
X224695000Y-13096875D03*
D15*
X225965000Y-10556875D03*
D16*
X229775000Y-13096875D03*
D15*
X232315000Y-8016875D03*
D17*
X215805000Y-9525000D03*
X205645000Y-9525000D03*
D15*
X206915000Y-6985000D03*
D16*
X210725000Y-9525000D03*
D15*
X213265000Y-4445000D03*
D17*
X196755000Y-14287499D03*
X186595000Y-14287499D03*
D15*
X187865000Y-11747499D03*
D16*
X191675000Y-14287499D03*
D15*
X194215000Y-9207499D03*
D17*
X177705000Y-16668750D03*
X167545000Y-16668750D03*
D15*
X168815000Y-14128750D03*
D16*
X172625000Y-16668750D03*
D15*
X175165000Y-11588750D03*
D17*
X272955000Y-38100000D03*
X262795000Y-38100000D03*
D15*
X264065000Y-35560000D03*
D16*
X267875000Y-38100000D03*
D15*
X270415000Y-33020000D03*
D17*
X253905000Y-38100000D03*
X243745000Y-38100000D03*
D15*
X245015000Y-35560000D03*
D16*
X248825000Y-38100000D03*
D15*
X251365000Y-33020000D03*
D17*
X234855000Y-32146875D03*
X224695000Y-32146875D03*
D15*
X225965000Y-29606875D03*
D16*
X229775000Y-32146875D03*
D15*
X232315000Y-27066875D03*
D17*
X215805000Y-28575000D03*
X205645000Y-28575000D03*
D15*
X206915000Y-26035000D03*
D16*
X210725000Y-28575000D03*
D15*
X213265000Y-23495000D03*
D17*
X196755000Y-33337500D03*
X186595000Y-33337500D03*
D15*
X187865000Y-30797500D03*
D16*
X191675000Y-33337500D03*
D15*
X194215000Y-28257500D03*
D17*
X177705000Y-35718750D03*
X167545000Y-35718750D03*
D15*
X168815000Y-33178750D03*
D16*
X172625000Y-35718750D03*
D15*
X175165000Y-30638750D03*
D17*
X158655000Y-26193750D03*
X148495000Y-26193750D03*
D15*
X149765000Y-23653750D03*
D16*
X153575000Y-26193750D03*
D15*
X156115000Y-21113750D03*
D17*
X234855000Y-51196875D03*
X224695000Y-51196875D03*
D15*
X225965000Y-48656875D03*
D16*
X229775000Y-51196875D03*
D15*
X232315000Y-46116875D03*
D17*
X215805000Y-47625000D03*
X205645000Y-47625000D03*
D15*
X206915000Y-45085000D03*
D16*
X210725000Y-47625000D03*
D15*
X213265000Y-42545000D03*
D17*
X196755000Y-52387500D03*
X186595000Y-52387500D03*
D15*
X187865000Y-49847500D03*
D16*
X191675000Y-52387500D03*
D15*
X194215000Y-47307500D03*
D17*
X177705000Y-54768750D03*
X167545000Y-54768750D03*
D15*
X168815000Y-52228750D03*
D16*
X172625000Y-54768750D03*
D15*
X175165000Y-49688750D03*
D17*
X158655000Y-45243750D03*
X148495000Y-45243750D03*
D15*
X149765000Y-42703750D03*
D16*
X153575000Y-45243750D03*
D15*
X156115000Y-40163750D03*
D17*
X52705000Y-13096875D03*
X42545000Y-13096875D03*
D15*
X43815000Y-10556875D03*
D16*
X47625000Y-13096875D03*
D15*
X50165000Y-8016875D03*
D17*
X71755000Y-9525000D03*
X61595000Y-9525000D03*
D15*
X62865000Y-6985000D03*
D16*
X66675000Y-9525000D03*
D15*
X69215000Y-4445000D03*
D17*
X79678221Y-71794564D03*
X69558443Y-70891398D03*
D15*
X71049207Y-68474349D03*
D16*
X74618332Y-71342981D03*
D15*
X77599859Y-66508884D03*
D17*
X232473750Y-70246875D03*
X222313750Y-70246875D03*
D15*
X223583750Y-67706875D03*
D16*
X227393750Y-70246875D03*
D15*
X229933750Y-65166875D03*
D17*
X207841556Y-70891398D03*
X197721778Y-71794564D03*
D15*
X198760959Y-69151724D03*
D16*
X202781667Y-71342981D03*
D15*
X204860028Y-66057301D03*
D17*
X120848948Y-72841079D03*
X116603418Y-82071523D03*
D15*
X114826499Y-79856335D03*
D16*
X118726183Y-77456301D03*
D15*
X115172344Y-73025925D03*
M02*
