G04 #@! TF.GenerationSoftware,KiCad,Pcbnew,(5.1.4)-1*
G04 #@! TF.CreationDate,2019-08-26T22:01:24+09:00*
G04 #@! TF.ProjectId,caravelle,63617261-7665-46c6-9c65-2e6b69636164,rev?*
G04 #@! TF.SameCoordinates,PX2faf080PY2faf080*
G04 #@! TF.FileFunction,Profile,NP*
%FSLAX46Y46*%
G04 Gerber Fmt 4.6, Leading zero omitted, Abs format (unit mm)*
G04 Created by KiCad (PCBNEW (5.1.4)-1) date 2019-08-26 22:01:24*
%MOMM*%
%LPD*%
G04 APERTURE LIST*
%ADD10C,0.200000*%
%ADD11C,0.150000*%
G04 APERTURE END LIST*
D10*
X133350000Y-33293750D02*
G75*
G02X134350000Y-32293750I1000000J0D01*
G01*
X143050000Y-32293750D02*
X134350000Y-32293750D01*
X143050001Y-32293750D02*
G75*
G02X144049999Y-33293750I-1J-999999D01*
G01*
X144050000Y-51612225D02*
X144049999Y-33293750D01*
X144050000Y-51612225D02*
G75*
G02X143050000Y-52612225I-1000000J0D01*
G01*
X134350000Y-52612225D02*
X143050000Y-52612225D01*
X134350000Y-52612225D02*
G75*
G02X133350000Y-51612225I0J1000000D01*
G01*
X133350000Y-33293750D02*
X133350000Y-51612225D01*
X133350000Y-68237225D02*
G75*
G02X133258508Y-68655092I-1000000J0D01*
G01*
X133350000Y-59712225D02*
X133350000Y-68237225D01*
X133350000Y-59712225D02*
G75*
G02X134350000Y-58712225I1000000J0D01*
G01*
X143050000Y-58712225D02*
X134350000Y-58712225D01*
X143050000Y-58712226D02*
G75*
G02X144049999Y-59712225I0J-999999D01*
G01*
X144050000Y-68237225D02*
X144049999Y-59712225D01*
X144141492Y-68655092D02*
G75*
G02X144050000Y-68237225I908508J417867D01*
G01*
X148809232Y-78803488D02*
X144141491Y-68655092D01*
X148809232Y-78803488D02*
G75*
G02X147900724Y-80221355I-908508J-417867D01*
G01*
X129499275Y-80221355D02*
X147900724Y-80221355D01*
X129499275Y-80221355D02*
G75*
G02X128590767Y-78803488I0J1000000D01*
G01*
X133258508Y-68655092D02*
X128590767Y-78803488D01*
X156899059Y-93998928D02*
G75*
G02X155572684Y-93508287I-417867J908508D01*
G01*
X173108444Y-86543445D02*
X156899059Y-93998929D01*
X173108444Y-86543445D02*
G75*
G02X173284389Y-86481657I417867J-908508D01*
G01*
X191594987Y-81916312D02*
X173284389Y-86481657D01*
X191594986Y-81916312D02*
G75*
G02X191748014Y-81890567I241923J-970296D01*
G01*
X215443141Y-79775833D02*
X191748014Y-81890567D01*
X215443141Y-79775833D02*
G75*
G02X215532035Y-79771874I88894J-996041D01*
G01*
X271700000Y-79771875D02*
X215532035Y-79771874D01*
X272700000Y-78771875D02*
G75*
G02X271700000Y-79771875I-1000000J0D01*
G01*
X272700000Y-69771874D02*
X272700000Y-78771875D01*
X272700000Y-69771874D02*
G75*
G02X273700000Y-68771874I1000000J0D01*
G01*
X276400000Y-68771874D02*
X273700000Y-68771874D01*
X277400000Y-67771874D02*
G75*
G02X276400000Y-68771874I-1000000J0D01*
G01*
X277400000Y-10524999D02*
X277400000Y-67771874D01*
X276399999Y-9525000D02*
G75*
G02X277400000Y-10524999I1J-1000000D01*
G01*
X240300000Y-9525000D02*
X276400000Y-9525000D01*
X240300000Y-9525000D02*
G75*
G02X239300000Y-8525000I0J1000000D01*
G01*
X239300000Y-4571875D02*
X239300000Y-8525000D01*
X238299999Y-3571874D02*
G75*
G02X239300000Y-4571875I0J-1000001D01*
G01*
X221250000Y-3571875D02*
X238300000Y-3571874D01*
X221250000Y-3571875D02*
G75*
G02X220250000Y-2571875I0J1000000D01*
G01*
X220250000Y-1000000D02*
X220250000Y-2571875D01*
X219250000Y0D02*
G75*
G02X220250000Y-1000000I0J-1000000D01*
G01*
X202200000Y0D02*
X219250000Y0D01*
X201200000Y-1000000D02*
G75*
G02X202200000Y0I1000000J0D01*
G01*
X201200000Y-3762499D02*
X201200000Y-1000000D01*
X201199999Y-3762500D02*
G75*
G02X200200000Y-4762499I-999999J0D01*
G01*
X183150000Y-4762500D02*
X200200000Y-4762499D01*
X182150001Y-5762499D02*
G75*
G02X183150000Y-4762500I999999J0D01*
G01*
X182150000Y-6143750D02*
X182150000Y-5762500D01*
X182150000Y-6143750D02*
G75*
G02X181150000Y-7143750I-1000000J0D01*
G01*
X164100000Y-7143750D02*
X181150000Y-7143750D01*
X163100000Y-8143750D02*
G75*
G02X164100000Y-7143750I1000000J0D01*
G01*
X163100000Y-15668750D02*
X163100000Y-8143750D01*
X163100000Y-15668749D02*
G75*
G02X162100000Y-16668749I-1000000J0D01*
G01*
X145050000Y-16668750D02*
X162100000Y-16668749D01*
X144050001Y-17668749D02*
G75*
G02X145050000Y-16668750I999999J0D01*
G01*
X144050000Y-25193750D02*
X144050000Y-17668750D01*
X144050000Y-25193750D02*
G75*
G02X143050000Y-26193750I-1000000J0D01*
G01*
X134350000Y-26193750D02*
X143050000Y-26193750D01*
X134350000Y-26193750D02*
G75*
G02X133350000Y-25193750I0J1000000D01*
G01*
X133350000Y-17668750D02*
X133350000Y-25193750D01*
X132350000Y-16668750D02*
G75*
G02X133350000Y-17668750I0J-1000000D01*
G01*
X115300000Y-16668750D02*
X132350000Y-16668749D01*
X115300000Y-16668750D02*
G75*
G02X114300000Y-15668750I0J1000000D01*
G01*
X114300000Y-8143750D02*
X114300000Y-15668750D01*
X113300000Y-7143750D02*
G75*
G02X114300000Y-8143750I0J-1000000D01*
G01*
X96250000Y-7143750D02*
X113300000Y-7143750D01*
X96250000Y-7143750D02*
G75*
G02X95250000Y-6143750I0J1000000D01*
G01*
X95250000Y-5762500D02*
X95250000Y-6143750D01*
X94249999Y-4762499D02*
G75*
G02X95250000Y-5762500I0J-1000001D01*
G01*
X77200000Y-4762499D02*
X94249999Y-4762499D01*
X77200000Y-4762499D02*
G75*
G02X76200000Y-3762499I0J1000000D01*
G01*
X76200000Y-1000000D02*
X76200000Y-3762499D01*
X75200000Y0D02*
G75*
G02X76200000Y-1000000I0J-1000000D01*
G01*
X58149999Y0D02*
X75200000Y0D01*
X57149999Y-1000000D02*
G75*
G02X58149999Y0I1000000J0D01*
G01*
X57150000Y-2571875D02*
X57150000Y-1000000D01*
X57150000Y-2571875D02*
G75*
G02X56150000Y-3571875I-1000000J0D01*
G01*
X39100000Y-3571875D02*
X56150000Y-3571875D01*
X38100000Y-4571875D02*
G75*
G02X39100000Y-3571875I1000000J0D01*
G01*
X38100000Y-8525000D02*
X38100000Y-4571875D01*
X38100000Y-8525000D02*
G75*
G02X37100000Y-9525000I-1000000J0D01*
G01*
X1000000Y-9524999D02*
X37100000Y-9525000D01*
X0Y-10524999D02*
G75*
G02X1000000Y-9524999I1000000J0D01*
G01*
X0Y-67771874D02*
X0Y-10524999D01*
X1000000Y-68771874D02*
G75*
G02X0Y-67771874I0J1000000D01*
G01*
X3700000Y-68771874D02*
X1000000Y-68771874D01*
X3700000Y-68771874D02*
G75*
G02X4700000Y-69771874I0J-1000000D01*
G01*
X4699999Y-78771875D02*
X4700000Y-69771874D01*
X5699999Y-79771875D02*
G75*
G02X4699999Y-78771875I0J1000000D01*
G01*
X61867964Y-79771874D02*
X5699999Y-79771875D01*
X61867964Y-79771874D02*
G75*
G02X61956858Y-79775833I0J-1000000D01*
G01*
X85651985Y-81890567D02*
X61956858Y-79775833D01*
X85651984Y-81890567D02*
G75*
G02X85805012Y-81916312I-88894J-996041D01*
G01*
X104115610Y-86481657D02*
X85805012Y-81916312D01*
X104115610Y-86481657D02*
G75*
G02X104291555Y-86543445I-241922J-970296D01*
G01*
X120500940Y-93998929D02*
X104291555Y-86543445D01*
X121827316Y-93508287D02*
G75*
G02X120500940Y-93998929I-908509J417867D01*
G01*
X125121881Y-86345388D02*
X121827315Y-93508287D01*
X125121881Y-86345388D02*
G75*
G02X126030389Y-85763255I908508J-417867D01*
G01*
X151369610Y-85763255D02*
X126030389Y-85763255D01*
X151369610Y-85763255D02*
G75*
G02X152278118Y-86345388I0J-1000000D01*
G01*
X155572684Y-93508287D02*
X152278118Y-86345388D01*
D11*
X1666666Y0D02*
G75*
G03X1666666Y0I-1666666J0D01*
G01*
X-2500000Y0D02*
X2500000Y0D01*
X0Y2500000D02*
X0Y-2500000D01*
M02*
