G04 #@! TF.GenerationSoftware,KiCad,Pcbnew,(5.1.4)-1*
G04 #@! TF.CreationDate,2019-08-26T22:01:24+09:00*
G04 #@! TF.ProjectId,caravelle,63617261-7665-46c6-9c65-2e6b69636164,rev?*
G04 #@! TF.SameCoordinates,PX2faf080PY2faf080*
G04 #@! TF.FileFunction,Legend,Top*
G04 #@! TF.FilePolarity,Positive*
%FSLAX46Y46*%
G04 Gerber Fmt 4.6, Leading zero omitted, Abs format (unit mm)*
G04 Created by KiCad (PCBNEW (5.1.4)-1) date 2019-08-26 22:01:24*
%MOMM*%
%LPD*%
G04 APERTURE LIST*
%ADD10C,0.120000*%
%ADD11C,0.500000*%
%ADD12C,0.150000*%
%ADD13C,4.387800*%
%ADD14C,2.150000*%
%ADD15R,2.100000X2.100000*%
%ADD16O,2.100000X2.100000*%
%ADD17C,2.100000*%
%ADD18R,1.600000X0.900000*%
%ADD19R,0.900000X1.600000*%
%ADD20R,1.650000X1.250000*%
%ADD21C,0.100000*%
%ADD22C,1.350000*%
%ADD23O,2.150000X1.600000*%
%ADD24C,1.600000*%
%ADD25R,1.600000X1.300000*%
%ADD26R,1.460000X1.050000*%
%ADD27C,1.187400*%
G04 APERTURE END LIST*
D10*
X22270000Y-79070000D02*
X21000000Y-79070000D01*
X22270000Y-77800000D02*
X22270000Y-79070000D01*
X37257000Y-65327000D02*
X36368000Y-65327000D01*
X26843000Y-65581000D02*
X26843000Y-65327000D01*
X26843000Y-65327000D02*
X27732000Y-65327000D01*
X37257000Y-65327000D02*
X37257000Y-65581000D01*
X26843000Y-79551000D02*
X26843000Y-78027000D01*
X26843000Y-78027000D02*
X26208000Y-78027000D01*
X26208000Y-78027000D02*
X26208000Y-77138000D01*
X37257000Y-74979000D02*
X37257000Y-79551000D01*
X274300000Y-64550000D02*
X269900000Y-64550000D01*
X269900000Y-64550000D02*
X269900000Y-64670000D01*
X269900000Y-65680000D02*
X269900000Y-66820000D01*
X269900000Y-67830000D02*
X269900000Y-67950000D01*
X269900000Y-67950000D02*
X274300000Y-67950000D01*
X274300000Y-67950000D02*
X274300000Y-67830000D01*
X274300000Y-66820000D02*
X274300000Y-65680000D01*
X274300000Y-64670000D02*
X274300000Y-64550000D01*
X3100000Y-67950000D02*
X7500000Y-67950000D01*
X7500000Y-67950000D02*
X7500000Y-67830000D01*
X7500000Y-66820000D02*
X7500000Y-65680000D01*
X7500000Y-64670000D02*
X7500000Y-64550000D01*
X7500000Y-64550000D02*
X3100000Y-64550000D01*
X3100000Y-64550000D02*
X3100000Y-64670000D01*
X3100000Y-65680000D02*
X3100000Y-66820000D01*
X3100000Y-67830000D02*
X3100000Y-67950000D01*
X250557000Y-65327000D02*
X249668000Y-65327000D01*
X240143000Y-65581000D02*
X240143000Y-65327000D01*
X240143000Y-65327000D02*
X241032000Y-65327000D01*
X250557000Y-65327000D02*
X250557000Y-65581000D01*
X240143000Y-79551000D02*
X240143000Y-78027000D01*
X240143000Y-78027000D02*
X239508000Y-78027000D01*
X239508000Y-78027000D02*
X239508000Y-77138000D01*
X250557000Y-74979000D02*
X250557000Y-79551000D01*
X268090000Y-70228733D02*
X268090000Y-70571267D01*
X269110000Y-70228733D02*
X269110000Y-70571267D01*
X8290000Y-70228733D02*
X8290000Y-70571267D01*
X9310000Y-70228733D02*
X9310000Y-70571267D01*
X264040000Y-78110000D02*
X262825000Y-78110000D01*
X268000000Y-78050000D02*
X270260000Y-78050000D01*
X268000000Y-77550000D02*
X270260000Y-77550000D01*
X266400000Y-74950000D02*
X266400000Y-73950000D01*
X268000000Y-74950000D02*
X266400000Y-74950000D01*
X268000000Y-73950000D02*
X268000000Y-74950000D01*
X266400000Y-73950000D02*
X268000000Y-73950000D01*
X266400000Y-77550000D02*
X266400000Y-78550000D01*
X268000000Y-77550000D02*
X266400000Y-77550000D01*
X268000000Y-78550000D02*
X268000000Y-77550000D01*
X266400000Y-78550000D02*
X268000000Y-78550000D01*
X264040000Y-73190000D02*
X264040000Y-74110000D01*
X264040000Y-79310000D02*
X264040000Y-78390000D01*
X265900000Y-75750000D02*
X270260000Y-75750000D01*
X265900000Y-76750000D02*
X265900000Y-75750000D01*
X270260000Y-76750000D02*
X265900000Y-76750000D01*
X264040000Y-74110000D02*
X264040000Y-74390000D01*
X262440000Y-74110000D02*
X264040000Y-74110000D01*
X262440000Y-73190000D02*
X262440000Y-74110000D01*
X270260000Y-73190000D02*
X262440000Y-73190000D01*
X270260000Y-79310000D02*
X270260000Y-73190000D01*
X262440000Y-79310000D02*
X270260000Y-79310000D01*
X262440000Y-78390000D02*
X262440000Y-79310000D01*
X264040000Y-78390000D02*
X262440000Y-78390000D01*
X264040000Y-78110000D02*
X264040000Y-78390000D01*
X13360000Y-74390000D02*
X14575000Y-74390000D01*
X9400000Y-74450000D02*
X7140000Y-74450000D01*
X9400000Y-74950000D02*
X7140000Y-74950000D01*
X11000000Y-77550000D02*
X11000000Y-78550000D01*
X9400000Y-77550000D02*
X11000000Y-77550000D01*
X9400000Y-78550000D02*
X9400000Y-77550000D01*
X11000000Y-78550000D02*
X9400000Y-78550000D01*
X11000000Y-74950000D02*
X11000000Y-73950000D01*
X9400000Y-74950000D02*
X11000000Y-74950000D01*
X9400000Y-73950000D02*
X9400000Y-74950000D01*
X11000000Y-73950000D02*
X9400000Y-73950000D01*
X13360000Y-79310000D02*
X13360000Y-78390000D01*
X13360000Y-73190000D02*
X13360000Y-74110000D01*
X11500000Y-76750000D02*
X7140000Y-76750000D01*
X11500000Y-75750000D02*
X11500000Y-76750000D01*
X7140000Y-75750000D02*
X11500000Y-75750000D01*
X13360000Y-78390000D02*
X13360000Y-78110000D01*
X14960000Y-78390000D02*
X13360000Y-78390000D01*
X14960000Y-79310000D02*
X14960000Y-78390000D01*
X7140000Y-79310000D02*
X14960000Y-79310000D01*
X7140000Y-73190000D02*
X7140000Y-79310000D01*
X14960000Y-73190000D02*
X7140000Y-73190000D01*
X14960000Y-74110000D02*
X14960000Y-73190000D01*
X13360000Y-74110000D02*
X14960000Y-74110000D01*
X13360000Y-74390000D02*
X13360000Y-74110000D01*
X261200000Y-74150000D02*
X261200000Y-78050000D01*
X259200000Y-74150000D02*
X259200000Y-78050000D01*
X261200000Y-74150000D02*
X259200000Y-74150000D01*
X272000000Y-68500000D02*
X272000000Y-72400000D01*
X270000000Y-68500000D02*
X270000000Y-72400000D01*
X272000000Y-68500000D02*
X270000000Y-68500000D01*
X18200000Y-74150000D02*
X16200000Y-74150000D01*
X16200000Y-74150000D02*
X16200000Y-78050000D01*
X18200000Y-74150000D02*
X18200000Y-78050000D01*
X7400000Y-68500000D02*
X7400000Y-72400000D01*
X5400000Y-68500000D02*
X5400000Y-72400000D01*
X7400000Y-68500000D02*
X5400000Y-68500000D01*
X260110000Y-70571267D02*
X260110000Y-70228733D01*
X259090000Y-70571267D02*
X259090000Y-70228733D01*
X265890000Y-70228733D02*
X265890000Y-70571267D01*
X266910000Y-70228733D02*
X266910000Y-70571267D01*
X17290000Y-70228733D02*
X17290000Y-70571267D01*
X18310000Y-70228733D02*
X18310000Y-70571267D01*
X10490000Y-70228733D02*
X10490000Y-70571267D01*
X11510000Y-70228733D02*
X11510000Y-70571267D01*
X249428733Y-64310000D02*
X249771267Y-64310000D01*
X249428733Y-63290000D02*
X249771267Y-63290000D01*
X36028733Y-64310000D02*
X36371267Y-64310000D01*
X36028733Y-63290000D02*
X36371267Y-63290000D01*
X13500000Y-72010000D02*
X15300000Y-72010000D01*
X15300000Y-68790000D02*
X12850000Y-68790000D01*
X257670000Y-79070000D02*
X256400000Y-79070000D01*
X257670000Y-77800000D02*
X257670000Y-79070000D01*
X262100000Y-72010000D02*
X264550000Y-72010000D01*
X263900000Y-68790000D02*
X262100000Y-68790000D01*
D11*
X161247619Y-64585714D02*
X161009523Y-64823809D01*
X160295238Y-65061904D01*
X159819047Y-65061904D01*
X159104761Y-64823809D01*
X158628571Y-64347619D01*
X158390476Y-63871428D01*
X158152380Y-62919047D01*
X158152380Y-62204761D01*
X158390476Y-61252380D01*
X158628571Y-60776190D01*
X159104761Y-60300000D01*
X159819047Y-60061904D01*
X160295238Y-60061904D01*
X161009523Y-60300000D01*
X161247619Y-60538095D01*
X163152380Y-63633333D02*
X165533333Y-63633333D01*
X162676190Y-65061904D02*
X164342857Y-60061904D01*
X166009523Y-65061904D01*
X170533333Y-65061904D02*
X168866666Y-62680952D01*
X167676190Y-65061904D02*
X167676190Y-60061904D01*
X169580952Y-60061904D01*
X170057142Y-60300000D01*
X170295238Y-60538095D01*
X170533333Y-61014285D01*
X170533333Y-61728571D01*
X170295238Y-62204761D01*
X170057142Y-62442857D01*
X169580952Y-62680952D01*
X167676190Y-62680952D01*
X172438095Y-63633333D02*
X174819047Y-63633333D01*
X171961904Y-65061904D02*
X173628571Y-60061904D01*
X175295238Y-65061904D01*
X176247619Y-60061904D02*
X177914285Y-65061904D01*
X179580952Y-60061904D01*
X181247619Y-62442857D02*
X182914285Y-62442857D01*
X183628571Y-65061904D02*
X181247619Y-65061904D01*
X181247619Y-60061904D01*
X183628571Y-60061904D01*
X188152380Y-65061904D02*
X185771428Y-65061904D01*
X185771428Y-60061904D01*
X192200000Y-65061904D02*
X189819047Y-65061904D01*
X189819047Y-60061904D01*
X193866666Y-62442857D02*
X195533333Y-62442857D01*
X196247619Y-65061904D02*
X193866666Y-65061904D01*
X193866666Y-60061904D01*
X196247619Y-60061904D01*
X84247619Y-64585714D02*
X84009523Y-64823809D01*
X83295238Y-65061904D01*
X82819047Y-65061904D01*
X82104761Y-64823809D01*
X81628571Y-64347619D01*
X81390476Y-63871428D01*
X81152380Y-62919047D01*
X81152380Y-62204761D01*
X81390476Y-61252380D01*
X81628571Y-60776190D01*
X82104761Y-60300000D01*
X82819047Y-60061904D01*
X83295238Y-60061904D01*
X84009523Y-60300000D01*
X84247619Y-60538095D01*
X86152380Y-63633333D02*
X88533333Y-63633333D01*
X85676190Y-65061904D02*
X87342857Y-60061904D01*
X89009523Y-65061904D01*
X93533333Y-65061904D02*
X91866666Y-62680952D01*
X90676190Y-65061904D02*
X90676190Y-60061904D01*
X92580952Y-60061904D01*
X93057142Y-60300000D01*
X93295238Y-60538095D01*
X93533333Y-61014285D01*
X93533333Y-61728571D01*
X93295238Y-62204761D01*
X93057142Y-62442857D01*
X92580952Y-62680952D01*
X90676190Y-62680952D01*
X95438095Y-63633333D02*
X97819047Y-63633333D01*
X94961904Y-65061904D02*
X96628571Y-60061904D01*
X98295238Y-65061904D01*
X99247619Y-60061904D02*
X100914285Y-65061904D01*
X102580952Y-60061904D01*
X104247619Y-62442857D02*
X105914285Y-62442857D01*
X106628571Y-65061904D02*
X104247619Y-65061904D01*
X104247619Y-60061904D01*
X106628571Y-60061904D01*
X111152380Y-65061904D02*
X108771428Y-65061904D01*
X108771428Y-60061904D01*
X115200000Y-65061904D02*
X112819047Y-65061904D01*
X112819047Y-60061904D01*
X116866666Y-62442857D02*
X118533333Y-62442857D01*
X119247619Y-65061904D02*
X116866666Y-65061904D01*
X116866666Y-60061904D01*
X119247619Y-60061904D01*
D12*
X22357380Y-74323333D02*
X23071666Y-74323333D01*
X23214523Y-74370952D01*
X23309761Y-74466190D01*
X23357380Y-74609047D01*
X23357380Y-74704285D01*
X23357380Y-73323333D02*
X23357380Y-73894761D01*
X23357380Y-73609047D02*
X22357380Y-73609047D01*
X22500238Y-73704285D01*
X22595476Y-73799523D01*
X22643095Y-73894761D01*
X24517380Y-72311904D02*
X25326904Y-72311904D01*
X25422142Y-72264285D01*
X25469761Y-72216666D01*
X25517380Y-72121428D01*
X25517380Y-71930952D01*
X25469761Y-71835714D01*
X25422142Y-71788095D01*
X25326904Y-71740476D01*
X24517380Y-71740476D01*
X25517380Y-70740476D02*
X25517380Y-71311904D01*
X25517380Y-71026190D02*
X24517380Y-71026190D01*
X24660238Y-71121428D01*
X24755476Y-71216666D01*
X24803095Y-71311904D01*
X270766666Y-64054761D02*
X270909523Y-64102380D01*
X271147619Y-64102380D01*
X271242857Y-64054761D01*
X271290476Y-64007142D01*
X271338095Y-63911904D01*
X271338095Y-63816666D01*
X271290476Y-63721428D01*
X271242857Y-63673809D01*
X271147619Y-63626190D01*
X270957142Y-63578571D01*
X270861904Y-63530952D01*
X270814285Y-63483333D01*
X270766666Y-63388095D01*
X270766666Y-63292857D01*
X270814285Y-63197619D01*
X270861904Y-63150000D01*
X270957142Y-63102380D01*
X271195238Y-63102380D01*
X271338095Y-63150000D01*
X271671428Y-63102380D02*
X271909523Y-64102380D01*
X272100000Y-63388095D01*
X272290476Y-64102380D01*
X272528571Y-63102380D01*
X273338095Y-63435714D02*
X273338095Y-64102380D01*
X273100000Y-63054761D02*
X272861904Y-63769047D01*
X273480952Y-63769047D01*
X3966666Y-64004761D02*
X4109523Y-64052380D01*
X4347619Y-64052380D01*
X4442857Y-64004761D01*
X4490476Y-63957142D01*
X4538095Y-63861904D01*
X4538095Y-63766666D01*
X4490476Y-63671428D01*
X4442857Y-63623809D01*
X4347619Y-63576190D01*
X4157142Y-63528571D01*
X4061904Y-63480952D01*
X4014285Y-63433333D01*
X3966666Y-63338095D01*
X3966666Y-63242857D01*
X4014285Y-63147619D01*
X4061904Y-63100000D01*
X4157142Y-63052380D01*
X4395238Y-63052380D01*
X4538095Y-63100000D01*
X4871428Y-63052380D02*
X5109523Y-64052380D01*
X5300000Y-63338095D01*
X5490476Y-64052380D01*
X5728571Y-63052380D01*
X6014285Y-63052380D02*
X6633333Y-63052380D01*
X6300000Y-63433333D01*
X6442857Y-63433333D01*
X6538095Y-63480952D01*
X6585714Y-63528571D01*
X6633333Y-63623809D01*
X6633333Y-63861904D01*
X6585714Y-63957142D01*
X6538095Y-64004761D01*
X6442857Y-64052380D01*
X6157142Y-64052380D01*
X6061904Y-64004761D01*
X6014285Y-63957142D01*
X237817380Y-72311904D02*
X238626904Y-72311904D01*
X238722142Y-72264285D01*
X238769761Y-72216666D01*
X238817380Y-72121428D01*
X238817380Y-71930952D01*
X238769761Y-71835714D01*
X238722142Y-71788095D01*
X238626904Y-71740476D01*
X237817380Y-71740476D01*
X237817380Y-70788095D02*
X237817380Y-71264285D01*
X238293571Y-71311904D01*
X238245952Y-71264285D01*
X238198333Y-71169047D01*
X238198333Y-70930952D01*
X238245952Y-70835714D01*
X238293571Y-70788095D01*
X238388809Y-70740476D01*
X238626904Y-70740476D01*
X238722142Y-70788095D01*
X238769761Y-70835714D01*
X238817380Y-70930952D01*
X238817380Y-71169047D01*
X238769761Y-71264285D01*
X238722142Y-71311904D01*
X268466666Y-72961904D02*
X268200000Y-72580952D01*
X268009523Y-72961904D02*
X268009523Y-72161904D01*
X268314285Y-72161904D01*
X268390476Y-72200000D01*
X268428571Y-72238095D01*
X268466666Y-72314285D01*
X268466666Y-72428571D01*
X268428571Y-72504761D01*
X268390476Y-72542857D01*
X268314285Y-72580952D01*
X268009523Y-72580952D01*
X268771428Y-72238095D02*
X268809523Y-72200000D01*
X268885714Y-72161904D01*
X269076190Y-72161904D01*
X269152380Y-72200000D01*
X269190476Y-72238095D01*
X269228571Y-72314285D01*
X269228571Y-72390476D01*
X269190476Y-72504761D01*
X268733333Y-72961904D01*
X269228571Y-72961904D01*
X8666666Y-72986904D02*
X8400000Y-72605952D01*
X8209523Y-72986904D02*
X8209523Y-72186904D01*
X8514285Y-72186904D01*
X8590476Y-72225000D01*
X8628571Y-72263095D01*
X8666666Y-72339285D01*
X8666666Y-72453571D01*
X8628571Y-72529761D01*
X8590476Y-72567857D01*
X8514285Y-72605952D01*
X8209523Y-72605952D01*
X9428571Y-72986904D02*
X8971428Y-72986904D01*
X9200000Y-72986904D02*
X9200000Y-72186904D01*
X9123809Y-72301190D01*
X9047619Y-72377380D01*
X8971428Y-72415476D01*
X270752380Y-76583333D02*
X271466666Y-76583333D01*
X271609523Y-76630952D01*
X271704761Y-76726190D01*
X271752380Y-76869047D01*
X271752380Y-76964285D01*
X271085714Y-75678571D02*
X271752380Y-75678571D01*
X270704761Y-75916666D02*
X271419047Y-76154761D01*
X271419047Y-75535714D01*
X5452380Y-76583333D02*
X6166666Y-76583333D01*
X6309523Y-76630952D01*
X6404761Y-76726190D01*
X6452380Y-76869047D01*
X6452380Y-76964285D01*
X5547619Y-76154761D02*
X5500000Y-76107142D01*
X5452380Y-76011904D01*
X5452380Y-75773809D01*
X5500000Y-75678571D01*
X5547619Y-75630952D01*
X5642857Y-75583333D01*
X5738095Y-75583333D01*
X5880952Y-75630952D01*
X6452380Y-76202380D01*
X6452380Y-75583333D01*
X258852380Y-77138095D02*
X257852380Y-77138095D01*
X257852380Y-76900000D01*
X257900000Y-76757142D01*
X257995238Y-76661904D01*
X258090476Y-76614285D01*
X258280952Y-76566666D01*
X258423809Y-76566666D01*
X258614285Y-76614285D01*
X258709523Y-76661904D01*
X258804761Y-76757142D01*
X258852380Y-76900000D01*
X258852380Y-77138095D01*
X258185714Y-75709523D02*
X258852380Y-75709523D01*
X257804761Y-75947619D02*
X258519047Y-76185714D01*
X258519047Y-75566666D01*
X270509523Y-74061904D02*
X270509523Y-73261904D01*
X270700000Y-73261904D01*
X270814285Y-73300000D01*
X270890476Y-73376190D01*
X270928571Y-73452380D01*
X270966666Y-73604761D01*
X270966666Y-73719047D01*
X270928571Y-73871428D01*
X270890476Y-73947619D01*
X270814285Y-74023809D01*
X270700000Y-74061904D01*
X270509523Y-74061904D01*
X271233333Y-73261904D02*
X271728571Y-73261904D01*
X271461904Y-73566666D01*
X271576190Y-73566666D01*
X271652380Y-73604761D01*
X271690476Y-73642857D01*
X271728571Y-73719047D01*
X271728571Y-73909523D01*
X271690476Y-73985714D01*
X271652380Y-74023809D01*
X271576190Y-74061904D01*
X271347619Y-74061904D01*
X271271428Y-74023809D01*
X271233333Y-73985714D01*
X19652380Y-77138095D02*
X18652380Y-77138095D01*
X18652380Y-76900000D01*
X18700000Y-76757142D01*
X18795238Y-76661904D01*
X18890476Y-76614285D01*
X19080952Y-76566666D01*
X19223809Y-76566666D01*
X19414285Y-76614285D01*
X19509523Y-76661904D01*
X19604761Y-76757142D01*
X19652380Y-76900000D01*
X19652380Y-77138095D01*
X18747619Y-76185714D02*
X18700000Y-76138095D01*
X18652380Y-76042857D01*
X18652380Y-75804761D01*
X18700000Y-75709523D01*
X18747619Y-75661904D01*
X18842857Y-75614285D01*
X18938095Y-75614285D01*
X19080952Y-75661904D01*
X19652380Y-76233333D01*
X19652380Y-75614285D01*
X5809523Y-74061904D02*
X5809523Y-73261904D01*
X6000000Y-73261904D01*
X6114285Y-73300000D01*
X6190476Y-73376190D01*
X6228571Y-73452380D01*
X6266666Y-73604761D01*
X6266666Y-73719047D01*
X6228571Y-73871428D01*
X6190476Y-73947619D01*
X6114285Y-74023809D01*
X6000000Y-74061904D01*
X5809523Y-74061904D01*
X7028571Y-74061904D02*
X6571428Y-74061904D01*
X6800000Y-74061904D02*
X6800000Y-73261904D01*
X6723809Y-73376190D01*
X6647619Y-73452380D01*
X6571428Y-73490476D01*
X258527142Y-71042857D02*
X258574761Y-71090476D01*
X258622380Y-71233333D01*
X258622380Y-71328571D01*
X258574761Y-71471428D01*
X258479523Y-71566666D01*
X258384285Y-71614285D01*
X258193809Y-71661904D01*
X258050952Y-71661904D01*
X257860476Y-71614285D01*
X257765238Y-71566666D01*
X257670000Y-71471428D01*
X257622380Y-71328571D01*
X257622380Y-71233333D01*
X257670000Y-71090476D01*
X257717619Y-71042857D01*
X258622380Y-70090476D02*
X258622380Y-70661904D01*
X258622380Y-70376190D02*
X257622380Y-70376190D01*
X257765238Y-70471428D01*
X257860476Y-70566666D01*
X257908095Y-70661904D01*
X257622380Y-69471428D02*
X257622380Y-69376190D01*
X257670000Y-69280952D01*
X257717619Y-69233333D01*
X257812857Y-69185714D01*
X258003333Y-69138095D01*
X258241428Y-69138095D01*
X258431904Y-69185714D01*
X258527142Y-69233333D01*
X258574761Y-69280952D01*
X258622380Y-69376190D01*
X258622380Y-69471428D01*
X258574761Y-69566666D01*
X258527142Y-69614285D01*
X258431904Y-69661904D01*
X258241428Y-69709523D01*
X258003333Y-69709523D01*
X257812857Y-69661904D01*
X257717619Y-69614285D01*
X257670000Y-69566666D01*
X257622380Y-69471428D01*
X266866666Y-68385714D02*
X266828571Y-68423809D01*
X266714285Y-68461904D01*
X266638095Y-68461904D01*
X266523809Y-68423809D01*
X266447619Y-68347619D01*
X266409523Y-68271428D01*
X266371428Y-68119047D01*
X266371428Y-68004761D01*
X266409523Y-67852380D01*
X266447619Y-67776190D01*
X266523809Y-67700000D01*
X266638095Y-67661904D01*
X266714285Y-67661904D01*
X266828571Y-67700000D01*
X266866666Y-67738095D01*
X267247619Y-68461904D02*
X267400000Y-68461904D01*
X267476190Y-68423809D01*
X267514285Y-68385714D01*
X267590476Y-68271428D01*
X267628571Y-68119047D01*
X267628571Y-67814285D01*
X267590476Y-67738095D01*
X267552380Y-67700000D01*
X267476190Y-67661904D01*
X267323809Y-67661904D01*
X267247619Y-67700000D01*
X267209523Y-67738095D01*
X267171428Y-67814285D01*
X267171428Y-68004761D01*
X267209523Y-68080952D01*
X267247619Y-68119047D01*
X267323809Y-68157142D01*
X267476190Y-68157142D01*
X267552380Y-68119047D01*
X267590476Y-68080952D01*
X267628571Y-68004761D01*
X19587142Y-70566666D02*
X19634761Y-70614285D01*
X19682380Y-70757142D01*
X19682380Y-70852380D01*
X19634761Y-70995238D01*
X19539523Y-71090476D01*
X19444285Y-71138095D01*
X19253809Y-71185714D01*
X19110952Y-71185714D01*
X18920476Y-71138095D01*
X18825238Y-71090476D01*
X18730000Y-70995238D01*
X18682380Y-70852380D01*
X18682380Y-70757142D01*
X18730000Y-70614285D01*
X18777619Y-70566666D01*
X19110952Y-69995238D02*
X19063333Y-70090476D01*
X19015714Y-70138095D01*
X18920476Y-70185714D01*
X18872857Y-70185714D01*
X18777619Y-70138095D01*
X18730000Y-70090476D01*
X18682380Y-69995238D01*
X18682380Y-69804761D01*
X18730000Y-69709523D01*
X18777619Y-69661904D01*
X18872857Y-69614285D01*
X18920476Y-69614285D01*
X19015714Y-69661904D01*
X19063333Y-69709523D01*
X19110952Y-69804761D01*
X19110952Y-69995238D01*
X19158571Y-70090476D01*
X19206190Y-70138095D01*
X19301428Y-70185714D01*
X19491904Y-70185714D01*
X19587142Y-70138095D01*
X19634761Y-70090476D01*
X19682380Y-69995238D01*
X19682380Y-69804761D01*
X19634761Y-69709523D01*
X19587142Y-69661904D01*
X19491904Y-69614285D01*
X19301428Y-69614285D01*
X19206190Y-69661904D01*
X19158571Y-69709523D01*
X19110952Y-69804761D01*
X12066666Y-72885714D02*
X12028571Y-72923809D01*
X11914285Y-72961904D01*
X11838095Y-72961904D01*
X11723809Y-72923809D01*
X11647619Y-72847619D01*
X11609523Y-72771428D01*
X11571428Y-72619047D01*
X11571428Y-72504761D01*
X11609523Y-72352380D01*
X11647619Y-72276190D01*
X11723809Y-72200000D01*
X11838095Y-72161904D01*
X11914285Y-72161904D01*
X12028571Y-72200000D01*
X12066666Y-72238095D01*
X12333333Y-72161904D02*
X12866666Y-72161904D01*
X12523809Y-72961904D01*
X248883333Y-62727142D02*
X248835714Y-62774761D01*
X248692857Y-62822380D01*
X248597619Y-62822380D01*
X248454761Y-62774761D01*
X248359523Y-62679523D01*
X248311904Y-62584285D01*
X248264285Y-62393809D01*
X248264285Y-62250952D01*
X248311904Y-62060476D01*
X248359523Y-61965238D01*
X248454761Y-61870000D01*
X248597619Y-61822380D01*
X248692857Y-61822380D01*
X248835714Y-61870000D01*
X248883333Y-61917619D01*
X249740476Y-62155714D02*
X249740476Y-62822380D01*
X249502380Y-61774761D02*
X249264285Y-62489047D01*
X249883333Y-62489047D01*
X36033333Y-62727142D02*
X35985714Y-62774761D01*
X35842857Y-62822380D01*
X35747619Y-62822380D01*
X35604761Y-62774761D01*
X35509523Y-62679523D01*
X35461904Y-62584285D01*
X35414285Y-62393809D01*
X35414285Y-62250952D01*
X35461904Y-62060476D01*
X35509523Y-61965238D01*
X35604761Y-61870000D01*
X35747619Y-61822380D01*
X35842857Y-61822380D01*
X35985714Y-61870000D01*
X36033333Y-61917619D01*
X36985714Y-62822380D02*
X36414285Y-62822380D01*
X36700000Y-62822380D02*
X36700000Y-61822380D01*
X36604761Y-61965238D01*
X36509523Y-62060476D01*
X36414285Y-62108095D01*
X15490476Y-67861904D02*
X15490476Y-68509523D01*
X15528571Y-68585714D01*
X15566666Y-68623809D01*
X15642857Y-68661904D01*
X15795238Y-68661904D01*
X15871428Y-68623809D01*
X15909523Y-68585714D01*
X15947619Y-68509523D01*
X15947619Y-67861904D01*
X16366666Y-68661904D02*
X16519047Y-68661904D01*
X16595238Y-68623809D01*
X16633333Y-68585714D01*
X16709523Y-68471428D01*
X16747619Y-68319047D01*
X16747619Y-68014285D01*
X16709523Y-67938095D01*
X16671428Y-67900000D01*
X16595238Y-67861904D01*
X16442857Y-67861904D01*
X16366666Y-67900000D01*
X16328571Y-67938095D01*
X16290476Y-68014285D01*
X16290476Y-68204761D01*
X16328571Y-68280952D01*
X16366666Y-68319047D01*
X16442857Y-68357142D01*
X16595238Y-68357142D01*
X16671428Y-68319047D01*
X16709523Y-68280952D01*
X16747619Y-68204761D01*
X262566666Y-64904761D02*
X262709523Y-64952380D01*
X262947619Y-64952380D01*
X263042857Y-64904761D01*
X263090476Y-64857142D01*
X263138095Y-64761904D01*
X263138095Y-64666666D01*
X263090476Y-64571428D01*
X263042857Y-64523809D01*
X262947619Y-64476190D01*
X262757142Y-64428571D01*
X262661904Y-64380952D01*
X262614285Y-64333333D01*
X262566666Y-64238095D01*
X262566666Y-64142857D01*
X262614285Y-64047619D01*
X262661904Y-64000000D01*
X262757142Y-63952380D01*
X262995238Y-63952380D01*
X263138095Y-64000000D01*
X263471428Y-63952380D02*
X263709523Y-64952380D01*
X263900000Y-64238095D01*
X264090476Y-64952380D01*
X264328571Y-63952380D01*
X264661904Y-64047619D02*
X264709523Y-64000000D01*
X264804761Y-63952380D01*
X265042857Y-63952380D01*
X265138095Y-64000000D01*
X265185714Y-64047619D01*
X265233333Y-64142857D01*
X265233333Y-64238095D01*
X265185714Y-64380952D01*
X264614285Y-64952380D01*
X265233333Y-64952380D01*
X12166666Y-64804761D02*
X12309523Y-64852380D01*
X12547619Y-64852380D01*
X12642857Y-64804761D01*
X12690476Y-64757142D01*
X12738095Y-64661904D01*
X12738095Y-64566666D01*
X12690476Y-64471428D01*
X12642857Y-64423809D01*
X12547619Y-64376190D01*
X12357142Y-64328571D01*
X12261904Y-64280952D01*
X12214285Y-64233333D01*
X12166666Y-64138095D01*
X12166666Y-64042857D01*
X12214285Y-63947619D01*
X12261904Y-63900000D01*
X12357142Y-63852380D01*
X12595238Y-63852380D01*
X12738095Y-63900000D01*
X13071428Y-63852380D02*
X13309523Y-64852380D01*
X13500000Y-64138095D01*
X13690476Y-64852380D01*
X13928571Y-63852380D01*
X14833333Y-64852380D02*
X14261904Y-64852380D01*
X14547619Y-64852380D02*
X14547619Y-63852380D01*
X14452380Y-63995238D01*
X14357142Y-64090476D01*
X14261904Y-64138095D01*
X253252380Y-75133333D02*
X253966666Y-75133333D01*
X254109523Y-75180952D01*
X254204761Y-75276190D01*
X254252380Y-75419047D01*
X254252380Y-75514285D01*
X253252380Y-74752380D02*
X253252380Y-74133333D01*
X253633333Y-74466666D01*
X253633333Y-74323809D01*
X253680952Y-74228571D01*
X253728571Y-74180952D01*
X253823809Y-74133333D01*
X254061904Y-74133333D01*
X254157142Y-74180952D01*
X254204761Y-74228571D01*
X254252380Y-74323809D01*
X254252380Y-74609523D01*
X254204761Y-74704761D01*
X254157142Y-74752380D01*
X262709523Y-72161904D02*
X262709523Y-72809523D01*
X262747619Y-72885714D01*
X262785714Y-72923809D01*
X262861904Y-72961904D01*
X263014285Y-72961904D01*
X263090476Y-72923809D01*
X263128571Y-72885714D01*
X263166666Y-72809523D01*
X263166666Y-72161904D01*
X263966666Y-72961904D02*
X263509523Y-72961904D01*
X263738095Y-72961904D02*
X263738095Y-72161904D01*
X263661904Y-72276190D01*
X263585714Y-72352380D01*
X263509523Y-72390476D01*
X264461904Y-72161904D02*
X264538095Y-72161904D01*
X264614285Y-72200000D01*
X264652380Y-72238095D01*
X264690476Y-72314285D01*
X264728571Y-72466666D01*
X264728571Y-72657142D01*
X264690476Y-72809523D01*
X264652380Y-72885714D01*
X264614285Y-72923809D01*
X264538095Y-72961904D01*
X264461904Y-72961904D01*
X264385714Y-72923809D01*
X264347619Y-72885714D01*
X264309523Y-72809523D01*
X264271428Y-72657142D01*
X264271428Y-72466666D01*
X264309523Y-72314285D01*
X264347619Y-72238095D01*
X264385714Y-72200000D01*
X264461904Y-72161904D01*
%LPC*%
D13*
X158673816Y-77456301D03*
D14*
X156551051Y-72841079D03*
X160796581Y-82071523D03*
X253905000Y-57150000D03*
X243745000Y-57150000D03*
D13*
X248825000Y-57150000D03*
D14*
X55086250Y-70246875D03*
X44926250Y-70246875D03*
D13*
X50006250Y-70246875D03*
D14*
X52705000Y-51196875D03*
X42545000Y-51196875D03*
D13*
X47625000Y-51196875D03*
D14*
X14605000Y-57150000D03*
X4445000Y-57150000D03*
D13*
X9525000Y-57150000D03*
D15*
X21000000Y-70180000D03*
D16*
X21000000Y-72720000D03*
X21000000Y-75260000D03*
D17*
X21000000Y-77800000D03*
D18*
X36950000Y-74400000D03*
X36950000Y-73650000D03*
X36950000Y-72900000D03*
X36950000Y-72150000D03*
X36950000Y-71400000D03*
X36950000Y-70650000D03*
X36950000Y-69900000D03*
X36950000Y-69150000D03*
X36950000Y-68400000D03*
X36950000Y-67650000D03*
X36950000Y-66900000D03*
X36950000Y-66150000D03*
D19*
X35800000Y-65700000D03*
X35050000Y-65700000D03*
X34300000Y-65700000D03*
X33550000Y-65700000D03*
X32800000Y-65700000D03*
X32050000Y-65700000D03*
X31300000Y-65700000D03*
X30550000Y-65700000D03*
X29800000Y-65700000D03*
X29050000Y-65700000D03*
X28300000Y-65700000D03*
D18*
X27150000Y-66150000D03*
X27150000Y-66900000D03*
X27150000Y-67650000D03*
X27150000Y-68400000D03*
X27150000Y-69150000D03*
X27150000Y-69900000D03*
X27150000Y-70650000D03*
X27150000Y-71400000D03*
X27150000Y-72150000D03*
X27150000Y-72900000D03*
X27150000Y-73650000D03*
X27150000Y-74400000D03*
X27150000Y-75150000D03*
X27150000Y-75900000D03*
X27150000Y-76650000D03*
X27150000Y-77400000D03*
D20*
X274175000Y-67325000D03*
X270025000Y-67325000D03*
X274175000Y-65175000D03*
X270025000Y-65175000D03*
X3225000Y-65175000D03*
X7375000Y-65175000D03*
X3225000Y-67325000D03*
X7375000Y-67325000D03*
D18*
X250250000Y-74400000D03*
X250250000Y-73650000D03*
X250250000Y-72900000D03*
X250250000Y-72150000D03*
X250250000Y-71400000D03*
X250250000Y-70650000D03*
X250250000Y-69900000D03*
X250250000Y-69150000D03*
X250250000Y-68400000D03*
X250250000Y-67650000D03*
X250250000Y-66900000D03*
X250250000Y-66150000D03*
D19*
X249100000Y-65700000D03*
X248350000Y-65700000D03*
X247600000Y-65700000D03*
X246850000Y-65700000D03*
X246100000Y-65700000D03*
X245350000Y-65700000D03*
X244600000Y-65700000D03*
X243850000Y-65700000D03*
X243100000Y-65700000D03*
X242350000Y-65700000D03*
X241600000Y-65700000D03*
D18*
X240450000Y-66150000D03*
X240450000Y-66900000D03*
X240450000Y-67650000D03*
X240450000Y-68400000D03*
X240450000Y-69150000D03*
X240450000Y-69900000D03*
X240450000Y-70650000D03*
X240450000Y-71400000D03*
X240450000Y-72150000D03*
X240450000Y-72900000D03*
X240450000Y-73650000D03*
X240450000Y-74400000D03*
X240450000Y-75150000D03*
X240450000Y-75900000D03*
X240450000Y-76650000D03*
X240450000Y-77400000D03*
D21*
G36*
X268970581Y-70551625D02*
G01*
X269003343Y-70556485D01*
X269035471Y-70564533D01*
X269066656Y-70575691D01*
X269096596Y-70589852D01*
X269125005Y-70606879D01*
X269151608Y-70626609D01*
X269176149Y-70648851D01*
X269198391Y-70673392D01*
X269218121Y-70699995D01*
X269235148Y-70728404D01*
X269249309Y-70758344D01*
X269260467Y-70789529D01*
X269268515Y-70821657D01*
X269273375Y-70854419D01*
X269275000Y-70887500D01*
X269275000Y-71662500D01*
X269273375Y-71695581D01*
X269268515Y-71728343D01*
X269260467Y-71760471D01*
X269249309Y-71791656D01*
X269235148Y-71821596D01*
X269218121Y-71850005D01*
X269198391Y-71876608D01*
X269176149Y-71901149D01*
X269151608Y-71923391D01*
X269125005Y-71943121D01*
X269096596Y-71960148D01*
X269066656Y-71974309D01*
X269035471Y-71985467D01*
X269003343Y-71993515D01*
X268970581Y-71998375D01*
X268937500Y-72000000D01*
X268262500Y-72000000D01*
X268229419Y-71998375D01*
X268196657Y-71993515D01*
X268164529Y-71985467D01*
X268133344Y-71974309D01*
X268103404Y-71960148D01*
X268074995Y-71943121D01*
X268048392Y-71923391D01*
X268023851Y-71901149D01*
X268001609Y-71876608D01*
X267981879Y-71850005D01*
X267964852Y-71821596D01*
X267950691Y-71791656D01*
X267939533Y-71760471D01*
X267931485Y-71728343D01*
X267926625Y-71695581D01*
X267925000Y-71662500D01*
X267925000Y-70887500D01*
X267926625Y-70854419D01*
X267931485Y-70821657D01*
X267939533Y-70789529D01*
X267950691Y-70758344D01*
X267964852Y-70728404D01*
X267981879Y-70699995D01*
X268001609Y-70673392D01*
X268023851Y-70648851D01*
X268048392Y-70626609D01*
X268074995Y-70606879D01*
X268103404Y-70589852D01*
X268133344Y-70575691D01*
X268164529Y-70564533D01*
X268196657Y-70556485D01*
X268229419Y-70551625D01*
X268262500Y-70550000D01*
X268937500Y-70550000D01*
X268970581Y-70551625D01*
X268970581Y-70551625D01*
G37*
D22*
X268600000Y-71275000D03*
D21*
G36*
X268970581Y-68801625D02*
G01*
X269003343Y-68806485D01*
X269035471Y-68814533D01*
X269066656Y-68825691D01*
X269096596Y-68839852D01*
X269125005Y-68856879D01*
X269151608Y-68876609D01*
X269176149Y-68898851D01*
X269198391Y-68923392D01*
X269218121Y-68949995D01*
X269235148Y-68978404D01*
X269249309Y-69008344D01*
X269260467Y-69039529D01*
X269268515Y-69071657D01*
X269273375Y-69104419D01*
X269275000Y-69137500D01*
X269275000Y-69912500D01*
X269273375Y-69945581D01*
X269268515Y-69978343D01*
X269260467Y-70010471D01*
X269249309Y-70041656D01*
X269235148Y-70071596D01*
X269218121Y-70100005D01*
X269198391Y-70126608D01*
X269176149Y-70151149D01*
X269151608Y-70173391D01*
X269125005Y-70193121D01*
X269096596Y-70210148D01*
X269066656Y-70224309D01*
X269035471Y-70235467D01*
X269003343Y-70243515D01*
X268970581Y-70248375D01*
X268937500Y-70250000D01*
X268262500Y-70250000D01*
X268229419Y-70248375D01*
X268196657Y-70243515D01*
X268164529Y-70235467D01*
X268133344Y-70224309D01*
X268103404Y-70210148D01*
X268074995Y-70193121D01*
X268048392Y-70173391D01*
X268023851Y-70151149D01*
X268001609Y-70126608D01*
X267981879Y-70100005D01*
X267964852Y-70071596D01*
X267950691Y-70041656D01*
X267939533Y-70010471D01*
X267931485Y-69978343D01*
X267926625Y-69945581D01*
X267925000Y-69912500D01*
X267925000Y-69137500D01*
X267926625Y-69104419D01*
X267931485Y-69071657D01*
X267939533Y-69039529D01*
X267950691Y-69008344D01*
X267964852Y-68978404D01*
X267981879Y-68949995D01*
X268001609Y-68923392D01*
X268023851Y-68898851D01*
X268048392Y-68876609D01*
X268074995Y-68856879D01*
X268103404Y-68839852D01*
X268133344Y-68825691D01*
X268164529Y-68814533D01*
X268196657Y-68806485D01*
X268229419Y-68801625D01*
X268262500Y-68800000D01*
X268937500Y-68800000D01*
X268970581Y-68801625D01*
X268970581Y-68801625D01*
G37*
D22*
X268600000Y-69525000D03*
D21*
G36*
X9170581Y-70551625D02*
G01*
X9203343Y-70556485D01*
X9235471Y-70564533D01*
X9266656Y-70575691D01*
X9296596Y-70589852D01*
X9325005Y-70606879D01*
X9351608Y-70626609D01*
X9376149Y-70648851D01*
X9398391Y-70673392D01*
X9418121Y-70699995D01*
X9435148Y-70728404D01*
X9449309Y-70758344D01*
X9460467Y-70789529D01*
X9468515Y-70821657D01*
X9473375Y-70854419D01*
X9475000Y-70887500D01*
X9475000Y-71662500D01*
X9473375Y-71695581D01*
X9468515Y-71728343D01*
X9460467Y-71760471D01*
X9449309Y-71791656D01*
X9435148Y-71821596D01*
X9418121Y-71850005D01*
X9398391Y-71876608D01*
X9376149Y-71901149D01*
X9351608Y-71923391D01*
X9325005Y-71943121D01*
X9296596Y-71960148D01*
X9266656Y-71974309D01*
X9235471Y-71985467D01*
X9203343Y-71993515D01*
X9170581Y-71998375D01*
X9137500Y-72000000D01*
X8462500Y-72000000D01*
X8429419Y-71998375D01*
X8396657Y-71993515D01*
X8364529Y-71985467D01*
X8333344Y-71974309D01*
X8303404Y-71960148D01*
X8274995Y-71943121D01*
X8248392Y-71923391D01*
X8223851Y-71901149D01*
X8201609Y-71876608D01*
X8181879Y-71850005D01*
X8164852Y-71821596D01*
X8150691Y-71791656D01*
X8139533Y-71760471D01*
X8131485Y-71728343D01*
X8126625Y-71695581D01*
X8125000Y-71662500D01*
X8125000Y-70887500D01*
X8126625Y-70854419D01*
X8131485Y-70821657D01*
X8139533Y-70789529D01*
X8150691Y-70758344D01*
X8164852Y-70728404D01*
X8181879Y-70699995D01*
X8201609Y-70673392D01*
X8223851Y-70648851D01*
X8248392Y-70626609D01*
X8274995Y-70606879D01*
X8303404Y-70589852D01*
X8333344Y-70575691D01*
X8364529Y-70564533D01*
X8396657Y-70556485D01*
X8429419Y-70551625D01*
X8462500Y-70550000D01*
X9137500Y-70550000D01*
X9170581Y-70551625D01*
X9170581Y-70551625D01*
G37*
D22*
X8800000Y-71275000D03*
D21*
G36*
X9170581Y-68801625D02*
G01*
X9203343Y-68806485D01*
X9235471Y-68814533D01*
X9266656Y-68825691D01*
X9296596Y-68839852D01*
X9325005Y-68856879D01*
X9351608Y-68876609D01*
X9376149Y-68898851D01*
X9398391Y-68923392D01*
X9418121Y-68949995D01*
X9435148Y-68978404D01*
X9449309Y-69008344D01*
X9460467Y-69039529D01*
X9468515Y-69071657D01*
X9473375Y-69104419D01*
X9475000Y-69137500D01*
X9475000Y-69912500D01*
X9473375Y-69945581D01*
X9468515Y-69978343D01*
X9460467Y-70010471D01*
X9449309Y-70041656D01*
X9435148Y-70071596D01*
X9418121Y-70100005D01*
X9398391Y-70126608D01*
X9376149Y-70151149D01*
X9351608Y-70173391D01*
X9325005Y-70193121D01*
X9296596Y-70210148D01*
X9266656Y-70224309D01*
X9235471Y-70235467D01*
X9203343Y-70243515D01*
X9170581Y-70248375D01*
X9137500Y-70250000D01*
X8462500Y-70250000D01*
X8429419Y-70248375D01*
X8396657Y-70243515D01*
X8364529Y-70235467D01*
X8333344Y-70224309D01*
X8303404Y-70210148D01*
X8274995Y-70193121D01*
X8248392Y-70173391D01*
X8223851Y-70151149D01*
X8201609Y-70126608D01*
X8181879Y-70100005D01*
X8164852Y-70071596D01*
X8150691Y-70041656D01*
X8139533Y-70010471D01*
X8131485Y-69978343D01*
X8126625Y-69945581D01*
X8125000Y-69912500D01*
X8125000Y-69137500D01*
X8126625Y-69104419D01*
X8131485Y-69071657D01*
X8139533Y-69039529D01*
X8150691Y-69008344D01*
X8164852Y-68978404D01*
X8181879Y-68949995D01*
X8201609Y-68923392D01*
X8223851Y-68898851D01*
X8248392Y-68876609D01*
X8274995Y-68856879D01*
X8303404Y-68839852D01*
X8333344Y-68825691D01*
X8364529Y-68814533D01*
X8396657Y-68806485D01*
X8429419Y-68801625D01*
X8462500Y-68800000D01*
X9137500Y-68800000D01*
X9170581Y-68801625D01*
X9170581Y-68801625D01*
G37*
D22*
X8800000Y-69525000D03*
D23*
X263900000Y-75250000D03*
D21*
G36*
X264674820Y-76451603D02*
G01*
X264707126Y-76456395D01*
X264738807Y-76464330D01*
X264769557Y-76475333D01*
X264799081Y-76489297D01*
X264827094Y-76506087D01*
X264853326Y-76525542D01*
X264877525Y-76547475D01*
X264899458Y-76571674D01*
X264918913Y-76597906D01*
X264935703Y-76625919D01*
X264949667Y-76655443D01*
X264960670Y-76686193D01*
X264968605Y-76717874D01*
X264973397Y-76750180D01*
X264975000Y-76782800D01*
X264975000Y-77717200D01*
X264973397Y-77749820D01*
X264968605Y-77782126D01*
X264960670Y-77813807D01*
X264949667Y-77844557D01*
X264935703Y-77874081D01*
X264918913Y-77902094D01*
X264899458Y-77928326D01*
X264877525Y-77952525D01*
X264853326Y-77974458D01*
X264827094Y-77993913D01*
X264799081Y-78010703D01*
X264769557Y-78024667D01*
X264738807Y-78035670D01*
X264707126Y-78043605D01*
X264674820Y-78048397D01*
X264642200Y-78050000D01*
X263157800Y-78050000D01*
X263125180Y-78048397D01*
X263092874Y-78043605D01*
X263061193Y-78035670D01*
X263030443Y-78024667D01*
X263000919Y-78010703D01*
X262972906Y-77993913D01*
X262946674Y-77974458D01*
X262922475Y-77952525D01*
X262900542Y-77928326D01*
X262881087Y-77902094D01*
X262864297Y-77874081D01*
X262850333Y-77844557D01*
X262839330Y-77813807D01*
X262831395Y-77782126D01*
X262826603Y-77749820D01*
X262825000Y-77717200D01*
X262825000Y-76782800D01*
X262826603Y-76750180D01*
X262831395Y-76717874D01*
X262839330Y-76686193D01*
X262850333Y-76655443D01*
X262864297Y-76625919D01*
X262881087Y-76597906D01*
X262900542Y-76571674D01*
X262922475Y-76547475D01*
X262946674Y-76525542D01*
X262972906Y-76506087D01*
X263000919Y-76489297D01*
X263030443Y-76475333D01*
X263061193Y-76464330D01*
X263092874Y-76456395D01*
X263125180Y-76451603D01*
X263157800Y-76450000D01*
X264642200Y-76450000D01*
X264674820Y-76451603D01*
X264674820Y-76451603D01*
G37*
D24*
X263900000Y-77250000D03*
D23*
X13500000Y-77250000D03*
D21*
G36*
X14274820Y-74451603D02*
G01*
X14307126Y-74456395D01*
X14338807Y-74464330D01*
X14369557Y-74475333D01*
X14399081Y-74489297D01*
X14427094Y-74506087D01*
X14453326Y-74525542D01*
X14477525Y-74547475D01*
X14499458Y-74571674D01*
X14518913Y-74597906D01*
X14535703Y-74625919D01*
X14549667Y-74655443D01*
X14560670Y-74686193D01*
X14568605Y-74717874D01*
X14573397Y-74750180D01*
X14575000Y-74782800D01*
X14575000Y-75717200D01*
X14573397Y-75749820D01*
X14568605Y-75782126D01*
X14560670Y-75813807D01*
X14549667Y-75844557D01*
X14535703Y-75874081D01*
X14518913Y-75902094D01*
X14499458Y-75928326D01*
X14477525Y-75952525D01*
X14453326Y-75974458D01*
X14427094Y-75993913D01*
X14399081Y-76010703D01*
X14369557Y-76024667D01*
X14338807Y-76035670D01*
X14307126Y-76043605D01*
X14274820Y-76048397D01*
X14242200Y-76050000D01*
X12757800Y-76050000D01*
X12725180Y-76048397D01*
X12692874Y-76043605D01*
X12661193Y-76035670D01*
X12630443Y-76024667D01*
X12600919Y-76010703D01*
X12572906Y-75993913D01*
X12546674Y-75974458D01*
X12522475Y-75952525D01*
X12500542Y-75928326D01*
X12481087Y-75902094D01*
X12464297Y-75874081D01*
X12450333Y-75844557D01*
X12439330Y-75813807D01*
X12431395Y-75782126D01*
X12426603Y-75749820D01*
X12425000Y-75717200D01*
X12425000Y-74782800D01*
X12426603Y-74750180D01*
X12431395Y-74717874D01*
X12439330Y-74686193D01*
X12450333Y-74655443D01*
X12464297Y-74625919D01*
X12481087Y-74597906D01*
X12500542Y-74571674D01*
X12522475Y-74547475D01*
X12546674Y-74525542D01*
X12572906Y-74506087D01*
X12600919Y-74489297D01*
X12630443Y-74475333D01*
X12661193Y-74464330D01*
X12692874Y-74456395D01*
X12725180Y-74451603D01*
X12757800Y-74450000D01*
X14242200Y-74450000D01*
X14274820Y-74451603D01*
X14274820Y-74451603D01*
G37*
D24*
X13500000Y-75250000D03*
D25*
X260200000Y-78050000D03*
X260200000Y-74750000D03*
X271000000Y-72400000D03*
X271000000Y-69100000D03*
X17200000Y-74750000D03*
X17200000Y-78050000D03*
X6400000Y-72400000D03*
X6400000Y-69100000D03*
D21*
G36*
X259970581Y-68801625D02*
G01*
X260003343Y-68806485D01*
X260035471Y-68814533D01*
X260066656Y-68825691D01*
X260096596Y-68839852D01*
X260125005Y-68856879D01*
X260151608Y-68876609D01*
X260176149Y-68898851D01*
X260198391Y-68923392D01*
X260218121Y-68949995D01*
X260235148Y-68978404D01*
X260249309Y-69008344D01*
X260260467Y-69039529D01*
X260268515Y-69071657D01*
X260273375Y-69104419D01*
X260275000Y-69137500D01*
X260275000Y-69912500D01*
X260273375Y-69945581D01*
X260268515Y-69978343D01*
X260260467Y-70010471D01*
X260249309Y-70041656D01*
X260235148Y-70071596D01*
X260218121Y-70100005D01*
X260198391Y-70126608D01*
X260176149Y-70151149D01*
X260151608Y-70173391D01*
X260125005Y-70193121D01*
X260096596Y-70210148D01*
X260066656Y-70224309D01*
X260035471Y-70235467D01*
X260003343Y-70243515D01*
X259970581Y-70248375D01*
X259937500Y-70250000D01*
X259262500Y-70250000D01*
X259229419Y-70248375D01*
X259196657Y-70243515D01*
X259164529Y-70235467D01*
X259133344Y-70224309D01*
X259103404Y-70210148D01*
X259074995Y-70193121D01*
X259048392Y-70173391D01*
X259023851Y-70151149D01*
X259001609Y-70126608D01*
X258981879Y-70100005D01*
X258964852Y-70071596D01*
X258950691Y-70041656D01*
X258939533Y-70010471D01*
X258931485Y-69978343D01*
X258926625Y-69945581D01*
X258925000Y-69912500D01*
X258925000Y-69137500D01*
X258926625Y-69104419D01*
X258931485Y-69071657D01*
X258939533Y-69039529D01*
X258950691Y-69008344D01*
X258964852Y-68978404D01*
X258981879Y-68949995D01*
X259001609Y-68923392D01*
X259023851Y-68898851D01*
X259048392Y-68876609D01*
X259074995Y-68856879D01*
X259103404Y-68839852D01*
X259133344Y-68825691D01*
X259164529Y-68814533D01*
X259196657Y-68806485D01*
X259229419Y-68801625D01*
X259262500Y-68800000D01*
X259937500Y-68800000D01*
X259970581Y-68801625D01*
X259970581Y-68801625D01*
G37*
D22*
X259600000Y-69525000D03*
D21*
G36*
X259970581Y-70551625D02*
G01*
X260003343Y-70556485D01*
X260035471Y-70564533D01*
X260066656Y-70575691D01*
X260096596Y-70589852D01*
X260125005Y-70606879D01*
X260151608Y-70626609D01*
X260176149Y-70648851D01*
X260198391Y-70673392D01*
X260218121Y-70699995D01*
X260235148Y-70728404D01*
X260249309Y-70758344D01*
X260260467Y-70789529D01*
X260268515Y-70821657D01*
X260273375Y-70854419D01*
X260275000Y-70887500D01*
X260275000Y-71662500D01*
X260273375Y-71695581D01*
X260268515Y-71728343D01*
X260260467Y-71760471D01*
X260249309Y-71791656D01*
X260235148Y-71821596D01*
X260218121Y-71850005D01*
X260198391Y-71876608D01*
X260176149Y-71901149D01*
X260151608Y-71923391D01*
X260125005Y-71943121D01*
X260096596Y-71960148D01*
X260066656Y-71974309D01*
X260035471Y-71985467D01*
X260003343Y-71993515D01*
X259970581Y-71998375D01*
X259937500Y-72000000D01*
X259262500Y-72000000D01*
X259229419Y-71998375D01*
X259196657Y-71993515D01*
X259164529Y-71985467D01*
X259133344Y-71974309D01*
X259103404Y-71960148D01*
X259074995Y-71943121D01*
X259048392Y-71923391D01*
X259023851Y-71901149D01*
X259001609Y-71876608D01*
X258981879Y-71850005D01*
X258964852Y-71821596D01*
X258950691Y-71791656D01*
X258939533Y-71760471D01*
X258931485Y-71728343D01*
X258926625Y-71695581D01*
X258925000Y-71662500D01*
X258925000Y-70887500D01*
X258926625Y-70854419D01*
X258931485Y-70821657D01*
X258939533Y-70789529D01*
X258950691Y-70758344D01*
X258964852Y-70728404D01*
X258981879Y-70699995D01*
X259001609Y-70673392D01*
X259023851Y-70648851D01*
X259048392Y-70626609D01*
X259074995Y-70606879D01*
X259103404Y-70589852D01*
X259133344Y-70575691D01*
X259164529Y-70564533D01*
X259196657Y-70556485D01*
X259229419Y-70551625D01*
X259262500Y-70550000D01*
X259937500Y-70550000D01*
X259970581Y-70551625D01*
X259970581Y-70551625D01*
G37*
D22*
X259600000Y-71275000D03*
D21*
G36*
X266770581Y-70551625D02*
G01*
X266803343Y-70556485D01*
X266835471Y-70564533D01*
X266866656Y-70575691D01*
X266896596Y-70589852D01*
X266925005Y-70606879D01*
X266951608Y-70626609D01*
X266976149Y-70648851D01*
X266998391Y-70673392D01*
X267018121Y-70699995D01*
X267035148Y-70728404D01*
X267049309Y-70758344D01*
X267060467Y-70789529D01*
X267068515Y-70821657D01*
X267073375Y-70854419D01*
X267075000Y-70887500D01*
X267075000Y-71662500D01*
X267073375Y-71695581D01*
X267068515Y-71728343D01*
X267060467Y-71760471D01*
X267049309Y-71791656D01*
X267035148Y-71821596D01*
X267018121Y-71850005D01*
X266998391Y-71876608D01*
X266976149Y-71901149D01*
X266951608Y-71923391D01*
X266925005Y-71943121D01*
X266896596Y-71960148D01*
X266866656Y-71974309D01*
X266835471Y-71985467D01*
X266803343Y-71993515D01*
X266770581Y-71998375D01*
X266737500Y-72000000D01*
X266062500Y-72000000D01*
X266029419Y-71998375D01*
X265996657Y-71993515D01*
X265964529Y-71985467D01*
X265933344Y-71974309D01*
X265903404Y-71960148D01*
X265874995Y-71943121D01*
X265848392Y-71923391D01*
X265823851Y-71901149D01*
X265801609Y-71876608D01*
X265781879Y-71850005D01*
X265764852Y-71821596D01*
X265750691Y-71791656D01*
X265739533Y-71760471D01*
X265731485Y-71728343D01*
X265726625Y-71695581D01*
X265725000Y-71662500D01*
X265725000Y-70887500D01*
X265726625Y-70854419D01*
X265731485Y-70821657D01*
X265739533Y-70789529D01*
X265750691Y-70758344D01*
X265764852Y-70728404D01*
X265781879Y-70699995D01*
X265801609Y-70673392D01*
X265823851Y-70648851D01*
X265848392Y-70626609D01*
X265874995Y-70606879D01*
X265903404Y-70589852D01*
X265933344Y-70575691D01*
X265964529Y-70564533D01*
X265996657Y-70556485D01*
X266029419Y-70551625D01*
X266062500Y-70550000D01*
X266737500Y-70550000D01*
X266770581Y-70551625D01*
X266770581Y-70551625D01*
G37*
D22*
X266400000Y-71275000D03*
D21*
G36*
X266770581Y-68801625D02*
G01*
X266803343Y-68806485D01*
X266835471Y-68814533D01*
X266866656Y-68825691D01*
X266896596Y-68839852D01*
X266925005Y-68856879D01*
X266951608Y-68876609D01*
X266976149Y-68898851D01*
X266998391Y-68923392D01*
X267018121Y-68949995D01*
X267035148Y-68978404D01*
X267049309Y-69008344D01*
X267060467Y-69039529D01*
X267068515Y-69071657D01*
X267073375Y-69104419D01*
X267075000Y-69137500D01*
X267075000Y-69912500D01*
X267073375Y-69945581D01*
X267068515Y-69978343D01*
X267060467Y-70010471D01*
X267049309Y-70041656D01*
X267035148Y-70071596D01*
X267018121Y-70100005D01*
X266998391Y-70126608D01*
X266976149Y-70151149D01*
X266951608Y-70173391D01*
X266925005Y-70193121D01*
X266896596Y-70210148D01*
X266866656Y-70224309D01*
X266835471Y-70235467D01*
X266803343Y-70243515D01*
X266770581Y-70248375D01*
X266737500Y-70250000D01*
X266062500Y-70250000D01*
X266029419Y-70248375D01*
X265996657Y-70243515D01*
X265964529Y-70235467D01*
X265933344Y-70224309D01*
X265903404Y-70210148D01*
X265874995Y-70193121D01*
X265848392Y-70173391D01*
X265823851Y-70151149D01*
X265801609Y-70126608D01*
X265781879Y-70100005D01*
X265764852Y-70071596D01*
X265750691Y-70041656D01*
X265739533Y-70010471D01*
X265731485Y-69978343D01*
X265726625Y-69945581D01*
X265725000Y-69912500D01*
X265725000Y-69137500D01*
X265726625Y-69104419D01*
X265731485Y-69071657D01*
X265739533Y-69039529D01*
X265750691Y-69008344D01*
X265764852Y-68978404D01*
X265781879Y-68949995D01*
X265801609Y-68923392D01*
X265823851Y-68898851D01*
X265848392Y-68876609D01*
X265874995Y-68856879D01*
X265903404Y-68839852D01*
X265933344Y-68825691D01*
X265964529Y-68814533D01*
X265996657Y-68806485D01*
X266029419Y-68801625D01*
X266062500Y-68800000D01*
X266737500Y-68800000D01*
X266770581Y-68801625D01*
X266770581Y-68801625D01*
G37*
D22*
X266400000Y-69525000D03*
D21*
G36*
X18170581Y-70551625D02*
G01*
X18203343Y-70556485D01*
X18235471Y-70564533D01*
X18266656Y-70575691D01*
X18296596Y-70589852D01*
X18325005Y-70606879D01*
X18351608Y-70626609D01*
X18376149Y-70648851D01*
X18398391Y-70673392D01*
X18418121Y-70699995D01*
X18435148Y-70728404D01*
X18449309Y-70758344D01*
X18460467Y-70789529D01*
X18468515Y-70821657D01*
X18473375Y-70854419D01*
X18475000Y-70887500D01*
X18475000Y-71662500D01*
X18473375Y-71695581D01*
X18468515Y-71728343D01*
X18460467Y-71760471D01*
X18449309Y-71791656D01*
X18435148Y-71821596D01*
X18418121Y-71850005D01*
X18398391Y-71876608D01*
X18376149Y-71901149D01*
X18351608Y-71923391D01*
X18325005Y-71943121D01*
X18296596Y-71960148D01*
X18266656Y-71974309D01*
X18235471Y-71985467D01*
X18203343Y-71993515D01*
X18170581Y-71998375D01*
X18137500Y-72000000D01*
X17462500Y-72000000D01*
X17429419Y-71998375D01*
X17396657Y-71993515D01*
X17364529Y-71985467D01*
X17333344Y-71974309D01*
X17303404Y-71960148D01*
X17274995Y-71943121D01*
X17248392Y-71923391D01*
X17223851Y-71901149D01*
X17201609Y-71876608D01*
X17181879Y-71850005D01*
X17164852Y-71821596D01*
X17150691Y-71791656D01*
X17139533Y-71760471D01*
X17131485Y-71728343D01*
X17126625Y-71695581D01*
X17125000Y-71662500D01*
X17125000Y-70887500D01*
X17126625Y-70854419D01*
X17131485Y-70821657D01*
X17139533Y-70789529D01*
X17150691Y-70758344D01*
X17164852Y-70728404D01*
X17181879Y-70699995D01*
X17201609Y-70673392D01*
X17223851Y-70648851D01*
X17248392Y-70626609D01*
X17274995Y-70606879D01*
X17303404Y-70589852D01*
X17333344Y-70575691D01*
X17364529Y-70564533D01*
X17396657Y-70556485D01*
X17429419Y-70551625D01*
X17462500Y-70550000D01*
X18137500Y-70550000D01*
X18170581Y-70551625D01*
X18170581Y-70551625D01*
G37*
D22*
X17800000Y-71275000D03*
D21*
G36*
X18170581Y-68801625D02*
G01*
X18203343Y-68806485D01*
X18235471Y-68814533D01*
X18266656Y-68825691D01*
X18296596Y-68839852D01*
X18325005Y-68856879D01*
X18351608Y-68876609D01*
X18376149Y-68898851D01*
X18398391Y-68923392D01*
X18418121Y-68949995D01*
X18435148Y-68978404D01*
X18449309Y-69008344D01*
X18460467Y-69039529D01*
X18468515Y-69071657D01*
X18473375Y-69104419D01*
X18475000Y-69137500D01*
X18475000Y-69912500D01*
X18473375Y-69945581D01*
X18468515Y-69978343D01*
X18460467Y-70010471D01*
X18449309Y-70041656D01*
X18435148Y-70071596D01*
X18418121Y-70100005D01*
X18398391Y-70126608D01*
X18376149Y-70151149D01*
X18351608Y-70173391D01*
X18325005Y-70193121D01*
X18296596Y-70210148D01*
X18266656Y-70224309D01*
X18235471Y-70235467D01*
X18203343Y-70243515D01*
X18170581Y-70248375D01*
X18137500Y-70250000D01*
X17462500Y-70250000D01*
X17429419Y-70248375D01*
X17396657Y-70243515D01*
X17364529Y-70235467D01*
X17333344Y-70224309D01*
X17303404Y-70210148D01*
X17274995Y-70193121D01*
X17248392Y-70173391D01*
X17223851Y-70151149D01*
X17201609Y-70126608D01*
X17181879Y-70100005D01*
X17164852Y-70071596D01*
X17150691Y-70041656D01*
X17139533Y-70010471D01*
X17131485Y-69978343D01*
X17126625Y-69945581D01*
X17125000Y-69912500D01*
X17125000Y-69137500D01*
X17126625Y-69104419D01*
X17131485Y-69071657D01*
X17139533Y-69039529D01*
X17150691Y-69008344D01*
X17164852Y-68978404D01*
X17181879Y-68949995D01*
X17201609Y-68923392D01*
X17223851Y-68898851D01*
X17248392Y-68876609D01*
X17274995Y-68856879D01*
X17303404Y-68839852D01*
X17333344Y-68825691D01*
X17364529Y-68814533D01*
X17396657Y-68806485D01*
X17429419Y-68801625D01*
X17462500Y-68800000D01*
X18137500Y-68800000D01*
X18170581Y-68801625D01*
X18170581Y-68801625D01*
G37*
D22*
X17800000Y-69525000D03*
D21*
G36*
X11370581Y-70551625D02*
G01*
X11403343Y-70556485D01*
X11435471Y-70564533D01*
X11466656Y-70575691D01*
X11496596Y-70589852D01*
X11525005Y-70606879D01*
X11551608Y-70626609D01*
X11576149Y-70648851D01*
X11598391Y-70673392D01*
X11618121Y-70699995D01*
X11635148Y-70728404D01*
X11649309Y-70758344D01*
X11660467Y-70789529D01*
X11668515Y-70821657D01*
X11673375Y-70854419D01*
X11675000Y-70887500D01*
X11675000Y-71662500D01*
X11673375Y-71695581D01*
X11668515Y-71728343D01*
X11660467Y-71760471D01*
X11649309Y-71791656D01*
X11635148Y-71821596D01*
X11618121Y-71850005D01*
X11598391Y-71876608D01*
X11576149Y-71901149D01*
X11551608Y-71923391D01*
X11525005Y-71943121D01*
X11496596Y-71960148D01*
X11466656Y-71974309D01*
X11435471Y-71985467D01*
X11403343Y-71993515D01*
X11370581Y-71998375D01*
X11337500Y-72000000D01*
X10662500Y-72000000D01*
X10629419Y-71998375D01*
X10596657Y-71993515D01*
X10564529Y-71985467D01*
X10533344Y-71974309D01*
X10503404Y-71960148D01*
X10474995Y-71943121D01*
X10448392Y-71923391D01*
X10423851Y-71901149D01*
X10401609Y-71876608D01*
X10381879Y-71850005D01*
X10364852Y-71821596D01*
X10350691Y-71791656D01*
X10339533Y-71760471D01*
X10331485Y-71728343D01*
X10326625Y-71695581D01*
X10325000Y-71662500D01*
X10325000Y-70887500D01*
X10326625Y-70854419D01*
X10331485Y-70821657D01*
X10339533Y-70789529D01*
X10350691Y-70758344D01*
X10364852Y-70728404D01*
X10381879Y-70699995D01*
X10401609Y-70673392D01*
X10423851Y-70648851D01*
X10448392Y-70626609D01*
X10474995Y-70606879D01*
X10503404Y-70589852D01*
X10533344Y-70575691D01*
X10564529Y-70564533D01*
X10596657Y-70556485D01*
X10629419Y-70551625D01*
X10662500Y-70550000D01*
X11337500Y-70550000D01*
X11370581Y-70551625D01*
X11370581Y-70551625D01*
G37*
D22*
X11000000Y-71275000D03*
D21*
G36*
X11370581Y-68801625D02*
G01*
X11403343Y-68806485D01*
X11435471Y-68814533D01*
X11466656Y-68825691D01*
X11496596Y-68839852D01*
X11525005Y-68856879D01*
X11551608Y-68876609D01*
X11576149Y-68898851D01*
X11598391Y-68923392D01*
X11618121Y-68949995D01*
X11635148Y-68978404D01*
X11649309Y-69008344D01*
X11660467Y-69039529D01*
X11668515Y-69071657D01*
X11673375Y-69104419D01*
X11675000Y-69137500D01*
X11675000Y-69912500D01*
X11673375Y-69945581D01*
X11668515Y-69978343D01*
X11660467Y-70010471D01*
X11649309Y-70041656D01*
X11635148Y-70071596D01*
X11618121Y-70100005D01*
X11598391Y-70126608D01*
X11576149Y-70151149D01*
X11551608Y-70173391D01*
X11525005Y-70193121D01*
X11496596Y-70210148D01*
X11466656Y-70224309D01*
X11435471Y-70235467D01*
X11403343Y-70243515D01*
X11370581Y-70248375D01*
X11337500Y-70250000D01*
X10662500Y-70250000D01*
X10629419Y-70248375D01*
X10596657Y-70243515D01*
X10564529Y-70235467D01*
X10533344Y-70224309D01*
X10503404Y-70210148D01*
X10474995Y-70193121D01*
X10448392Y-70173391D01*
X10423851Y-70151149D01*
X10401609Y-70126608D01*
X10381879Y-70100005D01*
X10364852Y-70071596D01*
X10350691Y-70041656D01*
X10339533Y-70010471D01*
X10331485Y-69978343D01*
X10326625Y-69945581D01*
X10325000Y-69912500D01*
X10325000Y-69137500D01*
X10326625Y-69104419D01*
X10331485Y-69071657D01*
X10339533Y-69039529D01*
X10350691Y-69008344D01*
X10364852Y-68978404D01*
X10381879Y-68949995D01*
X10401609Y-68923392D01*
X10423851Y-68898851D01*
X10448392Y-68876609D01*
X10474995Y-68856879D01*
X10503404Y-68839852D01*
X10533344Y-68825691D01*
X10564529Y-68814533D01*
X10596657Y-68806485D01*
X10629419Y-68801625D01*
X10662500Y-68800000D01*
X11337500Y-68800000D01*
X11370581Y-68801625D01*
X11370581Y-68801625D01*
G37*
D22*
X11000000Y-69525000D03*
D21*
G36*
X250895581Y-63126625D02*
G01*
X250928343Y-63131485D01*
X250960471Y-63139533D01*
X250991656Y-63150691D01*
X251021596Y-63164852D01*
X251050005Y-63181879D01*
X251076608Y-63201609D01*
X251101149Y-63223851D01*
X251123391Y-63248392D01*
X251143121Y-63274995D01*
X251160148Y-63303404D01*
X251174309Y-63333344D01*
X251185467Y-63364529D01*
X251193515Y-63396657D01*
X251198375Y-63429419D01*
X251200000Y-63462500D01*
X251200000Y-64137500D01*
X251198375Y-64170581D01*
X251193515Y-64203343D01*
X251185467Y-64235471D01*
X251174309Y-64266656D01*
X251160148Y-64296596D01*
X251143121Y-64325005D01*
X251123391Y-64351608D01*
X251101149Y-64376149D01*
X251076608Y-64398391D01*
X251050005Y-64418121D01*
X251021596Y-64435148D01*
X250991656Y-64449309D01*
X250960471Y-64460467D01*
X250928343Y-64468515D01*
X250895581Y-64473375D01*
X250862500Y-64475000D01*
X250087500Y-64475000D01*
X250054419Y-64473375D01*
X250021657Y-64468515D01*
X249989529Y-64460467D01*
X249958344Y-64449309D01*
X249928404Y-64435148D01*
X249899995Y-64418121D01*
X249873392Y-64398391D01*
X249848851Y-64376149D01*
X249826609Y-64351608D01*
X249806879Y-64325005D01*
X249789852Y-64296596D01*
X249775691Y-64266656D01*
X249764533Y-64235471D01*
X249756485Y-64203343D01*
X249751625Y-64170581D01*
X249750000Y-64137500D01*
X249750000Y-63462500D01*
X249751625Y-63429419D01*
X249756485Y-63396657D01*
X249764533Y-63364529D01*
X249775691Y-63333344D01*
X249789852Y-63303404D01*
X249806879Y-63274995D01*
X249826609Y-63248392D01*
X249848851Y-63223851D01*
X249873392Y-63201609D01*
X249899995Y-63181879D01*
X249928404Y-63164852D01*
X249958344Y-63150691D01*
X249989529Y-63139533D01*
X250021657Y-63131485D01*
X250054419Y-63126625D01*
X250087500Y-63125000D01*
X250862500Y-63125000D01*
X250895581Y-63126625D01*
X250895581Y-63126625D01*
G37*
D22*
X250475000Y-63800000D03*
D21*
G36*
X249145581Y-63126625D02*
G01*
X249178343Y-63131485D01*
X249210471Y-63139533D01*
X249241656Y-63150691D01*
X249271596Y-63164852D01*
X249300005Y-63181879D01*
X249326608Y-63201609D01*
X249351149Y-63223851D01*
X249373391Y-63248392D01*
X249393121Y-63274995D01*
X249410148Y-63303404D01*
X249424309Y-63333344D01*
X249435467Y-63364529D01*
X249443515Y-63396657D01*
X249448375Y-63429419D01*
X249450000Y-63462500D01*
X249450000Y-64137500D01*
X249448375Y-64170581D01*
X249443515Y-64203343D01*
X249435467Y-64235471D01*
X249424309Y-64266656D01*
X249410148Y-64296596D01*
X249393121Y-64325005D01*
X249373391Y-64351608D01*
X249351149Y-64376149D01*
X249326608Y-64398391D01*
X249300005Y-64418121D01*
X249271596Y-64435148D01*
X249241656Y-64449309D01*
X249210471Y-64460467D01*
X249178343Y-64468515D01*
X249145581Y-64473375D01*
X249112500Y-64475000D01*
X248337500Y-64475000D01*
X248304419Y-64473375D01*
X248271657Y-64468515D01*
X248239529Y-64460467D01*
X248208344Y-64449309D01*
X248178404Y-64435148D01*
X248149995Y-64418121D01*
X248123392Y-64398391D01*
X248098851Y-64376149D01*
X248076609Y-64351608D01*
X248056879Y-64325005D01*
X248039852Y-64296596D01*
X248025691Y-64266656D01*
X248014533Y-64235471D01*
X248006485Y-64203343D01*
X248001625Y-64170581D01*
X248000000Y-64137500D01*
X248000000Y-63462500D01*
X248001625Y-63429419D01*
X248006485Y-63396657D01*
X248014533Y-63364529D01*
X248025691Y-63333344D01*
X248039852Y-63303404D01*
X248056879Y-63274995D01*
X248076609Y-63248392D01*
X248098851Y-63223851D01*
X248123392Y-63201609D01*
X248149995Y-63181879D01*
X248178404Y-63164852D01*
X248208344Y-63150691D01*
X248239529Y-63139533D01*
X248271657Y-63131485D01*
X248304419Y-63126625D01*
X248337500Y-63125000D01*
X249112500Y-63125000D01*
X249145581Y-63126625D01*
X249145581Y-63126625D01*
G37*
D22*
X248725000Y-63800000D03*
D21*
G36*
X37495581Y-63126625D02*
G01*
X37528343Y-63131485D01*
X37560471Y-63139533D01*
X37591656Y-63150691D01*
X37621596Y-63164852D01*
X37650005Y-63181879D01*
X37676608Y-63201609D01*
X37701149Y-63223851D01*
X37723391Y-63248392D01*
X37743121Y-63274995D01*
X37760148Y-63303404D01*
X37774309Y-63333344D01*
X37785467Y-63364529D01*
X37793515Y-63396657D01*
X37798375Y-63429419D01*
X37800000Y-63462500D01*
X37800000Y-64137500D01*
X37798375Y-64170581D01*
X37793515Y-64203343D01*
X37785467Y-64235471D01*
X37774309Y-64266656D01*
X37760148Y-64296596D01*
X37743121Y-64325005D01*
X37723391Y-64351608D01*
X37701149Y-64376149D01*
X37676608Y-64398391D01*
X37650005Y-64418121D01*
X37621596Y-64435148D01*
X37591656Y-64449309D01*
X37560471Y-64460467D01*
X37528343Y-64468515D01*
X37495581Y-64473375D01*
X37462500Y-64475000D01*
X36687500Y-64475000D01*
X36654419Y-64473375D01*
X36621657Y-64468515D01*
X36589529Y-64460467D01*
X36558344Y-64449309D01*
X36528404Y-64435148D01*
X36499995Y-64418121D01*
X36473392Y-64398391D01*
X36448851Y-64376149D01*
X36426609Y-64351608D01*
X36406879Y-64325005D01*
X36389852Y-64296596D01*
X36375691Y-64266656D01*
X36364533Y-64235471D01*
X36356485Y-64203343D01*
X36351625Y-64170581D01*
X36350000Y-64137500D01*
X36350000Y-63462500D01*
X36351625Y-63429419D01*
X36356485Y-63396657D01*
X36364533Y-63364529D01*
X36375691Y-63333344D01*
X36389852Y-63303404D01*
X36406879Y-63274995D01*
X36426609Y-63248392D01*
X36448851Y-63223851D01*
X36473392Y-63201609D01*
X36499995Y-63181879D01*
X36528404Y-63164852D01*
X36558344Y-63150691D01*
X36589529Y-63139533D01*
X36621657Y-63131485D01*
X36654419Y-63126625D01*
X36687500Y-63125000D01*
X37462500Y-63125000D01*
X37495581Y-63126625D01*
X37495581Y-63126625D01*
G37*
D22*
X37075000Y-63800000D03*
D21*
G36*
X35745581Y-63126625D02*
G01*
X35778343Y-63131485D01*
X35810471Y-63139533D01*
X35841656Y-63150691D01*
X35871596Y-63164852D01*
X35900005Y-63181879D01*
X35926608Y-63201609D01*
X35951149Y-63223851D01*
X35973391Y-63248392D01*
X35993121Y-63274995D01*
X36010148Y-63303404D01*
X36024309Y-63333344D01*
X36035467Y-63364529D01*
X36043515Y-63396657D01*
X36048375Y-63429419D01*
X36050000Y-63462500D01*
X36050000Y-64137500D01*
X36048375Y-64170581D01*
X36043515Y-64203343D01*
X36035467Y-64235471D01*
X36024309Y-64266656D01*
X36010148Y-64296596D01*
X35993121Y-64325005D01*
X35973391Y-64351608D01*
X35951149Y-64376149D01*
X35926608Y-64398391D01*
X35900005Y-64418121D01*
X35871596Y-64435148D01*
X35841656Y-64449309D01*
X35810471Y-64460467D01*
X35778343Y-64468515D01*
X35745581Y-64473375D01*
X35712500Y-64475000D01*
X34937500Y-64475000D01*
X34904419Y-64473375D01*
X34871657Y-64468515D01*
X34839529Y-64460467D01*
X34808344Y-64449309D01*
X34778404Y-64435148D01*
X34749995Y-64418121D01*
X34723392Y-64398391D01*
X34698851Y-64376149D01*
X34676609Y-64351608D01*
X34656879Y-64325005D01*
X34639852Y-64296596D01*
X34625691Y-64266656D01*
X34614533Y-64235471D01*
X34606485Y-64203343D01*
X34601625Y-64170581D01*
X34600000Y-64137500D01*
X34600000Y-63462500D01*
X34601625Y-63429419D01*
X34606485Y-63396657D01*
X34614533Y-63364529D01*
X34625691Y-63333344D01*
X34639852Y-63303404D01*
X34656879Y-63274995D01*
X34676609Y-63248392D01*
X34698851Y-63223851D01*
X34723392Y-63201609D01*
X34749995Y-63181879D01*
X34778404Y-63164852D01*
X34808344Y-63150691D01*
X34839529Y-63139533D01*
X34871657Y-63131485D01*
X34904419Y-63126625D01*
X34937500Y-63125000D01*
X35712500Y-63125000D01*
X35745581Y-63126625D01*
X35745581Y-63126625D01*
G37*
D22*
X35325000Y-63800000D03*
D26*
X13300000Y-69450000D03*
X13300000Y-70400000D03*
X13300000Y-71350000D03*
X15500000Y-71350000D03*
X15500000Y-69450000D03*
D27*
X149515167Y-80294245D03*
X150047871Y-81447123D03*
X151645984Y-84905755D03*
X151113280Y-83752878D03*
X150580575Y-82600000D03*
X144050000Y-53147981D03*
X144050000Y-54417981D03*
X144050000Y-58227981D03*
X144050000Y-56957981D03*
X144050000Y-55687981D03*
X144050000Y-26703750D03*
X144050000Y-27973750D03*
X144050000Y-31783750D03*
X144050000Y-30513750D03*
X144050000Y-29243750D03*
X125754016Y-84905755D03*
X126286720Y-83752878D03*
X127884833Y-80294245D03*
X127352129Y-81447123D03*
X126819425Y-82600000D03*
X133350000Y-58227981D03*
X133350000Y-56957981D03*
X133350000Y-53147981D03*
X133350000Y-54417981D03*
X133350000Y-55687981D03*
X133350000Y-31783750D03*
X133350000Y-30513750D03*
X133350000Y-26703750D03*
X133350000Y-27973750D03*
X133350000Y-29243750D03*
D24*
X262900000Y-67300000D03*
X264900000Y-67300000D03*
X260900000Y-67300000D03*
X12500000Y-67300000D03*
X14500000Y-67300000D03*
X10500000Y-67300000D03*
D15*
X256400000Y-70180000D03*
D16*
X256400000Y-72720000D03*
X256400000Y-75260000D03*
D17*
X256400000Y-77800000D03*
D14*
X272955000Y-57150000D03*
X262795000Y-57150000D03*
D13*
X267875000Y-57150000D03*
D14*
X128905000Y-45243750D03*
X118745000Y-45243750D03*
D13*
X123825000Y-45243750D03*
D14*
X185151074Y-73706366D03*
X175292870Y-76164292D03*
D13*
X180221972Y-74935329D03*
D14*
X14605000Y-19050000D03*
X4445000Y-19050000D03*
D13*
X9525000Y-19050000D03*
D14*
X33655000Y-19050000D03*
X23495000Y-19050000D03*
D13*
X28575000Y-19050000D03*
D14*
X90805000Y-14287499D03*
X80645000Y-14287499D03*
D13*
X85725000Y-14287499D03*
D14*
X109855000Y-16668750D03*
X99695000Y-16668750D03*
D13*
X104775000Y-16668750D03*
D14*
X14605000Y-38100000D03*
X4445000Y-38100000D03*
D13*
X9525000Y-38100000D03*
D14*
X33655000Y-38100000D03*
X23495000Y-38100000D03*
D13*
X28575000Y-38100000D03*
D14*
X52705000Y-32146875D03*
X42545000Y-32146875D03*
D13*
X47625000Y-32146875D03*
D14*
X71755000Y-28575000D03*
X61595000Y-28575000D03*
D13*
X66675000Y-28575000D03*
D14*
X90805000Y-33337500D03*
X80645000Y-33337500D03*
D13*
X85725000Y-33337500D03*
D14*
X109855000Y-35718750D03*
X99695000Y-35718750D03*
D13*
X104775000Y-35718750D03*
D14*
X128905000Y-26193750D03*
X118745000Y-26193750D03*
D13*
X123825000Y-26193750D03*
D14*
X33655000Y-57150000D03*
X23495000Y-57150000D03*
D13*
X28575000Y-57150000D03*
D14*
X71755000Y-47625000D03*
X61595000Y-47625000D03*
D13*
X66675000Y-47625000D03*
D14*
X90805000Y-52387500D03*
X80645000Y-52387500D03*
D13*
X85725000Y-52387500D03*
D14*
X109855000Y-54768750D03*
X99695000Y-54768750D03*
D13*
X104775000Y-54768750D03*
D14*
X102107129Y-76164292D03*
X92248925Y-73706366D03*
D13*
X97178027Y-74935329D03*
D14*
X272955000Y-19050000D03*
X262795000Y-19050000D03*
D13*
X267875000Y-19050000D03*
D14*
X253905000Y-19050000D03*
X243745000Y-19050000D03*
D13*
X248825000Y-19050000D03*
D14*
X234855000Y-13096875D03*
X224695000Y-13096875D03*
D13*
X229775000Y-13096875D03*
D14*
X215805000Y-9525000D03*
X205645000Y-9525000D03*
D13*
X210725000Y-9525000D03*
D14*
X196755000Y-14287499D03*
X186595000Y-14287499D03*
D13*
X191675000Y-14287499D03*
D14*
X177705000Y-16668750D03*
X167545000Y-16668750D03*
D13*
X172625000Y-16668750D03*
D14*
X272955000Y-38100000D03*
X262795000Y-38100000D03*
D13*
X267875000Y-38100000D03*
D14*
X253905000Y-38100000D03*
X243745000Y-38100000D03*
D13*
X248825000Y-38100000D03*
D14*
X234855000Y-32146875D03*
X224695000Y-32146875D03*
D13*
X229775000Y-32146875D03*
D14*
X215805000Y-28575000D03*
X205645000Y-28575000D03*
D13*
X210725000Y-28575000D03*
D14*
X196755000Y-33337500D03*
X186595000Y-33337500D03*
D13*
X191675000Y-33337500D03*
D14*
X177705000Y-35718750D03*
X167545000Y-35718750D03*
D13*
X172625000Y-35718750D03*
D14*
X158655000Y-26193750D03*
X148495000Y-26193750D03*
D13*
X153575000Y-26193750D03*
D14*
X234855000Y-51196875D03*
X224695000Y-51196875D03*
D13*
X229775000Y-51196875D03*
D14*
X215805000Y-47625000D03*
X205645000Y-47625000D03*
D13*
X210725000Y-47625000D03*
D14*
X196755000Y-52387500D03*
X186595000Y-52387500D03*
D13*
X191675000Y-52387500D03*
D14*
X177705000Y-54768750D03*
X167545000Y-54768750D03*
D13*
X172625000Y-54768750D03*
D14*
X158655000Y-45243750D03*
X148495000Y-45243750D03*
D13*
X153575000Y-45243750D03*
D14*
X52705000Y-13096875D03*
X42545000Y-13096875D03*
D13*
X47625000Y-13096875D03*
D14*
X71755000Y-9525000D03*
X61595000Y-9525000D03*
D13*
X66675000Y-9525000D03*
D14*
X79678221Y-71794564D03*
X69558443Y-70891398D03*
D13*
X74618332Y-71342981D03*
D14*
X232473750Y-70246875D03*
X222313750Y-70246875D03*
D13*
X227393750Y-70246875D03*
D14*
X207841556Y-70891398D03*
X197721778Y-71794564D03*
D13*
X202781667Y-71342981D03*
D14*
X120848948Y-72841079D03*
X116603418Y-82071523D03*
D13*
X118726183Y-77456301D03*
D26*
X261900000Y-71350000D03*
X261900000Y-69450000D03*
X264100000Y-69450000D03*
X264100000Y-70400000D03*
X264100000Y-71350000D03*
M02*
