M48
; DRILL file {KiCad (5.1.4)-1} date 2019/10/20 1:49:09
; FORMAT={-:-/ absolute / metric / decimal}
; #@! TF.CreationDate,2019-10-20T01:49:09+09:00
; #@! TF.GenerationSoftware,Kicad,Pcbnew,(5.1.4)-1
; #@! TF.FileFunction,Plated,1,2,PTH
FMAT,2
METRIC
T1C0.300
T2C0.500
T3C0.600
T4C0.750
T5C0.850
T6C1.470
%
G90
G05
T1
X5.3Y-65.175
X17.1Y-72.9
X19.3Y-67.8
X25.9Y-66.85
X28.9Y-67.8
X34.3Y-67.7
X38.8Y-74.4
X39.1Y-64.5
X238.8Y-78.05
X238.9Y-66.15
X242.3Y-74.4
X242.75Y-67.75
X243.25Y-73.65
X244.3Y-72.9
X246.85Y-67.1
X251.1Y-65.3
X252.1Y-72.9
X258.28Y-67.13
X258.89Y-73.99
X272.125Y-65.175
T2
X34.7Y-63.1
X255.0Y-64.1
T3
X260.9Y-67.3
X262.9Y-67.3
X264.9Y-67.3
X10.5Y-67.3
X12.5Y-67.3
X14.5Y-67.3
T4
X13.5Y-75.25
X13.5Y-77.25
X263.9Y-75.25
X263.9Y-77.25
T5
X21.0Y-70.18
X21.0Y-72.72
X21.0Y-75.26
X21.0Y-77.8
X256.4Y-70.18
X256.4Y-72.72
X256.4Y-75.26
X256.4Y-77.8
T6
X5.715Y-54.61
X12.065Y-52.07
X62.865Y-6.985
X69.215Y-4.445
X168.815Y-52.229
X175.165Y-49.689
X159.389Y-72.934
X164.35Y-77.641
X168.815Y-14.129
X175.165Y-11.589
X100.965Y-14.129
X107.315Y-11.589
X168.815Y-33.179
X175.165Y-30.639
X81.915Y-49.847
X88.265Y-47.307
X187.865Y-49.847
X194.215Y-47.307
X100.965Y-52.229
X107.315Y-49.689
X245.015Y-35.56
X251.365Y-33.02
X62.865Y-45.085
X69.215Y-42.545
X245.015Y-54.61
X251.365Y-52.07
X24.765Y-54.61
X31.115Y-52.07
X120.015Y-42.704
X126.365Y-40.164
X81.915Y-30.797
X88.265Y-28.258
X198.761Y-69.152
X204.86Y-66.057
X5.715Y-16.51
X12.065Y-13.97
X225.965Y-29.607
X232.315Y-27.067
X264.065Y-35.56
X270.415Y-33.02
X71.049Y-68.474
X77.6Y-66.509
X24.765Y-16.51
X31.115Y-13.97
X225.965Y-48.657
X232.315Y-46.117
X81.915Y-11.747
X88.265Y-9.207
X187.865Y-30.797
X194.215Y-28.258
X114.826Y-79.856
X115.172Y-73.026
X264.065Y-16.51
X270.415Y-13.97
X149.765Y-42.704
X156.115Y-40.164
X24.765Y-35.56
X31.115Y-33.02
X245.015Y-16.51
X251.365Y-13.97
X264.065Y-54.61
X270.415Y-52.07
X43.815Y-29.607
X50.165Y-27.067
X175.911Y-73.392
X181.458Y-69.392
X43.815Y-48.657
X50.165Y-46.117
X46.196Y-67.707
X52.546Y-65.167
X43.815Y-10.557
X50.165Y-8.017
X149.765Y-23.654
X156.115Y-21.114
X206.915Y-6.985
X213.265Y-4.445
X5.715Y-35.56
X12.065Y-33.02
X206.915Y-45.085
X213.265Y-42.545
X100.965Y-33.179
X107.315Y-30.639
X206.915Y-26.035
X213.265Y-23.495
X120.015Y-23.654
X126.365Y-21.114
X187.865Y-11.747
X194.215Y-9.207
X94.096Y-71.549
X100.872Y-70.621
X225.965Y-10.557
X232.315Y-8.017
X62.865Y-26.035
X69.215Y-23.495
X223.584Y-67.707
X229.934Y-65.167
T0
M30
