M48
; DRILL file {KiCad (5.1.4)-1} date 12/22/19 18:43:05
; FORMAT={-:-/ absolute / metric / decimal}
; #@! TF.CreationDate,2019-12-22T18:43:05+09:00
; #@! TF.GenerationSoftware,Kicad,Pcbnew,(5.1.4)-1
; #@! TF.FileFunction,Plated,1,2,PTH
FMAT,2
METRIC
T1C0.300
T2C0.500
T3C0.600
T4C0.750
T5C0.850
T6C1.470
%
G90
G05
T1
X5.3Y-83.175
X17.1Y-90.9
X19.3Y-85.8
X25.9Y-84.85
X28.9Y-85.8
X34.3Y-85.7
X38.8Y-92.4
X39.1Y-82.5
X238.8Y-96.05
X238.9Y-84.15
X242.3Y-92.4
X242.75Y-85.75
X243.25Y-91.65
X244.3Y-90.9
X246.85Y-85.1
X251.1Y-83.3
X252.1Y-90.9
X258.28Y-85.13
X258.89Y-91.99
X272.125Y-83.175
T2
X34.7Y-81.1
X255.0Y-82.1
T3
X260.9Y-85.3
X262.9Y-85.3
X264.9Y-85.3
X10.5Y-85.3
X12.5Y-85.3
X14.5Y-85.3
T4
X13.5Y-93.25
X13.5Y-95.25
X263.9Y-93.25
X263.9Y-95.25
T5
X256.4Y-88.18
X256.4Y-90.72
X256.4Y-93.26
X256.4Y-95.8
X21.0Y-88.18
X21.0Y-90.72
X21.0Y-93.26
X21.0Y-95.8
T6
X43.815Y-28.557
X50.165Y-26.017
X187.865Y-29.747
X194.215Y-27.207
X120.015Y-60.704
X126.365Y-58.164
X245.015Y-53.56
X251.365Y-51.02
X24.765Y-53.56
X31.115Y-51.02
X100.965Y-51.179
X107.315Y-48.639
X225.965Y-66.657
X232.315Y-64.117
X245.015Y-72.61
X251.365Y-70.07
X100.965Y-70.229
X107.315Y-67.689
X168.815Y-70.229
X175.165Y-67.689
X94.096Y-89.549
X100.872Y-88.621
X81.915Y-67.847
X88.265Y-65.307
X81.915Y-29.747
X88.265Y-27.207
X187.865Y-67.847
X194.215Y-65.307
X264.065Y-53.56
X270.415Y-51.02
X175.911Y-91.392
X181.458Y-87.392
X206.915Y-44.035
X213.265Y-41.495
X24.765Y-34.51
X31.115Y-31.97
X43.815Y-47.607
X50.165Y-45.067
X62.865Y-24.985
X69.215Y-22.445
X24.765Y-72.61
X31.115Y-70.07
X206.915Y-24.985
X213.265Y-22.445
X100.965Y-32.129
X107.315Y-29.589
X71.049Y-86.474
X77.6Y-84.509
X264.065Y-34.51
X270.415Y-31.97
X120.015Y-41.654
X126.365Y-39.114
X5.715Y-72.61
X12.065Y-70.07
X168.815Y-51.179
X175.165Y-48.639
X149.765Y-41.654
X156.115Y-39.114
X159.389Y-90.934
X164.35Y-95.641
X187.865Y-48.797
X194.215Y-46.258
X264.065Y-72.61
X270.415Y-70.07
X114.826Y-97.856
X115.172Y-91.026
X223.584Y-85.707
X229.934Y-83.167
X5.715Y-34.51
X12.065Y-31.97
X168.815Y-32.129
X175.165Y-29.589
X5.715Y-53.56
X12.065Y-51.02
X206.915Y-63.085
X213.265Y-60.545
X81.915Y-48.797
X88.265Y-46.258
X46.196Y-85.707
X52.546Y-83.167
X225.965Y-47.607
X232.315Y-45.067
X62.865Y-63.085
X69.215Y-60.545
X43.815Y-66.657
X50.165Y-64.117
X149.765Y-60.704
X156.115Y-58.164
X62.865Y-44.035
X69.215Y-41.495
X198.761Y-87.152
X204.86Y-84.057
X225.965Y-28.557
X232.315Y-26.017
X245.015Y-34.51
X251.365Y-31.97
T0
M30
