G04 #@! TF.GenerationSoftware,KiCad,Pcbnew,(5.1.4)-1*
G04 #@! TF.CreationDate,2019-10-20T01:49:06+09:00*
G04 #@! TF.ProjectId,caravelle,63617261-7665-46c6-9c65-2e6b69636164,rev?*
G04 #@! TF.SameCoordinates,PX2faf080PY2faf080*
G04 #@! TF.FileFunction,Legend,Top*
G04 #@! TF.FilePolarity,Positive*
%FSLAX46Y46*%
G04 Gerber Fmt 4.6, Leading zero omitted, Abs format (unit mm)*
G04 Created by KiCad (PCBNEW (5.1.4)-1) date 2019-10-20 01:49:06*
%MOMM*%
%LPD*%
G04 APERTURE LIST*
%ADD10C,0.150000*%
%ADD11C,0.120000*%
%ADD12C,0.500000*%
%ADD13R,1.600000X0.900000*%
%ADD14R,0.900000X1.600000*%
%ADD15C,1.600000*%
%ADD16C,4.387800*%
%ADD17C,2.150000*%
%ADD18R,2.100000X2.100000*%
%ADD19O,2.100000X2.100000*%
%ADD20C,2.100000*%
%ADD21R,1.650000X1.250000*%
%ADD22O,2.150000X1.600000*%
%ADD23C,0.100000*%
%ADD24C,1.350000*%
%ADD25C,1.187400*%
G04 APERTURE END LIST*
D10*
X9738095Y-68561904D02*
X9890476Y-68561904D01*
X9966666Y-68600000D01*
X10042857Y-68676190D01*
X10080952Y-68828571D01*
X10080952Y-69095238D01*
X10042857Y-69247619D01*
X9966666Y-69323809D01*
X9890476Y-69361904D01*
X9738095Y-69361904D01*
X9661904Y-69323809D01*
X9585714Y-69247619D01*
X9547619Y-69095238D01*
X9547619Y-68828571D01*
X9585714Y-68676190D01*
X9661904Y-68600000D01*
X9738095Y-68561904D01*
X10690476Y-68942857D02*
X10423809Y-68942857D01*
X10423809Y-69361904D02*
X10423809Y-68561904D01*
X10804761Y-68561904D01*
X11376190Y-68942857D02*
X11109523Y-68942857D01*
X11109523Y-69361904D02*
X11109523Y-68561904D01*
X11490476Y-68561904D01*
X16004761Y-68561904D02*
X16157142Y-68561904D01*
X16233333Y-68600000D01*
X16309523Y-68676190D01*
X16347619Y-68828571D01*
X16347619Y-69095238D01*
X16309523Y-69247619D01*
X16233333Y-69323809D01*
X16157142Y-69361904D01*
X16004761Y-69361904D01*
X15928571Y-69323809D01*
X15852380Y-69247619D01*
X15814285Y-69095238D01*
X15814285Y-68828571D01*
X15852380Y-68676190D01*
X15928571Y-68600000D01*
X16004761Y-68561904D01*
X16690476Y-69361904D02*
X16690476Y-68561904D01*
X17147619Y-69361904D01*
X17147619Y-68561904D01*
X266504761Y-68561904D02*
X266657142Y-68561904D01*
X266733333Y-68600000D01*
X266809523Y-68676190D01*
X266847619Y-68828571D01*
X266847619Y-69095238D01*
X266809523Y-69247619D01*
X266733333Y-69323809D01*
X266657142Y-69361904D01*
X266504761Y-69361904D01*
X266428571Y-69323809D01*
X266352380Y-69247619D01*
X266314285Y-69095238D01*
X266314285Y-68828571D01*
X266352380Y-68676190D01*
X266428571Y-68600000D01*
X266504761Y-68561904D01*
X267190476Y-69361904D02*
X267190476Y-68561904D01*
X267647619Y-69361904D01*
X267647619Y-68561904D01*
X260238095Y-68561904D02*
X260390476Y-68561904D01*
X260466666Y-68600000D01*
X260542857Y-68676190D01*
X260580952Y-68828571D01*
X260580952Y-69095238D01*
X260542857Y-69247619D01*
X260466666Y-69323809D01*
X260390476Y-69361904D01*
X260238095Y-69361904D01*
X260161904Y-69323809D01*
X260085714Y-69247619D01*
X260047619Y-69095238D01*
X260047619Y-68828571D01*
X260085714Y-68676190D01*
X260161904Y-68600000D01*
X260238095Y-68561904D01*
X261190476Y-68942857D02*
X260923809Y-68942857D01*
X260923809Y-69361904D02*
X260923809Y-68561904D01*
X261304761Y-68561904D01*
X261876190Y-68942857D02*
X261609523Y-68942857D01*
X261609523Y-69361904D02*
X261609523Y-68561904D01*
X261990476Y-68561904D01*
D11*
X250557000Y-65327000D02*
X249668000Y-65327000D01*
X240143000Y-65581000D02*
X240143000Y-65327000D01*
X240143000Y-65327000D02*
X241032000Y-65327000D01*
X250557000Y-65327000D02*
X250557000Y-65581000D01*
X240143000Y-79551000D02*
X240143000Y-78027000D01*
X240143000Y-78027000D02*
X239508000Y-78027000D01*
X239508000Y-78027000D02*
X239508000Y-77138000D01*
X250557000Y-74979000D02*
X250557000Y-79551000D01*
X37257000Y-65327000D02*
X36368000Y-65327000D01*
X26843000Y-65581000D02*
X26843000Y-65327000D01*
X26843000Y-65327000D02*
X27732000Y-65327000D01*
X37257000Y-65327000D02*
X37257000Y-65581000D01*
X26843000Y-79551000D02*
X26843000Y-78027000D01*
X26843000Y-78027000D02*
X26208000Y-78027000D01*
X26208000Y-78027000D02*
X26208000Y-77138000D01*
X37257000Y-74979000D02*
X37257000Y-79551000D01*
X22270000Y-79070000D02*
X21000000Y-79070000D01*
X22270000Y-77800000D02*
X22270000Y-79070000D01*
X274300000Y-64550000D02*
X269900000Y-64550000D01*
X269900000Y-64550000D02*
X269900000Y-64670000D01*
X269900000Y-65680000D02*
X269900000Y-66820000D01*
X269900000Y-67830000D02*
X269900000Y-67950000D01*
X269900000Y-67950000D02*
X274300000Y-67950000D01*
X274300000Y-67950000D02*
X274300000Y-67830000D01*
X274300000Y-66820000D02*
X274300000Y-65680000D01*
X274300000Y-64670000D02*
X274300000Y-64550000D01*
X7500000Y-64550000D02*
X3100000Y-64550000D01*
X3100000Y-64550000D02*
X3100000Y-64670000D01*
X3100000Y-65680000D02*
X3100000Y-66820000D01*
X3100000Y-67830000D02*
X3100000Y-67950000D01*
X3100000Y-67950000D02*
X7500000Y-67950000D01*
X7500000Y-67950000D02*
X7500000Y-67830000D01*
X7500000Y-66820000D02*
X7500000Y-65680000D01*
X7500000Y-64670000D02*
X7500000Y-64550000D01*
X264040000Y-78110000D02*
X262825000Y-78110000D01*
X268000000Y-78050000D02*
X270260000Y-78050000D01*
X268000000Y-77550000D02*
X270260000Y-77550000D01*
X266400000Y-74950000D02*
X266400000Y-73950000D01*
X268000000Y-74950000D02*
X266400000Y-74950000D01*
X268000000Y-73950000D02*
X268000000Y-74950000D01*
X266400000Y-73950000D02*
X268000000Y-73950000D01*
X266400000Y-77550000D02*
X266400000Y-78550000D01*
X268000000Y-77550000D02*
X266400000Y-77550000D01*
X268000000Y-78550000D02*
X268000000Y-77550000D01*
X266400000Y-78550000D02*
X268000000Y-78550000D01*
X264040000Y-73190000D02*
X264040000Y-74110000D01*
X264040000Y-79310000D02*
X264040000Y-78390000D01*
X265900000Y-75750000D02*
X270260000Y-75750000D01*
X265900000Y-76750000D02*
X265900000Y-75750000D01*
X270260000Y-76750000D02*
X265900000Y-76750000D01*
X264040000Y-74110000D02*
X264040000Y-74390000D01*
X262440000Y-74110000D02*
X264040000Y-74110000D01*
X262440000Y-73190000D02*
X262440000Y-74110000D01*
X270260000Y-73190000D02*
X262440000Y-73190000D01*
X270260000Y-79310000D02*
X270260000Y-73190000D01*
X262440000Y-79310000D02*
X270260000Y-79310000D01*
X262440000Y-78390000D02*
X262440000Y-79310000D01*
X264040000Y-78390000D02*
X262440000Y-78390000D01*
X264040000Y-78110000D02*
X264040000Y-78390000D01*
X13360000Y-74390000D02*
X14575000Y-74390000D01*
X9400000Y-74450000D02*
X7140000Y-74450000D01*
X9400000Y-74950000D02*
X7140000Y-74950000D01*
X11000000Y-77550000D02*
X11000000Y-78550000D01*
X9400000Y-77550000D02*
X11000000Y-77550000D01*
X9400000Y-78550000D02*
X9400000Y-77550000D01*
X11000000Y-78550000D02*
X9400000Y-78550000D01*
X11000000Y-74950000D02*
X11000000Y-73950000D01*
X9400000Y-74950000D02*
X11000000Y-74950000D01*
X9400000Y-73950000D02*
X9400000Y-74950000D01*
X11000000Y-73950000D02*
X9400000Y-73950000D01*
X13360000Y-79310000D02*
X13360000Y-78390000D01*
X13360000Y-73190000D02*
X13360000Y-74110000D01*
X11500000Y-76750000D02*
X7140000Y-76750000D01*
X11500000Y-75750000D02*
X11500000Y-76750000D01*
X7140000Y-75750000D02*
X11500000Y-75750000D01*
X13360000Y-78390000D02*
X13360000Y-78110000D01*
X14960000Y-78390000D02*
X13360000Y-78390000D01*
X14960000Y-79310000D02*
X14960000Y-78390000D01*
X7140000Y-79310000D02*
X14960000Y-79310000D01*
X7140000Y-73190000D02*
X7140000Y-79310000D01*
X14960000Y-73190000D02*
X7140000Y-73190000D01*
X14960000Y-74110000D02*
X14960000Y-73190000D01*
X13360000Y-74110000D02*
X14960000Y-74110000D01*
X13360000Y-74390000D02*
X13360000Y-74110000D01*
X253371267Y-64590000D02*
X253028733Y-64590000D01*
X253371267Y-65610000D02*
X253028733Y-65610000D01*
X37828733Y-63810000D02*
X38171267Y-63810000D01*
X37828733Y-62790000D02*
X38171267Y-62790000D01*
X257670000Y-79070000D02*
X256400000Y-79070000D01*
X257670000Y-77800000D02*
X257670000Y-79070000D01*
D10*
X237817380Y-72311904D02*
X238626904Y-72311904D01*
X238722142Y-72264285D01*
X238769761Y-72216666D01*
X238817380Y-72121428D01*
X238817380Y-71930952D01*
X238769761Y-71835714D01*
X238722142Y-71788095D01*
X238626904Y-71740476D01*
X237817380Y-71740476D01*
X237817380Y-70788095D02*
X237817380Y-71264285D01*
X238293571Y-71311904D01*
X238245952Y-71264285D01*
X238198333Y-71169047D01*
X238198333Y-70930952D01*
X238245952Y-70835714D01*
X238293571Y-70788095D01*
X238388809Y-70740476D01*
X238626904Y-70740476D01*
X238722142Y-70788095D01*
X238769761Y-70835714D01*
X238817380Y-70930952D01*
X238817380Y-71169047D01*
X238769761Y-71264285D01*
X238722142Y-71311904D01*
X24517380Y-72311904D02*
X25326904Y-72311904D01*
X25422142Y-72264285D01*
X25469761Y-72216666D01*
X25517380Y-72121428D01*
X25517380Y-71930952D01*
X25469761Y-71835714D01*
X25422142Y-71788095D01*
X25326904Y-71740476D01*
X24517380Y-71740476D01*
X25517380Y-70740476D02*
X25517380Y-71311904D01*
X25517380Y-71026190D02*
X24517380Y-71026190D01*
X24660238Y-71121428D01*
X24755476Y-71216666D01*
X24803095Y-71311904D01*
X262566666Y-64904761D02*
X262709523Y-64952380D01*
X262947619Y-64952380D01*
X263042857Y-64904761D01*
X263090476Y-64857142D01*
X263138095Y-64761904D01*
X263138095Y-64666666D01*
X263090476Y-64571428D01*
X263042857Y-64523809D01*
X262947619Y-64476190D01*
X262757142Y-64428571D01*
X262661904Y-64380952D01*
X262614285Y-64333333D01*
X262566666Y-64238095D01*
X262566666Y-64142857D01*
X262614285Y-64047619D01*
X262661904Y-64000000D01*
X262757142Y-63952380D01*
X262995238Y-63952380D01*
X263138095Y-64000000D01*
X263471428Y-63952380D02*
X263709523Y-64952380D01*
X263900000Y-64238095D01*
X264090476Y-64952380D01*
X264328571Y-63952380D01*
X264661904Y-64047619D02*
X264709523Y-64000000D01*
X264804761Y-63952380D01*
X265042857Y-63952380D01*
X265138095Y-64000000D01*
X265185714Y-64047619D01*
X265233333Y-64142857D01*
X265233333Y-64238095D01*
X265185714Y-64380952D01*
X264614285Y-64952380D01*
X265233333Y-64952380D01*
D12*
X161247619Y-64585714D02*
X161009523Y-64823809D01*
X160295238Y-65061904D01*
X159819047Y-65061904D01*
X159104761Y-64823809D01*
X158628571Y-64347619D01*
X158390476Y-63871428D01*
X158152380Y-62919047D01*
X158152380Y-62204761D01*
X158390476Y-61252380D01*
X158628571Y-60776190D01*
X159104761Y-60300000D01*
X159819047Y-60061904D01*
X160295238Y-60061904D01*
X161009523Y-60300000D01*
X161247619Y-60538095D01*
X163152380Y-63633333D02*
X165533333Y-63633333D01*
X162676190Y-65061904D02*
X164342857Y-60061904D01*
X166009523Y-65061904D01*
X170533333Y-65061904D02*
X168866666Y-62680952D01*
X167676190Y-65061904D02*
X167676190Y-60061904D01*
X169580952Y-60061904D01*
X170057142Y-60300000D01*
X170295238Y-60538095D01*
X170533333Y-61014285D01*
X170533333Y-61728571D01*
X170295238Y-62204761D01*
X170057142Y-62442857D01*
X169580952Y-62680952D01*
X167676190Y-62680952D01*
X172438095Y-63633333D02*
X174819047Y-63633333D01*
X171961904Y-65061904D02*
X173628571Y-60061904D01*
X175295238Y-65061904D01*
X176247619Y-60061904D02*
X177914285Y-65061904D01*
X179580952Y-60061904D01*
X181247619Y-62442857D02*
X182914285Y-62442857D01*
X183628571Y-65061904D02*
X181247619Y-65061904D01*
X181247619Y-60061904D01*
X183628571Y-60061904D01*
X188152380Y-65061904D02*
X185771428Y-65061904D01*
X185771428Y-60061904D01*
X192200000Y-65061904D02*
X189819047Y-65061904D01*
X189819047Y-60061904D01*
X193866666Y-62442857D02*
X195533333Y-62442857D01*
X196247619Y-65061904D02*
X193866666Y-65061904D01*
X193866666Y-60061904D01*
X196247619Y-60061904D01*
X84247619Y-64585714D02*
X84009523Y-64823809D01*
X83295238Y-65061904D01*
X82819047Y-65061904D01*
X82104761Y-64823809D01*
X81628571Y-64347619D01*
X81390476Y-63871428D01*
X81152380Y-62919047D01*
X81152380Y-62204761D01*
X81390476Y-61252380D01*
X81628571Y-60776190D01*
X82104761Y-60300000D01*
X82819047Y-60061904D01*
X83295238Y-60061904D01*
X84009523Y-60300000D01*
X84247619Y-60538095D01*
X86152380Y-63633333D02*
X88533333Y-63633333D01*
X85676190Y-65061904D02*
X87342857Y-60061904D01*
X89009523Y-65061904D01*
X93533333Y-65061904D02*
X91866666Y-62680952D01*
X90676190Y-65061904D02*
X90676190Y-60061904D01*
X92580952Y-60061904D01*
X93057142Y-60300000D01*
X93295238Y-60538095D01*
X93533333Y-61014285D01*
X93533333Y-61728571D01*
X93295238Y-62204761D01*
X93057142Y-62442857D01*
X92580952Y-62680952D01*
X90676190Y-62680952D01*
X95438095Y-63633333D02*
X97819047Y-63633333D01*
X94961904Y-65061904D02*
X96628571Y-60061904D01*
X98295238Y-65061904D01*
X99247619Y-60061904D02*
X100914285Y-65061904D01*
X102580952Y-60061904D01*
X104247619Y-62442857D02*
X105914285Y-62442857D01*
X106628571Y-65061904D02*
X104247619Y-65061904D01*
X104247619Y-60061904D01*
X106628571Y-60061904D01*
X111152380Y-65061904D02*
X108771428Y-65061904D01*
X108771428Y-60061904D01*
X115200000Y-65061904D02*
X112819047Y-65061904D01*
X112819047Y-60061904D01*
X116866666Y-62442857D02*
X118533333Y-62442857D01*
X119247619Y-65061904D02*
X116866666Y-65061904D01*
X116866666Y-60061904D01*
X119247619Y-60061904D01*
D10*
X22357380Y-74323333D02*
X23071666Y-74323333D01*
X23214523Y-74370952D01*
X23309761Y-74466190D01*
X23357380Y-74609047D01*
X23357380Y-74704285D01*
X23357380Y-73323333D02*
X23357380Y-73894761D01*
X23357380Y-73609047D02*
X22357380Y-73609047D01*
X22500238Y-73704285D01*
X22595476Y-73799523D01*
X22643095Y-73894761D01*
X270766666Y-64054761D02*
X270909523Y-64102380D01*
X271147619Y-64102380D01*
X271242857Y-64054761D01*
X271290476Y-64007142D01*
X271338095Y-63911904D01*
X271338095Y-63816666D01*
X271290476Y-63721428D01*
X271242857Y-63673809D01*
X271147619Y-63626190D01*
X270957142Y-63578571D01*
X270861904Y-63530952D01*
X270814285Y-63483333D01*
X270766666Y-63388095D01*
X270766666Y-63292857D01*
X270814285Y-63197619D01*
X270861904Y-63150000D01*
X270957142Y-63102380D01*
X271195238Y-63102380D01*
X271338095Y-63150000D01*
X271671428Y-63102380D02*
X271909523Y-64102380D01*
X272100000Y-63388095D01*
X272290476Y-64102380D01*
X272528571Y-63102380D01*
X273338095Y-63435714D02*
X273338095Y-64102380D01*
X273100000Y-63054761D02*
X272861904Y-63769047D01*
X273480952Y-63769047D01*
X3966666Y-63904761D02*
X4109523Y-63952380D01*
X4347619Y-63952380D01*
X4442857Y-63904761D01*
X4490476Y-63857142D01*
X4538095Y-63761904D01*
X4538095Y-63666666D01*
X4490476Y-63571428D01*
X4442857Y-63523809D01*
X4347619Y-63476190D01*
X4157142Y-63428571D01*
X4061904Y-63380952D01*
X4014285Y-63333333D01*
X3966666Y-63238095D01*
X3966666Y-63142857D01*
X4014285Y-63047619D01*
X4061904Y-63000000D01*
X4157142Y-62952380D01*
X4395238Y-62952380D01*
X4538095Y-63000000D01*
X4871428Y-62952380D02*
X5109523Y-63952380D01*
X5300000Y-63238095D01*
X5490476Y-63952380D01*
X5728571Y-62952380D01*
X6014285Y-62952380D02*
X6633333Y-62952380D01*
X6300000Y-63333333D01*
X6442857Y-63333333D01*
X6538095Y-63380952D01*
X6585714Y-63428571D01*
X6633333Y-63523809D01*
X6633333Y-63761904D01*
X6585714Y-63857142D01*
X6538095Y-63904761D01*
X6442857Y-63952380D01*
X6157142Y-63952380D01*
X6061904Y-63904761D01*
X6014285Y-63857142D01*
X270752380Y-76583333D02*
X271466666Y-76583333D01*
X271609523Y-76630952D01*
X271704761Y-76726190D01*
X271752380Y-76869047D01*
X271752380Y-76964285D01*
X271085714Y-75678571D02*
X271752380Y-75678571D01*
X270704761Y-75916666D02*
X271419047Y-76154761D01*
X271419047Y-75535714D01*
X5452380Y-76583333D02*
X6166666Y-76583333D01*
X6309523Y-76630952D01*
X6404761Y-76726190D01*
X6452380Y-76869047D01*
X6452380Y-76964285D01*
X5547619Y-76154761D02*
X5500000Y-76107142D01*
X5452380Y-76011904D01*
X5452380Y-75773809D01*
X5500000Y-75678571D01*
X5547619Y-75630952D01*
X5642857Y-75583333D01*
X5738095Y-75583333D01*
X5880952Y-75630952D01*
X6452380Y-76202380D01*
X6452380Y-75583333D01*
X253583333Y-66887142D02*
X253535714Y-66934761D01*
X253392857Y-66982380D01*
X253297619Y-66982380D01*
X253154761Y-66934761D01*
X253059523Y-66839523D01*
X253011904Y-66744285D01*
X252964285Y-66553809D01*
X252964285Y-66410952D01*
X253011904Y-66220476D01*
X253059523Y-66125238D01*
X253154761Y-66030000D01*
X253297619Y-65982380D01*
X253392857Y-65982380D01*
X253535714Y-66030000D01*
X253583333Y-66077619D01*
X254440476Y-66315714D02*
X254440476Y-66982380D01*
X254202380Y-65934761D02*
X253964285Y-66649047D01*
X254583333Y-66649047D01*
X37833333Y-62227142D02*
X37785714Y-62274761D01*
X37642857Y-62322380D01*
X37547619Y-62322380D01*
X37404761Y-62274761D01*
X37309523Y-62179523D01*
X37261904Y-62084285D01*
X37214285Y-61893809D01*
X37214285Y-61750952D01*
X37261904Y-61560476D01*
X37309523Y-61465238D01*
X37404761Y-61370000D01*
X37547619Y-61322380D01*
X37642857Y-61322380D01*
X37785714Y-61370000D01*
X37833333Y-61417619D01*
X38785714Y-62322380D02*
X38214285Y-62322380D01*
X38500000Y-62322380D02*
X38500000Y-61322380D01*
X38404761Y-61465238D01*
X38309523Y-61560476D01*
X38214285Y-61608095D01*
X12166666Y-64804761D02*
X12309523Y-64852380D01*
X12547619Y-64852380D01*
X12642857Y-64804761D01*
X12690476Y-64757142D01*
X12738095Y-64661904D01*
X12738095Y-64566666D01*
X12690476Y-64471428D01*
X12642857Y-64423809D01*
X12547619Y-64376190D01*
X12357142Y-64328571D01*
X12261904Y-64280952D01*
X12214285Y-64233333D01*
X12166666Y-64138095D01*
X12166666Y-64042857D01*
X12214285Y-63947619D01*
X12261904Y-63900000D01*
X12357142Y-63852380D01*
X12595238Y-63852380D01*
X12738095Y-63900000D01*
X13071428Y-63852380D02*
X13309523Y-64852380D01*
X13500000Y-64138095D01*
X13690476Y-64852380D01*
X13928571Y-63852380D01*
X14833333Y-64852380D02*
X14261904Y-64852380D01*
X14547619Y-64852380D02*
X14547619Y-63852380D01*
X14452380Y-63995238D01*
X14357142Y-64090476D01*
X14261904Y-64138095D01*
X253252380Y-75133333D02*
X253966666Y-75133333D01*
X254109523Y-75180952D01*
X254204761Y-75276190D01*
X254252380Y-75419047D01*
X254252380Y-75514285D01*
X253252380Y-74752380D02*
X253252380Y-74133333D01*
X253633333Y-74466666D01*
X253633333Y-74323809D01*
X253680952Y-74228571D01*
X253728571Y-74180952D01*
X253823809Y-74133333D01*
X254061904Y-74133333D01*
X254157142Y-74180952D01*
X254204761Y-74228571D01*
X254252380Y-74323809D01*
X254252380Y-74609523D01*
X254204761Y-74704761D01*
X254157142Y-74752380D01*
%LPC*%
D13*
X250250000Y-74400000D03*
X250250000Y-73650000D03*
X250250000Y-72900000D03*
X250250000Y-72150000D03*
X250250000Y-71400000D03*
X250250000Y-70650000D03*
X250250000Y-69900000D03*
X250250000Y-69150000D03*
X250250000Y-68400000D03*
X250250000Y-67650000D03*
X250250000Y-66900000D03*
X250250000Y-66150000D03*
D14*
X249100000Y-65700000D03*
X248350000Y-65700000D03*
X247600000Y-65700000D03*
X246850000Y-65700000D03*
X246100000Y-65700000D03*
X245350000Y-65700000D03*
X244600000Y-65700000D03*
X243850000Y-65700000D03*
X243100000Y-65700000D03*
X242350000Y-65700000D03*
X241600000Y-65700000D03*
D13*
X240450000Y-66150000D03*
X240450000Y-66900000D03*
X240450000Y-67650000D03*
X240450000Y-68400000D03*
X240450000Y-69150000D03*
X240450000Y-69900000D03*
X240450000Y-70650000D03*
X240450000Y-71400000D03*
X240450000Y-72150000D03*
X240450000Y-72900000D03*
X240450000Y-73650000D03*
X240450000Y-74400000D03*
X240450000Y-75150000D03*
X240450000Y-75900000D03*
X240450000Y-76650000D03*
X240450000Y-77400000D03*
X36950000Y-74400000D03*
X36950000Y-73650000D03*
X36950000Y-72900000D03*
X36950000Y-72150000D03*
X36950000Y-71400000D03*
X36950000Y-70650000D03*
X36950000Y-69900000D03*
X36950000Y-69150000D03*
X36950000Y-68400000D03*
X36950000Y-67650000D03*
X36950000Y-66900000D03*
X36950000Y-66150000D03*
D14*
X35800000Y-65700000D03*
X35050000Y-65700000D03*
X34300000Y-65700000D03*
X33550000Y-65700000D03*
X32800000Y-65700000D03*
X32050000Y-65700000D03*
X31300000Y-65700000D03*
X30550000Y-65700000D03*
X29800000Y-65700000D03*
X29050000Y-65700000D03*
X28300000Y-65700000D03*
D13*
X27150000Y-66150000D03*
X27150000Y-66900000D03*
X27150000Y-67650000D03*
X27150000Y-68400000D03*
X27150000Y-69150000D03*
X27150000Y-69900000D03*
X27150000Y-70650000D03*
X27150000Y-71400000D03*
X27150000Y-72150000D03*
X27150000Y-72900000D03*
X27150000Y-73650000D03*
X27150000Y-74400000D03*
X27150000Y-75150000D03*
X27150000Y-75900000D03*
X27150000Y-76650000D03*
X27150000Y-77400000D03*
D15*
X262900000Y-67300000D03*
X264900000Y-67300000D03*
X260900000Y-67300000D03*
D16*
X158673816Y-77456301D03*
D17*
X156551051Y-72841079D03*
X160796581Y-82071523D03*
X253905000Y-57150000D03*
X243745000Y-57150000D03*
D16*
X248825000Y-57150000D03*
D17*
X55086250Y-70246875D03*
X44926250Y-70246875D03*
D16*
X50006250Y-70246875D03*
D17*
X52705000Y-51196875D03*
X42545000Y-51196875D03*
D16*
X47625000Y-51196875D03*
D17*
X14605000Y-57150000D03*
X4445000Y-57150000D03*
D16*
X9525000Y-57150000D03*
D18*
X21000000Y-70180000D03*
D19*
X21000000Y-72720000D03*
X21000000Y-75260000D03*
D20*
X21000000Y-77800000D03*
D21*
X274175000Y-67325000D03*
X270025000Y-67325000D03*
X274175000Y-65175000D03*
X270025000Y-65175000D03*
X7375000Y-67325000D03*
X3225000Y-67325000D03*
X7375000Y-65175000D03*
X3225000Y-65175000D03*
D22*
X263900000Y-75250000D03*
D23*
G36*
X264674820Y-76451603D02*
G01*
X264707126Y-76456395D01*
X264738807Y-76464330D01*
X264769557Y-76475333D01*
X264799081Y-76489297D01*
X264827094Y-76506087D01*
X264853326Y-76525542D01*
X264877525Y-76547475D01*
X264899458Y-76571674D01*
X264918913Y-76597906D01*
X264935703Y-76625919D01*
X264949667Y-76655443D01*
X264960670Y-76686193D01*
X264968605Y-76717874D01*
X264973397Y-76750180D01*
X264975000Y-76782800D01*
X264975000Y-77717200D01*
X264973397Y-77749820D01*
X264968605Y-77782126D01*
X264960670Y-77813807D01*
X264949667Y-77844557D01*
X264935703Y-77874081D01*
X264918913Y-77902094D01*
X264899458Y-77928326D01*
X264877525Y-77952525D01*
X264853326Y-77974458D01*
X264827094Y-77993913D01*
X264799081Y-78010703D01*
X264769557Y-78024667D01*
X264738807Y-78035670D01*
X264707126Y-78043605D01*
X264674820Y-78048397D01*
X264642200Y-78050000D01*
X263157800Y-78050000D01*
X263125180Y-78048397D01*
X263092874Y-78043605D01*
X263061193Y-78035670D01*
X263030443Y-78024667D01*
X263000919Y-78010703D01*
X262972906Y-77993913D01*
X262946674Y-77974458D01*
X262922475Y-77952525D01*
X262900542Y-77928326D01*
X262881087Y-77902094D01*
X262864297Y-77874081D01*
X262850333Y-77844557D01*
X262839330Y-77813807D01*
X262831395Y-77782126D01*
X262826603Y-77749820D01*
X262825000Y-77717200D01*
X262825000Y-76782800D01*
X262826603Y-76750180D01*
X262831395Y-76717874D01*
X262839330Y-76686193D01*
X262850333Y-76655443D01*
X262864297Y-76625919D01*
X262881087Y-76597906D01*
X262900542Y-76571674D01*
X262922475Y-76547475D01*
X262946674Y-76525542D01*
X262972906Y-76506087D01*
X263000919Y-76489297D01*
X263030443Y-76475333D01*
X263061193Y-76464330D01*
X263092874Y-76456395D01*
X263125180Y-76451603D01*
X263157800Y-76450000D01*
X264642200Y-76450000D01*
X264674820Y-76451603D01*
X264674820Y-76451603D01*
G37*
D15*
X263900000Y-77250000D03*
D22*
X13500000Y-77250000D03*
D23*
G36*
X14274820Y-74451603D02*
G01*
X14307126Y-74456395D01*
X14338807Y-74464330D01*
X14369557Y-74475333D01*
X14399081Y-74489297D01*
X14427094Y-74506087D01*
X14453326Y-74525542D01*
X14477525Y-74547475D01*
X14499458Y-74571674D01*
X14518913Y-74597906D01*
X14535703Y-74625919D01*
X14549667Y-74655443D01*
X14560670Y-74686193D01*
X14568605Y-74717874D01*
X14573397Y-74750180D01*
X14575000Y-74782800D01*
X14575000Y-75717200D01*
X14573397Y-75749820D01*
X14568605Y-75782126D01*
X14560670Y-75813807D01*
X14549667Y-75844557D01*
X14535703Y-75874081D01*
X14518913Y-75902094D01*
X14499458Y-75928326D01*
X14477525Y-75952525D01*
X14453326Y-75974458D01*
X14427094Y-75993913D01*
X14399081Y-76010703D01*
X14369557Y-76024667D01*
X14338807Y-76035670D01*
X14307126Y-76043605D01*
X14274820Y-76048397D01*
X14242200Y-76050000D01*
X12757800Y-76050000D01*
X12725180Y-76048397D01*
X12692874Y-76043605D01*
X12661193Y-76035670D01*
X12630443Y-76024667D01*
X12600919Y-76010703D01*
X12572906Y-75993913D01*
X12546674Y-75974458D01*
X12522475Y-75952525D01*
X12500542Y-75928326D01*
X12481087Y-75902094D01*
X12464297Y-75874081D01*
X12450333Y-75844557D01*
X12439330Y-75813807D01*
X12431395Y-75782126D01*
X12426603Y-75749820D01*
X12425000Y-75717200D01*
X12425000Y-74782800D01*
X12426603Y-74750180D01*
X12431395Y-74717874D01*
X12439330Y-74686193D01*
X12450333Y-74655443D01*
X12464297Y-74625919D01*
X12481087Y-74597906D01*
X12500542Y-74571674D01*
X12522475Y-74547475D01*
X12546674Y-74525542D01*
X12572906Y-74506087D01*
X12600919Y-74489297D01*
X12630443Y-74475333D01*
X12661193Y-74464330D01*
X12692874Y-74456395D01*
X12725180Y-74451603D01*
X12757800Y-74450000D01*
X14242200Y-74450000D01*
X14274820Y-74451603D01*
X14274820Y-74451603D01*
G37*
D15*
X13500000Y-75250000D03*
D23*
G36*
X252745581Y-64426625D02*
G01*
X252778343Y-64431485D01*
X252810471Y-64439533D01*
X252841656Y-64450691D01*
X252871596Y-64464852D01*
X252900005Y-64481879D01*
X252926608Y-64501609D01*
X252951149Y-64523851D01*
X252973391Y-64548392D01*
X252993121Y-64574995D01*
X253010148Y-64603404D01*
X253024309Y-64633344D01*
X253035467Y-64664529D01*
X253043515Y-64696657D01*
X253048375Y-64729419D01*
X253050000Y-64762500D01*
X253050000Y-65437500D01*
X253048375Y-65470581D01*
X253043515Y-65503343D01*
X253035467Y-65535471D01*
X253024309Y-65566656D01*
X253010148Y-65596596D01*
X252993121Y-65625005D01*
X252973391Y-65651608D01*
X252951149Y-65676149D01*
X252926608Y-65698391D01*
X252900005Y-65718121D01*
X252871596Y-65735148D01*
X252841656Y-65749309D01*
X252810471Y-65760467D01*
X252778343Y-65768515D01*
X252745581Y-65773375D01*
X252712500Y-65775000D01*
X251937500Y-65775000D01*
X251904419Y-65773375D01*
X251871657Y-65768515D01*
X251839529Y-65760467D01*
X251808344Y-65749309D01*
X251778404Y-65735148D01*
X251749995Y-65718121D01*
X251723392Y-65698391D01*
X251698851Y-65676149D01*
X251676609Y-65651608D01*
X251656879Y-65625005D01*
X251639852Y-65596596D01*
X251625691Y-65566656D01*
X251614533Y-65535471D01*
X251606485Y-65503343D01*
X251601625Y-65470581D01*
X251600000Y-65437500D01*
X251600000Y-64762500D01*
X251601625Y-64729419D01*
X251606485Y-64696657D01*
X251614533Y-64664529D01*
X251625691Y-64633344D01*
X251639852Y-64603404D01*
X251656879Y-64574995D01*
X251676609Y-64548392D01*
X251698851Y-64523851D01*
X251723392Y-64501609D01*
X251749995Y-64481879D01*
X251778404Y-64464852D01*
X251808344Y-64450691D01*
X251839529Y-64439533D01*
X251871657Y-64431485D01*
X251904419Y-64426625D01*
X251937500Y-64425000D01*
X252712500Y-64425000D01*
X252745581Y-64426625D01*
X252745581Y-64426625D01*
G37*
D24*
X252325000Y-65100000D03*
D23*
G36*
X254495581Y-64426625D02*
G01*
X254528343Y-64431485D01*
X254560471Y-64439533D01*
X254591656Y-64450691D01*
X254621596Y-64464852D01*
X254650005Y-64481879D01*
X254676608Y-64501609D01*
X254701149Y-64523851D01*
X254723391Y-64548392D01*
X254743121Y-64574995D01*
X254760148Y-64603404D01*
X254774309Y-64633344D01*
X254785467Y-64664529D01*
X254793515Y-64696657D01*
X254798375Y-64729419D01*
X254800000Y-64762500D01*
X254800000Y-65437500D01*
X254798375Y-65470581D01*
X254793515Y-65503343D01*
X254785467Y-65535471D01*
X254774309Y-65566656D01*
X254760148Y-65596596D01*
X254743121Y-65625005D01*
X254723391Y-65651608D01*
X254701149Y-65676149D01*
X254676608Y-65698391D01*
X254650005Y-65718121D01*
X254621596Y-65735148D01*
X254591656Y-65749309D01*
X254560471Y-65760467D01*
X254528343Y-65768515D01*
X254495581Y-65773375D01*
X254462500Y-65775000D01*
X253687500Y-65775000D01*
X253654419Y-65773375D01*
X253621657Y-65768515D01*
X253589529Y-65760467D01*
X253558344Y-65749309D01*
X253528404Y-65735148D01*
X253499995Y-65718121D01*
X253473392Y-65698391D01*
X253448851Y-65676149D01*
X253426609Y-65651608D01*
X253406879Y-65625005D01*
X253389852Y-65596596D01*
X253375691Y-65566656D01*
X253364533Y-65535471D01*
X253356485Y-65503343D01*
X253351625Y-65470581D01*
X253350000Y-65437500D01*
X253350000Y-64762500D01*
X253351625Y-64729419D01*
X253356485Y-64696657D01*
X253364533Y-64664529D01*
X253375691Y-64633344D01*
X253389852Y-64603404D01*
X253406879Y-64574995D01*
X253426609Y-64548392D01*
X253448851Y-64523851D01*
X253473392Y-64501609D01*
X253499995Y-64481879D01*
X253528404Y-64464852D01*
X253558344Y-64450691D01*
X253589529Y-64439533D01*
X253621657Y-64431485D01*
X253654419Y-64426625D01*
X253687500Y-64425000D01*
X254462500Y-64425000D01*
X254495581Y-64426625D01*
X254495581Y-64426625D01*
G37*
D24*
X254075000Y-65100000D03*
D23*
G36*
X39295581Y-62626625D02*
G01*
X39328343Y-62631485D01*
X39360471Y-62639533D01*
X39391656Y-62650691D01*
X39421596Y-62664852D01*
X39450005Y-62681879D01*
X39476608Y-62701609D01*
X39501149Y-62723851D01*
X39523391Y-62748392D01*
X39543121Y-62774995D01*
X39560148Y-62803404D01*
X39574309Y-62833344D01*
X39585467Y-62864529D01*
X39593515Y-62896657D01*
X39598375Y-62929419D01*
X39600000Y-62962500D01*
X39600000Y-63637500D01*
X39598375Y-63670581D01*
X39593515Y-63703343D01*
X39585467Y-63735471D01*
X39574309Y-63766656D01*
X39560148Y-63796596D01*
X39543121Y-63825005D01*
X39523391Y-63851608D01*
X39501149Y-63876149D01*
X39476608Y-63898391D01*
X39450005Y-63918121D01*
X39421596Y-63935148D01*
X39391656Y-63949309D01*
X39360471Y-63960467D01*
X39328343Y-63968515D01*
X39295581Y-63973375D01*
X39262500Y-63975000D01*
X38487500Y-63975000D01*
X38454419Y-63973375D01*
X38421657Y-63968515D01*
X38389529Y-63960467D01*
X38358344Y-63949309D01*
X38328404Y-63935148D01*
X38299995Y-63918121D01*
X38273392Y-63898391D01*
X38248851Y-63876149D01*
X38226609Y-63851608D01*
X38206879Y-63825005D01*
X38189852Y-63796596D01*
X38175691Y-63766656D01*
X38164533Y-63735471D01*
X38156485Y-63703343D01*
X38151625Y-63670581D01*
X38150000Y-63637500D01*
X38150000Y-62962500D01*
X38151625Y-62929419D01*
X38156485Y-62896657D01*
X38164533Y-62864529D01*
X38175691Y-62833344D01*
X38189852Y-62803404D01*
X38206879Y-62774995D01*
X38226609Y-62748392D01*
X38248851Y-62723851D01*
X38273392Y-62701609D01*
X38299995Y-62681879D01*
X38328404Y-62664852D01*
X38358344Y-62650691D01*
X38389529Y-62639533D01*
X38421657Y-62631485D01*
X38454419Y-62626625D01*
X38487500Y-62625000D01*
X39262500Y-62625000D01*
X39295581Y-62626625D01*
X39295581Y-62626625D01*
G37*
D24*
X38875000Y-63300000D03*
D23*
G36*
X37545581Y-62626625D02*
G01*
X37578343Y-62631485D01*
X37610471Y-62639533D01*
X37641656Y-62650691D01*
X37671596Y-62664852D01*
X37700005Y-62681879D01*
X37726608Y-62701609D01*
X37751149Y-62723851D01*
X37773391Y-62748392D01*
X37793121Y-62774995D01*
X37810148Y-62803404D01*
X37824309Y-62833344D01*
X37835467Y-62864529D01*
X37843515Y-62896657D01*
X37848375Y-62929419D01*
X37850000Y-62962500D01*
X37850000Y-63637500D01*
X37848375Y-63670581D01*
X37843515Y-63703343D01*
X37835467Y-63735471D01*
X37824309Y-63766656D01*
X37810148Y-63796596D01*
X37793121Y-63825005D01*
X37773391Y-63851608D01*
X37751149Y-63876149D01*
X37726608Y-63898391D01*
X37700005Y-63918121D01*
X37671596Y-63935148D01*
X37641656Y-63949309D01*
X37610471Y-63960467D01*
X37578343Y-63968515D01*
X37545581Y-63973375D01*
X37512500Y-63975000D01*
X36737500Y-63975000D01*
X36704419Y-63973375D01*
X36671657Y-63968515D01*
X36639529Y-63960467D01*
X36608344Y-63949309D01*
X36578404Y-63935148D01*
X36549995Y-63918121D01*
X36523392Y-63898391D01*
X36498851Y-63876149D01*
X36476609Y-63851608D01*
X36456879Y-63825005D01*
X36439852Y-63796596D01*
X36425691Y-63766656D01*
X36414533Y-63735471D01*
X36406485Y-63703343D01*
X36401625Y-63670581D01*
X36400000Y-63637500D01*
X36400000Y-62962500D01*
X36401625Y-62929419D01*
X36406485Y-62896657D01*
X36414533Y-62864529D01*
X36425691Y-62833344D01*
X36439852Y-62803404D01*
X36456879Y-62774995D01*
X36476609Y-62748392D01*
X36498851Y-62723851D01*
X36523392Y-62701609D01*
X36549995Y-62681879D01*
X36578404Y-62664852D01*
X36608344Y-62650691D01*
X36639529Y-62639533D01*
X36671657Y-62631485D01*
X36704419Y-62626625D01*
X36737500Y-62625000D01*
X37512500Y-62625000D01*
X37545581Y-62626625D01*
X37545581Y-62626625D01*
G37*
D24*
X37125000Y-63300000D03*
D25*
X149515167Y-80294245D03*
X150047871Y-81447123D03*
X151645984Y-84905755D03*
X151113280Y-83752878D03*
X150580575Y-82600000D03*
X144050000Y-53147981D03*
X144050000Y-54417981D03*
X144050000Y-58227981D03*
X144050000Y-56957981D03*
X144050000Y-55687981D03*
X144050000Y-26703750D03*
X144050000Y-27973750D03*
X144050000Y-31783750D03*
X144050000Y-30513750D03*
X144050000Y-29243750D03*
X125754016Y-84905755D03*
X126286720Y-83752878D03*
X127884833Y-80294245D03*
X127352129Y-81447123D03*
X126819425Y-82600000D03*
X133350000Y-58227981D03*
X133350000Y-56957981D03*
X133350000Y-53147981D03*
X133350000Y-54417981D03*
X133350000Y-55687981D03*
X133350000Y-31783750D03*
X133350000Y-30513750D03*
X133350000Y-26703750D03*
X133350000Y-27973750D03*
X133350000Y-29243750D03*
D15*
X12500000Y-67300000D03*
X14500000Y-67300000D03*
X10500000Y-67300000D03*
D18*
X256400000Y-70180000D03*
D19*
X256400000Y-72720000D03*
X256400000Y-75260000D03*
D20*
X256400000Y-77800000D03*
D17*
X272955000Y-57150000D03*
X262795000Y-57150000D03*
D16*
X267875000Y-57150000D03*
D17*
X128905000Y-45243750D03*
X118745000Y-45243750D03*
D16*
X123825000Y-45243750D03*
D17*
X185151074Y-73706366D03*
X175292870Y-76164292D03*
D16*
X180221972Y-74935329D03*
D17*
X14605000Y-19050000D03*
X4445000Y-19050000D03*
D16*
X9525000Y-19050000D03*
D17*
X33655000Y-19050000D03*
X23495000Y-19050000D03*
D16*
X28575000Y-19050000D03*
D17*
X90805000Y-14287499D03*
X80645000Y-14287499D03*
D16*
X85725000Y-14287499D03*
D17*
X109855000Y-16668750D03*
X99695000Y-16668750D03*
D16*
X104775000Y-16668750D03*
D17*
X14605000Y-38100000D03*
X4445000Y-38100000D03*
D16*
X9525000Y-38100000D03*
D17*
X33655000Y-38100000D03*
X23495000Y-38100000D03*
D16*
X28575000Y-38100000D03*
D17*
X52705000Y-32146875D03*
X42545000Y-32146875D03*
D16*
X47625000Y-32146875D03*
D17*
X71755000Y-28575000D03*
X61595000Y-28575000D03*
D16*
X66675000Y-28575000D03*
D17*
X90805000Y-33337500D03*
X80645000Y-33337500D03*
D16*
X85725000Y-33337500D03*
D17*
X109855000Y-35718750D03*
X99695000Y-35718750D03*
D16*
X104775000Y-35718750D03*
D17*
X128905000Y-26193750D03*
X118745000Y-26193750D03*
D16*
X123825000Y-26193750D03*
D17*
X33655000Y-57150000D03*
X23495000Y-57150000D03*
D16*
X28575000Y-57150000D03*
D17*
X71755000Y-47625000D03*
X61595000Y-47625000D03*
D16*
X66675000Y-47625000D03*
D17*
X90805000Y-52387500D03*
X80645000Y-52387500D03*
D16*
X85725000Y-52387500D03*
D17*
X109855000Y-54768750D03*
X99695000Y-54768750D03*
D16*
X104775000Y-54768750D03*
D17*
X102107129Y-76164292D03*
X92248925Y-73706366D03*
D16*
X97178027Y-74935329D03*
D17*
X272955000Y-19050000D03*
X262795000Y-19050000D03*
D16*
X267875000Y-19050000D03*
D17*
X253905000Y-19050000D03*
X243745000Y-19050000D03*
D16*
X248825000Y-19050000D03*
D17*
X234855000Y-13096875D03*
X224695000Y-13096875D03*
D16*
X229775000Y-13096875D03*
D17*
X215805000Y-9525000D03*
X205645000Y-9525000D03*
D16*
X210725000Y-9525000D03*
D17*
X196755000Y-14287499D03*
X186595000Y-14287499D03*
D16*
X191675000Y-14287499D03*
D17*
X177705000Y-16668750D03*
X167545000Y-16668750D03*
D16*
X172625000Y-16668750D03*
D17*
X272955000Y-38100000D03*
X262795000Y-38100000D03*
D16*
X267875000Y-38100000D03*
D17*
X253905000Y-38100000D03*
X243745000Y-38100000D03*
D16*
X248825000Y-38100000D03*
D17*
X234855000Y-32146875D03*
X224695000Y-32146875D03*
D16*
X229775000Y-32146875D03*
D17*
X215805000Y-28575000D03*
X205645000Y-28575000D03*
D16*
X210725000Y-28575000D03*
D17*
X196755000Y-33337500D03*
X186595000Y-33337500D03*
D16*
X191675000Y-33337500D03*
D17*
X177705000Y-35718750D03*
X167545000Y-35718750D03*
D16*
X172625000Y-35718750D03*
D17*
X158655000Y-26193750D03*
X148495000Y-26193750D03*
D16*
X153575000Y-26193750D03*
D17*
X234855000Y-51196875D03*
X224695000Y-51196875D03*
D16*
X229775000Y-51196875D03*
D17*
X215805000Y-47625000D03*
X205645000Y-47625000D03*
D16*
X210725000Y-47625000D03*
D17*
X196755000Y-52387500D03*
X186595000Y-52387500D03*
D16*
X191675000Y-52387500D03*
D17*
X177705000Y-54768750D03*
X167545000Y-54768750D03*
D16*
X172625000Y-54768750D03*
D17*
X158655000Y-45243750D03*
X148495000Y-45243750D03*
D16*
X153575000Y-45243750D03*
D17*
X52705000Y-13096875D03*
X42545000Y-13096875D03*
D16*
X47625000Y-13096875D03*
D17*
X71755000Y-9525000D03*
X61595000Y-9525000D03*
D16*
X66675000Y-9525000D03*
D17*
X79678221Y-71794564D03*
X69558443Y-70891398D03*
D16*
X74618332Y-71342981D03*
D17*
X232473750Y-70246875D03*
X222313750Y-70246875D03*
D16*
X227393750Y-70246875D03*
D17*
X207841556Y-70891398D03*
X197721778Y-71794564D03*
D16*
X202781667Y-71342981D03*
D17*
X120848948Y-72841079D03*
X116603418Y-82071523D03*
D16*
X118726183Y-77456301D03*
M02*
