G04 #@! TF.GenerationSoftware,KiCad,Pcbnew,(5.1.4)-1*
G04 #@! TF.CreationDate,2019-08-26T21:43:53+09:00*
G04 #@! TF.ProjectId,caravelle,63617261-7665-46c6-9c65-2e6b69636164,rev?*
G04 #@! TF.SameCoordinates,PX2faf080PY2faf080*
G04 #@! TF.FileFunction,Legend,Top*
G04 #@! TF.FilePolarity,Positive*
%FSLAX46Y46*%
G04 Gerber Fmt 4.6, Leading zero omitted, Abs format (unit mm)*
G04 Created by KiCad (PCBNEW (5.1.4)-1) date 2019-08-26 21:43:53*
%MOMM*%
%LPD*%
G04 APERTURE LIST*
%ADD10C,0.150000*%
%ADD11C,0.120000*%
%ADD12C,0.500000*%
%ADD13R,1.400000X2.200000*%
%ADD14O,2.150000X1.600000*%
%ADD15C,0.100000*%
%ADD16C,1.600000*%
%ADD17R,1.300000X1.600000*%
%ADD18C,1.350000*%
%ADD19R,1.050000X1.460000*%
%ADD20C,1.187400*%
%ADD21R,0.800000X2.000000*%
%ADD22R,2.000000X0.800000*%
%ADD23R,2.100000X2.100000*%
%ADD24O,2.100000X2.100000*%
%ADD25C,2.100000*%
%ADD26C,2.150000*%
%ADD27C,4.387800*%
%ADD28R,1.460000X1.050000*%
G04 APERTURE END LIST*
D10*
X14138095Y-76000000D02*
X14042857Y-75952380D01*
X13900000Y-75952380D01*
X13757142Y-76000000D01*
X13661904Y-76095238D01*
X13614285Y-76190476D01*
X13566666Y-76380952D01*
X13566666Y-76523809D01*
X13614285Y-76714285D01*
X13661904Y-76809523D01*
X13757142Y-76904761D01*
X13900000Y-76952380D01*
X13995238Y-76952380D01*
X14138095Y-76904761D01*
X14185714Y-76857142D01*
X14185714Y-76523809D01*
X13995238Y-76523809D01*
X14614285Y-76952380D02*
X14614285Y-75952380D01*
X15185714Y-76952380D01*
X15185714Y-75952380D01*
X15661904Y-76952380D02*
X15661904Y-75952380D01*
X15900000Y-75952380D01*
X16042857Y-76000000D01*
X16138095Y-76095238D01*
X16185714Y-76190476D01*
X16233333Y-76380952D01*
X16233333Y-76523809D01*
X16185714Y-76714285D01*
X16138095Y-76809523D01*
X16042857Y-76904761D01*
X15900000Y-76952380D01*
X15661904Y-76952380D01*
X13566666Y-74052380D02*
X13900000Y-75052380D01*
X14233333Y-74052380D01*
X15138095Y-74957142D02*
X15090476Y-75004761D01*
X14947619Y-75052380D01*
X14852380Y-75052380D01*
X14709523Y-75004761D01*
X14614285Y-74909523D01*
X14566666Y-74814285D01*
X14519047Y-74623809D01*
X14519047Y-74480952D01*
X14566666Y-74290476D01*
X14614285Y-74195238D01*
X14709523Y-74100000D01*
X14852380Y-74052380D01*
X14947619Y-74052380D01*
X15090476Y-74100000D01*
X15138095Y-74147619D01*
X16138095Y-74957142D02*
X16090476Y-75004761D01*
X15947619Y-75052380D01*
X15852380Y-75052380D01*
X15709523Y-75004761D01*
X15614285Y-74909523D01*
X15566666Y-74814285D01*
X15519047Y-74623809D01*
X15519047Y-74480952D01*
X15566666Y-74290476D01*
X15614285Y-74195238D01*
X15709523Y-74100000D01*
X15852380Y-74052380D01*
X15947619Y-74052380D01*
X16090476Y-74100000D01*
X16138095Y-74147619D01*
X262938095Y-74400000D02*
X262842857Y-74352380D01*
X262700000Y-74352380D01*
X262557142Y-74400000D01*
X262461904Y-74495238D01*
X262414285Y-74590476D01*
X262366666Y-74780952D01*
X262366666Y-74923809D01*
X262414285Y-75114285D01*
X262461904Y-75209523D01*
X262557142Y-75304761D01*
X262700000Y-75352380D01*
X262795238Y-75352380D01*
X262938095Y-75304761D01*
X262985714Y-75257142D01*
X262985714Y-74923809D01*
X262795238Y-74923809D01*
X263414285Y-75352380D02*
X263414285Y-74352380D01*
X263985714Y-75352380D01*
X263985714Y-74352380D01*
X264461904Y-75352380D02*
X264461904Y-74352380D01*
X264700000Y-74352380D01*
X264842857Y-74400000D01*
X264938095Y-74495238D01*
X264985714Y-74590476D01*
X265033333Y-74780952D01*
X265033333Y-74923809D01*
X264985714Y-75114285D01*
X264938095Y-75209523D01*
X264842857Y-75304761D01*
X264700000Y-75352380D01*
X264461904Y-75352380D01*
X262366666Y-76052380D02*
X262700000Y-77052380D01*
X263033333Y-76052380D01*
X263938095Y-76957142D02*
X263890476Y-77004761D01*
X263747619Y-77052380D01*
X263652380Y-77052380D01*
X263509523Y-77004761D01*
X263414285Y-76909523D01*
X263366666Y-76814285D01*
X263319047Y-76623809D01*
X263319047Y-76480952D01*
X263366666Y-76290476D01*
X263414285Y-76195238D01*
X263509523Y-76100000D01*
X263652380Y-76052380D01*
X263747619Y-76052380D01*
X263890476Y-76100000D01*
X263938095Y-76147619D01*
X264938095Y-76957142D02*
X264890476Y-77004761D01*
X264747619Y-77052380D01*
X264652380Y-77052380D01*
X264509523Y-77004761D01*
X264414285Y-76909523D01*
X264366666Y-76814285D01*
X264319047Y-76623809D01*
X264319047Y-76480952D01*
X264366666Y-76290476D01*
X264414285Y-76195238D01*
X264509523Y-76100000D01*
X264652380Y-76052380D01*
X264747619Y-76052380D01*
X264890476Y-76100000D01*
X264938095Y-76147619D01*
D11*
X252125000Y-78275000D02*
X250775000Y-78275000D01*
X252125000Y-76525000D02*
X250775000Y-76525000D01*
X25325000Y-64725000D02*
X26675000Y-64725000D01*
X25325000Y-66475000D02*
X26675000Y-66475000D01*
X266640000Y-77360000D02*
X265425000Y-77360000D01*
X270600000Y-77300000D02*
X272860000Y-77300000D01*
X270600000Y-76800000D02*
X272860000Y-76800000D01*
X269000000Y-74200000D02*
X269000000Y-73200000D01*
X270600000Y-74200000D02*
X269000000Y-74200000D01*
X270600000Y-73200000D02*
X270600000Y-74200000D01*
X269000000Y-73200000D02*
X270600000Y-73200000D01*
X269000000Y-76800000D02*
X269000000Y-77800000D01*
X270600000Y-76800000D02*
X269000000Y-76800000D01*
X270600000Y-77800000D02*
X270600000Y-76800000D01*
X269000000Y-77800000D02*
X270600000Y-77800000D01*
X266640000Y-72440000D02*
X266640000Y-73360000D01*
X266640000Y-78560000D02*
X266640000Y-77640000D01*
X268500000Y-75000000D02*
X272860000Y-75000000D01*
X268500000Y-76000000D02*
X268500000Y-75000000D01*
X272860000Y-76000000D02*
X268500000Y-76000000D01*
X266640000Y-73360000D02*
X266640000Y-73640000D01*
X265040000Y-73360000D02*
X266640000Y-73360000D01*
X265040000Y-72440000D02*
X265040000Y-73360000D01*
X272860000Y-72440000D02*
X265040000Y-72440000D01*
X272860000Y-78560000D02*
X272860000Y-72440000D01*
X265040000Y-78560000D02*
X272860000Y-78560000D01*
X265040000Y-77640000D02*
X265040000Y-78560000D01*
X266640000Y-77640000D02*
X265040000Y-77640000D01*
X266640000Y-77360000D02*
X266640000Y-77640000D01*
X11860000Y-73640000D02*
X13075000Y-73640000D01*
X7900000Y-73700000D02*
X5640000Y-73700000D01*
X7900000Y-74200000D02*
X5640000Y-74200000D01*
X9500000Y-76800000D02*
X9500000Y-77800000D01*
X7900000Y-76800000D02*
X9500000Y-76800000D01*
X7900000Y-77800000D02*
X7900000Y-76800000D01*
X9500000Y-77800000D02*
X7900000Y-77800000D01*
X9500000Y-74200000D02*
X9500000Y-73200000D01*
X7900000Y-74200000D02*
X9500000Y-74200000D01*
X7900000Y-73200000D02*
X7900000Y-74200000D01*
X9500000Y-73200000D02*
X7900000Y-73200000D01*
X11860000Y-78560000D02*
X11860000Y-77640000D01*
X11860000Y-72440000D02*
X11860000Y-73360000D01*
X10000000Y-76000000D02*
X5640000Y-76000000D01*
X10000000Y-75000000D02*
X10000000Y-76000000D01*
X5640000Y-75000000D02*
X10000000Y-75000000D01*
X11860000Y-77640000D02*
X11860000Y-77360000D01*
X13460000Y-77640000D02*
X11860000Y-77640000D01*
X13460000Y-78560000D02*
X13460000Y-77640000D01*
X5640000Y-78560000D02*
X13460000Y-78560000D01*
X5640000Y-72440000D02*
X5640000Y-78560000D01*
X13460000Y-72440000D02*
X5640000Y-72440000D01*
X13460000Y-73360000D02*
X13460000Y-72440000D01*
X11860000Y-73360000D02*
X13460000Y-73360000D01*
X11860000Y-73640000D02*
X11860000Y-73360000D01*
X241550000Y-62800000D02*
X237650000Y-62800000D01*
X241550000Y-60800000D02*
X237650000Y-60800000D01*
X241550000Y-62800000D02*
X241550000Y-60800000D01*
X268270000Y-68600000D02*
X272170000Y-68600000D01*
X268270000Y-70600000D02*
X272170000Y-70600000D01*
X268270000Y-68600000D02*
X268270000Y-70600000D01*
X37050000Y-61350000D02*
X40950000Y-61350000D01*
X37050000Y-63350000D02*
X40950000Y-63350000D01*
X37050000Y-61350000D02*
X37050000Y-63350000D01*
X9850000Y-70600000D02*
X5950000Y-70600000D01*
X9850000Y-68600000D02*
X5950000Y-68600000D01*
X9850000Y-70600000D02*
X9850000Y-68600000D01*
X257710000Y-70071267D02*
X257710000Y-69728733D01*
X256690000Y-70071267D02*
X256690000Y-69728733D01*
X263040000Y-71578733D02*
X263040000Y-71921267D01*
X264060000Y-71578733D02*
X264060000Y-71921267D01*
X18510000Y-69771267D02*
X18510000Y-69428733D01*
X17490000Y-69771267D02*
X17490000Y-69428733D01*
X11490000Y-69428733D02*
X11490000Y-69771267D01*
X12510000Y-69428733D02*
X12510000Y-69771267D01*
X255503733Y-78210000D02*
X255846267Y-78210000D01*
X255503733Y-77190000D02*
X255846267Y-77190000D01*
X247371267Y-77190000D02*
X247028733Y-77190000D01*
X247371267Y-78210000D02*
X247028733Y-78210000D01*
X256690000Y-74028733D02*
X256690000Y-74371267D01*
X257710000Y-74028733D02*
X257710000Y-74371267D01*
X22171267Y-65090000D02*
X21828733Y-65090000D01*
X22171267Y-66110000D02*
X21828733Y-66110000D01*
X29828733Y-66110000D02*
X30171267Y-66110000D01*
X29828733Y-65090000D02*
X30171267Y-65090000D01*
X20510000Y-69771267D02*
X20510000Y-69428733D01*
X19490000Y-69771267D02*
X19490000Y-69428733D01*
X13390000Y-68700000D02*
X13390000Y-70500000D01*
X16610000Y-70500000D02*
X16610000Y-68050000D01*
D10*
X237000000Y-65400000D02*
X237000000Y-75400000D01*
X241000000Y-65400000D02*
X237000000Y-65400000D01*
X255000000Y-75400000D02*
X255000000Y-75100000D01*
X237000000Y-75400000D02*
X241000000Y-75400000D01*
X255000000Y-65400000D02*
X254500000Y-65400000D01*
X254500000Y-75400000D02*
X255000000Y-75400000D01*
X255000000Y-65700000D02*
X255000000Y-65400000D01*
X40400000Y-78000000D02*
X40400000Y-68000000D01*
X36400000Y-78000000D02*
X40400000Y-78000000D01*
X22400000Y-68000000D02*
X22400000Y-68300000D01*
X40400000Y-68000000D02*
X36400000Y-68000000D01*
X22400000Y-78000000D02*
X22900000Y-78000000D01*
X22900000Y-68000000D02*
X22400000Y-68000000D01*
X22400000Y-77700000D02*
X22400000Y-78000000D01*
D11*
X209530000Y-57670000D02*
X209530000Y-56400000D01*
X210800000Y-57670000D02*
X209530000Y-57670000D01*
X57730000Y-57670000D02*
X57730000Y-56400000D01*
X59000000Y-57670000D02*
X57730000Y-57670000D01*
X259400000Y-71510000D02*
X261850000Y-71510000D01*
X261200000Y-68290000D02*
X259400000Y-68290000D01*
D12*
X161247619Y-64585714D02*
X161009523Y-64823809D01*
X160295238Y-65061904D01*
X159819047Y-65061904D01*
X159104761Y-64823809D01*
X158628571Y-64347619D01*
X158390476Y-63871428D01*
X158152380Y-62919047D01*
X158152380Y-62204761D01*
X158390476Y-61252380D01*
X158628571Y-60776190D01*
X159104761Y-60300000D01*
X159819047Y-60061904D01*
X160295238Y-60061904D01*
X161009523Y-60300000D01*
X161247619Y-60538095D01*
X163152380Y-63633333D02*
X165533333Y-63633333D01*
X162676190Y-65061904D02*
X164342857Y-60061904D01*
X166009523Y-65061904D01*
X170533333Y-65061904D02*
X168866666Y-62680952D01*
X167676190Y-65061904D02*
X167676190Y-60061904D01*
X169580952Y-60061904D01*
X170057142Y-60300000D01*
X170295238Y-60538095D01*
X170533333Y-61014285D01*
X170533333Y-61728571D01*
X170295238Y-62204761D01*
X170057142Y-62442857D01*
X169580952Y-62680952D01*
X167676190Y-62680952D01*
X172438095Y-63633333D02*
X174819047Y-63633333D01*
X171961904Y-65061904D02*
X173628571Y-60061904D01*
X175295238Y-65061904D01*
X176247619Y-60061904D02*
X177914285Y-65061904D01*
X179580952Y-60061904D01*
X181247619Y-62442857D02*
X182914285Y-62442857D01*
X183628571Y-65061904D02*
X181247619Y-65061904D01*
X181247619Y-60061904D01*
X183628571Y-60061904D01*
X188152380Y-65061904D02*
X185771428Y-65061904D01*
X185771428Y-60061904D01*
X192200000Y-65061904D02*
X189819047Y-65061904D01*
X189819047Y-60061904D01*
X193866666Y-62442857D02*
X195533333Y-62442857D01*
X196247619Y-65061904D02*
X193866666Y-65061904D01*
X193866666Y-60061904D01*
X196247619Y-60061904D01*
X84247619Y-64585714D02*
X84009523Y-64823809D01*
X83295238Y-65061904D01*
X82819047Y-65061904D01*
X82104761Y-64823809D01*
X81628571Y-64347619D01*
X81390476Y-63871428D01*
X81152380Y-62919047D01*
X81152380Y-62204761D01*
X81390476Y-61252380D01*
X81628571Y-60776190D01*
X82104761Y-60300000D01*
X82819047Y-60061904D01*
X83295238Y-60061904D01*
X84009523Y-60300000D01*
X84247619Y-60538095D01*
X86152380Y-63633333D02*
X88533333Y-63633333D01*
X85676190Y-65061904D02*
X87342857Y-60061904D01*
X89009523Y-65061904D01*
X93533333Y-65061904D02*
X91866666Y-62680952D01*
X90676190Y-65061904D02*
X90676190Y-60061904D01*
X92580952Y-60061904D01*
X93057142Y-60300000D01*
X93295238Y-60538095D01*
X93533333Y-61014285D01*
X93533333Y-61728571D01*
X93295238Y-62204761D01*
X93057142Y-62442857D01*
X92580952Y-62680952D01*
X90676190Y-62680952D01*
X95438095Y-63633333D02*
X97819047Y-63633333D01*
X94961904Y-65061904D02*
X96628571Y-60061904D01*
X98295238Y-65061904D01*
X99247619Y-60061904D02*
X100914285Y-65061904D01*
X102580952Y-60061904D01*
X104247619Y-62442857D02*
X105914285Y-62442857D01*
X106628571Y-65061904D02*
X104247619Y-65061904D01*
X104247619Y-60061904D01*
X106628571Y-60061904D01*
X111152380Y-65061904D02*
X108771428Y-65061904D01*
X108771428Y-60061904D01*
X115200000Y-65061904D02*
X112819047Y-65061904D01*
X112819047Y-60061904D01*
X116866666Y-62442857D02*
X118533333Y-62442857D01*
X119247619Y-65061904D02*
X116866666Y-65061904D01*
X116866666Y-60061904D01*
X119247619Y-60061904D01*
D10*
X250973809Y-79376190D02*
X250973809Y-79852380D01*
X250640476Y-78852380D02*
X250973809Y-79376190D01*
X251307142Y-78852380D01*
X251592857Y-78947619D02*
X251640476Y-78900000D01*
X251735714Y-78852380D01*
X251973809Y-78852380D01*
X252069047Y-78900000D01*
X252116666Y-78947619D01*
X252164285Y-79042857D01*
X252164285Y-79138095D01*
X252116666Y-79280952D01*
X251545238Y-79852380D01*
X252164285Y-79852380D01*
X25523809Y-63576190D02*
X25523809Y-64052380D01*
X25190476Y-63052380D02*
X25523809Y-63576190D01*
X25857142Y-63052380D01*
X26714285Y-64052380D02*
X26142857Y-64052380D01*
X26428571Y-64052380D02*
X26428571Y-63052380D01*
X26333333Y-63195238D01*
X26238095Y-63290476D01*
X26142857Y-63338095D01*
X263402380Y-75833333D02*
X264116666Y-75833333D01*
X264259523Y-75880952D01*
X264354761Y-75976190D01*
X264402380Y-76119047D01*
X264402380Y-76214285D01*
X263735714Y-74928571D02*
X264402380Y-74928571D01*
X263354761Y-75166666D02*
X264069047Y-75404761D01*
X264069047Y-74785714D01*
X14002380Y-75833333D02*
X14716666Y-75833333D01*
X14859523Y-75880952D01*
X14954761Y-75976190D01*
X15002380Y-76119047D01*
X15002380Y-76214285D01*
X14097619Y-75404761D02*
X14050000Y-75357142D01*
X14002380Y-75261904D01*
X14002380Y-75023809D01*
X14050000Y-74928571D01*
X14097619Y-74880952D01*
X14192857Y-74833333D01*
X14288095Y-74833333D01*
X14430952Y-74880952D01*
X15002380Y-75452380D01*
X15002380Y-74833333D01*
X238561904Y-64252380D02*
X238561904Y-63252380D01*
X238800000Y-63252380D01*
X238942857Y-63300000D01*
X239038095Y-63395238D01*
X239085714Y-63490476D01*
X239133333Y-63680952D01*
X239133333Y-63823809D01*
X239085714Y-64014285D01*
X239038095Y-64109523D01*
X238942857Y-64204761D01*
X238800000Y-64252380D01*
X238561904Y-64252380D01*
X239990476Y-63585714D02*
X239990476Y-64252380D01*
X239752380Y-63204761D02*
X239514285Y-63919047D01*
X240133333Y-63919047D01*
X269781904Y-68052380D02*
X269781904Y-67052380D01*
X270020000Y-67052380D01*
X270162857Y-67100000D01*
X270258095Y-67195238D01*
X270305714Y-67290476D01*
X270353333Y-67480952D01*
X270353333Y-67623809D01*
X270305714Y-67814285D01*
X270258095Y-67909523D01*
X270162857Y-68004761D01*
X270020000Y-68052380D01*
X269781904Y-68052380D01*
X270686666Y-67052380D02*
X271305714Y-67052380D01*
X270972380Y-67433333D01*
X271115238Y-67433333D01*
X271210476Y-67480952D01*
X271258095Y-67528571D01*
X271305714Y-67623809D01*
X271305714Y-67861904D01*
X271258095Y-67957142D01*
X271210476Y-68004761D01*
X271115238Y-68052380D01*
X270829523Y-68052380D01*
X270734285Y-68004761D01*
X270686666Y-67957142D01*
X38561904Y-60802380D02*
X38561904Y-59802380D01*
X38800000Y-59802380D01*
X38942857Y-59850000D01*
X39038095Y-59945238D01*
X39085714Y-60040476D01*
X39133333Y-60230952D01*
X39133333Y-60373809D01*
X39085714Y-60564285D01*
X39038095Y-60659523D01*
X38942857Y-60754761D01*
X38800000Y-60802380D01*
X38561904Y-60802380D01*
X39514285Y-59897619D02*
X39561904Y-59850000D01*
X39657142Y-59802380D01*
X39895238Y-59802380D01*
X39990476Y-59850000D01*
X40038095Y-59897619D01*
X40085714Y-59992857D01*
X40085714Y-60088095D01*
X40038095Y-60230952D01*
X39466666Y-60802380D01*
X40085714Y-60802380D01*
X6861904Y-72052380D02*
X6861904Y-71052380D01*
X7100000Y-71052380D01*
X7242857Y-71100000D01*
X7338095Y-71195238D01*
X7385714Y-71290476D01*
X7433333Y-71480952D01*
X7433333Y-71623809D01*
X7385714Y-71814285D01*
X7338095Y-71909523D01*
X7242857Y-72004761D01*
X7100000Y-72052380D01*
X6861904Y-72052380D01*
X8385714Y-72052380D02*
X7814285Y-72052380D01*
X8100000Y-72052380D02*
X8100000Y-71052380D01*
X8004761Y-71195238D01*
X7909523Y-71290476D01*
X7814285Y-71338095D01*
X256127142Y-70542857D02*
X256174761Y-70590476D01*
X256222380Y-70733333D01*
X256222380Y-70828571D01*
X256174761Y-70971428D01*
X256079523Y-71066666D01*
X255984285Y-71114285D01*
X255793809Y-71161904D01*
X255650952Y-71161904D01*
X255460476Y-71114285D01*
X255365238Y-71066666D01*
X255270000Y-70971428D01*
X255222380Y-70828571D01*
X255222380Y-70733333D01*
X255270000Y-70590476D01*
X255317619Y-70542857D01*
X256222380Y-69590476D02*
X256222380Y-70161904D01*
X256222380Y-69876190D02*
X255222380Y-69876190D01*
X255365238Y-69971428D01*
X255460476Y-70066666D01*
X255508095Y-70161904D01*
X255222380Y-68971428D02*
X255222380Y-68876190D01*
X255270000Y-68780952D01*
X255317619Y-68733333D01*
X255412857Y-68685714D01*
X255603333Y-68638095D01*
X255841428Y-68638095D01*
X256031904Y-68685714D01*
X256127142Y-68733333D01*
X256174761Y-68780952D01*
X256222380Y-68876190D01*
X256222380Y-68971428D01*
X256174761Y-69066666D01*
X256127142Y-69114285D01*
X256031904Y-69161904D01*
X255841428Y-69209523D01*
X255603333Y-69209523D01*
X255412857Y-69161904D01*
X255317619Y-69114285D01*
X255270000Y-69066666D01*
X255222380Y-68971428D01*
X265337142Y-71916666D02*
X265384761Y-71964285D01*
X265432380Y-72107142D01*
X265432380Y-72202380D01*
X265384761Y-72345238D01*
X265289523Y-72440476D01*
X265194285Y-72488095D01*
X265003809Y-72535714D01*
X264860952Y-72535714D01*
X264670476Y-72488095D01*
X264575238Y-72440476D01*
X264480000Y-72345238D01*
X264432380Y-72202380D01*
X264432380Y-72107142D01*
X264480000Y-71964285D01*
X264527619Y-71916666D01*
X265432380Y-71440476D02*
X265432380Y-71250000D01*
X265384761Y-71154761D01*
X265337142Y-71107142D01*
X265194285Y-71011904D01*
X265003809Y-70964285D01*
X264622857Y-70964285D01*
X264527619Y-71011904D01*
X264480000Y-71059523D01*
X264432380Y-71154761D01*
X264432380Y-71345238D01*
X264480000Y-71440476D01*
X264527619Y-71488095D01*
X264622857Y-71535714D01*
X264860952Y-71535714D01*
X264956190Y-71488095D01*
X265003809Y-71440476D01*
X265051428Y-71345238D01*
X265051428Y-71154761D01*
X265003809Y-71059523D01*
X264956190Y-71011904D01*
X264860952Y-70964285D01*
X16927142Y-69766666D02*
X16974761Y-69814285D01*
X17022380Y-69957142D01*
X17022380Y-70052380D01*
X16974761Y-70195238D01*
X16879523Y-70290476D01*
X16784285Y-70338095D01*
X16593809Y-70385714D01*
X16450952Y-70385714D01*
X16260476Y-70338095D01*
X16165238Y-70290476D01*
X16070000Y-70195238D01*
X16022380Y-70052380D01*
X16022380Y-69957142D01*
X16070000Y-69814285D01*
X16117619Y-69766666D01*
X16450952Y-69195238D02*
X16403333Y-69290476D01*
X16355714Y-69338095D01*
X16260476Y-69385714D01*
X16212857Y-69385714D01*
X16117619Y-69338095D01*
X16070000Y-69290476D01*
X16022380Y-69195238D01*
X16022380Y-69004761D01*
X16070000Y-68909523D01*
X16117619Y-68861904D01*
X16212857Y-68814285D01*
X16260476Y-68814285D01*
X16355714Y-68861904D01*
X16403333Y-68909523D01*
X16450952Y-69004761D01*
X16450952Y-69195238D01*
X16498571Y-69290476D01*
X16546190Y-69338095D01*
X16641428Y-69385714D01*
X16831904Y-69385714D01*
X16927142Y-69338095D01*
X16974761Y-69290476D01*
X17022380Y-69195238D01*
X17022380Y-69004761D01*
X16974761Y-68909523D01*
X16927142Y-68861904D01*
X16831904Y-68814285D01*
X16641428Y-68814285D01*
X16546190Y-68861904D01*
X16498571Y-68909523D01*
X16450952Y-69004761D01*
X13787142Y-69766666D02*
X13834761Y-69814285D01*
X13882380Y-69957142D01*
X13882380Y-70052380D01*
X13834761Y-70195238D01*
X13739523Y-70290476D01*
X13644285Y-70338095D01*
X13453809Y-70385714D01*
X13310952Y-70385714D01*
X13120476Y-70338095D01*
X13025238Y-70290476D01*
X12930000Y-70195238D01*
X12882380Y-70052380D01*
X12882380Y-69957142D01*
X12930000Y-69814285D01*
X12977619Y-69766666D01*
X12882380Y-69433333D02*
X12882380Y-68766666D01*
X13882380Y-69195238D01*
X255508333Y-76627142D02*
X255460714Y-76674761D01*
X255317857Y-76722380D01*
X255222619Y-76722380D01*
X255079761Y-76674761D01*
X254984523Y-76579523D01*
X254936904Y-76484285D01*
X254889285Y-76293809D01*
X254889285Y-76150952D01*
X254936904Y-75960476D01*
X254984523Y-75865238D01*
X255079761Y-75770000D01*
X255222619Y-75722380D01*
X255317857Y-75722380D01*
X255460714Y-75770000D01*
X255508333Y-75817619D01*
X256365476Y-75722380D02*
X256175000Y-75722380D01*
X256079761Y-75770000D01*
X256032142Y-75817619D01*
X255936904Y-75960476D01*
X255889285Y-76150952D01*
X255889285Y-76531904D01*
X255936904Y-76627142D01*
X255984523Y-76674761D01*
X256079761Y-76722380D01*
X256270238Y-76722380D01*
X256365476Y-76674761D01*
X256413095Y-76627142D01*
X256460714Y-76531904D01*
X256460714Y-76293809D01*
X256413095Y-76198571D01*
X256365476Y-76150952D01*
X256270238Y-76103333D01*
X256079761Y-76103333D01*
X255984523Y-76150952D01*
X255936904Y-76198571D01*
X255889285Y-76293809D01*
X247033333Y-79487142D02*
X246985714Y-79534761D01*
X246842857Y-79582380D01*
X246747619Y-79582380D01*
X246604761Y-79534761D01*
X246509523Y-79439523D01*
X246461904Y-79344285D01*
X246414285Y-79153809D01*
X246414285Y-79010952D01*
X246461904Y-78820476D01*
X246509523Y-78725238D01*
X246604761Y-78630000D01*
X246747619Y-78582380D01*
X246842857Y-78582380D01*
X246985714Y-78630000D01*
X247033333Y-78677619D01*
X247938095Y-78582380D02*
X247461904Y-78582380D01*
X247414285Y-79058571D01*
X247461904Y-79010952D01*
X247557142Y-78963333D01*
X247795238Y-78963333D01*
X247890476Y-79010952D01*
X247938095Y-79058571D01*
X247985714Y-79153809D01*
X247985714Y-79391904D01*
X247938095Y-79487142D01*
X247890476Y-79534761D01*
X247795238Y-79582380D01*
X247557142Y-79582380D01*
X247461904Y-79534761D01*
X247414285Y-79487142D01*
X258987142Y-74366666D02*
X259034761Y-74414285D01*
X259082380Y-74557142D01*
X259082380Y-74652380D01*
X259034761Y-74795238D01*
X258939523Y-74890476D01*
X258844285Y-74938095D01*
X258653809Y-74985714D01*
X258510952Y-74985714D01*
X258320476Y-74938095D01*
X258225238Y-74890476D01*
X258130000Y-74795238D01*
X258082380Y-74652380D01*
X258082380Y-74557142D01*
X258130000Y-74414285D01*
X258177619Y-74366666D01*
X258415714Y-73509523D02*
X259082380Y-73509523D01*
X258034761Y-73747619D02*
X258749047Y-73985714D01*
X258749047Y-73366666D01*
X21833333Y-67387142D02*
X21785714Y-67434761D01*
X21642857Y-67482380D01*
X21547619Y-67482380D01*
X21404761Y-67434761D01*
X21309523Y-67339523D01*
X21261904Y-67244285D01*
X21214285Y-67053809D01*
X21214285Y-66910952D01*
X21261904Y-66720476D01*
X21309523Y-66625238D01*
X21404761Y-66530000D01*
X21547619Y-66482380D01*
X21642857Y-66482380D01*
X21785714Y-66530000D01*
X21833333Y-66577619D01*
X22166666Y-66482380D02*
X22785714Y-66482380D01*
X22452380Y-66863333D01*
X22595238Y-66863333D01*
X22690476Y-66910952D01*
X22738095Y-66958571D01*
X22785714Y-67053809D01*
X22785714Y-67291904D01*
X22738095Y-67387142D01*
X22690476Y-67434761D01*
X22595238Y-67482380D01*
X22309523Y-67482380D01*
X22214285Y-67434761D01*
X22166666Y-67387142D01*
X29833333Y-64527142D02*
X29785714Y-64574761D01*
X29642857Y-64622380D01*
X29547619Y-64622380D01*
X29404761Y-64574761D01*
X29309523Y-64479523D01*
X29261904Y-64384285D01*
X29214285Y-64193809D01*
X29214285Y-64050952D01*
X29261904Y-63860476D01*
X29309523Y-63765238D01*
X29404761Y-63670000D01*
X29547619Y-63622380D01*
X29642857Y-63622380D01*
X29785714Y-63670000D01*
X29833333Y-63717619D01*
X30214285Y-63717619D02*
X30261904Y-63670000D01*
X30357142Y-63622380D01*
X30595238Y-63622380D01*
X30690476Y-63670000D01*
X30738095Y-63717619D01*
X30785714Y-63812857D01*
X30785714Y-63908095D01*
X30738095Y-64050952D01*
X30166666Y-64622380D01*
X30785714Y-64622380D01*
X18927142Y-69766666D02*
X18974761Y-69814285D01*
X19022380Y-69957142D01*
X19022380Y-70052380D01*
X18974761Y-70195238D01*
X18879523Y-70290476D01*
X18784285Y-70338095D01*
X18593809Y-70385714D01*
X18450952Y-70385714D01*
X18260476Y-70338095D01*
X18165238Y-70290476D01*
X18070000Y-70195238D01*
X18022380Y-70052380D01*
X18022380Y-69957142D01*
X18070000Y-69814285D01*
X18117619Y-69766666D01*
X19022380Y-68814285D02*
X19022380Y-69385714D01*
X19022380Y-69100000D02*
X18022380Y-69100000D01*
X18165238Y-69195238D01*
X18260476Y-69290476D01*
X18308095Y-69385714D01*
X14238095Y-71652380D02*
X14238095Y-72461904D01*
X14285714Y-72557142D01*
X14333333Y-72604761D01*
X14428571Y-72652380D01*
X14619047Y-72652380D01*
X14714285Y-72604761D01*
X14761904Y-72557142D01*
X14809523Y-72461904D01*
X14809523Y-71652380D01*
X15333333Y-72652380D02*
X15523809Y-72652380D01*
X15619047Y-72604761D01*
X15666666Y-72557142D01*
X15761904Y-72414285D01*
X15809523Y-72223809D01*
X15809523Y-71842857D01*
X15761904Y-71747619D01*
X15714285Y-71700000D01*
X15619047Y-71652380D01*
X15428571Y-71652380D01*
X15333333Y-71700000D01*
X15285714Y-71747619D01*
X15238095Y-71842857D01*
X15238095Y-72080952D01*
X15285714Y-72176190D01*
X15333333Y-72223809D01*
X15428571Y-72271428D01*
X15619047Y-72271428D01*
X15714285Y-72223809D01*
X15761904Y-72176190D01*
X15809523Y-72080952D01*
X263079761Y-67633333D02*
X263127380Y-67490476D01*
X263127380Y-67252380D01*
X263079761Y-67157142D01*
X263032142Y-67109523D01*
X262936904Y-67061904D01*
X262841666Y-67061904D01*
X262746428Y-67109523D01*
X262698809Y-67157142D01*
X262651190Y-67252380D01*
X262603571Y-67442857D01*
X262555952Y-67538095D01*
X262508333Y-67585714D01*
X262413095Y-67633333D01*
X262317857Y-67633333D01*
X262222619Y-67585714D01*
X262175000Y-67538095D01*
X262127380Y-67442857D01*
X262127380Y-67204761D01*
X262175000Y-67061904D01*
X262127380Y-66728571D02*
X263127380Y-66490476D01*
X262413095Y-66300000D01*
X263127380Y-66109523D01*
X262127380Y-65871428D01*
X262222619Y-65538095D02*
X262175000Y-65490476D01*
X262127380Y-65395238D01*
X262127380Y-65157142D01*
X262175000Y-65061904D01*
X262222619Y-65014285D01*
X262317857Y-64966666D01*
X262413095Y-64966666D01*
X262555952Y-65014285D01*
X263127380Y-65585714D01*
X263127380Y-64966666D01*
X4729761Y-67633333D02*
X4777380Y-67490476D01*
X4777380Y-67252380D01*
X4729761Y-67157142D01*
X4682142Y-67109523D01*
X4586904Y-67061904D01*
X4491666Y-67061904D01*
X4396428Y-67109523D01*
X4348809Y-67157142D01*
X4301190Y-67252380D01*
X4253571Y-67442857D01*
X4205952Y-67538095D01*
X4158333Y-67585714D01*
X4063095Y-67633333D01*
X3967857Y-67633333D01*
X3872619Y-67585714D01*
X3825000Y-67538095D01*
X3777380Y-67442857D01*
X3777380Y-67204761D01*
X3825000Y-67061904D01*
X3777380Y-66728571D02*
X4777380Y-66490476D01*
X4063095Y-66300000D01*
X4777380Y-66109523D01*
X3777380Y-65871428D01*
X4777380Y-64966666D02*
X4777380Y-65538095D01*
X4777380Y-65252380D02*
X3777380Y-65252380D01*
X3920238Y-65347619D01*
X4015476Y-65442857D01*
X4063095Y-65538095D01*
X213466666Y-57757380D02*
X213466666Y-58471666D01*
X213419047Y-58614523D01*
X213323809Y-58709761D01*
X213180952Y-58757380D01*
X213085714Y-58757380D01*
X213847619Y-57757380D02*
X214466666Y-57757380D01*
X214133333Y-58138333D01*
X214276190Y-58138333D01*
X214371428Y-58185952D01*
X214419047Y-58233571D01*
X214466666Y-58328809D01*
X214466666Y-58566904D01*
X214419047Y-58662142D01*
X214371428Y-58709761D01*
X214276190Y-58757380D01*
X213990476Y-58757380D01*
X213895238Y-58709761D01*
X213847619Y-58662142D01*
X62476666Y-57757380D02*
X62476666Y-58471666D01*
X62429047Y-58614523D01*
X62333809Y-58709761D01*
X62190952Y-58757380D01*
X62095714Y-58757380D01*
X63476666Y-58757380D02*
X62905238Y-58757380D01*
X63190952Y-58757380D02*
X63190952Y-57757380D01*
X63095714Y-57900238D01*
X63000476Y-57995476D01*
X62905238Y-58043095D01*
X259061904Y-71752380D02*
X259061904Y-72561904D01*
X259109523Y-72657142D01*
X259157142Y-72704761D01*
X259252380Y-72752380D01*
X259442857Y-72752380D01*
X259538095Y-72704761D01*
X259585714Y-72657142D01*
X259633333Y-72561904D01*
X259633333Y-71752380D01*
X260633333Y-72752380D02*
X260061904Y-72752380D01*
X260347619Y-72752380D02*
X260347619Y-71752380D01*
X260252380Y-71895238D01*
X260157142Y-71990476D01*
X260061904Y-72038095D01*
X261252380Y-71752380D02*
X261347619Y-71752380D01*
X261442857Y-71800000D01*
X261490476Y-71847619D01*
X261538095Y-71942857D01*
X261585714Y-72133333D01*
X261585714Y-72371428D01*
X261538095Y-72561904D01*
X261490476Y-72657142D01*
X261442857Y-72704761D01*
X261347619Y-72752380D01*
X261252380Y-72752380D01*
X261157142Y-72704761D01*
X261109523Y-72657142D01*
X261061904Y-72561904D01*
X261014285Y-72371428D01*
X261014285Y-72133333D01*
X261061904Y-71942857D01*
X261109523Y-71847619D01*
X261157142Y-71800000D01*
X261252380Y-71752380D01*
%LPC*%
D13*
X252700000Y-77400000D03*
X250200000Y-77400000D03*
X24750000Y-65600000D03*
X27250000Y-65600000D03*
D14*
X266500000Y-74500000D03*
D15*
G36*
X267274340Y-75701605D02*
G01*
X267306698Y-75706405D01*
X267338429Y-75714353D01*
X267369229Y-75725373D01*
X267398800Y-75739359D01*
X267426857Y-75756177D01*
X267453132Y-75775663D01*
X267477369Y-75797631D01*
X267499337Y-75821868D01*
X267518823Y-75848143D01*
X267535641Y-75876200D01*
X267549627Y-75905771D01*
X267560647Y-75936571D01*
X267568595Y-75968302D01*
X267573395Y-76000660D01*
X267575000Y-76033332D01*
X267575000Y-76966668D01*
X267573395Y-76999340D01*
X267568595Y-77031698D01*
X267560647Y-77063429D01*
X267549627Y-77094229D01*
X267535641Y-77123800D01*
X267518823Y-77151857D01*
X267499337Y-77178132D01*
X267477369Y-77202369D01*
X267453132Y-77224337D01*
X267426857Y-77243823D01*
X267398800Y-77260641D01*
X267369229Y-77274627D01*
X267338429Y-77285647D01*
X267306698Y-77293595D01*
X267274340Y-77298395D01*
X267241668Y-77300000D01*
X265758332Y-77300000D01*
X265725660Y-77298395D01*
X265693302Y-77293595D01*
X265661571Y-77285647D01*
X265630771Y-77274627D01*
X265601200Y-77260641D01*
X265573143Y-77243823D01*
X265546868Y-77224337D01*
X265522631Y-77202369D01*
X265500663Y-77178132D01*
X265481177Y-77151857D01*
X265464359Y-77123800D01*
X265450373Y-77094229D01*
X265439353Y-77063429D01*
X265431405Y-77031698D01*
X265426605Y-76999340D01*
X265425000Y-76966668D01*
X265425000Y-76033332D01*
X265426605Y-76000660D01*
X265431405Y-75968302D01*
X265439353Y-75936571D01*
X265450373Y-75905771D01*
X265464359Y-75876200D01*
X265481177Y-75848143D01*
X265500663Y-75821868D01*
X265522631Y-75797631D01*
X265546868Y-75775663D01*
X265573143Y-75756177D01*
X265601200Y-75739359D01*
X265630771Y-75725373D01*
X265661571Y-75714353D01*
X265693302Y-75706405D01*
X265725660Y-75701605D01*
X265758332Y-75700000D01*
X267241668Y-75700000D01*
X267274340Y-75701605D01*
X267274340Y-75701605D01*
G37*
D16*
X266500000Y-76500000D03*
D14*
X12000000Y-76500000D03*
D15*
G36*
X12774340Y-73701605D02*
G01*
X12806698Y-73706405D01*
X12838429Y-73714353D01*
X12869229Y-73725373D01*
X12898800Y-73739359D01*
X12926857Y-73756177D01*
X12953132Y-73775663D01*
X12977369Y-73797631D01*
X12999337Y-73821868D01*
X13018823Y-73848143D01*
X13035641Y-73876200D01*
X13049627Y-73905771D01*
X13060647Y-73936571D01*
X13068595Y-73968302D01*
X13073395Y-74000660D01*
X13075000Y-74033332D01*
X13075000Y-74966668D01*
X13073395Y-74999340D01*
X13068595Y-75031698D01*
X13060647Y-75063429D01*
X13049627Y-75094229D01*
X13035641Y-75123800D01*
X13018823Y-75151857D01*
X12999337Y-75178132D01*
X12977369Y-75202369D01*
X12953132Y-75224337D01*
X12926857Y-75243823D01*
X12898800Y-75260641D01*
X12869229Y-75274627D01*
X12838429Y-75285647D01*
X12806698Y-75293595D01*
X12774340Y-75298395D01*
X12741668Y-75300000D01*
X11258332Y-75300000D01*
X11225660Y-75298395D01*
X11193302Y-75293595D01*
X11161571Y-75285647D01*
X11130771Y-75274627D01*
X11101200Y-75260641D01*
X11073143Y-75243823D01*
X11046868Y-75224337D01*
X11022631Y-75202369D01*
X11000663Y-75178132D01*
X10981177Y-75151857D01*
X10964359Y-75123800D01*
X10950373Y-75094229D01*
X10939353Y-75063429D01*
X10931405Y-75031698D01*
X10926605Y-74999340D01*
X10925000Y-74966668D01*
X10925000Y-74033332D01*
X10926605Y-74000660D01*
X10931405Y-73968302D01*
X10939353Y-73936571D01*
X10950373Y-73905771D01*
X10964359Y-73876200D01*
X10981177Y-73848143D01*
X11000663Y-73821868D01*
X11022631Y-73797631D01*
X11046868Y-73775663D01*
X11073143Y-73756177D01*
X11101200Y-73739359D01*
X11130771Y-73725373D01*
X11161571Y-73714353D01*
X11193302Y-73706405D01*
X11225660Y-73701605D01*
X11258332Y-73700000D01*
X12741668Y-73700000D01*
X12774340Y-73701605D01*
X12774340Y-73701605D01*
G37*
D16*
X12000000Y-74500000D03*
D17*
X237650000Y-61800000D03*
X240950000Y-61800000D03*
X272170000Y-69600000D03*
X268870000Y-69600000D03*
X40950000Y-62350000D03*
X37650000Y-62350000D03*
X5950000Y-69600000D03*
X9250000Y-69600000D03*
D15*
G36*
X257570581Y-68301625D02*
G01*
X257603343Y-68306485D01*
X257635471Y-68314533D01*
X257666656Y-68325691D01*
X257696596Y-68339852D01*
X257725005Y-68356879D01*
X257751608Y-68376609D01*
X257776149Y-68398851D01*
X257798391Y-68423392D01*
X257818121Y-68449995D01*
X257835148Y-68478404D01*
X257849309Y-68508344D01*
X257860467Y-68539529D01*
X257868515Y-68571657D01*
X257873375Y-68604419D01*
X257875000Y-68637500D01*
X257875000Y-69412500D01*
X257873375Y-69445581D01*
X257868515Y-69478343D01*
X257860467Y-69510471D01*
X257849309Y-69541656D01*
X257835148Y-69571596D01*
X257818121Y-69600005D01*
X257798391Y-69626608D01*
X257776149Y-69651149D01*
X257751608Y-69673391D01*
X257725005Y-69693121D01*
X257696596Y-69710148D01*
X257666656Y-69724309D01*
X257635471Y-69735467D01*
X257603343Y-69743515D01*
X257570581Y-69748375D01*
X257537500Y-69750000D01*
X256862500Y-69750000D01*
X256829419Y-69748375D01*
X256796657Y-69743515D01*
X256764529Y-69735467D01*
X256733344Y-69724309D01*
X256703404Y-69710148D01*
X256674995Y-69693121D01*
X256648392Y-69673391D01*
X256623851Y-69651149D01*
X256601609Y-69626608D01*
X256581879Y-69600005D01*
X256564852Y-69571596D01*
X256550691Y-69541656D01*
X256539533Y-69510471D01*
X256531485Y-69478343D01*
X256526625Y-69445581D01*
X256525000Y-69412500D01*
X256525000Y-68637500D01*
X256526625Y-68604419D01*
X256531485Y-68571657D01*
X256539533Y-68539529D01*
X256550691Y-68508344D01*
X256564852Y-68478404D01*
X256581879Y-68449995D01*
X256601609Y-68423392D01*
X256623851Y-68398851D01*
X256648392Y-68376609D01*
X256674995Y-68356879D01*
X256703404Y-68339852D01*
X256733344Y-68325691D01*
X256764529Y-68314533D01*
X256796657Y-68306485D01*
X256829419Y-68301625D01*
X256862500Y-68300000D01*
X257537500Y-68300000D01*
X257570581Y-68301625D01*
X257570581Y-68301625D01*
G37*
D18*
X257200000Y-69025000D03*
D15*
G36*
X257570581Y-70051625D02*
G01*
X257603343Y-70056485D01*
X257635471Y-70064533D01*
X257666656Y-70075691D01*
X257696596Y-70089852D01*
X257725005Y-70106879D01*
X257751608Y-70126609D01*
X257776149Y-70148851D01*
X257798391Y-70173392D01*
X257818121Y-70199995D01*
X257835148Y-70228404D01*
X257849309Y-70258344D01*
X257860467Y-70289529D01*
X257868515Y-70321657D01*
X257873375Y-70354419D01*
X257875000Y-70387500D01*
X257875000Y-71162500D01*
X257873375Y-71195581D01*
X257868515Y-71228343D01*
X257860467Y-71260471D01*
X257849309Y-71291656D01*
X257835148Y-71321596D01*
X257818121Y-71350005D01*
X257798391Y-71376608D01*
X257776149Y-71401149D01*
X257751608Y-71423391D01*
X257725005Y-71443121D01*
X257696596Y-71460148D01*
X257666656Y-71474309D01*
X257635471Y-71485467D01*
X257603343Y-71493515D01*
X257570581Y-71498375D01*
X257537500Y-71500000D01*
X256862500Y-71500000D01*
X256829419Y-71498375D01*
X256796657Y-71493515D01*
X256764529Y-71485467D01*
X256733344Y-71474309D01*
X256703404Y-71460148D01*
X256674995Y-71443121D01*
X256648392Y-71423391D01*
X256623851Y-71401149D01*
X256601609Y-71376608D01*
X256581879Y-71350005D01*
X256564852Y-71321596D01*
X256550691Y-71291656D01*
X256539533Y-71260471D01*
X256531485Y-71228343D01*
X256526625Y-71195581D01*
X256525000Y-71162500D01*
X256525000Y-70387500D01*
X256526625Y-70354419D01*
X256531485Y-70321657D01*
X256539533Y-70289529D01*
X256550691Y-70258344D01*
X256564852Y-70228404D01*
X256581879Y-70199995D01*
X256601609Y-70173392D01*
X256623851Y-70148851D01*
X256648392Y-70126609D01*
X256674995Y-70106879D01*
X256703404Y-70089852D01*
X256733344Y-70075691D01*
X256764529Y-70064533D01*
X256796657Y-70056485D01*
X256829419Y-70051625D01*
X256862500Y-70050000D01*
X257537500Y-70050000D01*
X257570581Y-70051625D01*
X257570581Y-70051625D01*
G37*
D18*
X257200000Y-70775000D03*
D15*
G36*
X263920581Y-71901625D02*
G01*
X263953343Y-71906485D01*
X263985471Y-71914533D01*
X264016656Y-71925691D01*
X264046596Y-71939852D01*
X264075005Y-71956879D01*
X264101608Y-71976609D01*
X264126149Y-71998851D01*
X264148391Y-72023392D01*
X264168121Y-72049995D01*
X264185148Y-72078404D01*
X264199309Y-72108344D01*
X264210467Y-72139529D01*
X264218515Y-72171657D01*
X264223375Y-72204419D01*
X264225000Y-72237500D01*
X264225000Y-73012500D01*
X264223375Y-73045581D01*
X264218515Y-73078343D01*
X264210467Y-73110471D01*
X264199309Y-73141656D01*
X264185148Y-73171596D01*
X264168121Y-73200005D01*
X264148391Y-73226608D01*
X264126149Y-73251149D01*
X264101608Y-73273391D01*
X264075005Y-73293121D01*
X264046596Y-73310148D01*
X264016656Y-73324309D01*
X263985471Y-73335467D01*
X263953343Y-73343515D01*
X263920581Y-73348375D01*
X263887500Y-73350000D01*
X263212500Y-73350000D01*
X263179419Y-73348375D01*
X263146657Y-73343515D01*
X263114529Y-73335467D01*
X263083344Y-73324309D01*
X263053404Y-73310148D01*
X263024995Y-73293121D01*
X262998392Y-73273391D01*
X262973851Y-73251149D01*
X262951609Y-73226608D01*
X262931879Y-73200005D01*
X262914852Y-73171596D01*
X262900691Y-73141656D01*
X262889533Y-73110471D01*
X262881485Y-73078343D01*
X262876625Y-73045581D01*
X262875000Y-73012500D01*
X262875000Y-72237500D01*
X262876625Y-72204419D01*
X262881485Y-72171657D01*
X262889533Y-72139529D01*
X262900691Y-72108344D01*
X262914852Y-72078404D01*
X262931879Y-72049995D01*
X262951609Y-72023392D01*
X262973851Y-71998851D01*
X262998392Y-71976609D01*
X263024995Y-71956879D01*
X263053404Y-71939852D01*
X263083344Y-71925691D01*
X263114529Y-71914533D01*
X263146657Y-71906485D01*
X263179419Y-71901625D01*
X263212500Y-71900000D01*
X263887500Y-71900000D01*
X263920581Y-71901625D01*
X263920581Y-71901625D01*
G37*
D18*
X263550000Y-72625000D03*
D15*
G36*
X263920581Y-70151625D02*
G01*
X263953343Y-70156485D01*
X263985471Y-70164533D01*
X264016656Y-70175691D01*
X264046596Y-70189852D01*
X264075005Y-70206879D01*
X264101608Y-70226609D01*
X264126149Y-70248851D01*
X264148391Y-70273392D01*
X264168121Y-70299995D01*
X264185148Y-70328404D01*
X264199309Y-70358344D01*
X264210467Y-70389529D01*
X264218515Y-70421657D01*
X264223375Y-70454419D01*
X264225000Y-70487500D01*
X264225000Y-71262500D01*
X264223375Y-71295581D01*
X264218515Y-71328343D01*
X264210467Y-71360471D01*
X264199309Y-71391656D01*
X264185148Y-71421596D01*
X264168121Y-71450005D01*
X264148391Y-71476608D01*
X264126149Y-71501149D01*
X264101608Y-71523391D01*
X264075005Y-71543121D01*
X264046596Y-71560148D01*
X264016656Y-71574309D01*
X263985471Y-71585467D01*
X263953343Y-71593515D01*
X263920581Y-71598375D01*
X263887500Y-71600000D01*
X263212500Y-71600000D01*
X263179419Y-71598375D01*
X263146657Y-71593515D01*
X263114529Y-71585467D01*
X263083344Y-71574309D01*
X263053404Y-71560148D01*
X263024995Y-71543121D01*
X262998392Y-71523391D01*
X262973851Y-71501149D01*
X262951609Y-71476608D01*
X262931879Y-71450005D01*
X262914852Y-71421596D01*
X262900691Y-71391656D01*
X262889533Y-71360471D01*
X262881485Y-71328343D01*
X262876625Y-71295581D01*
X262875000Y-71262500D01*
X262875000Y-70487500D01*
X262876625Y-70454419D01*
X262881485Y-70421657D01*
X262889533Y-70389529D01*
X262900691Y-70358344D01*
X262914852Y-70328404D01*
X262931879Y-70299995D01*
X262951609Y-70273392D01*
X262973851Y-70248851D01*
X262998392Y-70226609D01*
X263024995Y-70206879D01*
X263053404Y-70189852D01*
X263083344Y-70175691D01*
X263114529Y-70164533D01*
X263146657Y-70156485D01*
X263179419Y-70151625D01*
X263212500Y-70150000D01*
X263887500Y-70150000D01*
X263920581Y-70151625D01*
X263920581Y-70151625D01*
G37*
D18*
X263550000Y-70875000D03*
D15*
G36*
X18370581Y-68001625D02*
G01*
X18403343Y-68006485D01*
X18435471Y-68014533D01*
X18466656Y-68025691D01*
X18496596Y-68039852D01*
X18525005Y-68056879D01*
X18551608Y-68076609D01*
X18576149Y-68098851D01*
X18598391Y-68123392D01*
X18618121Y-68149995D01*
X18635148Y-68178404D01*
X18649309Y-68208344D01*
X18660467Y-68239529D01*
X18668515Y-68271657D01*
X18673375Y-68304419D01*
X18675000Y-68337500D01*
X18675000Y-69112500D01*
X18673375Y-69145581D01*
X18668515Y-69178343D01*
X18660467Y-69210471D01*
X18649309Y-69241656D01*
X18635148Y-69271596D01*
X18618121Y-69300005D01*
X18598391Y-69326608D01*
X18576149Y-69351149D01*
X18551608Y-69373391D01*
X18525005Y-69393121D01*
X18496596Y-69410148D01*
X18466656Y-69424309D01*
X18435471Y-69435467D01*
X18403343Y-69443515D01*
X18370581Y-69448375D01*
X18337500Y-69450000D01*
X17662500Y-69450000D01*
X17629419Y-69448375D01*
X17596657Y-69443515D01*
X17564529Y-69435467D01*
X17533344Y-69424309D01*
X17503404Y-69410148D01*
X17474995Y-69393121D01*
X17448392Y-69373391D01*
X17423851Y-69351149D01*
X17401609Y-69326608D01*
X17381879Y-69300005D01*
X17364852Y-69271596D01*
X17350691Y-69241656D01*
X17339533Y-69210471D01*
X17331485Y-69178343D01*
X17326625Y-69145581D01*
X17325000Y-69112500D01*
X17325000Y-68337500D01*
X17326625Y-68304419D01*
X17331485Y-68271657D01*
X17339533Y-68239529D01*
X17350691Y-68208344D01*
X17364852Y-68178404D01*
X17381879Y-68149995D01*
X17401609Y-68123392D01*
X17423851Y-68098851D01*
X17448392Y-68076609D01*
X17474995Y-68056879D01*
X17503404Y-68039852D01*
X17533344Y-68025691D01*
X17564529Y-68014533D01*
X17596657Y-68006485D01*
X17629419Y-68001625D01*
X17662500Y-68000000D01*
X18337500Y-68000000D01*
X18370581Y-68001625D01*
X18370581Y-68001625D01*
G37*
D18*
X18000000Y-68725000D03*
D15*
G36*
X18370581Y-69751625D02*
G01*
X18403343Y-69756485D01*
X18435471Y-69764533D01*
X18466656Y-69775691D01*
X18496596Y-69789852D01*
X18525005Y-69806879D01*
X18551608Y-69826609D01*
X18576149Y-69848851D01*
X18598391Y-69873392D01*
X18618121Y-69899995D01*
X18635148Y-69928404D01*
X18649309Y-69958344D01*
X18660467Y-69989529D01*
X18668515Y-70021657D01*
X18673375Y-70054419D01*
X18675000Y-70087500D01*
X18675000Y-70862500D01*
X18673375Y-70895581D01*
X18668515Y-70928343D01*
X18660467Y-70960471D01*
X18649309Y-70991656D01*
X18635148Y-71021596D01*
X18618121Y-71050005D01*
X18598391Y-71076608D01*
X18576149Y-71101149D01*
X18551608Y-71123391D01*
X18525005Y-71143121D01*
X18496596Y-71160148D01*
X18466656Y-71174309D01*
X18435471Y-71185467D01*
X18403343Y-71193515D01*
X18370581Y-71198375D01*
X18337500Y-71200000D01*
X17662500Y-71200000D01*
X17629419Y-71198375D01*
X17596657Y-71193515D01*
X17564529Y-71185467D01*
X17533344Y-71174309D01*
X17503404Y-71160148D01*
X17474995Y-71143121D01*
X17448392Y-71123391D01*
X17423851Y-71101149D01*
X17401609Y-71076608D01*
X17381879Y-71050005D01*
X17364852Y-71021596D01*
X17350691Y-70991656D01*
X17339533Y-70960471D01*
X17331485Y-70928343D01*
X17326625Y-70895581D01*
X17325000Y-70862500D01*
X17325000Y-70087500D01*
X17326625Y-70054419D01*
X17331485Y-70021657D01*
X17339533Y-69989529D01*
X17350691Y-69958344D01*
X17364852Y-69928404D01*
X17381879Y-69899995D01*
X17401609Y-69873392D01*
X17423851Y-69848851D01*
X17448392Y-69826609D01*
X17474995Y-69806879D01*
X17503404Y-69789852D01*
X17533344Y-69775691D01*
X17564529Y-69764533D01*
X17596657Y-69756485D01*
X17629419Y-69751625D01*
X17662500Y-69750000D01*
X18337500Y-69750000D01*
X18370581Y-69751625D01*
X18370581Y-69751625D01*
G37*
D18*
X18000000Y-70475000D03*
D15*
G36*
X12370581Y-69751625D02*
G01*
X12403343Y-69756485D01*
X12435471Y-69764533D01*
X12466656Y-69775691D01*
X12496596Y-69789852D01*
X12525005Y-69806879D01*
X12551608Y-69826609D01*
X12576149Y-69848851D01*
X12598391Y-69873392D01*
X12618121Y-69899995D01*
X12635148Y-69928404D01*
X12649309Y-69958344D01*
X12660467Y-69989529D01*
X12668515Y-70021657D01*
X12673375Y-70054419D01*
X12675000Y-70087500D01*
X12675000Y-70862500D01*
X12673375Y-70895581D01*
X12668515Y-70928343D01*
X12660467Y-70960471D01*
X12649309Y-70991656D01*
X12635148Y-71021596D01*
X12618121Y-71050005D01*
X12598391Y-71076608D01*
X12576149Y-71101149D01*
X12551608Y-71123391D01*
X12525005Y-71143121D01*
X12496596Y-71160148D01*
X12466656Y-71174309D01*
X12435471Y-71185467D01*
X12403343Y-71193515D01*
X12370581Y-71198375D01*
X12337500Y-71200000D01*
X11662500Y-71200000D01*
X11629419Y-71198375D01*
X11596657Y-71193515D01*
X11564529Y-71185467D01*
X11533344Y-71174309D01*
X11503404Y-71160148D01*
X11474995Y-71143121D01*
X11448392Y-71123391D01*
X11423851Y-71101149D01*
X11401609Y-71076608D01*
X11381879Y-71050005D01*
X11364852Y-71021596D01*
X11350691Y-70991656D01*
X11339533Y-70960471D01*
X11331485Y-70928343D01*
X11326625Y-70895581D01*
X11325000Y-70862500D01*
X11325000Y-70087500D01*
X11326625Y-70054419D01*
X11331485Y-70021657D01*
X11339533Y-69989529D01*
X11350691Y-69958344D01*
X11364852Y-69928404D01*
X11381879Y-69899995D01*
X11401609Y-69873392D01*
X11423851Y-69848851D01*
X11448392Y-69826609D01*
X11474995Y-69806879D01*
X11503404Y-69789852D01*
X11533344Y-69775691D01*
X11564529Y-69764533D01*
X11596657Y-69756485D01*
X11629419Y-69751625D01*
X11662500Y-69750000D01*
X12337500Y-69750000D01*
X12370581Y-69751625D01*
X12370581Y-69751625D01*
G37*
D18*
X12000000Y-70475000D03*
D15*
G36*
X12370581Y-68001625D02*
G01*
X12403343Y-68006485D01*
X12435471Y-68014533D01*
X12466656Y-68025691D01*
X12496596Y-68039852D01*
X12525005Y-68056879D01*
X12551608Y-68076609D01*
X12576149Y-68098851D01*
X12598391Y-68123392D01*
X12618121Y-68149995D01*
X12635148Y-68178404D01*
X12649309Y-68208344D01*
X12660467Y-68239529D01*
X12668515Y-68271657D01*
X12673375Y-68304419D01*
X12675000Y-68337500D01*
X12675000Y-69112500D01*
X12673375Y-69145581D01*
X12668515Y-69178343D01*
X12660467Y-69210471D01*
X12649309Y-69241656D01*
X12635148Y-69271596D01*
X12618121Y-69300005D01*
X12598391Y-69326608D01*
X12576149Y-69351149D01*
X12551608Y-69373391D01*
X12525005Y-69393121D01*
X12496596Y-69410148D01*
X12466656Y-69424309D01*
X12435471Y-69435467D01*
X12403343Y-69443515D01*
X12370581Y-69448375D01*
X12337500Y-69450000D01*
X11662500Y-69450000D01*
X11629419Y-69448375D01*
X11596657Y-69443515D01*
X11564529Y-69435467D01*
X11533344Y-69424309D01*
X11503404Y-69410148D01*
X11474995Y-69393121D01*
X11448392Y-69373391D01*
X11423851Y-69351149D01*
X11401609Y-69326608D01*
X11381879Y-69300005D01*
X11364852Y-69271596D01*
X11350691Y-69241656D01*
X11339533Y-69210471D01*
X11331485Y-69178343D01*
X11326625Y-69145581D01*
X11325000Y-69112500D01*
X11325000Y-68337500D01*
X11326625Y-68304419D01*
X11331485Y-68271657D01*
X11339533Y-68239529D01*
X11350691Y-68208344D01*
X11364852Y-68178404D01*
X11381879Y-68149995D01*
X11401609Y-68123392D01*
X11423851Y-68098851D01*
X11448392Y-68076609D01*
X11474995Y-68056879D01*
X11503404Y-68039852D01*
X11533344Y-68025691D01*
X11564529Y-68014533D01*
X11596657Y-68006485D01*
X11629419Y-68001625D01*
X11662500Y-68000000D01*
X12337500Y-68000000D01*
X12370581Y-68001625D01*
X12370581Y-68001625D01*
G37*
D18*
X12000000Y-68725000D03*
D15*
G36*
X256970581Y-77026625D02*
G01*
X257003343Y-77031485D01*
X257035471Y-77039533D01*
X257066656Y-77050691D01*
X257096596Y-77064852D01*
X257125005Y-77081879D01*
X257151608Y-77101609D01*
X257176149Y-77123851D01*
X257198391Y-77148392D01*
X257218121Y-77174995D01*
X257235148Y-77203404D01*
X257249309Y-77233344D01*
X257260467Y-77264529D01*
X257268515Y-77296657D01*
X257273375Y-77329419D01*
X257275000Y-77362500D01*
X257275000Y-78037500D01*
X257273375Y-78070581D01*
X257268515Y-78103343D01*
X257260467Y-78135471D01*
X257249309Y-78166656D01*
X257235148Y-78196596D01*
X257218121Y-78225005D01*
X257198391Y-78251608D01*
X257176149Y-78276149D01*
X257151608Y-78298391D01*
X257125005Y-78318121D01*
X257096596Y-78335148D01*
X257066656Y-78349309D01*
X257035471Y-78360467D01*
X257003343Y-78368515D01*
X256970581Y-78373375D01*
X256937500Y-78375000D01*
X256162500Y-78375000D01*
X256129419Y-78373375D01*
X256096657Y-78368515D01*
X256064529Y-78360467D01*
X256033344Y-78349309D01*
X256003404Y-78335148D01*
X255974995Y-78318121D01*
X255948392Y-78298391D01*
X255923851Y-78276149D01*
X255901609Y-78251608D01*
X255881879Y-78225005D01*
X255864852Y-78196596D01*
X255850691Y-78166656D01*
X255839533Y-78135471D01*
X255831485Y-78103343D01*
X255826625Y-78070581D01*
X255825000Y-78037500D01*
X255825000Y-77362500D01*
X255826625Y-77329419D01*
X255831485Y-77296657D01*
X255839533Y-77264529D01*
X255850691Y-77233344D01*
X255864852Y-77203404D01*
X255881879Y-77174995D01*
X255901609Y-77148392D01*
X255923851Y-77123851D01*
X255948392Y-77101609D01*
X255974995Y-77081879D01*
X256003404Y-77064852D01*
X256033344Y-77050691D01*
X256064529Y-77039533D01*
X256096657Y-77031485D01*
X256129419Y-77026625D01*
X256162500Y-77025000D01*
X256937500Y-77025000D01*
X256970581Y-77026625D01*
X256970581Y-77026625D01*
G37*
D18*
X256550000Y-77700000D03*
D15*
G36*
X255220581Y-77026625D02*
G01*
X255253343Y-77031485D01*
X255285471Y-77039533D01*
X255316656Y-77050691D01*
X255346596Y-77064852D01*
X255375005Y-77081879D01*
X255401608Y-77101609D01*
X255426149Y-77123851D01*
X255448391Y-77148392D01*
X255468121Y-77174995D01*
X255485148Y-77203404D01*
X255499309Y-77233344D01*
X255510467Y-77264529D01*
X255518515Y-77296657D01*
X255523375Y-77329419D01*
X255525000Y-77362500D01*
X255525000Y-78037500D01*
X255523375Y-78070581D01*
X255518515Y-78103343D01*
X255510467Y-78135471D01*
X255499309Y-78166656D01*
X255485148Y-78196596D01*
X255468121Y-78225005D01*
X255448391Y-78251608D01*
X255426149Y-78276149D01*
X255401608Y-78298391D01*
X255375005Y-78318121D01*
X255346596Y-78335148D01*
X255316656Y-78349309D01*
X255285471Y-78360467D01*
X255253343Y-78368515D01*
X255220581Y-78373375D01*
X255187500Y-78375000D01*
X254412500Y-78375000D01*
X254379419Y-78373375D01*
X254346657Y-78368515D01*
X254314529Y-78360467D01*
X254283344Y-78349309D01*
X254253404Y-78335148D01*
X254224995Y-78318121D01*
X254198392Y-78298391D01*
X254173851Y-78276149D01*
X254151609Y-78251608D01*
X254131879Y-78225005D01*
X254114852Y-78196596D01*
X254100691Y-78166656D01*
X254089533Y-78135471D01*
X254081485Y-78103343D01*
X254076625Y-78070581D01*
X254075000Y-78037500D01*
X254075000Y-77362500D01*
X254076625Y-77329419D01*
X254081485Y-77296657D01*
X254089533Y-77264529D01*
X254100691Y-77233344D01*
X254114852Y-77203404D01*
X254131879Y-77174995D01*
X254151609Y-77148392D01*
X254173851Y-77123851D01*
X254198392Y-77101609D01*
X254224995Y-77081879D01*
X254253404Y-77064852D01*
X254283344Y-77050691D01*
X254314529Y-77039533D01*
X254346657Y-77031485D01*
X254379419Y-77026625D01*
X254412500Y-77025000D01*
X255187500Y-77025000D01*
X255220581Y-77026625D01*
X255220581Y-77026625D01*
G37*
D18*
X254800000Y-77700000D03*
D15*
G36*
X246745581Y-77026625D02*
G01*
X246778343Y-77031485D01*
X246810471Y-77039533D01*
X246841656Y-77050691D01*
X246871596Y-77064852D01*
X246900005Y-77081879D01*
X246926608Y-77101609D01*
X246951149Y-77123851D01*
X246973391Y-77148392D01*
X246993121Y-77174995D01*
X247010148Y-77203404D01*
X247024309Y-77233344D01*
X247035467Y-77264529D01*
X247043515Y-77296657D01*
X247048375Y-77329419D01*
X247050000Y-77362500D01*
X247050000Y-78037500D01*
X247048375Y-78070581D01*
X247043515Y-78103343D01*
X247035467Y-78135471D01*
X247024309Y-78166656D01*
X247010148Y-78196596D01*
X246993121Y-78225005D01*
X246973391Y-78251608D01*
X246951149Y-78276149D01*
X246926608Y-78298391D01*
X246900005Y-78318121D01*
X246871596Y-78335148D01*
X246841656Y-78349309D01*
X246810471Y-78360467D01*
X246778343Y-78368515D01*
X246745581Y-78373375D01*
X246712500Y-78375000D01*
X245937500Y-78375000D01*
X245904419Y-78373375D01*
X245871657Y-78368515D01*
X245839529Y-78360467D01*
X245808344Y-78349309D01*
X245778404Y-78335148D01*
X245749995Y-78318121D01*
X245723392Y-78298391D01*
X245698851Y-78276149D01*
X245676609Y-78251608D01*
X245656879Y-78225005D01*
X245639852Y-78196596D01*
X245625691Y-78166656D01*
X245614533Y-78135471D01*
X245606485Y-78103343D01*
X245601625Y-78070581D01*
X245600000Y-78037500D01*
X245600000Y-77362500D01*
X245601625Y-77329419D01*
X245606485Y-77296657D01*
X245614533Y-77264529D01*
X245625691Y-77233344D01*
X245639852Y-77203404D01*
X245656879Y-77174995D01*
X245676609Y-77148392D01*
X245698851Y-77123851D01*
X245723392Y-77101609D01*
X245749995Y-77081879D01*
X245778404Y-77064852D01*
X245808344Y-77050691D01*
X245839529Y-77039533D01*
X245871657Y-77031485D01*
X245904419Y-77026625D01*
X245937500Y-77025000D01*
X246712500Y-77025000D01*
X246745581Y-77026625D01*
X246745581Y-77026625D01*
G37*
D18*
X246325000Y-77700000D03*
D15*
G36*
X248495581Y-77026625D02*
G01*
X248528343Y-77031485D01*
X248560471Y-77039533D01*
X248591656Y-77050691D01*
X248621596Y-77064852D01*
X248650005Y-77081879D01*
X248676608Y-77101609D01*
X248701149Y-77123851D01*
X248723391Y-77148392D01*
X248743121Y-77174995D01*
X248760148Y-77203404D01*
X248774309Y-77233344D01*
X248785467Y-77264529D01*
X248793515Y-77296657D01*
X248798375Y-77329419D01*
X248800000Y-77362500D01*
X248800000Y-78037500D01*
X248798375Y-78070581D01*
X248793515Y-78103343D01*
X248785467Y-78135471D01*
X248774309Y-78166656D01*
X248760148Y-78196596D01*
X248743121Y-78225005D01*
X248723391Y-78251608D01*
X248701149Y-78276149D01*
X248676608Y-78298391D01*
X248650005Y-78318121D01*
X248621596Y-78335148D01*
X248591656Y-78349309D01*
X248560471Y-78360467D01*
X248528343Y-78368515D01*
X248495581Y-78373375D01*
X248462500Y-78375000D01*
X247687500Y-78375000D01*
X247654419Y-78373375D01*
X247621657Y-78368515D01*
X247589529Y-78360467D01*
X247558344Y-78349309D01*
X247528404Y-78335148D01*
X247499995Y-78318121D01*
X247473392Y-78298391D01*
X247448851Y-78276149D01*
X247426609Y-78251608D01*
X247406879Y-78225005D01*
X247389852Y-78196596D01*
X247375691Y-78166656D01*
X247364533Y-78135471D01*
X247356485Y-78103343D01*
X247351625Y-78070581D01*
X247350000Y-78037500D01*
X247350000Y-77362500D01*
X247351625Y-77329419D01*
X247356485Y-77296657D01*
X247364533Y-77264529D01*
X247375691Y-77233344D01*
X247389852Y-77203404D01*
X247406879Y-77174995D01*
X247426609Y-77148392D01*
X247448851Y-77123851D01*
X247473392Y-77101609D01*
X247499995Y-77081879D01*
X247528404Y-77064852D01*
X247558344Y-77050691D01*
X247589529Y-77039533D01*
X247621657Y-77031485D01*
X247654419Y-77026625D01*
X247687500Y-77025000D01*
X248462500Y-77025000D01*
X248495581Y-77026625D01*
X248495581Y-77026625D01*
G37*
D18*
X248075000Y-77700000D03*
D15*
G36*
X257570581Y-74351625D02*
G01*
X257603343Y-74356485D01*
X257635471Y-74364533D01*
X257666656Y-74375691D01*
X257696596Y-74389852D01*
X257725005Y-74406879D01*
X257751608Y-74426609D01*
X257776149Y-74448851D01*
X257798391Y-74473392D01*
X257818121Y-74499995D01*
X257835148Y-74528404D01*
X257849309Y-74558344D01*
X257860467Y-74589529D01*
X257868515Y-74621657D01*
X257873375Y-74654419D01*
X257875000Y-74687500D01*
X257875000Y-75462500D01*
X257873375Y-75495581D01*
X257868515Y-75528343D01*
X257860467Y-75560471D01*
X257849309Y-75591656D01*
X257835148Y-75621596D01*
X257818121Y-75650005D01*
X257798391Y-75676608D01*
X257776149Y-75701149D01*
X257751608Y-75723391D01*
X257725005Y-75743121D01*
X257696596Y-75760148D01*
X257666656Y-75774309D01*
X257635471Y-75785467D01*
X257603343Y-75793515D01*
X257570581Y-75798375D01*
X257537500Y-75800000D01*
X256862500Y-75800000D01*
X256829419Y-75798375D01*
X256796657Y-75793515D01*
X256764529Y-75785467D01*
X256733344Y-75774309D01*
X256703404Y-75760148D01*
X256674995Y-75743121D01*
X256648392Y-75723391D01*
X256623851Y-75701149D01*
X256601609Y-75676608D01*
X256581879Y-75650005D01*
X256564852Y-75621596D01*
X256550691Y-75591656D01*
X256539533Y-75560471D01*
X256531485Y-75528343D01*
X256526625Y-75495581D01*
X256525000Y-75462500D01*
X256525000Y-74687500D01*
X256526625Y-74654419D01*
X256531485Y-74621657D01*
X256539533Y-74589529D01*
X256550691Y-74558344D01*
X256564852Y-74528404D01*
X256581879Y-74499995D01*
X256601609Y-74473392D01*
X256623851Y-74448851D01*
X256648392Y-74426609D01*
X256674995Y-74406879D01*
X256703404Y-74389852D01*
X256733344Y-74375691D01*
X256764529Y-74364533D01*
X256796657Y-74356485D01*
X256829419Y-74351625D01*
X256862500Y-74350000D01*
X257537500Y-74350000D01*
X257570581Y-74351625D01*
X257570581Y-74351625D01*
G37*
D18*
X257200000Y-75075000D03*
D15*
G36*
X257570581Y-72601625D02*
G01*
X257603343Y-72606485D01*
X257635471Y-72614533D01*
X257666656Y-72625691D01*
X257696596Y-72639852D01*
X257725005Y-72656879D01*
X257751608Y-72676609D01*
X257776149Y-72698851D01*
X257798391Y-72723392D01*
X257818121Y-72749995D01*
X257835148Y-72778404D01*
X257849309Y-72808344D01*
X257860467Y-72839529D01*
X257868515Y-72871657D01*
X257873375Y-72904419D01*
X257875000Y-72937500D01*
X257875000Y-73712500D01*
X257873375Y-73745581D01*
X257868515Y-73778343D01*
X257860467Y-73810471D01*
X257849309Y-73841656D01*
X257835148Y-73871596D01*
X257818121Y-73900005D01*
X257798391Y-73926608D01*
X257776149Y-73951149D01*
X257751608Y-73973391D01*
X257725005Y-73993121D01*
X257696596Y-74010148D01*
X257666656Y-74024309D01*
X257635471Y-74035467D01*
X257603343Y-74043515D01*
X257570581Y-74048375D01*
X257537500Y-74050000D01*
X256862500Y-74050000D01*
X256829419Y-74048375D01*
X256796657Y-74043515D01*
X256764529Y-74035467D01*
X256733344Y-74024309D01*
X256703404Y-74010148D01*
X256674995Y-73993121D01*
X256648392Y-73973391D01*
X256623851Y-73951149D01*
X256601609Y-73926608D01*
X256581879Y-73900005D01*
X256564852Y-73871596D01*
X256550691Y-73841656D01*
X256539533Y-73810471D01*
X256531485Y-73778343D01*
X256526625Y-73745581D01*
X256525000Y-73712500D01*
X256525000Y-72937500D01*
X256526625Y-72904419D01*
X256531485Y-72871657D01*
X256539533Y-72839529D01*
X256550691Y-72808344D01*
X256564852Y-72778404D01*
X256581879Y-72749995D01*
X256601609Y-72723392D01*
X256623851Y-72698851D01*
X256648392Y-72676609D01*
X256674995Y-72656879D01*
X256703404Y-72639852D01*
X256733344Y-72625691D01*
X256764529Y-72614533D01*
X256796657Y-72606485D01*
X256829419Y-72601625D01*
X256862500Y-72600000D01*
X257537500Y-72600000D01*
X257570581Y-72601625D01*
X257570581Y-72601625D01*
G37*
D18*
X257200000Y-73325000D03*
D15*
G36*
X21545581Y-64926625D02*
G01*
X21578343Y-64931485D01*
X21610471Y-64939533D01*
X21641656Y-64950691D01*
X21671596Y-64964852D01*
X21700005Y-64981879D01*
X21726608Y-65001609D01*
X21751149Y-65023851D01*
X21773391Y-65048392D01*
X21793121Y-65074995D01*
X21810148Y-65103404D01*
X21824309Y-65133344D01*
X21835467Y-65164529D01*
X21843515Y-65196657D01*
X21848375Y-65229419D01*
X21850000Y-65262500D01*
X21850000Y-65937500D01*
X21848375Y-65970581D01*
X21843515Y-66003343D01*
X21835467Y-66035471D01*
X21824309Y-66066656D01*
X21810148Y-66096596D01*
X21793121Y-66125005D01*
X21773391Y-66151608D01*
X21751149Y-66176149D01*
X21726608Y-66198391D01*
X21700005Y-66218121D01*
X21671596Y-66235148D01*
X21641656Y-66249309D01*
X21610471Y-66260467D01*
X21578343Y-66268515D01*
X21545581Y-66273375D01*
X21512500Y-66275000D01*
X20737500Y-66275000D01*
X20704419Y-66273375D01*
X20671657Y-66268515D01*
X20639529Y-66260467D01*
X20608344Y-66249309D01*
X20578404Y-66235148D01*
X20549995Y-66218121D01*
X20523392Y-66198391D01*
X20498851Y-66176149D01*
X20476609Y-66151608D01*
X20456879Y-66125005D01*
X20439852Y-66096596D01*
X20425691Y-66066656D01*
X20414533Y-66035471D01*
X20406485Y-66003343D01*
X20401625Y-65970581D01*
X20400000Y-65937500D01*
X20400000Y-65262500D01*
X20401625Y-65229419D01*
X20406485Y-65196657D01*
X20414533Y-65164529D01*
X20425691Y-65133344D01*
X20439852Y-65103404D01*
X20456879Y-65074995D01*
X20476609Y-65048392D01*
X20498851Y-65023851D01*
X20523392Y-65001609D01*
X20549995Y-64981879D01*
X20578404Y-64964852D01*
X20608344Y-64950691D01*
X20639529Y-64939533D01*
X20671657Y-64931485D01*
X20704419Y-64926625D01*
X20737500Y-64925000D01*
X21512500Y-64925000D01*
X21545581Y-64926625D01*
X21545581Y-64926625D01*
G37*
D18*
X21125000Y-65600000D03*
D15*
G36*
X23295581Y-64926625D02*
G01*
X23328343Y-64931485D01*
X23360471Y-64939533D01*
X23391656Y-64950691D01*
X23421596Y-64964852D01*
X23450005Y-64981879D01*
X23476608Y-65001609D01*
X23501149Y-65023851D01*
X23523391Y-65048392D01*
X23543121Y-65074995D01*
X23560148Y-65103404D01*
X23574309Y-65133344D01*
X23585467Y-65164529D01*
X23593515Y-65196657D01*
X23598375Y-65229419D01*
X23600000Y-65262500D01*
X23600000Y-65937500D01*
X23598375Y-65970581D01*
X23593515Y-66003343D01*
X23585467Y-66035471D01*
X23574309Y-66066656D01*
X23560148Y-66096596D01*
X23543121Y-66125005D01*
X23523391Y-66151608D01*
X23501149Y-66176149D01*
X23476608Y-66198391D01*
X23450005Y-66218121D01*
X23421596Y-66235148D01*
X23391656Y-66249309D01*
X23360471Y-66260467D01*
X23328343Y-66268515D01*
X23295581Y-66273375D01*
X23262500Y-66275000D01*
X22487500Y-66275000D01*
X22454419Y-66273375D01*
X22421657Y-66268515D01*
X22389529Y-66260467D01*
X22358344Y-66249309D01*
X22328404Y-66235148D01*
X22299995Y-66218121D01*
X22273392Y-66198391D01*
X22248851Y-66176149D01*
X22226609Y-66151608D01*
X22206879Y-66125005D01*
X22189852Y-66096596D01*
X22175691Y-66066656D01*
X22164533Y-66035471D01*
X22156485Y-66003343D01*
X22151625Y-65970581D01*
X22150000Y-65937500D01*
X22150000Y-65262500D01*
X22151625Y-65229419D01*
X22156485Y-65196657D01*
X22164533Y-65164529D01*
X22175691Y-65133344D01*
X22189852Y-65103404D01*
X22206879Y-65074995D01*
X22226609Y-65048392D01*
X22248851Y-65023851D01*
X22273392Y-65001609D01*
X22299995Y-64981879D01*
X22328404Y-64964852D01*
X22358344Y-64950691D01*
X22389529Y-64939533D01*
X22421657Y-64931485D01*
X22454419Y-64926625D01*
X22487500Y-64925000D01*
X23262500Y-64925000D01*
X23295581Y-64926625D01*
X23295581Y-64926625D01*
G37*
D18*
X22875000Y-65600000D03*
D15*
G36*
X31295581Y-64926625D02*
G01*
X31328343Y-64931485D01*
X31360471Y-64939533D01*
X31391656Y-64950691D01*
X31421596Y-64964852D01*
X31450005Y-64981879D01*
X31476608Y-65001609D01*
X31501149Y-65023851D01*
X31523391Y-65048392D01*
X31543121Y-65074995D01*
X31560148Y-65103404D01*
X31574309Y-65133344D01*
X31585467Y-65164529D01*
X31593515Y-65196657D01*
X31598375Y-65229419D01*
X31600000Y-65262500D01*
X31600000Y-65937500D01*
X31598375Y-65970581D01*
X31593515Y-66003343D01*
X31585467Y-66035471D01*
X31574309Y-66066656D01*
X31560148Y-66096596D01*
X31543121Y-66125005D01*
X31523391Y-66151608D01*
X31501149Y-66176149D01*
X31476608Y-66198391D01*
X31450005Y-66218121D01*
X31421596Y-66235148D01*
X31391656Y-66249309D01*
X31360471Y-66260467D01*
X31328343Y-66268515D01*
X31295581Y-66273375D01*
X31262500Y-66275000D01*
X30487500Y-66275000D01*
X30454419Y-66273375D01*
X30421657Y-66268515D01*
X30389529Y-66260467D01*
X30358344Y-66249309D01*
X30328404Y-66235148D01*
X30299995Y-66218121D01*
X30273392Y-66198391D01*
X30248851Y-66176149D01*
X30226609Y-66151608D01*
X30206879Y-66125005D01*
X30189852Y-66096596D01*
X30175691Y-66066656D01*
X30164533Y-66035471D01*
X30156485Y-66003343D01*
X30151625Y-65970581D01*
X30150000Y-65937500D01*
X30150000Y-65262500D01*
X30151625Y-65229419D01*
X30156485Y-65196657D01*
X30164533Y-65164529D01*
X30175691Y-65133344D01*
X30189852Y-65103404D01*
X30206879Y-65074995D01*
X30226609Y-65048392D01*
X30248851Y-65023851D01*
X30273392Y-65001609D01*
X30299995Y-64981879D01*
X30328404Y-64964852D01*
X30358344Y-64950691D01*
X30389529Y-64939533D01*
X30421657Y-64931485D01*
X30454419Y-64926625D01*
X30487500Y-64925000D01*
X31262500Y-64925000D01*
X31295581Y-64926625D01*
X31295581Y-64926625D01*
G37*
D18*
X30875000Y-65600000D03*
D15*
G36*
X29545581Y-64926625D02*
G01*
X29578343Y-64931485D01*
X29610471Y-64939533D01*
X29641656Y-64950691D01*
X29671596Y-64964852D01*
X29700005Y-64981879D01*
X29726608Y-65001609D01*
X29751149Y-65023851D01*
X29773391Y-65048392D01*
X29793121Y-65074995D01*
X29810148Y-65103404D01*
X29824309Y-65133344D01*
X29835467Y-65164529D01*
X29843515Y-65196657D01*
X29848375Y-65229419D01*
X29850000Y-65262500D01*
X29850000Y-65937500D01*
X29848375Y-65970581D01*
X29843515Y-66003343D01*
X29835467Y-66035471D01*
X29824309Y-66066656D01*
X29810148Y-66096596D01*
X29793121Y-66125005D01*
X29773391Y-66151608D01*
X29751149Y-66176149D01*
X29726608Y-66198391D01*
X29700005Y-66218121D01*
X29671596Y-66235148D01*
X29641656Y-66249309D01*
X29610471Y-66260467D01*
X29578343Y-66268515D01*
X29545581Y-66273375D01*
X29512500Y-66275000D01*
X28737500Y-66275000D01*
X28704419Y-66273375D01*
X28671657Y-66268515D01*
X28639529Y-66260467D01*
X28608344Y-66249309D01*
X28578404Y-66235148D01*
X28549995Y-66218121D01*
X28523392Y-66198391D01*
X28498851Y-66176149D01*
X28476609Y-66151608D01*
X28456879Y-66125005D01*
X28439852Y-66096596D01*
X28425691Y-66066656D01*
X28414533Y-66035471D01*
X28406485Y-66003343D01*
X28401625Y-65970581D01*
X28400000Y-65937500D01*
X28400000Y-65262500D01*
X28401625Y-65229419D01*
X28406485Y-65196657D01*
X28414533Y-65164529D01*
X28425691Y-65133344D01*
X28439852Y-65103404D01*
X28456879Y-65074995D01*
X28476609Y-65048392D01*
X28498851Y-65023851D01*
X28523392Y-65001609D01*
X28549995Y-64981879D01*
X28578404Y-64964852D01*
X28608344Y-64950691D01*
X28639529Y-64939533D01*
X28671657Y-64931485D01*
X28704419Y-64926625D01*
X28737500Y-64925000D01*
X29512500Y-64925000D01*
X29545581Y-64926625D01*
X29545581Y-64926625D01*
G37*
D18*
X29125000Y-65600000D03*
D15*
G36*
X20370581Y-68001625D02*
G01*
X20403343Y-68006485D01*
X20435471Y-68014533D01*
X20466656Y-68025691D01*
X20496596Y-68039852D01*
X20525005Y-68056879D01*
X20551608Y-68076609D01*
X20576149Y-68098851D01*
X20598391Y-68123392D01*
X20618121Y-68149995D01*
X20635148Y-68178404D01*
X20649309Y-68208344D01*
X20660467Y-68239529D01*
X20668515Y-68271657D01*
X20673375Y-68304419D01*
X20675000Y-68337500D01*
X20675000Y-69112500D01*
X20673375Y-69145581D01*
X20668515Y-69178343D01*
X20660467Y-69210471D01*
X20649309Y-69241656D01*
X20635148Y-69271596D01*
X20618121Y-69300005D01*
X20598391Y-69326608D01*
X20576149Y-69351149D01*
X20551608Y-69373391D01*
X20525005Y-69393121D01*
X20496596Y-69410148D01*
X20466656Y-69424309D01*
X20435471Y-69435467D01*
X20403343Y-69443515D01*
X20370581Y-69448375D01*
X20337500Y-69450000D01*
X19662500Y-69450000D01*
X19629419Y-69448375D01*
X19596657Y-69443515D01*
X19564529Y-69435467D01*
X19533344Y-69424309D01*
X19503404Y-69410148D01*
X19474995Y-69393121D01*
X19448392Y-69373391D01*
X19423851Y-69351149D01*
X19401609Y-69326608D01*
X19381879Y-69300005D01*
X19364852Y-69271596D01*
X19350691Y-69241656D01*
X19339533Y-69210471D01*
X19331485Y-69178343D01*
X19326625Y-69145581D01*
X19325000Y-69112500D01*
X19325000Y-68337500D01*
X19326625Y-68304419D01*
X19331485Y-68271657D01*
X19339533Y-68239529D01*
X19350691Y-68208344D01*
X19364852Y-68178404D01*
X19381879Y-68149995D01*
X19401609Y-68123392D01*
X19423851Y-68098851D01*
X19448392Y-68076609D01*
X19474995Y-68056879D01*
X19503404Y-68039852D01*
X19533344Y-68025691D01*
X19564529Y-68014533D01*
X19596657Y-68006485D01*
X19629419Y-68001625D01*
X19662500Y-68000000D01*
X20337500Y-68000000D01*
X20370581Y-68001625D01*
X20370581Y-68001625D01*
G37*
D18*
X20000000Y-68725000D03*
D15*
G36*
X20370581Y-69751625D02*
G01*
X20403343Y-69756485D01*
X20435471Y-69764533D01*
X20466656Y-69775691D01*
X20496596Y-69789852D01*
X20525005Y-69806879D01*
X20551608Y-69826609D01*
X20576149Y-69848851D01*
X20598391Y-69873392D01*
X20618121Y-69899995D01*
X20635148Y-69928404D01*
X20649309Y-69958344D01*
X20660467Y-69989529D01*
X20668515Y-70021657D01*
X20673375Y-70054419D01*
X20675000Y-70087500D01*
X20675000Y-70862500D01*
X20673375Y-70895581D01*
X20668515Y-70928343D01*
X20660467Y-70960471D01*
X20649309Y-70991656D01*
X20635148Y-71021596D01*
X20618121Y-71050005D01*
X20598391Y-71076608D01*
X20576149Y-71101149D01*
X20551608Y-71123391D01*
X20525005Y-71143121D01*
X20496596Y-71160148D01*
X20466656Y-71174309D01*
X20435471Y-71185467D01*
X20403343Y-71193515D01*
X20370581Y-71198375D01*
X20337500Y-71200000D01*
X19662500Y-71200000D01*
X19629419Y-71198375D01*
X19596657Y-71193515D01*
X19564529Y-71185467D01*
X19533344Y-71174309D01*
X19503404Y-71160148D01*
X19474995Y-71143121D01*
X19448392Y-71123391D01*
X19423851Y-71101149D01*
X19401609Y-71076608D01*
X19381879Y-71050005D01*
X19364852Y-71021596D01*
X19350691Y-70991656D01*
X19339533Y-70960471D01*
X19331485Y-70928343D01*
X19326625Y-70895581D01*
X19325000Y-70862500D01*
X19325000Y-70087500D01*
X19326625Y-70054419D01*
X19331485Y-70021657D01*
X19339533Y-69989529D01*
X19350691Y-69958344D01*
X19364852Y-69928404D01*
X19381879Y-69899995D01*
X19401609Y-69873392D01*
X19423851Y-69848851D01*
X19448392Y-69826609D01*
X19474995Y-69806879D01*
X19503404Y-69789852D01*
X19533344Y-69775691D01*
X19564529Y-69764533D01*
X19596657Y-69756485D01*
X19629419Y-69751625D01*
X19662500Y-69750000D01*
X20337500Y-69750000D01*
X20370581Y-69751625D01*
X20370581Y-69751625D01*
G37*
D18*
X20000000Y-70475000D03*
D19*
X15950000Y-68500000D03*
X15000000Y-68500000D03*
X14050000Y-68500000D03*
X14050000Y-70700000D03*
X15950000Y-70700000D03*
D20*
X149515167Y-80294245D03*
X150047871Y-81447123D03*
X151645984Y-84905755D03*
X151113280Y-83752878D03*
X150580575Y-82600000D03*
X144050000Y-53147981D03*
X144050000Y-54417981D03*
X144050000Y-58227981D03*
X144050000Y-56957981D03*
X144050000Y-55687981D03*
X144050000Y-26703750D03*
X144050000Y-27973750D03*
X144050000Y-31783750D03*
X144050000Y-30513750D03*
X144050000Y-29243750D03*
D21*
X242000000Y-65700000D03*
X242700000Y-65700000D03*
X243400000Y-65700000D03*
X244100000Y-65700000D03*
X244800000Y-65700000D03*
X245500000Y-65700000D03*
X246200000Y-65700000D03*
X246900000Y-65700000D03*
X247600000Y-65700000D03*
X248300000Y-65700000D03*
X249000000Y-65700000D03*
X249700000Y-65700000D03*
X250400000Y-65700000D03*
X251100000Y-65700000D03*
X251800000Y-65700000D03*
X252500000Y-65700000D03*
X253200000Y-65700000D03*
D22*
X254700000Y-66200000D03*
X254700000Y-66900000D03*
X254700000Y-67600000D03*
X254700000Y-68300000D03*
X254700000Y-69000000D03*
X254700000Y-69700000D03*
X254700000Y-70400000D03*
X254700000Y-71100000D03*
X254700000Y-71800000D03*
X254700000Y-72500000D03*
X254700000Y-73900000D03*
X254700000Y-74600000D03*
D21*
X253200000Y-75100000D03*
X252500000Y-75100000D03*
X251800000Y-75100000D03*
X251100000Y-75100000D03*
X250400000Y-75100000D03*
X249700000Y-75100000D03*
X249000000Y-75100000D03*
X248300000Y-75100000D03*
X247600000Y-75100000D03*
X246900000Y-75100000D03*
X242700000Y-75100000D03*
X242000000Y-75100000D03*
D22*
X254700000Y-73200000D03*
D20*
X125754016Y-84905755D03*
X126286720Y-83752878D03*
X127884833Y-80294245D03*
X127352129Y-81447123D03*
X126819425Y-82600000D03*
X133350000Y-58227981D03*
X133350000Y-56957981D03*
X133350000Y-53147981D03*
X133350000Y-54417981D03*
X133350000Y-55687981D03*
X133350000Y-31783750D03*
X133350000Y-30513750D03*
X133350000Y-26703750D03*
X133350000Y-27973750D03*
X133350000Y-29243750D03*
D21*
X35400000Y-77700000D03*
X34700000Y-77700000D03*
X34000000Y-77700000D03*
X33300000Y-77700000D03*
X32600000Y-77700000D03*
X31900000Y-77700000D03*
X31200000Y-77700000D03*
X30500000Y-77700000D03*
X29800000Y-77700000D03*
X29100000Y-77700000D03*
X28400000Y-77700000D03*
X27700000Y-77700000D03*
X27000000Y-77700000D03*
X26300000Y-77700000D03*
X25600000Y-77700000D03*
X24900000Y-77700000D03*
X24200000Y-77700000D03*
D22*
X22700000Y-77200000D03*
X22700000Y-76500000D03*
X22700000Y-75800000D03*
X22700000Y-75100000D03*
X22700000Y-74400000D03*
X22700000Y-73700000D03*
X22700000Y-73000000D03*
X22700000Y-72300000D03*
X22700000Y-71600000D03*
X22700000Y-70900000D03*
X22700000Y-69500000D03*
X22700000Y-68800000D03*
D21*
X24200000Y-68300000D03*
X24900000Y-68300000D03*
X25600000Y-68300000D03*
X26300000Y-68300000D03*
X27000000Y-68300000D03*
X27700000Y-68300000D03*
X28400000Y-68300000D03*
X29100000Y-68300000D03*
X29800000Y-68300000D03*
X30500000Y-68300000D03*
X34700000Y-68300000D03*
X35400000Y-68300000D03*
D22*
X22700000Y-70200000D03*
D16*
X266875000Y-67300000D03*
X268875000Y-67300000D03*
X264875000Y-67300000D03*
X8525000Y-67300000D03*
X10525000Y-67300000D03*
X6525000Y-67300000D03*
D23*
X218420000Y-56400000D03*
D24*
X215880000Y-56400000D03*
X213340000Y-56400000D03*
D25*
X210800000Y-56400000D03*
D23*
X66620000Y-56400000D03*
D24*
X64080000Y-56400000D03*
X61540000Y-56400000D03*
D25*
X59000000Y-56400000D03*
D26*
X272955000Y-57150000D03*
X262795000Y-57150000D03*
D27*
X267875000Y-57150000D03*
D26*
X128905000Y-45243750D03*
X118745000Y-45243750D03*
D27*
X123825000Y-45243750D03*
D26*
X14605000Y-57150000D03*
X4445000Y-57150000D03*
D27*
X9525000Y-57150000D03*
D26*
X185151074Y-73706366D03*
X175292870Y-76164292D03*
D27*
X180221972Y-74935329D03*
D26*
X14605000Y-19050000D03*
X4445000Y-19050000D03*
D27*
X9525000Y-19050000D03*
D26*
X33655000Y-19050000D03*
X23495000Y-19050000D03*
D27*
X28575000Y-19050000D03*
D26*
X90805000Y-14287499D03*
X80645000Y-14287499D03*
D27*
X85725000Y-14287499D03*
D26*
X109855000Y-16668750D03*
X99695000Y-16668750D03*
D27*
X104775000Y-16668750D03*
D26*
X14605000Y-38100000D03*
X4445000Y-38100000D03*
D27*
X9525000Y-38100000D03*
D26*
X33655000Y-38100000D03*
X23495000Y-38100000D03*
D27*
X28575000Y-38100000D03*
D26*
X52705000Y-32146875D03*
X42545000Y-32146875D03*
D27*
X47625000Y-32146875D03*
D26*
X71755000Y-28575000D03*
X61595000Y-28575000D03*
D27*
X66675000Y-28575000D03*
D26*
X90805000Y-33337500D03*
X80645000Y-33337500D03*
D27*
X85725000Y-33337500D03*
D26*
X109855000Y-35718750D03*
X99695000Y-35718750D03*
D27*
X104775000Y-35718750D03*
D26*
X128905000Y-26193750D03*
X118745000Y-26193750D03*
D27*
X123825000Y-26193750D03*
D26*
X33655000Y-57150000D03*
X23495000Y-57150000D03*
D27*
X28575000Y-57150000D03*
D26*
X52705000Y-51196875D03*
X42545000Y-51196875D03*
D27*
X47625000Y-51196875D03*
D26*
X71755000Y-47625000D03*
X61595000Y-47625000D03*
D27*
X66675000Y-47625000D03*
D26*
X90805000Y-52387500D03*
X80645000Y-52387500D03*
D27*
X85725000Y-52387500D03*
D26*
X109855000Y-54768750D03*
X99695000Y-54768750D03*
D27*
X104775000Y-54768750D03*
D26*
X102107129Y-76164292D03*
X92248925Y-73706366D03*
D27*
X97178027Y-74935329D03*
D26*
X272955000Y-19050000D03*
X262795000Y-19050000D03*
D27*
X267875000Y-19050000D03*
D26*
X253905000Y-19050000D03*
X243745000Y-19050000D03*
D27*
X248825000Y-19050000D03*
D26*
X234855000Y-13096875D03*
X224695000Y-13096875D03*
D27*
X229775000Y-13096875D03*
D26*
X215805000Y-9525000D03*
X205645000Y-9525000D03*
D27*
X210725000Y-9525000D03*
D26*
X196755000Y-14287499D03*
X186595000Y-14287499D03*
D27*
X191675000Y-14287499D03*
D26*
X177705000Y-16668750D03*
X167545000Y-16668750D03*
D27*
X172625000Y-16668750D03*
D26*
X272955000Y-38100000D03*
X262795000Y-38100000D03*
D27*
X267875000Y-38100000D03*
D26*
X253905000Y-38100000D03*
X243745000Y-38100000D03*
D27*
X248825000Y-38100000D03*
D26*
X234855000Y-32146875D03*
X224695000Y-32146875D03*
D27*
X229775000Y-32146875D03*
D26*
X215805000Y-28575000D03*
X205645000Y-28575000D03*
D27*
X210725000Y-28575000D03*
D26*
X196755000Y-33337500D03*
X186595000Y-33337500D03*
D27*
X191675000Y-33337500D03*
D26*
X177705000Y-35718750D03*
X167545000Y-35718750D03*
D27*
X172625000Y-35718750D03*
D26*
X158655000Y-26193750D03*
X148495000Y-26193750D03*
D27*
X153575000Y-26193750D03*
D26*
X253905000Y-57150000D03*
X243745000Y-57150000D03*
D27*
X248825000Y-57150000D03*
D26*
X234855000Y-51196875D03*
X224695000Y-51196875D03*
D27*
X229775000Y-51196875D03*
D26*
X215805000Y-47625000D03*
X205645000Y-47625000D03*
D27*
X210725000Y-47625000D03*
D26*
X196755000Y-52387500D03*
X186595000Y-52387500D03*
D27*
X191675000Y-52387500D03*
D26*
X177705000Y-54768750D03*
X167545000Y-54768750D03*
D27*
X172625000Y-54768750D03*
D26*
X158655000Y-45243750D03*
X148495000Y-45243750D03*
D27*
X153575000Y-45243750D03*
D26*
X52705000Y-13096875D03*
X42545000Y-13096875D03*
D27*
X47625000Y-13096875D03*
D26*
X71755000Y-9525000D03*
X61595000Y-9525000D03*
D27*
X66675000Y-9525000D03*
D26*
X79678221Y-71794564D03*
X69558443Y-70891398D03*
D27*
X74618332Y-71342981D03*
D26*
X55086250Y-70246875D03*
X44926250Y-70246875D03*
D27*
X50006250Y-70246875D03*
D26*
X232473750Y-70246875D03*
X222313750Y-70246875D03*
D27*
X227393750Y-70246875D03*
D26*
X207841556Y-70891398D03*
X197721778Y-71794564D03*
D27*
X202781667Y-71342981D03*
D26*
X120848948Y-72841079D03*
X116603418Y-82071523D03*
D27*
X118726183Y-77456301D03*
D26*
X160796581Y-82071523D03*
X156551051Y-72841079D03*
D27*
X158673816Y-77456301D03*
D28*
X259200000Y-70850000D03*
X259200000Y-68950000D03*
X261400000Y-68950000D03*
X261400000Y-69900000D03*
X261400000Y-70850000D03*
M02*
