M48
; DRILL file {KiCad (5.1.4)-1} date 2019/10/05 20:55:18
; FORMAT={-:-/ absolute / metric / decimal}
; #@! TF.CreationDate,2019-10-05T20:55:18+09:00
; #@! TF.GenerationSoftware,Kicad,Pcbnew,(5.1.4)-1
FMAT,2
METRIC
T1C0.300
T2C0.500
T3C0.600
T4C0.750
T5C0.850
T6C1.470
T7C0.787
T8C1.750
T9C3.988
%
G90
G05
T1
X5.3Y-65.175
X5.3Y-67.325
X23.3Y-71.5
X25.9Y-66.85
X38.15Y-63.8
X38.8Y-74.4
X238.8Y-78.05
X238.9Y-66.15
X242.2Y-68.2
X242.3Y-74.4
X243.25Y-73.65
X250.475Y-62.5
X272.125Y-65.175
X272.125Y-67.325
T2
X34.0Y-63.8
X247.4Y-63.8
T3
X260.9Y-67.3
X262.9Y-67.3
X264.9Y-67.3
X10.5Y-67.3
X12.5Y-67.3
X14.5Y-67.3
T4
X13.5Y-75.25
X13.5Y-77.25
X263.9Y-75.25
X263.9Y-77.25
T5
X256.4Y-70.18
X256.4Y-72.72
X256.4Y-75.26
X256.4Y-77.8
X21.0Y-70.18
X21.0Y-72.72
X21.0Y-75.26
X21.0Y-77.8
T6
X225.965Y-10.557
X232.315Y-8.017
X264.065Y-16.51
X270.415Y-13.97
X187.865Y-30.797
X194.215Y-28.258
X223.584Y-67.707
X229.934Y-65.167
X264.065Y-54.61
X270.415Y-52.07
X168.815Y-52.229
X175.165Y-49.689
X225.965Y-29.607
X232.315Y-27.067
X5.715Y-16.51
X12.065Y-13.97
X168.815Y-14.129
X175.165Y-11.589
X245.015Y-54.61
X251.365Y-52.07
X100.965Y-14.129
X107.315Y-11.589
X43.815Y-29.607
X50.165Y-27.067
X100.965Y-33.179
X107.315Y-30.639
X5.715Y-54.61
X12.065Y-52.07
X120.015Y-23.654
X126.365Y-21.114
X149.765Y-23.654
X156.115Y-21.114
X62.865Y-45.085
X69.215Y-42.545
X264.065Y-35.56
X270.415Y-33.02
X24.765Y-54.61
X31.115Y-52.07
X206.915Y-45.085
X213.265Y-42.545
X168.815Y-33.179
X175.165Y-30.639
X114.826Y-79.856
X115.172Y-73.026
X225.965Y-48.657
X232.315Y-46.117
X81.915Y-11.747
X88.265Y-9.207
X206.915Y-26.035
X213.265Y-23.495
X5.715Y-35.56
X12.065Y-33.02
X159.389Y-72.934
X164.35Y-77.641
X71.049Y-68.474
X77.6Y-66.509
X62.865Y-26.035
X69.215Y-23.495
X81.915Y-49.847
X88.265Y-47.307
X43.815Y-48.657
X50.165Y-46.117
X245.015Y-16.51
X251.365Y-13.97
X43.815Y-10.557
X50.165Y-8.017
X94.096Y-71.549
X100.872Y-70.621
X62.865Y-6.985
X69.215Y-4.445
X46.196Y-67.707
X52.546Y-65.167
X149.765Y-42.704
X156.115Y-40.164
X175.911Y-73.392
X181.458Y-69.392
X187.865Y-49.847
X194.215Y-47.307
X187.865Y-11.747
X194.215Y-9.207
X120.015Y-42.704
X126.365Y-40.164
X206.915Y-6.985
X213.265Y-4.445
X24.765Y-16.51
X31.115Y-13.97
X198.761Y-69.152
X204.86Y-66.057
X245.015Y-35.56
X251.365Y-33.02
X24.765Y-35.56
X31.115Y-33.02
X81.915Y-30.797
X88.265Y-28.258
X100.965Y-52.229
X107.315Y-49.689
T7
X133.35Y-53.148
X133.35Y-54.418
X133.35Y-55.688
X133.35Y-56.958
X133.35Y-58.228
X149.515Y-80.294
X150.048Y-81.447
X150.581Y-82.6
X151.113Y-83.753
X151.646Y-84.906
X144.05Y-53.148
X144.05Y-54.418
X144.05Y-55.688
X144.05Y-56.958
X144.05Y-58.228
X133.35Y-26.704
X133.35Y-27.974
X133.35Y-29.244
X133.35Y-30.514
X133.35Y-31.784
X125.754Y-84.906
X126.287Y-83.753
X126.819Y-82.6
X127.352Y-81.447
X127.885Y-80.294
X144.05Y-26.704
X144.05Y-27.974
X144.05Y-29.244
X144.05Y-30.514
X144.05Y-31.784
T8
X42.545Y-13.097
X52.705Y-13.097
X92.249Y-73.706
X102.107Y-76.164
X61.595Y-9.525
X71.755Y-9.525
X44.926Y-70.247
X55.086Y-70.247
X148.495Y-45.244
X158.655Y-45.244
X175.293Y-76.164
X185.151Y-73.706
X186.595Y-52.387
X196.755Y-52.387
X186.595Y-14.287
X196.755Y-14.287
X118.745Y-45.244
X128.905Y-45.244
X205.645Y-9.525
X215.805Y-9.525
X23.495Y-19.05
X33.655Y-19.05
X197.722Y-71.795
X207.842Y-70.891
X243.745Y-38.1
X253.905Y-38.1
X23.495Y-38.1
X33.655Y-38.1
X80.645Y-33.337
X90.805Y-33.337
X99.695Y-54.769
X109.855Y-54.769
X224.695Y-13.097
X234.855Y-13.097
X262.795Y-19.05
X272.955Y-19.05
X186.595Y-33.337
X196.755Y-33.337
X222.314Y-70.247
X232.474Y-70.247
X262.795Y-57.15
X272.955Y-57.15
X167.545Y-54.769
X177.705Y-54.769
X224.695Y-32.147
X234.855Y-32.147
X4.445Y-19.05
X14.605Y-19.05
X167.545Y-16.669
X177.705Y-16.669
X243.745Y-57.15
X253.905Y-57.15
X99.695Y-16.669
X109.855Y-16.669
X42.545Y-32.147
X52.705Y-32.147
X99.695Y-35.719
X109.855Y-35.719
X4.445Y-57.15
X14.605Y-57.15
X118.745Y-26.194
X128.905Y-26.194
X148.495Y-26.194
X158.655Y-26.194
X61.595Y-47.625
X71.755Y-47.625
X262.795Y-38.1
X272.955Y-38.1
X23.495Y-57.15
X33.655Y-57.15
X205.645Y-47.625
X215.805Y-47.625
X167.545Y-35.719
X177.705Y-35.719
X116.603Y-82.072
X120.849Y-72.841
X224.695Y-51.197
X234.855Y-51.197
X80.645Y-14.287
X90.805Y-14.287
X205.645Y-28.575
X215.805Y-28.575
X4.445Y-38.1
X14.605Y-38.1
X156.551Y-72.841
X160.797Y-82.072
X69.558Y-70.891
X79.678Y-71.795
X61.595Y-28.575
X71.755Y-28.575
X80.645Y-52.387
X90.805Y-52.387
X42.545Y-51.197
X52.705Y-51.197
X243.745Y-19.05
X253.905Y-19.05
T9
X153.575Y-26.194
X66.675Y-47.625
X267.875Y-38.1
X28.575Y-57.15
X210.725Y-47.625
X172.625Y-35.719
X118.726Y-77.456
X229.775Y-51.197
X85.725Y-14.287
X210.725Y-28.575
X9.525Y-38.1
X158.674Y-77.456
X74.618Y-71.343
X66.675Y-28.575
X85.725Y-52.387
X47.625Y-51.197
X248.825Y-19.05
X47.625Y-13.097
X97.178Y-74.935
X66.675Y-9.525
X50.006Y-70.247
X153.575Y-45.244
X180.222Y-74.935
X191.675Y-52.387
X191.675Y-14.287
X123.825Y-45.244
X210.725Y-9.525
X28.575Y-19.05
X202.782Y-71.343
X248.825Y-38.1
X28.575Y-38.1
X85.725Y-33.337
X104.775Y-54.769
X229.775Y-13.097
X267.875Y-19.05
X191.675Y-33.337
X227.394Y-70.247
X267.875Y-57.15
X172.625Y-54.769
X229.775Y-32.147
X9.525Y-19.05
X172.625Y-16.669
X248.825Y-57.15
X104.775Y-16.669
X47.625Y-32.147
X104.775Y-35.719
X9.525Y-57.15
X123.825Y-26.194
T0
M30
