G04 #@! TF.GenerationSoftware,KiCad,Pcbnew,(5.1.4)-1*
G04 #@! TF.CreationDate,2020-01-04T16:57:39+09:00*
G04 #@! TF.ProjectId,caravelle,63617261-7665-46c6-9c65-2e6b69636164,rev?*
G04 #@! TF.SameCoordinates,PX2faf080PY1e84800*
G04 #@! TF.FileFunction,Profile,NP*
%FSLAX46Y46*%
G04 Gerber Fmt 4.6, Leading zero omitted, Abs format (unit mm)*
G04 Created by KiCad (PCBNEW (5.1.4)-1) date 2020-01-04 16:57:39*
%MOMM*%
%LPD*%
G04 APERTURE LIST*
%ADD10C,0.200000*%
G04 APERTURE END LIST*
D10*
X258300000Y-24525000D02*
X244300000Y-24524999D01*
X258300000Y-24525000D02*
G75*
G02X260300000Y-26525000I0J-2000000D01*
G01*
X260300000Y-26524998D02*
G75*
G02X259300000Y-27525000I-1000001J-1D01*
G01*
X240300000Y-27525000D02*
X259300000Y-27525000D01*
X240300000Y-27525000D02*
G75*
G02X239300000Y-26525000I0J1000000D01*
G01*
X239300000Y-22571875D02*
X239300000Y-26525000D01*
X238299999Y-21571874D02*
G75*
G02X239300000Y-22571875I0J-1000001D01*
G01*
X233300000Y-21571875D02*
X238300000Y-21571874D01*
X233300001Y-21571874D02*
G75*
G02X232300000Y-20571875I-1J1000000D01*
G01*
X232300000Y-16999999D02*
X232300000Y-20571875D01*
X232299999Y-17000000D02*
G75*
G02X234300000Y-14999999I2000001J0D01*
G01*
X240300000Y-14999999D02*
X234300000Y-14999999D01*
X240300000Y-14999999D02*
G75*
G02X242300000Y-16999999I0J-2000000D01*
G01*
X242300000Y-22525000D02*
X242300000Y-16999999D01*
X244300000Y-24525000D02*
G75*
G02X242300000Y-22525000I0J2000000D01*
G01*
X179150000Y-16999999D02*
X179150000Y-20143750D01*
X179150000Y-16999999D02*
G75*
G02X181150000Y-14999999I2000000J0D01*
G01*
X224200000Y-14999999D02*
X181150000Y-14999999D01*
X224200000Y-14999999D02*
G75*
G02X226200000Y-16999999I0J-2000000D01*
G01*
X226200000Y-20571875D02*
X226200000Y-16999999D01*
X226200000Y-20571875D02*
G75*
G02X225200000Y-21571875I-1000000J0D01*
G01*
X221250000Y-21571875D02*
X225200000Y-21571875D01*
X221250000Y-21571875D02*
G75*
G02X220250000Y-20571875I0J1000000D01*
G01*
X220250000Y-19000000D02*
X220250000Y-20571875D01*
X219250000Y-18000000D02*
G75*
G02X220250000Y-19000000I0J-1000000D01*
G01*
X202200000Y-18000000D02*
X219250000Y-18000000D01*
X201200000Y-19000000D02*
G75*
G02X202200000Y-18000000I1000000J0D01*
G01*
X201200000Y-21762499D02*
X201200000Y-19000000D01*
X201199999Y-21762500D02*
G75*
G02X200200000Y-22762499I-999999J0D01*
G01*
X183150000Y-22762500D02*
X200200000Y-22762499D01*
X182150001Y-23762499D02*
G75*
G02X183150000Y-22762500I999999J0D01*
G01*
X182150000Y-24143750D02*
X182150000Y-23762500D01*
X182150000Y-24143750D02*
G75*
G02X181150000Y-25143750I-1000000J0D01*
G01*
X164100000Y-25143750D02*
X181150000Y-25143750D01*
X163100000Y-26143750D02*
G75*
G02X164100000Y-25143750I1000000J0D01*
G01*
X163100000Y-33668750D02*
X163100000Y-26143750D01*
X163100000Y-33668749D02*
G75*
G02X162100000Y-34668749I-1000000J0D01*
G01*
X157673631Y-34668750D02*
X162100000Y-34668749D01*
X157673631Y-34668750D02*
G75*
G02X156673631Y-33668750I0J1000000D01*
G01*
X156673631Y-24143750D02*
X156673631Y-33668750D01*
X156673631Y-24143750D02*
G75*
G02X158673631Y-22143750I2000000J0D01*
G01*
X177150000Y-22143750D02*
X158673631Y-22143750D01*
X179150000Y-20143750D02*
G75*
G02X177150000Y-22143750I-2000000J0D01*
G01*
X217400000Y-105543445D02*
X217400000Y-105000000D01*
X217400000Y-105543445D02*
G75*
G02X215400000Y-107543445I-2000000J0D01*
G01*
X189594987Y-107543445D02*
X215400000Y-107543445D01*
X189594987Y-107543445D02*
G75*
G02X187594987Y-105543445I0J2000000D01*
G01*
X187594987Y-101694910D02*
X187594987Y-105543445D01*
X187594987Y-101694910D02*
G75*
G02X188353065Y-100724614I1000000J0D01*
G01*
X191594987Y-99916312D02*
X188353065Y-100724614D01*
X191594986Y-99916312D02*
G75*
G02X191748014Y-99890567I241923J-970296D01*
G01*
X215443141Y-97775833D02*
X191748014Y-99890567D01*
X215443141Y-97775833D02*
G75*
G02X215532035Y-97771874I88894J-996041D01*
G01*
X259300000Y-97771875D02*
X215532035Y-97771874D01*
X259300000Y-97771875D02*
G75*
G02X260300000Y-98771875I0J-1000000D01*
G01*
X260300000Y-101000000D02*
X260300000Y-98771875D01*
X260300000Y-101000000D02*
G75*
G02X258300000Y-103000000I-2000000J0D01*
G01*
X219400000Y-103000000D02*
X258300000Y-103000000D01*
X217400000Y-105000000D02*
G75*
G02X219400000Y-103000000I2000000J0D01*
G01*
X176108444Y-112998929D02*
G75*
G02X174108444Y-114998929I-2000000J0D01*
G01*
X176108444Y-109543445D02*
X176108444Y-112998929D01*
X176108444Y-109543445D02*
G75*
G02X178108444Y-107543445I2000000J0D01*
G01*
X179676183Y-107543445D02*
X178108444Y-107543445D01*
X181676183Y-105543445D02*
G75*
G02X179676183Y-107543445I-2000000J0D01*
G01*
X181676183Y-103669290D02*
X181676183Y-105543445D01*
X180434261Y-102698994D02*
G75*
G02X181676183Y-103669290I241922J-970296D01*
G01*
X173284389Y-104481657D02*
X180434261Y-102698994D01*
X173108444Y-104543445D02*
G75*
G02X173284389Y-104481657I417867J-908508D01*
G01*
X156899059Y-111998929D02*
X173108444Y-104543445D01*
X156899059Y-111998928D02*
G75*
G02X155572684Y-111508287I-417867J908508D01*
G01*
X144141491Y-86655092D02*
X155572684Y-111508287D01*
X144141492Y-86655092D02*
G75*
G02X144050000Y-86237225I908508J417867D01*
G01*
X144050000Y-35668750D02*
X144050000Y-86237225D01*
X144050000Y-35668750D02*
G75*
G02X145050000Y-34668750I1000000J0D01*
G01*
X149550000Y-34668750D02*
X145050000Y-34668750D01*
X150550001Y-33668749D02*
G75*
G02X149550000Y-34668750I-1000001J0D01*
G01*
X150550000Y-24143750D02*
X150550000Y-33668750D01*
X148550000Y-22143750D02*
G75*
G02X150550000Y-24143750I0J-2000000D01*
G01*
X128849999Y-22143750D02*
X148550000Y-22143750D01*
X126849999Y-24143750D02*
G75*
G02X128849999Y-22143750I2000000J0D01*
G01*
X126850000Y-33668750D02*
X126850000Y-24143750D01*
X127849999Y-34668750D02*
G75*
G02X126849999Y-33668750I0J1000000D01*
G01*
X95723816Y-103669290D02*
G75*
G02X96965738Y-102698994I1000000J0D01*
G01*
X95723816Y-105543445D02*
X95723816Y-103669290D01*
X97723816Y-107543445D02*
G75*
G02X95723816Y-105543445I0J2000000D01*
G01*
X99291555Y-107543445D02*
X97723816Y-107543445D01*
X99291555Y-107543445D02*
G75*
G02X101291555Y-109543445I0J-2000000D01*
G01*
X101291555Y-112998929D02*
X101291555Y-109543445D01*
X103291555Y-114998929D02*
G75*
G02X101291555Y-112998929I0J2000000D01*
G01*
X174108444Y-114998929D02*
X103291555Y-114998929D01*
X104115610Y-104481657D02*
G75*
G02X104291555Y-104543445I-241922J-970296D01*
G01*
X133350000Y-86237225D02*
X133350000Y-35668750D01*
X133350000Y-86237225D02*
G75*
G02X133258508Y-86655092I-1000000J0D01*
G01*
X121827315Y-111508287D02*
X133258508Y-86655092D01*
X121827316Y-111508287D02*
G75*
G02X120500940Y-111998929I-908509J417867D01*
G01*
X104291555Y-104543445D02*
X120500940Y-111998929D01*
X96965738Y-102698994D02*
X104115610Y-104481657D01*
X85651984Y-99890567D02*
G75*
G02X85805012Y-99916312I-88894J-996041D01*
G01*
X89046934Y-100724614D02*
X85805012Y-99916312D01*
X89046934Y-100724614D02*
G75*
G02X89805012Y-101694910I-241922J-970296D01*
G01*
X89805012Y-105543445D02*
X89805012Y-101694910D01*
X89805012Y-105543445D02*
G75*
G02X87805012Y-107543445I-2000000J0D01*
G01*
X62000000Y-107543445D02*
X87805012Y-107543445D01*
X62000000Y-107543445D02*
G75*
G02X60000000Y-105543445I0J2000000D01*
G01*
X60000000Y-105000000D02*
X60000000Y-105543445D01*
X58000000Y-103000000D02*
G75*
G02X60000000Y-105000000I0J-2000000D01*
G01*
X19100000Y-103000000D02*
X58000000Y-103000000D01*
X19100000Y-103000001D02*
G75*
G02X17099999Y-101000000I0J2000001D01*
G01*
X17099999Y-98771875D02*
X17099999Y-101000000D01*
X17100000Y-98771875D02*
G75*
G02X18100000Y-97771875I1000000J0D01*
G01*
X61867964Y-97771874D02*
X18100000Y-97771875D01*
X61867964Y-97771874D02*
G75*
G02X61956858Y-97775833I0J-1000000D01*
G01*
X85651985Y-99890567D02*
X61956858Y-97775833D01*
X0Y-28524999D02*
G75*
G02X1000000Y-27524999I1000000J0D01*
G01*
X0Y-85771874D02*
X0Y-28524999D01*
X1000000Y-86771874D02*
G75*
G02X0Y-85771874I0J1000000D01*
G01*
X3700000Y-86771874D02*
X1000000Y-86771874D01*
X3700000Y-86771874D02*
G75*
G02X4700000Y-87771874I0J-1000000D01*
G01*
X4699999Y-96771875D02*
X4700000Y-87771874D01*
X5699999Y-97771875D02*
G75*
G02X4699999Y-96771875I0J1000000D01*
G01*
X9999999Y-97771875D02*
X5699999Y-97771875D01*
X10000000Y-97771875D02*
G75*
G02X11000000Y-98771875I0J-1000000D01*
G01*
X11000000Y-101000000D02*
X11000000Y-98771875D01*
X11000000Y-101000000D02*
G75*
G02X9000000Y-103000000I-2000000J0D01*
G01*
X2000000Y-103000000D02*
X9000000Y-103000000D01*
X0Y-105000000D02*
G75*
G02X2000000Y-103000000I2000000J0D01*
G01*
X0Y-122998929D02*
X0Y-105000000D01*
X1999999Y-124998928D02*
G75*
G02X0Y-122998929I0J1999999D01*
G01*
X275400000Y-124998929D02*
X1999999Y-124998929D01*
X277400000Y-122998929D02*
G75*
G02X275400000Y-124998929I-2000000J0D01*
G01*
X277400000Y-105000000D02*
X277400000Y-122998929D01*
X275400000Y-103000000D02*
G75*
G02X277400000Y-105000000I0J-2000000D01*
G01*
X268400000Y-103000000D02*
X275400000Y-103000000D01*
X268400000Y-103000000D02*
G75*
G02X266400000Y-101000000I0J2000000D01*
G01*
X266400000Y-98771875D02*
X266400000Y-101000000D01*
X266400000Y-98771875D02*
G75*
G02X267400000Y-97771875I1000000J0D01*
G01*
X271700000Y-97771875D02*
X267400000Y-97771875D01*
X272700000Y-96771875D02*
G75*
G02X271700000Y-97771875I-1000000J0D01*
G01*
X272700000Y-87771874D02*
X272700000Y-96771875D01*
X272700000Y-87771874D02*
G75*
G02X273700000Y-86771874I1000000J0D01*
G01*
X276400000Y-86771874D02*
X273700000Y-86771874D01*
X277400000Y-85771874D02*
G75*
G02X276400000Y-86771874I-1000000J0D01*
G01*
X277400000Y-28524999D02*
X277400000Y-85771874D01*
X276399999Y-27525000D02*
G75*
G02X277400000Y-28524999I1J-1000000D01*
G01*
X267400000Y-27525000D02*
X276400000Y-27525000D01*
X267400001Y-27524999D02*
G75*
G02X266400000Y-26525000I-1J1000000D01*
G01*
X266400000Y-26525000D02*
G75*
G02X268400000Y-24525000I2000000J0D01*
G01*
X275400000Y-24525000D02*
X268400000Y-24525000D01*
X277400000Y-22525000D02*
G75*
G02X275400000Y-24525000I-2000000J0D01*
G01*
X277400000Y-6999999D02*
X277400000Y-22525000D01*
X275399999Y-5000000D02*
G75*
G02X277400000Y-6999999I1J-2000000D01*
G01*
X1999999Y-4999999D02*
X275400000Y-5000000D01*
X-1Y-6999999D02*
G75*
G02X1999999Y-4999999I2000000J0D01*
G01*
X0Y-22525000D02*
X0Y-6999999D01*
X2000000Y-24525000D02*
G75*
G02X0Y-22525000I0J2000000D01*
G01*
X9000000Y-24525000D02*
X2000000Y-24525000D01*
X9000000Y-24525000D02*
G75*
G02X11000000Y-26525000I0J-2000000D01*
G01*
X11000000Y-26525000D02*
G75*
G02X10000000Y-27525000I-1000000J0D01*
G01*
X1000000Y-27524999D02*
X10000000Y-27525000D01*
X38100000Y-22571875D02*
G75*
G02X39100000Y-21571875I1000000J0D01*
G01*
X38100000Y-26525000D02*
X38100000Y-22571875D01*
X38100000Y-26525000D02*
G75*
G02X37100000Y-27525000I-1000000J0D01*
G01*
X18100000Y-27525000D02*
X37100000Y-27525000D01*
X18100000Y-27525001D02*
G75*
G02X17099999Y-26525000I0J1000001D01*
G01*
X17100000Y-26525000D02*
G75*
G02X19100000Y-24525000I2000000J0D01*
G01*
X33100000Y-24525000D02*
X19100000Y-24525000D01*
X35100000Y-22525000D02*
G75*
G02X33100000Y-24525000I-2000000J0D01*
G01*
X35100000Y-16999999D02*
X35100000Y-22525000D01*
X35100000Y-16999999D02*
G75*
G02X37100000Y-14999999I2000000J0D01*
G01*
X43100000Y-14999999D02*
X37100000Y-14999999D01*
X43100000Y-14999999D02*
G75*
G02X45100000Y-16999999I0J-2000000D01*
G01*
X45100000Y-20571875D02*
X45100000Y-16999999D01*
X45100000Y-20571875D02*
G75*
G02X44100000Y-21571875I-1000000J0D01*
G01*
X39100000Y-21571875D02*
X44100000Y-21571875D01*
X119726368Y-34668750D02*
X115300000Y-34668750D01*
X120726368Y-33668750D02*
G75*
G02X119726368Y-34668750I-1000000J0D01*
G01*
X120726368Y-24143750D02*
X120726368Y-33668750D01*
X118726369Y-22143751D02*
G75*
G02X120726368Y-24143750I0J-1999999D01*
G01*
X100249999Y-22143749D02*
X118726369Y-22143750D01*
X100249999Y-22143750D02*
G75*
G02X98249999Y-20143750I0J2000000D01*
G01*
X98249999Y-16999999D02*
X98249999Y-20143750D01*
X96249999Y-14999999D02*
G75*
G02X98249999Y-16999999I0J-2000000D01*
G01*
X53200000Y-14999999D02*
X96250000Y-15000000D01*
X51200000Y-16999999D02*
G75*
G02X53200000Y-14999999I2000000J0D01*
G01*
X51200000Y-20571875D02*
X51200000Y-16999999D01*
X52200000Y-21571875D02*
G75*
G02X51200000Y-20571875I0J1000000D01*
G01*
X56150000Y-21571875D02*
X52200000Y-21571875D01*
X57150000Y-20571875D02*
G75*
G02X56150000Y-21571875I-1000000J0D01*
G01*
X57150000Y-19000000D02*
X57150000Y-20571875D01*
X57149999Y-19000000D02*
G75*
G02X58149999Y-18000000I1000000J0D01*
G01*
X75200000Y-18000000D02*
X58149999Y-18000000D01*
X75200000Y-18000000D02*
G75*
G02X76200000Y-19000000I0J-1000000D01*
G01*
X76200000Y-21762499D02*
X76200000Y-19000000D01*
X77200000Y-22762499D02*
G75*
G02X76200000Y-21762499I0J1000000D01*
G01*
X94249999Y-22762500D02*
X77200000Y-22762499D01*
X94249999Y-22762499D02*
G75*
G02X95250000Y-23762500I0J-1000001D01*
G01*
X95250000Y-24143750D02*
X95250000Y-23762500D01*
X96250000Y-25143750D02*
G75*
G02X95250000Y-24143750I0J1000000D01*
G01*
X113300000Y-25143750D02*
X96250000Y-25143749D01*
X113300000Y-25143750D02*
G75*
G02X114300000Y-26143750I0J-1000000D01*
G01*
X114300000Y-33668750D02*
X114300000Y-26143750D01*
X115300000Y-34668750D02*
G75*
G02X114300000Y-33668750I0J1000000D01*
G01*
X132350000Y-34668750D02*
X127849999Y-34668750D01*
X132350000Y-34668750D02*
G75*
G02X133350000Y-35668750I0J-1000000D01*
G01*
M02*
