G04 #@! TF.GenerationSoftware,KiCad,Pcbnew,(5.1.4)-1*
G04 #@! TF.CreationDate,2019-12-22T18:43:03+09:00*
G04 #@! TF.ProjectId,caravelle,63617261-7665-46c6-9c65-2e6b69636164,rev?*
G04 #@! TF.SameCoordinates,PX2faf080PY1e84800*
G04 #@! TF.FileFunction,Copper,L1,Top*
G04 #@! TF.FilePolarity,Positive*
%FSLAX46Y46*%
G04 Gerber Fmt 4.6, Leading zero omitted, Abs format (unit mm)*
G04 Created by KiCad (PCBNEW (5.1.4)-1) date 2019-12-22 18:43:03*
%MOMM*%
%LPD*%
G04 APERTURE LIST*
%ADD10C,0.750000*%
%ADD11C,1.000000*%
%ADD12R,1.200000X0.500000*%
%ADD13R,0.500000X1.200000*%
%ADD14C,1.200000*%
%ADD15C,2.250000*%
%ADD16R,1.700000X1.700000*%
%ADD17O,1.700000X1.700000*%
%ADD18C,1.700000*%
%ADD19R,1.250000X0.850000*%
%ADD20O,1.750000X1.200000*%
%ADD21C,0.100000*%
%ADD22C,0.950000*%
%ADD23C,0.500000*%
%ADD24C,0.900000*%
%ADD25C,0.200000*%
%ADD26C,0.400000*%
G04 APERTURE END LIST*
D10*
X267400000Y-10000000D03*
X15000000Y-120000000D03*
D11*
X15000000Y-10000000D03*
X267400000Y-120000000D03*
D12*
X250250000Y-92400000D03*
X250250000Y-91650000D03*
X250250000Y-90900000D03*
X250250000Y-90150000D03*
X250250000Y-89400000D03*
X250250000Y-88650000D03*
X250250000Y-87900000D03*
X250250000Y-87150000D03*
X250250000Y-86400000D03*
X250250000Y-85650000D03*
X250250000Y-84900000D03*
X250250000Y-84150000D03*
D13*
X249100000Y-83700000D03*
X248350000Y-83700000D03*
X247600000Y-83700000D03*
X246850000Y-83700000D03*
X246100000Y-83700000D03*
X245350000Y-83700000D03*
X244600000Y-83700000D03*
X243850000Y-83700000D03*
X243100000Y-83700000D03*
X242350000Y-83700000D03*
X241600000Y-83700000D03*
D12*
X240450000Y-84150000D03*
X240450000Y-84900000D03*
X240450000Y-85650000D03*
X240450000Y-86400000D03*
X240450000Y-87150000D03*
X240450000Y-87900000D03*
X240450000Y-88650000D03*
X240450000Y-89400000D03*
X240450000Y-90150000D03*
X240450000Y-90900000D03*
X240450000Y-91650000D03*
X240450000Y-92400000D03*
X240450000Y-93150000D03*
X240450000Y-93900000D03*
X240450000Y-94650000D03*
X240450000Y-95400000D03*
X36950000Y-92400000D03*
X36950000Y-91650000D03*
X36950000Y-90900000D03*
X36950000Y-90150000D03*
X36950000Y-89400000D03*
X36950000Y-88650000D03*
X36950000Y-87900000D03*
X36950000Y-87150000D03*
X36950000Y-86400000D03*
X36950000Y-85650000D03*
X36950000Y-84900000D03*
X36950000Y-84150000D03*
D13*
X35800000Y-83700000D03*
X35050000Y-83700000D03*
X34300000Y-83700000D03*
X33550000Y-83700000D03*
X32800000Y-83700000D03*
X32050000Y-83700000D03*
X31300000Y-83700000D03*
X30550000Y-83700000D03*
X29800000Y-83700000D03*
X29050000Y-83700000D03*
X28300000Y-83700000D03*
D12*
X27150000Y-84150000D03*
X27150000Y-84900000D03*
X27150000Y-85650000D03*
X27150000Y-86400000D03*
X27150000Y-87150000D03*
X27150000Y-87900000D03*
X27150000Y-88650000D03*
X27150000Y-89400000D03*
X27150000Y-90150000D03*
X27150000Y-90900000D03*
X27150000Y-91650000D03*
X27150000Y-92400000D03*
X27150000Y-93150000D03*
X27150000Y-93900000D03*
X27150000Y-94650000D03*
X27150000Y-95400000D03*
D14*
X262900000Y-85300000D03*
X264900000Y-85300000D03*
X260900000Y-85300000D03*
D15*
X164350420Y-95641147D03*
X159389353Y-90933502D03*
X245015000Y-72610000D03*
X251365000Y-70070000D03*
X46196250Y-85706875D03*
X52546250Y-83166875D03*
X43815000Y-66656875D03*
X50165000Y-64116875D03*
X5715000Y-72610000D03*
X12065000Y-70070000D03*
D16*
X21000000Y-88180000D03*
D17*
X21000000Y-90720000D03*
X21000000Y-93260000D03*
D18*
X21000000Y-95800000D03*
D19*
X274175000Y-85325000D03*
X270025000Y-85325000D03*
X274175000Y-83175000D03*
X270025000Y-83175000D03*
X7375000Y-85325000D03*
X3225000Y-85325000D03*
X7375000Y-83175000D03*
X3225000Y-83175000D03*
D20*
X263900000Y-93250000D03*
D21*
G36*
X264549865Y-94651202D02*
G01*
X264574095Y-94654796D01*
X264597855Y-94660748D01*
X264620918Y-94669000D01*
X264643061Y-94679472D01*
X264664070Y-94692065D01*
X264683745Y-94706657D01*
X264701894Y-94723106D01*
X264718343Y-94741255D01*
X264732935Y-94760930D01*
X264745528Y-94781939D01*
X264756000Y-94804082D01*
X264764252Y-94827145D01*
X264770204Y-94850905D01*
X264773798Y-94875135D01*
X264775000Y-94899600D01*
X264775000Y-95600400D01*
X264773798Y-95624865D01*
X264770204Y-95649095D01*
X264764252Y-95672855D01*
X264756000Y-95695918D01*
X264745528Y-95718061D01*
X264732935Y-95739070D01*
X264718343Y-95758745D01*
X264701894Y-95776894D01*
X264683745Y-95793343D01*
X264664070Y-95807935D01*
X264643061Y-95820528D01*
X264620918Y-95831000D01*
X264597855Y-95839252D01*
X264574095Y-95845204D01*
X264549865Y-95848798D01*
X264525400Y-95850000D01*
X263274600Y-95850000D01*
X263250135Y-95848798D01*
X263225905Y-95845204D01*
X263202145Y-95839252D01*
X263179082Y-95831000D01*
X263156939Y-95820528D01*
X263135930Y-95807935D01*
X263116255Y-95793343D01*
X263098106Y-95776894D01*
X263081657Y-95758745D01*
X263067065Y-95739070D01*
X263054472Y-95718061D01*
X263044000Y-95695918D01*
X263035748Y-95672855D01*
X263029796Y-95649095D01*
X263026202Y-95624865D01*
X263025000Y-95600400D01*
X263025000Y-94899600D01*
X263026202Y-94875135D01*
X263029796Y-94850905D01*
X263035748Y-94827145D01*
X263044000Y-94804082D01*
X263054472Y-94781939D01*
X263067065Y-94760930D01*
X263081657Y-94741255D01*
X263098106Y-94723106D01*
X263116255Y-94706657D01*
X263135930Y-94692065D01*
X263156939Y-94679472D01*
X263179082Y-94669000D01*
X263202145Y-94660748D01*
X263225905Y-94654796D01*
X263250135Y-94651202D01*
X263274600Y-94650000D01*
X264525400Y-94650000D01*
X264549865Y-94651202D01*
X264549865Y-94651202D01*
G37*
D14*
X263900000Y-95250000D03*
D20*
X13500000Y-95250000D03*
D21*
G36*
X14149865Y-92651202D02*
G01*
X14174095Y-92654796D01*
X14197855Y-92660748D01*
X14220918Y-92669000D01*
X14243061Y-92679472D01*
X14264070Y-92692065D01*
X14283745Y-92706657D01*
X14301894Y-92723106D01*
X14318343Y-92741255D01*
X14332935Y-92760930D01*
X14345528Y-92781939D01*
X14356000Y-92804082D01*
X14364252Y-92827145D01*
X14370204Y-92850905D01*
X14373798Y-92875135D01*
X14375000Y-92899600D01*
X14375000Y-93600400D01*
X14373798Y-93624865D01*
X14370204Y-93649095D01*
X14364252Y-93672855D01*
X14356000Y-93695918D01*
X14345528Y-93718061D01*
X14332935Y-93739070D01*
X14318343Y-93758745D01*
X14301894Y-93776894D01*
X14283745Y-93793343D01*
X14264070Y-93807935D01*
X14243061Y-93820528D01*
X14220918Y-93831000D01*
X14197855Y-93839252D01*
X14174095Y-93845204D01*
X14149865Y-93848798D01*
X14125400Y-93850000D01*
X12874600Y-93850000D01*
X12850135Y-93848798D01*
X12825905Y-93845204D01*
X12802145Y-93839252D01*
X12779082Y-93831000D01*
X12756939Y-93820528D01*
X12735930Y-93807935D01*
X12716255Y-93793343D01*
X12698106Y-93776894D01*
X12681657Y-93758745D01*
X12667065Y-93739070D01*
X12654472Y-93718061D01*
X12644000Y-93695918D01*
X12635748Y-93672855D01*
X12629796Y-93649095D01*
X12626202Y-93624865D01*
X12625000Y-93600400D01*
X12625000Y-92899600D01*
X12626202Y-92875135D01*
X12629796Y-92850905D01*
X12635748Y-92827145D01*
X12644000Y-92804082D01*
X12654472Y-92781939D01*
X12667065Y-92760930D01*
X12681657Y-92741255D01*
X12698106Y-92723106D01*
X12716255Y-92706657D01*
X12735930Y-92692065D01*
X12756939Y-92679472D01*
X12779082Y-92669000D01*
X12802145Y-92660748D01*
X12825905Y-92654796D01*
X12850135Y-92651202D01*
X12874600Y-92650000D01*
X14125400Y-92650000D01*
X14149865Y-92651202D01*
X14149865Y-92651202D01*
G37*
D14*
X13500000Y-93250000D03*
D21*
G36*
X252635779Y-82626144D02*
G01*
X252658834Y-82629563D01*
X252681443Y-82635227D01*
X252703387Y-82643079D01*
X252724457Y-82653044D01*
X252744448Y-82665026D01*
X252763168Y-82678910D01*
X252780438Y-82694562D01*
X252796090Y-82711832D01*
X252809974Y-82730552D01*
X252821956Y-82750543D01*
X252831921Y-82771613D01*
X252839773Y-82793557D01*
X252845437Y-82816166D01*
X252848856Y-82839221D01*
X252850000Y-82862500D01*
X252850000Y-83337500D01*
X252848856Y-83360779D01*
X252845437Y-83383834D01*
X252839773Y-83406443D01*
X252831921Y-83428387D01*
X252821956Y-83449457D01*
X252809974Y-83469448D01*
X252796090Y-83488168D01*
X252780438Y-83505438D01*
X252763168Y-83521090D01*
X252744448Y-83534974D01*
X252724457Y-83546956D01*
X252703387Y-83556921D01*
X252681443Y-83564773D01*
X252658834Y-83570437D01*
X252635779Y-83573856D01*
X252612500Y-83575000D01*
X252037500Y-83575000D01*
X252014221Y-83573856D01*
X251991166Y-83570437D01*
X251968557Y-83564773D01*
X251946613Y-83556921D01*
X251925543Y-83546956D01*
X251905552Y-83534974D01*
X251886832Y-83521090D01*
X251869562Y-83505438D01*
X251853910Y-83488168D01*
X251840026Y-83469448D01*
X251828044Y-83449457D01*
X251818079Y-83428387D01*
X251810227Y-83406443D01*
X251804563Y-83383834D01*
X251801144Y-83360779D01*
X251800000Y-83337500D01*
X251800000Y-82862500D01*
X251801144Y-82839221D01*
X251804563Y-82816166D01*
X251810227Y-82793557D01*
X251818079Y-82771613D01*
X251828044Y-82750543D01*
X251840026Y-82730552D01*
X251853910Y-82711832D01*
X251869562Y-82694562D01*
X251886832Y-82678910D01*
X251905552Y-82665026D01*
X251925543Y-82653044D01*
X251946613Y-82643079D01*
X251968557Y-82635227D01*
X251991166Y-82629563D01*
X252014221Y-82626144D01*
X252037500Y-82625000D01*
X252612500Y-82625000D01*
X252635779Y-82626144D01*
X252635779Y-82626144D01*
G37*
D22*
X252325000Y-83100000D03*
D21*
G36*
X254385779Y-82626144D02*
G01*
X254408834Y-82629563D01*
X254431443Y-82635227D01*
X254453387Y-82643079D01*
X254474457Y-82653044D01*
X254494448Y-82665026D01*
X254513168Y-82678910D01*
X254530438Y-82694562D01*
X254546090Y-82711832D01*
X254559974Y-82730552D01*
X254571956Y-82750543D01*
X254581921Y-82771613D01*
X254589773Y-82793557D01*
X254595437Y-82816166D01*
X254598856Y-82839221D01*
X254600000Y-82862500D01*
X254600000Y-83337500D01*
X254598856Y-83360779D01*
X254595437Y-83383834D01*
X254589773Y-83406443D01*
X254581921Y-83428387D01*
X254571956Y-83449457D01*
X254559974Y-83469448D01*
X254546090Y-83488168D01*
X254530438Y-83505438D01*
X254513168Y-83521090D01*
X254494448Y-83534974D01*
X254474457Y-83546956D01*
X254453387Y-83556921D01*
X254431443Y-83564773D01*
X254408834Y-83570437D01*
X254385779Y-83573856D01*
X254362500Y-83575000D01*
X253787500Y-83575000D01*
X253764221Y-83573856D01*
X253741166Y-83570437D01*
X253718557Y-83564773D01*
X253696613Y-83556921D01*
X253675543Y-83546956D01*
X253655552Y-83534974D01*
X253636832Y-83521090D01*
X253619562Y-83505438D01*
X253603910Y-83488168D01*
X253590026Y-83469448D01*
X253578044Y-83449457D01*
X253568079Y-83428387D01*
X253560227Y-83406443D01*
X253554563Y-83383834D01*
X253551144Y-83360779D01*
X253550000Y-83337500D01*
X253550000Y-82862500D01*
X253551144Y-82839221D01*
X253554563Y-82816166D01*
X253560227Y-82793557D01*
X253568079Y-82771613D01*
X253578044Y-82750543D01*
X253590026Y-82730552D01*
X253603910Y-82711832D01*
X253619562Y-82694562D01*
X253636832Y-82678910D01*
X253655552Y-82665026D01*
X253675543Y-82653044D01*
X253696613Y-82643079D01*
X253718557Y-82635227D01*
X253741166Y-82629563D01*
X253764221Y-82626144D01*
X253787500Y-82625000D01*
X254362500Y-82625000D01*
X254385779Y-82626144D01*
X254385779Y-82626144D01*
G37*
D22*
X254075000Y-83100000D03*
D21*
G36*
X39185779Y-80826144D02*
G01*
X39208834Y-80829563D01*
X39231443Y-80835227D01*
X39253387Y-80843079D01*
X39274457Y-80853044D01*
X39294448Y-80865026D01*
X39313168Y-80878910D01*
X39330438Y-80894562D01*
X39346090Y-80911832D01*
X39359974Y-80930552D01*
X39371956Y-80950543D01*
X39381921Y-80971613D01*
X39389773Y-80993557D01*
X39395437Y-81016166D01*
X39398856Y-81039221D01*
X39400000Y-81062500D01*
X39400000Y-81537500D01*
X39398856Y-81560779D01*
X39395437Y-81583834D01*
X39389773Y-81606443D01*
X39381921Y-81628387D01*
X39371956Y-81649457D01*
X39359974Y-81669448D01*
X39346090Y-81688168D01*
X39330438Y-81705438D01*
X39313168Y-81721090D01*
X39294448Y-81734974D01*
X39274457Y-81746956D01*
X39253387Y-81756921D01*
X39231443Y-81764773D01*
X39208834Y-81770437D01*
X39185779Y-81773856D01*
X39162500Y-81775000D01*
X38587500Y-81775000D01*
X38564221Y-81773856D01*
X38541166Y-81770437D01*
X38518557Y-81764773D01*
X38496613Y-81756921D01*
X38475543Y-81746956D01*
X38455552Y-81734974D01*
X38436832Y-81721090D01*
X38419562Y-81705438D01*
X38403910Y-81688168D01*
X38390026Y-81669448D01*
X38378044Y-81649457D01*
X38368079Y-81628387D01*
X38360227Y-81606443D01*
X38354563Y-81583834D01*
X38351144Y-81560779D01*
X38350000Y-81537500D01*
X38350000Y-81062500D01*
X38351144Y-81039221D01*
X38354563Y-81016166D01*
X38360227Y-80993557D01*
X38368079Y-80971613D01*
X38378044Y-80950543D01*
X38390026Y-80930552D01*
X38403910Y-80911832D01*
X38419562Y-80894562D01*
X38436832Y-80878910D01*
X38455552Y-80865026D01*
X38475543Y-80853044D01*
X38496613Y-80843079D01*
X38518557Y-80835227D01*
X38541166Y-80829563D01*
X38564221Y-80826144D01*
X38587500Y-80825000D01*
X39162500Y-80825000D01*
X39185779Y-80826144D01*
X39185779Y-80826144D01*
G37*
D22*
X38875000Y-81300000D03*
D21*
G36*
X37435779Y-80826144D02*
G01*
X37458834Y-80829563D01*
X37481443Y-80835227D01*
X37503387Y-80843079D01*
X37524457Y-80853044D01*
X37544448Y-80865026D01*
X37563168Y-80878910D01*
X37580438Y-80894562D01*
X37596090Y-80911832D01*
X37609974Y-80930552D01*
X37621956Y-80950543D01*
X37631921Y-80971613D01*
X37639773Y-80993557D01*
X37645437Y-81016166D01*
X37648856Y-81039221D01*
X37650000Y-81062500D01*
X37650000Y-81537500D01*
X37648856Y-81560779D01*
X37645437Y-81583834D01*
X37639773Y-81606443D01*
X37631921Y-81628387D01*
X37621956Y-81649457D01*
X37609974Y-81669448D01*
X37596090Y-81688168D01*
X37580438Y-81705438D01*
X37563168Y-81721090D01*
X37544448Y-81734974D01*
X37524457Y-81746956D01*
X37503387Y-81756921D01*
X37481443Y-81764773D01*
X37458834Y-81770437D01*
X37435779Y-81773856D01*
X37412500Y-81775000D01*
X36837500Y-81775000D01*
X36814221Y-81773856D01*
X36791166Y-81770437D01*
X36768557Y-81764773D01*
X36746613Y-81756921D01*
X36725543Y-81746956D01*
X36705552Y-81734974D01*
X36686832Y-81721090D01*
X36669562Y-81705438D01*
X36653910Y-81688168D01*
X36640026Y-81669448D01*
X36628044Y-81649457D01*
X36618079Y-81628387D01*
X36610227Y-81606443D01*
X36604563Y-81583834D01*
X36601144Y-81560779D01*
X36600000Y-81537500D01*
X36600000Y-81062500D01*
X36601144Y-81039221D01*
X36604563Y-81016166D01*
X36610227Y-80993557D01*
X36618079Y-80971613D01*
X36628044Y-80950543D01*
X36640026Y-80930552D01*
X36653910Y-80911832D01*
X36669562Y-80894562D01*
X36686832Y-80878910D01*
X36705552Y-80865026D01*
X36725543Y-80853044D01*
X36746613Y-80843079D01*
X36768557Y-80835227D01*
X36791166Y-80829563D01*
X36814221Y-80826144D01*
X36837500Y-80825000D01*
X37412500Y-80825000D01*
X37435779Y-80826144D01*
X37435779Y-80826144D01*
G37*
D22*
X37125000Y-81300000D03*
D14*
X12500000Y-85300000D03*
X14500000Y-85300000D03*
X10500000Y-85300000D03*
D16*
X256400000Y-88180000D03*
D17*
X256400000Y-90720000D03*
X256400000Y-93260000D03*
D18*
X256400000Y-95800000D03*
D15*
X264065000Y-72610000D03*
X270415000Y-70070000D03*
X120015000Y-60703750D03*
X126365000Y-58163750D03*
X175910664Y-91392500D03*
X181457560Y-87391745D03*
X5715000Y-34510000D03*
X12065000Y-31970000D03*
X24765000Y-34510000D03*
X31115000Y-31970000D03*
X81915000Y-29747499D03*
X88265000Y-27207499D03*
X100965000Y-32128750D03*
X107315000Y-29588750D03*
X5715000Y-53560000D03*
X12065000Y-51020000D03*
X24765000Y-53560000D03*
X31115000Y-51020000D03*
X43815000Y-47606875D03*
X50165000Y-45066875D03*
X62865000Y-44035000D03*
X69215000Y-41495000D03*
X81915000Y-48797500D03*
X88265000Y-46257500D03*
X100965000Y-51178750D03*
X107315000Y-48638750D03*
X120015000Y-41653750D03*
X126365000Y-39113750D03*
X24765000Y-72610000D03*
X31115000Y-70070000D03*
X62865000Y-63085000D03*
X69215000Y-60545000D03*
X81915000Y-67847500D03*
X88265000Y-65307500D03*
X100965000Y-70228750D03*
X107315000Y-67688750D03*
X94095682Y-89549055D03*
X100871541Y-88620708D03*
X264065000Y-34510000D03*
X270415000Y-31970000D03*
X245015000Y-34510000D03*
X251365000Y-31970000D03*
X225965000Y-28556875D03*
X232315000Y-26016875D03*
X206915000Y-24985000D03*
X213265000Y-22445000D03*
X187865000Y-29747499D03*
X194215000Y-27207499D03*
X168815000Y-32128750D03*
X175165000Y-29588750D03*
X264065000Y-53560000D03*
X270415000Y-51020000D03*
X245015000Y-53560000D03*
X251365000Y-51020000D03*
X225965000Y-47606875D03*
X232315000Y-45066875D03*
X206915000Y-44035000D03*
X213265000Y-41495000D03*
X187865000Y-48797500D03*
X194215000Y-46257500D03*
X168815000Y-51178750D03*
X175165000Y-48638750D03*
X149765000Y-41653750D03*
X156115000Y-39113750D03*
X225965000Y-66656875D03*
X232315000Y-64116875D03*
X206915000Y-63085000D03*
X213265000Y-60545000D03*
X187865000Y-67847500D03*
X194215000Y-65307500D03*
X168815000Y-70228750D03*
X175165000Y-67688750D03*
X149765000Y-60703750D03*
X156115000Y-58163750D03*
X43815000Y-28556875D03*
X50165000Y-26016875D03*
X62865000Y-24985000D03*
X69215000Y-22445000D03*
X71049207Y-86474349D03*
X77599859Y-84508884D03*
X223583750Y-85706875D03*
X229933750Y-83166875D03*
X198760959Y-87151724D03*
X204860028Y-84057301D03*
X114826499Y-97856335D03*
X115172344Y-91025925D03*
D23*
X38800000Y-92400000D03*
X25900000Y-84849996D03*
X5300000Y-83175000D03*
X39100000Y-82500000D03*
D24*
X34700000Y-81100000D03*
X255000000Y-82100000D03*
D23*
X238800000Y-96050000D03*
X238900000Y-84150000D03*
X272125000Y-83175000D03*
X251100000Y-83300000D03*
X243250000Y-91650000D03*
X242300000Y-92400000D03*
X17100000Y-90900001D03*
X244300000Y-90900000D03*
X252099976Y-90900000D03*
X258890002Y-91990000D03*
X19300000Y-85800000D03*
X28900000Y-85800010D03*
X246850000Y-85099996D03*
X258280000Y-85130000D03*
X34300000Y-85700000D03*
X242750000Y-85750000D03*
D25*
X23140000Y-95400000D02*
X21000000Y-93260000D01*
X27150000Y-95400000D02*
X23140000Y-95400000D01*
D26*
X4250000Y-83175000D02*
X5325000Y-83175000D01*
X3225000Y-83175000D02*
X4250000Y-83175000D01*
X5325000Y-83175000D02*
X7375000Y-83175000D01*
X36950000Y-92400000D02*
X38800000Y-92400000D01*
X27150000Y-84150000D02*
X26150000Y-84150000D01*
X26150000Y-84150000D02*
X25900000Y-84400000D01*
X25900000Y-84496443D02*
X25900000Y-84849996D01*
X25900000Y-84400000D02*
X25900000Y-84496443D01*
X38375928Y-81799072D02*
X38875000Y-81300000D01*
X36675001Y-83499999D02*
X38375928Y-81799072D01*
X36000001Y-83499999D02*
X36675001Y-83499999D01*
X35800000Y-83700000D02*
X36000001Y-83499999D01*
X39100000Y-81525000D02*
X38875000Y-81300000D01*
X39100000Y-82500000D02*
X39100000Y-81525000D01*
X14499960Y-90502041D02*
X14499960Y-85300000D01*
X21000000Y-95800000D02*
X19797919Y-95800000D01*
X19797919Y-95800000D02*
X14499960Y-90502041D01*
X36925000Y-81100000D02*
X37125000Y-81300000D01*
X34700000Y-81100000D02*
X36925000Y-81100000D01*
X36225000Y-82200000D02*
X37125000Y-81300000D01*
X35500000Y-82200000D02*
X36225000Y-82200000D01*
X35050000Y-83700000D02*
X35050000Y-82650000D01*
X35050000Y-82650000D02*
X35500000Y-82200000D01*
D25*
X26350000Y-92400000D02*
X27150000Y-92400000D01*
X22800000Y-92400000D02*
X26350000Y-92400000D01*
X21120000Y-90720000D02*
X22800000Y-92400000D01*
X26350000Y-91650000D02*
X27150000Y-91650000D01*
X24450000Y-91650000D02*
X26350000Y-91650000D01*
X21000000Y-88200000D02*
X24450000Y-91650000D01*
D26*
X248350000Y-83700000D02*
X248350000Y-82150000D01*
X249000000Y-81500000D02*
X252475000Y-81500000D01*
X248350000Y-82150000D02*
X249000000Y-81500000D01*
X252475000Y-81500000D02*
X254075000Y-83100000D01*
X254075000Y-83100000D02*
X255000000Y-82175000D01*
X255000000Y-82175000D02*
X255000000Y-82100000D01*
X239450000Y-95400000D02*
X238800000Y-96050000D01*
X240450000Y-95400000D02*
X239450000Y-95400000D01*
X238800000Y-96050000D02*
X238800000Y-96050000D01*
X238900000Y-84150000D02*
X240450000Y-84150000D01*
D25*
X270850000Y-83175000D02*
X272125000Y-83175000D01*
X270025000Y-83175000D02*
X270850000Y-83175000D01*
X272125000Y-83175000D02*
X274175000Y-83175000D01*
D26*
X263890000Y-93260000D02*
X263900000Y-93250000D01*
X256400000Y-93260000D02*
X263890000Y-93260000D01*
X252125000Y-83300000D02*
X251100000Y-83300000D01*
X252325000Y-83100000D02*
X252125000Y-83300000D01*
X251825928Y-82600928D02*
X252325000Y-83100000D01*
X251325000Y-82100000D02*
X251825928Y-82600928D01*
X249400000Y-82100000D02*
X251325000Y-82100000D01*
X249100000Y-83700000D02*
X249100000Y-82400000D01*
X249100000Y-82400000D02*
X249400000Y-82100000D01*
X252110000Y-93260000D02*
X255197919Y-93260000D01*
X255197919Y-93260000D02*
X256400000Y-93260000D01*
X251250000Y-92400000D02*
X252110000Y-93260000D01*
X250250000Y-92400000D02*
X251250000Y-92400000D01*
D25*
X240450000Y-91650000D02*
X243250000Y-91650000D01*
X240450000Y-92400000D02*
X242300000Y-92400000D01*
X12070000Y-31970000D02*
X12065000Y-31970000D01*
X18800022Y-38700022D02*
X12070000Y-31970000D01*
X18800022Y-81600022D02*
X18800022Y-38700022D01*
X27150000Y-88650000D02*
X25850000Y-88650000D01*
X25850000Y-88650000D02*
X18800022Y-81600022D01*
X31650000Y-32550000D02*
X31075000Y-32550000D01*
X37800022Y-38700022D02*
X31650000Y-32550000D01*
X36965777Y-77499923D02*
X37800022Y-76665678D01*
X32081477Y-77499923D02*
X36965777Y-77499923D01*
X25150000Y-84431400D02*
X32081477Y-77499923D01*
X25150000Y-85200000D02*
X25150000Y-84431400D01*
X27150000Y-86400000D02*
X26350000Y-86400000D01*
X26350000Y-86400000D02*
X25150000Y-85200000D01*
X37800022Y-76665678D02*
X37800022Y-38700022D01*
X56900022Y-32751897D02*
X51289999Y-27141874D01*
X51289999Y-27141874D02*
X50165000Y-26016875D01*
X56900022Y-72399978D02*
X56900022Y-32751897D01*
X32612244Y-78699956D02*
X41887244Y-78699956D01*
X29800000Y-81512200D02*
X32612244Y-78699956D01*
X29800000Y-83700000D02*
X29800000Y-81512200D01*
X41887244Y-78699956D02*
X47387321Y-73199879D01*
X47387321Y-73199879D02*
X56100121Y-73199879D01*
X56100121Y-73199879D02*
X56900022Y-72399978D01*
X76000000Y-29230000D02*
X70339999Y-23569999D01*
X32050000Y-83700000D02*
X32050000Y-80959300D01*
X70339999Y-23569999D02*
X69215000Y-22445000D01*
X76000000Y-73531400D02*
X76000000Y-29230000D01*
X42384311Y-79899989D02*
X47884388Y-74399912D01*
X32050000Y-80959300D02*
X33109311Y-79899989D01*
X75131488Y-74399912D02*
X76000000Y-73531400D01*
X47884388Y-74399912D02*
X75131488Y-74399912D01*
X33109311Y-79899989D02*
X42384311Y-79899989D01*
X39105800Y-84900000D02*
X48405855Y-75599945D01*
X89389999Y-28332498D02*
X88265000Y-27207499D01*
X36950000Y-84900000D02*
X39105800Y-84900000D01*
X48405855Y-75599945D02*
X94165755Y-75599945D01*
X94165755Y-75599945D02*
X95000022Y-74765678D01*
X95000022Y-74765678D02*
X95000022Y-33942521D01*
X95000022Y-33942521D02*
X89389999Y-28332498D01*
X36950000Y-87150000D02*
X38552900Y-87150000D01*
X114099978Y-36373728D02*
X108439999Y-30713749D01*
X108439999Y-30713749D02*
X107315000Y-29588750D01*
X114099978Y-76031422D02*
X114099978Y-36373728D01*
X113331422Y-76799978D02*
X114099978Y-76031422D01*
X48902922Y-76799978D02*
X113331422Y-76799978D01*
X38552900Y-87150000D02*
X48902922Y-76799978D01*
X18400011Y-81834311D02*
X18400011Y-57355011D01*
X13189999Y-52144999D02*
X12065000Y-51020000D01*
X25965700Y-89400000D02*
X18400011Y-81834311D01*
X27150000Y-89400000D02*
X25965700Y-89400000D01*
X18400011Y-57355011D02*
X13189999Y-52144999D01*
X37400011Y-76499989D02*
X37400011Y-57305011D01*
X37400011Y-57305011D02*
X32239999Y-52144999D01*
X32239999Y-52144999D02*
X31115000Y-51020000D01*
X26350000Y-87150000D02*
X24749989Y-85549989D01*
X36800088Y-77099912D02*
X37400011Y-76499989D01*
X24749989Y-85549989D02*
X24749989Y-84265711D01*
X31915788Y-77099912D02*
X36800088Y-77099912D01*
X27150000Y-87150000D02*
X26350000Y-87150000D01*
X24749989Y-84265711D02*
X31915788Y-77099912D01*
X55934432Y-72799868D02*
X56500011Y-72234289D01*
X56500011Y-72234289D02*
X56500011Y-51401886D01*
X56500011Y-51401886D02*
X51289999Y-46191874D01*
X32412855Y-78299945D02*
X41721555Y-78299945D01*
X47221632Y-72799868D02*
X55934432Y-72799868D01*
X41721555Y-78299945D02*
X47221632Y-72799868D01*
X51289999Y-46191874D02*
X50165000Y-45066875D01*
X29050000Y-81662800D02*
X32412855Y-78299945D01*
X29050000Y-83700000D02*
X29050000Y-81662800D01*
X32943622Y-79499978D02*
X42218622Y-79499978D01*
X74965799Y-73999901D02*
X75599989Y-73365711D01*
X31300000Y-83700000D02*
X31300000Y-81143600D01*
X47718699Y-73999901D02*
X74965799Y-73999901D01*
X75599989Y-73365711D02*
X75599989Y-47879989D01*
X42218622Y-79499978D02*
X47718699Y-73999901D01*
X70339999Y-42619999D02*
X69215000Y-41495000D01*
X75599989Y-47879989D02*
X70339999Y-42619999D01*
X31300000Y-81143600D02*
X32943622Y-79499978D01*
X94600011Y-74599989D02*
X94000066Y-75199934D01*
X88265000Y-46257500D02*
X94600011Y-52592511D01*
X48240166Y-75199934D02*
X39290100Y-84150000D01*
X37750000Y-84150000D02*
X36950000Y-84150000D01*
X94000066Y-75199934D02*
X48240166Y-75199934D01*
X39290100Y-84150000D02*
X37750000Y-84150000D01*
X94600011Y-52592511D02*
X94600011Y-74599989D01*
X48737233Y-76399967D02*
X113165733Y-76399967D01*
X36950000Y-86400000D02*
X38737200Y-86400000D01*
X113699967Y-55023717D02*
X108439999Y-49763749D01*
X113165733Y-76399967D02*
X113699967Y-75865733D01*
X38737200Y-86400000D02*
X48737233Y-76399967D01*
X113699967Y-75865733D02*
X113699967Y-55023717D01*
X108439999Y-49763749D02*
X107315000Y-48638750D01*
X38368600Y-87900000D02*
X36950000Y-87900000D01*
X116836250Y-39113750D02*
X114499989Y-41450011D01*
X126365000Y-39113750D02*
X116836250Y-39113750D01*
X114499989Y-41450011D02*
X114499989Y-76197111D01*
X114499989Y-76197111D02*
X113497111Y-77199989D01*
X113497111Y-77199989D02*
X49068611Y-77199989D01*
X49068611Y-77199989D02*
X38368600Y-87900000D01*
X12070000Y-70070000D02*
X12065000Y-70070000D01*
X18000000Y-76000000D02*
X12070000Y-70070000D01*
X18000000Y-82000000D02*
X18000000Y-76000000D01*
X26150000Y-90150000D02*
X18000000Y-82000000D01*
X27150000Y-90150000D02*
X26150000Y-90150000D01*
X32239999Y-71194999D02*
X31115000Y-70070000D01*
X37000000Y-75955000D02*
X32239999Y-71194999D01*
X37000000Y-76334300D02*
X37000000Y-75955000D01*
X26350000Y-87900000D02*
X24349978Y-85899978D01*
X27150000Y-87900000D02*
X26350000Y-87900000D01*
X24349978Y-85899978D02*
X24349978Y-84100022D01*
X24349978Y-84100022D02*
X31750099Y-76699901D01*
X31750099Y-76699901D02*
X36634399Y-76699901D01*
X36634399Y-76699901D02*
X37000000Y-76334300D01*
X28300000Y-81847100D02*
X32247166Y-77899934D01*
X32247166Y-77899934D02*
X41555866Y-77899934D01*
X55768743Y-72399857D02*
X56100000Y-72068600D01*
X56100000Y-72068600D02*
X56100000Y-70051875D01*
X56100000Y-70051875D02*
X51289999Y-65241874D01*
X51289999Y-65241874D02*
X50165000Y-64116875D01*
X41555866Y-77899934D02*
X47055943Y-72399857D01*
X28300000Y-83700000D02*
X28300000Y-81847100D01*
X47055943Y-72399857D02*
X55768743Y-72399857D01*
X75199978Y-66529978D02*
X70339999Y-61669999D01*
X30550000Y-83700000D02*
X30550000Y-81327900D01*
X70339999Y-61669999D02*
X69215000Y-60545000D01*
X75199978Y-73200022D02*
X75199978Y-66529978D01*
X74800110Y-73599890D02*
X75199978Y-73200022D01*
X47553010Y-73599890D02*
X74800110Y-73599890D01*
X42052933Y-79099967D02*
X47553010Y-73599890D01*
X32777933Y-79099967D02*
X42052933Y-79099967D01*
X30550000Y-81327900D02*
X32777933Y-79099967D01*
X89389999Y-66432499D02*
X88265000Y-65307500D01*
X94200000Y-71242500D02*
X89389999Y-66432499D01*
X94200000Y-74434300D02*
X94200000Y-71242500D01*
X93834377Y-74799923D02*
X94200000Y-74434300D01*
X48050077Y-74799923D02*
X93834377Y-74799923D01*
X42550000Y-80300000D02*
X48050077Y-74799923D01*
X33275000Y-80300000D02*
X42550000Y-80300000D01*
X32800000Y-80775000D02*
X33275000Y-80300000D01*
X32800000Y-83700000D02*
X32800000Y-80775000D01*
X36950000Y-85650000D02*
X38921500Y-85650000D01*
X48571544Y-75999956D02*
X113000044Y-75999956D01*
X113000044Y-75999956D02*
X113299956Y-75700044D01*
X38921500Y-85650000D02*
X48571544Y-75999956D01*
X113299956Y-75700044D02*
X113299956Y-73673706D01*
X108439999Y-68813749D02*
X107315000Y-67688750D01*
X113299956Y-73673706D02*
X108439999Y-68813749D01*
X126363750Y-58163750D02*
X126365000Y-58163750D01*
X38184300Y-88650000D02*
X36950000Y-88650000D01*
X116836250Y-58163750D02*
X114900000Y-60100000D01*
X126365000Y-58163750D02*
X116836250Y-58163750D01*
X114900000Y-60100000D02*
X114900000Y-76362800D01*
X114900000Y-76362800D02*
X113662800Y-77600000D01*
X113662800Y-77600000D02*
X49234300Y-77600000D01*
X49234300Y-77600000D02*
X38184300Y-88650000D01*
X38000000Y-89400000D02*
X36950000Y-89400000D01*
X46000000Y-81400000D02*
X38000000Y-89400000D01*
X50779375Y-81400000D02*
X46000000Y-81400000D01*
X52546250Y-83166875D02*
X50779375Y-81400000D01*
X36950000Y-90150000D02*
X45881400Y-90150000D01*
X45881400Y-90150000D02*
X48331378Y-92599978D01*
X48331378Y-92599978D02*
X61000022Y-92599978D01*
X70800000Y-82800000D02*
X75859196Y-82800000D01*
X75859196Y-82800000D02*
X77662314Y-84603118D01*
X61000022Y-92599978D02*
X70800000Y-82800000D01*
X36950000Y-90900000D02*
X46065700Y-90900000D01*
X91504291Y-87495709D02*
X99746542Y-87495709D01*
X86000011Y-92999989D02*
X91504291Y-87495709D01*
X48165689Y-92999989D02*
X86000011Y-92999989D01*
X46065700Y-90900000D02*
X48165689Y-92999989D01*
X99746542Y-87495709D02*
X100871541Y-88620708D01*
X114047345Y-92150924D02*
X115172344Y-91025925D01*
X108198269Y-98000000D02*
X114047345Y-92150924D01*
X93800000Y-98000000D02*
X108198269Y-98000000D01*
X36950000Y-91650000D02*
X46250000Y-91650000D01*
X89200000Y-93400000D02*
X93800000Y-98000000D01*
X46250000Y-91650000D02*
X48000000Y-93400000D01*
X48000000Y-93400000D02*
X89200000Y-93400000D01*
X268824010Y-31970000D02*
X270415000Y-31970000D01*
X258550033Y-82512767D02*
X258550033Y-34349967D01*
X258550033Y-34349967D02*
X260930000Y-31970000D01*
X250250000Y-87150000D02*
X253912800Y-87150000D01*
X260930000Y-31970000D02*
X268824010Y-31970000D01*
X253912800Y-87150000D02*
X258550033Y-82512767D01*
X258150022Y-39375022D02*
X251325000Y-32550000D01*
X258150022Y-82347078D02*
X258150022Y-39375022D01*
X254097100Y-86400000D02*
X258150022Y-82347078D01*
X250250000Y-86400000D02*
X254097100Y-86400000D01*
X250250000Y-84150000D02*
X254650000Y-84150000D01*
X239100000Y-79350000D02*
X239100000Y-33421875D01*
X256900000Y-81900000D02*
X256900000Y-80100000D01*
X256900000Y-80100000D02*
X256450000Y-79650000D01*
X256450000Y-79650000D02*
X239400000Y-79650000D01*
X239100000Y-33421875D02*
X232275000Y-26596875D01*
X254650000Y-84150000D02*
X256900000Y-81900000D01*
X239400000Y-79650000D02*
X239100000Y-79350000D01*
X245350000Y-82950000D02*
X245350000Y-83700000D01*
X236600000Y-80950000D02*
X243350000Y-80950000D01*
X229349979Y-73699979D02*
X236600000Y-80950000D01*
X213825000Y-23025000D02*
X220000000Y-29200000D01*
X243350000Y-80950000D02*
X245350000Y-82950000D01*
X220000000Y-29200000D02*
X220000000Y-73300000D01*
X220000000Y-73300000D02*
X220399904Y-73699904D01*
X223131369Y-73699979D02*
X229349979Y-73699979D01*
X213225000Y-23025000D02*
X213825000Y-23025000D01*
X220399904Y-73699904D02*
X223131296Y-73699906D01*
X223131296Y-73699906D02*
X223131369Y-73699979D01*
X228852912Y-74900012D02*
X236152878Y-82199978D01*
X242399978Y-82199978D02*
X243100000Y-82900000D01*
X201000000Y-33992499D02*
X201000000Y-74500000D01*
X201399927Y-74899927D02*
X222634228Y-74899938D01*
X222634228Y-74899938D02*
X222634302Y-74900012D01*
X243100000Y-82900000D02*
X243100000Y-83700000D01*
X236152878Y-82199978D02*
X242399978Y-82199978D01*
X222634302Y-74900012D02*
X228852912Y-74900012D01*
X194215000Y-27207499D02*
X201000000Y-33992499D01*
X201000000Y-74500000D02*
X201399927Y-74899927D01*
X181900011Y-36323761D02*
X181900011Y-75700011D01*
X175165000Y-29588750D02*
X181900011Y-36323761D01*
X182299956Y-76099956D02*
X183697188Y-76099956D01*
X222137235Y-76100045D02*
X228355845Y-76100045D01*
X238655800Y-86400000D02*
X239650000Y-86400000D01*
X239650000Y-86400000D02*
X240450000Y-86400000D01*
X181900011Y-75700011D02*
X182299956Y-76099956D01*
X202920611Y-76099959D02*
X222137156Y-76099966D01*
X228355845Y-76100045D02*
X238655800Y-86400000D01*
X222137156Y-76099966D02*
X222137235Y-76100045D01*
X183697188Y-76099956D02*
X202920611Y-76099959D01*
X250250000Y-87900000D02*
X253728500Y-87900000D01*
X253728500Y-87900000D02*
X258950044Y-82678456D01*
X258950044Y-52949956D02*
X260880000Y-51020000D01*
X258950044Y-82678456D02*
X258950044Y-52949956D01*
X268824010Y-51020000D02*
X270415000Y-51020000D01*
X260880000Y-51020000D02*
X268824010Y-51020000D01*
X254281400Y-85650000D02*
X257750011Y-82181389D01*
X250250000Y-85650000D02*
X254281400Y-85650000D01*
X257750011Y-58025011D02*
X251325000Y-51600000D01*
X257750011Y-82181389D02*
X257750011Y-58025011D01*
X238699989Y-52071864D02*
X232275000Y-45646875D01*
X238699989Y-79515689D02*
X238699989Y-52071864D01*
X247600000Y-82850000D02*
X247430000Y-82680000D01*
X247600000Y-83700000D02*
X247600000Y-82850000D01*
X247430000Y-82680000D02*
X246350000Y-82680000D01*
X246350000Y-82680000D02*
X243720011Y-80050011D01*
X243720011Y-80050011D02*
X239234311Y-80050011D01*
X239234311Y-80050011D02*
X238699989Y-79515689D01*
X220234219Y-74099915D02*
X222965606Y-74099916D01*
X244600000Y-82900000D02*
X244600000Y-83700000D01*
X222965680Y-74099990D02*
X229184290Y-74099990D01*
X236434311Y-81350011D02*
X243050011Y-81350011D01*
X222965606Y-74099916D02*
X222965680Y-74099990D01*
X243050011Y-81350011D02*
X244600000Y-82900000D01*
X229184290Y-74099990D02*
X236434311Y-81350011D01*
X220234214Y-74099914D02*
X220234219Y-74099915D01*
X219599989Y-73465689D02*
X220234214Y-74099914D01*
X219599989Y-47829989D02*
X219599989Y-73465689D01*
X213265000Y-41495000D02*
X219599989Y-47829989D01*
X203251988Y-75299938D02*
X222468537Y-75299947D01*
X194215000Y-46257500D02*
X200599989Y-52642489D01*
X228687223Y-75300023D02*
X235987189Y-82599989D01*
X242049989Y-82599989D02*
X242350000Y-82900000D01*
X200599989Y-74734219D02*
X201165709Y-75299938D01*
X222468613Y-75300023D02*
X228687223Y-75300023D01*
X222468537Y-75299947D02*
X222468613Y-75300023D01*
X201165709Y-75299938D02*
X203251988Y-75299938D01*
X235987189Y-82599989D02*
X242049989Y-82599989D01*
X242350000Y-82900000D02*
X242350000Y-83700000D01*
X200599989Y-52642489D02*
X200599989Y-74734219D01*
X228190156Y-76500056D02*
X238840100Y-87150000D01*
X239650000Y-87150000D02*
X240450000Y-87150000D01*
X175125000Y-49218750D02*
X181500000Y-55593750D01*
X186809014Y-76499967D02*
X202754923Y-76499969D01*
X181500000Y-55593750D02*
X181500000Y-75865700D01*
X202754923Y-76499969D02*
X221971466Y-76499976D01*
X221971466Y-76499976D02*
X221971546Y-76500056D01*
X221971546Y-76500056D02*
X228190156Y-76500056D01*
X238840100Y-87150000D02*
X239650000Y-87150000D01*
X181500000Y-75865700D02*
X182134267Y-76499967D01*
X182134267Y-76499967D02*
X186809014Y-76499967D01*
X221640086Y-77299996D02*
X221065904Y-77299996D01*
X162900000Y-46518750D02*
X156075000Y-39693750D01*
X190266696Y-77299990D02*
X163499989Y-77299989D01*
X163499989Y-77299989D02*
X162900000Y-76700000D01*
X239208700Y-88650000D02*
X227858778Y-77300078D01*
X162900000Y-76700000D02*
X162900000Y-46518750D01*
X227858778Y-77300078D02*
X221640168Y-77300078D01*
X240450000Y-88650000D02*
X239208700Y-88650000D01*
X221640168Y-77300078D02*
X221640086Y-77299996D01*
X221065904Y-77299996D02*
X190266696Y-77299990D01*
X260830000Y-70070000D02*
X268824010Y-70070000D01*
X268824010Y-70070000D02*
X270415000Y-70070000D01*
X259350055Y-71549945D02*
X260830000Y-70070000D01*
X259350055Y-82928445D02*
X259350055Y-71549945D01*
X253628500Y-88650000D02*
X259350055Y-82928445D01*
X250250000Y-88650000D02*
X253628500Y-88650000D01*
X250250000Y-84900000D02*
X254465700Y-84900000D01*
X254465700Y-84900000D02*
X257350000Y-82015700D01*
X257350000Y-76675000D02*
X251325000Y-70650000D01*
X257350000Y-82015700D02*
X257350000Y-76675000D01*
X243600000Y-80500000D02*
X239100000Y-80500000D01*
X246100000Y-83000000D02*
X243600000Y-80500000D01*
X246100000Y-83700000D02*
X246100000Y-83000000D01*
X239100000Y-80500000D02*
X238299980Y-79699980D01*
X238299980Y-79699980D02*
X238299980Y-70199980D01*
X238299980Y-70199980D02*
X232315000Y-64215000D01*
X232315000Y-64215000D02*
X232315000Y-64116875D01*
X213265000Y-62135990D02*
X213265000Y-60545000D01*
X219999923Y-74499923D02*
X213265000Y-67765000D01*
X222799916Y-74499926D02*
X219999923Y-74499923D01*
X213265000Y-67765000D02*
X213265000Y-62135990D01*
X243850000Y-83700000D02*
X243850000Y-82900000D01*
X243850000Y-82900000D02*
X242700022Y-81750022D01*
X242700022Y-81750022D02*
X236268622Y-81750022D01*
X236268622Y-81750022D02*
X229018601Y-74500001D01*
X229018601Y-74500001D02*
X222799991Y-74500001D01*
X222799991Y-74500001D02*
X222799916Y-74499926D01*
X241200000Y-83000000D02*
X241450000Y-83250000D01*
X235821500Y-83000000D02*
X241200000Y-83000000D01*
X222302924Y-75700034D02*
X228521534Y-75700034D01*
X222302846Y-75699956D02*
X222302924Y-75700034D01*
X201000020Y-75699949D02*
X203086299Y-75699949D01*
X228521534Y-75700034D02*
X235821500Y-83000000D01*
X200199978Y-74899909D02*
X201000020Y-75699949D01*
X200199978Y-71292478D02*
X200199978Y-74899909D01*
X194215000Y-65307500D02*
X200199978Y-71292478D01*
X203086299Y-75699949D02*
X222302846Y-75699956D01*
X221805857Y-76900067D02*
X221805776Y-76899986D01*
X181099989Y-74243739D02*
X175125000Y-68268750D01*
X240450000Y-87900000D02*
X239024400Y-87900000D01*
X221805776Y-76899986D02*
X181968578Y-76899978D01*
X228024467Y-76900067D02*
X221805857Y-76900067D01*
X239024400Y-87900000D02*
X228024467Y-76900067D01*
X181968578Y-76899978D02*
X181099989Y-76031389D01*
X181099989Y-76031389D02*
X181099989Y-74243739D01*
X163334300Y-77700000D02*
X162499989Y-76865689D01*
X221474400Y-77700000D02*
X163334300Y-77700000D01*
X162499989Y-76865689D02*
X162499989Y-64599989D01*
X156643750Y-58743750D02*
X156075000Y-58743750D01*
X162499989Y-64599989D02*
X156643750Y-58743750D01*
X227693089Y-77700089D02*
X221474488Y-77700088D01*
X240450000Y-89400000D02*
X239393000Y-89400000D01*
X239393000Y-89400000D02*
X227693089Y-77700089D01*
X239550000Y-90150000D02*
X240450000Y-90150000D01*
X229933750Y-83166875D02*
X232566875Y-83166875D01*
X232566875Y-83166875D02*
X239550000Y-90150000D01*
X237168318Y-95400282D02*
X216203009Y-95400282D01*
X216203009Y-95400282D02*
X205985027Y-85182300D01*
X205985027Y-85182300D02*
X204860028Y-84057301D01*
X239418600Y-93150000D02*
X237168318Y-95400282D01*
X240450000Y-93150000D02*
X239418600Y-93150000D01*
X239050000Y-94650000D02*
X240450000Y-94650000D01*
X237499697Y-96200303D02*
X239050000Y-94650000D01*
X164350420Y-95641147D02*
X164909576Y-96200303D01*
X164909576Y-96200303D02*
X237499697Y-96200303D01*
X237334009Y-95800293D02*
X239234302Y-93900000D01*
X193000292Y-95800292D02*
X237334009Y-95800293D01*
X184591745Y-87391745D02*
X193000292Y-95800292D01*
X239234302Y-93900000D02*
X240450000Y-93900000D01*
X181457560Y-87391745D02*
X184591745Y-87391745D01*
X249700000Y-91751155D02*
X249701155Y-91750000D01*
D26*
X12500000Y-92250000D02*
X13500000Y-93250000D01*
X12500000Y-85300000D02*
X12500000Y-92250000D01*
X264570710Y-94579290D02*
X263900000Y-95250000D01*
X265750000Y-93400000D02*
X264570710Y-94579290D01*
X262900000Y-85300000D02*
X265750000Y-88150000D01*
X265750000Y-88150000D02*
X265750000Y-93400000D01*
D25*
X17100000Y-90546448D02*
X17100000Y-90900001D01*
X17100000Y-89400000D02*
X17100000Y-90546448D01*
X20100000Y-86400000D02*
X17100000Y-89400000D01*
X21800000Y-86400000D02*
X20100000Y-86400000D01*
X27150000Y-90900000D02*
X26300000Y-90900000D01*
X26300000Y-90900000D02*
X21800000Y-86400000D01*
X240450000Y-90900000D02*
X244300000Y-90900000D01*
X252099976Y-90900000D02*
X253189976Y-91990000D01*
X258536449Y-91990000D02*
X258890002Y-91990000D01*
X253189976Y-91990000D02*
X258536449Y-91990000D01*
X5475000Y-85325000D02*
X5275000Y-85325000D01*
X5475000Y-85325000D02*
X7375000Y-85325000D01*
X3225000Y-85325000D02*
X5475000Y-85325000D01*
X19050001Y-85550001D02*
X19300000Y-85800000D01*
X17400000Y-83900000D02*
X19050001Y-85550001D01*
X9625000Y-83900000D02*
X17400000Y-83900000D01*
X8200000Y-85325000D02*
X9625000Y-83900000D01*
X7375000Y-85325000D02*
X8200000Y-85325000D01*
X29253553Y-85800010D02*
X28900000Y-85800010D01*
X33550000Y-83700000D02*
X33550000Y-84500000D01*
X32249990Y-85800010D02*
X29253553Y-85800010D01*
X33550000Y-84500000D02*
X32249990Y-85800010D01*
X270025000Y-85325000D02*
X272175000Y-85325000D01*
X272175000Y-85325000D02*
X274175000Y-85325000D01*
X246850000Y-83700000D02*
X246850000Y-85099996D01*
X269200000Y-85325000D02*
X267875000Y-84000000D01*
X267875000Y-84000000D02*
X259410000Y-84000000D01*
X259410000Y-84000000D02*
X258529999Y-84880001D01*
X270025000Y-85325000D02*
X269200000Y-85325000D01*
X258529999Y-84880001D02*
X258280000Y-85130000D01*
X34300000Y-83700000D02*
X34300000Y-85700000D01*
X247150000Y-90150000D02*
X250250000Y-90150000D01*
X242750000Y-85750000D02*
X247150000Y-90150000D01*
M02*
