M48
; DRILL file {KiCad (5.1.4)-1} date 07/05/20 23:15:45
; FORMAT={-:-/ absolute / metric / decimal}
; #@! TF.CreationDate,2020-07-05T23:15:45+09:00
; #@! TF.GenerationSoftware,Kicad,Pcbnew,(5.1.4)-1
; #@! TF.FileFunction,Plated,1,2,PTH
FMAT,2
METRIC
T1C1.000
%
G90
G05
T1
G00X41.125Y-25.647
M15
G01X41.125Y-38.647
M16
G05
G00X41.125Y-25.647
M15
G01X54.125Y-25.647
M16
G05
G00X41.125Y-38.647
M15
G01X54.125Y-38.647
M16
G05
G00X54.125Y-25.647
M15
G01X54.125Y-38.647
M16
G05
G00X98.275Y-48.269
M15
G01X98.275Y-61.269
M16
G05
G00X98.275Y-48.269
M15
G01X111.275Y-48.269
M16
G05
G00X98.275Y-61.269
M15
G01X111.275Y-61.269
M16
G05
G00X111.275Y-48.269
M15
G01X111.275Y-61.269
M16
G05
G00X43.506Y-63.747
M15
G01X43.506Y-76.747
M16
G05
G00X43.506Y-63.747
M15
G01X56.506Y-63.747
M16
G05
G00X43.506Y-76.747
M15
G01X56.506Y-76.747
M16
G05
G00X56.506Y-63.747
M15
G01X56.506Y-76.747
M16
G05
G00X3.025Y-50.65
M15
G01X3.025Y-63.65
M16
G05
G00X3.025Y-50.65
M15
G01X16.025Y-50.65
M16
G05
G00X3.025Y-63.65
M15
G01X16.025Y-63.65
M16
G05
G00X16.025Y-50.65
M15
G01X16.025Y-63.65
M16
G05
G00X22.075Y-12.55
M15
G01X22.075Y-25.55
M16
G05
G00X22.075Y-12.55
M15
G01X35.075Y-12.55
M16
G05
G00X22.075Y-25.55
M15
G01X35.075Y-25.55
M16
G05
G00X35.075Y-12.55
M15
G01X35.075Y-25.55
M16
G05
G00X110.105Y-80.645
M15
G01X115.537Y-68.835
M16
G05
G00X110.105Y-80.645
M15
G01X121.915Y-86.078
M16
G05
G00X115.537Y-68.835
M15
G01X127.348Y-74.267
M16
G05
G00X121.915Y-86.078
M15
G01X127.348Y-74.267
M16
G05
G00X60.175Y-3.025
M15
G01X60.175Y-16.025
M16
G05
G00X60.175Y-3.025
M15
G01X73.175Y-3.025
M16
G05
G00X60.175Y-16.025
M15
G01X73.175Y-16.025
M16
G05
G00X73.175Y-3.025
M15
G01X73.175Y-16.025
M16
G05
G00X79.225Y-45.887
M15
G01X79.225Y-58.887
M16
G05
G00X79.225Y-45.887
M15
G01X92.225Y-45.887
M16
G05
G00X79.225Y-58.887
M15
G01X92.225Y-58.887
M16
G05
G00X92.225Y-45.887
M15
G01X92.225Y-58.887
M16
G05
G00X98.275Y-10.169
M15
G01X98.275Y-23.169
M16
G05
G00X98.275Y-10.169
M15
G01X111.275Y-10.169
M16
G05
G00X98.275Y-23.169
M15
G01X111.275Y-23.169
M16
G05
G00X111.275Y-10.169
M15
G01X111.275Y-23.169
M16
G05
G00X60.175Y-22.075
M15
G01X60.175Y-35.075
M16
G05
G00X60.175Y-22.075
M15
G01X73.175Y-22.075
M16
G05
G00X60.175Y-35.075
M15
G01X73.175Y-35.075
M16
G05
G00X73.175Y-22.075
M15
G01X73.175Y-35.075
M16
G05
G00X60.175Y-41.125
M15
G01X60.175Y-54.125
M16
G05
G00X60.175Y-41.125
M15
G01X73.175Y-41.125
M16
G05
G00X60.175Y-54.125
M15
G01X73.175Y-54.125
M16
G05
G00X73.175Y-41.125
M15
G01X73.175Y-54.125
M16
G05
G00X68.722Y-64.291
M15
G01X67.566Y-77.239
M16
G05
G00X67.566Y-77.239
M15
G01X80.515Y-78.395
M16
G05
G00X68.722Y-64.291
M15
G01X81.67Y-65.447
M16
G05
G00X81.67Y-65.447
M15
G01X80.515Y-78.395
M16
G05
G00X3.025Y-12.55
M15
G01X3.025Y-25.55
M16
G05
G00X3.025Y-12.55
M15
G01X16.025Y-12.55
M16
G05
G00X3.025Y-25.55
M15
G01X16.025Y-25.55
M16
G05
G00X16.025Y-12.55
M15
G01X16.025Y-25.55
M16
G05
G00X22.075Y-50.65
M15
G01X22.075Y-63.65
M16
G05
G00X22.075Y-50.65
M15
G01X35.075Y-50.65
M16
G05
G00X22.075Y-63.65
M15
G01X35.075Y-63.65
M16
G05
G00X35.075Y-50.65
M15
G01X35.075Y-63.65
M16
G05
G00X41.125Y-6.597
M15
G01X41.125Y-19.597
M16
G05
G00X41.125Y-6.597
M15
G01X54.125Y-6.597
M16
G05
G00X41.125Y-19.597
M15
G01X54.125Y-19.597
M16
G05
G00X54.125Y-6.597
M15
G01X54.125Y-19.597
M16
G05
G00X98.275Y-29.219
M15
G01X98.275Y-42.219
M16
G05
G00X98.275Y-29.219
M15
G01X111.275Y-29.219
M16
G05
G00X98.275Y-42.219
M15
G01X111.275Y-42.219
M16
G05
G00X111.275Y-29.219
M15
G01X111.275Y-42.219
M16
G05
G00X22.075Y-31.6
M15
G01X22.075Y-44.6
M16
G05
G00X22.075Y-31.6
M15
G01X35.075Y-31.6
M16
G05
G00X22.075Y-44.6
M15
G01X35.075Y-44.6
M16
G05
G00X35.075Y-31.6
M15
G01X35.075Y-44.6
M16
G05
G00X3.025Y-31.6
M15
G01X3.025Y-44.6
M16
G05
G00X3.025Y-31.6
M15
G01X16.025Y-31.6
M16
G05
G00X3.025Y-44.6
M15
G01X16.025Y-44.6
M16
G05
G00X16.025Y-31.6
M15
G01X16.025Y-44.6
M16
G05
G00X79.225Y-7.787
M15
G01X79.225Y-20.787
M16
G05
G00X79.225Y-7.787
M15
G01X92.225Y-7.787
M16
G05
G00X79.225Y-20.787
M15
G01X92.225Y-20.787
M16
G05
G00X92.225Y-7.787
M15
G01X92.225Y-20.787
M16
G05
G00X79.225Y-26.837
M15
G01X79.225Y-39.837
M16
G05
G00X79.225Y-26.837
M15
G01X92.225Y-26.837
M16
G05
G00X79.225Y-39.837
M15
G01X92.225Y-39.837
M16
G05
G00X92.225Y-26.837
M15
G01X92.225Y-39.837
M16
G05
G00X117.325Y-19.694
M15
G01X117.325Y-32.694
M16
G05
G00X117.325Y-19.694
M15
G01X130.325Y-19.694
M16
G05
G00X117.325Y-32.694
M15
G01X130.325Y-32.694
M16
G05
G00X130.325Y-19.694
M15
G01X130.325Y-32.694
M16
G05
G00X92.444Y-67.056
M15
G01X89.299Y-79.67
M16
G05
G00X89.299Y-79.67
M15
G01X101.912Y-82.815
M16
G05
G00X92.444Y-67.056
M15
G01X105.057Y-70.201
M16
G05
G00X105.057Y-70.201
M15
G01X101.912Y-82.815
M16
G05
G00X117.325Y-38.744
M15
G01X117.325Y-51.744
M16
G05
G00X117.325Y-38.744
M15
G01X130.325Y-38.744
M16
G05
G00X117.325Y-51.744
M15
G01X130.325Y-51.744
M16
G05
G00X130.325Y-38.744
M15
G01X130.325Y-51.744
M16
G05
G00X41.125Y-44.697
M15
G01X41.125Y-57.697
M16
G05
G00X41.125Y-44.697
M15
G01X54.125Y-44.697
M16
G05
G00X41.125Y-57.697
M15
G01X54.125Y-57.697
M16
G05
G00X54.125Y-44.697
M15
G01X54.125Y-57.697
M16
G05
T0
M30
