G04 #@! TF.GenerationSoftware,KiCad,Pcbnew,(5.1.4)-1*
G04 #@! TF.CreationDate,2020-07-05T23:15:41+09:00*
G04 #@! TF.ProjectId,pcb-plate,7063622d-706c-4617-9465-2e6b69636164,rev?*
G04 #@! TF.SameCoordinates,PX2faf080PY2faf080*
G04 #@! TF.FileFunction,Legend,Top*
G04 #@! TF.FilePolarity,Positive*
%FSLAX46Y46*%
G04 Gerber Fmt 4.6, Leading zero omitted, Abs format (unit mm)*
G04 Created by KiCad (PCBNEW (5.1.4)-1) date 2020-07-05 23:15:41*
%MOMM*%
%LPD*%
G04 APERTURE LIST*
%ADD10C,0.100000*%
%ADD11C,2.400000*%
%ADD12C,2.400000*%
%ADD13O,15.400000X2.400000*%
%ADD14O,2.400000X15.400000*%
G04 APERTURE END LIST*
%LPC*%
D10*
G36*
X110734772Y-80412414D02*
G01*
X121682296Y-85447712D01*
X126717594Y-74500188D01*
X115770070Y-69464890D01*
X110734772Y-80412414D01*
G37*
X110734772Y-80412414D02*
X121682296Y-85447712D01*
X126717594Y-74500188D01*
X115770070Y-69464890D01*
X110734772Y-80412414D01*
G36*
X92789575Y-67631718D02*
G01*
X89874416Y-79323781D01*
X101566479Y-82238940D01*
X104481638Y-70546877D01*
X92789575Y-67631718D01*
G37*
X92789575Y-67631718D02*
X89874416Y-79323781D01*
X101566479Y-82238940D01*
X104481638Y-70546877D01*
X92789575Y-67631718D01*
G36*
X69152773Y-64806245D02*
G01*
X68081596Y-76808540D01*
X80083891Y-77879717D01*
X81155068Y-65877422D01*
X69152773Y-64806245D01*
G37*
X69152773Y-64806245D02*
X68081596Y-76808540D01*
X80083891Y-77879717D01*
X81155068Y-65877422D01*
X69152773Y-64806245D01*
G36*
X43981250Y-64221875D02*
G01*
X43981250Y-76271875D01*
X56031250Y-76271875D01*
X56031250Y-64221875D01*
X43981250Y-64221875D01*
G37*
X43981250Y-64221875D02*
X43981250Y-76271875D01*
X56031250Y-76271875D01*
X56031250Y-64221875D01*
X43981250Y-64221875D01*
G36*
X117800000Y-39218750D02*
G01*
X117800000Y-51268750D01*
X129850000Y-51268750D01*
X129850000Y-39218750D01*
X117800000Y-39218750D01*
G37*
X117800000Y-39218750D02*
X117800000Y-51268750D01*
X129850000Y-51268750D01*
X129850000Y-39218750D01*
X117800000Y-39218750D01*
G36*
X98750000Y-48743750D02*
G01*
X98750000Y-60793750D01*
X110800000Y-60793750D01*
X110800000Y-48743750D01*
X98750000Y-48743750D01*
G37*
X98750000Y-48743750D02*
X98750000Y-60793750D01*
X110800000Y-60793750D01*
X110800000Y-48743750D01*
X98750000Y-48743750D01*
G36*
X79700000Y-46362500D02*
G01*
X79700000Y-58412500D01*
X91750000Y-58412500D01*
X91750000Y-46362500D01*
X79700000Y-46362500D01*
G37*
X79700000Y-46362500D02*
X79700000Y-58412500D01*
X91750000Y-58412500D01*
X91750000Y-46362500D01*
X79700000Y-46362500D01*
G36*
X60650000Y-41600000D02*
G01*
X60650000Y-53650000D01*
X72700000Y-53650000D01*
X72700000Y-41600000D01*
X60650000Y-41600000D01*
G37*
X60650000Y-41600000D02*
X60650000Y-53650000D01*
X72700000Y-53650000D01*
X72700000Y-41600000D01*
X60650000Y-41600000D01*
G36*
X41600000Y-45171875D02*
G01*
X41600000Y-57221875D01*
X53650000Y-57221875D01*
X53650000Y-45171875D01*
X41600000Y-45171875D01*
G37*
X41600000Y-45171875D02*
X41600000Y-57221875D01*
X53650000Y-57221875D01*
X53650000Y-45171875D01*
X41600000Y-45171875D01*
G36*
X22550000Y-51125000D02*
G01*
X22550000Y-63175000D01*
X34600000Y-63175000D01*
X34600000Y-51125000D01*
X22550000Y-51125000D01*
G37*
X22550000Y-51125000D02*
X22550000Y-63175000D01*
X34600000Y-63175000D01*
X34600000Y-51125000D01*
X22550000Y-51125000D01*
G36*
X3500000Y-51125000D02*
G01*
X3500000Y-63175000D01*
X15550000Y-63175000D01*
X15550000Y-51125000D01*
X3500000Y-51125000D01*
G37*
X3500000Y-51125000D02*
X3500000Y-63175000D01*
X15550000Y-63175000D01*
X15550000Y-51125000D01*
X3500000Y-51125000D01*
G36*
X117800000Y-20168750D02*
G01*
X117800000Y-32218750D01*
X129850000Y-32218750D01*
X129850000Y-20168750D01*
X117800000Y-20168750D01*
G37*
X117800000Y-20168750D02*
X117800000Y-32218750D01*
X129850000Y-32218750D01*
X129850000Y-20168750D01*
X117800000Y-20168750D01*
G36*
X98750000Y-29693750D02*
G01*
X98750000Y-41743750D01*
X110800000Y-41743750D01*
X110800000Y-29693750D01*
X98750000Y-29693750D01*
G37*
X98750000Y-29693750D02*
X98750000Y-41743750D01*
X110800000Y-41743750D01*
X110800000Y-29693750D01*
X98750000Y-29693750D01*
G36*
X79700000Y-27312500D02*
G01*
X79700000Y-39362500D01*
X91750000Y-39362500D01*
X91750000Y-27312500D01*
X79700000Y-27312500D01*
G37*
X79700000Y-27312500D02*
X79700000Y-39362500D01*
X91750000Y-39362500D01*
X91750000Y-27312500D01*
X79700000Y-27312500D01*
G36*
X60650000Y-22550000D02*
G01*
X60650000Y-34600000D01*
X72700000Y-34600000D01*
X72700000Y-22550000D01*
X60650000Y-22550000D01*
G37*
X60650000Y-22550000D02*
X60650000Y-34600000D01*
X72700000Y-34600000D01*
X72700000Y-22550000D01*
X60650000Y-22550000D01*
G36*
X41600000Y-26121875D02*
G01*
X41600000Y-38171875D01*
X53650000Y-38171875D01*
X53650000Y-26121875D01*
X41600000Y-26121875D01*
G37*
X41600000Y-26121875D02*
X41600000Y-38171875D01*
X53650000Y-38171875D01*
X53650000Y-26121875D01*
X41600000Y-26121875D01*
G36*
X22550000Y-32075000D02*
G01*
X22550000Y-44125000D01*
X34600000Y-44125000D01*
X34600000Y-32075000D01*
X22550000Y-32075000D01*
G37*
X22550000Y-32075000D02*
X22550000Y-44125000D01*
X34600000Y-44125000D01*
X34600000Y-32075000D01*
X22550000Y-32075000D01*
G36*
X3500000Y-32075000D02*
G01*
X3500000Y-44125000D01*
X15550000Y-44125000D01*
X15550000Y-32075000D01*
X3500000Y-32075000D01*
G37*
X3500000Y-32075000D02*
X3500000Y-44125000D01*
X15550000Y-44125000D01*
X15550000Y-32075000D01*
X3500000Y-32075000D01*
G36*
X98750000Y-10643750D02*
G01*
X98750000Y-22693750D01*
X110800000Y-22693750D01*
X110800000Y-10643750D01*
X98750000Y-10643750D01*
G37*
X98750000Y-10643750D02*
X98750000Y-22693750D01*
X110800000Y-22693750D01*
X110800000Y-10643750D01*
X98750000Y-10643750D01*
G36*
X79700000Y-8262499D02*
G01*
X79700000Y-20312499D01*
X91750000Y-20312499D01*
X91750000Y-8262499D01*
X79700000Y-8262499D01*
G37*
X79700000Y-8262499D02*
X79700000Y-20312499D01*
X91750000Y-20312499D01*
X91750000Y-8262499D01*
X79700000Y-8262499D01*
G36*
X60650000Y-3500000D02*
G01*
X60650000Y-15550000D01*
X72700000Y-15550000D01*
X72700000Y-3500000D01*
X60650000Y-3500000D01*
G37*
X60650000Y-3500000D02*
X60650000Y-15550000D01*
X72700000Y-15550000D01*
X72700000Y-3500000D01*
X60650000Y-3500000D01*
G36*
X41600000Y-7071875D02*
G01*
X41600000Y-19121875D01*
X53650000Y-19121875D01*
X53650000Y-7071875D01*
X41600000Y-7071875D01*
G37*
X41600000Y-7071875D02*
X41600000Y-19121875D01*
X53650000Y-19121875D01*
X53650000Y-7071875D01*
X41600000Y-7071875D01*
G36*
X22550000Y-13025000D02*
G01*
X22550000Y-25075000D01*
X34600000Y-25075000D01*
X34600000Y-13025000D01*
X22550000Y-13025000D01*
G37*
X22550000Y-13025000D02*
X22550000Y-25075000D01*
X34600000Y-25075000D01*
X34600000Y-13025000D01*
X22550000Y-13025000D01*
G36*
X3500000Y-13025000D02*
G01*
X3500000Y-25075000D01*
X15550000Y-25075000D01*
X15550000Y-13025000D01*
X3500000Y-13025000D01*
G37*
X3500000Y-13025000D02*
X3500000Y-25075000D01*
X15550000Y-25075000D01*
X15550000Y-13025000D01*
X3500000Y-13025000D01*
D11*
X112820880Y-74740165D03*
D12*
X110104744Y-80645468D02*
X115537016Y-68834862D01*
D11*
X124631486Y-80172437D03*
D12*
X121915350Y-86077740D02*
X127347622Y-74267134D01*
D11*
X121442319Y-71550998D03*
D12*
X115537016Y-68834862D02*
X127347622Y-74267134D01*
D11*
X116010047Y-83361604D03*
D12*
X110104744Y-80645468D02*
X121915350Y-86077740D01*
D11*
X98750519Y-68628407D03*
D12*
X92443597Y-67055915D02*
X105057441Y-70200899D01*
D11*
X95605535Y-81242251D03*
D12*
X89298613Y-79669759D02*
X101912457Y-82814743D01*
D11*
X103484949Y-76507821D03*
D12*
X105057441Y-70200899D02*
X101912457Y-82814743D01*
D11*
X90871105Y-73362837D03*
D12*
X92443597Y-67055915D02*
X89298613Y-79669759D01*
D11*
X75196145Y-64868714D03*
D12*
X68721878Y-64290901D02*
X81670412Y-65446527D01*
D11*
X74040519Y-77817248D03*
D12*
X67566252Y-77239435D02*
X80514786Y-78395061D01*
D11*
X81092599Y-71920794D03*
D12*
X81670412Y-65446527D02*
X80514786Y-78395061D01*
D11*
X68144065Y-70765168D03*
D12*
X68721878Y-64290901D02*
X67566252Y-77239435D01*
D13*
X50006250Y-63746875D03*
X50006250Y-76746875D03*
D14*
X56506250Y-70246875D03*
X43506250Y-70246875D03*
D13*
X123825000Y-38743750D03*
X123825000Y-51743750D03*
D14*
X130325000Y-45243750D03*
X117325000Y-45243750D03*
D13*
X104775000Y-48268750D03*
X104775000Y-61268750D03*
D14*
X111275000Y-54768750D03*
X98275000Y-54768750D03*
D13*
X85725000Y-45887500D03*
X85725000Y-58887500D03*
D14*
X92225000Y-52387500D03*
X79225000Y-52387500D03*
D13*
X66675000Y-41125000D03*
X66675000Y-54125000D03*
D14*
X73175000Y-47625000D03*
X60175000Y-47625000D03*
D13*
X47625000Y-44696875D03*
X47625000Y-57696875D03*
D14*
X54125000Y-51196875D03*
X41125000Y-51196875D03*
D13*
X28575000Y-50650000D03*
X28575000Y-63650000D03*
D14*
X35075000Y-57150000D03*
X22075000Y-57150000D03*
D13*
X9525000Y-50650000D03*
X9525000Y-63650000D03*
D14*
X16025000Y-57150000D03*
X3025000Y-57150000D03*
D13*
X123825000Y-19693750D03*
X123825000Y-32693750D03*
D14*
X130325000Y-26193750D03*
X117325000Y-26193750D03*
D13*
X104775000Y-29218750D03*
X104775000Y-42218750D03*
D14*
X111275000Y-35718750D03*
X98275000Y-35718750D03*
D13*
X85725000Y-26837500D03*
X85725000Y-39837500D03*
D14*
X92225000Y-33337500D03*
X79225000Y-33337500D03*
D13*
X66675000Y-22075000D03*
X66675000Y-35075000D03*
D14*
X73175000Y-28575000D03*
X60175000Y-28575000D03*
D13*
X47625000Y-25646875D03*
X47625000Y-38646875D03*
D14*
X54125000Y-32146875D03*
X41125000Y-32146875D03*
D13*
X28575000Y-31600000D03*
X28575000Y-44600000D03*
D14*
X35075000Y-38100000D03*
X22075000Y-38100000D03*
D13*
X9525000Y-31600000D03*
X9525000Y-44600000D03*
D14*
X16025000Y-38100000D03*
X3025000Y-38100000D03*
D13*
X104775000Y-10168750D03*
X104775000Y-23168750D03*
D14*
X111275000Y-16668750D03*
X98275000Y-16668750D03*
D13*
X85725000Y-7787499D03*
X85725000Y-20787499D03*
D14*
X92225000Y-14287499D03*
X79225000Y-14287499D03*
D13*
X66675000Y-3025000D03*
X66675000Y-16025000D03*
D14*
X73175000Y-9525000D03*
X60175000Y-9525000D03*
D13*
X47625000Y-6596875D03*
X47625000Y-19596875D03*
D14*
X54125000Y-13096875D03*
X41125000Y-13096875D03*
D13*
X28575000Y-12550000D03*
X28575000Y-25550000D03*
D14*
X35075000Y-19050000D03*
X22075000Y-19050000D03*
D13*
X9525000Y-12550000D03*
X9525000Y-25550000D03*
D14*
X16025000Y-19050000D03*
X3025000Y-19050000D03*
M02*
